<?xml version="1.0" encoding="UTF-8" ?>
<!DOCTYPE svg PUBLIC "-//W3C//DTD SVG 1.1//EN" "http://www.w3.org/Graphics/SVG/1.1/DTD/svg11.dtd">
<svg width="401pt" height="113pt" viewBox="0 0 401 113" version="1.1" xmlns="http://www.w3.org/2000/svg">
<path fill="#ffffff" d=" M 0.00 0.00 L 401.00 0.00 L 401.00 113.00 L 0.00 113.00 L 0.00 0.00 Z" />
<path fill="#c0c0c0" d=" M 181.89 14.78 C 187.15 7.39 195.60 1.59 204.94 1.69 C 214.30 1.71 223.67 1.74 233.03 1.68 C 246.66 1.07 259.94 11.67 262.38 25.07 C 262.74 33.20 263.69 42.09 259.07 49.30 C 256.16 54.66 250.40 57.42 246.70 62.07 C 246.05 68.00 246.73 74.00 246.24 79.95 C 240.71 76.11 236.95 69.96 230.54 67.44 C 230.06 73.98 230.47 80.54 230.31 87.08 C 230.15 89.00 230.15 91.93 227.62 92.08 C 218.78 92.93 209.85 91.89 200.99 92.45 C 198.07 92.73 196.05 95.17 194.03 97.03 C 190.31 101.00 186.67 105.21 181.80 107.82 C 181.53 102.88 180.66 97.99 180.77 93.03 C 171.81 91.57 162.68 92.72 153.64 92.34 C 153.66 71.76 151.62 51.14 153.63 30.61 C 161.27 30.31 168.92 30.86 176.54 30.14 C 177.55 24.81 178.64 19.26 181.89 14.78 Z" />
<path fill="#ffffff" d=" M 187.66 25.16 C 189.84 18.30 196.38 12.03 203.93 12.33 C 213.62 12.25 223.32 12.38 233.01 12.29 C 236.33 12.36 239.89 12.14 242.88 13.87 C 248.31 16.86 252.54 22.61 252.59 28.96 C 252.65 34.06 253.24 39.63 250.48 44.20 C 247.84 48.64 243.26 51.33 238.88 53.77 C 238.82 56.28 238.29 58.74 238.22 61.24 C 235.30 59.42 232.36 57.35 230.58 54.32 C 229.27 52.13 229.53 49.49 229.45 47.05 C 229.51 41.82 229.54 36.60 229.46 31.37 C 227.03 30.86 224.56 30.47 222.07 30.47 C 211.71 30.45 201.35 30.63 190.99 30.47 C 188.10 30.96 186.66 27.49 187.66 25.16 Z" />
<path fill="#c0c0c0" d=" M 330.43 22.61 C 334.27 16.03 343.67 13.16 350.25 17.39 C 355.72 19.91 357.73 25.97 359.29 31.31 C 364.16 31.62 369.07 31.20 373.94 31.65 C 375.42 31.72 376.55 32.96 377.22 34.18 C 378.09 39.16 377.04 44.26 377.79 49.25 C 381.23 51.59 385.60 52.35 388.70 55.23 C 392.48 58.87 394.69 64.51 393.05 69.67 C 391.84 73.19 389.65 76.57 386.36 78.46 C 383.56 80.05 380.53 81.17 377.58 82.42 C 377.47 87.26 377.82 92.11 377.36 96.94 C 377.17 99.56 374.44 100.85 372.08 100.58 C 365.37 100.52 358.63 100.94 351.95 100.30 C 349.86 99.17 350.57 96.55 350.34 94.60 C 350.45 90.93 349.49 86.10 345.60 84.72 C 342.62 84.32 338.74 83.90 336.79 86.74 C 333.91 90.67 334.94 95.89 334.47 100.45 C 327.30 100.59 320.12 100.75 312.96 100.52 C 310.54 100.70 308.34 98.44 308.48 96.04 C 308.23 88.84 308.50 81.63 308.45 74.43 C 312.28 73.17 316.41 73.88 320.25 72.81 C 324.85 71.34 325.68 65.11 323.37 61.46 C 319.76 56.88 313.29 59.42 308.44 57.60 C 308.49 50.38 308.21 43.16 308.48 35.95 C 308.27 33.49 310.58 31.42 312.97 31.55 C 317.52 31.28 322.08 31.52 326.63 31.45 C 327.83 28.48 328.88 25.43 330.43 22.61 Z" />
<path fill="#c0c0c0" d=" M 48.56 26.86 C 52.99 24.84 57.13 22.01 61.90 20.84 C 67.16 22.36 71.83 25.35 76.81 27.57 C 91.46 34.81 106.29 41.68 120.95 48.90 C 117.44 53.05 112.12 54.72 107.42 57.09 C 100.76 60.40 93.94 63.39 87.35 66.84 C 86.90 73.40 88.87 81.43 83.55 86.53 C 75.48 93.66 63.99 92.87 53.98 92.39 C 47.88 91.47 41.12 89.07 37.90 83.41 C 35.55 78.14 37.50 72.19 36.32 66.69 C 35.62 66.52 34.22 66.19 33.52 66.03 C 33.26 71.54 33.37 77.07 33.30 82.59 C 29.51 82.48 24.11 81.90 23.08 77.46 C 22.25 71.92 22.91 66.26 22.75 60.67 C 16.28 56.14 8.20 54.35 2.38 48.85 C 18.00 42.01 33.20 34.26 48.56 26.86 Z" />
<path fill="#ffffff" d=" M 337.26 26.15 C 340.33 21.49 348.86 22.80 350.18 28.37 C 350.63 32.07 350.51 35.84 351.54 39.45 C 357.51 39.52 363.48 39.49 369.45 39.54 C 369.55 45.49 369.51 51.43 369.59 57.38 C 373.52 58.73 377.86 58.03 381.71 59.54 C 386.89 61.74 386.90 70.24 381.68 72.37 C 377.81 73.87 373.51 73.35 369.56 74.55 C 369.51 80.53 369.55 86.52 369.47 92.50 C 366.15 92.55 362.80 92.79 359.50 92.37 C 356.86 88.54 356.43 83.32 352.60 80.30 C 347.71 75.73 339.63 75.04 334.18 79.01 C 329.51 81.98 327.69 87.47 326.25 92.51 C 323.00 92.54 319.74 92.54 316.50 92.51 C 316.48 89.11 316.47 85.72 316.50 82.32 C 321.22 80.39 326.89 79.19 329.80 74.57 C 333.46 69.62 333.56 62.34 329.78 57.43 C 326.80 52.99 321.45 51.30 316.59 49.87 C 316.44 46.43 316.45 42.99 316.47 39.55 C 322.48 39.49 328.49 39.51 334.50 39.47 C 336.01 35.15 334.77 30.14 337.26 26.15 Z" />
<path fill="#ffffff" d=" M 58.96 32.24 C 62.40 30.35 65.93 32.76 69.02 34.21 C 78.94 39.29 89.10 43.89 99.07 48.85 C 97.46 51.34 94.99 53.01 92.27 54.08 C 82.71 58.38 73.47 63.37 63.92 67.68 C 61.68 69.08 59.33 67.41 57.24 66.55 C 51.48 63.67 45.41 61.30 40.27 57.34 C 41.86 56.10 43.48 54.89 45.05 53.63 C 42.64 51.90 40.23 49.36 37.04 49.48 C 33.70 49.95 30.64 51.47 27.50 52.62 C 26.47 51.35 25.47 50.06 24.45 48.79 C 36.10 43.59 47.42 37.67 58.96 32.24 Z" />
<path fill="#ffffff" d=" M 163.46 42.95 C 163.03 40.85 164.94 39.27 166.95 39.57 C 184.43 39.48 201.93 39.56 219.41 39.55 C 220.13 49.02 219.11 58.55 220.13 68.00 C 220.58 72.52 219.92 77.04 219.56 81.54 C 214.01 81.86 208.45 81.68 202.90 81.70 C 197.07 81.20 194.02 87.07 189.84 90.02 C 189.32 87.50 188.62 85.03 188.17 82.50 C 180.00 82.15 171.80 82.74 163.64 82.04 C 163.20 69.02 163.46 55.97 163.46 42.95 Z" />
<path fill="#c0c0c0" d=" M 180.04 44.60 C 183.30 44.79 187.20 43.66 189.90 46.06 C 192.45 48.12 194.65 50.68 197.62 52.17 C 202.94 54.50 208.86 54.49 214.56 54.51 C 214.62 57.48 214.64 60.44 214.59 63.41 C 208.62 63.48 202.40 64.07 196.74 61.72 C 190.62 59.66 185.31 55.48 181.72 50.13 C 180.63 48.49 180.41 46.48 180.04 44.60 Z" />
<path fill="#ffffff" d=" M 47.42 72.64 C 52.46 74.11 56.92 77.14 62.00 78.43 C 66.97 76.88 71.40 73.90 76.52 72.73 C 76.56 74.79 76.59 76.85 76.33 78.90 C 73.33 83.28 67.37 82.51 62.74 82.73 C 57.71 82.47 51.81 83.48 47.70 79.90 C 47.27 77.51 47.42 75.06 47.42 72.64 Z" />
</svg>
