<?xml version="1.0" encoding="UTF-8" standalone="no" ?>
<!DOCTYPE svg PUBLIC "-//W3C//DTD SVG 1.1//EN" "http://www.w3.org/Graphics/SVG/1.1/DTD/svg11.dtd">
<svg xmlns="http://www.w3.org/2000/svg" xmlns:xlink="http://www.w3.org/1999/xlink" version="1.1" width="768" height="256" viewBox="0 0 768 256" xml:space="preserve">
<desc>Created with Fabric.js 3.6.3</desc>
<defs>
</defs>
<g transform="matrix(0.13 0 0 -0.13 127.93 129.02)"  >
<path style="stroke: none; stroke-width: 1; stroke-dasharray: none; stroke-linecap: butt; stroke-dashoffset: 0; stroke-linejoin: miter; stroke-miterlimit: 4; fill: rgb(77,93,245); fill-rule: nonzero; opacity: 1;"  transform=" translate(-960, -959.63)" d="M 282 1900 c -120 -43 -221 -145 -263 -267 c -18 -53 -19 -88 -19 -673 c 0 -587 1 -620 20 -674 c 42 -124 142 -224 267 -267 c 53 -18 88 -19 673 -19 c 585 0 620 1 673 19 c 125 43 225 143 267 267 c 19 54 20 87 20 674 c 0 587 -1 620 -20 674 c -42 124 -142 224 -267 267 c -53 18 -87 19 -677 18 c -580 0 -624 -2 -674 -19 z m 647 -474 c 33 -17 39 -30 108 -226 c 30 -85 57 -158 61 -162 c 4 -4 45 55 92 130 c 69 111 92 140 123 155 c 31 16 42 17 72 7 c 20 -7 43 -23 52 -37 c 9 -13 54 -131 100 -261 c 91 -255 95 -282 52 -328 c -43 -45 -130 -40 -162 10 c -7 11 -33 76 -57 144 c -37 106 -44 120 -55 105 c -7 -10 -43 -67 -80 -128 c -38 -60 -77 -120 -88 -132 c -46 -52 -141 -34 -170 31 c -8 17 -38 99 -67 181 c -29 83 -56 154 -60 158 c -4 5 -87 -120 -185 -278 c -98 -157 -187 -292 -199 -300 c -11 -8 -38 -15 -59 -15 c -31 0 -46 7 -73 34 c -60 60 -62 56 215 500 c 148 237 258 404 272 412 c 32 17 74 17 108 0 z" stroke-linecap="round" />
</g>
<g transform="matrix(4.09 0 0 4.09 499.89 129.99)" style=""  >
		<text xml:space="preserve" font-family="'Oswald', sans-serif" font-size="16" font-style="normal" font-weight="bold" style="stroke: none; stroke-width: 1; stroke-dasharray: none; stroke-linecap: butt; stroke-dashoffset: 0; stroke-linejoin: miter; stroke-miterlimit: 4; fill: rgb(0,0,0); fill-rule: nonzero; opacity: 1; white-space: pre;" ><tspan x="-50.12" y="5.03" >Mises Wallet</tspan></text>
</g>
</svg>