/* XPM */
static char * product_logo_32_xpm[] = {
"32 32 307 2",
"  	c None",
". 	c #4F7FD9",
"+ 	c #507CDB",
"@ 	c #507CDC",
"# 	c #4D7CDD",
"$ 	c #4C7BDD",
"% 	c #4D79DB",
"& 	c #4E78D8",
"* 	c #4879DD",
"= 	c #497CD7",
"- 	c #4776D7",
"; 	c #4572D8",
"> 	c #4373D9",
", 	c #4272D9",
"' 	c #4172D9",
") 	c #4171D9",
"! 	c #4071D9",
"~ 	c #3F70D8",
"{ 	c #3E6FD8",
"] 	c #4172D6",
"^ 	c #3F71D8",
"/ 	c #4273DA",
"( 	c #4C72D8",
"_ 	c #4877D9",
": 	c #4676D6",
"< 	c #4474D9",
"[ 	c #3D6FD8",
"} 	c #3D6ED8",
"| 	c #3E6FD4",
"1 	c #3F70D9",
"2 	c #4573D5",
"3 	c #4672D6",
"4 	c #4575D9",
"5 	c #4575DA",
"6 	c #4574DA",
"7 	c #3C6ED8",
"8 	c #3B6DD8",
"9 	c #3E6DD7",
"0 	c #3C6FD9",
"a 	c #4B74D9",
"b 	c #4372D2",
"c 	c #4573D6",
"d 	c #4674D8",
"e 	c #3A6CD7",
"f 	c #396ED8",
"g 	c #3D6DDA",
"h 	c #446ED1",
"i 	c #436FCF",
"j 	c #4571D3",
"k 	c #4572D4",
"l 	c #4472D6",
"m 	c #4573D9",
"n 	c #3A6CD9",
"o 	c #557FD4",
"p 	c #426BCB",
"q 	c #436DD0",
"r 	c #446FD2",
"s 	c #4471D4",
"t 	c #4573D8",
"u 	c #396CD7",
"v 	c #3B6CD3",
"w 	c #6492E6",
"x 	c #456BCB",
"y 	c #426DCF",
"z 	c #436ED1",
"A 	c #446FD3",
"B 	c #4470D5",
"C 	c #4471D7",
"D 	c #4373D8",
"E 	c #396BD7",
"F 	c #3C6DD6",
"G 	c #6092F2",
"H 	c #6D9FF7",
"I 	c #5B80CF",
"J 	c #4169CC",
"K 	c #426CCF",
"L 	c #4370D3",
"M 	c #4271D5",
"N 	c #4371D6",
"O 	c #4272D8",
"P 	c #6188DC",
"Q 	c #97AFE4",
"R 	c #B4C4E5",
"S 	c #BFC5E3",
"T 	c #A5B1DB",
"U 	c #768BCF",
"V 	c #5E77C9",
"W 	c #5D74C9",
"X 	c #5D77C9",
"Y 	c #6178CB",
"Z 	c #5E7CCE",
"` 	c #5B7BCE",
" .	c #5E7FCF",
"..	c #6282D2",
"+.	c #6081D2",
"@.	c #6588D5",
"#.	c #628CDF",
"$.	c #669AF3",
"%.	c #6BA0F7",
"&.	c #6A9DF2",
"*.	c #4569C3",
"=.	c #416ACD",
"-.	c #416CD0",
";.	c #416ED2",
">.	c #426ED4",
",.	c #4271D6",
"'.	c #4F7BD8",
").	c #B7C7EA",
"!.	c #F6F6F6",
"~.	c #E0E9F6",
"{.	c #C1D5F6",
"].	c #E0E8F6",
"^.	c #CAD1E8",
"/.	c #8397D4",
"(.	c #7E96D6",
"_.	c #7F97D7",
":.	c #839BDA",
"<.	c #86A1DF",
"[.	c #89A5E2",
"}.	c #8CA7E5",
"|.	c #8EA9E6",
"1.	c #8EABE7",
"2.	c #8AAAE5",
"3.	c #6B9CF2",
"4.	c #6B9FF7",
"5.	c #608ADD",
"6.	c #3D64C4",
"7.	c #3F6BCC",
"8.	c #416ED3",
"9.	c #4D78D7",
"0.	c #D7DFEF",
"a.	c #7DAAF5",
"b.	c #4F8DF5",
"c.	c #4E8DF5",
"d.	c #4D8CF5",
"e.	c #4C8CF5",
"f.	c #E2E9F6",
"g.	c #E1E5F1",
"h.	c #92ACE3",
"i.	c #91ACE8",
"j.	c #92AFEA",
"k.	c #93B0EB",
"l.	c #93B1EC",
"m.	c #95B2ED",
"n.	c #97B4EE",
"o.	c #96B4EE",
"p.	c #94B1EA",
"q.	c #649AF5",
"r.	c #6A9FF7",
"s.	c #4A70CA",
"t.	c #3E64C7",
"u.	c #3F6ACE",
"v.	c #3F6CD2",
"w.	c #B8C7E8",
"x.	c #5E96F5",
"y.	c #4C8BF5",
"z.	c #5C95F5",
"A.	c #E2E9F5",
"B.	c #D1DCF0",
"C.	c #98B5EE",
"D.	c #97B5EF",
"E.	c #99B7EF",
"F.	c #9BB8F1",
"G.	c #9BBAF2",
"H.	c #9CBBF3",
"I.	c #9DBDF4",
"J.	c #A1BBF8",
"K.	c #679AF0",
"L.	c #699EF7",
"M.	c #6494E9",
"N.	c #3E62C4",
"O.	c #3C66C8",
"P.	c #5F83D6",
"Q.	c #4B8BF5",
"R.	c #7EABF4",
"S.	c #F5F5F5",
"T.	c #A9C2F1",
"U.	c #9EBBF2",
"V.	c #9FBDF5",
"W.	c #9FBFF6",
"X.	c #A1C0F7",
"Y.	c #A1C1F8",
"Z.	c #A2C3FA",
"`.	c #A1C4FB",
" +	c #689BF4",
".+	c #4E7AD5",
"++	c #3D65C7",
"@+	c #98ADDE",
"#+	c #4A8AF4",
"$+	c #E3EAF5",
"%+	c #C7D6F4",
"&+	c #A1C2F8",
"*+	c #A3C2F9",
"=+	c #A4C4FA",
"-+	c #A3C3FA",
";+	c #A6C3F9",
">+	c #6599F2",
",+	c #6897F2",
"'+	c #3F67CA",
")+	c #B4C3E6",
"!+	c #498AF4",
"~+	c #C2D6F5",
"{+	c #D5E1F6",
"]+	c #689EF7",
"^+	c #5384E1",
"/+	c #B4C3E7",
"(+	c #C3D6F5",
"_+	c #D5E0F6",
":+	c #6599F1",
"<+	c #679DF7",
"[+	c #689CF6",
"}+	c #9CB2E2",
"|+	c #4989F4",
"1+	c #E4EBF5",
"2+	c #CAD9F6",
"3+	c #A2C2FA",
"4+	c #A2C2F9",
"5+	c #6498EE",
"6+	c #679DF6",
"7+	c #78A0EC",
"8+	c #7FABF4",
"9+	c #B0CBF8",
"0+	c #9DC0F8",
"a+	c #6095F5",
"b+	c #669CF6",
"c+	c #C3D6F1",
"d+	c #5C96F4",
"e+	c #C8D2EC",
"f+	c #A2BFF7",
"g+	c #6396F2",
"h+	c #70A3F6",
"i+	c #DEE6F5",
"j+	c #D7DFF1",
"k+	c #A6C3F6",
"l+	c #9AC1F7",
"m+	c #5C95F3",
"n+	c #659BF6",
"o+	c #6FA2F6",
"p+	c #C4D7F5",
"q+	c #BECDEF",
"r+	c #93B2EF",
"s+	c #A1C2FA",
"t+	c #A0BFF8",
"u+	c #5E93F1",
"v+	c #659BF5",
"w+	c #649BF6",
"x+	c #7EAAF5",
"y+	c #AAC7F5",
"z+	c #C1D6F6",
"A+	c #C0D4F6",
"B+	c #A6C2F1",
"C+	c #759EE9",
"D+	c #6690E5",
"E+	c #9BC1F5",
"F+	c #9DC3F7",
"G+	c #5B93F2",
"H+	c #639AF6",
"I+	c #629AF6",
"J+	c #5E91EE",
"K+	c #5889E6",
"L+	c #98BAF3",
"M+	c #9DBEF8",
"N+	c #578CE4",
"O+	c #6293F0",
"P+	c #6299F6",
"Q+	c #5A8EEA",
"R+	c #729BE8",
"S+	c #9FBDF8",
"T+	c #5B92EB",
"U+	c #6199F4",
"V+	c #6197F3",
"W+	c #A1BFF6",
"X+	c #9EC1F4",
"Y+	c #9CC0F4",
"Z+	c #5A8CED",
"`+	c #6198F4",
" @	c #6199F6",
".@	c #5D91ED",
"+@	c #83A7EE",
"@@	c #9DC0F4",
"#@	c #9CC0F7",
"$@	c #5A8EE8",
"%@	c #5F93EE",
"&@	c #6197F4",
"*@	c #5E90E9",
"=@	c #9EBCF8",
"-@	c #5783E1",
";@	c #5A8EEE",
">@	c #6098F5",
",@	c #5E93F0",
"'@	c #91B3F3",
")@	c #9AC0F3",
"!@	c #5789E7",
"~@	c #5D93F3",
"{@	c #5F92EE",
"]@	c #5F95F3",
"^@	c #6897EB",
"/@	c #9CBEF3",
"(@	c #9ABFF5",
"_@	c #5687E7",
":@	c #5588E7",
"<@	c #5182DF",
"[@	c #6E96E2",
"}@	c #8CACE8",
"|@	c #95B2F0",
"1@	c #98BAF4",
"2@	c #9EBAF8",
"                                                                ",
"                        . + @ # $ % & *                         ",
"                  = - ; > , ' ) ! ~ { { ] ^ /                   ",
"              ( _ : < < > , ' ) ! ~ ~ { [ } | 1                 ",
"            2 3 4 5 6 < > , ' ) ! ! ~ { [ } 7 8 9 0             ",
"          a b c d 5 6 < > , ' ) ! ! ~ { [ } 7 8 e f g           ",
"        h i j k l m 6 < > , ' ) ! ! ~ { [ } 7 8 e e n f         ",
"      o p q r s l t < < > , ' ) ! ~ ~ { [ } 7 8 e u u v         ",
"      w x y z A B C D > , , ' ) ! ~ { { [ } 7 8 e u E E F       ",
"    G H I J K z L M N D O P Q R S T U V W X Y Z `  ...+.@.#.    ",
"    $.%.&.*.=.-.;.>.,.'.).!.~.{.{.].!.^./.(._.:.<.[.}.|.1.2.    ",
"    3.4.4.5.6.7.-.8.9.0.~.a.b.c.d.e.a.f.g.h.i.j.k.l.m.n.o.p.    ",
"  q.r.r.4.4.s.t.u.v.w.~.x.b.c.d.d.e.y.z.A.B.o.C.D.E.F.G.H.I.J.  ",
"  K.L.r.r.r.M.N.O.P.!.a.b.c.d.d.e.y.y.Q.R.S.T.U.I.V.W.X.Y.Z.`.  ",
"   +L.L.L.L.L..+++@+~.c.c.d.d.e.y.y.Q.#+#+$+%+&+*+=+-+-+Z.Z.;+  ",
"  >+L.L.L.L.L.,+'+)+{.c.d.d.e.e.y.Q.Q.#+!+~+{+=+=+-+-+-+Z.Z.Z.  ",
"  >+]+]+]+]+]+]+^+/+{.d.e.e.y.y.Q.Q.#+!+!+(+_+=+=+-+-+Z.Z.Z.Z.  ",
"  :+<+<+<+<+<+<+[+}+].e.e.y.y.Q.Q.#+!+!+|+1+2+=+-+-+-+Z.Z.3+4+  ",
"  5+6+6+6+6+6+6+6+7+!.a.y.y.Q.Q.#+!+!+|+8+S.9+-+-+-+Z.Z.Z.3+0+  ",
"  a+b+b+b+b+b+b+b+b+c+f.z.Q.#+#+!+!+|+d+1+e+=+-+-+-+Z.Z.3+3+f+  ",
"    g+b+b+b+b+b+b+b+h+i+A.R.#+!+!+|+R.1+j+k+-+-+-+Z.Z.Z.3+l+    ",
"    m+b+b+b+b+b+b+n+n+o+p+S.$+~+(+1+S.q+r+-+-+-+Z.Z.Z.3+s+t+    ",
"    u+v+n+n+n+n+n+w+w+w+w+x+y+z+A+B+C+D+-+-+-+Z.Z.Z.3+3+E+F+    ",
"      G+w+w+w+w+w+w+w+w+w+w+H+H+I+J+K+L+-+-+Z.Z.Z.3+3+s+M+      ",
"      N+O+w+w+w+w+w+w+H+H+H+I+I+P+Q+R+=+-+Z.Z.Z.3+3+s+S+        ",
"        T+U+H+H+H+H+H+I+I+I+I+P+V+K+W+Z.Z.Z.Z.3+3+s+X+Y+        ",
"          Z+`+I+I+I+I+I+P+P+P+ @.@+@Z.Z.Z.Z.3+3+s+@@#@          ",
"            $@%@P+P+P+P+P+ @ @&@*@-+Z.Z.3+3+s+s+=@Y+            ",
"              -@;@>@ @ @ @ @ @,@'@Z.Z.3+3+s+)@M+                ",
"                  !@~@{@ @ @]@^@/@3+3+s+(@t+F+                  ",
"                        _@:@<@[@}@|@1@2@                        ",
"                                                                "};
