{
    "accessors" : [
        {
            "bufferView" : 0, 
            "componentType" : 5123, 
            "count" : 16092, 
            "max" : [
                3361
            ], 
            "min" : [
                0
            ], 
            "type" : "SCALAR"
        }, 
        {
            "bufferView" : 1, 
            "componentType" : 5126, 
            "count" : 3362, 
            "max" : [
                5.0, 
                5.0, 
                -0.0
            ], 
            "min" : [
                -5.0, 
                -5.000080108642578, 
                -7.0
            ], 
            "type" : "VEC3"
        }, 
        {
            "bufferView" : 2, 
            "componentType" : 5126, 
            "count" : 3362, 
            "max" : [
                1.0, 
                1.0, 
                1.0
            ], 
            "min" : [
                -1.0, 
                -1.0, 
                -1.0
            ], 
            "type" : "VEC3"
        }, 
        {
            "bufferView" : 3, 
            "componentType" : 5126, 
            "count" : 3362, 
            "max" : [
                1.0, 
                1.0, 
                1.0, 
                1.0
            ], 
            "min" : [
                -1.0, 
                -1.0, 
                -1.0, 
                -1.0
            ], 
            "type" : "VEC4"
        }, 
        {
            "bufferView" : 4, 
            "componentType" : 5126, 
            "count" : 3362, 
            "max" : [
                0.9906550049781799, 
                0.9906550003215671
            ], 
            "min" : [
                0.008588000200688839, 
                0.009518980979919434
            ], 
            "type" : "VEC2"
        }
    ], 
    "asset" : {
        "generator" : "Khronos Blender glTF 2.0 exporter", 
        "version" : "2.0"
    }, 
    "bufferViews" : [
        {
            "buffer" : 0, 
            "byteLength" : 32184, 
            "byteOffset" : 0, 
            "target" : 34963
        }, 
        {
            "buffer" : 0, 
            "byteLength" : 40344, 
            "byteOffset" : 32184, 
            "target" : 34962
        }, 
        {
            "buffer" : 0, 
            "byteLength" : 40344, 
            "byteOffset" : 72528, 
            "target" : 34962
        }, 
        {
            "buffer" : 0, 
            "byteLength" : 53792, 
            "byteOffset" : 112872, 
            "target" : 34962
        }, 
        {
            "buffer" : 0, 
            "byteLength" : 26896, 
            "byteOffset" : 166664, 
            "target" : 34962
        }
    ], 
    "buffers" : [
        {
            "byteLength" : 193560, 
            "uri" : "cube-room.bin"
        }
    ], 
    "images" : [
        {
            "uri" : "CubeRoom_BakedDiffuse_2048.png"
        }
    ], 
    "materials" : [
        {
            "name" : "surfaceShader1SG", 
            "pbrMetallicRoughness" : {
                "baseColorTexture" : {
                    "index" : 0
                }, 
                "metallicFactor" : 0.0
            }
        }
    ], 
    "meshes" : [
        {
            "name" : "CubeRoom_GEO", 
            "primitives" : [
                {
                    "attributes" : {
                        "NORMAL" : 2, 
                        "POSITION" : 1, 
                        "TANGENT" : 3, 
                        "TEXCOORD_0" : 4
                    }, 
                    "indices" : 0, 
                    "material" : 0
                }
            ]
        }
    ], 
    "nodes" : [
        {
            "name" : "Camera", 
            "rotation" : [
                0.483536034822464, 
                0.33687159419059753, 
                -0.20870360732078552, 
                0.7804827094078064
            ], 
            "translation" : [
                0.7468423843383789, 
                5.34366512298584, 
                4.142341613769531
            ]
        }, 
        {
            "mesh" : 0, 
            "name" : "CubeRoom_GEO", 
            "rotation" : [
                0.7071068286895752, 
                0.0, 
                -0.0, 
                0.7071067094802856
            ]
        }, 
        {
            "name" : "Lamp", 
            "rotation" : [
                0.16907575726509094, 
                0.7558802962303162, 
                -0.27217137813568115, 
                0.570947527885437
            ], 
            "scale" : [
                1.0, 
                1.0, 
                0.9999999403953552
            ], 
            "translation" : [
                4.076245307922363, 
                5.903861999511719, 
                -1.0054539442062378
            ]
        }
    ], 
    "samplers" : [
        {}
    ], 
    "scene" : 0, 
    "scenes" : [
        {
            "name" : "Scene", 
            "nodes" : [
                1, 
                2, 
                0
            ]
        }
    ], 
    "textures" : [
        {
            "sampler" : 0, 
            "source" : 0
        }
    ]
}
