{
    "accessors" : [
        {
            "bufferView" : 0, 
            "componentType" : 5123, 
            "count" : 432, 
            "max" : [
                273
            ], 
            "min" : [
                0
            ], 
            "type" : "SCALAR"
        }, 
        {
            "bufferView" : 1, 
            "componentType" : 5126, 
            "count" : 274, 
            "max" : [
                8.175168991088867, 
                0.673799991607666, 
                -1.0468289852142334
            ], 
            "min" : [
                -8.175168991088867, 
                -2.516587972640991, 
                -4.934267044067383
            ], 
            "type" : "VEC3"
        }, 
        {
            "bufferView" : 2, 
            "componentType" : 5126, 
            "count" : 274, 
            "max" : [
                1.0, 
                0.9238563179969788, 
                0.9238563179969788
            ], 
            "min" : [
                -1.0, 
                -0.9945982098579407, 
                -0.9238563179969788
            ], 
            "type" : "VEC3"
        }, 
        {
            "bufferView" : 3, 
            "componentType" : 5123, 
            "count" : 1536, 
            "max" : [
                651
            ], 
            "min" : [
                0
            ], 
            "type" : "SCALAR"
        }, 
        {
            "bufferView" : 4, 
            "componentType" : 5126, 
            "count" : 652, 
            "max" : [
                8.119186401367188, 
                5.237863063812256, 
                -0.08889699727296829
            ], 
            "min" : [
                -8.119186401367188, 
                -17.087486267089844, 
                -9.969425201416016
            ], 
            "type" : "VEC3"
        }, 
        {
            "bufferView" : 5, 
            "componentType" : 5126, 
            "count" : 652, 
            "max" : [
                1.0, 
                1.0, 
                1.0
            ], 
            "min" : [
                -1.0, 
                -1.0, 
                -1.0
            ], 
            "type" : "VEC3"
        }, 
        {
            "bufferView" : 6, 
            "componentType" : 5121, 
            "count" : 240, 
            "max" : [
                175
            ], 
            "min" : [
                0
            ], 
            "type" : "SCALAR"
        }, 
        {
            "bufferView" : 7, 
            "componentType" : 5126, 
            "count" : 176, 
            "max" : [
                4.679182052612305, 
                -2.3052899837493896, 
                -1.5028560161590576
            ], 
            "min" : [
                -4.679182052612305, 
                -2.5328919887542725, 
                -4.478239059448242
            ], 
            "type" : "VEC3"
        }, 
        {
            "bufferView" : 8, 
            "componentType" : 5126, 
            "count" : 176, 
            "max" : [
                0.252235472202301, 
                -0.9620044827461243, 
                0.252235472202301
            ], 
            "min" : [
                -0.252235472202301, 
                -0.9989318251609802, 
                -0.252235472202301
            ], 
            "type" : "VEC3"
        }
    ], 
    "asset" : {
        "generator" : "Khronos Blender glTF 2.0 exporter", 
        "version" : "2.0"
    }, 
    "bufferViews" : [
        {
            "buffer" : 0, 
            "byteLength" : 864, 
            "byteOffset" : 0, 
            "target" : 34963
        }, 
        {
            "buffer" : 0, 
            "byteLength" : 3288, 
            "byteOffset" : 864, 
            "target" : 34962
        }, 
        {
            "buffer" : 0, 
            "byteLength" : 3288, 
            "byteOffset" : 4152, 
            "target" : 34962
        }, 
        {
            "buffer" : 0, 
            "byteLength" : 3072, 
            "byteOffset" : 7440, 
            "target" : 34963
        }, 
        {
            "buffer" : 0, 
            "byteLength" : 7824, 
            "byteOffset" : 10512, 
            "target" : 34962
        }, 
        {
            "buffer" : 0, 
            "byteLength" : 7824, 
            "byteOffset" : 18336, 
            "target" : 34962
        }, 
        {
            "buffer" : 0, 
            "byteLength" : 240, 
            "byteOffset" : 26160, 
            "target" : 34963
        }, 
        {
            "buffer" : 0, 
            "byteLength" : 2112, 
            "byteOffset" : 26400, 
            "target" : 34962
        }, 
        {
            "buffer" : 0, 
            "byteLength" : 2112, 
            "byteOffset" : 28512, 
            "target" : 34962
        }
    ], 
    "buffers" : [
        {
            "byteLength" : 30624, 
            "uri" : "headset.bin"
        }
    ], 
    "materials" : [
        {
            "name" : "039BE5", 
            "pbrMetallicRoughness" : {
                "baseColorFactor" : [
                    0.01176500041037798, 
                    0.6078429818153381, 
                    0.8980389833450317, 
                    1.0
                ], 
                "metallicFactor" : 0.0
            }
        }, 
        {
            "name" : "1A1A1A", 
            "pbrMetallicRoughness" : {
                "baseColorFactor" : [
                    0.10196100175380707, 
                    0.10196100175380707, 
                    0.10196100175380707, 
                    1.0
                ], 
                "metallicFactor" : 0.0
            }
        }, 
        {
            "name" : "455A64", 
            "pbrMetallicRoughness" : {
                "baseColorFactor" : [
                    0.2705880105495453, 
                    0.35294100642204285, 
                    0.3921569883823395, 
                    1.0
                ], 
                "metallicFactor" : 0.0
            }
        }
    ], 
    "meshes" : [
        {
            "name" : "High-end_headset_01_Cube.027", 
            "primitives" : [
                {
                    "attributes" : {
                        "NORMAL" : 2, 
                        "POSITION" : 1
                    }, 
                    "indices" : 0, 
                    "material" : 2
                }, 
                {
                    "attributes" : {
                        "NORMAL" : 5, 
                        "POSITION" : 4
                    }, 
                    "indices" : 3, 
                    "material" : 1
                }, 
                {
                    "attributes" : {
                        "NORMAL" : 8, 
                        "POSITION" : 7
                    }, 
                    "indices" : 6, 
                    "material" : 0
                }
            ]
        }
    ], 
    "nodes" : [
        {
            "name" : "Camera", 
            "rotation" : [
                0.483536034822464, 
                0.33687159419059753, 
                -0.20870360732078552, 
                0.7804827094078064
            ], 
            "translation" : [
                7.481131553649902, 
                5.34366512298584, 
                6.5076398849487305
            ]
        }, 
        {
            "mesh" : 0, 
            "name" : "High-end_headset_01_Cube.027", 
            "rotation" : [
                -3.090862321641907e-08, 
                0.7071067094802856, 
                -0.7071068286895752, 
                -3.0908616110991716e-08
            ], 
            "scale" : [
                0.014999999664723873, 
                0.014999999664723873, 
                0.014999999664723873
            ], 
            "translation" : [
                0.0012450367212295532, 
                -0.04483199119567871, 
                -0.04807005822658539
            ]
        }, 
        {
            "name" : "Lamp", 
            "rotation" : [
                0.16907575726509094, 
                0.7558802962303162, 
                -0.27217137813568115, 
                0.570947527885437
            ], 
            "scale" : [
                1.0, 
                1.0, 
                0.9999999403953552
            ], 
            "translation" : [
                4.076245307922363, 
                5.903861999511719, 
                -1.0054539442062378
            ]
        }
    ], 
    "scene" : 0, 
    "scenes" : [
        {
            "name" : "Scene", 
            "nodes" : [
                1, 
                2, 
                0
            ]
        }
    ]
}
