<?xml version="1.0" encoding="UTF-8" standalone="no"?>
<svg
   xmlns:dc="http://purl.org/dc/elements/1.1/"
   xmlns:cc="http://creativecommons.org/ns#"
   xmlns:rdf="http://www.w3.org/1999/02/22-rdf-syntax-ns#"
   xmlns:svg="http://www.w3.org/2000/svg"
   xmlns="http://www.w3.org/2000/svg"
   xmlns:sodipodi="http://sodipodi.sourceforge.net/DTD/sodipodi-0.dtd"
   xmlns:inkscape="http://www.inkscape.org/namespaces/inkscape"
   width="5.3200002"
   height="5.3200002"
   viewBox="0 0 5.3200001 5.3200001"
   id="svg3070"
   version="1.1"
   inkscape:version="0.48.4 r9939"
   sodipodi:docname="cog2.svg">
  <defs
     id="defs7" />
  <metadata
     id="metadata3080">
    <rdf:RDF>
      <cc:Work
         rdf:about="">
        <dc:format>image/svg+xml</dc:format>
        <dc:type
           rdf:resource="http://purl.org/dc/dcmitype/StillImage" />
      </cc:Work>
    </rdf:RDF>
  </metadata>
  <sodipodi:namedview
     pagecolor="#ffffff"
     bordercolor="#666666"
     borderopacity="1"
     objecttolerance="10"
     gridtolerance="10"
     guidetolerance="10"
     inkscape:pageopacity="0"
     inkscape:pageshadow="2"
     inkscape:window-width="1855"
     inkscape:window-height="1176"
     id="namedview3076"
     showgrid="false"
     inkscape:zoom="90.509668"
     inkscape:cx="1.9628626"
     inkscape:cy="2.935888"
     inkscape:window-x="65"
     inkscape:window-y="24"
     inkscape:window-maximized="1"
     inkscape:current-layer="svg3070"
     inkscape:snap-global="false"
     fit-margin-top="0.1"
     fit-margin-bottom="0.1"
     fit-margin-right="0.1"
     fit-margin-left="0.1">
    <inkscape:grid
       type="xygrid"
       id="grid4407"
       empspacing="5"
       visible="true"
       enabled="true"
       snapvisiblegridlinesonly="true"
       originx="-25.839217px"
       originy="-16.914482px" />
  </sodipodi:namedview>
  <path
     sodipodi:nodetypes="ccccccccccccccccccccccccccccccccccccsssc"
     inkscape:connector-curvature="0"
     id="path3053"
     d="M 2.5313438,0.10000017 2.3745594,0.85150325 C 2.2137389,0.87678122 2.0595108,0.9231857 1.914314,0.988141 L 1.3730812,0.44254207 0.75876058,0.9406976 1.1795007,1.5830834 C 1.0857868,1.7116618 1.0084841,1.8532134 0.950365,2.0053293 L 0.18296036,2.0014373 0.1,2.7889981 0.85160297,2.9455629 C 0.87686447,3.106301 0.92299857,3.2606303 0.9878984,3.4057636 L 0.44271562,3.9466193 0.9404913,4.5614876 1.5834533,4.1401878 C 1.7119259,4.2338351 1.853205,4.3107607 2.0051804,4.3688651 L 2.0019604,5.13745 2.7891415,5.2200001 2.9454423,4.467546 C 3.1063097,4.4423079 3.2604494,4.3968116 3.4056887,4.3318583 L 3.9469237,4.8774572 4.5622302,4.3793016 4.140502,3.7369169 C 4.234216,3.6083825 4.3115021,3.4667371 4.3696378,3.3146711 L 5.1380315,3.3174653 5.2200035,2.5308525 4.468397,2.3742888 C 4.4431251,2.2134169 4.3970949,2.0585457 4.332088,1.9132289 L 4.8772718,1.3733222 4.3794951,0.75750674 3.7375211,1.1788046 C 3.6088561,1.0850775 3.4669644,1.0083395 3.3147716,0.9501871 l 0.00364,-0.76763486 z M 2.6619661,1.9275214 c 0.024741,8.89e-5 0.04993,0.0012 0.075067,0.00389 0.4021284,0.042243 0.6931053,0.4024955 0.6508628,0.8046407 C 3.3456619,3.1382013 2.9860754,3.4301733 2.583948,3.3879283 2.1818185,3.3456852 1.8898546,2.9854338 1.9320961,2.5832866 1.9716991,2.2062736 2.2909014,1.9263319 2.6619715,1.9276182 z"
     style="fill:#ffffff;fill-opacity:1;stroke:none" />
</svg>
