<?xml version="1.0" encoding="UTF-8" standalone="no"?>
<svg
   xmlns:dc="http://purl.org/dc/elements/1.1/"
   xmlns:cc="http://creativecommons.org/ns#"
   xmlns:rdf="http://www.w3.org/1999/02/22-rdf-syntax-ns#"
   xmlns:svg="http://www.w3.org/2000/svg"
   xmlns="http://www.w3.org/2000/svg"
   xmlns:sodipodi="http://sodipodi.sourceforge.net/DTD/sodipodi-0.dtd"
   xmlns:inkscape="http://www.inkscape.org/namespaces/inkscape"
   width="48"
   height="48"
   viewBox="0 0 48 48"
   id="svg3070"
   version="1.1"
   inkscape:version="0.48.4 r9939"
   sodipodi:docname="android_icon.svg">
  <metadata
     id="metadata3080">
    <rdf:RDF>
      <cc:Work
         rdf:about="">
        <dc:format>image/svg+xml</dc:format>
        <dc:type
           rdf:resource="http://purl.org/dc/dcmitype/StillImage" />
      </cc:Work>
    </rdf:RDF>
  </metadata>
  <defs
     id="defs3078">
    <filter
       inkscape:collect="always"
       id="filter3987">
      <feGaussianBlur
         inkscape:collect="always"
         stdDeviation="1.0204955"
         id="feGaussianBlur3989" />
    </filter>
  </defs>
  <sodipodi:namedview
     pagecolor="#ffffff"
     bordercolor="#666666"
     borderopacity="1"
     objecttolerance="10"
     gridtolerance="10"
     guidetolerance="10"
     inkscape:pageopacity="0"
     inkscape:pageshadow="2"
     inkscape:window-width="1855"
     inkscape:window-height="1176"
     id="namedview3076"
     showgrid="false"
     inkscape:zoom="16"
     inkscape:cx="3.271104"
     inkscape:cy="18.864582"
     inkscape:window-x="1985"
     inkscape:window-y="24"
     inkscape:window-maximized="1"
     inkscape:current-layer="svg3070"
     inkscape:snap-global="false">
    <inkscape:grid
       type="xygrid"
       id="grid4407" />
  </sodipodi:namedview>
  <rect
     style="fill:#323232;fill-opacity:1;stroke:none"
     id="rect4405"
     width="37.970795"
     height="37.985714"
     x="4.9828935"
     y="4.9963875"
     ry="2.8708735" />
  <path
     sodipodi:nodetypes="sscsssccssscssccssssssssssssssscssccscssscccczzzzzzzzzz"
     style="fill:#6afff9;fill-opacity:1;stroke:none;filter:url(#filter3987)"
     inkscape:connector-curvature="0"
     id="path3903"
     d="m 12.867638,35.132271 c 0,1.020467 0.834928,1.855394 1.855394,1.855394 l 1.855394,0 0,6.493877 c 0,1.539977 1.243113,2.783091 2.78309,2.783091 1.539977,0 2.78309,-1.243114 2.78309,-2.783091 l 0,-6.493877 3.710788,0 0,6.493877 c 0,1.539977 1.243113,2.783091 2.78309,2.783091 1.539977,0 2.78309,-1.243114 2.78309,-2.783091 l 0,-6.493877 1.855394,0 c 1.020466,0 1.855394,-0.834927 1.855394,-1.855394 l 0,-18.553936 -22.264724,0 z M 8.229155,16.578335 c -1.539977,0 -2.783091,1.243114 -2.783091,2.783091 l 0,12.987755 c 0,1.539976 1.243114,2.78309 2.783091,2.78309 1.539976,0 2.78309,-1.243114 2.78309,-2.78309 l 0,-12.987755 c 0,-1.539977 -1.243114,-2.783091 -2.78309,-2.783091 z m 31.54169,0 c -1.539976,0 -2.78309,1.243114 -2.78309,2.783091 l 0,12.987755 c 0,1.539976 1.243114,2.78309 2.78309,2.78309 1.539977,0 2.783091,-1.243114 2.783091,-2.78309 l 0,-12.987755 c 0,-1.539977 -1.243114,-2.783091 -2.783091,-2.783091 z M 30.549539,5.742837 32.970828,3.321548 c 0.361802,-0.361802 0.361802,-0.946251 0,-1.308052 -0.361802,-0.361802 -0.946251,-0.361802 -1.308052,0 L 28.916793,4.750201 C 27.432478,4.017321 25.771901,3.59058 24,3.59058 c -1.781178,0 -3.451032,0.426741 -4.944624,1.168898 L 16.300117,2.004219 c -0.361802,-0.361802 -0.946251,-0.361802 -1.308053,0 -0.361802,0.361801 -0.361802,0.94625 0,1.308052 l 2.430566,2.430566 c -2.75526,2.031656 -4.554992,5.297148 -4.554992,8.980105 l 22.264724,0 c 0,-3.692234 -1.809009,-6.957726 -4.582823,-8.980105 z M 19.3615,11.012155 c -0.542479,0 -0.927681,-0.418069 -0.927681,-0.928155 0,-0.510086 0.369591,-0.927239 0.927681,-0.927239 0.55809,0 0.927713,0.426961 0.927713,0.928239 0,0.501278 -0.385234,0.927155 -0.927713,0.927155 z m 9.277,0 c -0.600761,0.02226 -0.927713,-0.465564 -0.927713,-0.927655 0,-0.462091 0.396814,-0.927739 0.927713,-0.927739 0.530899,0 0.927681,0.443102 0.927681,0.927739 0,0.484637 -0.32692,0.905397 -0.927681,0.927655 z"
     transform="matrix(0.72047804,0,0,0.7213519,6.7318483,6.6891355)" />
  <path
     sodipodi:nodetypes="sscsssccssscssccssssssssssssssscssccscssscccczzzzzzzzzz"
     style="opacity:0.6;fill:#6bc1c1;fill-opacity:1;stroke:none"
     inkscape:connector-curvature="0"
     id="path3949"
     d="m 16.002699,32.031866 c 0,0.736116 0.601547,1.338392 1.33677,1.338392 l 1.336771,0 0,4.68437 c 0,1.110866 0.895635,2.007588 2.005156,2.007588 1.109519,0 2.005154,-0.896722 2.005154,-2.007588 l 0,-4.68437 2.673542,0 0,4.68437 c 0,1.110866 0.895635,2.007588 2.005155,2.007588 1.10952,0 2.005155,-0.896722 2.005155,-2.007588 l 0,-4.68437 1.336771,0 c 0.735223,0 1.33677,-0.602276 1.33677,-1.338392 l 0,-13.383917 -16.041244,0 z M 12.660774,18.647949 c -1.10952,0 -2.005156,0.896722 -2.005156,2.007588 l 0,9.368741 c 0,1.110865 0.895636,2.007588 2.005156,2.007588 1.109518,0 2.005155,-0.896723 2.005155,-2.007588 l 0,-9.368741 c 0,-1.110866 -0.895637,-2.007588 -2.005155,-2.007588 z m 22.725095,0 c -1.10952,0 -2.005156,0.896722 -2.005156,2.007588 l 0,9.368741 c 0,1.110865 0.895636,2.007588 2.005156,2.007588 1.109519,0 2.005155,-0.896723 2.005155,-2.007588 l 0,-9.368741 c 0,-1.110866 -0.895636,-2.007588 -2.005155,-2.007588 z M 28.74212,10.831741 30.486605,9.0851405 c 0.260671,-0.2609863 0.260671,-0.6825797 0,-0.9435662 -0.26067,-0.2609863 -0.681752,-0.2609863 -0.942422,0 l -1.97842,1.9741277 C 26.496346,9.5870374 25.299937,9.2792073 24.023321,9.2792073 c -1.283299,0 -2.486392,0.3078301 -3.562493,0.8431867 L 18.475724,8.1348825 c -0.26067,-0.2609865 -0.681753,-0.2609865 -0.942423,0 -0.26067,0.2609863 -0.26067,0.6825797 0,0.9435661 l 1.75117,1.7532924 c -1.985105,1.465539 -3.281772,3.821109 -3.281772,6.477816 l 16.041244,0 c 0,-2.663399 -1.30335,-5.018969 -3.301823,-6.477816 z m -8.060736,3.801033 c -0.390844,0 -0.668374,-0.301575 -0.668374,-0.669526 0,-0.367952 0.266282,-0.668865 0.668374,-0.668865 0.402091,0 0.668396,0.307989 0.668396,0.669587 0,0.361597 -0.277552,0.668804 -0.668396,0.668804 z m 6.683874,0 c -0.432835,0.01606 -0.668397,-0.335835 -0.668397,-0.669166 0,-0.33333 0.285897,-0.669225 0.668397,-0.669225 0.382502,0 0.668374,0.319632 0.668374,0.669225 0,0.349594 -0.235538,0.653111 -0.668374,0.669166 z" />
  <path
     style="fill:none"
     inkscape:connector-curvature="0"
     d="M 6.7318483,6.6891355 H 41.314795 V 41.314027 H 6.7318483 z"
     id="path3072" />
  <path
     style="fill:#ffffff;fill-opacity:1"
     inkscape:connector-curvature="0"
     id="path3852"
     d="m 12.660774,20.069261 c -0.44708,0 -0.564246,0.175612 -0.564246,1.286478 l 0,7.968241 c 0,1.110865 0.108254,1.28604 0.564246,1.28604 0.470843,0 0.564023,-0.175175 0.564023,-1.28604 l 0,-7.968241 c 0,-1.110866 -0.07833,-1.286478 -0.564023,-1.286478 z m 22.725206,0.361 c -0.504569,0 -0.564134,0.175612 -0.564134,1.286478 l 0,7.247241 c 0,1.110864 0.08466,1.28604 0.564023,1.28604 0.512973,0 0.564246,-0.175176 0.564246,-1.28604 l 0,-7.247241 c 0,-1.110866 -0.08477,-1.286478 -0.564135,-1.286478 z m -7.795932,-9.093817 2.663977,-2.5949285 c 0.108383,-0.1055735 0.06434,-0.2683976 -0.02073,-0.3542934 -0.08506,-0.085896 -0.320377,-0.059828 -0.417329,0.05926 l -2.609941,2.6064709 c -1.069417,-0.528665 -1.906096,-0.763551 -3.182712,-0.763551 -1.283299,0 -2.126425,0.235047 -3.202525,0.770404 L 18.204001,8.4397766 c -0.0889,-0.089013 -0.262937,-0.1579431 -0.382555,-0.016511 -0.119618,0.1414319 -0.08552,0.2835905 0.01655,0.382958 l 2.599503,2.5305814 c -1.242042,0.890276 -2.646962,2.360299 -2.805595,3.994013 -0.02916,0.300308 -0.03567,0.64879 0.05676,0.771869 0.09241,0.123078 0.24306,0.143031 0.24306,0.143031 l 12.023156,0 c 0,0 0.243151,-0.04207 0.301958,-0.151443 0.05881,-0.109377 0.112324,-0.354684 0.07727,-0.680595 -0.16722,-1.55458 -1.478226,-3.153195 -2.74406,-4.077236 z m -6.908664,3.584758 c -0.526962,0 -0.956435,-0.253004 -0.956435,-0.957595 0,-0.70459 0.528127,-1.029729 0.956435,-1.029729 0.428307,0 0.956434,0.305212 0.956434,1.029729 0,0.724518 -0.429472,0.957595 -0.956434,0.957595 z m 6.683874,0.07213 c -0.587253,0 -1.028482,-0.415879 -1.028482,-1.030091 0,-0.614211 0.406962,-1.029369 1.028843,-1.029369 0.62188,0 1.028122,0.423363 1.028122,1.029729 0,0.606367 -0.441229,1.029731 -1.028483,1.029731 z"
     sodipodi:nodetypes="sssssssssssssscszccscszscszcczsczzzzzzzzzz" />
  <rect
     style="fill:#ffffff;fill-opacity:0.97716896;stroke:none"
     id="rect3856"
     width="1.2769656"
     height="4.8565254"
     x="20.039185"
     y="33.769924"
     ry="0.46252623" />
  <rect
     ry="0.46252623"
     y="33.769924"
     x="26.743933"
     height="4.8565254"
     width="1.2769656"
     id="rect3858"
     style="fill:#ffffff;fill-opacity:0.97716896;stroke:none" />
  <path
     style="fill:#ffffff;fill-opacity:1;stroke:none"
     d="m 21.496892,20.085776 -0.14435,1.431939 c -0.294452,0.07858 -0.573357,0.194694 -0.83096,0.344197 l -1.113013,-0.910889 -1.047489,1.048759 0.909785,1.115313 c -0.149318,0.257999 -0.265332,0.537071 -0.34378,0.831971 l -1.430204,0.143573 0,1.483283 1.430204,0.144525 c 0.07845,0.294646 0.194578,0.573219 0.34378,0.831019 l -0.909785,1.115314 1.047489,1.048757 1.113962,-0.910888 c 0.257484,0.149381 0.535722,0.265656 0.830011,0.344198 l 0.14435,1.431938 1.481486,0 0.143401,-1.431938 c 0.294543,-0.07855 0.573276,-0.194698 0.830961,-0.344198 l 1.113964,0.910888 1.047486,-1.048757 -0.909785,-1.114363 c 0.149323,-0.257918 0.265292,-0.53716 0.343782,-0.83197 l 1.430204,-0.144525 0,-1.483283 -1.430204,-0.143573 c -0.07849,-0.295065 -0.194343,-0.574803 -0.343782,-0.832921 l 0.909785,-1.114363 -1.047486,-1.048759 -1.113014,0.910889 c -0.257805,-0.149619 -0.537204,-0.26561 -0.831911,-0.344197 l -0.143401,-1.431939 z m 0.740744,3.374468 c 0.756888,0 1.370738,0.614231 1.370738,1.372037 0,0.757807 -0.61385,1.372036 -1.370738,1.372036 -0.756889,0 -1.370011,-0.614229 -1.370011,-1.372036 0,-0.757806 0.613122,-1.372037 1.370011,-1.372037 z"
     id="path3055"
     inkscape:connector-curvature="0"
     sodipodi:nodetypes="cccccccccccccccccccccccccccccccccsssss">
    <animateTransform
       attributeName="transform"
       attributeType="XML"
       type="rotate"
       from="0 21.988 25.395"
       to="360 21.988 25.395"
       dur="2s"
       repeatDur="indefinite"
       id="animateTransform3000" />
  </path>
  <path
     sodipodi:type="arc"
     style="fill:#ffffff;fill-opacity:1;stroke:none"
     id="path4044"
     sodipodi:cx="8.0457087"
     sodipodi:cy="18.569031"
     sodipodi:rx="1.3526119"
     sodipodi:ry="1.3526119"
     d="m 9.3983206,18.569031 a 1.3526119,1.3526119 0 1 1 -2.7052238,0 1.3526119,1.3526119 0 1 1 2.7052238,0 z"
     transform="matrix(0.55879234,0,0,0.57941537,7.5486703,9.778199)" />
  <path
     transform="matrix(0.55879234,0,0,0.57941537,8.7460832,9.790094)"
     d="m 9.3983206,18.569031 a 1.3526119,1.3526119 0 1 1 -2.7052238,0 1.3526119,1.3526119 0 1 1 2.7052238,0 z"
     sodipodi:ry="1.3526119"
     sodipodi:rx="1.3526119"
     sodipodi:cy="18.569031"
     sodipodi:cx="8.0457087"
     id="path4048"
     style="fill:#ffffff;fill-opacity:1;stroke:none"
     sodipodi:type="arc" />
  <path
     sodipodi:type="arc"
     style="fill:#ffffff;fill-opacity:1;stroke:none"
     id="path4056"
     sodipodi:cx="8.0457087"
     sodipodi:cy="18.569031"
     sodipodi:rx="1.3526119"
     sodipodi:ry="1.3526119"
     d="m 9.3983206,18.569031 a 1.3526119,1.3526119 0 1 1 -2.7052238,0 1.3526119,1.3526119 0 1 1 2.7052238,0 z"
     transform="matrix(0.55879234,0,0,0.57941537,7.5486703,19.369198)" />
  <path
     transform="matrix(0.55879234,0,0,0.57941537,8.7460832,19.381094)"
     d="m 9.3983206,18.569031 a 1.3526119,1.3526119 0 1 1 -2.7052238,0 1.3526119,1.3526119 0 1 1 2.7052238,0 z"
     sodipodi:ry="1.3526119"
     sodipodi:rx="1.3526119"
     sodipodi:cy="18.569031"
     sodipodi:cx="8.0457087"
     id="path4058"
     style="fill:#ffffff;fill-opacity:1;stroke:none"
     sodipodi:type="arc" />
  <path
     sodipodi:type="arc"
     style="fill:#ffffff;fill-opacity:1;stroke:none"
     id="path4060"
     sodipodi:cx="8.0457087"
     sodipodi:cy="18.569031"
     sodipodi:rx="1.3526119"
     sodipodi:ry="1.3526119"
     d="m 9.3983206,18.569031 a 1.3526119,1.3526119 0 1 1 -2.7052238,0 1.3526119,1.3526119 0 1 1 2.7052238,0 z"
     transform="matrix(0.55879234,0,0,0.57941537,30.29884,9.7781986)" />
  <path
     transform="matrix(0.55879234,0,0,0.57941537,31.496253,9.790094)"
     d="m 9.3983206,18.569031 a 1.3526119,1.3526119 0 1 1 -2.7052238,0 1.3526119,1.3526119 0 1 1 2.7052238,0 z"
     sodipodi:ry="1.3526119"
     sodipodi:rx="1.3526119"
     sodipodi:cy="18.569031"
     sodipodi:cx="8.0457087"
     id="path4062"
     style="fill:#ffffff;fill-opacity:1;stroke:none"
     sodipodi:type="arc" />
  <path
     transform="matrix(0.55879234,0,0,0.57941537,30.29884,19.369198)"
     d="m 9.3983206,18.569031 a 1.3526119,1.3526119 0 1 1 -2.7052238,0 1.3526119,1.3526119 0 1 1 2.7052238,0 z"
     sodipodi:ry="1.3526119"
     sodipodi:rx="1.3526119"
     sodipodi:cy="18.569031"
     sodipodi:cx="8.0457087"
     id="path4064"
     style="fill:#ffffff;fill-opacity:1;stroke:none"
     sodipodi:type="arc" />
  <path
     sodipodi:type="arc"
     style="fill:#ffffff;fill-opacity:1;stroke:none"
     id="path4066"
     sodipodi:cx="8.0457087"
     sodipodi:cy="18.569031"
     sodipodi:rx="1.3526119"
     sodipodi:ry="1.3526119"
     d="m 9.3983206,18.569031 a 1.3526119,1.3526119 0 1 1 -2.7052238,0 1.3526119,1.3526119 0 1 1 2.7052238,0 z"
     transform="matrix(0.55879234,0,0,0.57941537,31.496253,19.381094)" />
  <path
     transform="matrix(0.55879234,0,0,0.57941537,15.574004,23.349403)"
     d="m 9.3983206,18.569031 a 1.3526119,1.3526119 0 1 1 -2.7052238,0 1.3526119,1.3526119 0 1 1 2.7052238,0 z"
     sodipodi:ry="1.3526119"
     sodipodi:rx="1.3526119"
     sodipodi:cy="18.569031"
     sodipodi:cx="8.0457087"
     id="path4068"
     style="fill:#ffffff;fill-opacity:1;stroke:none"
     sodipodi:type="arc" />
  <path
     sodipodi:type="arc"
     style="fill:#ffffff;fill-opacity:1;stroke:none"
     id="path4070"
     sodipodi:cx="8.0457087"
     sodipodi:cy="18.569031"
     sodipodi:rx="1.3526119"
     sodipodi:ry="1.3526119"
     d="m 9.3983206,18.569031 a 1.3526119,1.3526119 0 1 1 -2.7052238,0 1.3526119,1.3526119 0 1 1 2.7052238,0 z"
     transform="matrix(0.55879234,0,0,0.57941537,16.771416,23.361299)" />
  <path
     sodipodi:type="arc"
     style="fill:#ffffff;fill-opacity:1;stroke:none"
     id="path4072"
     sodipodi:cx="8.0457087"
     sodipodi:cy="18.569031"
     sodipodi:rx="1.3526119"
     sodipodi:ry="1.3526119"
     d="m 9.3983206,18.569031 a 1.3526119,1.3526119 0 1 1 -2.7052238,0 1.3526119,1.3526119 0 1 1 2.7052238,0 z"
     transform="matrix(0.55879234,0,0,0.57941537,22.274856,23.349403)" />
  <path
     transform="matrix(0.55879234,0,0,0.57941537,23.472269,23.361299)"
     d="m 9.3983206,18.569031 a 1.3526119,1.3526119 0 1 1 -2.7052238,0 1.3526119,1.3526119 0 1 1 2.7052238,0 z"
     sodipodi:ry="1.3526119"
     sodipodi:rx="1.3526119"
     sodipodi:cy="18.569031"
     sodipodi:cx="8.0457087"
     id="path4074"
     style="fill:#ffffff;fill-opacity:1;stroke:none"
     sodipodi:type="arc" />
  <path
     sodipodi:type="arc"
     style="fill:#ffffff;fill-opacity:1;stroke:none"
     id="path4076"
     sodipodi:cx="8.0457087"
     sodipodi:cy="18.569031"
     sodipodi:rx="1.3526119"
     sodipodi:ry="1.3526119"
     d="m 9.3983206,18.569031 a 1.3526119,1.3526119 0 1 1 -2.7052238,0 1.3526119,1.3526119 0 1 1 2.7052238,0 z"
     transform="matrix(0.55879234,0,0,0.57941537,15.574004,27.382394)" />
  <path
     transform="matrix(0.55879234,0,0,0.57941537,16.771416,27.39429)"
     d="m 9.3983206,18.569031 a 1.3526119,1.3526119 0 1 1 -2.7052238,0 1.3526119,1.3526119 0 1 1 2.7052238,0 z"
     sodipodi:ry="1.3526119"
     sodipodi:rx="1.3526119"
     sodipodi:cy="18.569031"
     sodipodi:cx="8.0457087"
     id="path4078"
     style="fill:#ffffff;fill-opacity:1;stroke:none"
     sodipodi:type="arc" />
  <path
     transform="matrix(0.55879234,0,0,0.57941537,22.274856,27.382394)"
     d="m 9.3983206,18.569031 a 1.3526119,1.3526119 0 1 1 -2.7052238,0 1.3526119,1.3526119 0 1 1 2.7052238,0 z"
     sodipodi:ry="1.3526119"
     sodipodi:rx="1.3526119"
     sodipodi:cy="18.569031"
     sodipodi:cx="8.0457087"
     id="path4080"
     style="fill:#ffffff;fill-opacity:1;stroke:none"
     sodipodi:type="arc" />
  <path
     sodipodi:type="arc"
     style="fill:#ffffff;fill-opacity:1;stroke:none"
     id="path4082"
     sodipodi:cx="8.0457087"
     sodipodi:cy="18.569031"
     sodipodi:rx="1.3526119"
     sodipodi:ry="1.3526119"
     d="m 9.3983206,18.569031 a 1.3526119,1.3526119 0 1 1 -2.7052238,0 1.3526119,1.3526119 0 1 1 2.7052238,0 z"
     transform="matrix(0.55879234,0,0,0.57941537,23.472269,27.39429)" />
  <path
     sodipodi:nodetypes="ccccccccccccccccccccccccccccccccccccsssc"
     inkscape:connector-curvature="0"
     id="path3053"
     d="m 27.928862,26.697346 -0.213013,0.73786 c -0.15621,0.01235 -0.307867,0.04632 -0.452421,0.09955 l -0.473026,-0.588207 -0.630257,0.448196 0.349485,0.675196 c -0.100539,0.120881 -0.186436,0.256034 -0.254833,0.403273 l -0.734999,-0.06541 -0.145288,0.779784 0.707103,0.216593 c 0.01078,0.162534 0.04209,0.320341 0.09215,0.470469 l -0.567577,0.496377 0.425598,0.653894 0.651281,-0.369154 c 0.115278,0.103812 0.244224,0.191954 0.384992,0.262158 l -0.0673,0.767227 0.747377,0.145537 0.21263,-0.738848 c 0.156251,-0.0123 0.307747,-0.04538 0.452342,-0.0986 l 0.473028,0.588207 0.631201,-0.448117 -0.350431,-0.675274 c 0.100535,-0.120838 0.186424,-0.256085 0.254833,-0.403273 l 0.736039,0.06439 0.144262,-0.778916 -0.707103,-0.216593 C 29.584161,28.961 29.552994,28.80266 29.502844,28.652339 l 0.567499,-0.495429 -0.42552,-0.654839 -0.650334,0.369231 c -0.115456,-0.103908 -0.245005,-0.191911 -0.385977,-0.262181 l 0.06762,-0.766245 z m -0.02752,1.835379 c 0.0237,0.0021 0.04774,0.0052 0.0716,0.0099 0.381789,0.07442 0.630505,0.457483 0.556431,0.855667 -0.07407,0.398186 -0.443012,0.660914 -0.824799,0.586493 -0.38179,-0.07442 -0.631452,-0.457562 -0.557379,-0.855747 0.06944,-0.373299 0.39869,-0.627252 0.75414,-0.59622 z"
     style="fill:#ffffff;fill-opacity:1;stroke:none">
    <!--<animateTransform
       attributeName="transform"
       attributeType="XML"
       type="rotate"
       from="360 28.401 28.42"
       to="0 28.401 28.42"
       dur="1.5s"
       repeatDur="indefinite"
       id="animateTransform3001" />-->
  </path>
</svg>
