<?xml version="1.0" encoding="UTF-8" standalone="no"?>
<svg width="40px" height="31px" viewBox="0 0 40 31" version="1.1" xmlns="http://www.w3.org/2000/svg" xmlns:xlink="http://www.w3.org/1999/xlink">
    <defs></defs>
    <g stroke="none" stroke-width="1" fill="none" fill-rule="evenodd">
        <g transform="translate(-28.0, -253.0)">
            <g transform="translate(28.0, 249.0)">
                <polygon points="0 0 40 0 40 40 0 40"></polygon>
                <path d="M36.6666667,4.55555556 L11.6666667,4.55555556 C10.5166667,4.55555556 9.61666667,5.13888889 9.01666667,6.02222222 L0,19.5555556 L9.01666667,33.0722222 C9.61666667,33.9555556 10.5166667,34.5555556 11.6666667,34.5555556 L36.6666667,34.5555556 C38.5,34.5555556 40,33.0555556 40,31.2222222 L40,7.88888889 C40,6.05555556 38.5,4.55555556 36.6666667,4.55555556 L36.6666667,4.55555556 Z M31.6666667,25.5388889 L29.3166667,27.8888889 L23.3333333,21.9055556 L17.35,27.8888889 L15,25.5388889 L20.9833333,19.5555556 L15,13.5722222 L17.35,11.2222222 L23.3333333,17.2055556 L29.3166667,11.2222222 L31.6666667,13.5722222 L25.6833333,19.5555556 L31.6666667,25.5388889 L31.6666667,25.5388889 Z" fill-opacity="0.8" fill="#FFFFFF"></path>
            </g>
        </g>
    </g>
</svg>
