<svg width="27" height="27" viewBox="0 0 27 27" xmlns="http://www.w3.org/2000/svg"><title>fingerprint_grey_1x</title><g fill="none" fill-rule="evenodd" opacity=".34"><path d="M20.036 5.03c-.09 0-.174-.024-.26-.063-2.153-1.114-4.026-1.592-6.265-1.592-2.232 0-4.336.534-6.265 1.586-.276.147-.613.052-.765-.224-.146-.275-.05-.613.225-.765 2.098-1.14 4.387-1.72 6.806-1.72 2.398 0 4.49.53 6.785 1.716.276.14.382.483.242.76-.1.19-.298.303-.5.303zM3.937 10.934c-.112 0-.224-.034-.326-.1-.252-.18-.314-.53-.134-.783C4.59 8.477 6.013 7.24 7.7 6.368c3.54-1.83 8.06-1.834 11.605-.012 1.682.867 3.1 2.093 4.22 3.656.18.254.123.602-.13.782-.254.18-.608.124-.788-.13-1.013-1.416-2.295-2.53-3.814-3.306-3.23-1.66-7.352-1.654-10.575.01-1.524.788-2.812 1.908-3.82 3.336-.112.152-.286.23-.46.23zm7.037 13.573c-.146 0-.287-.056-.4-.17-.972-.983-1.5-1.607-2.26-2.963-.777-1.384-1.187-3.077-1.187-4.888 0-3.34 2.857-6.064 6.373-6.064s6.373 2.717 6.373 6.064c0 .31-.253.562-.562.562-.31 0-.562-.254-.562-.563 0-2.723-2.35-4.94-5.248-4.94-2.89 0-5.248 2.217-5.248 4.94 0 1.62.36 3.116 1.04 4.337.726 1.293 1.21 1.85 2.076 2.722.22.22.22.58-.005.793-.102.117-.248.168-.39.168zm8.06-2.08c-1.338 0-2.513-.34-3.486-.997-1.67-1.135-2.672-2.98-2.672-4.938 0-.31.253-.562.562-.562.31 0 .563.253.563.563 0 1.58.816 3.076 2.183 4.005.793.54 1.727.804 2.852.804.27 0 .726-.028 1.176-.107.304-.056.597.152.653.456.056.304-.152.597-.456.653-.658.118-1.215.124-1.372.124zM16.77 24.75c-.05 0-.1-.006-.146-.023-1.794-.49-2.964-1.153-4.18-2.362-1.57-1.564-2.435-3.65-2.435-5.872 0-1.83 1.552-3.314 3.465-3.314 1.912 0 3.465 1.484 3.465 3.313 0 1.203 1.052 2.188 2.34 2.188 1.288 0 2.34-.978 2.34-2.188 0-4.24-3.656-7.69-8.15-7.69-3.2 0-6.12 1.78-7.437 4.535-.44.91-.658 1.974-.658 3.155 0 .878.08 2.262.748 4.056.107.293-.04.613-.332.726-.292.107-.613-.04-.726-.332-.55-1.48-.82-2.93-.82-4.45 0-1.35.258-2.576.77-3.64 1.502-3.138 4.82-5.168 8.45-5.168 5.112 0 9.274 3.954 9.274 8.814 0 1.828-1.558 3.313-3.465 3.313-1.906 0-3.464-1.484-3.464-3.312 0-1.204-1.052-2.188-2.34-2.188-1.288 0-2.34.98-2.34 2.188 0 1.918.748 3.724 2.104 5.074 1.063 1.057 2.098 1.642 3.684 2.076.298.084.478.393.394.69-.067.25-.292.412-.54.412z" fill="#000"/><path d="M0 0h27v27H0"/></g></svg>