<?xml version="1.0" encoding="UTF-8" standalone="no"?>
<svg width="48px" height="48px" viewBox="0 0 48 48" version="1.1" xmlns="http://www.w3.org/2000/svg" xmlns:xlink="http://www.w3.org/1999/xlink" fill="#5a5a5a">
  <path transform="translate(4, 4)" d="M16,18.4995514 C16,16.015153 18.0152854,14 20.5004467,14 C22.9847146,14 25,16.015153 25,18.4995514 C25,20.984847 22.9847146,23 20.5004467,23 C18.0152854,23 16,20.984847 16,18.4995514 Z M28.9064634,18.0081071 L40.6146948,18.0091024 C40.6184143,14.4739639 39.7796545,10.8910532 38.0017069,7.61069942 C36.2237593,4.3293504 33.7307271,1.76458351 30.8564404,0 L25,10.8094424 C27.3330913,12.2485782 28.9064634,14.9297897 28.9064634,18.0081071 Z M16,10.8108355 L10.1409973,0 C3.88581449,3.84843053 0.3908729,10.8297443 0.385292898,18.0091024 L12.0930682,18.0091024 C12.0930682,14.9309551 13.6666289,12.2498918 16,10.8108355 Z M20.4796643,26.4538761 C18.9865079,26.4538761 17.5909435,26.0396667 16.3856833,25.3283072 L10.2393442,36.1958 C16.3671408,39.7996215 24.1559519,40.0667565 30.7209603,36.197801 L24.5726694,25.3283072 C23.3674092,26.0396667 21.9718447,26.4538761 20.4796643,26.4538761 Z"></path>
</svg>
