<svg xmlns="http://www.w3.org/2000/svg" width="32" height="30" viewBox="0 0 32 30">
  <path d="M20.04 16.74L12.776 24l-2.42-2.42c-.668-.668 0-2.42 0-2.42l1.21-3.632c.302-.91.364-2.057 0-2.422-3.63-3.63-8.472-6.05-9.684-7.26-1.337-1.338-1.337-3.507 0-4.842 1.34-1.34 3.506-1.34 4.842 0 1.21 1.21 3.63 6.05 7.263 9.682.363.363 1.512.303 2.42 0l3.63-1.21s1.754-.668 2.422 0l2.42 2.42-4.84 4.843zM3.657 2.44c-.586.585-.586 1.535 0 2.12.585.586 1.535.586 2.122 0 .582-.585.582-1.535 0-2.12-.59-.587-1.54-.587-2.125 0zM24.32 24.9h-3.4v3.4l-1.7 1.7-5.1-5.1L26.02 13l5.1 5.1-6.8 6.8z" fill-rule="evenodd"/>
</svg>
