<svg id="Layer_1" xmlns="http://www.w3.org/2000/svg" viewBox="0 0 680 120">
  <style>
    .st0{fill:#bdc0c5}.st1{fill:#e8e9eb}.st7{fill:#fff}
  </style>
  <path class="st0" d="M229.3 61.3h-.7V26.1c0-4.4 3.6-8 8-8H260v.7h-23.4c-4.1 0-7.4 3.3-7.4 7.4v35.1z"/>
  <path class="st1" d="M188.5 79.2c8.1 0 14.7 6.4 15.1 14.4H163c.3-5.1 4.6-9.2 9.8-9.2 1.1 0 2.2.2 3.3.6l.4.2.3-.4c2.9-3.6 7.2-5.6 11.7-5.6m0-.7c-4.9 0-9.3 2.3-12.2 5.8a10.5 10.5 0 0 0-14 9.9h42c0-8.7-7.1-15.7-15.8-15.7z"/>
  <path class="st0" d="M248.2 103.8h-11.6c-4.1 0-7.4-3.3-7.4-7.4V61.3h-.7v35.2c0 4.4 3.6 8 8 8h11.6v-.7zm21.7-85.3v.7c2.9 1 4.9 3.7 4.9 6.9v35.7h.7V26.1c-.1-3.5-2.4-6.6-5.6-7.6z"/>
  <path class="st1" d="M265.9 100.1h-28.2c-2.9 0-5.2-2.3-5.2-5.2V27.4c0-2.9 2.3-5.2 5.2-5.2h28.2c2.9 0 5.2 2.3 5.2 5.2v67.5a5.1 5.1 0 0 1-5.2 5.2zm-28.2-77.3c-2.5 0-4.6 2-4.6 4.6v67.5c0 2.5 2 4.6 4.6 4.6h28.2c2.5 0 4.6-2 4.6-4.6V27.4c0-2.5-2-4.6-4.6-4.6h-28.2z"/>
  <path d="M274.8 89.6v6.8c0 4.1-3.3 7.4-7.4 7.4h-11.6v.7h11.6c4.4 0 8-3.6 8-8v-6.8c0-.1-.6-.1-.6-.1z" fill="#e54440"/>
  <path class="st1" d="M314.5 45.6c10.8 0 19.7 8.8 19.7 19.7S325.4 85 314.5 85s-19.7-8.8-19.7-19.7 8.9-19.7 19.7-19.7m0-1.3a21 21 0 1 0 0 42 21 21 0 0 0 0-42z"/>
  <circle cx="325.2" cy="73.2" r="2.6" fill="#4b87f1"/>
  <circle cx="281.6" cy="65.3" r="21" fill="#34a751"/>
  <path d="M293.6 65.3c0 4.9 1.7 9.4 4.5 13 2.8-3.6 4.5-8.1 4.5-13s-1.7-9.4-4.5-13c-2.9 3.6-4.5 8.1-4.5 13z" opacity=".12"/>
  <path d="M228.6 37.9v-5.2c10.7 0 19.2-3 25.1-9C263 14.4 263 .7 263 .6h5.2c0 .6 0 15.9-10.8 26.8-6.9 6.9-16.6 10.5-28.8 10.5z" fill="#f7bb2a"/>
  <path class="st1" d="M193.9 68.7h-5.2c0-.4.1-9.1 5-18 4.6-8.2 14.4-18 35-18v5.2c-14.5 0-24.7 5.2-30.4 15.4-4.4 7.6-4.4 15.3-4.4 15.4z"/>
  <path class="st7" d="M281.4 73.5V71h.3v1.7l2.5-2.5-2.5-2.5v1.7h-.3V67l3.3 3.3-3.3 3.2zm.3-10l-3.3-3.3 3.3-3.3v2.5h-.3v-1.7l-2.5 2.5 2.5 2.5V61h.3v2.5z"/>
  <path class="st7" d="M286.1 67.9l-.3-.2a4.9 4.9 0 0 0-4.2-7.4V60c2.9 0 5.2 2.3 5.2 5.2a6 6 0 0 1-.7 2.7zm-4.5 2.6c-2.9 0-5.2-2.3-5.2-5.2 0-.9.2-1.8.7-2.6l.3.2a4.9 4.9 0 0 0 4.2 7.4v.2z"/>
  <path class="st0" d="M56 57.6H38.2v-.3c0-4.9 4-8.9 8.9-8.9s8.9 4 8.9 8.9v.3zm-17.3-.5h16.7c-.1-4.5-3.8-8.1-8.4-8.1s-8.1 3.6-8.3 8.1z"/>
  <path class="st1" d="M216.8 68.6h-17.3c0-4.8 3.9-8.6 8.6-8.6a8.5 8.5 0 0 1 8.7 8.6z"/>
  <path d="M169.6 100.2H78.9V40.6c0-2.9 2.4-5.3 5.3-5.3h80.2c2.9 0 5.3 2.4 5.3 5.3v59.6z" fill="#f4f4f4"/>
  <path class="st0" d="M165.3 35.9c2.1 0 3.8 1.7 3.8 3.8v59.9H79.4V39.7c0-2.1 1.7-3.8 3.8-3.8h82.1m0-.5H83.2c-2.4 0-4.3 1.9-4.3 4.3v60.5h90.7V39.7c0-2.4-1.9-4.3-4.3-4.3zm-99.4 68.5h116.6v.5H65.9z"/>
  <path class="st7" d="M84.6 58.1c-4.1 0-7.7 1.9-10.1 4.8A8.6 8.6 0 0 0 63 71h34.5c.1-7.1-5.7-12.9-12.9-12.9z"/>
  <path class="st0" d="M97.8 71.3H62.7V71c0-4.9 4-8.9 8.9-8.9.9 0 1.9.2 2.8.5 2.5-3 6.2-4.8 10.2-4.8 7.3 0 13.2 5.9 13.2 13.2v.3zm-34.5-.5h34c-.1-6.9-5.8-12.4-12.7-12.4-3.8 0-7.4 1.7-9.9 4.7l-.1.1-.2-.1c-.9-.3-1.8-.5-2.8-.5-4.5.1-8.2 3.7-8.3 8.2z"/>
  <path d="M38.1 82l3.7-3.7c7.6 7.6 15.7 11.4 24.1 11.4 13.2 0 22.9-9.7 23-9.8l3.7 3.7c-.5.5-11.3 11.3-26.6 11.4-9.9 0-19.3-4.3-27.9-13z" fill="#4285f4"/>
  <path class="st1" d="M4.3 66.4c-1.5.4-3 1-4.3 1.5v5.8c1.7-.8 3.6-1.6 5.8-2.2 11.2-3.3 22.1.3 32.3 10.5l3.7-3.7C27.3 63.8 13.4 63.8 4.3 66.4z"/>
  <path class="st0" d="M636.6 39.4c-1.5 0-3-.3-4.4-.9-2.7-1.2-4.9-3.4-6-6.1s-1.1-5.8.1-8.6c1.2-2.7 3.4-4.9 6.1-6 2.8-1.1 5.8-1.1 8.6.1 2.7 1.2 4.9 3.4 6 6.1s1.1 5.8-.1 8.6c-1.2 2.7-3.4 4.9-6.1 6-1.4.5-2.8.8-4.2.8zm0-21.7c-1.3 0-2.7.3-3.9.8-2.6 1-4.7 3.1-5.8 5.7-1.1 2.6-1.1 5.5-.1 8.1 1 2.6 3.1 4.7 5.7 5.8s5.5 1.1 8.1.1 4.7-3.1 5.8-5.7c1.1-2.6 1.1-5.5.1-8.1s-3.1-4.7-5.7-5.8c-1.3-.7-2.8-.9-4.2-.9zm-104.4 95.2h.6v7.1h-.6zm93.6-33.6c0-3.7-3-6.8-6.8-6.8h-12v.6h12c3.4 0 6.2 2.8 6.2 6.2V120h.6V79.3zM607 73.2h-46l3-.6h43z"/>
  <path class="st0" d="M532.8 99.9h-.6V79.3c0-3.7 3-6.8 6.8-6.8h29.5v.6H539c-3.4 0-6.2 2.8-6.2 6.2v20.6z"/>
  <path class="st7" d="M540 93c-4.5 0-8.6 2.1-11.2 5.4-1-.4-2.1-.6-3.2-.6a9.6 9.6 0 0 0-9.6 9.6h38.4c0-8-6.4-14.4-14.4-14.4z"/>
  <path class="st0" d="M554.7 107.7h-39v-.3a9.86 9.86 0 0 1 13-9.4c2.8-3.4 6.9-5.3 11.3-5.3 8.1 0 14.7 6.6 14.7 14.7v.3zm-38.4-.6h37.8a14.15 14.15 0 0 0-25.1-8.6l-.1.2-.2-.1c-1-.4-2.1-.5-3.1-.5-5 0-9.1 4-9.3 9z"/>
  <path fill="none" d="M498.7 29.6L534.3-.8"/>
  <path class="st1" d="M498.4 29.2l.6.7L534.2 0h-1.6zm143 26.6h-5.8c0 .4.1 10.2 5.6 20 5.1 9.1 16 20.1 38.8 20.1V90c-16.1 0-27.4-5.7-33.8-17.1-4.7-8.5-4.8-17.1-4.8-17.1z"/>
</svg>
