{
    "accessors" : [
        {
            "bufferView" : 0, 
            "componentType" : 5121, 
            "count" : 384, 
            "max" : [
                255
            ], 
            "min" : [
                0
            ], 
            "type" : "SCALAR"
        }, 
        {
            "bufferView" : 1, 
            "componentType" : 5126, 
            "count" : 256, 
            "max" : [
                1.7801129817962646, 
                2.6705639362335205, 
                -0.9752050042152405
            ], 
            "min" : [
                -1.7801120281219482, 
                2.5540130138397217, 
                -7.239640235900879
            ], 
            "type" : "VEC3"
        }, 
        {
            "bufferView" : 2, 
            "componentType" : 5126, 
            "count" : 256, 
            "max" : [
                0.9238796234130859, 
                1.0, 
                0.9238795638084412
            ], 
            "min" : [
                -0.9238797426223755, 
                -1.0, 
                -0.9238796830177307
            ], 
            "type" : "VEC3"
        }, 
        {
            "bufferView" : 3, 
            "componentType" : 5126, 
            "count" : 256, 
            "max" : [
                1.0, 
                1.0
            ], 
            "min" : [
                0.0, 
                0.0
            ], 
            "type" : "VEC2"
        }, 
        {
            "bufferView" : 4, 
            "componentType" : 5123, 
            "count" : 816, 
            "max" : [
                559
            ], 
            "min" : [
                0
            ], 
            "type" : "SCALAR"
        }, 
        {
            "bufferView" : 5, 
            "componentType" : 5126, 
            "count" : 560, 
            "max" : [
                1.6318670511245728, 
                2.6268439292907715, 
                -1.0601940155029297
            ], 
            "min" : [
                -1.6318670511245728, 
                2.0722360610961914, 
                -7.091393947601318
            ], 
            "type" : "VEC3"
        }, 
        {
            "bufferView" : 6, 
            "componentType" : 5126, 
            "count" : 560, 
            "max" : [
                0.9144778847694397, 
                1.0, 
                0.9144778251647949
            ], 
            "min" : [
                -0.9144775867462158, 
                0.1422823816537857, 
                -0.9144797325134277
            ], 
            "type" : "VEC3"
        }, 
        {
            "bufferView" : 7, 
            "componentType" : 5126, 
            "count" : 560, 
            "max" : [
                1.0, 
                1.0
            ], 
            "min" : [
                0.0, 
                0.0
            ], 
            "type" : "VEC2"
        }, 
        {
            "bufferView" : 8, 
            "componentType" : 5121, 
            "count" : 468, 
            "max" : [
                241
            ], 
            "min" : [
                0
            ], 
            "type" : "SCALAR"
        }, 
        {
            "bufferView" : 9, 
            "componentType" : 5126, 
            "count" : 242, 
            "max" : [
                2.711970090866089, 
                2.711970090866089, 
                -0.0
            ], 
            "min" : [
                -2.711970090866089, 
                -2.711970090866089, 
                -7.847681999206543
            ], 
            "type" : "VEC3"
        }, 
        {
            "bufferView" : 10, 
            "componentType" : 5126, 
            "count" : 242, 
            "max" : [
                1.0, 
                1.0, 
                1.0
            ], 
            "min" : [
                -1.0, 
                -1.0, 
                -1.0
            ], 
            "type" : "VEC3"
        }, 
        {
            "bufferView" : 11, 
            "componentType" : 5126, 
            "count" : 242, 
            "max" : [
                0.875, 
                1.0
            ], 
            "min" : [
                0.125, 
                0.0
            ], 
            "type" : "VEC2"
        }
    ], 
    "asset" : {
        "generator" : "Khronos Blender glTF 2.0 exporter", 
        "version" : "2.0"
    }, 
    "bufferViews" : [
        {
            "buffer" : 0, 
            "byteLength" : 384, 
            "byteOffset" : 0, 
            "target" : 34963
        }, 
        {
            "buffer" : 0, 
            "byteLength" : 3072, 
            "byteOffset" : 384, 
            "target" : 34962
        }, 
        {
            "buffer" : 0, 
            "byteLength" : 3072, 
            "byteOffset" : 3456, 
            "target" : 34962
        }, 
        {
            "buffer" : 0, 
            "byteLength" : 2048, 
            "byteOffset" : 6528, 
            "target" : 34962
        }, 
        {
            "buffer" : 0, 
            "byteLength" : 1632, 
            "byteOffset" : 8576, 
            "target" : 34963
        }, 
        {
            "buffer" : 0, 
            "byteLength" : 6720, 
            "byteOffset" : 10208, 
            "target" : 34962
        }, 
        {
            "buffer" : 0, 
            "byteLength" : 6720, 
            "byteOffset" : 16928, 
            "target" : 34962
        }, 
        {
            "buffer" : 0, 
            "byteLength" : 4480, 
            "byteOffset" : 23648, 
            "target" : 34962
        }, 
        {
            "buffer" : 0, 
            "byteLength" : 468, 
            "byteOffset" : 28128, 
            "target" : 34963
        }, 
        {
            "buffer" : 0, 
            "byteLength" : 2904, 
            "byteOffset" : 28596, 
            "target" : 34962
        }, 
        {
            "buffer" : 0, 
            "byteLength" : 2904, 
            "byteOffset" : 31500, 
            "target" : 34962
        }, 
        {
            "buffer" : 0, 
            "byteLength" : 1936, 
            "byteOffset" : 34404, 
            "target" : 34962
        }
    ], 
    "buffers" : [
        {
            "byteLength" : 36340, 
            "uri" : "stereo.bin"
        }
    ], 
    "cameras" : [
        {
            "name" : "Camera", 
            "perspective" : {
                "aspectRatio" : 1.7777777777777777, 
                "yfov" : 0.5033799372418416, 
                "zfar" : 100.0, 
                "znear" : 0.10000000149011612
            }, 
            "type" : "perspective"
        }
    ], 
    "materials" : [
        {
            "name" : "lambert2SG", 
            "pbrMetallicRoughness" : {
                "baseColorFactor" : [
                    0.07000000029802322, 
                    0.07999999821186066, 
                    0.09000000357627869, 
                    1.0
                ]
            }
        }, 
        {
            "name" : "lambert3SG", 
            "pbrMetallicRoughness" : {
                "baseColorFactor" : [
                    0.8399999737739563, 
                    0.8100000023841858, 
                    0.75, 
                    1.0
                ]
            }
        }, 
        {
            "name" : "lambert4SG", 
            "pbrMetallicRoughness" : {
                "baseColorFactor" : [
                    0.009999999776482582, 
                    0.009999999776482582, 
                    0.009999999776482582, 
                    1.0
                ]
            }
        }
    ], 
    "meshes" : [
        {
            "name" : "hifiStereo", 
            "primitives" : [
                {
                    "attributes" : {
                        "NORMAL" : 2, 
                        "POSITION" : 1, 
                        "TEXCOORD_0" : 3
                    }, 
                    "indices" : 0, 
                    "material" : 1
                }, 
                {
                    "attributes" : {
                        "NORMAL" : 6, 
                        "POSITION" : 5, 
                        "TEXCOORD_0" : 7
                    }, 
                    "indices" : 4, 
                    "material" : 2
                }, 
                {
                    "attributes" : {
                        "NORMAL" : 10, 
                        "POSITION" : 9, 
                        "TEXCOORD_0" : 11
                    }, 
                    "indices" : 8, 
                    "material" : 0
                }
            ]
        }
    ], 
    "nodes" : [
        {
            "camera" : 0, 
            "name" : "Correction_Camera", 
            "rotation" : [
                -0.7071067690849304, 
                -0.0, 
                0.0, 
                0.7071067690849304
            ]
        }, 
        {
            "children" : [
                0
            ], 
            "name" : "Camera", 
            "rotation" : [
                0.483536034822464, 
                0.33687159419059753, 
                -0.20870360732078552, 
                0.7804827094078064
            ], 
            "translation" : [
                7.481131553649902, 
                5.34366512298584, 
                6.5076398849487305
            ]
        }, 
        {
            "mesh" : 0, 
            "name" : "hifiStereo", 
            "rotation" : [
                0.7071068286895752, 
                0.0, 
                -0.0, 
                0.7071067094802856
            ], 
            "scale" : [
                0.05000000074505806, 
                0.05000000074505806, 
                0.05000000074505806
            ]
        }, 
        {
            "name" : "Lamp", 
            "rotation" : [
                0.16907575726509094, 
                0.7558802962303162, 
                -0.27217137813568115, 
                0.570947527885437
            ], 
            "scale" : [
                1.0, 
                1.0, 
                0.9999999403953552
            ], 
            "translation" : [
                4.076245307922363, 
                5.903861999511719, 
                -1.0054539442062378
            ]
        }
    ], 
    "scene" : 0, 
    "scenes" : [
        {
            "name" : "Scene", 
            "nodes" : [
                2, 
                3, 
                1
            ]
        }
    ]
}
