<svg xmlns="http://www.w3.org/2000/svg" width="16" height="16" viewBox="0 0 16 16">
  <g fill="none" fill-rule="evenodd">
    <path fill="#1A73E8" d="M8,7.285 C7.6035,7.285 7.285,7.6035 7.285,8 C7.285,8.3965 7.6035,8.715 8,8.715 C8.3965,8.715 8.715,8.3965 8.715,8 C8.715,7.6035 8.3965,7.285 8,7.285 L8,7.285 Z M8,1.5 C4.412,1.5 1.5,4.412 1.5,8 C1.5,11.588 4.412,14.5 8,14.5 C11.588,14.5 14.5,11.588 14.5,8 C14.5,4.412 11.588,1.5 8,1.5 L8,1.5 Z M9.4235,9.4235 L4.1,11.9 L6.5765,6.5765 L11.9,4.1 L9.4235,9.4235 L9.4235,9.4235 Z"/>
    <polygon points="0 0 16 0 16 16 0 16"/>
  </g>
</svg>
