<?xml version="1.0" encoding="utf-8"?>
<!-- Generator: Adobe Illustrator 16.0.0, SVG Export Plug-In . SVG Version: 6.00 Build 0)  -->
<!DOCTYPE svg [
	<!ENTITY ns_flows "http://ns.adobe.com/Flows/1.0/">
	<!ENTITY ns_extend "http://ns.adobe.com/Extensibility/1.0/">
	<!ENTITY ns_ai "http://ns.adobe.com/AdobeIllustrator/10.0/">
	<!ENTITY ns_graphs "http://ns.adobe.com/Graphs/1.0/">
]>
<svg version="1.2" baseProfile="tiny" id="Layer_1" xmlns:x="&ns_extend;" xmlns:i="&ns_ai;" xmlns:graph="&ns_graphs;"
	 xmlns="http://www.w3.org/2000/svg" xmlns:xlink="http://www.w3.org/1999/xlink" xmlns:a="http://ns.adobe.com/AdobeSVGViewerExtensions/3.0/"
	 x="0px" y="0px" width="1000px" height="1000px" viewBox="0 0 1000 1000" xml:space="preserve">
<g>
	<path fill="#FF7F00" d="M499.5,24.864c-258.193,0-467.5,209.307-467.5,467.5c0,258.193,209.307,467.5,467.5,467.5
		c258.193,0,467.5-209.307,467.5-467.5C967,234.171,757.693,24.864,499.5,24.864z M946.5,492.498
		c0,60.34-11.82,118.88-35.133,173.996c-22.514,53.23-54.742,101.033-95.79,142.081s-88.851,73.276-142.081,95.79
		C618.38,927.678,559.84,939.498,499.5,939.498c-60.339,0-118.88-11.82-173.997-35.133c-53.229-22.514-101.033-54.742-142.08-95.79
		c-41.048-41.048-73.277-88.851-95.791-142.081C64.32,611.378,52.5,552.838,52.5,492.498c0-60.339,11.82-118.88,35.132-173.997
		c22.514-53.229,54.743-101.033,95.791-142.08c41.047-41.048,88.851-73.277,142.08-95.791
		C380.62,57.318,439.161,45.498,499.5,45.498c60.34,0,118.88,11.82,173.996,35.132c53.23,22.514,101.033,54.743,142.081,95.791
		c41.048,41.047,73.276,88.851,95.79,142.08C934.68,373.618,946.5,432.159,946.5,492.498z"/>
	<path fill="#FF7F00" d="M499.5,69.498c-233.243,0-423,189.757-423,423s189.757,423,423,423s423-189.757,423-423
		S732.743,69.498,499.5,69.498z M697.756,557.537c-8.672,31.711-262.492,262.077-281.708,255.677
		c-19.216-6.401-115.186-353.279-106.514-384.991c8.671-31.711,262.492-262.077,281.708-255.676
		C610.458,178.947,706.428,525.825,697.756,557.537z"/>
	<path fill="#FFFFFF" d="M591.241,172.547c-19.216-6.401-273.036,223.965-281.708,255.676
		c-8.672,31.712,87.298,378.59,106.514,384.991c19.216,6.4,273.036-223.966,281.708-255.677
		C706.428,525.825,610.458,178.947,591.241,172.547z"/>
	<path fill="#FFFFFF" d="M673.496,80.63C618.38,57.318,559.84,45.498,499.5,45.498c-60.339,0-118.88,11.82-173.997,35.132
		c-53.229,22.514-101.033,54.743-142.08,95.791c-41.048,41.047-73.277,88.851-95.791,142.08
		C64.32,373.618,52.5,432.159,52.5,492.498c0,60.34,11.82,118.88,35.132,173.996c22.514,53.23,54.743,101.033,95.791,142.081
		c41.047,41.048,88.851,73.276,142.08,95.79c55.116,23.313,113.657,35.133,173.997,35.133c60.34,0,118.88-11.82,173.996-35.133
		c53.23-22.514,101.033-54.742,142.081-95.79s73.276-88.851,95.79-142.081C934.68,611.378,946.5,552.838,946.5,492.498
		c0-60.339-11.82-118.88-35.133-173.997c-22.514-53.229-54.742-101.033-95.79-142.08C774.529,135.374,726.727,103.145,673.496,80.63
		z M922.5,492.498c0,233.243-189.757,423-423,423s-423-189.757-423-423s189.757-423,423-423S922.5,259.255,922.5,492.498z"/>
</g>
</svg>
