<svg width="72" height="75" viewBox="0 0 72 75" fill="none" xmlns="http://www.w3.org/2000/svg">
<path d="M36 74.5016C55.8823 74.5016 72 58.5171 72 38.7992C72 19.0812 55.8823 3.09668 36 3.09668C16.1178 3.09668 0 19.0812 0 38.7992C0 58.5171 16.1178 74.5016 36 74.5016Z" fill="#ECF3FF"/>
<path d="M26.2824 17.0222L13.6824 12.0239V13.809L24.4824 23.4487L23.7624 33.4454L20.5224 47.0123L16.2024 53.0817L17.2824 61.6503L22.6824 62.3644L27.0024 61.6503L31.3224 62.3644L38.8824 57.7231L40.3224 50.2255L49.3224 41.6569L53.2824 44.5131L57.2424 50.2255V61.6503L62.6424 60.2222L68.0424 48.4404L69.4824 33.4454L50.0424 5.24042L46.8024 4.52637L26.2824 17.0222Z" fill="white"/>
<path d="M7.19748 37.657C7.34148 36.4431 7.41348 35.2292 7.77348 34.0867C8.78148 29.374 10.7255 24.8755 13.6055 21.2338C14.1095 20.5912 14.5415 20.0199 15.1175 19.4487L11.8775 16.4497C11.3015 17.3066 10.7255 18.1634 10.2215 19.0203C7.55748 23.5902 6.11748 28.7314 5.75748 33.8011C5.61348 35.0864 5.68548 36.3717 5.68548 37.5856C5.68548 38.8709 5.82948 40.0847 6.04548 41.37C6.40548 43.8692 7.05348 46.297 7.91748 48.5819C7.34148 46.1542 7.05348 43.7264 6.98148 41.2272C6.98148 40.0847 6.98148 38.8709 7.19748 37.657Z" fill="#94A6C4"/>
<path d="M21.9575 14.5243C20.1575 13.6674 17.6375 12.5249 15.8375 11.6681C17.4935 10.0972 20.5175 8.45486 23.0375 7.38379C21.2375 8.81189 21.2375 11.8109 21.9575 14.5243Z" fill="#94A6C4"/>
<path d="M14.6855 26.6606C13.6775 29.1598 13.0295 31.8018 12.8135 34.3723C12.7415 35.015 12.6695 35.6576 12.7415 36.3003C12.7415 36.9429 12.7415 37.5856 12.8135 38.2282L12.8855 39.2279C12.8855 39.5135 12.9575 39.8705 13.0295 40.1561L13.3175 42.0841L13.3895 40.1561C13.3895 39.8705 13.3895 39.5135 13.4615 39.2279L13.6055 38.2996C13.6775 37.657 13.8215 37.0143 13.8935 36.4431C13.9655 35.8004 14.1815 35.2292 14.3255 34.658C14.9735 32.2302 16.0535 30.0166 17.3495 27.9459C18.2135 26.5892 19.2215 25.3753 20.3015 24.2328L17.4935 21.5909C16.2695 23.2332 15.4055 24.8755 14.6855 26.6606Z" fill="#94A6C4"/>
<path d="M56.377 14.449C52.561 13.0923 51.049 13.5207 51.049 13.5207C51.049 13.5207 48.673 19.8758 39.601 20.3042C39.673 20.3756 47.809 25.0883 56.377 14.449Z" fill="#94A6C4"/>
<path d="M58.969 27.0877C58.609 34.9422 52.489 37.8698 47.737 37.2986C45.145 36.9416 41.329 38.1555 41.329 38.1555L36.505 46.4384L34.921 47.0097L37.657 42.0113C37.657 42.0113 31.177 44.3677 30.673 44.5819C30.169 44.7961 28.153 47.7237 26.497 50.7941C26.137 48.652 24.769 47.1525 24.769 47.0811C24.769 47.4381 25.489 53.8645 24.697 55.6497C23.905 57.5062 20.377 58.7201 20.377 58.7201L25.561 60.648L25.921 60.7908L29.809 57.1492L31.249 51.7224L33.049 50.4371C33.049 50.4371 37.513 49.9373 36.865 53.936C36.577 55.8639 34.417 55.7211 31.969 57.2206C30.529 58.0774 28.657 59.4341 27.721 60.3624L30.313 62.2189C30.313 62.2189 33.409 61.7191 37.801 58.2917C42.265 54.7214 40.033 50.8655 40.033 50.8655L47.305 42.2255L52.057 42.5826C52.057 42.5826 60.265 44.6533 62.929 52.365C68.257 37.5842 59.689 27.8017 58.969 27.0877Z" fill="#94A6C4"/>
<path d="M67.32 20.9502C68.616 21.5215 69.624 22.3758 70.56 23.1613C64.08 0.882939 43.056 3.38211 42.624 3.52492C43.128 2.73947 45 1.52558 46.728 0.882938C46.728 0.882938 37.8 -2.25888 29.664 3.31071C29.808 2.02542 31.392 0.0974837 31.392 0.0974837C20.16 4.88412 19.44 10.5965 21.6 14.0215C19.8 13.1646 18 12.3791 16.2 11.5223C10.656 8.88029 5.904 6.66674 5.616 6.59533C5.112 6.45252 4.896 6.66674 4.896 6.66674C4.896 6.66674 4.68 6.88095 5.112 7.30938C11.664 13.8072 15.84 17.737 22.824 24.0896C21.672 26.6601 21.528 27.9454 22.104 29.3021C22.896 31.1586 22.824 32.0869 22.536 33.3008C22.176 34.5147 19.296 45.2968 18.792 46.5107C18.288 47.796 14.472 52.0803 14.4 53.5084C14.328 54.9365 15.48 61.2201 17.064 62.1484C18.288 62.791 21.24 64.1477 23.4 64.4333C24.12 64.5762 24.84 64.5048 25.2 64.2191C26.64 63.2909 27 63.1481 27.936 63.2195L28.152 63.2909C28.512 63.3623 28.944 63.5051 29.52 63.5765C30.744 63.7193 32.328 63.7193 33.624 62.8624C35.496 61.4343 38.664 59.6492 39.744 58.721C41.04 57.4357 41.904 55.6505 41.904 53.6512C41.904 51.8661 43.128 50.438 44.496 49.0099C45.792 47.7246 49.032 44.5828 50.328 43.2261C53.64 44.3686 54.864 49.0813 54.864 51.6519C54.864 58.7924 49.032 69.2175 35.64 70.0029C35.136 70.0029 34.632 70.0743 34.056 70.0743C16.632 70.0743 2.376 54.7937 2.376 36.871C2.376 22.7329 10.9417 13.159 11.0137 13.0876C4.10167 19.5854 0 28.6595 0 38.799C0 58.5067 16.128 74.504 36 74.504C55.872 74.504 72 58.5067 72 38.799C72 32.3725 70.344 26.1628 67.32 20.9502ZM18.144 16.3778C17.136 15.521 16.128 14.6641 15.12 13.8072C16.488 14.5213 17.856 15.2353 19.08 15.878C22.824 17.8059 25.92 19.5196 26.496 19.9481C26.496 19.9481 26.568 20.0195 26.64 20.0909C27 20.5193 27.36 21.2334 26.712 22.1616C26.352 22.6614 25.92 22.5186 25.272 22.0902C24.696 21.7332 21.6 19.3054 18.144 16.3778ZM39.096 53.5084C39.096 54.7223 38.52 55.7933 37.8 56.5788C37.44 56.9358 36 57.8641 34.992 58.5067C33.984 59.2208 32.904 59.8634 32.04 60.5061C31.68 60.7203 31.104 60.8631 30.168 60.7203L27.936 60.4347C29.304 59.078 33.048 56.1504 34.272 55.5791C35.712 54.8651 36.576 54.0796 35.928 52.4373C35.352 50.7236 33.12 50.795 33.12 50.795C33.12 50.795 34.488 50.438 35.568 50.5808C34.2 50.0096 32.328 50.1524 31.392 50.795C30.384 51.5091 30.096 54.4367 29.448 56.2218C28.8 58.0783 27.36 58.8638 25.2 60.3633C23.976 61.1487 23.184 61.3629 22.608 61.2915C21.384 60.9345 19.944 60.2919 18.936 59.792C18.36 58.721 17.64 55.3649 17.568 54.0082C17.856 53.2942 19.008 51.8661 19.584 51.0092C20.736 49.4383 21.384 48.51 21.672 47.6532C22.176 46.4393 24.264 38.799 25.056 35.5857C25.848 36.9424 26.928 39.2274 26.424 40.5127C29.016 37.7993 27.864 34.5861 27.288 33.3008C26.784 32.0155 26.208 29.5163 27.36 27.0886C28.44 24.6608 32.184 18.0915 32.184 18.0915C32.184 18.0915 32.832 19.8053 34.2 19.6624C35.496 19.5196 47.952 5.66707 47.952 5.66707C47.952 5.66707 49.896 12.0935 46.296 16.0208C42.696 19.9481 39.672 20.3765 39.672 20.3765C39.672 20.3765 43.704 21.6618 47.88 19.5196C48.96 23.3755 49.896 27.3742 49.896 27.874C49.608 28.3738 45.576 35.0859 45.216 35.5143C45.072 35.6572 43.92 35.8 43.2 35.8C41.904 36.0142 41.112 36.0856 40.752 36.2998C40.176 36.6568 36.864 42.8691 35.28 45.8681C33.84 46.0823 32.4 46.5821 31.248 47.9388C31.824 47.6532 33.48 47.6532 34.704 47.6532C35.784 47.7246 38.736 49.8667 39.096 53.2228C39.096 53.437 39.096 53.437 39.096 53.5084ZM30.672 56.5074C31.464 55.6505 31.608 54.0082 31.752 53.5084C31.896 53.0086 32.184 52.0803 32.832 52.0089C33.48 51.9375 34.848 52.3659 34.704 53.437C34.56 54.4367 33.48 54.5081 32.616 55.0079C32.04 55.3649 30.816 56.3646 30.672 56.5074ZM61.992 57.4357C61.128 48.2958 54.792 44.0115 51.984 42.5834C55.224 42.2264 63.576 39.7272 58.968 27.0886C59.112 27.6598 60.408 33.9434 56.736 37.2281C52.992 40.5841 47.52 39.156 46.872 39.156C46.296 39.0846 43.56 41.7266 39.816 46.7963C39.456 46.5821 37.944 46.0109 36.072 46.0823C37.944 42.5834 40.752 37.5851 41.184 37.1567C41.328 37.0138 42.552 36.871 43.272 36.7996C44.712 36.6568 45.432 36.514 45.72 36.2284C45.864 36.0142 46.872 34.4433 47.88 32.7295C48.528 32.801 50.256 32.9438 50.472 32.8724C50.616 32.7295 52.56 29.3021 52.632 28.8737C52.704 28.5881 51.336 23.2327 50.472 19.8053C68.256 28.1596 71.064 46.5821 61.992 57.4357Z" fill="#1C324F"/>
<path d="M44.856 14.9497C46.872 13.1646 46.584 10.0942 46.584 10.0942L40.536 16.7348C40.464 16.7348 42.336 17.0919 44.856 14.9497Z" fill="#1C324F"/>
<path d="M22.248 52.7229L23.256 49.8667C23.256 49.8667 20.16 53.794 19.872 54.3652C19.584 55.0079 19.728 56.2218 20.736 56.2932C21.744 56.3646 23.112 55.0793 23.256 54.0796C23.472 52.7229 22.248 52.7229 22.248 52.7229Z" fill="#1C324F"/>
<path d="M31.752 35.4429C33.912 35.2287 37.8 33.515 39.456 32.1583C41.112 30.7302 40.824 27.5884 38.232 26.6601C39.096 25.232 40.536 22.233 40.536 22.233C40.536 22.233 31.248 33.0152 30.528 33.158C29.808 33.3008 29.52 30.5874 29.52 30.5874C27.36 35.8 31.032 37.0853 31.752 35.4429Z" fill="#1C324F"/>
<path d="M32.543 34.0865L37.367 28.0171C37.367 28.0171 39.455 29.4452 38.087 31.0875C36.359 33.0154 32.543 34.0865 32.543 34.0865Z" fill="#FFD925"/>
<path d="M45.3641 7.02411L42.0522 10.5944C39.3882 11.3798 36.7962 12.8079 34.3482 15.1643C34.3482 13.8076 38.3081 7.88097 45.3641 7.02411Z" fill="#D82423"/>
<path d="M49.5402 10.0945C49.6122 9.16626 49.5401 8.09518 49.3961 7.09552C53.7161 7.66675 58.8282 10.1659 64.6602 15.8069C59.8362 13.1649 54.7242 10.7372 49.5402 10.0945Z" fill="#D82423"/>
<path d="M50.8361 14.7358C50.8361 14.7358 66.8922 21.7335 69.8442 41.3699C70.2761 15.8069 51.9881 14.5216 50.8361 14.7358Z" fill="#D82423"/>
<path d="M27.4361 3.45386C27.2201 4.0251 18.1482 13.6648 29.4522 17.4492C23.2602 11.9511 27.3641 3.52527 27.4361 3.45386Z" fill="#D82423"/>
<path d="M32.2601 15.9497C32.2601 15.9497 33.1962 5.02477 39.8202 2.09717C39.3162 2.23998 25.8521 6.31006 32.2601 15.9497Z" fill="#D82423"/>
</svg>
