<svg xmlns="http://www.w3.org/2000/svg" viewBox="0 0 2000 1676" width="2000" height="2000"><g transform="translate(0-150)"><path d="M1866.9,415.43H1751.07v862.46l-166.19,332.32H290.65V1826L0,1402.32V158.63L1800,150"/><path d="M52.52,1399.45V221.93h348.2l50.36,148.9H218.7V719.7H451.08v148.9H218.7v779.74m282-1426.4H617.26V868.59H500.72V221.93Z" fill="#fff"/><path d="m832.37 520.45l82.73-149.62h-82.73" fill="none" stroke="#ffff28" stroke-miterlimit="10" stroke-width="1.01"/><path d="M832.37,586.62l115.83,282h133.09L965.46,570.08l66.19-199.25V221.93H700V868.59H832.37V370.83m597.12,0H1214.39l182,282V868.59H1081.29l33.09-148.9h166.19L1081.29,437V221.93h298.56Zm133.09,0H1446V221.93h282l50.36,165.44h-100V868.59H1546V370.83" fill="#fff"/><path d="M533.81,1100.93l-33.09,82.72H268.34V934.77H533.81v166.16ZM566.9,934.77h99.28v248.88H566.9V934.77Zm348.2,248.88V1051.3h50.36v132.35h115.83V934.77H815.82v248.88h99.28Zm365.47-132.35h-66.19v132.35h-100V934.77h265.47v248.88h-99.28V1051.3Zm298.56,0h-66.19v132.35h-100V934.77h265.47v248.88h-99.28V1051.3ZM482,1218.18H270.5V1572.8H536V1395.13l-80.58-144.58M666.19,1446.2H754l31.65,126.6H566.9V1218.18h99.28v228Zm243.88,0v-228H815.82V1572.8h259V1218.18H975.54v228H910.07Zm302.16,0v-228h-95V1572.8H1377V1218.18H1277v228h-64.75Zm304.32-101.42,53.24-93.51v-33.09h108.63V1270L1516.54,1572.8h-103.6V1218.18h103.6v126.6Z" fill="#f8981d"/><g isolation="isolate"><path d="m1902.62 240.05h-28.53v104.67h-12.44v-104.67h-28.53v-11.44h69.51v11.45"/><path d="m1987.56 268.42l1.49-17.58h-.66l-5.31 16.42-23.39 50.43h-4.15l-24.54-50.44-5.14-16.42h-.66l2.32 17.58v76.3h-11.94v-116.1h10.42l28 57.06 4.15 13.6h.33l4-13.77 26.54-56.89h10.98v116.11h-12.44v-76.3"/></g><path d="m832.37 567.2v-190.62h60.43m-516.54 758.16v-108.62h60.43m-66.19 315.06v108.62h60.43"/></g></svg>