<svg xmlns="http://www.w3.org/2000/svg" xmlns:xlink="http://www.w3.org/1999/xlink" viewBox="0 0 591.52 591.52"><defs><style>.cls-1{isolation:isolate;}.cls-2{fill:url(#linear-gradient);}.cls-3{opacity:0.2;mix-blend-mode:multiply;}.cls-4{fill:#fff;}</style><linearGradient id="linear-gradient" x1="358.22" y1="1179.99" x2="230.53" y2="-627.71" gradientUnits="userSpaceOnUse"><stop offset="0.3" stop-color="#17936f"/><stop offset="0.41" stop-color="#14a073"/><stop offset="0.63" stop-color="#0bc27e"/><stop offset="0.79" stop-color="#04e087"/></linearGradient></defs><g class="cls-1"><g id="Layer_1" data-name="Layer 1"><circle class="cls-2" cx="295.76" cy="295.76" r="295.76"/><path class="cls-4" d="M501.67,291.93a6.18,6.18,0,0,0-6.18,6.17q0,6.88-.42,13c-.93,8.61-3.7,16.24-7.55,20.14a9.24,9.24,0,0,1-14-.37c-5.9-6.62-7.71-21.16-6.44-32.11a6.18,6.18,0,0,0-12.27-1.42,76.4,76.4,0,0,0,0,17.05c-.05.5-.11,1-.17,1.5-2.67,21.46-11.85,26-19.08,26a21.65,21.65,0,0,1-6.73-1.29l.36-.4c6.92-7.82,11.06-17.95,11.06-27.1,0-5.87-1.71-11-5-14.7-2.56-3-7.34-6.49-15.52-6.49a19.21,19.21,0,0,0-16.52,9.27c-5.52,8.57-6.05,21.3-1.32,31.69a31,31,0,0,0,4.92,7.54,25.08,25.08,0,0,1-8.1,1.48c-8.67,0-21.19-10.65-28.39-18.34A104.52,104.52,0,0,0,391,301.65a6.17,6.17,0,1,0-10.1-7.1,90.31,90.31,0,0,1-21.37,21.66l.05-18.09a6.18,6.18,0,0,0-12.35,0l-.1,36.18c-.11-.1.63,17.26,1.51,18.13l0,0,.06.05A6.17,6.17,0,0,0,352,354.1a6.47,6.47,0,0,0,1.34.15,6.17,6.17,0,0,0,6.18-6.16l0-18.21c6.78,7.63,23.46,24.37,39.24,24.37a39.44,39.44,0,0,0,19.24-5,38.06,38.06,0,0,0,17.57,5c11.8,0,20.9-6.46,26.35-18.21a29,29,0,0,0,2.39,3.1,21.56,21.56,0,0,0,16.44,7.52c1.15,0,3.83-.39,5-1.61-1,1-1.58,4.17-2.24,5.56-.91,1.9-1.75,3.83-2.71,5.71a112.2,112.2,0,0,1-6.35,10.93,102,102,0,0,1-16.59,19.43c-13.87,12.54-30.58,19.52-48.83,22.84a123,123,0,0,1-28.78,1.6,196.72,196.72,0,0,1-29.37-4.06c-19.6-4.14-39-10.71-58.2-18.21-11.12-4.32-22.19-9-33.3-13.77q8.76-8.1,16.94-16.83a302,302,0,0,0,21.7-26,239.91,239.91,0,0,0,18.56-29,188.27,188.27,0,0,0,14-32.52,138.33,138.33,0,0,0,6.58-36.43,114.4,114.4,0,0,0-.9-19.26,103.62,103.62,0,0,0-4.36-19,117.74,117.74,0,0,0-17.6-34,97.24,97.24,0,0,0-29.89-26.45,95.29,95.29,0,0,0-38.29-11.7q-4.89-.47-9.71-.47c-1.61,0-3.2,0-4.79.06l-2.37.11c-.8,0-1.65.11-2.47.17a98.81,98.81,0,0,0-19.64,3.51,105.82,105.82,0,0,0-34.86,17.61,137.16,137.16,0,0,0-26.17,26.36,164.36,164.36,0,0,0-10.14,15c-1.55,2.59-3,5.22-4.44,7.92q-1.06,2-2.08,4.14l-1,2.17-.52,1.15-.62,1.44a20.49,20.49,0,0,0,37.4,16.72l.48-1,.48-1,.68-1.4c.47-1,1-1.94,1.51-2.92,1-2,2.18-3.91,3.36-5.83a122.08,122.08,0,0,1,7.71-11.12,97.14,97.14,0,0,1,18.34-18.35,66.07,66.07,0,0,1,21.3-10.79,57.5,57.5,0,0,1,11.45-2c.5,0,1-.09,1.48-.11l1.58-.07c1,0,2.09-.06,3.12,0q3.1,0,6.09.29a55,55,0,0,1,21.83,6.52A55.67,55.67,0,0,1,281.32,187,76.65,76.65,0,0,1,292.76,209a65.86,65.86,0,0,1,2.8,11.76,72.48,72.48,0,0,1,.72,12.3,97.74,97.74,0,0,1-4.4,25.71,148.32,148.32,0,0,1-10.71,25.64,236.34,236.34,0,0,1-33.65,47.4,289,289,0,0,1-27.08,26.33c-4.95-2.1-9.94-4.19-15-6.22A286.85,286.85,0,0,0,173.65,341a116.68,116.68,0,0,0-18.16-3.4,71,71,0,0,0-10.41-.25,49.58,49.58,0,0,0-11.75,2A39.54,39.54,0,0,0,121,345.56a38.75,38.75,0,0,0-9.54,10.4,47,47,0,0,0-5.14,11.38A64.26,64.26,0,0,0,104.09,378a91.63,91.63,0,0,0-.7,9.82,65.41,65.41,0,0,0,.68,10.82,46.65,46.65,0,0,0,3.46,12.08,38.37,38.37,0,0,0,8.22,12,38.13,38.13,0,0,0,12.37,8.08,45.74,45.74,0,0,0,12.6,3.11,70.33,70.33,0,0,0,21.34-1.36c12.78-2.71,23.75-7.34,34.17-12.52a247,247,0,0,0,29.39-17.62q3.78-2.62,7.46-5.36c16.32,6.45,32.85,12.95,49.79,18.78,20.41,7,41.4,13.1,63.3,16.74a209.7,209.7,0,0,0,33.47,3,146.85,146.85,0,0,0,34.14-3.68,110.45,110.45,0,0,0,58.85-35.27,143.05,143.05,0,0,0,18.9-27.94c4.54-8.74,8.62-17.61,11.28-27.31,2.59-9.43,3.61-19.68,4.58-29.42a70.06,70.06,0,0,0,.36-7.64c.06-2,.09-4,.09-6.12A6.17,6.17,0,0,0,501.67,291.93Zm-83.84,42.13a20.29,20.29,0,0,1-4.65-6.29c-3-6.51-2.77-14.88.46-19.89a7,7,0,0,1,6.14-3.61c2.83,0,4.91.75,6.19,2.23,1.6,1.85,1.94,4.62,1.94,6.61C427.91,321.88,423.61,329.06,417.83,334.06ZM154.44,397.24a46,46,0,0,1-8.26.76c-8,0-10.84-9-10-14.38a20.07,20.07,0,0,1,5-10.75c3.68-3.71,9.07-2.92,13.67-2.34a110.91,110.91,0,0,1,19.82,4.77c3.15,1,14,4.72,15.27,5.26C178.94,387.6,167.37,394.92,154.44,397.24Z"/></g></g></svg>
