<svg width="57" height="65" xmlns="http://www.w3.org/2000/svg" xmlns:xlink="http://www.w3.org/1999/xlink"><defs><path id="a" d="M0 0h56.368v49.104H0z"/><path id="c" d="M0 0h56.803v9.138H0z"/></defs><g fill="none" fill-rule="evenodd"><g transform="translate(.218)"><mask id="b" fill="#fff"><use xlink:href="#a"/></mask><path d="M21.286 40.923c-.78 1.348-1.181 3.39-1.181 5.024 0 1.153.193 2.21.555 3.157h15.655V37.236c-1.67-1.13-3.752-1.79-6.052-1.79-3.995 0-7.219 2.444-8.977 5.477zM20.08 14.184v19.315h.02c1.424-1.413 5.16-3.205 9.08-3.58 2.77-.206 5.295.216 7.136.934V14.184L28.157 0 20.08 14.184zm22.157 10.29v24.63h14.132l-14.132-24.63zm-28.105 24.63v-24.63L0 49.103h14.131z" fill="#050F66" mask="url(#b)"/></g><g transform="translate(0 55.862)"><mask id="d" fill="#fff"><use xlink:href="#c"/></mask><path d="M56.755 1.818a.263.263 0 0 0-.215-.113h-.657a.263.263 0 0 0-.249.177l-1.3 3.736-1.404-3.742a.263.263 0 0 0-.246-.17h-.645a.263.263 0 0 0-.245.358l1.96 5.031-.103.344c-.241.697-.632.756-.979.756a1.69 1.69 0 0 1-.416-.038.263.263 0 0 0-.336.253v.417c0 .12.08.224.196.255.146.038.325.056.58.056.76 0 1.527-.17 1.99-1.404l2.1-5.674a.263.263 0 0 0-.03-.242zm-11.52.719c0 .65-.277 1.053-1.658 1.053h-.763V.98h.81c1.416 0 1.612.562 1.612 1.168v.389zm.489-1.991C45.247.179 44.54 0 43.565 0h-1.67a.263.263 0 0 0-.264.263v6.821c0 .145.118.263.263.263h.657a.263.263 0 0 0 .263-.263V4.572h.751c.973 0 1.677-.169 2.153-.515.465-.339.7-.843.7-1.501V2.12c0-.689-.233-1.219-.694-1.574zm4.393 5.627a3.531 3.531 0 0 1-1.384.288c-.737 0-.799-.3-.799-.58v-.303c0-.313.08-.618 1.038-.618h1.145v1.213zm.627-4.178c-.332-.259-.833-.385-1.533-.385-.675 0-1.17.118-1.51.36-.369.262-.556.666-.556 1.201v.256c0 .146.118.263.263.263h.585a.263.263 0 0 0 .263-.263V3.19c0-.36.067-.636.907-.636.881 0 .954.3.954.636v.836H48.96c-1.776 0-2.149.854-2.149 1.57v.285c0 .495.163.878.484 1.138.306.25.754.376 1.331.376.554 0 1.142-.107 1.63-.292l.027.09a.263.263 0 0 0 .253.192h.441a.263.263 0 0 0 .264-.263v-3.95c0-.531-.163-.916-.497-1.177zM8.054.145h-.597a.118.118 0 0 0-.119.118v6.821c0 .065.053.119.119.119h.596a.118.118 0 0 0 .119-.119V.264a.118.118 0 0 0-.119-.12zm20.974 3.169v3.77c0 .065.053.119.118.119h.597a.118.118 0 0 0 .119-.119V3.228c0-.129-.015-.26-.043-.396.492-.28.956-.423 1.38-.423.587 0 .873.296.873.905v3.77c0 .065.053.119.118.119h.597a.118.118 0 0 0 .118-.119V3.228c0-.922-.597-1.473-1.598-1.473-.57 0-1.17.162-1.784.48-.28-.314-.733-.48-1.32-.48-.55 0-1.082.19-1.469.372l-.05-.223a.119.119 0 0 0-.116-.092h-.441a.118.118 0 0 0-.119.118v5.154c0 .065.053.119.119.119h.596a.118.118 0 0 0 .119-.119v-4.31a2.533 2.533 0 0 1 1.314-.365c.587 0 .872.296.872.905zm6.678 3.775-.12.394c-.259.753-.69.856-1.116.856a1.81 1.81 0 0 1-.457-.042.118.118 0 0 0-.15.113v.417c0 .054.035.1.087.115.134.035.302.051.544.051.66 0 1.4-.101 1.853-1.309l2.101-5.675a.118.118 0 0 0-.11-.159h-.657a.118.118 0 0 0-.112.08l-1.432 4.114-1.544-4.117a.118.118 0 0 0-.111-.077h-.645a.118.118 0 0 0-.11.161l1.979 5.078zM1.732 4.787l1.3-3.537L4.34 4.787H1.732zM3.5.22a.118.118 0 0 0-.111-.076h-.692c-.05 0-.094.03-.111.076L.008 7.042a.118.118 0 0 0 .11.16h.645c.05 0 .094-.03.111-.077l.604-1.647h3.117L5.2 7.125a.119.119 0 0 0 .112.078h.656a.118.118 0 0 0 .111-.16L3.5.22zm8.196 1.534c-1.4 0-2.171.537-2.171 1.511v2.52c0 .975.77 1.511 2.171 1.511 1.327 0 2.088-.55 2.088-1.51V5.17a.118.118 0 0 0-.118-.118h-.585a.118.118 0 0 0-.119.118v.512c0 .828-.793.952-1.266.952-.9 0-1.338-.311-1.338-.952V3.37c0-.667.4-.952 1.338-.952.852 0 1.266.312 1.266.952v.607c0 .065.053.118.119.118h.585a.118.118 0 0 0 .118-.118v-.71c0-.961-.76-1.512-2.088-1.512zm12.188 2.473H21.28v-.772c0-.744.363-1.047 1.254-1.047.896 0 1.35.352 1.35 1.047v.772zm-1.35-2.473c-.65 0-1.163.138-1.526.411-.368.276-.562.686-.562 1.185v2.35c0 .5.194.909.562 1.185.363.273.876.411 1.526.411 1.367 0 2.183-.597 2.183-1.596v-.322a.118.118 0 0 0-.118-.119h-.597a.118.118 0 0 0-.118.119v.218c0 .694-.454 1.047-1.35 1.047-.891 0-1.254-.304-1.254-1.047v-.734h3.319a.118.118 0 0 0 .118-.119V3.351c0-1-.816-1.596-2.183-1.596zm-5.001 0c-.607 0-1.194.198-1.624.375V.263a.118.118 0 0 0-.119-.118h-.597a.118.118 0 0 0-.118.118v6.821c0 .065.053.119.118.119h.597a.118.118 0 0 0 .119-.119V2.84c.312-.145.963-.411 1.516-.411.58 0 .849.26.849.82v3.836c0 .065.053.119.118.119h.597a.118.118 0 0 0 .118-.119V3.143c0-.895-.559-1.388-1.574-1.388z" fill="#050F66" mask="url(#d)"/></g></g></svg>