<svg xmlns="http://www.w3.org/2000/svg" xmlns:xlink="http://www.w3.org/1999/xlink" width="256" height="256" viewBox="0 0 256 256"><defs><linearGradient id="a" x1="0.843" y1="0.135" x2="0.206" y2="0.886" gradientUnits="objectBoundingBox"><stop offset="0" stop-color="#b6509e"/><stop offset="1" stop-color="#2ebac6"/></linearGradient><radialGradient id="b" cx="0.197" cy="0.16" r="0.555" gradientTransform="translate(0)" gradientUnits="objectBoundingBox"><stop offset="0" stop-color="#7ff"/><stop offset="0.394" stop-color="#87e4ff"/><stop offset="0.861" stop-color="#6273ff"/><stop offset="1" stop-color="#9468ff"/></radialGradient><clipPath id="c"><circle cx="91.503" cy="91.503" r="91.503" transform="translate(0 13.488) rotate(-4.226)"/></clipPath><radialGradient id="d" cx="0.502" cy="0.478" r="0.554" gradientTransform="matrix(0.819, -0.106, 0.101, 1.15, 0.031, -0.033)" gradientUnits="objectBoundingBox"><stop offset="0.497" stop-color="aqua"/><stop offset="1" stop-color="#00f4ff" stop-opacity="0"/></radialGradient><linearGradient id="e" x1="0.636" y1="0.506" x2="0.997" y2="0.764" gradientUnits="objectBoundingBox"><stop offset="0" stop-color="#5a27ed"/><stop offset="1" stop-color="#ab37f4"/></linearGradient><linearGradient id="f" x1="0.039" y1="0.245" x2="0.877" y2="0.957" gradientUnits="objectBoundingBox"><stop offset="0" stop-color="#7618f4"/><stop offset="0.504" stop-color="#575ff8"/><stop offset="1" stop-color="#09ffff"/></linearGradient><linearGradient id="g" x1="0.17" y1="0.498" x2="0.918" y2="0.744" gradientUnits="objectBoundingBox"><stop offset="0" stop-color="#7f4cff"/><stop offset="1" stop-color="#3095ff"/></linearGradient><linearGradient id="h" x1="0.14" y1="0.056" x2="0.791" y2="1.241" gradientUnits="objectBoundingBox"><stop offset="0" stop-color="#7f52ff"/><stop offset="1" stop-color="#3096ff"/></linearGradient><linearGradient id="i" x1="0.81" y1="0.81" x2="0.575" y2="0.511" gradientUnits="objectBoundingBox"><stop offset="0" stop-color="#fff"/><stop offset="0.157" stop-color="#fbffff"/><stop offset="0.319" stop-color="#efffff"/><stop offset="0.483" stop-color="#daffff"/><stop offset="0.648" stop-color="#bdfffe"/><stop offset="0.814" stop-color="#98fffe"/><stop offset="0.979" stop-color="#6bfffd"/><stop offset="1" stop-color="#65fffd"/></linearGradient><linearGradient id="j" x1="0.126" y1="0.992" x2="0.692" y2="-0.06" gradientUnits="objectBoundingBox"><stop offset="0" stop-color="#fff" stop-opacity="0"/><stop offset="0.515" stop-color="#e6ffff"/><stop offset="1" stop-color="#ceffff" stop-opacity="0.502"/></linearGradient><linearGradient id="k" y1="0.5" x2="1" y2="0.5" gradientUnits="objectBoundingBox"><stop offset="0" stop-color="#fff"/><stop offset="0.867" stop-color="#fff" stop-opacity="0.306"/><stop offset="1" stop-color="#fff" stop-opacity="0.2"/></linearGradient><clipPath id="m"><rect width="256" height="256"/></clipPath></defs><g id="l" clip-path="url(#m)"><circle cx="128" cy="128" r="128" fill="#fff"/><path d="M128,256a128.976,128.976,0,0,1-25.8-2.6,127.309,127.309,0,0,1-45.77-19.261,128.366,128.366,0,0,1-46.375-56.315A127.357,127.357,0,0,1,2.6,153.8a129.251,129.251,0,0,1,0-51.593,127.31,127.31,0,0,1,19.26-45.77A128.372,128.372,0,0,1,78.177,10.059,127.33,127.33,0,0,1,102.2,2.6a129.244,129.244,0,0,1,51.593,0,127.308,127.308,0,0,1,45.77,19.26,128.367,128.367,0,0,1,46.375,56.316A127.343,127.343,0,0,1,253.4,102.2a129.248,129.248,0,0,1,0,51.593,127.3,127.3,0,0,1-19.26,45.77,128.382,128.382,0,0,1-56.316,46.375A127.4,127.4,0,0,1,153.8,253.4,128.977,128.977,0,0,1,128,256Zm0-242.287a115.145,115.145,0,0,0-23.033,2.322A113.657,113.657,0,0,0,64.1,33.232,114.622,114.622,0,0,0,22.7,83.515a113.7,113.7,0,0,0-6.659,21.452,115.4,115.4,0,0,0,0,46.065,113.66,113.66,0,0,0,17.2,40.866,114.627,114.627,0,0,0,50.282,41.407,113.75,113.75,0,0,0,21.453,6.658,115.381,115.381,0,0,0,46.065,0,113.609,113.609,0,0,0,40.866-17.2A114.622,114.622,0,0,0,233.3,172.485a113.741,113.741,0,0,0,6.659-21.453,115.4,115.4,0,0,0,0-46.065,113.662,113.662,0,0,0-17.2-40.865A114.619,114.619,0,0,0,172.485,22.7a113.74,113.74,0,0,0-21.453-6.659A115.145,115.145,0,0,0,128,13.714Z" fill="url(#a)"/><g transform="translate(2489 19222)"><g transform="translate(-2459 -19192)"><g transform="translate(0 0)"><path d="M422.476,505.333a91.5,91.5,0,1,1-91.5-91.5A91.5,91.5,0,0,1,422.476,505.333Z" transform="translate(-232.969 -407.35)" fill="url(#b)"/><g clip-path="url(#c)"><path d="M410.351,537.063C422.957,549.3,432.557,564.594,434.5,582.9c4.281,40.3-27.067,76.669-70.018,81.232s-81.237-24.41-85.518-64.713,20.008-37.571,62.954-42.134C365.353,554.8,402.717,529.655,410.351,537.063Z" transform="translate(-252.308 -467.77)" fill="url(#d)"/></g><path d="M413.791,514.413l-.091-1.18H398.714L413.8,500.34l-.025-.62a49.871,49.871,0,0,0-7.69-24.894l-.363-.686H324.794c-7.644,0-22.494,2.365-33.4,14.557-4.755,5.315-14.94,21.274-14.809,39.174.076,10.075,1.054,17.905,4.856,26.669a81.274,81.274,0,0,0,6.439,12.1c7.679,13.776,16.05,23.366,24.879,28.509a36.716,36.716,0,0,0,19.595,4.941h45.87l.272-.151c.151-.076,15.157-7.921,28.711-16.156l.393-.237.151-.424c.045-.131.1-.257.141-.378a7.84,7.84,0,0,0,.3-.8c1.669-4.78,3.061-15.056,3.736-20.739.272-2.072.429-3.434.429-3.449l.171-1.422h-.055l.116-1.15H396.581l17.164-13,.05-.57A206.008,206.008,0,0,0,413.791,514.413Z" transform="translate(-251.371 -437.25)" fill="url(#e)"/><g transform="translate(26.847 38.186)"><path d="M356.7,655.59s-15.031,1.447-59.348-10.12c18.082,35.266,35.014,37.187,47.615,37.187h43.006s14.285-7.745,27.839-15.974Z" transform="translate(-288.511 -560.376)" fill="#fff"/><path d="M346.923,682.969c-5.431,0-13.055.045-20.618-4.886-13.155-8.572-17.5-15.334-25.015-29.493,33.784,8.673,49.99,9.636,55.451,9.636.993,0,1.6-.035,1.866-.055l58.35,9.459c-11.955,7.145-26.064,14.492-27.687,15.344H346.923Z" transform="translate(-290.464 -561.922)" fill="url(#f)"/><path d="M319.675,559.269s-7.266-8.421-9.8-14.819l82.2,14.819,21.067-15.954c-.025-13.085-.081-25.6-.081-25.6H309.878s3.646-10.453,10.216-14.608l75.262,14.058,17.759-15.193c-.716-14.29-7.558-23-7.558-23H326.129c-6.933,0-21.1,1.528-31.777,13.463s-20.179,38.528-9.949,63.307c10.392,25.166,23.88,28.4,31.5,28.4h91.317c.126-.368.3-.711.429-1.14,2.2-7.432,4.079-23.724,4.079-23.724H319.675Z" transform="translate(-279.921 -477.83)" fill="#fff"/><path d="M364.517,495.64s-29.664,5.784-31.111,6.51-7.236,26.77-7.236,26.77h86.158l22.09-18.687Z" transform="translate(-302.799 -486.095)" fill="url(#g)"/><path d="M365.642,577.64s-29.664,5.789-31.106,6.515-7.236,26.765-7.236,26.765h82.977l25.363-19.151Z" transform="translate(-303.359 -526.748)" fill="url(#h)"/><path d="M413.039,542.195H309.857c2.531,6.4,9.8,14.819,9.8,14.819h92.063s-1.81,18.167-4.16,24.859H318.6c-11.34,0-23.533-3.8-34.2-28.393s-.721-51.371,9.949-63.307,24.839-13.463,31.767-13.463h79.432a47.581,47.581,0,0,1,7.478,24.138H320.073c-6.57,4.16-10.221,14.608-10.221,14.608H413.034A197.009,197.009,0,0,1,413.039,542.195Z" transform="translate(-279.82 -476.71)" fill="url(#i)"/></g><path d="M392.457,449.985s-35.891-14.24-68.283,4.079c-28.388,16.06-60.589,41.73-36.673,94.408-21.606-30.829-21.838-55.879-4.871-82.125C298.67,441.539,345.881,418.919,392.457,449.985Z" transform="translate(-248.371 -417.789)" fill="url(#j)"/><g transform="translate(6.5 6.45)"><path d="M330.892,413.77a91.941,91.941,0,0,0-87.943,117s-.04-.882-.091-2.491c-.292-9.565.943-44.756,18.9-41.69s44.252,8.385,75.363-.192,55.9-37.666,39.925-60.13C377.054,426.265,358.342,413.77,330.892,413.77Z" transform="translate(-239.468 -413.77)" opacity="0.4" fill="url(#k)"/></g><path d="M355.571,469.1c2.229,5.673-5.38,12.465-14.91,14.542s-19.136-1.039-20.82-6.893c-2.672-9.293,6.6-12.6,16.125-14.673S351.094,457.688,355.571,469.1Z" transform="translate(-272.583 -430.419)" fill="#fff"/></g></g></g></g></svg>