<?xml version="1.0" encoding="UTF-8" standalone="no"?>
<!-- Generator: Adobe Illustrator 21.1.0, SVG Export Plug-In . SVG Version: 6.00 Build 0)  -->

<svg
   xmlns:dc="http://purl.org/dc/elements/1.1/"
   xmlns:cc="http://creativecommons.org/ns#"
   xmlns:rdf="http://www.w3.org/1999/02/22-rdf-syntax-ns#"
   xmlns:svg="http://www.w3.org/2000/svg"
   xmlns="http://www.w3.org/2000/svg"
   xmlns:sodipodi="http://sodipodi.sourceforge.net/DTD/sodipodi-0.dtd"
   xmlns:inkscape="http://www.inkscape.org/namespaces/inkscape"
   version="1.1"
   id="Layer_1"
   x="0px"
   y="0px"
   viewBox="0 0 179.38546 193.66954"
   xml:space="preserve"
   sodipodi:docname="Aergo.svg"
   width="179.38547"
   height="193.66954"
   inkscape:version="0.92.2 5c3e80d, 2017-08-06"><metadata
     id="metadata25"><rdf:RDF><cc:Work
         rdf:about=""><dc:format>image/svg+xml</dc:format><dc:type
           rdf:resource="http://purl.org/dc/dcmitype/StillImage" /></cc:Work></rdf:RDF></metadata><defs
     id="defs23" /><sodipodi:namedview
     pagecolor="#ffffff"
     bordercolor="#666666"
     borderopacity="1"
     objecttolerance="10"
     gridtolerance="10"
     guidetolerance="10"
     inkscape:pageopacity="0"
     inkscape:pageshadow="2"
     inkscape:window-width="2047"
     inkscape:window-height="1136"
     id="namedview21"
     showgrid="false"
     inkscape:zoom="1.0683452"
     inkscape:cx="1.0349067"
     inkscape:cy="22.660443"
     inkscape:window-x="245"
     inkscape:window-y="67"
     inkscape:window-maximized="0"
     inkscape:current-layer="Layer_1" /><style
     type="text/css"
     id="style2">
	.st0{fill:#F73AA9;}
	.st1{fill:url(#SVGID_1_);}
	.st2{fill:url(#SVGID_2_);}
</style><path
     class="st0"
     d="m 113.1,26.769535 c 13.1,0 23.5,7.1 27.3,11.3 4.9,5.2 12.6,15 9.2,33.8 -1.5,8 -6.9,14.9 -12.5,19.9 l 19.4,19.399995 c 9.9,-8.9 19.4,-21.999995 21.8,-36.799995 1.6,-9.9 3.5,-26 -10.9,-47.4 -9.1,-13.6 -27.3,-22.2000004 -35,-24.5000004 -16.3,-4.8 -35.1,-1.3 -38.3,-0.3 -13,3.8 -22.7,9.6000004 -29.9,16.8000004 l 20.4,20.4 c 5.7,-7 14.6,-12.3 28.5,-12.6 z"
     id="path4"
     inkscape:connector-curvature="0"
     style="fill:#f73aa9" /><linearGradient
     id="SVGID_1_"
     gradientUnits="userSpaceOnUse"
     x1="403.20169"
     y1="391.18399"
     x2="403.20169"
     y2="292.9343"
     gradientTransform="translate(-325,-197.63047)"><stop
       offset="0"
       style="stop-color:#878787"
       id="stop6" /><stop
       offset="0.9976"
       style="stop-color:#3B3B3B"
       id="stop8" /></linearGradient><path
     class="st1"
     d="M 156.5,111.16953 137.1,91.769535 c -2.7,2.4 -5.4,4.4 -7.8,5.9 -7.1,4.399995 -17.6,8.599995 -32.7,14.499995 l -26.6,10.2 -5.3,2 c -14.6,5.4 -39,14.5 -51.9,31.6 -10.6,14 -12.5,30.6 -12.8,37 v 0.7 h 28.6 l 0.1,-0.6 c 0.4,-4.8 1.9,-14 7.4,-21.3 8,-10.6 28.3,-18.1 39.2,-22.2 l 9,-3.3 26.6,-10.3 c 14.5,-5.8 24.7,-10.9 32.6,-15.2 4.1,-2.5 8.7,-5.7 13,-9.6 z"
     id="path11"
     inkscape:connector-curvature="0"
     style="fill:url(#SVGID_1_)" /><linearGradient
     id="SVGID_2_"
     gradientUnits="userSpaceOnUse"
     x1="414.2995"
     y1="386.18399"
     x2="414.2995"
     y2="226.1808"
     gradientTransform="translate(-325,-197.63047)"><stop
       offset="0"
       style="stop-color:#BEBEBE"
       id="stop13" /><stop
       offset="0.9976"
       style="stop-color:#3B3B3B"
       id="stop15" /></linearGradient><path
     class="st2"
     d="m 119.1,150.56953 c -2.2,-4 -5.1,-9 -8.5,-14.7 l -14,-23.8 c -1.9,-3.4 -17.1,-22.799995 -19.9,-42.899995 -1,-7.2 0.2,-20.1 8,-29.9 l -20.4,-20.4 c -14.7,14.7 -18.4,34.9 -16.5,53.1 2.7,26.1 20.9,48.099995 22.2,50.299995 l 14.1,23.8 c 3.9,6.7 7.4,12.6 9.9,17.1 7.7,13.9 8.8,24.6 8.8,29.7 v 0.7 h 28.5 v -0.7 c 0,-9.3 -2.1,-24.2 -12.2,-42.3 z"
     id="path18"
     inkscape:connector-curvature="0"
     style="fill:url(#SVGID_2_)" /></svg>