<?xml version="1.0" encoding="UTF-8"?>
<svg width="86.056mm" height="86.055mm" version="1.1" viewBox="0 0 86.056 86.055" xmlns="http://www.w3.org/2000/svg"><defs><linearGradient id="a" x1="215.81" x2="52.736" y1="34.56" y2="226.82" gradientTransform="matrix(.33615 0 0 .33615 54.865 95.549)" gradientUnits="userSpaceOnUse"><stop stop-color="#b6509e" offset="0"/><stop stop-color="#2ebac6" offset="1"/></linearGradient></defs><g transform="translate(-54.865 -95.549)"><path d="m97.892 181.6a43.356 43.356 0 0 1-8.6728-0.87399 42.795 42.795 0 0 1-15.386-6.4746 43.151 43.151 0 0 1-15.589-18.93 42.811 42.811 0 0 1-2.506-8.0758 43.448 43.448 0 0 1 0-17.343 42.796 42.796 0 0 1 6.4743-15.386 43.153 43.153 0 0 1 18.931-15.59 42.802 42.802 0 0 1 8.0754-2.5074 43.446 43.446 0 0 1 17.343 0 42.795 42.795 0 0 1 15.386 6.4743 43.151 43.151 0 0 1 15.589 18.931 42.807 42.807 0 0 1 2.5084 8.0757 43.447 43.447 0 0 1 0 17.343 42.792 42.792 0 0 1-6.4743 15.386 43.156 43.156 0 0 1-18.931 15.589 42.826 42.826 0 0 1-8.0757 2.5084 43.356 43.356 0 0 1-8.6727 0.87399zm0-81.446a38.706 38.706 0 0 0-7.7426 0.78055 38.206 38.206 0 0 0-13.738 5.7808 38.531 38.531 0 0 0-13.917 16.903 38.221 38.221 0 0 0-2.2384 7.2112 38.792 38.792 0 0 0 0 15.485 38.207 38.207 0 0 0 5.7818 13.737 38.532 38.532 0 0 0 16.902 13.919 38.237 38.237 0 0 0 7.2115 2.2381 38.786 38.786 0 0 0 15.485 0 38.19 38.19 0 0 0 13.737-5.7818 38.531 38.531 0 0 0 13.914-16.901 38.234 38.234 0 0 0 2.2384-7.2115 38.792 38.792 0 0 0 0-15.485 38.208 38.208 0 0 0-5.7818-13.737 38.53 38.53 0 0 0-16.9-13.917 38.234 38.234 0 0 0-7.2115-2.2384 38.706 38.706 0 0 0-7.7423-0.78223z" fill="url(#a)" stroke-width=".33615"/><path d="m106.93 109.17a20.499 20.499 0 0 0-20.254 18.191 20.372 20.372 0 0 0 2.1857 40.616 20.499 20.499 0 0 0 20.249-18.191 20.372 20.372 0 0 0-2.1808-40.616zm15.599 22.67a15.863 15.863 0 0 1-13.295 13.305v-13.305zm-49.271 13.467a15.863 15.863 0 0 1 13.295-13.305v13.295zm31.207 4.6066a15.76 15.76 0 0 1-31.197 0zm0.17226-18.074v13.467h-13.477v-13.467zm17.892-4.6066h-31.207a15.765 15.765 0 0 1 31.197 0z" fill="#26ddf9" stroke-width="4.9006"/></g></svg>
