<?xml version="1.0" encoding="UTF-8"?>
<svg width="85px" height="85px" viewBox="0 0 85 85" version="1.1" xmlns="http://www.w3.org/2000/svg" xmlns:xlink="http://www.w3.org/1999/xlink">
    <title>Logo Copy 2</title>
    <g id="Identity" stroke="none" stroke-width="1" fill="none" fill-rule="evenodd">
        <g id="Avatar" transform="translate(-364.000000, -279.000000)">
            <g id="Logo-Copy-2" transform="translate(364.000000, 279.000000)">
                <g id="Avatar">
                    <path d="M42.5,0 C65.9721019,0 85,19.0278981 85,42.5 C85,53.3758902 80.9147703,63.2976238 74.1951059,70.8144059 L70.5718181,67.1901361 C69.2237788,65.8420968 67.0381753,65.8420968 65.6901361,67.1901361 C64.3420968,68.5381753 64.3420968,70.7237788 65.6901361,72.0718181 L65.6901361,72.0718181 L69.192559,75.5738557 C61.8967202,81.4694174 52.610666,85 42.5,85 C19.0278981,85 0,65.9721019 0,42.5 C0,32.389334 3.53058264,23.1032798 9.42614426,15.807441 L12.4281819,18.8098639 C13.7762212,20.1579032 15.9618247,20.1579032 17.3098639,18.8098639 C18.6579032,17.4618247 18.6579032,15.2762212 17.3098639,13.9281819 L17.3098639,13.9281819 L14.1855941,10.8048941 C21.7023762,4.0852297 31.6241098,0 42.5,0 Z M48.1074671,67.2496757 C46.7685267,65.9107353 44.5976754,65.9107353 43.2587349,67.2496757 L43.2587349,67.2496757 L34.6828416,75.8255691 C33.3439012,77.1645095 33.3439012,79.3353608 34.6828416,80.6743013 C36.021782,82.0132417 38.1926334,82.0132417 39.5315738,80.6743013 L39.5315738,80.6743013 L48.1074671,72.0984079 C49.4464076,70.7594675 49.4464076,68.5886161 48.1074671,67.2496757 Z M61.1971308,55.0171549 C58.8539851,52.6740091 55.0420871,52.6869173 52.6830184,55.045986 C50.3239496,57.4050547 50.3110415,61.2169527 52.6541873,63.5600984 C54.997333,65.9032442 58.809231,65.8903361 61.1682997,63.5312674 C63.5273685,61.1721986 63.5402766,57.3603006 61.1971308,55.0171549 Z M39.7146752,36.3329932 C38.366636,34.9849539 36.1810325,34.9849539 34.8329932,36.3329932 C33.4849539,37.6810325 33.4849539,39.866636 34.8329932,41.2146752 L34.8329932,41.2146752 L43.2853248,49.6670068 C44.633364,51.0150461 46.8189675,51.0150461 48.1670068,49.6670068 C49.5150461,48.3189675 49.5150461,46.133364 48.1670068,44.7853248 L48.1670068,44.7853248 Z M30.339988,24.160012 C27.9968422,21.8168663 24.1849442,21.8297744 21.8258755,24.1888431 C19.4668068,26.5479118 19.4538987,30.3598098 21.7970444,32.7029556 C24.1401902,35.0461013 27.9520882,35.0331932 30.3111569,32.6741245 C32.6702256,30.3150558 32.6831337,26.5031578 30.339988,24.160012 Z M48.3171584,5.32569873 C46.978218,3.98675831 44.8073666,3.98675831 43.4684262,5.32569873 L43.4684262,5.32569873 L34.8925329,13.9015921 C33.5535924,15.2405325 33.5535924,17.4113839 34.8925329,18.7503243 C36.2314733,20.0892647 38.4023246,20.0892647 39.7412651,18.7503243 L39.7412651,18.7503243 L48.3171584,10.1744309 C49.6560988,8.83549052 49.6560988,6.66463916 48.3171584,5.32569873 Z" id="Bg" fill="#0054FF"></path>
                    <path d="M48.1074671,67.2496757 C49.4464076,68.5886161 49.4464076,70.7594675 48.1074671,72.0984079 L39.5315738,80.6743013 C38.1926334,82.0132417 36.021782,82.0132417 34.6828416,80.6743013 C33.3439012,79.3353608 33.3439012,77.1645095 34.6828416,75.8255691 L43.2587349,67.2496757 C44.5976754,65.9107353 46.7685267,65.9107353 48.1074671,67.2496757 Z M70.5718181,67.1901361 L74.1957021,70.813739 C72.6598455,72.5318583 70.9863565,74.1243385 69.192559,75.5738557 L65.6901361,72.0718181 C64.3420968,70.7237788 64.3420968,68.5381753 65.6901361,67.1901361 C67.0381753,65.8420968 69.2237788,65.8420968 70.5718181,67.1901361 Z M61.1971308,55.0171549 C63.5402766,57.3603006 63.5273685,61.1721986 61.1682997,63.5312674 C58.809231,65.8903361 54.997333,65.9032442 52.6541873,63.5600984 C50.3110415,61.2169527 50.3239496,57.4050547 52.6830184,55.045986 C55.0420871,52.6869173 58.8539851,52.6740091 61.1971308,55.0171549 Z M39.7146752,36.3329932 L48.1670068,44.7853248 C49.5150461,46.133364 49.5150461,48.3189675 48.1670068,49.6670068 C46.8189675,51.0150461 44.633364,51.0150461 43.2853248,49.6670068 L34.8329932,41.2146752 C33.4849539,39.866636 33.4849539,37.6810325 34.8329932,36.3329932 C36.1810325,34.9849539 38.366636,34.9849539 39.7146752,36.3329932 Z M30.339988,24.160012 C32.6831337,26.5031578 32.6702256,30.3150558 30.3111569,32.6741245 C27.9520882,35.0331932 24.1401902,35.0461013 21.7970444,32.7029556 C19.4538987,30.3598098 19.4668068,26.5479118 21.8258755,24.1888431 C24.1849442,21.8297744 27.9968422,21.8168663 30.339988,24.160012 Z M14.186261,10.8042979 L17.3098639,13.9281819 C18.6579032,15.2762212 18.6579032,17.4618247 17.3098639,18.8098639 C15.9618247,20.1579032 13.7762212,20.1579032 12.4281819,18.8098639 L9.4260832,15.8075166 C10.8756167,14.0136905 12.4681175,12.3401761 14.186261,10.8042979 Z M48.3171584,5.32569873 C49.6560988,6.66463916 49.6560988,8.83549052 48.3171584,10.1744309 L39.7412651,18.7503243 C38.4023246,20.0892647 36.2314733,20.0892647 34.8925329,18.7503243 C33.5535924,17.4113839 33.5535924,15.2405325 34.8925329,13.9015921 L43.4684262,5.32569873 C44.8073666,3.98675831 46.978218,3.98675831 48.3171584,5.32569873 Z" id="Stripes" fill="#FFFFFF"></path>
                </g>
            </g>
        </g>
    </g>
</svg>
