<svg id="Layer_1" data-name="Layer 1" xmlns="http://www.w3.org/2000/svg" viewBox="0 0 422.88 431.81"><title>logo_black</title><path d="M151.67,553.32a162.83,162.83,0,0,1-.05-18,33.5,33.5,0,0,1,6.11-1.28,150.26,150.26,0,0,0,17.83-4.24c1.6-.52,3.19-1.07,4.76-1.69A47.15,47.15,0,0,0,200,513.68a91.52,91.52,0,0,0,9.41-14.47,216.81,216.81,0,0,0,10.09-21.68q9-22.43,17.91-44.94Q268,355.22,298.56,277.83q29-73.58,56.9-147.55c.37-1,.79-2,1.21-3,6.86-1.94,13.64-3.91,20.64-5.77.42,1,.81,1.89,1.13,2.79q11.82,33,23.62,66.07c26.85,75.08,53.8,150.12,81.43,224.91q11.33,30.67,22.85,61.26A205,205,0,0,0,517,500.87c1.79,3.36,3.74,6.65,5.82,9.83a47,47,0,0,0,27.79,20.1,151.51,151.51,0,0,0,18.76,3.72l4.5.66c.64,2,.25,3.93.31,5.85s0,4.08,0,6.12a59,59,0,0,1-.11,5.91c-.64.1-1.14.22-1.65.25-.71,0-1.42,0-2.13,0H414.17a4.14,4.14,0,0,1-.36-1.09q0-8.11,0-16.22a3.46,3.46,0,0,1,.21-.71,23.31,23.31,0,0,1,4-.75,159.63,159.63,0,0,0,19.29-3.77c2.55-.71,5.06-1.63,7.54-2.56a25.46,25.46,0,0,0,3.58-1.75c6.25-3.53,8.76-9,8.23-16a54,54,0,0,0-1.68-9.41c-1.25-4.81-3-9.47-4.64-14.14q-49.17-137.23-97.27-274.85c-.34-1-.45-2.1-1.46-3-.32.2-.76.35-1,.65a6.32,6.32,0,0,0-.59,1.47c-15.67,45.11-32.38,89.85-49,134.63-12.27,33.15-24.56,66.3-36,99.74-4.59,13.41-9,26.9-13.32,40.38A96.37,96.37,0,0,0,248,501.75a38.17,38.17,0,0,0-.32,10.86,17,17,0,0,0,6.87,11.84,31.82,31.82,0,0,0,8.25,4.23,84.92,84.92,0,0,0,14.4,3.7c5.41,1,10.84,1.75,16.27,2.62.35.06.69.13,1.16.22a5.58,5.58,0,0,1,.28,1.22q0,7.85,0,15.69a5,5,0,0,1-.21.92,13.74,13.74,0,0,1-1.47.24c-.71,0-1.42,0-2.13,0H151.67Z" transform="translate(-151.4 -121.52)"/></svg>