<svg width="160" height="160" viewBox="0 0 160 160" fill="none" xmlns="http://www.w3.org/2000/svg">
<path fill-rule="evenodd" clip-rule="evenodd" d="M101.167 108.151C108.596 108.151 114.618 102.148 114.618 94.7435C114.618 87.3389 108.596 81.3361 101.167 81.3361C93.7388 81.3361 87.7169 87.3389 87.7169 94.7435C87.7169 102.148 93.7388 108.151 101.167 108.151ZM119.084 94.7435C119.084 104.607 111.063 112.603 101.167 112.603C91.272 112.603 83.2502 104.607 83.2502 94.7435C83.2502 84.8799 91.272 76.8838 101.167 76.8838C111.063 76.8838 119.084 84.8799 119.084 94.7435Z" fill="black"/>
<path fill-rule="evenodd" clip-rule="evenodd" d="M90.1365 103.979C91.0293 105.072 90.8645 106.679 89.7686 107.569C80.4647 115.123 70.7754 120.395 62.2098 122.698C53.7652 124.969 45.7005 124.506 40.5967 119.418C34.9306 113.77 34.9661 104.504 38.1926 94.9701C38.6445 93.6349 40.0967 92.9176 41.436 93.3681C42.7755 93.8185 43.4951 95.266 43.0432 96.6012C39.9808 105.65 40.7088 112.314 44.2165 115.81C47.3665 118.95 53.0662 119.871 60.8765 117.771C68.566 115.704 77.6226 110.85 86.5355 103.612C87.6315 102.723 89.2437 102.887 90.1365 103.979Z" fill="black"/>
<path fill-rule="evenodd" clip-rule="evenodd" d="M72.2747 54.0237C71.4159 52.9045 71.6298 51.3032 72.7526 50.447C81.6795 43.64 90.85 38.9537 98.9443 37.0082C106.942 35.086 114.528 35.7213 119.403 40.5817C125.07 46.2296 125.034 55.4961 121.807 65.0299C121.356 66.3652 119.903 67.0823 118.564 66.632C117.225 66.1816 116.505 64.7341 116.957 63.3988C120.019 54.3499 119.291 47.6863 115.784 44.1899C112.776 41.1922 107.452 40.2123 100.144 41.9689C92.933 43.7021 84.4021 47.9885 75.8629 54.4999C74.7401 55.3561 73.1337 55.1429 72.2747 54.0237Z" fill="black"/>
<path fill-rule="evenodd" clip-rule="evenodd" d="M80.6944 64.127C80.6944 73.9907 72.6726 81.9868 62.7773 81.9868C52.882 81.9868 44.8602 73.9907 44.8602 64.127C44.8602 54.2633 52.882 46.2672 62.7773 46.2672C72.6726 46.2672 80.6944 54.2633 80.6944 64.127ZM60.9846 55.1961H64.5681V62.3389H71.7326V65.9109H64.5681V73.056H60.9846V65.9109H53.8154V62.3389H60.9846V55.1961Z" fill="black"/>
<path d="M107.568 96.2766V92.7046H94.7701V96.2766H107.568Z" fill="black"/>
</svg>
