<svg width="390" height="391" fill="none" xmlns="http://www.w3.org/2000/svg"><ellipse cx="195" cy="195.1" rx="194.9" ry="195.1" fill="url(#paint0_linear)"/><path d="M347.4 182.2c1.3-28.1-18.3-46.8-40.4-59.6l-14.4 84.6c10-.5 14.8 3.2 16.6 5 2.2 2.3 7.7 9 1 19.5 14-2.2 35.5-15.6 37.2-49.5z" fill="#9BF9FF"/><path fill-rule="evenodd" clip-rule="evenodd" d="M158.6 83.7l-17.1-17.3c25.8-3.1 94 1 159.9 42.3 1.1 4.5 0 11.2 0 11.2l5.5 2.7c4.8 6.9 13 26.4 7.2 49.6-5.7 23.1-15.7 33-19.9 35-8.9 0-23.9 5.2-28.8 27.9-4.8 22.7-14.2 27.6-18.2 27.2l-97.4 1.1-64.2-37.8-9.4-78.5 18.2-24.5L127.1 96l23.2-9.4 8.3-2.8zm115 32.4a36.2 36.2 0 01-9.4 7.2c-25-5.3-34.1-18.3-34.1-18.3 23.6-.2 45 5.5 60.6 15 0 0-8.4-2.8-17-4z" fill="url(#paint1_linear)"/><path fill-rule="evenodd" clip-rule="evenodd" d="M265.3 235a135.9 135.9 0 01-59.6 13.4c-61.6 0-111.6-38.6-111.6-86.3 0-35.2 27.3-65.4 66.4-78.9C86 87.5 26.4 147.1 26.4 220.6c0 84.9 75.8 155 169.3 155 69.8 0 128-40.4 158.4-94.5-41.9 9.4-91.4-8.4-88.8-46z" fill="#A0F9FF"/><defs><linearGradient id="paint0_linear" x1="126.3" y1="41.8" x2="338.3" y2="318.9" gradientUnits="userSpaceOnUse"><stop stop-color="#00EFFF"/><stop offset="1" stop-color="#00B3EC"/></linearGradient><linearGradient id="paint1_linear" x1="98.9" y1="50.7" x2="373" y2="345.4" gradientUnits="userSpaceOnUse"><stop stop-color="#FDFFFF"/><stop offset="1" stop-color="#FDFFFF"/></linearGradient></defs></svg>