<svg width="1231" height="1231" viewBox="0 0 1231 1231" fill="none" xmlns="http://www.w3.org/2000/svg">
<g clip-path="url(#clip0_284_17)">
<path d="M0 615.5C0 275.569 275.569 0 615.5 0V0C955.431 0 1231 275.569 1231 615.5V615.5C1231 955.431 955.431 1231 615.5 1231V1231C275.569 1231 0 955.431 0 615.5V615.5Z" fill="url(#paint0_radial_284_17)"/>
<path d="M1006 435.273C1003.58 449.429 1000.75 456.292 997.429 464.235L997.422 464.252C993.842 472.864 989.778 482.637 986.1 502.025C984.634 509.785 983.908 515.478 983.268 520.496L983.228 520.807L983.191 521.099C982.169 529.137 981.48 534.55 978.217 544.184C975.564 552.052 971.135 565.18 960.463 579.321C951.847 590.764 937.419 609.916 918.168 612.214C916.495 612.324 913 612.5 911.574 611.772C856.959 583.882 810.036 563.275 793.794 558.65C774.899 553.299 777.317 512.108 779.456 475.769C780.416 459.527 781.323 444.169 780.56 431.018C777.907 385.14 769.782 334.925 729.83 310.445C705.977 295.835 675.208 291.549 645.808 291.489C651.257 288.897 657.334 285.375 663.954 281.52L664.157 281.403C681.468 271.378 702.954 258.936 724.305 256.745C731.289 256.057 738.152 255.248 744.916 254.5C787.959 249.625 825.144 245.438 864.371 258.869C882.147 264.968 918.622 285.314 928.039 304.209C934.668 317.542 945.854 327.941 968.172 348.688C979.792 359.497 987.446 365.782 993.047 370.381L993.303 370.591C1001.17 377.061 1002.72 378.414 1005.06 383.198C1012.3 397.936 1009.66 413.589 1006 435.273Z" fill="white"/>
<path d="M806.21 623.492C809.355 624.565 810.535 628.386 808.727 631.175C803.048 639.933 796.563 651.724 788.848 666.028C785.091 673.026 781.531 679.632 778.546 684.787C767.965 702.956 767.103 718.254 766.431 730.528C765.705 743.369 765.055 749.264 757.383 754.381C751.05 758.628 744.565 760.042 699.595 766.889C691.75 768.106 688.265 769.625 685.204 770.963C684.713 771.175 684.225 771.386 683.714 771.596C680.598 772.877 677.499 770.193 677.671 766.828C677.992 760.558 678.194 752.837 678.221 743.278V741.328C678.455 732.516 678.085 725.366 677.767 719.599C677.178 708.118 677.102 703.281 680.163 698.285C683.92 692.246 686.852 690.402 691.667 687.349C698.393 683.124 707.614 677.304 721.264 658.545C728.519 648.614 730.129 643.225 731.134 638.569C731.565 636.642 731.724 635.916 737.309 631.684C743.212 627.202 761.2 613.575 784.23 617.445C790.324 618.477 798.016 620.698 806.21 623.492Z" fill="white"/>
<path d="M628.409 831.185C627.427 832.463 626.285 833.052 624.63 833.135C619.929 833.332 616.626 832.168 614.442 829.538C609.801 823.892 610.429 812.547 611.509 805.919L630.525 800.847C632.014 810.915 632.717 825.577 628.409 831.185Z" fill="white"/>
<path d="M629.952 762.58C629.635 765.354 629.287 768.475 629.302 771.74C629.325 772.957 629.34 774.182 629.378 775.376C629.416 778.482 629.537 783.418 629.106 785.662C623.165 787.824 618.094 787.824 611.427 787.711C611.329 785.783 611.45 782.911 611.526 780.969C611.564 779.472 611.647 777.983 611.662 776.563C611.684 774.99 611.662 773.433 611.662 771.884C611.639 768.226 611.586 762.233 612.486 760.464C614.277 760.207 616.106 759.814 618.071 759.36C622.001 758.514 627.133 757.433 630.398 757.924C630.345 759.194 630.149 761.084 629.952 762.58Z" fill="white"/>
<path d="M594.766 825.327C593.843 835.077 590.835 847.132 581.69 848.961C577.579 849.808 575.591 848.568 574.336 847.389C568.161 841.668 567.179 824.383 568.04 812.018C572.152 812.093 577.541 811.171 583.927 809.932C587.82 809.161 591.697 808.299 594.781 807.589C595.136 812.169 595.393 818.699 594.766 825.327Z" fill="white"/>
<path d="M590.445 790.344L569.819 797.577C570.862 789.573 572.261 778.304 572.752 770.814C573.107 765.546 574.543 763.929 574.951 763.581C575.087 763.46 575.367 763.211 576.13 763.211C576.251 763.211 576.365 763.234 576.501 763.234L576.931 763.294L589.969 762.583C590.521 768.713 590.521 782.166 590.445 790.344Z" fill="white"/>
<path d="M557.119 783.931C555.955 787.037 554.579 795.827 553.718 802.017L527.877 801.231C529.336 793.227 531.354 785.087 533.576 778.595C535.82 772.148 538.239 767.311 540.461 765.95C543.053 764.393 548.76 764.046 552.259 767.031C557.943 771.876 559.515 777.423 557.119 783.931Z" fill="white"/>
<path d="M547.469 863.017C545.466 865.753 543.244 867.144 540.486 867.439C537.674 867.756 535.49 867.121 533.744 865.489C525.627 857.999 526.292 833.458 526.586 821.66C537.304 819.219 548.868 817.14 554.355 816.823C555.179 826.701 555.413 852.202 547.469 863.017Z" fill="white"/>
<path d="M513.749 800.542C512.487 803.906 511.27 807.087 510.348 809.899C507.34 810.844 498.157 810.02 488.777 807.949L495.224 767.287C505.821 764.475 518.11 763.568 521.08 766.72C524.995 770.877 517.135 791.677 513.749 800.542Z" fill="white"/>
<path d="M502.041 869.232C497.03 875.407 489.517 878.294 479.034 878.181C471.778 878.06 469.186 875.309 467.886 873.245C462.066 864.025 467.765 842.295 473.471 828.411L508.473 830.512C508.828 832.954 509.123 835.916 509.259 839.144C509.644 849.022 508.405 861.326 502.041 869.232Z" fill="white"/>
<path d="M791.288 574.099C759.779 565.173 762.492 519.099 765.115 474.567C766.044 458.809 766.921 443.912 766.203 431.728C763.785 390.046 756.778 344.653 723.251 324.102C687.193 302.051 628.203 307.077 591.807 311.708C591.774 311.712 591.742 311.734 591.709 311.737V311.737C591.694 311.738 591.681 311.74 591.667 311.744C578.335 315.784 565.865 318.403 556.196 317.89C534.724 316.779 518.013 307.739 503.297 299.803C491.817 293.583 481.802 288.209 472.37 288.209C471.871 288.209 471.35 288.209 470.836 288.232C442.622 290.061 429.652 296.954 417.869 307.467C414.906 310.09 411.294 317.686 399.465 351.772C393.494 368.997 392.391 378.422 391.28 387.582C390.282 395.949 389.269 404.557 384.818 417.398C381.719 426.256 379.437 433.898 377.222 441.267C371.387 460.842 366.777 476.26 352.923 494.596C351.298 496.765 349.28 499.955 346.952 503.59C343.808 508.541 339.923 514.693 334.791 521.813C331.171 526.831 322.857 545.613 323.311 551.334C323.991 560.442 326.954 566.095 330.34 572.693C333.71 579.201 337.55 586.57 338.253 596.743L338.366 598.39C339.606 614.527 337.301 622.621 306.607 650.042C286.984 667.6 273.042 684.521 263.638 696.933C262.809 698.028 263.888 699.656 265.257 699.547V699.547C265.575 699.502 265.892 699.479 266.187 699.479C266.777 699.434 267.366 699.411 267.948 699.411C268.538 699.411 269.127 699.434 269.709 699.456C270.299 699.479 270.866 699.524 271.448 699.615C278.871 700.46 286.106 703.6 291.329 709.01C292.237 709.951 293.648 710.206 294.862 709.72V709.72C299.858 707.642 305.353 707.982 310.598 708.473C316.839 709.052 323.142 710.874 327.442 714.746C329.079 716.22 331.326 717.002 333.484 716.559C338.369 715.557 343.46 715.724 348.192 717.444C351.7 718.752 354.71 720.738 357.176 723.228C359.5 725.574 363.434 726.041 366.303 724.406C367.451 723.752 368.686 723.189 370.027 722.735C376.693 720.475 384.062 721.76 390.532 724.088C393.721 725.237 397.062 726.257 399.934 728.177C404.677 731.334 407.761 735.808 409.831 740.847C411.421 744.717 416.713 746.04 420.109 743.596C424.19 740.659 427.557 740.282 430.952 741.789C432.357 742.422 433.453 743.227 434.293 744.196C436.726 747.001 440.635 749.797 444.248 748.942C454.313 746.562 466.498 748.14 475.439 752.929C478.739 754.666 481.987 757.31 484.36 761.311C484.363 761.316 484.364 761.316 484.365 761.322V761.322C484.367 761.337 484.389 761.33 484.391 761.314L484.663 759.536C484.785 758.731 485.357 758.067 486.135 757.826L488.302 757.154C493.411 755.529 519.449 748.024 529.577 758.688V758.688C530.015 759.127 530.779 759.17 531.197 758.713C532.578 757.203 533.698 756.372 534.414 755.96C541.012 751.962 552.319 751.712 559.847 758.152V758.152C561.361 759.424 563.817 758.962 564.957 757.346C565.66 756.35 566.458 755.475 567.352 754.72C569.997 752.438 573.345 751.35 577.049 751.576L591.356 750.805V750.805C594.954 750.608 606.131 749.848 609.656 749.102C609.923 749.046 610.196 748.996 610.478 748.954C611.967 748.727 613.735 748.342 615.587 747.956C622.525 746.444 630.393 744.744 636.855 747.729C643.068 750.601 642.282 757.676 641.534 763.911C641.239 766.443 640.921 769.088 640.944 771.598C640.989 772.769 641.012 773.948 641.035 775.15C641.125 780.525 641.239 785.494 640.176 789.309C640.174 789.317 640.173 789.325 640.173 789.334V789.334C640.173 789.34 640.174 789.347 640.175 789.354L640.831 792.306V792.306C641.514 795.211 644.617 796.848 647.155 795.279C651.986 792.294 656.962 788.526 658.551 786.295C658.697 786.09 658.809 785.865 658.897 785.628C659.119 785.028 659.507 783.786 659.937 781.279C660.822 775.966 661.812 765.166 661.902 743.232C661.902 742.076 661.902 741.245 661.925 740.859C662.107 732.719 661.789 726.189 661.472 720.422C660.882 708.533 660.406 699.177 666.309 689.654C672.053 680.387 677.631 676.88 682.989 673.487C689.225 669.579 696.261 665.143 708.105 648.893C713.917 640.889 714.635 637.662 715.202 635.085C716.486 629.046 718.482 625.41 727.453 618.631C734.754 613.113 756.975 596.274 786.95 601.315C796.78 602.985 812.715 608.228 828.439 614.424C828.447 614.427 828.455 614.429 828.464 614.429V614.429C828.47 614.429 828.477 614.429 828.483 614.431C829.051 614.596 829.629 614.792 830.165 615.065C830.412 615.191 830.659 615.319 830.918 615.422C844.514 620.851 857.746 626.892 866.503 631.81C868.997 633.21 872.168 632.375 873.987 630.167C876.69 626.887 879.623 624.886 882.771 622.999C884.033 622.228 885.008 621.646 885.937 620.853V620.853C888.889 618.347 888.857 613.095 885.413 611.325C843.564 589.826 804.332 577.809 791.288 574.099ZM491.023 583.796C481.281 626.453 415.201 673.336 385.166 673.336H384.576C384.1 673.313 383.578 673.268 383.019 673.177C382.452 673.086 381.84 672.95 381.19 672.769C380.873 672.678 380.532 672.565 380.192 672.474C374.743 670.758 367.193 666.571 361.479 660.948C357.549 657.086 354.45 652.536 353.475 647.631C353.293 646.769 353.112 645.915 352.931 645.054C351.306 637.798 349.288 628.736 355.689 613.907C356.573 611.919 357.36 610.06 358.085 608.367C358.312 607.8 358.561 607.233 358.788 606.697C359.468 605.094 360.073 603.621 360.617 602.29C361.524 600.03 362.265 598.111 362.877 596.478C363.126 595.843 363.353 595.231 363.557 594.672C365.386 589.54 365.613 587.62 365.862 585.632C366.089 584.075 366.316 582.171 366.951 579.458C368.825 571.454 369.8 564.674 370.662 558.635C372.196 547.782 373.534 538.402 379.384 529.794C380.381 528.328 381.485 526.99 382.732 525.818C383.163 525.41 383.571 525.025 384.017 524.639C384.47 524.254 384.924 523.914 385.37 523.574C386.79 522.576 388.31 521.699 389.957 520.951C390.524 520.702 391.091 520.452 391.65 520.248C392.807 519.817 394.023 519.454 395.293 519.137C400.675 517.829 407.023 517.625 414.324 518.547C422.306 519.182 429.697 520.694 436.25 522.523C441.722 524.035 446.605 525.803 450.739 527.451C451.17 527.61 451.578 527.768 451.986 527.95C452.78 528.267 453.543 528.585 454.291 528.925C455.425 529.401 456.46 529.854 457.435 530.277C458.72 530.867 459.899 531.389 460.942 531.857L461.917 532.311C466.528 534.412 470.488 536.717 473.874 539.136C475.544 540.36 477.109 541.599 478.507 542.862C478.983 543.27 479.437 543.701 479.86 544.154C480.313 544.585 480.744 545.016 481.145 545.446C493.842 558.817 493.215 574.28 491.023 583.796ZM521.648 422.122L520.363 429.854C517.401 447.283 510.598 471.174 485.506 477.326C461.366 483.229 455.644 484.491 438.465 485.262C438.079 485.307 437.671 485.307 437.263 485.307C424.717 485.307 400.576 477.394 396.298 457.728C393.562 445.068 399.148 435.893 408.346 420.679C409.88 418.169 411.535 415.479 413.296 412.471C425.457 391.988 430.249 377.16 434.096 365.271C437.845 353.654 440.966 344.048 448.993 336.089C450.845 334.238 452.946 332.492 455.387 330.821C456.944 329.756 458.577 328.811 460.292 327.927C462.575 326.793 464.971 325.803 467.48 325.009C473.065 323.226 479.097 322.319 485.135 322.319C496.843 322.319 508.535 325.689 516.872 332.378C520.62 335.386 525.956 341.395 529.055 359.119C530.65 368.249 527.937 385.027 521.648 422.122ZM700.66 471.718C692.021 486.547 687.297 494.709 679.838 500.831C665.032 512.992 647.761 516.068 633.545 516.068C623.326 516.068 614.65 514.489 609.541 513.559C594.848 510.869 567.495 505.895 558.388 484.31C556.604 480.039 556.581 477.326 556.581 473.887C556.581 470.494 556.581 464.78 555.002 451.19L554.911 450.283C554.186 444.131 553.377 437.17 555.138 428.244L555.342 427.179C560.496 400.96 561.895 396.954 563.051 394.694C565.719 389.54 572.045 387.507 577.2 390.152C582.196 392.752 584.274 398.806 581.923 403.892C581.402 405.381 579.936 410.967 575.953 431.245L575.749 432.31C574.615 438.032 575.114 442.37 575.771 447.865L575.862 448.794C577.578 463.555 577.578 470.244 577.578 473.864C577.578 474.502 577.578 475.204 577.599 475.621C577.607 475.781 577.686 475.995 577.736 476.147V476.147C579.266 479.773 582.509 482.615 586.539 484.866C590.006 486.802 593.736 483.407 592.992 479.506C588.652 456.772 589.098 430.678 597.72 414.413C600.61 408.881 605.958 399.836 611.038 391.389C611.053 391.365 611.07 391.344 611.082 391.319V391.319C611.095 391.295 611.112 391.274 611.126 391.251C611.641 390.401 612.155 389.558 612.662 388.708C613.093 387.983 613.524 387.287 613.924 386.607C616.161 382.896 618.262 379.487 619.94 376.774C620.167 376.389 620.394 376.003 620.621 375.64C620.779 375.368 620.938 375.119 621.097 374.892C621.459 374.303 621.777 373.758 622.072 373.29C622.208 373.063 622.344 372.859 622.457 372.655C622.525 372.564 622.571 372.474 622.616 372.406C622.775 372.133 622.933 371.884 623.069 371.68C623.341 371.249 623.546 370.932 623.659 370.728C623.667 370.711 623.675 370.695 623.684 370.679C623.708 370.633 623.758 370.568 623.784 370.522V370.522C623.801 370.491 623.805 370.486 623.826 370.456C625.075 368.636 626.315 366.88 627.534 365.196C630.283 361.401 627.069 356.55 622.797 358.477C615.465 361.785 610.526 365.552 609.442 366.412C604.9 370.032 598.294 369.284 594.704 364.742C591.107 360.199 591.855 353.579 596.397 349.958C601.801 345.711 630.438 324.82 664.737 334.631C689.444 341.66 702.398 360.539 707.281 367.636C711.211 373.403 723.266 390.9 722.881 415.335C722.593 433.966 714.816 447.374 700.66 471.718Z" fill="white"/>
<path d="M477.916 343.938C476.162 348.185 474.061 353.453 471.801 359.174C466.533 372.424 460.555 387.434 457.683 392.876C452.725 402.278 448.87 408.211 445.787 412.995C442.265 418.482 439.453 422.828 437.329 428.882C433.611 439.478 432.945 451.322 435.364 464.201C428.796 463.475 418.041 458.948 416.824 453.249C415.917 449.002 418.555 444.361 426.325 431.58C427.882 429.026 429.552 426.252 431.381 423.168C444.736 400.676 450.14 383.942 454.116 371.706C458.401 358.396 460.426 352.811 467.251 348.147C470.305 346.024 474.023 344.671 477.916 343.938Z" fill="white"/>
<path d="M464.891 815.668C457.612 830.535 448.55 844.26 442.904 851.062C438.226 838.418 430.101 809.455 432.248 786.154C432.308 785.481 432.384 784.816 432.482 784.166C433.343 776.971 435.256 770.365 438.657 765.075C440.901 761.598 447.114 759.474 454.173 759.474C459.381 759.474 465.049 760.615 469.924 763.23H469.962C472.577 764.629 476.137 767.455 476.507 775.679C477.044 786.781 471.753 801.708 464.891 815.668Z" fill="white"/>
<path d="M863.708 649.029C864.275 649.484 864.625 650.169 864.301 650.819C862.128 655.187 859.523 658.251 856.445 661.863C852.727 666.284 848.479 671.303 844.526 679.125C838.903 690.213 837.097 700.326 836.152 726.219C835.033 756.64 836.212 773.729 837.097 786.192C837.943 798.225 838.457 805.48 836.311 817.218C831.987 840.89 821.86 856.565 809.034 876.405C792.988 901.218 776.391 926.862 748.902 935.04C746.348 935.826 746.264 935.826 739.092 935.849C732.857 935.849 722.479 935.871 702.836 936.597C666.928 937.897 648.917 938.547 633.506 941.51C617.34 944.639 608.905 948.078 600.727 951.38C593.351 954.366 586.375 957.2 573.004 959.951C565.038 961.561 553.127 963.315 512.54 963.375C470.359 963.451 444.896 963.473 411.27 959.641C365.136 954.373 341.978 951.736 326.598 943.52C290.319 924.171 274.999 889.367 249.657 831.714C249.614 831.613 249.57 831.511 249.526 831.41C249.213 830.69 250.087 829.997 250.761 830.399V830.399C251.962 831.147 253.217 831.76 254.54 832.205C255.643 832.598 256.8 832.893 257.963 833.09C260.284 833.483 262.702 833.505 265.159 833.09C265.589 833.014 265.982 832.916 266.36 832.757C266.433 832.726 266.505 832.693 266.576 832.658C267.005 832.447 267.539 832.625 267.721 833.067V833.067C269.331 837.511 271.893 841.464 276.193 843.747C280.501 845.991 285.399 846.165 290.191 846.127C295.126 846.052 300.099 845.772 305.02 845.183V845.183C307.627 844.906 310.293 846.184 311.292 848.607C315.793 859.526 321.376 867.433 329.757 868.597C330.211 868.658 330.8 868.733 331.548 868.733C333.182 868.733 335.582 868.321 338.86 866.386C342.903 863.999 348.992 865.504 352.064 869.055C353.871 871.144 355.854 872.759 357.601 874.16C366.232 883.026 387.213 887.273 404.831 887.273C414.445 887.273 423.061 886.011 428.132 883.54C435.388 880.018 435.388 874.613 435.033 872.429C434.415 868.506 433.859 864.619 433.381 860.77C433.324 860.308 434.024 860.128 434.209 860.556V860.556C435.267 862.853 436.552 865.725 439.991 866.277C440.361 866.315 440.777 866.398 441.253 866.398V866.398C446.166 866.398 453.803 867.995 455.12 872.728C455.791 875.137 456.743 877.395 458.032 879.436C460.979 884.099 466.981 889.662 478.877 889.858H479.799C493.464 889.858 504.007 885.391 511.119 876.564C511.58 875.992 512.021 875.408 512.443 874.814C515 871.214 522.59 871.06 525.842 874.047V874.047C529.5 877.433 534.103 879.179 539.235 879.179C540.059 879.179 540.89 879.141 541.752 879.043C547.866 878.393 553.157 875.15 557.11 869.625C559.696 866.016 561.583 861.576 562.962 856.777C563.368 855.366 565.308 854.946 566.391 855.938V855.938C569.006 858.356 573.193 860.911 579.232 860.911C580.706 860.911 582.301 860.752 583.994 860.397C595.858 858.014 601.768 848.189 604.567 837.1C604.66 836.73 605.198 836.629 605.443 836.922V836.922C608.452 840.58 613.999 844.805 623.651 844.805C624.142 844.805 624.656 844.805 625.162 844.782C630.272 844.548 634.58 842.303 637.686 838.29C641.338 833.53 642.851 826.558 643.262 819.475C643.413 816.865 645.09 814.572 647.486 813.528C657.524 809.153 669.367 800.268 672.899 794.166C672.923 794.123 672.948 794.081 672.973 794.037C674.058 792.126 675.763 790.568 677.919 790.146C685.375 788.69 688.712 787.247 691.756 785.92C694.311 784.802 696.359 783.917 702.095 783.025C747.716 776.065 756.619 774.53 766.49 767.947C781.258 758.099 782.006 744.548 782.732 731.434C783.359 720.347 784.07 707.763 792.678 692.994C795.807 687.605 799.42 680.879 803.259 673.767C809.823 661.587 818.94 644.649 825.621 635.35C827.139 633.238 829.922 632.576 832.314 633.597C847.772 640.19 860.847 646.732 863.708 649.029V649.029Z" fill="white"/>
<path d="M420.674 784.718C418.867 800.492 417.764 821.564 420.318 849.014C421.044 856.761 422.049 864.803 423.304 872.943C421.142 874.122 414.688 875.777 403.207 875.596C386.708 875.263 370.647 871.114 365.825 865.899L365.077 865.226C361.064 861.999 358.433 859.875 358.055 854.116C357.935 852.174 358.766 850.246 360.55 847.526C361.532 845.991 362.832 844.223 364.442 842.038C367.216 838.32 370.655 833.679 374.177 827.701C384.501 810.257 388.416 804.868 393.389 798.066C393.782 797.514 394.198 796.962 394.629 796.396C397.561 792.382 401 787.583 406.17 779.7C410.024 773.842 413.229 769.255 415.867 765.657C420.273 759.664 423.16 756.414 425.012 754.645C424.74 757.358 424.128 761.175 423.538 764.697C422.661 770.109 421.558 776.737 420.674 784.718Z" fill="white"/>
<path d="M413.123 539.526C413.025 539.662 412.904 539.798 412.806 539.942C410.659 542.912 408.203 546.275 405.278 552.82C397.41 570.302 397.259 580.196 397.138 588.154C397.062 592.326 397.017 595.644 395.876 599.521C395.09 602.076 393.812 605.009 392.339 608.387C387.698 619.006 381.644 632.928 384.357 651.664C380.601 649.858 374.857 645.724 374.056 643.524C373.859 642.504 373.64 641.499 373.406 640.493C372.106 634.651 371.244 630.842 374.963 622.286C384.735 599.748 385.937 594.405 386.7 588.268C386.859 586.93 387.018 585.887 387.411 584.194C389.474 575.306 390.555 567.695 391.439 561.58C392.754 552.299 393.638 546.162 396.768 541.544C397.909 539.836 401.136 538.951 405.754 538.951C407.583 538.951 409.646 539.087 411.891 539.405L412.42 539.443C412.647 539.465 412.889 539.488 413.123 539.526Z" fill="white"/>
<path d="M400.219 761.833C399.69 756.429 398.745 751.018 396.78 745.924C396.644 745.667 396.055 744.367 395.934 744.117C395.579 743.467 395.17 742.855 394.793 742.213C394.77 742.19 394.755 742.19 394.755 742.175C394.732 742.137 394.717 742.137 394.717 742.114C394.498 741.88 394.301 741.646 394.09 741.427C393.772 741.109 393.425 740.799 393.084 740.52C393.024 740.444 392.964 740.384 392.911 740.361C392.752 740.225 392.518 740.043 392.261 739.892C391.845 739.673 391.452 739.439 391.044 739.227C390.923 739.152 390.628 739.031 390.356 738.932C390.356 738.932 390.333 738.932 390.333 738.91C390.273 738.887 390.212 738.872 390.16 738.849C390.099 738.811 390.061 738.789 390.023 738.774C389.963 738.751 389.925 738.736 389.887 738.736C389.85 738.736 389.85 738.713 389.85 738.713C389.729 738.653 389.653 738.638 389.593 738.615C386.449 737.459 383.259 736.196 379.918 735.705C379.896 735.705 379.843 735.682 379.797 735.682H379.722C379.351 735.682 378.581 735.607 378.543 735.607C378.074 735.584 377.621 735.584 377.167 735.607C376.948 735.607 376.736 735.607 376.54 735.63H376.366C376.291 735.63 376.192 735.652 376.094 735.652C376.056 735.69 375.996 735.69 375.973 735.69C375.95 735.69 375.935 735.69 375.935 735.69C375.187 735.909 374.401 736.106 373.653 736.34C373.335 736.499 372.988 736.657 372.67 736.854C372.398 737.013 372.118 737.209 371.846 737.345C371.824 737.368 371.786 737.406 371.748 737.406L371.688 737.466C371.332 737.821 370.962 738.154 370.607 738.509C370.486 738.63 370.153 739.038 369.919 739.333C369.859 739.371 369.821 739.409 369.821 739.446C369.798 739.469 369.798 739.469 369.783 739.484C369.76 739.507 369.76 739.522 369.723 739.545C369.7 739.567 369.7 739.582 369.685 739.582C369.587 739.756 369.488 739.9 369.451 739.975C368.188 741.94 366.911 743.89 365.596 745.833C362.565 750.473 359.459 755.091 356.315 759.679C353.443 763.829 350.571 767.978 347.721 772.127C346.126 774.448 344.554 776.745 342.982 779.065C342.71 779.458 342.453 779.852 342.196 780.245C344.063 780.6 345.93 780.97 347.819 781.325C352.044 782.096 356.254 782.837 360.54 783.426C369.367 784.628 378.339 785.18 387.28 784.863C387.711 784.84 388.142 784.862 388.542 784.938C390.689 781.87 393.22 778.211 396.448 773.314C398.239 770.578 399.947 768.046 401.557 765.703C400.831 764.584 400.378 763.247 400.219 761.833Z" fill="white"/>
<path d="M368.792 798.307C368.029 805.109 360.418 822.727 348.537 839.498C338.591 853.518 332.552 856.919 331.35 857.04C326.551 856.375 321.812 844.494 318.055 832.719C316.544 827.942 315.183 823.18 314.042 819.19C311.465 810.226 310.996 798.209 311.45 790.658C321.479 796.221 339.097 797.717 363.834 797.816H363.91C365.542 797.989 367.16 798.171 368.792 798.307Z" fill="white"/>
<path d="M351.198 742.302C351.198 742.325 351.198 742.325 351.198 742.34C351.077 742.499 350.979 742.673 350.865 742.831C346.618 749.082 342.332 755.302 338.047 761.53C335.825 764.735 333.625 767.939 331.441 771.166C330.239 772.92 328.63 774.847 327.231 776.926C323.709 776.102 320.195 775.293 316.711 774.311C313.861 773.487 311.05 772.602 308.291 771.499C307.739 771.302 307.21 771.083 306.696 770.834C306.243 769.912 305.593 769.08 304.807 768.453C304.829 768.43 304.829 768.378 304.844 768.355C305.85 766.307 306.87 764.243 307.875 762.203C309.78 758.446 311.692 754.713 313.816 751.092C317.595 744.562 322.152 737.919 328.546 733.686C328.864 733.452 329.211 733.233 329.552 733.021C332.031 731.464 334.51 730.368 337.556 729.99C337.911 729.953 340.05 729.968 341.055 730.051C341.229 730.051 341.372 730.073 341.471 730.073H341.493C341.569 730.096 341.712 730.134 341.924 730.21C342.672 730.444 343.421 730.603 344.169 730.859C344.426 730.98 344.66 731.094 344.917 731.23C345.567 731.623 346.232 731.978 346.844 732.469C345.862 731.721 348.205 734.14 348.205 733.966C350.094 736.581 350.669 738.765 351.198 742.302Z" fill="white"/>
<path d="M317.547 724.525C309.679 730.994 303.958 739.611 299.181 748.574C296.505 753.548 294.087 758.619 291.57 763.675C291.313 764.189 291.056 764.681 290.761 765.187C288.381 764.673 286 763.985 283.679 763.244C281.2 762.458 278.744 761.551 276.386 760.456C275.305 759.942 274.224 759.413 273.144 758.846C275.502 754.379 278.313 750.094 280.989 745.929C284.768 740.049 288.857 734.267 293.301 728.84C294.971 726.777 296.74 724.517 299.083 723.157C301.479 721.743 304.373 722.076 307.124 722.235C310.034 722.416 313.163 722.492 315.914 723.595C316.481 723.837 317.093 724.215 317.547 724.525Z" fill="white"/>
<path d="M305.051 830.102C304.658 830.435 304.325 830.79 304.03 831.206C303.758 831.281 303.478 831.342 303.305 831.387C301.415 831.584 299.488 831.72 297.583 831.841C293.925 832.075 290.207 832.234 286.511 832.098C284.447 832.022 282.58 831.704 281.734 830.389C280.374 828.326 279.965 824.728 279.474 821.992C277.056 808.562 276.738 794.564 278.454 780.975C285.475 783.492 292.693 785.442 300.1 786.659C298.505 798.91 301.219 816.898 302.813 822.408C303.554 824.97 304.302 827.563 305.051 830.102Z" fill="white"/>
<path d="M282.467 720.08C276.254 727.706 270.593 735.831 265.514 744.243C263.466 747.667 261.146 751.204 259.438 754.862C256.981 754.174 254.759 753.192 252.401 751.733C250.595 750.615 248.841 749.375 247.133 748.075C246.703 747.72 245.523 746.798 244.79 746.208C244.617 746.072 244.458 745.936 244.276 745.838C244.843 744.228 245.886 742.437 246.461 741.235C247.761 738.386 249.212 735.589 250.731 732.861C253.618 727.752 256.845 722.756 260.503 718.153C261.864 716.46 263.156 714.276 265.265 713.648C267.192 713.097 269.732 713.354 271.281 713.626C275.884 714.517 279.482 716.603 282.467 720.08Z" fill="white"/>
<path d="M234.553 753.324C234.655 752.926 235.164 752.874 235.404 753.208C237.029 755.472 239.261 757.445 241.651 759.309C242.723 760.123 243.789 760.938 244.871 761.705C245.039 761.824 245.119 762.033 245.071 762.233C242.568 772.615 240.84 783.618 240.783 794.481C240.78 795.081 239.873 795.209 239.734 794.626C236.635 781.66 232.608 760.937 234.553 753.324Z" fill="white"/>
<path d="M265.03 776.358C263.768 785.639 263.164 794.943 263.572 804.3C263.768 809.431 264.32 814.526 265.008 819.597C265.008 819.635 265.008 819.673 265.03 819.695V819.718C263.927 819.461 262.771 819.423 261.592 819.597C261.826 819.521 261.221 819.559 260.964 819.559H260.889C260.715 819.536 260.458 819.521 260.375 819.499C259.075 819.181 258.961 819.045 257.933 818.395C256.596 817.534 255.182 815.954 254.238 814.344C251.743 810.021 251.192 804.768 250.995 799.871C250.625 790.257 251.449 780.658 253.24 771.241C254.774 771.868 256.112 772.442 258.334 773.402C260.533 774.362 262.816 775.307 265.038 776.335V776.358H265.03Z" fill="white"/>
<g opacity="0.8" filter="url(#filter0_i_284_17)">
<path d="M510.413 1269.87C468.062 1269.87 427.896 1267.19 394.191 1264.57L384.899 1263.84L375.62 1262.55C371.562 1261.98 366.043 1261.39 360.719 1260.81C328.293 1257.28 267.992 1250.71 201.422 1219.45L191.083 1214.58L181.442 1209.18C53.4982 1137.46 5.61612 1029.54 -20.1665 971.512C-21.8078 967.829 -23.7981 963.344 -25.672 959.209C-38.6861 932.573 -46.9185 908.561 -53.8973 886.578L-55.4481 881.667L-56.7404 876.898C-75.3117 810.897 -80.003 753.904 -71.4993 697.544C-62.9697 640.951 -42.0076 589.464 -5.58878 535.572L13.2926 504.737C17.1282 498.508 19.8363 491.653 21.2924 484.485C35.6893 413.134 68.3602 362.59 84.4114 338.448C88.8296 309.229 96.115 280.517 106.162 252.726L107.661 248.513L109.263 244.403C109.522 243.679 109.858 242.658 110.478 240.797C117.69 219.073 134.594 168.244 177.888 114.87L194.146 95.1739L210.714 80.2084C253.27 41.5386 303.968 12.9194 359.064 -3.53673C389.823 -12.71 421.535 -18.3168 453.575 -20.2469L456.676 -20.4796L461.342 -20.6992C466.886 -20.9577 472.405 -21.087 477.794 -21.087C497.786 -21.1242 517.745 -19.4422 537.449 -16.0597C549.761 -13.9875 562.407 -15.4345 573.932 -20.234C608.095 -34.4839 644.002 -44.1235 680.708 -48.8986C683.77 -49.338 686.446 -49.674 688.552 -49.9454C694.342 -50.6691 703.544 -51.7548 714.658 -52.8145C734.043 -54.6626 763.768 -56.8726 795.986 -56.8726C858.911 -56.8726 913.074 -48.7177 961.564 -31.9558L965.686 -30.5213L969.718 -29.0091C1076.73 11.4289 1131.2 67.9181 1170.37 117.752L1172.23 120.13L1177.62 124.924C1213.01 152.609 1243.11 186.462 1266.46 224.85L1273.76 236.869L1279.92 249.469C1332.27 356.309 1315.63 454.955 1309.36 492.02L1309.03 493.997C1304.52 521.34 1297.35 548.177 1287.61 574.123C1284.03 599.139 1278.14 623.769 1270.01 647.698C1256.12 690.23 1235.62 730.314 1209.27 766.479C1194.1 787.939 1176.97 807.945 1158.09 826.238C1151.42 832.687 1147.1 841.178 1145.8 850.366C1144.99 856.026 1144.06 861.622 1143 867.167C1127.66 949.464 1091.67 1006.74 1076.97 1029.55L1032.55 1093.34C979.062 1159.99 915.595 1203.94 838.789 1227.57L820.179 1233.4L800.083 1236.9C777.091 1240.96 753.785 1242.97 730.438 1242.92C727.22 1242.92 723.976 1242.92 720.383 1242.83H719.349L715.382 1243.08L711.13 1243.23H711.013C702.113 1243.53 693.29 1244.99 684.765 1247.56C635.152 1262.73 579.037 1269.87 510.413 1269.87Z" stroke="url(#paint1_linear_284_17)" stroke-width="8" stroke-miterlimit="10"/>
<path d="M510.422 1218.17C469.842 1218.17 430.916 1215.59 398.206 1213L390.452 1212.41L382.698 1211.34C377.865 1210.66 371.959 1210.04 366.259 1209.4C334.764 1205.97 282.113 1200.25 223.337 1172.68L214.704 1168.62L206.678 1164.11C93.7775 1100.79 52.0084 1006.77 27.0399 950.577C25.2565 946.57 23.0725 941.646 21.0306 937.175C9.39931 913.318 1.77436 891.283 -4.6616 871.006L-5.95396 866.922L-7.07831 862.942C-23.5947 804.243 -27.8595 754.151 -20.493 705.273C-13.1266 656.396 5.43173 611.228 37.8054 563.618L61.9984 524.11C66.2766 517.11 69.2129 509.375 70.6572 501.3C82.702 434.187 114.404 386.603 128.813 364.943L130.636 362.203L131.308 361.117C131.605 360.458 131.889 359.825 132.161 359.14C133.04 356.284 133.905 353.518 134.746 350.882C138.535 323.35 145.228 296.296 154.712 270.174L156.005 266.658L157.388 263.13C157.827 262.006 158.241 260.791 159.455 257.147C166.318 236.469 180.599 193.537 217.961 147.477L231.518 131.064L245.281 118.618C282.18 85.0907 326.138 60.2785 373.91 46.0134C401.031 37.9619 428.987 33.0489 457.229 31.3708L459.813 31.1641L463.69 30.9832C468.408 30.7635 473.112 30.6601 477.7 30.6601C497.959 30.6241 518.169 32.6593 538.014 36.7341C553.329 39.9019 569.252 38.2076 583.557 31.8878C610.283 20.1014 646.262 7.52682 687.45 2.39614C690.384 1.96966 692.943 1.64654 694.933 1.40099C700.348 0.716041 709.007 -0.305039 719.488 -1.30016C737.71 -3.04485 765.754 -5.17725 795.905 -5.17725C852.989 -5.17725 901.62 2.04717 944.591 16.9093L948.029 18.0982L951.389 19.3906C1046.24 55.2278 1093.11 103.2 1129.63 149.713C1131.66 152.297 1133.74 154.947 1134.52 155.864L1135.38 156.64L1142.31 162.804L1143.24 163.761C1174.79 187.93 1201.57 217.762 1222.2 251.732L1228.28 261.747L1233.45 272.241C1278.47 364.141 1264.36 447.744 1258.34 483.452L1258.02 485.352C1253.74 511.293 1246.75 536.711 1237.16 561.188C1234.13 585.009 1228.71 608.463 1220.98 631.195C1208.69 668.832 1190.56 704.302 1167.25 736.303C1151.47 758.735 1133.23 779.326 1112.86 797.69C1103.41 806.177 1097.44 817.87 1096.12 830.503C1095.14 839.808 1093.81 848.855 1092.13 857.733C1078.6 930.377 1046.97 980.624 1032.5 1003.12L996.519 1055.43C948.701 1116.87 892.044 1157.04 823.406 1178.2L807.898 1183.06L791.097 1185.97C771.045 1189.51 750.719 1191.27 730.356 1191.23C727.397 1191.23 724.373 1191.23 721.116 1191.15H720.199H718.273C718.273 1191.15 717.627 1191.15 716.309 1191.24L712.755 1191.46L709.175 1191.59L702.028 1191.86C692.581 1192.2 683.223 1193.82 674.216 1196.69C628.518 1211.29 575.712 1218.17 510.422 1218.17Z" stroke="url(#paint2_linear_284_17)" stroke-width="8" stroke-miterlimit="10"/>
<path d="M510.413 1166.48C471.642 1166.48 433.931 1163.96 402.19 1161.49L396 1161.01L389.822 1160.16C384.226 1159.38 377.933 1158.7 371.846 1158.03C341.746 1154.76 296.294 1149.81 245.323 1125.9L238.409 1122.65L231.947 1119.05C134.038 1064.16 98.0844 983.196 74.279 929.615C72.25 925.027 69.9496 919.857 67.8172 915.063C57.4783 894.036 50.5771 873.978 44.6968 855.407L43.6629 852.15L42.7583 848.958C28.2968 797.574 24.4714 754.37 30.7006 713.028C37.0203 671.103 53.4849 632.022 82.4855 590.02L85.9362 585.032L89.6711 580.237C92.0232 577.239 94.2847 574.279 96.5076 571.384L111.06 544.697C115.832 535.975 119.055 526.49 120.584 516.666C129.838 456.791 158.683 413.535 171.995 393.581L172.059 393.478C172.822 392.341 173.804 390.893 174.308 390.092L177.151 385.556C178.263 383.126 179.736 379.895 181.028 376.509C182.321 372.464 183.858 367.463 185.539 362.293C188.693 336.787 194.737 311.722 203.554 287.582L204.562 284.764L205.661 281.921C206.591 279.556 207.276 277.501 208.62 273.456C214.991 254.316 226.804 218.789 258.221 180.031L269.09 166.888L280.062 156.976C311.296 128.593 348.505 107.588 388.943 95.5107C412.415 88.5448 436.614 84.3208 461.057 82.9231L463.125 82.768L466.265 82.6259C470.143 82.4449 474.02 82.3545 477.897 82.3545C498.914 82.3256 519.848 84.988 540.189 90.2767C557.798 94.7317 576.419 92.766 592.71 84.7324C618.777 72.0802 653.645 58.6525 694.497 53.6381C697.301 53.2375 699.666 52.9273 701.592 52.6818C706.671 52.0485 714.761 51.0922 724.583 50.097C741.681 48.4557 767.968 46.5044 796.089 46.5044C847.332 46.5044 890.432 52.7981 927.91 65.7475L930.663 66.704L933.351 67.712C1020.47 100.641 1059.47 143.767 1089.18 181.595C1095.74 189.931 1096.73 191.223 1101.23 195.216L1106.77 200.153L1108.93 202.363C1123.26 213.465 1152.57 236.327 1178.23 278.613L1183.1 286.625L1187.21 295.013C1224.92 371.973 1213.19 441.476 1207.55 474.884L1207.24 476.732C1203.21 501.227 1196.38 525.18 1186.9 548.122L1186.64 550.228C1184.14 572.175 1179.29 593.791 1172.18 614.704C1161.51 647.454 1145.75 678.316 1125.46 706.152C1108.49 730.476 1088.09 752.219 1064.9 770.706C1059.38 775.08 1054.86 780.586 1051.65 786.852C1048.43 793.118 1046.6 799.999 1046.27 807.034C1045.63 820.844 1044.04 834.593 1041.51 848.183C1029.8 911.173 1002.3 954.841 988.264 976.644L960.374 1017.86C918.334 1073.98 868.5 1110.31 808.276 1128.78L795.883 1132.66L782.481 1134.98C765.343 1138.01 747.97 1139.52 730.567 1139.48C727.866 1139.48 725.113 1139.48 722.141 1139.4H721.456H718.483C717.979 1139.4 716.441 1139.4 713.314 1139.6L710.47 1139.78L707.718 1139.88L693.347 1140.41C683.28 1140.76 673.317 1142.56 663.764 1145.75C621.905 1159.85 572.524 1166.48 510.413 1166.48Z" stroke="url(#paint3_linear_284_17)" stroke-width="7.5" stroke-miterlimit="10"/>
<path d="M510.409 1114.78C473.357 1114.78 436.925 1112.34 406.193 1109.95L401.553 1109.59L396.914 1108.96C390.568 1108.08 383.887 1107.34 377.412 1106.64C349.122 1103.55 310.442 1099.35 267.264 1079.1L262.095 1076.66L257.274 1073.96C174.356 1027.43 143.856 958.796 121.576 908.639C119.263 903.47 116.859 898.029 114.481 892.821C105.008 873.771 98.9725 855.485 93.9582 839.834L93.1828 837.391L92.5107 835.001C68.266 748.839 77.3772 688.395 125.014 619.434L127.598 615.687L130.403 612.094C133.569 608.049 136.529 604.159 139.449 600.462C143.843 594.699 148.289 588.831 153.136 582.796C156.143 579.035 158.569 574.844 160.334 570.364L165.801 556.406C168.117 550.471 169.571 544.234 170.117 537.886C174.86 482.612 201.741 442.316 215.053 422.349L215.13 422.246C216.099 420.773 217.573 418.575 218.064 417.787L221.178 412.812L222.135 411.519C223.789 408.172 227.033 401.103 229.889 393.697C231.427 388.631 233.856 380.851 236.234 373.782C236.234 373.511 236.234 373.214 236.338 372.903C238.885 349.742 244.223 326.974 252.234 305.093L252.996 302.974L253.823 300.841C255.271 297.158 256.292 294.082 257.7 289.83C263.387 272.745 272.899 244.145 298.384 212.715L306.539 202.841L314.72 195.449C374.918 140.834 442.276 136.117 464.789 134.605L466.34 134.488L468.718 134.372C471.78 134.23 474.843 134.165 477.842 134.165C504.569 134.26 531.011 139.667 555.629 150.074C559.99 151.886 564.698 152.71 569.415 152.486C574.132 152.263 578.741 150.998 582.911 148.782H583.04C605.928 135.509 647.852 111.445 701.304 105.009C703.889 104.622 706.267 104.325 708.011 104.105C712.716 103.51 720.224 102.632 729.452 101.74C745.425 100.215 769.954 98.3926 796.034 98.3926C841.435 98.3926 879.017 103.769 910.938 114.806L913.006 115.516L915.022 116.279C989.682 144.491 1021.87 179.889 1048.45 213.723C1055.59 222.77 1058.78 226.97 1066.78 234.026L1070.95 237.735L1074.28 241.16L1076.86 243.202C1089.52 252.998 1113.05 271.233 1133.94 305.584L1137.59 311.594L1140.68 317.888C1171.05 379.921 1161.55 436.177 1156.45 466.419L1156.15 468.215C1152.55 490.199 1146.3 511.663 1137.52 532.135L1136.78 533.893C1136.7 534.268 1136.6 534.824 1136.44 535.638C1136.04 537.718 1135.81 539.373 1135.54 541.479L1135.23 543.857C1133.16 562.397 1129.08 580.657 1123.07 598.317C1114.02 626.172 1100.63 652.421 1083.38 676.092C1066.32 700.31 1047.19 720.032 1025.73 735.644C1016.3 742.528 1008.61 751.506 1003.25 761.872C997.887 772.238 995.009 783.708 994.839 795.377C994.657 809.929 993.235 824.438 990.587 838.748C980.687 892.11 957.916 928.244 943.739 950.266L923.474 980.65C887.185 1031.35 844.369 1063.72 792.842 1079.5L790.115 1080.36C785.742 1081.73 781.283 1082.81 776.765 1083.59L773.496 1084.16C759.281 1086.67 744.87 1087.92 730.434 1087.89C727.991 1087.89 725.51 1087.89 722.822 1087.83H722.383C721.155 1087.83 719.798 1087.83 718.35 1087.83C717.342 1087.83 714.68 1087.83 709.873 1088.12L707.74 1088.25L705.659 1088.33C698.745 1088.59 690.151 1088.89 682.487 1089.22C671.983 1089.66 661.607 1091.69 651.716 1095.26C614.625 1108.5 569.238 1114.78 510.409 1114.78Z" stroke="url(#paint4_linear_284_17)" stroke-width="7" stroke-miterlimit="10"/>
<path d="M510.413 1063.09C475.118 1063.09 439.953 1060.72 410.203 1058.41L407.101 1058.18L404.012 1057.74C396.891 1056.76 389.796 1055.98 382.96 1055.24C356.957 1052.41 324.597 1048.89 289.212 1032.29L285.748 1030.66L282.543 1028.87C214.617 990.781 189.235 933.607 168.815 887.663C166.308 882.003 163.646 876.161 161.061 870.475C153.061 854.514 147.646 838.166 143.201 824.17L142.684 822.554L142.231 820.964C122.226 749.885 128.83 704.768 167.51 648.77L169.229 646.276L171.103 643.885C174.476 639.569 177.565 635.536 180.511 631.646C190.604 618.413 200.31 605.67 214.823 590.174C218.006 586.775 219.911 582.376 220.213 577.729L221.311 561.006L220.885 555.526L221.078 549.84C222.59 503.974 245.633 469.468 257.962 450.935C259.384 448.79 260.87 446.58 261.749 445.171L263.83 441.863L265.755 439.278C268.056 435.517 274.104 422.697 278.679 410.394C280.256 405.224 283.306 395.364 285.994 387.545C286.782 385.051 286.86 384.443 287.506 379.093C289.607 359.737 294.065 340.711 300.778 322.436L301.283 321.014L301.838 319.58C303.751 314.694 305.082 310.701 306.62 306.074C311.492 291.419 318.833 269.333 338.399 245.204L343.853 238.613L349.255 233.728C391.425 195.435 437.368 188.185 468.372 186.104L469.419 186.014H471.021C473.27 185.911 475.506 185.859 477.703 185.859C504.183 185.859 535.859 198.563 552.492 206.239C556.47 208.065 560.769 209.085 565.143 209.243C569.517 209.4 573.878 208.691 577.977 207.157C588.326 203.408 598.412 198.969 608.167 193.871C629.323 181.594 664.423 161.317 708.015 156.238C710.418 155.876 712.577 155.605 714.36 155.372C718.741 154.829 725.655 154.08 734.224 153.188C749.086 151.766 771.844 150.073 795.895 150.073C835.442 150.073 867.505 154.519 893.908 163.643L895.278 164.121L896.571 164.625C958.927 188.185 983.74 215.26 1007.61 245.644C1015.36 255.44 1020.84 262.444 1032.23 272.628L1035 275.097L1037.58 277.681C1039.9 279.983 1042.41 282.096 1045.06 284.001C1055.76 292.285 1073.7 306.165 1089.61 332.361L1092.04 336.367L1094.11 340.568C1117.16 387.622 1109.76 431.511 1105.33 457.733L1105.03 459.517C1102.08 477.618 1096.92 495.288 1089.66 512.129V512.258C1087.65 516.613 1086.27 521.229 1085.54 525.97C1084.92 529.278 1084.53 531.941 1084.16 534.887L1083.85 537.291C1082.19 552.416 1078.88 567.315 1073.99 581.722C1066.61 604.708 1055.57 626.353 1041.3 645.824C1020.24 675.871 995.888 697.014 966.552 710.442C959.426 713.695 953.338 718.853 948.959 725.349C944.58 731.844 942.081 739.423 941.739 747.248C941.596 750.453 941.545 753.09 941.635 754.563C943.082 777.166 944.724 802.781 939.684 829.171C931.606 872.814 913.126 902.151 899.233 923.695C899.233 923.695 835.493 1012.4 777.492 1030.11L771.25 1032.06L764.543 1033.24C753.255 1035.24 741.811 1036.23 730.347 1036.19C728.176 1036.19 725.953 1036.19 723.562 1036.13H723.355C721.817 1036.13 720.15 1036.13 718.263 1036.13C715.989 1036.13 712.28 1036.13 706.516 1036.53L705.107 1036.62H703.711C681.521 1037.42 660.546 1038.17 654.718 1039.31C651.598 1039.79 648.556 1040.69 645.671 1041.97C612.845 1056.36 569.797 1063.09 510.413 1063.09Z" stroke="url(#paint5_linear_284_17)" stroke-width="6.5" stroke-miterlimit="10"/>
<path d="M510.414 1011.4C476.89 1011.4 442.965 1009.11 414.197 1006.87L412.659 1006.76L411.122 1006.54C403.251 1005.45 395.781 1004.64 388.544 1003.85C364.067 1001.19 338.749 998.434 311.157 985.497L309.425 984.67L307.823 983.778C254.836 954.054 235.153 909.661 216.065 866.677C213.351 860.577 210.547 854.271 207.652 848.003C201.19 835.234 196.615 821.535 192.505 808.56L192.247 807.758L192.014 806.944C176.105 750.365 180.15 721.48 210.107 678.148L210.973 676.855L211.904 675.653C215.419 671.169 218.611 666.981 221.687 662.936C236.084 644.055 248.529 627.732 276.419 601.989L276.496 601.911C278.541 599.957 279.977 597.453 280.63 594.701C281.284 591.949 281.127 589.067 280.179 586.403L275.152 572.07C274.141 567.552 273.433 562.971 273.033 558.358V558.203L272.722 554.326L272.826 551.483C273.847 520.35 290.221 495.808 301.051 479.563C302.744 476.978 304.359 474.613 305.613 472.597L306.647 470.943L307.81 469.379C313.561 461.625 322.905 440.159 327.816 426.86C329.108 422.764 332.417 411.766 335.169 403.792C337.129 397.795 338.399 391.595 338.956 385.311C340.581 369.75 344.15 354.454 349.579 339.781L349.838 339.057L350.122 338.347C352.513 332.208 354.193 327.168 355.821 322.282C360.151 309.268 365.049 294.51 378.683 277.696L381.423 274.388L384.098 271.971C414.055 244.754 446.894 239.274 472.224 237.594H472.754H473.581C475.003 237.594 476.425 237.503 477.833 237.503C502.479 237.503 521.425 247.61 533.96 254.304L536.881 255.855L537.321 256.088C540.758 257.949 543.782 259.577 546.587 260.96C554.377 264.868 563.328 265.787 571.749 263.545C588.912 258.931 615.689 248.773 633.705 238.873L634.08 238.654C653.026 227.669 681.561 211.126 715.008 207.456C717.114 207.12 719.13 206.874 721.03 206.629C724.907 206.138 731.369 205.337 739.265 204.626C753.016 203.333 774.017 201.744 796.026 201.744C829.731 201.744 856.263 205.259 877.147 212.47L877.832 212.716L878.53 212.974C928.558 231.882 946.806 251.668 967.134 277.593C975.406 288.125 983.225 298.077 998.048 311.272L999.431 312.564L1000.72 313.856C1004.73 317.899 1009.05 321.62 1013.65 324.984C1022.54 331.872 1034.73 341.306 1045.67 359.322L1046.89 361.325L1047.92 363.431C1063.65 395.547 1058.41 426.589 1054.59 449.244L1054.29 451.028C1052 465.32 1047.91 479.264 1042.1 492.525C1038.72 500.16 1036.31 508.194 1034.94 516.434C1034.04 521.216 1033.51 524.951 1033.07 528.414L1032.76 530.87C1031.52 542.581 1028.98 554.119 1025.2 565.272C1019.47 583.366 1010.79 600.394 999.534 615.675C980.536 642.943 959.471 659.757 931.491 668.661C918.083 672.902 906.548 681.639 898.833 693.397L896.61 696.809L894.155 699.614C887.047 707.704 889.05 739.057 890.278 757.77C891.57 778.306 892.953 799.539 889.115 819.532C882.808 853.715 868.165 876.784 855.061 897.074C855.061 897.074 806.391 967.288 762.476 980.625L759.284 981.633L755.924 982.215C747.56 983.712 739.078 984.448 730.581 984.411C728.668 984.411 726.703 984.411 724.623 984.411C722.775 984.411 720.746 984.411 718.497 984.411C715.512 984.411 710.743 984.412 703.48 984.916H702.782H702.084C672.631 985.988 654.861 986.621 645.039 988.534C638.428 989.701 631.975 991.631 625.809 994.285C599.509 1005.94 562.78 1011.4 510.414 1011.4Z" stroke="url(#paint6_linear_284_17)" stroke-width="6.5" stroke-miterlimit="10"/>
</g>
</g>
<defs>
<filter id="filter0_i_284_17" x="-79.5869" y="-60.8726" width="1402.49" height="1337.74" filterUnits="userSpaceOnUse" color-interpolation-filters="sRGB">
<feFlood flood-opacity="0" result="BackgroundImageFix"/>
<feBlend mode="normal" in="SourceGraphic" in2="BackgroundImageFix" result="shape"/>
<feColorMatrix in="SourceAlpha" type="matrix" values="0 0 0 0 0 0 0 0 0 0 0 0 0 0 0 0 0 0 127 0" result="hardAlpha"/>
<feOffset dx="2" dy="3"/>
<feGaussianBlur stdDeviation="2.5"/>
<feComposite in2="hardAlpha" operator="arithmetic" k2="-1" k3="1"/>
<feColorMatrix type="matrix" values="0 0 0 0 0 0 0 0 0 0 0 0 0 0 0 0 0 0 0.12 0"/>
<feBlend mode="normal" in2="shape" result="effect1_innerShadow_284_17"/>
</filter>
<radialGradient id="paint0_radial_284_17" cx="0" cy="0" r="1" gradientUnits="userSpaceOnUse" gradientTransform="translate(615.5 680) rotate(90) scale(691.5)">
<stop offset="0.166667" stop-color="#073183"/>
<stop offset="1" stop-color="#0054F9"/>
</radialGradient>
<linearGradient id="paint1_linear_284_17" x1="-75.5869" y1="-56.8726" x2="1249.6" y2="1333.99" gradientUnits="userSpaceOnUse">
<stop offset="0.205697" stop-color="#89D0FF"/>
<stop offset="0.398413" stop-color="#EBBF9A"/>
<stop offset="0.601546" stop-color="#EB8280"/>
<stop offset="0.841139" stop-color="#A281FF"/>
</linearGradient>
<linearGradient id="paint2_linear_284_17" x1="-23.9727" y1="-5.17725" x2="1197.7" y2="1282.28" gradientUnits="userSpaceOnUse">
<stop offset="0.205697" stop-color="#89D0FF"/>
<stop offset="0.398413" stop-color="#EBBF9A"/>
<stop offset="0.601546" stop-color="#EB80DA"/>
<stop offset="0.841139" stop-color="#A281FF"/>
</linearGradient>
<linearGradient id="paint3_linear_284_17" x1="27.8232" y1="46.5044" x2="1145.96" y2="1230.54" gradientUnits="userSpaceOnUse">
<stop offset="0.205697" stop-color="#89D0FF"/>
<stop offset="0.398413" stop-color="#EBBF9A"/>
<stop offset="0.601546" stop-color="#EB8280"/>
<stop offset="0.841139" stop-color="#A281FF"/>
</linearGradient>
<linearGradient id="paint4_linear_284_17" x1="79.5322" y1="98.3926" x2="1093.91" y2="1178.69" gradientUnits="userSpaceOnUse">
<stop offset="0.205697" stop-color="#89D0FF"/>
<stop offset="0.398413" stop-color="#EBBF9A"/>
<stop offset="0.601546" stop-color="#EB80E7"/>
<stop offset="0.841139" stop-color="#A281FF"/>
</linearGradient>
<linearGradient id="paint5_linear_284_17" x1="131.226" y1="150.073" x2="1042.03" y2="1126.56" gradientUnits="userSpaceOnUse">
<stop offset="0.205697" stop-color="#89D0FF"/>
<stop offset="0.398413" stop-color="#EBBF9A"/>
<stop offset="0.601546" stop-color="#EB80D3"/>
<stop offset="0.841139" stop-color="#A281FF"/>
</linearGradient>
<linearGradient id="paint6_linear_284_17" x1="182.849" y1="201.744" x2="990.014" y2="1074.8" gradientUnits="userSpaceOnUse">
<stop offset="0.205697" stop-color="#89D0FF"/>
<stop offset="0.398413" stop-color="#EBBF9A"/>
<stop offset="0.601546" stop-color="#A280EB"/>
<stop offset="0.841139" stop-color="#A281FF"/>
</linearGradient>
<clipPath id="clip0_284_17">
<path d="M0 615.5C0 275.569 275.569 0 615.5 0V0C955.431 0 1231 275.569 1231 615.5V615.5C1231 955.431 955.431 1231 615.5 1231V1231C275.569 1231 0 955.431 0 615.5V615.5Z" fill="white"/>
</clipPath>
</defs>
</svg>
