<?xml version="1.0" encoding="utf-8"?>
<!-- Generator: Adobe Illustrator 23.1.1, SVG Export Plug-In . SVG Version: 6.00 Build 0)  -->
<svg version="1.1" id="Layer_1" xmlns="http://www.w3.org/2000/svg" xmlns:xlink="http://www.w3.org/1999/xlink" x="0px" y="0px"
	 viewBox="0 0 1080 1080" style="enable-background:new 0 0 1080 1080;" xml:space="preserve">
<style type="text/css">
	.st0{clip-path:url(#SVGID_2_);}
	.st1{fill:url(#SVGID_3_);}
</style>
<title>Artboard 121</title>
<g>
	<defs>
		<path id="SVGID_1_" d="M897.3,700.1v53.1c0,2.6-2.1,4.8-4.8,4.8h-705c-2.6,0-4.8-2.2-4.8-4.8v-53.1c0-2.6,2.1-4.8,4.8-4.8h705
			C895.1,695.3,897.3,697.4,897.3,700.1z M892.5,799.8h-705c-2.6,0-4.8,2.1-4.8,4.8v53.1c0,2.6,2.1,4.8,4.8,4.8h705
			c2.6,0,4.8-2.1,4.8-4.8v-53.1C897.3,801.9,895.1,799.8,892.5,799.8z M186,653.5h133.6c2.9-0.4,5.3-2.2,6.5-4.8
			c0,0,4.9-12.9,14-32.6c15.6-33.7,28.5-55.8,28.5-55.8c33.8-60.6,83.1-134.7,143-156.9c9.1-3.3,18.6-5.3,28.2-5.7h0.4
			c9.6,0.4,19.2,2.4,28.2,5.7c59.9,22.2,109.2,96.2,143,156.9c0,0,13,22.1,28.6,55.8c9.1,19.7,14,32.6,14,32.6
			c1.2,2.6,3.7,4.5,6.5,4.8H894c0.6,0,1.1-0.2,1.6-0.5c1.3-1,1.7-2.8,0.9-4.3c0,0-8.8-22.6-24.5-57.1c-4.3-9.4-9.1-19.7-14.6-30.9
			c-35.7-72.7-72.8-142-121.2-212.2c-48.7-70.7-122-128.4-193.9-131h-0.6h-1.9H538h-0.6c-71.9,2.6-145.2,60.3-193.9,131
			c-48.3,70.2-85.4,139.5-121.2,212.2c-5.4,11.2-10.3,21.4-14.6,30.9c-15.8,34.5-24.5,56.6-24.5,56.6c-0.9,1.6-0.5,3.6,0.9,4.8
			C184.7,653.3,185.3,653.5,186,653.5z"/>
	</defs>
	<clipPath id="SVGID_2_">
		<use xlink:href="#SVGID_1_"  style="overflow:visible;"/>
	</clipPath>
	<g class="st0">
		
			<linearGradient id="SVGID_3_" gradientUnits="userSpaceOnUse" x1="313.4335" y1="735.7131" x2="853.7806" y2="201.5044" gradientTransform="matrix(1 0 0 -1 0 1080)">
			<stop  offset="0" style="stop-color:#FCB23A"/>
			<stop  offset="1" style="stop-color:#F5833D"/>
		</linearGradient>
		<rect x="173.3" y="201.6" class="st1" width="732.9" height="732.9"/>
	</g>
</g>
</svg>
