<svg id="Calque_2" data-name="Calque 2" xmlns="http://www.w3.org/2000/svg" viewBox="0 0 1774.93 1774.93"><defs><style>.cls-1{fill:#fcf9f9;stroke:#bc923e;stroke-miterlimit:10;stroke-width:5px;}</style></defs><title>icon-arianee-gold&amp;amp;black</title><circle class="cls-1" cx="887.47" cy="887.47" r="884.97"/><circle cx="486.24" cy="1224.55" r="85.57"/><path d="M1263.26,1228.82q-20.88-3.61-33.56-16.33t-19-37.18q-6.37-24.49-6.35-68,0-97.95,2.72-196.82t2.72-215q0-79.8-24.49-136t-68.93-91.6q-44.46-35.39-105.21-51.7T877.79,399.82q-87.07,0-175.06,32.65T538.57,526.8l23.58,108.84h12.7q12.66-19.93,37.18-37.19a392.47,392.47,0,0,1,54.43-31.74A322.79,322.79,0,0,1,729,544a261.32,261.32,0,0,1,63.49-8.16q81.63,0,127.88,46.26t46.26,111.56q0,23.59-6.35,39.91T932.2,763.53Q910.44,777.14,866,790.74T745.36,822.48Q683.68,837,634.71,857.85t-84.35,51.7a208.19,208.19,0,0,0-54.42,74.38q-19.05,43.53-19.05,103.4c0,4.23.12,8.46.32,12.69a135,135,0,0,1,153.32,133.71,134.25,134.25,0,0,1-17.08,65.75c1.63.64,3.27,1.28,4.93,1.89q49,18.12,117.91,18.15,83.41,0,138.77-34.47t97.05-92.51q21.78,61.68,63.49,94.32t108.84,32.66q41.7,0,78-10.89t88.89-32.65v-43.54Q1284.12,1232.44,1263.26,1228.82ZM969.39,901.39q-.93,40.82-.91,118.82,0,88.9-37.18,134.23t-97,45.35q-47.19,0-75.28-35.37t-28.12-102.49q0-68.91,22.67-105.21t58.05-57.14a381.7,381.7,0,0,1,78-34.47,419.62,419.62,0,0,0,80.72-35.37Q970.3,860.61,969.39,901.39Z" transform="translate(-8.75 -8.75)"/></svg>