<svg xmlns="http://www.w3.org/2000/svg" xmlns:xlink="http://www.w3.org/1999/xlink" width="256" height="256" viewBox="0 0 256 256"><defs><style>.a{clip-path:url(#c);}.b{fill:#fff;}.c{fill:url(#a);}.d{fill:#0e052f;}.e{fill:none;}.f{fill:#31d8a4;}</style><linearGradient id="a" x1="0.843" y1="0.135" x2="0.206" y2="0.886" gradientUnits="objectBoundingBox"><stop offset="0" stop-color="#b6509e"/><stop offset="1" stop-color="#2ebac6"/></linearGradient><clipPath id="c"><rect width="256" height="256"/></clipPath></defs><g id="b" class="a"><g transform="translate(24824 19901)"><circle class="b" cx="128" cy="128" r="128" transform="translate(-24824 -19901)"/><path class="c" d="M128,256a128.976,128.976,0,0,1-25.8-2.6,127.309,127.309,0,0,1-45.77-19.261,128.366,128.366,0,0,1-46.375-56.315A127.357,127.357,0,0,1,2.6,153.8a129.251,129.251,0,0,1,0-51.593,127.31,127.31,0,0,1,19.26-45.77A128.372,128.372,0,0,1,78.177,10.059,127.33,127.33,0,0,1,102.2,2.6a129.244,129.244,0,0,1,51.593,0,127.308,127.308,0,0,1,45.77,19.26,128.367,128.367,0,0,1,46.375,56.316A127.343,127.343,0,0,1,253.4,102.2a129.248,129.248,0,0,1,0,51.593,127.3,127.3,0,0,1-19.26,45.77,128.382,128.382,0,0,1-56.316,46.375A127.4,127.4,0,0,1,153.8,253.4,128.977,128.977,0,0,1,128,256Zm0-242.287a115.145,115.145,0,0,0-23.033,2.322A113.657,113.657,0,0,0,64.1,33.232,114.622,114.622,0,0,0,22.7,83.515a113.7,113.7,0,0,0-6.659,21.452,115.4,115.4,0,0,0,0,46.065,113.66,113.66,0,0,0,17.2,40.866,114.627,114.627,0,0,0,50.282,41.407,113.75,113.75,0,0,0,21.453,6.658,115.381,115.381,0,0,0,46.065,0,113.609,113.609,0,0,0,40.866-17.2A114.622,114.622,0,0,0,233.3,172.485a113.741,113.741,0,0,0,6.659-21.453,115.4,115.4,0,0,0,0-46.065,113.662,113.662,0,0,0-17.2-40.865A114.619,114.619,0,0,0,172.485,22.7a113.74,113.74,0,0,0-21.453-6.659A115.145,115.145,0,0,0,128,13.714Z" transform="translate(-24824 -19901)"/></g><g transform="translate(30 30)"><circle class="d" cx="97.981" cy="97.981" r="97.981"/><path class="e" d="M239.1,150.5a13.067,13.067,0,0,1-2.809,6.66,13.71,13.71,0,0,1-5.259,3.758,28.252,28.252,0,0,1-5.1,1.531c-.5.98-1.018,1.937-1.531,2.886a38.459,38.459,0,0,0,9.821-2.633,13.013,13.013,0,0,0,4.792-3.628,12.753,12.753,0,0,0,2.541-6.254c1.531-10.342-1.684-22.39-4.34-32.219q-1.332-4.96-3.062-9.844a86.4,86.4,0,0,1,.9,8.627C237.635,128.871,240.6,140.468,239.1,150.5Z" transform="translate(-52.627 -25.976)"/><path class="e" d="M236.275,160.386a12.409,12.409,0,0,0,2.626-6.262c1.294-8.7-.827-18.655-3.116-27.4v.98c0,2.1-.084,4.172-.23,6.231,1.141,6,1.73,12.179.88,17.836a12.791,12.791,0,0,1-2.9,6.683,13.633,13.633,0,0,1-4.968,3.468c-.5,1.133-1.026,2.3-1.577,3.36a25.543,25.543,0,0,0,4.31-1.363A12.959,12.959,0,0,0,236.275,160.386Z" transform="translate(-53.235 -29.719)"/><path class="e" d="M233.576,161.077a11.964,11.964,0,0,0,2.71-6.269,48.913,48.913,0,0,0-.367-14.6,83.663,83.663,0,0,1-2.113,11.658,13.128,13.128,0,0,1-1.531,5.266q-1.141,3.491-2.564,6.843a12.738,12.738,0,0,0,3.866-2.9Z" transform="translate(-53.873 -32.883)"/><path class="e" d="M58.783,27.52h0l-.383.138Z" transform="translate(-13.696 -6.454)"/><path class="f" d="M209.563,41.6q-1.722-3.376-3.422-6.751-.857-1.715-1.707-3.422c-1.646-3.322-3.261-6.575-5.075-9.691L197.79,20.69c2.151,3.506,4,7.234,5.917,11.084q.85,1.722,1.707,3.429,1.7,3.376,3.422,6.751c9.844,19.382,19.826,39.039,25.314,59.623,2.2,8.267,4.792,18.042,4.746,27.113.26-.965.513-1.937.765-2.909-.429-8.351-2.74-17.039-4.708-24.4C229.419,80.7,219.384,60.962,209.563,41.6Z" transform="translate(-46.387 -4.852)"/><path class="f" d="M23.22,54.075A75.123,75.123,0,0,0,23.9,44.53c-.283.322-.551.643-.827.972a74.589,74.589,0,0,1-.643,8.5,135.308,135.308,0,0,1-7.257,27.687C10.674,94.095,5.889,106.564.73,118.911c.061.543.122,1.095.191,1.646,5.358-12.8,10.357-25.728,15.019-38.6A133.854,133.854,0,0,0,23.22,54.075Z" transform="translate(-0.171 -10.443)"/><path class="f" d="M246.72,103.527c-5.772-18.892-14.544-37.156-23.263-55.114l-2.978-6.17c-.827-1.722-1.623-3.468-2.419-5.221-.536-.536-1.079-1.072-1.63-1.592l.827,1.814c.819,1.784,1.638,3.575,2.488,5.358.987,2.059,1.983,4.111,2.97,6.17,9.109,18.861,18.325,37.96,24.044,57.763v-.245C246.72,105.364,246.72,104.445,246.72,103.527Z" transform="translate(-50.758 -8.309)"/><path class="f" d="M20.021,50.49c-.314.406-.62.811-.919,1.225-.964,10.525-4.134,21.311-7.655,31.109-3.6,10.1-7.379,20.27-11.4,30.389,0,.666.054,1.332.084,1.99,4.294-10.686,8.3-21.456,12.125-32.1C15.872,72.911,19.195,61.6,20.021,50.49Z" transform="translate(-0.012 -11.841)"/><path class="f" d="M214.069,43.507q-1.707-3.422-3.391-6.813c-.6-1.2-1.171-2.4-1.753-3.582-1.164-2.4-2.3-4.761-3.544-7.073-.513-.4-1.033-.765-1.531-1.179,1.531,2.771,2.932,5.649,4.363,8.6q.873,1.8,1.761,3.59l3.391,6.813c9.875,19.772,19.9,39.8,25.421,60.771,1.309,4.96,2.687,10.334,3.605,15.776.138-.811.268-1.63.39-2.45-.9-4.7-2.09-9.293-3.207-13.541C233.987,83.388,223.936,63.241,214.069,43.507Z" transform="translate(-47.808 -5.83)"/><path class="f" d="M218.878,46.126c-1-2.029-1.99-4.057-2.985-6.078-.827-1.7-1.623-3.414-2.427-5.136q-.857-1.875-1.745-3.728c-.513-.452-1.033-.888-1.531-1.324.865,1.761,1.7,3.552,2.534,5.358s1.623,3.475,2.457,5.205c1,2.029,1.99,4.049,2.978,6.078,9.8,19.971,19.742,40.233,25.261,61.361.49,1.891,1,3.827,1.477,5.818.077-.865.145-1.73.2-2.6l-.888-3.422C238.643,86.421,228.669,66.09,218.878,46.126Z" transform="translate(-49.295 -7.003)"/><path class="f" d="M15.342,59.28c-.4.635-.765,1.271-1.186,1.914a181.343,181.343,0,0,1-6.69,23.263Q4.013,94.469.308,104.512c-.069.919-.122,1.845-.168,2.779Q4.358,96,8.239,84.717A169.844,169.844,0,0,0,15.342,59.28Z" transform="translate(-0.033 -13.903)"/><path class="f" d="M194.875,231.793l-.635.6c1.209-.765,2.388-1.531,3.559-2.3,3.1-2.939,6.231-5.825,9.469-8.55a39.582,39.582,0,0,1,5.825-4.034c.635-.635,1.255-1.286,1.868-1.937a42.347,42.347,0,0,0-8.221,5.358C202.66,224.383,198.749,228.073,194.875,231.793Z" transform="translate(-45.554 -50.559)"/><path class="f" d="M200.359,37.628q-1.975-3.72-3.9-7.433l-.36.191.36-.191-1.225-2.358a103.245,103.245,0,0,0-7.6-13.1c-.559-.3-1.11-.589-1.669-.873,3.368,4.356,5.848,9.14,8.55,14.368.4.765.8,1.531,1.217,2.35l3.9,7.44q.919,1.738,1.822,3.468c.689.689,1.363,1.393,2.029,2.105Z" transform="translate(-43.612 -3.251)"/><path class="f" d="M132.23,251.64h.9c2.074-4.715,4.264-9.369,6.507-13.97l-.957.107C136.455,242.324,134.281,246.955,132.23,251.64Z" transform="translate(-31.011 -55.739)"/><path class="f" d="M236.757,159.811a13.067,13.067,0,0,0,2.809-6.66c1.531-10.035-1.462-21.632-4.026-31.1.061,1.186.092,2.381.107,3.575,2.3,8.749,4.409,18.7,3.115,27.4a12.408,12.408,0,0,1-2.626,6.262,12.96,12.96,0,0,1-4.96,3.529,25.543,25.543,0,0,1-4.31,1.363c-.153.314-.306.628-.467.934a28.254,28.254,0,0,0,5.1-1.531A13.709,13.709,0,0,0,236.757,159.811Z" transform="translate(-53.096 -28.624)"/><path class="f" d="M142.49,250.386l1.033-.122c3.062-5.044,6.254-10.02,9.423-14.927l.375-.6-1.164.306C148.912,240.083,145.651,245.189,142.49,250.386Z" transform="translate(-33.417 -55.052)"/><path class="f" d="M223.79,185.86l.926-.176c4.394-.819,8.834-1.646,12.4-3.468a12.253,12.253,0,0,0,1.462-.765c.237-.505.475-1.018.7-1.531a14.361,14.361,0,0,1-2.534,1.608c-3.46,1.768-7.785,2.572-12.248,3.4l-.9.168-2.534.459c-.2.314-.406.628-.612.942Z" transform="translate(-51.703 -42.196)"/><path class="f" d="M123.65,251.818h.85q2.013-6.751,4.317-13.388h-.873Q125.663,245.082,123.65,251.818Z" transform="translate(-28.999 -55.918)"/><path class="f" d="M187.514,27.259c-.375-.681-.765-1.363-1.095-2.029-3.062-5.772-5.932-11.046-10.081-15.776l-1.738-.7c4.708,4.968,7.724,10.579,11.107,16.886.36.658.72,1.332,1.087,2.013.765,1.431,1.531,2.878,2.342,4.317.536.39,1.056.765,1.577,1.194C189.642,31.194,188.57,29.219,187.514,27.259Z" transform="translate(-40.948 -2.052)"/><path class="f" d="M233.05,160.706a13.128,13.128,0,0,0,1.531-5.266C234.137,157.216,233.616,158.969,233.05,160.706Z" transform="translate(-54.656 -36.454)"/><path class="f" d="M221.868,191.482c2.006-.4,4.011-.765,5.986-1.232,2.511-.551,4.93-1.1,7.157-1.807.191-.344.367-.689.551-1.033a74.031,74.031,0,0,1-7.884,2.044c-1.944.429-3.927.819-5.932,1.217l-4.516.919-.72.987C218.294,192.194,220.085,191.834,221.868,191.482Z" transform="translate(-50.777 -43.952)"/><path class="f" d="M157.507,236.71l-.842,1.156c-2.664,3.682-5.358,7.41-8.015,11.176l1.125-.184c2.511-3.552,5.052-7.065,7.571-10.548l.827-1.125c1.248-1.715,2.5-3.544,3.766-5.4-.429.161-.873.314-1.309.467C159.581,233.778,158.54,235.278,157.507,236.71Z" transform="translate(-34.862 -54.358)"/><path class="f" d="M214.2,198.327c3.276-.934,6.606-1.684,9.913-2.427,2.044-.467,4.088-.926,6.124-1.424l.873-.222c.2-.329.4-.658.589-1l-1.661.429c-1.983.49-4.011.949-6.055,1.408-3.33.765-6.706,1.531-10,2.45-.765.214-1.531.444-2.258.681-.344.406-.7.8-1.056,1.2Q212.415,198.848,214.2,198.327Z" transform="translate(-49.407 -45.324)"/><path class="f" d="M168.227,231.235l-.222.291c-1.692,2.228-3.345,4.409-4.991,6.453l-2.9,3.575c-1.393,1.722-2.8,3.452-4.2,5.2l1.286-.3,3.559-4.394,2.893-3.575c1.661-2.044,3.322-4.241,5.006-6.461l.222-.291c1.317-1.738,2.664-3.483,4.034-5.213-.574.283-1.141.574-1.722.85Q169.65,229.31,168.227,231.235Z" transform="translate(-36.565 -53.124)"/><path class="f" d="M197.956,215.455a199.18,199.18,0,0,0-15.31,15.019c-2.1,2.228-4.179,4.424-6.277,6.56.651-.268,1.294-.536,1.937-.819q2.5-2.572,4.976-5.205A185.712,185.712,0,0,1,198.462,216.1c4.539-3.827,9.806-6.231,15.31-8.145.765-.268,1.531-.521,2.3-.765l.9-1.148c-1.164.367-2.3.765-3.468,1.133A47.588,47.588,0,0,0,197.956,215.455Z" transform="translate(-41.363 -48.321)"/><path class="f" d="M127.8,251.83h.865c1.669-4.593,3.46-9.117,5.32-13.61l-.9.061C131.237,242.744,129.484,247.237,127.8,251.83Z" transform="translate(-29.972 -55.868)"/><path class="f" d="M234.038,160.658a12.791,12.791,0,0,0,2.9-6.683c.85-5.657.26-11.834-.88-17.836-.077,1.041-.176,2.082-.291,3.115a48.913,48.913,0,0,1,.367,14.6,11.964,11.964,0,0,1-2.71,6.269,12.737,12.737,0,0,1-3.873,2.9c-.153.367-.322.765-.482,1.1A13.633,13.633,0,0,0,234.038,160.658Z" transform="translate(-53.723 -31.928)"/><path class="f" d="M195.864,35.985q-1.952-3.644-3.9-7.295c-.383-.765-.765-1.462-1.148-2.174-2.779-5.289-5.358-10.181-8.9-14.621l-1.707-.765c4.049,4.715,6.828,9.951,9.9,15.807l1.141,2.159q1.883,3.544,3.827,7.088c.582.5,1.164,1,1.738,1.531Z" transform="translate(-42.264 -2.61)"/><path class="f" d="M215.376,199.934c-2.924.765-5.864,1.531-8.749,2.434-5.756,1.837-11.306,4.264-16.029,8.229-5.756,4.838-10.862,10.816-15.838,16.657-1.99,2.3-3.958,4.593-5.932,6.828l-4.088,4.509,1.531-.459,3.177-3.514c2.013-2.235,4-4.593,5.994-6.889,4.968-5.818,10-11.719,15.7-16.511,4.593-3.873,10.043-6.254,15.753-8.068,2.855-.911,5.779-1.684,8.7-2.427l1.408-.367.344-.084.7-1.01-1.232.321Z" transform="translate(-38.636 -46.731)"/><path class="f" d="M248.159,90.42q-.528-2.572-1.186-5.083c-4.1-9.875-8.627-19.634-13.159-29.31-.865-1.309-1.768-2.595-2.694-3.827.352.765.712,1.531,1.064,2.3C237.741,66.331,243.337,78.28,248.159,90.42Z" transform="translate(-54.203 -12.242)"/><path class="f" d="M227.3,51.326c7.433,15.639,14.927,31.43,20.553,47.613-.1-1.148-.222-2.3-.36-3.429-5.5-15.133-12.516-29.922-19.451-44.52q-1.531-3.146-2.978-6.277c-.046-.092-.084-.184-.122-.268-.628-.765-1.263-1.462-1.906-2.174.429.934.85,1.86,1.294,2.786Q225.819,48.187,227.3,51.326Z" transform="translate(-52.308 -9.913)"/><path class="f" d="M233.028,104q.574,2.572.987,5.213,1.665,4.891,3.062,9.844c2.656,9.829,5.864,21.877,4.34,32.219a12.753,12.753,0,0,1-2.541,6.254,13.013,13.013,0,0,1-4.792,3.628,38.459,38.459,0,0,1-9.821,2.633l-.513.911a42.192,42.192,0,0,0,10.717-2.809,13.779,13.779,0,0,0,5.09-3.827,13.587,13.587,0,0,0,2.71-6.637c1.531-10.541-1.722-22.758-4.363-32.54C236.48,113.821,234.857,108.876,233.028,104Z" transform="translate(-52.475 -24.391)"/><path class="f" d="M137.09,251.2l.942-.077c2.572-4.922,5.251-9.775,7.961-14.544l-1.041.191C142.272,241.494,139.624,246.309,137.09,251.2Z" transform="translate(-32.151 -55.484)"/><path class="f" d="M205.047,39.719q-1.722-3.322-3.422-6.629c-.551-1.079-1.087-2.151-1.623-3.215A129.136,129.136,0,0,0,193.5,17.987L191.85,17a111.543,111.543,0,0,1,7.417,13.22q.8,1.6,1.638,3.215l3.414,6.637c1.531,2.939,3.062,5.887,4.547,8.841q1.408,1.745,2.733,3.575C209.441,48.231,207.274,43.968,205.047,39.719Z" transform="translate(-44.994 -3.987)"/><path class="f" d="M80.148,18.3c-2.1-2.182-4.325-4.264-6.552-6.292l-.765.367c2.3,2.1,4.593,4.233,6.767,6.491,1.156,1.194,2.258,2.434,3.307,3.7l.765-.321C82.544,20.89,81.38,19.573,80.148,18.3Z" transform="translate(-17.08 -2.817)"/><path class="f" d="M16.59,185.628l.559.98A161.249,161.249,0,0,1,23.41,169l-.383-1.072a157.933,157.933,0,0,0-6.438,17.7Z" transform="translate(-3.891 -39.384)"/><path class="f" d="M86.611,244.774l.85.276q-.85-7.394-1.286-14.743L85.34,230C85.631,234.891,86.06,239.836,86.611,244.774Z" transform="translate(-20.014 -53.941)"/><path class="f" d="M132.132.069,130.8,0c5.182,4.126,8.558,9.017,12.2,14.582l1.1.2C140.491,9.27,137.153,4.3,132.132.069Z" transform="translate(-30.676)"/><path class="f" d="M128.575,12.5c-3.016-4.348-6.009-8.6-9.859-12.179L117.59.4c4.057,3.636,7.111,7.992,10.3,12.554l.406.574,1.026.038Z" transform="translate(-27.578 -0.075)"/><path class="f" d="M69.322,236.991c.3.153.6.306.9.452-.9-5.534-1.669-11.092-2.243-16.618l-.873-.574Q67.906,228.624,69.322,236.991Z" transform="translate(-15.739 -51.654)"/><path class="f" d="M64.813,234.4l.911.513c-.942-5.7-1.7-11.429-2.2-17.177l-.857-.628C63.145,222.9,63.879,228.669,64.813,234.4Z" transform="translate(-14.698 -50.918)"/><path class="f" d="M124.543,11.771A77.092,77.092,0,0,0,115.472.58L114.4.687a75.128,75.128,0,0,1,9.484,11.551c.306.436.62.865.934,1.294h1.01Z" transform="translate(-26.83 -0.136)"/><path class="f" d="M106.168,14.667c-1.852-2.12-3.674-4.218-5.4-6.285-1.347-1.607-2.656-3.146-4-4.593l-.888.222c1.424,1.531,2.817,3.2,4.256,4.922,1.753,2.1,3.59,4.2,5.443,6.33l.26.3c.306-.061.628-.107.942-.161C106.574,15.165,106.367,14.928,106.168,14.667Z" transform="translate(-22.486 -0.889)"/><path class="f" d="M37.89,213.121l.765.765c.161-6.346.582-12.592,1.225-18.685-.245-.314-.49-.628-.72-.942C38.518,200.414,38.074,206.722,37.89,213.121Z" transform="translate(-8.886 -45.559)"/><path class="f" d="M82.585,243.218l.865.329c-.689-5.052-1.24-10.112-1.638-15.149L81,228Q81.543,235.6,82.585,243.218Z" transform="translate(-18.996 -53.472)"/><path class="f" d="M128.611,0H127.34c4.93,4.026,8.221,8.757,11.819,14.146l1.079.153C136.686,8.948,133.418,4.134,128.611,0Z" transform="translate(-29.864)"/><path class="f" d="M59.809,231.247l.9.559q-1.225-8.719-1.745-17.537l-.85-.689C58.424,219.482,59.006,225.384,59.809,231.247Z" transform="translate(-13.628 -50.09)"/><path class="f" d="M121.594,12.628l-.536-.72a95.575,95.575,0,0,0-9-10.908L111,1.092a90.422,90.422,0,0,1,9.408,11.344l.505.681c.138.191.283.375.421.559h1C122.107,13.317,121.847,12.972,121.594,12.628Z" transform="translate(-26.032 -0.235)"/><path class="f" d="M117.577,11.9l-.521-.681a105.73,105.73,0,0,0-8.122-9.844l-1,.153a99.3,99.3,0,0,1,8.5,10.219l.49.651,1.148,1.493.972-.061Z" transform="translate(-25.315 -0.321)"/><path class="f" d="M54.934,227.825l.888.62c-.666-5.963-1.095-11.934-1.248-17.889l-.834-.765Q53.939,218.815,54.934,227.825Z" transform="translate(-12.603 -49.201)"/><path class="f" d="M108.773,9.59c-2.021-2.534-3.958-4.922-6.032-7.15l-.942.191c2.174,2.3,4.2,4.792,6.338,7.471,1.186,1.531,2.4,2.978,3.613,4.47l.957-.107C111.384,12.82,110.067,11.212,108.773,9.59Z" transform="translate(-23.875 -0.572)"/><path class="f" d="M45.936,220.57l.834.7c-.276-6.185-.3-12.339-.061-18.371l-.773-.9C45.653,208.124,45.66,214.332,45.936,220.57Z" transform="translate(-10.724 -47.374)"/><path class="f" d="M109.56,14.754c-1.615-1.937-3.223-3.827-4.792-5.779-1.692-2.067-3.33-4.034-5.029-5.894l-.919.2c1.8,1.944,3.521,4.011,5.358,6.208q2.3,2.779,4.593,5.542l.949-.13Z" transform="translate(-23.176 -0.722)"/><path class="f" d="M41.768,216.864l.827.765c-.069-6.285.122-12.5.551-18.593l-.765-.9C41.944,204.248,41.722,210.518,41.768,216.864Z" transform="translate(-9.794 -46.469)"/><path class="f" d="M113.558,11.209l-.467-.6c-2.457-3.161-4.731-6.07-7.257-8.742l-.965.168a112.524,112.524,0,0,1,7.616,9.117l.436.559c.643.827,1.3,1.653,1.952,2.472l.972-.084C115.081,13.138,114.316,12.181,113.558,11.209Z" transform="translate(-24.595 -0.439)"/><path class="f" d="M49.736,206q-.107,9.094.589,18.28l.865.658q-.712-9.109-.651-18.142Z" transform="translate(-11.661 -48.312)"/><path class="f" d="M73.773,239.291l.888.413c-.888-5.358-1.623-10.763-2.166-16.152-.291-.168-.582-.337-.865-.513C72.158,228.46,72.885,233.887,73.773,239.291Z" transform="translate(-16.799 -52.308)"/><path class="f" d="M121.8.14,120.65.2c4.455,3.873,7.655,8.42,11.145,13.411l1.033.069C129.376,8.7,126.177,4.113,121.8.14Z" transform="translate(-28.295 -0.033)"/><path class="f" d="M115.32,251.331l.811.077c.9-4.463,1.914-8.88,2.993-13.2l-.827-.054C117.226,242.467,116.208,246.876,115.32,251.331Z" transform="translate(-27.045 -55.852)"/><path class="f" d="M179.417,25.878c-.6-1.079-1.186-2.143-1.768-3.207-3.376-6.17-6.583-12-11.643-16.925L164.23,5.21c5.665,5.044,9.048,11.184,12.7,17.843q.72,1.332,1.47,2.664c.467.26.926.536,1.386.811Z" transform="translate(-38.516 -1.222)"/><path class="f" d="M108.3,250.409l.819.122c.421-4.478.965-8.925,1.6-13.312l-.811-.13Q108.951,243.681,108.3,250.409Z" transform="translate(-25.399 -55.603)"/><path class="f" d="M156.041,3.09l-1.661-.36c6.285,5.259,10.089,11.536,14.154,18.578l1.278.582C165.778,14.886,162.058,8.494,156.041,3.09Z" transform="translate(-36.206 -0.64)"/><path class="f" d="M173.352,21.609c-3.552-6.346-6.889-12.324-12.324-17.292L159.26,3.85c6.055,5.067,9.553,11.321,13.373,18.149l.765,1.324c.444.23.888.452,1.324.689Z" transform="translate(-37.35 -0.903)"/><path class="f" d="M111.77,250.947l.811.092c.643-4.455,1.416-8.88,2.3-13.227l-.811-.092Q112.746,244.219,111.77,250.947Z" transform="translate(-26.213 -55.751)"/><path class="f" d="M119,251.63l.834.054c1.171-4.493,2.465-8.925,3.827-13.235l-.842-.038C121.45,242.689,120.164,247.136,119,251.63Z" transform="translate(-27.908 -55.913)"/><path class="f" d="M183.806,27.176c-.62-1.141-1.225-2.258-1.822-3.376-3.169-5.887-6.185-11.482-10.778-16.312-.589-.214-1.179-.429-1.776-.628,5.182,4.976,8.382,10.916,11.827,17.315.6,1.141,1.217,2.3,1.829,3.391.184.321.367.651.544.98.5.321.987.643,1.47.972Z" transform="translate(-39.735 -1.609)"/><path class="f" d="M101.47,249.063l.819.168c0-4.593.191-9.1.452-13.61l-.765-.191C101.669,239.939,101.508,244.5,101.47,249.063Z" transform="translate(-23.797 -55.214)"/><path class="f" d="M147.331,1.46,145.8,1.23c6.009,4.822,9.79,10.525,13.687,16.955l1.209.429C156.815,12.2,153.11,6.412,147.331,1.46Z" transform="translate(-34.194 -0.288)"/><path class="f" d="M97.97,248.215l.819.2c-.138-4.593-.145-9.247-.046-13.832l-.773-.222C97.84,238.953,97.84,243.584,97.97,248.215Z" transform="translate(-22.953 -54.963)"/><path class="f" d="M143.215.937,141.73.73C147.6,5.422,151.268,10.8,155.126,17l1.179.344C152.477,11.156,148.864,5.69,143.215.937Z" transform="translate(-33.239 -0.171)"/><path class="f" d="M1.69,138.135c.077.5.161.987.245,1.485,4.593-10.441,8.933-21,13.013-31.568q.39-2.358.919-4.662C11.442,115.025,6.727,126.645,1.69,138.135Z" transform="translate(-0.396 -24.247)"/><path class="f" d="M33.293,53.413a69.146,69.146,0,0,0,.528-13.733c-.268.268-.521.551-.765.827a68.127,68.127,0,0,1-.566,12.8A109.317,109.317,0,0,1,28.8,70.031q.873-1.784,1.837-3.552a105.4,105.4,0,0,0,2.656-13.067Z" transform="translate(-6.754 -9.306)"/><path class="f" d="M151.6,2.189c-.543-.107-1.079-.207-1.623-.3,6.139,5.022,9.966,10.992,13.947,17.728l1.24.5C161.225,13.456,157.512,7.333,151.6,2.189Z" transform="translate(-35.174 -0.443)"/><path class="f" d="M104.9,249.8l.811.138q.337-6.759,1-13.434l-.811-.161C105.466,240.787,105.122,245.265,104.9,249.8Z" transform="translate(-24.602 -55.427)"/><path class="f" d="M90.541,246.087l.842.253q-.658-7.211-.926-14.391l-.827-.3Q89.913,238.845,90.541,246.087Z" transform="translate(-21.02 -54.328)"/><path class="f" d="M135.578.234,134.2.15c5.42,4.371,8.971,9.346,12.692,15.088l1.133.245C144.327,9.749,140.837,4.682,135.578.234Z" transform="translate(-31.473 -0.035)"/><path class="f" d="M139.334.5,137.91.38c5.649,4.524,9.255,9.66,13.082,15.646l1.156.3C148.359,10.369,144.8,5.118,139.334.5Z" transform="translate(-32.343 -0.089)"/><path class="f" d="M94.332,247.233l.834.222q-.444-7.027-.505-14.085l-.811-.26Q93.911,240.168,94.332,247.233Z" transform="translate(-22.01 -54.67)"/><path class="f" d="M9.29,170.906l.413,1q4.157-8.3,8.573-16.45c-.107-.39-.2-.765-.291-1.179C15.016,159.745,12.13,165.272,9.29,170.906Z" transform="translate(-2.179 -36.182)"/><path class="f" d="M62.191,26.79a25.322,25.322,0,0,0-3.544-6.53l-.7.459a24.733,24.733,0,0,1,3.475,6.346,49.558,49.558,0,0,1,1.784,6.269l.765-.5a49.71,49.71,0,0,0-1.784-6.047Z" transform="translate(-13.591 -4.751)"/><path class="f" d="M8.28,168.11l.39,1.026q4.317-8.52,8.772-16.955c-.092-.413-.184-.827-.268-1.24Q12.659,159.49,8.28,168.11Z" transform="translate(-1.942 -35.399)"/><path class="f" d="M58.072,26.225h0l-.383.138.383-.138A23.668,23.668,0,0,0,56.044,22l-.674.467a23.087,23.087,0,0,1,1.937,4.042,48.8,48.8,0,0,1,2.373,9.408l.765-.566a49.2,49.2,0,0,0-2.373-9.124Z" transform="translate(-12.986 -5.16)"/><path class="f" d="M102.186,13.971c-1.852-2.067-3.682-4.111-5.4-6.124-.98-1.133-1.937-2.235-2.893-3.307L93,4.777c1.049,1.156,2.1,2.358,3.161,3.6,1.753,2.044,3.59,4.1,5.443,6.17l1.416,1.585.926-.176Z" transform="translate(-21.811 -1.065)"/><path class="f" d="M36.131,191.249c-.765,5.879-1.4,11.964-1.791,18.172l.765.827c.375-6.43.987-12.738,1.822-18.823-.237-.329-.467-.658-.689-1Z" transform="translate(-8.054 -44.66)"/><path class="f" d="M65.275,16.28l-.765.413A36.9,36.9,0,0,1,72.7,27.479l.72-.383A37.723,37.723,0,0,0,65.275,16.28Z" transform="translate(-15.129 -3.818)"/><path class="f" d="M12,177.083c.153.329.3.658.459.987q3.6-8.42,7.777-16.6c-.122-.367-.237-.765-.344-1.087Q15.674,168.594,12,177.083Z" transform="translate(-2.814 -37.613)"/><path class="f" d="M70.275,28.23a31.538,31.538,0,0,0-7.058-10.77l-.727.429a30.887,30.887,0,0,1,7.019,10.625l.23.658.72-.429Z" transform="translate(-14.655 -4.095)"/><path class="f" d="M66.245,27.465A28.4,28.4,0,0,0,60.987,18.8l-.7.436a27.687,27.687,0,0,1,5.19,8.5c.413,1.118.765,2.243,1.095,3.368l.72-.452C66.957,29.593,66.636,28.529,66.245,27.465Z" transform="translate(-14.139 -4.409)"/><path class="f" d="M10.28,173.354c.138.314.276.635.421.949q1.768-3.605,3.613-7.165-1.776,3.72-3.483,7.486l.452,1q3.781-8.42,8.03-16.641c-.191-.628-.367-1.271-.543-1.906Q14.368,165.117,10.28,173.354Z" transform="translate(-2.411 -36.839)"/><path class="f" d="M38.837,35.59l-.765.72A69.158,69.158,0,0,1,36.9,58.4c.367-.536.765-1.064,1.125-1.592A67.591,67.591,0,0,0,38.837,35.59Z" transform="translate(-8.654 -8.347)"/><path class="f" d="M2.78,146.551c.092.444.191.888.291,1.332q5.756-12.531,11.061-25.261c0-.819.077-1.63.13-2.442Q8.751,133.453,2.78,146.551Z" transform="translate(-0.652 -28.185)"/><path class="f" d="M13,179.169l.49.987c2.235-5.7,4.708-11.306,7.448-16.764-.122-.367-.245-.765-.36-1.1C17.815,167.786,15.3,173.428,13,179.169Z" transform="translate(-3.049 -38.061)"/><path class="f" d="M68.328,16.076c-.329-.314-.666-.62-1-.926l-.765.406c.406.367.811.765,1.2,1.11a43.793,43.793,0,0,1,7.655,9.362l.765-.36a44.65,44.65,0,0,0-7.854-9.591Z" transform="translate(-15.61 -3.553)"/><path class="f" d="M3.91,152.541c.1.406.207.811.314,1.217q5.221-10.939,10.166-22.023c0-.62-.046-1.248-.054-1.875Q9.261,141.273,3.91,152.541Z" transform="translate(-0.917 -30.455)"/><path class="f" d="M43.024,32.09l-.7.628a58.107,58.107,0,0,1,.429,18.854l.957-1.125A57.556,57.556,0,0,0,43.024,32.09Z" transform="translate(-9.925 -7.526)"/><path class="f" d="M46.449,29.16l-.689.589a56.484,56.484,0,0,1,1.531,16.9c.283-.306.574-.6.857-.9a56.37,56.37,0,0,0-1.7-16.6Z" transform="translate(-10.732 -6.839)"/><path class="f" d="M5,157.387l.344,1.148q4.884-9.951,9.614-20.032c-.054-.536-.1-1.079-.145-1.623Q10.022,147.168,5,157.387Z" transform="translate(-1.173 -32.102)"/><path class="f" d="M49.911,26.42l-.681.521a52.259,52.259,0,0,1,2.488,15.5l.8-.765a52.5,52.5,0,0,0-2.61-15.256Z" transform="translate(-11.546 -6.196)"/><path class="f" d="M6.16,161.489c.115.367.237.765.36,1.1q4.646-9.323,9.247-18.67c-.069-.475-.138-.957-.2-1.431Q10.9,152,6.16,161.489Z" transform="translate(-1.445 -33.417)"/><path class="f" d="M53.877,25.794a14.055,14.055,0,0,0-.765-1.784l-.681.49c.237.513.452,1.033.643,1.569a49.954,49.954,0,0,1,2.7,12.829l.765-.635a50.682,50.682,0,0,0-2.664-12.47Z" transform="translate(-12.296 -5.631)"/><path class="f" d="M7.23,165.007c.13.352.253.712.375,1.064q4.478-8.849,8.994-17.682c-.084-.436-.168-.873-.245-1.309Q11.785,156.036,7.23,165.007Z" transform="translate(-1.696 -34.494)"/><path class="f" d="M27.022,191.843c-.444,2.465-.834,4.937-1.2,7.417l.689.9c.4-2.725.827-5.45,1.309-8.168.658-3.552,1.378-7.157,2.22-10.717l-.582-1.072C28.507,184.073,27.726,188,27.022,191.843Z" transform="translate(-6.055 -42.261)"/><path class="f" d="M90.481,12.332c-1.669-1.73-3.315-3.445-4.9-5.152h0l-.842.3.276.291.3-.276-.3.276c1.607,1.73,3.269,3.452,4.937,5.2s3.368,3.506,5.037,5.289l.88-.237C94.071,16.067,92.265,14.184,90.481,12.332Z" transform="translate(-19.874 -1.684)"/><path class="f" d="M24.212,192.23c-.253,1.294-.482,2.587-.712,3.889.214.306.436.6.658.911.268-1.531.551-3.1.857-4.646.919-4.669,1.952-9.438,3.246-14.161-.184-.352-.36-.712-.536-1.072C26.309,182.179,25.192,187.27,24.212,192.23Z" transform="translate(-5.511 -41.546)"/><path class="f" d="M86.554,11.737c-1.225-1.232-2.419-2.457-3.6-3.667-.283.1-.551.207-.827.314q1.906,1.96,3.873,3.95c2.159,2.182,4.333,4.386,6.445,6.652l.873-.253C91.109,16.337,88.813,14.018,86.554,11.737Z" transform="translate(-19.261 -1.893)"/><path class="f" d="M94.46,12.948c-1.669-1.776-3.314-3.536-4.9-5.289l-.582-.643-.72-.765-.85.283L88.4,7.59l.559.62c1.6,1.776,3.261,3.544,4.93,5.358q1.837,1.952,3.659,3.935l.9-.222C97.124,15.811,95.792,14.372,94.46,12.948Z" transform="translate(-20.5 -1.466)"/><path class="f" d="M29.9,191.5c-.589,3.552-1.125,7.2-1.592,10.923l.7.873c.49-3.973,1.064-7.869,1.692-11.658.4-2.388.834-4.823,1.317-7.257l-.628-1.049C30.836,186.086,30.369,188.826,29.9,191.5Z" transform="translate(-6.639 -42.995)"/><path class="f" d="M32.967,191.328c-.72,4.715-1.332,9.576-1.807,14.544l.765.842c.482-5.221,1.118-10.326,1.875-15.256.184-1.194.367-2.388.574-3.59l-.658-1.018C33.433,188.35,33.2,189.851,32.967,191.328Z" transform="translate(-7.308 -43.821)"/><path class="f" d="M98.241,13.349c-1.875-2.044-3.72-4.049-5.473-6.032-.582-.666-1.164-1.324-1.745-1.967l-.873.26c.666.765,1.332,1.477,2.006,2.243,1.768,2.013,3.628,4.034,5.511,6.078l2.6,2.832.919-.2C100.208,15.485,99.221,14.406,98.241,13.349Z" transform="translate(-21.142 -1.255)"/><path class="f" d="M82.638,11.171c-.765-.72-1.462-1.431-2.182-2.151l-.827.337c.811.811,1.638,1.615,2.465,2.427,2.656,2.61,5.358,5.259,7.9,8.022l.85-.276C88.2,16.659,85.394,13.881,82.638,11.171Z" transform="translate(-18.675 -2.115)"/><path class="f" d="M21.55,192.745a2.228,2.228,0,0,1-.1.49l.643.949.253-1.263c1.24-5.772,2.649-11.589,4.447-17.254l-.505-1.087a185.894,185.894,0,0,0-4.738,18.165Z" transform="translate(-5.031 -40.943)"/><path class="f" d="M76.181,17.49c-1.531-1.531-3.108-3.016-4.715-4.47l-.765.4c1.676,1.531,3.337,3.062,4.93,4.654a58.943,58.943,0,0,1,4.861,5.542l.765-.337a59.141,59.141,0,0,0-5.075-5.787Z" transform="translate(-16.581 -3.054)"/><path class="f" d="M15.32,183.437c.176.329.36.658.543.98A164.975,164.975,0,0,1,22.538,167.1c-.13-.36-.268-.712-.406-1.072a165.339,165.339,0,0,0-6.813,17.407Z" transform="translate(-3.593 -38.938)"/><path class="f" d="M84.1,19.137C81.461,16.3,78.6,13.618,75.765,11L75,11.367c2.893,2.679,5.825,5.42,8.535,8.321.589.628,1.156,1.263,1.715,1.906l.811-.306C85.4,20.561,84.76,19.841,84.1,19.137Z" transform="translate(-17.589 -2.58)"/><path class="f" d="M18,187.944l.589.98a158.5,158.5,0,0,1,5.795-17.9c-.153-.36-.3-.72-.444-1.079a154.33,154.33,0,0,0-5.94,18Z" transform="translate(-4.221 -39.855)"/><path class="f" d="M14.14,181.291c.176.329.352.658.521.987a177.173,177.173,0,0,1,7.081-17.024c-.13-.36-.26-.765-.383-1.095a175.9,175.9,0,0,0-7.218,17.131Z" transform="translate(-3.316 -38.5)"/><path class="f" d="M71.88,16.346c-.8-.765-1.63-1.531-2.465-2.3l-.765.406c.9.811,1.791,1.63,2.656,2.48a52.733,52.733,0,0,1,6.729,7.793l.765-.344a53.039,53.039,0,0,0-6.92-8.037Z" transform="translate(-16.1 -3.295)"/><path class="f" d="M87.706,19.584c-2.855-3.108-5.963-6.078-8.994-8.971L78.069,10l-.819.352.926.888c3.016,2.878,6.124,5.8,8.933,8.91.161.168.314.352.475.528l.834-.3Z" transform="translate(-18.117 -2.345)"/><path class="f" d="M19.64,190.514c.2.329.406.651.612.972a173.39,173.39,0,0,1,5.259-18.249c-.161-.36-.322-.727-.475-1.087a166.622,166.622,0,0,0-5.4,18.364Z" transform="translate(-4.606 -40.373)"/><path class="b" d="M177.408,140.6c.161-.306.314-.62.467-.934.551-1.1,1.079-2.228,1.577-3.36.161-.367.329-.765.482-1.1q1.439-3.353,2.564-6.843c.566-1.738,1.087-3.491,1.531-5.266a83.66,83.66,0,0,0,2.113-11.658c.115-1.033.214-2.074.291-3.115.145-2.059.23-4.134.23-6.231v-.98c0-1.194-.046-2.388-.107-3.575a86.391,86.391,0,0,0-.9-8.627q-.413-2.641-.987-5.213A84.2,84.2,0,0,0,170.71,52.64q-1.317-1.822-2.733-3.575c-1.278-1.592-2.618-3.131-4-4.593-.666-.712-1.34-1.416-2.029-2.105-1.079-1.087-2.189-2.136-3.33-3.161-.574-.513-1.156-1.018-1.738-1.531-.987-.842-1.983-1.653-3.008-2.442-.521-.406-1.041-.765-1.577-1.194q-1.393-1.033-2.825-2.006c-.482-.329-.972-.651-1.47-.972-.865-.559-1.738-1.1-2.626-1.63-.459-.276-.919-.551-1.386-.811-.834-.482-1.684-.942-2.534-1.386-.436-.237-.88-.459-1.324-.689-.765-.4-1.607-.765-2.419-1.171l-1.278-.6c-.765-.344-1.531-.674-2.335-1l-1.24-.5c-.765-.3-1.531-.574-2.3-.85l-1.209-.429c-.765-.245-1.47-.49-2.2-.72l-1.156-.337q-1.041-.306-2.113-.6l-1.125-.306-2.067-.49-1.133-.245c-.658-.138-1.324-.268-1.99-.39l-1.1-.2-1.937-.306-1.079-.153c-1.577-.207-3.169-.383-4.777-.505l-1.033-.069-1.753-.092-1.026-.038c-.574,0-1.148,0-1.722-.038H99.475l-1.592.061-.972.061-1.531.1-.972.084-1.447.145L92,18.079l-1.37.176-.949.13-1.263.2c-.314.054-.635.1-.942.161l-1.232.222-.926.176-1.148.245-.919.2-1.179.283-.9.222-1.079.283-.88.237-1.049.337-.873.26-1.018.321-.85.276-1.018.344-.834.329-1.026.375-.811.306-1.033.375-.765.321-1.125.475-.765.337-1.209.543-.765.344-1.378.666-.765.36c-.513.26-1.033.528-1.531.8l-.72.383q-.926.482-1.768.987l-.72.429q-.972.574-1.929,1.171l-.72.452c-.7.452-1.4.911-2.09,1.386l-.765.5c-.765.528-1.493,1.056-2.228,1.607l-.765.566c-.8.612-1.592,1.232-2.373,1.875l-.765.635c-.857.727-1.715,1.47-2.541,2.228l-.8.765c-.934.873-1.837,1.761-2.733,2.672-.283.3-.574.589-.857.9q-1.431,1.531-2.8,3.108l-.957,1.125c-1.186,1.431-2.3,2.909-3.414,4.417-.383.528-.765,1.056-1.125,1.592q-2.365,3.445-4.4,7.119-.9,1.753-1.784,3.536a84.072,84.072,0,0,0-6.522,18.417q-.528,2.3-.919,4.662a82.669,82.669,0,0,0-.98,8.214c-.054.811-.1,1.623-.13,2.442-.054,1.171-.084,2.342-.084,3.521v1.424c0,.628,0,1.255.054,1.875,0,1.179.107,2.342.2,3.5.046.543.092,1.087.145,1.623.084.9.191,1.784.306,2.672.061.475.13.957.2,1.431.107.7.214,1.393.337,2.082.077.436.161.873.245,1.309.1.551.207,1.1.329,1.646.084.413.176.827.268,1.24s.2.857.306,1.278.184.765.291,1.179.176.666.268,1c.176.635.352,1.278.543,1.906l.184.62c.107.36.222.72.344,1.087a1.263,1.263,0,0,0,.122.375c.115.367.237.765.36,1.1.038.107.077.222.122.329.122.367.253.765.383,1.095l.115.337c.138.36.276.712.406,1.072.054.13.1.26.153.383l.421,1.079.191.459c.145.36.291.72.444,1.079l.276.612c.153.36.314.727.475,1.087s.237.5.352.765l.505,1.087c.145.306.3.6.452.9s.352.72.536,1.072.429.819.651,1.225l.582,1.072c.253.459.513.911.765,1.37l.628,1.049c.321.551.658,1.095,1,1.638l.658,1.018q.559.873,1.148,1.722c.222.337.452.666.689,1q.689.987,1.424,1.952c.23.314.475.628.72.942.513.666,1.033,1.332,1.577,1.983l.765.9c.6.712,1.217,1.424,1.837,2.113l.765.842c.689.765,1.386,1.477,2.105,2.2l.765.765c.765.72,1.531,1.439,2.3,2.128l.834.765q1.232,1.095,2.511,2.136l.85.689q1.3,1.033,2.641,2.013l.857.628c.834.6,1.684,1.179,2.541,1.745l.873.574c.85.551,1.715,1.079,2.587,1.592.283.176.574.344.865.513q3.085,1.745,6.338,3.276l.85.4c.827.375,1.669.765,2.511,1.1l.834.337c.811.329,1.63.651,2.45.957l.827.3c.765.283,1.592.559,2.4.819l.811.26c.765.245,1.531.475,2.3.7l.811.222q1.164.306,2.342.6l.765.191c.765.184,1.569.352,2.358.505l.811.161c.765.145,1.592.291,2.4.413l.811.13c.827.13,1.661.237,2.5.337l.811.092c.873.1,1.745.184,2.626.253l.827.054c.926.069,1.86.115,2.794.145l.842.038h4.134c1.1,0,2.2-.077,3.292-.138l.9-.061c1.225-.084,2.442-.2,3.659-.337l.957-.107q2.105-.26,4.172-.635l1.041-.191q2.48-.475,4.9-1.079l1.164-.306c1.983-.528,3.942-1.133,5.864-1.8.436-.153.88-.306,1.309-.467q3.827-1.408,7.525-3.177c.582-.276,1.148-.566,1.722-.85a84.968,84.968,0,0,0,24.924-19.29c.36-.4.712-.765,1.056-1.2,1.186-1.393,2.335-2.817,3.429-4.279l.72-.987q1.209-1.669,2.335-3.383c.207-.314.413-.628.612-.942.628-1,1.24-2,1.837-3.024l.513-.911C176.39,142.537,176.91,141.581,177.408,140.6Z" transform="translate(-4.104 -4.109)"/><circle class="d" cx="74.955" cy="74.955" r="74.955" transform="translate(22.604 23.447)"/><path class="b" d="M117.339,148.525a30.711,30.711,0,0,1-9.186-2.151,25.636,25.636,0,0,1-7.433-4.8,22.8,22.8,0,0,1-4.991-6.751,19.7,19.7,0,0,1-1.96-8.313h12.041a11.765,11.765,0,0,0,3.322,8.022,13.258,13.258,0,0,0,8.221,3.621V118.778l-4.593-.689q-7.923-1.079-12.623-5.971a16.845,16.845,0,0,1-4.593-12.431,15.823,15.823,0,0,1,1.73-7.341,20.109,20.109,0,0,1,4.792-6.124,24.648,24.648,0,0,1,6.951-4.4,28.407,28.407,0,0,1,8.321-2.059V70.63h7.142v9.293a27.274,27.274,0,0,1,8.122,2.35,22.245,22.245,0,0,1,6.461,4.31,19.672,19.672,0,0,1,4.3,6.063A18.677,18.677,0,0,1,145.233,100H133.192a9.239,9.239,0,0,0-2.641-6.07,12,12,0,0,0-6.07-3.613v17.9l3.33.49a28.613,28.613,0,0,1,7.042,2.059,19.535,19.535,0,0,1,5.772,3.827,15.769,15.769,0,0,1,3.919,5.672A17.651,17.651,0,0,1,146,127.558a19.137,19.137,0,0,1-6.124,14.314,24.235,24.235,0,0,1-6.889,4.409,29.732,29.732,0,0,1-8.512,2.151v10.074h-7.142v-9.951Zm7.142-10.472a12.745,12.745,0,0,0,7.142-3.33,9.186,9.186,0,0,0,2.549-6.652,6.3,6.3,0,0,0-2.45-5.481,13.128,13.128,0,0,0-5.58-2.45l-1.661-.291ZM117.339,90a13.847,13.847,0,0,0-7.042,3.062,7.838,7.838,0,0,0-2.84,6.361,6.8,6.8,0,0,0,1.86,5.19,10.081,10.081,0,0,0,5.09,2.151l2.939.49V90Z" transform="translate(-21.991 -16.564)"/></g></g></svg>