<svg version="1.1" id="Layer_1" xmlns="http://www.w3.org/2000/svg" x="0px" y="0px" width="228px" height="228px" viewBox="0 0 228 228">
<g>
	<path fill-rule="evenodd" clip-rule="evenodd" fill="#E41C24" d="M126.777,23.876c-0.011,0.449-0.03,0.897-0.03,1.346
		c-0.002,56.554-0.002,113.108-0.002,169.662c0,0.444,0,0.89,0,1.406c-8.387,0-16.706,0-25.155,0c0-0.436,0-0.873,0-1.31
		c0-56.586,0-113.172-0.001-169.759c0-0.449-0.019-0.897-0.029-1.346C109.966,23.876,118.372,23.876,126.777,23.876z"/>
	<path fill-rule="evenodd" clip-rule="evenodd" fill="#E41C24" d="M145.258,23.876c-0.057,1.376-0.151,2.752-0.165,4.129
		c-0.112,11.425,0.25,22.837,1.141,34.228c1.092,13.981,2.836,27.867,6.333,41.481c1.918,7.465,4.133,14.872,8.14,21.498
		c8.893,14.709,20.161,27.162,35.282,35.756c7.818,4.444,16.202,7.329,25.061,8.849c0.314,0.054,0.624,0.136,0.982,0.215
		c0,8.748,0,17.491,0,26.403c-2.144-0.323-4.236-0.562-6.298-0.961c-17.377-3.36-32.578-11.313-46.398-22.124
		c-6.674-5.222-12.671-11.136-17.736-17.951c-5.467-7.356-9.215-15.589-12.115-24.227c-2.478-7.381-3.882-15.001-4.82-22.713
		c-1.854-15.245-2.296-30.569-2.511-45.901c-0.175-12.478-0.21-24.958-0.31-37.437c-0.004-0.415-0.04-0.83-0.061-1.245
		C136.274,23.876,140.766,23.876,145.258,23.876z"/>
	<path fill-rule="evenodd" clip-rule="evenodd" fill="#E41C24" d="M96.555,23.876c-0.021,0.319-0.059,0.637-0.061,0.956
		c-0.111,13.409-0.053,26.822-0.376,40.226c-0.279,11.572-0.813,23.145-1.567,34.695c-0.655,10.02-2.118,19.956-5.124,29.586
		c-2.899,9.29-6.82,18.106-12.638,25.979c-5.552,7.514-12.255,13.889-19.681,19.516c-11.214,8.496-23.45,15.016-37.016,18.92
		c-4.259,1.226-8.595,2.064-13,2.544c-0.245,0.026-0.496,0.003-0.789,0.003c0-8.747,0-17.462,0-26.229
		c2.083-0.444,4.181-0.843,6.255-1.341c13.89-3.329,25.891-10.125,36.209-19.927c7.694-7.309,14.375-15.458,19.515-24.765
		c3.9-7.061,6.153-14.761,8.044-22.561c2.208-9.108,3.637-18.35,4.675-27.659c1.73-15.513,2.379-31.077,2.229-46.68
		c-0.01-1.088-0.099-2.176-0.151-3.264C87.572,23.876,92.063,23.876,96.555,23.876z"/>
</g>
</svg>
