<?xml version="1.0" encoding="utf-8"?>
<!-- Generator: Adobe Illustrator 26.0.1, SVG Export Plug-In . SVG Version: 6.00 Build 0)  -->
<svg version="1.1" id="Layer_1" xmlns="http://www.w3.org/2000/svg" xmlns:xlink="http://www.w3.org/1999/xlink" x="0px" y="0px"
	 viewBox="0 0 1296 1296" style="enable-background:new 0 0 1296 1296;" xml:space="preserve">
<g>
	<linearGradient id="SVGID_1_" gradientUnits="userSpaceOnUse" x1="58.7428" y1="1162.0646" x2="1086.3689" y2="484.8901">
		<stop  offset="0" style="stop-color:#7754AB"/>
		<stop  offset="1" style="stop-color:#FE6C77"/>
	</linearGradient>
	<path style="fill:url(#SVGID_1_);" d="M1295.9,984c-1.3-41.3-12.1-80.2-30.3-114.6c-0.1-0.2-0.2-0.3-0.3-0.5l-4.3-7.7
		c0-0.1-0.1-0.1-0.1-0.2c0-0.1-0.1-0.2-0.1-0.2c0-0.1-0.1-0.1-0.1-0.2l-10.6-19.2l-3.3-6l-16.1-29.1l-8.4-15.1v0l-24.5-44.2
		l-16.1-29.1l-14-25.2c0,0,0,0,0,0l-8.2-14.9c0,0,0,0,0-0.1c0,0-0.1-0.1-0.1-0.1c-2.4-4-4.9-7.9-7.5-11.8
		c-6.9-10.2-14.4-19.9-22.6-29.1c-14.7-16.4-31.4-31.1-49.8-43.4c0,0,0,0,0,0c-8.6-5.8-17.6-11.1-26.9-15.9
		c-19.4-10-40.3-17.6-62.1-22.5c-11.8-2.7-23.9-4.6-36.3-5.6h0c-7.4-0.6-14.8-0.9-22.3-0.9h-437l-6.8,12.2v0l-9.3,16.9L446,636.8
		l-16.1,29.1h185.9l-18.1,32.7L587,717.9H401L384.9,747l-4.8,8.7L366,781.2l-13.9,25.1L337.3,833c1.7,0.8,3.3,1.5,4.9,2.3H522
		L500.6,874L483,905.8v0l-42,75.9l-44.8,80.8c-1.2,2.3-2.5,4.6-3.8,6.9c-25.7,43.6-73.2,72.8-127.6,72.7c-20.9,0-40.7-4.3-58.7-12.2
		c-9-3.9-17.5-8.6-25.4-14.1c-38.7-26.7-64-71.2-63.9-121.7c0.1-25.3,6.5-49.2,17.9-70.1c0.3-0.5,0.5-0.9,0.8-1.4l46.9-84.8
		c0,0,0,0,0,0l1.3-2.4l16.1-29.1l24.7-44.7l8.1-14.6l9.3-16.7l6.8-12.4l28.8-52.1l16.1-29.1l32.8-59.3l16.1-29L412,423.2l0.2-0.3
		l16.4-29.7l0.9-1.6l33-59.6l9.8-17.6c0,0,0,0,0,0l6.8-12.3v0l38.9-70.2c0,0,0-0.1,0.1-0.1c0.4-0.8,0.9-1.7,1.4-2.5
		c0.2-0.3,0.4-0.7,0.6-1c25.5-44.4,73.5-74.2,128.4-74.1c20.7,0.1,40.3,4.3,58.2,12v0c9,3.8,17.5,8.6,25.4,14.1
		c19.2,13.2,35.1,30.9,46.3,51.4l39,70.4v0l7.3,13.2l9.3,16.7l32.2,58.2l1.7,3l15.8,28.5l0.8,1.4l39.2,70.8l15.6,28.2
		c11.8,0.3,23.4,1.3,34.8,2.9c27.9,4,54.5,12,79.2,23.4h1.5l0.5,0.9h0c16.8,7.9,32.8,17.3,47.7,28.1h1.1l-16.1-29l-11-19.9
		L951.4,302.1l-16.6-30L900.9,211l-16.6-30l-0.1,0.2c-1.1-2.3-2.3-4.5-3.5-6.7c-0.5-0.9-1-1.9-1.5-2.8c-20.2-36-48.7-66.7-82.9-89.7
		c-2.4-1.6-4.8-3.2-7.3-4.7c-8.2-5.1-16.7-9.8-25.4-14v0c-17.7-8.5-36.6-15.2-56.3-19.6c-11.8-2.7-23.9-4.5-36.3-5.6
		c-7.7-0.6-15.4-1-23.2-0.9c-7.6,0-15.1,0.3-22.5,1c-12.4,1.1-24.5,3-36.4,5.7c-32.4,7.4-62.5,20.7-89.1,38.7c0,0,0,0,0,0
		c-36.9,24.9-67.2,58.8-87.7,98.7L412,181l-16.6,30l-33.9,61.2L345,302.1v0L208.6,548.4l-16.1,29l-32.8,59.3l-16.1,29.1l-28.8,52.1
		L98.6,747l-32.8,59.3l-16.1,29.1l-16.1,29.2c-0.6,1-1.1,2-1.7,3C12.8,902.5,1.4,942.4,0.1,984.7C0,987.8,0,991,0,994.1
		c0.1,30.3,5.3,59.5,14.8,86.6c4.1,11.7,8.9,23,14.5,33.8c21.8,42.5,54.7,78.3,94.8,103.6c8.2,5.2,16.6,9.9,25.4,14.1
		c34.9,17,74,26.5,115.4,26.7c7.8,0,15.5-0.3,23.1-0.9c12.4-1,24.4-2.9,36.2-5.5c32.3-7.2,62.3-20.3,88.9-38.2h0
		c33.1-22.2,60.9-51.8,81.1-86.4c0.1-0.2,0.2-0.4,0.3-0.6c0.1-0.1,0.1-0.2,0.2-0.3l4.7-8.4c0-0.1,0.1-0.1,0.1-0.2L623.1,895
		l20.9-37.8l4.2-7.5L757,1046l28.2,51c0.7,0.4,1.4,0.8,2.1,1.1c3.2,7.6,6.8,14.9,10.7,22.1c0.6,1.1,1.2,2.2,1.9,3.3
		c20.2,35.8,48.6,66.5,82.7,89.4c26.6,17.9,56.7,31.1,89,38.4c11.8,2.7,23.9,4.6,36.3,5.6h0c7.7,0.7,15.4,1,23.3,1
		c102.8-0.1,191.7-58.6,235.6-144.1c5.6-10.8,10.4-22.1,14.5-33.8v0c9.5-27.2,14.6-56.4,14.7-86.8C1296,990.1,1296,987,1295.9,984z
		 M1031.2,1141.2c-56.2,0.1-105.1-31.1-130.1-77.2l-10.2-18.5h0v0l-35.8-64.5l-6.6-12v0l-35.5-64.2l-17.4-31.4l-21.1-38.1
		l-51.3-92.6c-4.9-8.8-4.9-19.6,0-28.4l16.8-30.4c6.2-11.1,17.9-18,30.6-18h168.8c48.9,0,94,26.6,117.7,69.4l6.5,11.7l4,7.2
		c0,0,0,0,0,0l3.7,6.6l25.2,45.5l11.5,20.8v0l4.6,8.2l0.8,1.4l36.7,66.2l11,19.9c11.4,20.9,18,44.9,18.1,70.3
		C1179.7,1074.9,1112.9,1141,1031.2,1141.2z"/>
</g>
</svg>
