<?xml version="1.0" encoding="utf-8"?>
<!-- Generator: Adobe Illustrator 16.0.2, SVG Export Plug-In . SVG Version: 6.00 Build 0)  -->
<!DOCTYPE svg PUBLIC "-//W3C//DTD SVG 1.1//EN" "http://www.w3.org/Graphics/SVG/1.1/DTD/svg11.dtd">
<svg version="1.1" id="Layer_1" xmlns="http://www.w3.org/2000/svg" xmlns:xlink="http://www.w3.org/1999/xlink" x="0px" y="0px"
	 width="629.29px" height="629.29px" viewBox="0 0 629.29 629.29" enable-background="new 0 0 629.29 629.29" xml:space="preserve">
<g>
	<path fill="#6B68F2" d="M492.286,336.748c-1.979-6.042-5.097-11.728-7.306-17.659c-6.621-17.782-15.621-34.383-25.21-50.568
		c-7.886-13.308-16.633-26.158-25.963-38.621c-9.41-12.566-20.249-23.756-30.635-35.399c-1.212-1.359-1.861-1.557-2.672,0.782
		c1.265,5.511,0.77,5.866,0.8,8.841c0.157,15.646-1.232,31.165-3.729,46.568c-2.696,16.644-6.911,32.949-12.207,48.965
		c-0.137,0.188-0.16,0.391-0.074,0.606c-0.244,0.513-0.55,1.007-0.73,1.541c-7.728,22.63-17.484,44.38-28.417,65.617
		c-0.432,0.842-0.521,2.306-1.941,2.089c-1.058-0.158-1.739-1.063-2.24-2.032c-0.909-1.747-1.757-3.536-2.79-5.21
		c-5.436-8.804-10.63-17.747-15.35-26.953c-3.21-6.259-5.557-12.489-0.882-19.352c1.392-2.042,2.073-4.814,3.098-7.246
		c11.186-26.507,18.315-54.067,21.188-82.684c1.41-14.064,0.734-28.088-1.922-42.014c-2.011-10.541-6.641-19.891-13.578-27.835
		c-8.706-9.968-20.461-11.815-33.025-10.663c-10.033,0.921-17.871,6.131-23.596,13.725c-8.196,10.873-11.884,23.709-13.024,37.258
		c-2.025,24.068,1.033,47.676,7.225,70.834c8.122,30.375,20.154,59.261,35.881,86.485c15.144,26.214,32.46,50.906,53.546,72.794
		c3.109,3.227,5.919,6.96,9.246,9.735c7.461,6.223,14.375,13.091,22.284,18.81c16.51,11.937,33.646,22.39,53.926,26.848
		c19.787,4.354,40.404-2.909,47.977-26.328c4.955-15.321,6.271-30.938,5.23-46.882C505.779,384.063,499.962,360.197,492.286,336.748
		z"/>
	<path fill="#6B68F2" d="M629.284,3.281c0.002-2.505-0.382-3.282-3.142-3.281C418.521,0.081,210.902,0.079,3.282,0.016
		C0.775,0.016-0.002,0.398,0,3.158C0.081,210.779,0.078,418.4,0.016,626.021c-0.001,2.506,0.381,3.284,3.142,3.282
		c103.81-0.09,207.62-0.076,311.433-0.076c103.808,0,207.619-0.008,311.429,0.059c2.508,0.002,3.284-0.384,3.282-3.142
		C629.219,418.522,629.223,210.903,629.284,3.281z M550.32,427.6c-0.836,13.497-2.31,26.976-6.848,39.791
		c-5.638,15.919-13.544,30.677-26.891,41.514c-10.271,8.339-22.006,14.246-35.271,16.371c-10.045,1.609-20.261,2.278-30.276,0.618
		c-6.234-1.035-12.49-2.52-18.634-4.53c-16.836-5.514-32.181-13.83-46.751-23.636c-13.776-9.267-26.299-20.139-38.458-31.43
		c-9.121-8.474-17.88-17.402-25.774-26.907c-12.669-15.255-24.813-30.989-34.379-48.586c-5.538-10.187-11.736-20.035-17.258-30.264
		c-3.652-6.767-6.729-13.797-9.975-20.756c-8.52-18.262-15.195-37.192-20.782-56.516c-2.015-6.975-3.892-14.009-5.643-21.037
		c-1.748-7.023-2.066-14.395-3.144-21.592c-2.371-15.812-2.562-31.661-1.174-47.561c0.016-0.184-0.189-0.389-0.635-1.251
		c-8.749,9.69-17.74,18.799-25.662,28.891c-0.002-0.003-0.046,0.05-0.046,0.05c-5.271,5.127-9.105,11.409-13.684,17.092
		c-5.93,7.359-10.382,15.719-15.476,23.632c-8.201,12.747-15.268,26.165-21.645,39.91c-6.786,14.626-13.243,29.419-17.933,44.875
		c-8.085,26.633-13.497,53.771-11.987,81.745c0.742,13.721,2.998,27.375,11.115,39.17c8.934,12.985,21.695,17.526,36.75,15.6
		c21.046-2.696,38.791-13.033,55.697-25.166c11.473-8.234,21.616-17.923,31.782-27.634c3.872-3.702,7.245-7.783,10.6-11.919
		c2.545-3.137,3.584-3.098,5.474,0.356c5.994,10.976,14.251,20.397,21.047,30.822c1.347,2.063,1.063,3.264-0.415,4.812
		c-14.459,15.148-29.965,29.142-47.086,41.203c-11.061,7.789-22.752,14.598-35.125,20.231c-9.642,4.387-19.761,7.691-29.972,9.547
		c-12.879,2.339-26.215,2.747-39.025-1.6c-2.347-0.795-4.791-0.583-6.994-1.374c-9.53-3.421-17.759-8.874-25.404-15.575
		c-16.266-14.26-24.014-32.92-28.307-53.342c-4.943-23.529-4.167-47.182-0.599-70.845c2.001-13.253,5.379-26.175,8.551-39.165
		c3.734-15.305,9.883-29.754,15.505-44.373c6.993-18.186,16.318-35.261,26.303-51.967c13.292-22.234,28.525-43.099,45.654-62.488
		c14.646-16.58,30.104-32.457,47.72-45.957c16.943-12.983,35.237-23.73,55.68-30.291c7.965-2.557,16.16-4.086,24.584-5.079
		c19.093-2.247,36.67,2.559,53.957,9.535c8.287,3.346,16.417,7.091,23.955,11.955c11.412,7.359,22.465,15.169,32.901,23.921
		c11.157,9.354,21.531,19.51,31.058,30.402c7.215,8.251,14.575,16.433,21.103,25.344c6.461,8.821,12.787,17.714,18.907,26.767
		c9.728,14.386,17.864,29.653,25.727,45.11c9.896,19.463,17.761,39.729,24.269,60.517c4.203,13.423,7.159,27.16,9.573,41.052
		C549.863,394.189,551.361,410.804,550.32,427.6z"/>
	<path fill="#FFFFFF" d="M537.404,336.543c-6.508-20.788-14.372-41.054-24.269-60.517c-7.862-15.457-15.999-30.724-25.727-45.11
		c-6.12-9.053-12.446-17.946-18.907-26.767c-6.527-8.911-13.888-17.093-21.103-25.344c-9.526-10.892-19.9-21.048-31.058-30.402
		c-10.437-8.752-21.489-16.562-32.901-23.921c-7.538-4.864-15.668-8.609-23.955-11.955c-17.287-6.977-34.864-11.782-53.957-9.535
		c-8.425,0.993-16.619,2.522-24.584,5.079c-20.443,6.56-38.737,17.308-55.68,30.291c-17.616,13.5-33.075,29.377-47.72,45.957
		c-17.129,19.39-32.362,40.254-45.654,62.488c-9.985,16.706-19.31,33.781-26.303,51.967c-5.622,14.618-11.771,29.068-15.505,44.373
		c-3.172,12.99-6.55,25.912-8.551,39.165c-3.567,23.663-4.344,47.315,0.599,70.845c4.293,20.422,12.041,39.082,28.307,53.342
		c7.645,6.701,15.874,12.154,25.404,15.575c2.204,0.791,4.647,0.579,6.994,1.374c12.81,4.347,26.146,3.938,39.025,1.6
		c10.21-1.855,20.33-5.16,29.972-9.547c12.373-5.634,24.064-12.442,35.125-20.231c17.122-12.062,32.627-26.055,47.086-41.203
		c1.478-1.548,1.762-2.748,0.415-4.812c-6.796-10.425-15.054-19.847-21.047-30.822c-1.889-3.454-2.929-3.493-5.474-0.356
		c-3.354,4.136-6.728,8.217-10.6,11.919c-10.166,9.711-20.309,19.399-31.782,27.634c-16.906,12.133-34.651,22.47-55.697,25.166
		c-15.056,1.927-27.816-2.614-36.75-15.6c-8.117-11.795-10.373-25.449-11.115-39.17c-1.51-27.975,3.902-55.112,11.987-81.745
		c4.69-15.455,11.147-30.248,17.933-44.875c6.377-13.746,13.444-27.164,21.645-39.91c5.093-7.914,9.546-16.273,15.476-23.632
		c4.579-5.684,8.413-11.965,13.684-17.092c0,0,0.044-0.053,0.046-0.05c7.922-10.092,16.914-19.2,25.662-28.891
		c0.446,0.863,0.651,1.067,0.635,1.251c-1.388,15.899-1.197,31.749,1.174,47.561c1.078,7.197,1.396,14.568,3.144,21.592
		c1.751,7.028,3.628,14.062,5.643,21.037c5.587,19.324,12.263,38.254,20.782,56.516c3.246,6.959,6.323,13.989,9.975,20.756
		c5.522,10.229,11.72,20.077,17.258,30.264c9.566,17.597,21.71,33.331,34.379,48.586c7.895,9.505,16.653,18.434,25.774,26.907
		c12.159,11.291,24.682,22.163,38.458,31.43c14.57,9.806,29.915,18.122,46.751,23.636c6.144,2.011,12.399,3.495,18.634,4.53
		c10.016,1.66,20.231,0.991,30.276-0.618c13.266-2.125,25.001-8.032,35.271-16.371c13.347-10.837,21.253-25.595,26.891-41.514
		c4.538-12.815,6.012-26.294,6.848-39.791c1.041-16.796-0.457-33.41-3.343-50.005C544.563,363.703,541.607,349.966,537.404,336.543z
		 M502.164,455.683c-7.572,23.419-28.189,30.682-47.977,26.328c-20.28-4.458-37.416-14.911-53.926-26.848
		c-7.909-5.719-14.823-12.587-22.284-18.81c-3.327-2.775-6.137-6.509-9.246-9.735c-21.086-21.888-38.402-46.58-53.546-72.794
		c-15.727-27.224-27.759-56.11-35.881-86.485c-6.191-23.159-9.25-46.767-7.225-70.834c1.14-13.549,4.828-26.385,13.024-37.258
		c5.725-7.593,13.563-12.804,23.596-13.725c12.564-1.152,24.319,0.695,33.025,10.663c6.938,7.944,11.567,17.294,13.578,27.835
		c2.656,13.926,3.332,27.95,1.922,42.014c-2.872,28.617-10.002,56.176-21.188,82.684c-1.024,2.432-1.706,5.204-3.098,7.246
		c-4.675,6.862-2.328,13.093,0.882,19.352c4.72,9.206,9.914,18.149,15.35,26.953c1.033,1.674,1.881,3.463,2.79,5.21
		c0.501,0.97,1.183,1.874,2.24,2.032c1.42,0.217,1.51-1.247,1.941-2.089c10.933-21.237,20.689-42.987,28.417-65.617
		c0.181-0.534,0.486-1.028,0.73-1.541c-0.086-0.215-0.063-0.418,0.074-0.606c5.296-16.016,9.511-32.322,12.207-48.965
		c2.497-15.403,3.887-30.922,3.729-46.568c-0.03-2.975,0.465-3.33-0.8-8.841c0.811-2.338,1.46-2.141,2.672-0.782
		c10.386,11.643,21.225,22.833,30.635,35.399c9.33,12.462,18.077,25.313,25.963,38.621c9.589,16.185,18.589,32.787,25.21,50.568
		c2.209,5.932,5.327,11.617,7.306,17.659c7.676,23.449,13.493,47.315,15.108,72.053
		C508.435,424.745,507.119,440.361,502.164,455.683z"/>
</g>
</svg>
