<svg xmlns="http://www.w3.org/2000/svg" xmlns:xlink="http://www.w3.org/1999/xlink" width="256" height="256" viewBox="0 0 256 256"><defs><linearGradient id="a" x1="0.843" y1="0.135" x2="0.206" y2="0.886" gradientUnits="objectBoundingBox"><stop offset="0" stop-color="#b6509e"/><stop offset="1" stop-color="#2ebac6"/></linearGradient><clipPath id="c"><rect width="256" height="256"/></clipPath></defs><g id="b" clip-path="url(#c)"><circle cx="128" cy="128" r="128" fill="#fff"/><path d="M128,256a128.976,128.976,0,0,1-25.8-2.6,127.309,127.309,0,0,1-45.77-19.261,128.366,128.366,0,0,1-46.375-56.315A127.357,127.357,0,0,1,2.6,153.8a129.251,129.251,0,0,1,0-51.593,127.31,127.31,0,0,1,19.26-45.77A128.372,128.372,0,0,1,78.177,10.059,127.33,127.33,0,0,1,102.2,2.6a129.244,129.244,0,0,1,51.593,0,127.308,127.308,0,0,1,45.77,19.26,128.367,128.367,0,0,1,46.375,56.316A127.343,127.343,0,0,1,253.4,102.2a129.248,129.248,0,0,1,0,51.593,127.3,127.3,0,0,1-19.26,45.77,128.382,128.382,0,0,1-56.316,46.375A127.4,127.4,0,0,1,153.8,253.4,128.977,128.977,0,0,1,128,256Zm0-242.287a115.145,115.145,0,0,0-23.033,2.322A113.657,113.657,0,0,0,64.1,33.232,114.622,114.622,0,0,0,22.7,83.515a113.7,113.7,0,0,0-6.659,21.452,115.4,115.4,0,0,0,0,46.065,113.66,113.66,0,0,0,17.2,40.866,114.627,114.627,0,0,0,50.282,41.407,113.75,113.75,0,0,0,21.453,6.658,115.381,115.381,0,0,0,46.065,0,113.609,113.609,0,0,0,40.866-17.2A114.622,114.622,0,0,0,233.3,172.485a113.741,113.741,0,0,0,6.659-21.453,115.4,115.4,0,0,0,0-46.065,113.662,113.662,0,0,0-17.2-40.865A114.619,114.619,0,0,0,172.485,22.7a113.74,113.74,0,0,0-21.453-6.659A115.145,115.145,0,0,0,128,13.714Z" fill="url(#a)"/><g transform="translate(30 30)"><g transform="translate(30.625 26.797)"><path d="M38.186,78.222c36.641,0,36.641-.546,42.854-2.39,8.119-2.41-22.923-23.9-42.854-23.9S2.1,57.819,2.1,65.078,18.256,78.222,38.186,78.222Z" transform="translate(0.889 64.566)"/><path d="M123.062,31.8l1.685,1.816-1.473,1.992c-47.786,64.611-75.314,93.865-86.994,89.941-7.114-2.39-14.249-9.577-21.383-20.014-2.508-3.668-4.863-7.531-7-11.375-1.426-2.56-2.633-4.895-3.26-6.21a15.48,15.48,0,0,1-1.4-4.068l-.032-.163c-.112-.576-.15-.758-.234-1.073a65.146,65.146,0,0,1,94.7-73.613l.248.155Q109.722,17.421,123.062,31.8ZM94.612,14.18A59.186,59.186,0,0,0,8.735,81.119c.129.487.187.761.324,1.467l.028.144a9.654,9.654,0,0,0,.937,2.654c.572,1.2,1.721,3.422,3.086,5.872,2.059,3.695,4.321,7.405,6.718,10.912,6.446,9.429,12.839,15.869,18.354,17.722,7.355,2.471,35.046-26.841,78.806-85.829A150.207,150.207,0,0,0,94.612,14.18Z" transform="translate(-0.787 -0.787)"/><path d="M91.26,10.829A59.186,59.186,0,0,0,5.383,77.767c.129.487.187.761.324,1.467l.028.144a9.654,9.654,0,0,0,.937,2.654c.572,1.2,1.721,3.422,3.086,5.872,2.059,3.695,4.321,7.405,6.718,10.912,6.446,9.429,12.839,15.869,18.354,17.722C42.186,119.01,69.876,89.7,113.637,30.71A150.205,150.205,0,0,0,91.26,10.829Z" transform="translate(2.565 2.565)" fill="#ec1c79"/><path d="M71.154,136.274a65.121,65.121,0,1,1,65.121-65.121A65.121,65.121,0,0,1,71.154,136.274Zm0-5.974A59.146,59.146,0,1,0,12.007,71.154,59.146,59.146,0,0,0,71.154,130.3Z" transform="translate(5.916 5.916)"/><path d="M67.8,126.949A59.146,59.146,0,1,0,8.656,67.8,59.146,59.146,0,0,0,67.8,126.949Z" transform="translate(9.267 9.267)" fill="#fff"/><path d="M19.59,53.211,11.761,29.624H18.62L22.7,43.174l4.517-13.617h5.587l4.517,13.617L41.4,29.624h6.725L40.3,53.211H34.646L29.928,39.728,25.244,53.211ZM50.7,53.044V29.624H69.541v5.52H57.128v3.546H68.37V43.81H57.128v3.714h12.58v5.52Zm28.037,0V35.312H71.715V29.624H92.258v5.688H85.232V53.044Zm16.36,0V29.624h6.491V38.39h8.331V29.624h6.491v23.42h-6.491v-8.9h-8.331v8.9Z" transform="translate(13.236 35.974)" fill-rule="evenodd"/><path d="M3.529,30.05a3.346,3.346,0,0,1,2.992-5.985l9.559,4.78a3.346,3.346,0,1,1-2.992,5.985Z" transform="translate(0.352 28.504)"/><path d="M3.1,37.034a3.346,3.346,0,1,1,2.8-6.076l9.559,4.412a3.346,3.346,0,1,1-2.8,6.076Z" transform="translate(-0.318 37.37)"/></g></g></g></svg>