<svg xmlns="http://www.w3.org/2000/svg" xmlns:xlink="http://www.w3.org/1999/xlink" width="256" height="256" viewBox="0 0 256 256"><defs><linearGradient id="a" x1="0.843" y1="0.135" x2="0.206" y2="0.886" gradientUnits="objectBoundingBox"><stop offset="0" stop-color="#b6509e"/><stop offset="1" stop-color="#2ebac6"/></linearGradient><linearGradient id="b" x1="1" y1="0.527" x2="0" y2="0.53" gradientUnits="objectBoundingBox"><stop offset="0" stop-color="#075eb6"/><stop offset="1" stop-color="#0377fc"/></linearGradient><clipPath id="d"><rect width="256" height="256"/></clipPath></defs><g id="c" clip-path="url(#d)"><circle cx="128" cy="128" r="128" fill="#fff"/><path d="M128,256a128.976,128.976,0,0,1-25.8-2.6,127.309,127.309,0,0,1-45.77-19.261,128.366,128.366,0,0,1-46.375-56.315A127.357,127.357,0,0,1,2.6,153.8a129.251,129.251,0,0,1,0-51.593,127.31,127.31,0,0,1,19.26-45.77A128.372,128.372,0,0,1,78.177,10.059,127.33,127.33,0,0,1,102.2,2.6a129.244,129.244,0,0,1,51.593,0,127.308,127.308,0,0,1,45.77,19.26,128.367,128.367,0,0,1,46.375,56.316A127.343,127.343,0,0,1,253.4,102.2a129.248,129.248,0,0,1,0,51.593,127.3,127.3,0,0,1-19.26,45.77,128.382,128.382,0,0,1-56.316,46.375A127.4,127.4,0,0,1,153.8,253.4,128.977,128.977,0,0,1,128,256Zm0-242.287a115.145,115.145,0,0,0-23.033,2.322A113.657,113.657,0,0,0,64.1,33.232,114.622,114.622,0,0,0,22.7,83.515a113.7,113.7,0,0,0-6.659,21.452,115.4,115.4,0,0,0,0,46.065,113.66,113.66,0,0,0,17.2,40.866,114.627,114.627,0,0,0,50.282,41.407,113.75,113.75,0,0,0,21.453,6.658,115.381,115.381,0,0,0,46.065,0,113.609,113.609,0,0,0,40.866-17.2A114.622,114.622,0,0,0,233.3,172.485a113.741,113.741,0,0,0,6.659-21.453,115.4,115.4,0,0,0,0-46.065,113.662,113.662,0,0,0-17.2-40.865A114.619,114.619,0,0,0,172.485,22.7a113.74,113.74,0,0,0-21.453-6.659A115.145,115.145,0,0,0,128,13.714Z" fill="url(#a)"/><g transform="translate(30 30)"><circle cx="98" cy="98" r="98" fill="url(#b)"/><g transform="translate(57.422 34.453)"><path d="M-334.425,3483.155a80.89,80.89,0,0,1,6.937,4.737,108.611,108.611,0,0,1,7.894,7.531c3.824,3.973,5.474,8.945,6.27,14.3,1.34,9-1.153,16.741-6.618,24-7.7,10.227-24.708,14.188-34.857,9.532-5.614-2.576-10.688-5.784-13.964-10.665-5-7.449-8.162-15.728-4.464-24.972.955-2.39,1.852-4.8,2.862-7.426-3.821.764-7.6,1.515-11.4,2.274-.653-2.62-1.3-4.884-1.721-7.194a1.968,1.968,0,0,1,1.109-1.573c8.393-1.776,16.817-3.406,25.208-5.184,1.493-.318,1.913.123,2.076,1.452.588,4.779,1.187,9.559,1.849,14.327.494,3.557,1.023,7.114,1.676,10.641.274,1.482-.058,2.163-1.6,2.3-2.252.193-4.5.489-6.822.752-.708-4.7-1.36-9.029-2.115-14.049-3.139,5.645-5.244,10.653-3.1,16.54,1.714,4.7,4.1,9.006,8.245,11.811,6.676,4.523,13.923,5.776,21.636,2.515a21.367,21.367,0,0,0,10.325-8.651,21.635,21.635,0,0,0,2.638-17.427,20.286,20.286,0,0,0-9.568-12.94,4.489,4.489,0,0,1-2.564-4.614A77.216,77.216,0,0,0-334.425,3483.155Z" transform="translate(383.49 -3418.159)" fill="#fff"/><path d="M-305.814,3394.17l11.016-3.735c.789,2.264,1.657,4.368,2.19,6.552a2.457,2.457,0,0,1-1.24,2.017q-11.081,4.259-22.253,8.272c-3.152,1.141-3.14.877-3.978-2.347-1.641-6.317-3.573-12.557-5.374-18.831-.493-1.715-.952-3.444-1.494-5.409a60.9,60.9,0,0,1,7.366-2.118c.5-.089,1.6,1.536,1.929,2.536.713,2.163,1.06,4.444,1.65,6.65.291,1.092.787,2.121,1.342,3.576,2.431-4.453,2.615-8.829,1.88-13.273a21.215,21.215,0,0,0-11.572-15.868,23.568,23.568,0,0,0-10.872-2.463c-8.045.141-14.385,4.028-18.659,10.914a21.288,21.288,0,0,0,2.029,24.944,52.179,52.179,0,0,0,7.891,6.8,4.186,4.186,0,0,1,2.044,3.832c-.091,2.614-.023,5.229-.023,8.444-2.325-1.614-4.313-2.826-6.109-4.275-3.34-2.7-6.687-5.406-9.814-8.34-4.412-4.141-6.433-9.615-7.326-15.4a29.438,29.438,0,0,1,9.065-26.763c8.026-7.765,17.8-10.183,28.761-7.808a29.249,29.249,0,0,1,18.754,13.19,30.143,30.143,0,0,1,4.065,23.3C-304.915,3390.312-305.333,3392.045-305.814,3394.17Z" transform="translate(374.416 -3351.203)" fill="#fff"/><path d="M-301.283,3398.412v80.19c-2.559,0-4.992.04-7.422-.016-1.763-.036-1.222-1.46-1.224-2.4q-.041-19.068-.012-38.14c0-12.3.052-24.6-.043-36.906-.017-2.135.51-2.991,2.738-2.771C-305.382,3398.558-303.485,3398.412-301.283,3398.412Z" transform="translate(346.214 -3375.12)" fill="#fff"/></g></g></g></svg>