<svg width="248" height="248" viewBox="0 0 248 248" version="1.1" xmlns="http://www.w3.org/2000/svg" xmlns:xlink="http://www.w3.org/1999/xlink">
    <g stroke="none" stroke-width="1" fill="none" fill-rule="evenodd">
        <g fill="#FFFFFF">
            <circle cx="124" cy="124" r="124"></circle>
        </g>
        <path d="M158.368393,131.575562 C188.191875,135.98242 209,145.948891 209,157.537898 C209,173.210466 170.944204,185.915592 124,185.915592 C77.0557963,185.915592 39,173.210466 39,157.537898 C39,145.948891 59.808125,135.98242 89.631607,131.575562 C99.875862,133.656594 111.575975,134.835743 124,134.835743 C136.111604,134.835743 147.535246,133.715151 157.593659,131.731626 L158.368393,131.575562 Z" fill="#000000" fill-rule="nonzero"></path>
        <path d="M145.513371,84.9155016 C172.5251,87.9207163 192,96.4300948 192,106.458049 C192,118.996103 161.555363,129.160204 124,129.160204 C86.444637,129.160204 56,118.996103 56,106.458049 C56,96.4300948 75.4749003,87.9207163 102.486629,84.9155016 C109.103159,85.9963763 116.371974,86.5936637 124,86.5936637 C131.360851,86.5936637 138.387214,86.0374841 144.815658,85.0274312 L145.513371,84.9155016 Z" fill="#000000" fill-rule="nonzero"></path>
        <ellipse fill="#000000" fill-rule="nonzero" cx="124" cy="65.0266164" rx="51" ry="17.0266164"></ellipse>
    </g>
</svg>
