<?xml version="1.0" encoding="utf-8"?>
<!-- Generator: Adobe Illustrator 24.0.0, SVG Export Plug-In . SVG Version: 6.00 Build 0)  -->
<svg version="1.1" id="레이어_1" xmlns="http://www.w3.org/2000/svg" xmlns:xlink="http://www.w3.org/1999/xlink" x="0px"
	 y="0px" viewBox="0 0 50 50" style="enable-background:new 0 0 50 50;" xml:space="preserve">
<style type="text/css">
	.st0{fill:url(#SVGID_1_);}
	.st1{fill:url(#SVGID_2_);}
	.st2{fill:url(#SVGID_3_);}
	.st3{fill:url(#SVGID_4_);}
	.st4{fill:url(#SVGID_5_);}
	.st5{fill:url(#SVGID_6_);}
</style>
<g>
	<linearGradient id="SVGID_1_" gradientUnits="userSpaceOnUse" x1="36.7442" y1="18.7818" x2="21.4006" y2="1.8007">
		<stop  offset="0" style="stop-color:#070F29"/>
		<stop  offset="0.6788" style="stop-color:#1C2951"/>
	</linearGradient>
	<path class="st0" d="M36.3,19c0-0.2-0.1-0.4-0.1-0.6c0,0,0,0,0-0.1c-0.1-0.5-0.2-1-0.4-1.6c-1.4-4.9-4.8-8.9-9.2-11.2
		c-2.2-1.1-4.6-1.8-7.2-2C27.2,8.4,30,13.2,31,15.8c0.2,0.1,0.3,0.2,0.5,0.2c0,0,0,0,0,0c0.1,0.1,0.3,0.2,0.4,0.2c0,0,0,0,0,0
		c0.8,0.4,1.5,0.9,2.1,1.3c0,0,0,0,0,0c0.1,0.1,0.2,0.2,0.4,0.2c0,0,0,0,0,0c0.5,0.3,0.9,0.6,1.2,0.8c0,0,0,0,0,0
		c0.1,0,0.1,0.1,0.2,0.1c0,0,0,0,0,0c0,0,0.1,0.1,0.1,0.1c0,0,0,0,0,0c0,0,0.1,0.1,0.1,0.1c0,0,0,0,0,0C36.2,19,36.3,19.1,36.3,19
		c0,0.1,0,0.1,0,0.1c0,0,0,0,0,0.1c0,0,0,0,0,0C36.3,19.1,36.3,19,36.3,19z"/>
	<g>
		<linearGradient id="SVGID_2_" gradientUnits="userSpaceOnUse" x1="5.3476" y1="43.665" x2="22.9951" y2="5.1195">
			<stop  offset="0" style="stop-color:#3F7FC1"/>
			<stop  offset="0.67" style="stop-color:#1C2A77"/>
			<stop  offset="1" style="stop-color:#1E2C5A"/>
		</linearGradient>
		<path class="st1" d="M14.7,19.1c0.3-0.6,6.9-4.9,10.8-4.9c1.6,0,3.7,0.8,5.5,1.7c0,0,0,0,0,0c-1-2.6-3.8-7.4-11.5-12.3l0,0
			c-0.3,0-0.6,0-0.8,0c-3.6,0-6.8,1.1-9.6,2.9C3.8,11,0.4,17.8,0.4,25.3c0,11.4,7.7,21.1,18.1,24.1c-3.2-1.5-5.9-3.6-7.9-7.1
			c-1.4-2.4-2.1-5.1-2.2-7.7C8.1,29,10.1,22.9,14.7,19.1z"/>
	</g>
	<linearGradient id="SVGID_3_" gradientUnits="userSpaceOnUse" x1="14.8995" y1="19.152" x2="7.4648" y2="38.0262">
		<stop  offset="0" style="stop-color:#070F29"/>
		<stop  offset="0.6788" style="stop-color:#1C2951"/>
	</linearGradient>
	<path class="st2" d="M14.8,25.7c-0.5-3-0.3-5.5-0.1-6.6c0,0,0,0,0,0c0,0,0,0,0,0c-4.6,3.8-6.6,9.9-6.3,15.5
		c0.1,1.4,0.3,2.7,0.7,4.1C10.4,31.4,13.2,27.5,14.8,25.7z"/>
	<g>
		<linearGradient id="SVGID_4_" gradientUnits="userSpaceOnUse" x1="44.5999" y1="42.8366" x2="13.3844" y2="27">
			<stop  offset="0" style="stop-color:#3F7FC1"/>
			<stop  offset="0.67" style="stop-color:#1C2A77"/>
			<stop  offset="1" style="stop-color:#1E2C5A"/>
		</linearGradient>
		<path class="st3" d="M48.5,31.2c-1.4,2.4-3.6,5.2-5.8,6.6c-4.8,3-11.4,3.8-17.1,1.6c0,0,0,0,0,0c0,0,0,0,0,0c0,0,0,0,0,0
			c0,0,0,0,0,0c0,0,0,0,0,0c-7.3-3.1-9.9-9-10.7-13.7v0c-1.6,1.8-4.4,5.7-5.7,13c0.4,1.2,0.9,2.5,1.6,3.6c2,3.5,4.8,5.6,7.9,7.1
			c2.2,0.6,4.5,1,6.9,1c13.6,0,24.6-10.9,25-24.4C50,27.8,49.4,29.6,48.5,31.2z"/>
	</g>
	<linearGradient id="SVGID_5_" gradientUnits="userSpaceOnUse" x1="25.6126" y1="39.8933" x2="49.0789" y2="34.2162">
		<stop  offset="0" style="stop-color:#070F29"/>
		<stop  offset="0.6788" style="stop-color:#1C2951"/>
	</linearGradient>
	<path class="st4" d="M47.3,31.9c-8.9,4.7-14.6,4.4-16.7,4l0,0c-1.4,1.2-3,2.4-5.1,3.4c0,0-0.1,0-0.1,0c0,0,0,0,0,0c0,0,0,0,0,0
		c5.7,2.2,12.4,1.4,17.1-1.6c2.2-1.4,4.4-4,5.8-6.4C48.1,31.5,47.7,31.7,47.3,31.9z"/>
	<linearGradient id="SVGID_6_" gradientUnits="userSpaceOnUse" x1="14.9319" y1="0.4208" x2="47.5497" y2="32.2512">
		<stop  offset="0" style="stop-color:#3F7FC1"/>
		<stop  offset="0.67" style="stop-color:#1C2A77"/>
		<stop  offset="1" style="stop-color:#1E2C5A"/>
	</linearGradient>
	<path class="st5" d="M25.4,0.3c-6.2,0-12,2.3-16.3,6.1c2.8-1.9,6-2.9,9.6-2.9c2.9,0,5.6,0.7,8,2c5.1,2.7,8.8,7.6,9.7,13.7
		c0,0,0,0,0,0c0.1,0.8,1.5,10.1-5.7,16.8l0,0l0,0c2.1,0.4,7.9,0.7,16.7-4c0.4-0.2,0.7-0.4,1.1-0.6c0,0,0.1-0.1,0.1-0.1
		c0.9-1.6,1.6-3.4,1.9-5.2c0-0.2,0-0.4,0-0.7C50.4,11.5,39.2,0.3,25.4,0.3z"/>
</g>
</svg>
