<svg
	viewBox="0 0 50 60.18"
	xmlns="http://www.w3.org/2000/svg"
	xmlns:xlink="http://www.w3.org/1999/xlink"
	width="150"
	height="150"
><linearGradient
		id="a"
		gradientUnits="userSpaceOnUse"
		x1="5.3"
		x2="42.97"
		y1="21.23"
		y2="43.98"
	><stop offset="0" stop-color="#01a4de" /><stop
			offset=".5"
			stop-color="#824592"
		/><stop offset="1" stop-color="#b91e73" /></linearGradient><path
		d="m2.92 42a2.61 2.61 0 0 1 -1.8-.6 2.83 2.83 0 0 1 -.9-2c0-.2-1.8-24 5-32.1 6.9-8.3 18.9-9.7 26.8-3.2s8.8 18.7 1.9 27c-6.8 8.1-30.3 10.8-30.6 10.8-.1.1-.2.1-.4.1zm17.6-39.7a17.38 17.38 0 0 0 -13.52 6.48c-5.7 6.8-4.8 28.5-4.6 30.3a4.55 4.55 0 0 1 .1.6s.1.1.6.1c3.5-.4 23.7-3.4 29.1-9.9 6.1-7.4 5.6-18.2-1.4-24a16.57 16.57 0 0 0 -10.28-3.6zm-7 51.9c-5.3 0-9.2-.4-9.3-.4a3.37 3.37 0 0 1 -2-1.1 2.4 2.4 0 0 1 -.5-2.1c0-.2 3.2-23.8 11.4-30.3 8.4-6.8 20.5-5.6 27 2.5a18.18 18.18 0 0 1 3.7 13.9 19.81 19.81 0 0 1 -7.5 12.8c-5 3.88-15.1 4.68-22.8 4.68zm-9.6-2.8c.1.1.4.1.6.2 3.5.5 23.8 1.5 30.5-3.9a18.49 18.49 0 0 0 6.7-11.4 15.92 15.92 0 0 0 -3.3-12.3c-5.6-7.1-16.3-8.1-23.8-2.1-6.9 5.5-10.5 27-10.6 28.8-.2.58-.2.68-.1.68z"
		fill="url(#a)"
	/></svg>
