<?xml version="1.0" encoding="UTF-8"?> <svg xmlns="http://www.w3.org/2000/svg" id="Layer_1" x="0" y="0" width="69" height="69" viewBox="0 0 69 69" xml:space="preserve">
  <style>
    .st0 {
      fill: #292e35
    }

    .st1 {
      fill: #4178b7
    }

    .st2,
    .st3,
    .st4 {
      opacity: .9;
      fill: #4178b7
    }

    .st3,
    .st4 {
      opacity: .8
    }

    .st4 {
      opacity: .7
    }

    .st5,
    .st6,
    .st7 {
      opacity: .6;
      fill: #4178b7
    }

    .st6,
    .st7 {
      opacity: .5
    }

    .st7 {
      opacity: .4
    }
  </style>
  <g>
    <circle class="st1" cx="40.4" cy="42" r="2.4"></circle>
    <circle class="st2" cx="44.4" cy="46.8" r="2.2"></circle>
    <circle class="st3" cx="47.8" cy="51.4" r="2"></circle>
    <circle class="st4" cx="50.4" cy="55.9" r="1.6"></circle>
    <circle class="st5" cx="52.5" cy="60.2" r="1.3"></circle>
    <circle class="st6" cx="53.9" cy="64.5" r="1.2"></circle>
    <circle class="st7" cx="54.7" cy="68.5" r=".9"></circle>
    <circle class="st1" cx="41" cy="33.9" r="2.4"></circle>
    <circle class="st2" cx="46.8" cy="31.6" r="2.2"></circle>
    <circle class="st3" cx="52.2" cy="29.7" r="2"></circle>
    <circle class="st4" cx="57.2" cy="28.6" r="1.6"></circle>
    <circle class="st5" cx="62" cy="28" r="1.3"></circle>
    <circle class="st6" cx="66.5" cy="28" r="1.2"></circle>
    <circle class="st7" cx="70.6" cy="28.4" r=".9"></circle>
    <circle class="st1" cx="33.4" cy="30.8" r="2.4"></circle>
    <circle class="st2" cx="33" cy="24.5" r="2.2"></circle>
    <circle class="st3" cx="32.9" cy="18.8" r="2"></circle>
    <circle class="st4" cx="33.4" cy="13.7" r="1.6"></circle>
    <circle class="st5" cx="34.3" cy="9" r="1.3"></circle>
    <circle class="st6" cx="35.6" cy="4.7" r="1.2"></circle>
    <circle class="st7" cx="37.3" cy=".9" r=".9"></circle>
    <circle class="st1" cx="28.1" cy="37.1" r="2.4"></circle>
    <circle class="st2" cx="22" cy="35.5" r="2.2"></circle>
    <circle class="st3" cx="16.6" cy="33.8" r="2"></circle>
    <circle class="st4" cx="11.9" cy="31.7" r="1.6"></circle>
    <circle class="st5" cx="7.6" cy="29.4" r="1.3"></circle>
    <circle class="st6" cx="4" cy="26.8" r="1.2"></circle>
    <circle class="st7" cx=".9" cy="24.1" r=".9"></circle>
    <circle class="st1" cx="32.4" cy="44" r="2.4"></circle>
    <circle class="st2" cx="29.1" cy="49.3" r="2.2"></circle>
    <circle class="st3" cx="25.8" cy="54" r="2"></circle>
    <circle class="st4" cx="22.3" cy="57.8" r="1.6"></circle>
    <circle class="st5" cx="18.9" cy="61.1" r="1.3"></circle>
    <circle class="st6" cx="15.3" cy="63.8" r="1.2"></circle>
    <circle class="st7" cx="11.7" cy="65.8" r=".9"></circle>
  </g>
  <path fill="none" d="M-25.4-23.5h288V94.6h-288z"></path>
</svg>