<svg xmlns="http://www.w3.org/2000/svg" viewBox="0 0 2000 1842" width="2000" height="2000"><g fill="#36beeb"><ellipse cx="791.17" cy="929.15" rx="73.58" ry="73.59"/><ellipse cx="615.21" cy="884.36" rx="60.78" ry="60.79"/><ellipse cx="464.05" cy="843.57" rx="55.99" ry="55.99"/><ellipse cx="332.89" cy="786.77" rx="47.19" ry="47.19"/><ellipse cx="215.32" cy="721.18" rx="42.39" ry="42.39"/><circle cx="112.61" cy="729.68" r="32.79" transform="matrix(.64412-.76492.76492.64412-518.05 266.77)"/><circle cx="27.99" cy="647.56" r="27.99" transform="matrix(.64412-.76492.76492.64412-485.35 172.83)"/><ellipse cx="927.13" cy="760.38" rx="73.58" ry="73.59"/><ellipse cx="1148.67" cy="843.57" rx="73.58" ry="73.59"/><ellipse cx="916.73" cy="1137.12" rx="73.58" ry="73.59"/><ellipse cx="1133.48" cy="1077.13" rx="73.58" ry="73.59"/><ellipse cx="927.13" cy="590" rx="60.78" ry="60.79"/><ellipse cx="1308.63" cy="778.77" rx="60.78" ry="60.79"/><ellipse cx="1247.05" cy="1210.71" rx="60.78" ry="60.79"/><ellipse cx="810.36" cy="1271.51" rx="60.78" ry="60.79"/><ellipse cx="927.13" cy="422.82" rx="55.99" ry="55.99"/><ellipse cx="1467.79" cy="721.18" rx="55.99" ry="55.99"/><ellipse cx="1338.22" cy="1332.3" rx="55.99" ry="55.99"/><ellipse cx="731.98" cy="1417.89" rx="55.99" ry="55.99"/><ellipse cx="941.53" cy="285.24" rx="47.19" ry="47.19"/><ellipse cx="1603.75" cy="701.19" rx="47.19" ry="47.19"/><ellipse cx="1411" cy="1465.08" rx="47.19" ry="47.19"/><ellipse cx="629.61" cy="1521.07" rx="47.19" ry="47.19"/><ellipse cx="959.12" cy="145.26" rx="42.39" ry="42.39"/><ellipse cx="1734.92" cy="679.59" rx="42.39" ry="42.39"/><ellipse cx="1478.98" cy="1583.46" rx="42.39" ry="42.39"/><ellipse cx="520.04" cy="1609.06" rx="42.39" ry="42.39"/><circle cx="1000.86" cy="111.8" r="32.79" transform="matrix(.64412-.76492.76492.64412 270.62 726.32)"/><circle cx="1863.61" cy="765.14" r="32.79" transform="matrix(.64412-.76492.76492.64412 77.89 1618.7)"/><circle cx="1500.48" cy="1784.78" r="32.79" transform="matrix(.64412-.76492.76492.64412-831.23 1703.76)"/><circle cx="432.06" cy="1760.82" r="32.79" transform="matrix(.64412-.76492.76492.64412-1193.08 878.03)"/><circle cx="1972.01" cy="780.33" r="27.99" transform="matrix(.64412-.76492.76492.64412 104.83 1707.02)"/><circle cx="1537.97" cy="1893" r="27.99" transform="matrix(.64412-.76492.76492.64412-900.67 1770.95)"/><circle cx="333" cy="1827.94" r="27.99" transform="matrix(.64412-.76492.76492.64412-1279.67 826.14)"/></g></svg>