<?xml version="1.0" encoding="UTF-8"?>
<svg width="1000px" height="1000px" viewBox="0 0 1000 1000" version="1.1" xmlns="http://www.w3.org/2000/svg" xmlns:xlink="http://www.w3.org/1999/xlink">
    <!-- Generator: Sketch 43.2 (39069) - http://www.bohemiancoding.com/sketch -->
    <title>bcpt@2x</title>
    <desc>Created with Sketch.</desc>
    <defs>
        <linearGradient x1="50%" y1="0%" x2="50%" y2="100%" id="linearGradient-1">
            <stop stop-color="#FBDA61" offset="0%"></stop>
            <stop stop-color="#F76B1C" offset="100%"></stop>
        </linearGradient>
        <linearGradient x1="50%" y1="0%" x2="50%" y2="100%" id="linearGradient-2">
            <stop stop-color="#F5515F" offset="0%"></stop>
            <stop stop-color="#9F031B" offset="100%"></stop>
        </linearGradient>
    </defs>
    <g id="Page-1" stroke="none" stroke-width="1" fill="none" fill-rule="evenodd">
        <g id="bcpt">
            <g id="Group" transform="translate(-40.000000, -39.000000)">
                <path d="M5.98153147,139.434297 C-39.9748315,214.705867 -66.4529202,303.151999 -66.4529202,397.777944 C-66.4529202,672.116645 156.103601,894.512104 430.640983,894.512104 C652.705009,894.512104 840.759797,749.006621 904.534559,548.201113 L610.178614,455.171112 C586.117465,530.985349 515.125536,585.924959 431.292482,585.924959 C327.666314,585.924959 243.660707,501.980146 243.660707,398.428972 C243.660707,362.758 253.629168,329.413601 270.934219,301.025744 L5.98153147,139.434297 Z" id="Combined-Shape-Copy-4" fill="url(#linearGradient-1)" opacity="0.742357337" transform="translate(419.040819, 516.973200) rotate(95.000000) translate(-419.040819, -516.973200) "></path>
                <g id="stairs" transform="translate(276.235668, 695.297618)">
                    <path d="M330.863565,158.330937 C312.052318,217.561295 282.428256,271.980349 244.307989,319.273163 L3.68944719,126.254048 C18.1513757,108.354301 29.3854706,87.7421069 36.5076208,65.3009353 L330.863565,158.330937 Z" id="Combined-Shape-Copy-5" fill="#FBBD72" opacity="0.39" transform="translate(167.276506, 192.287049) rotate(74.000000) translate(-167.276506, -192.287049) "></path>
                    <path d="M377.059914,273.501462 C372.190335,280.199247 367.157391,286.770759 361.966932,293.210153 L132.232431,108.921985 C134.414702,106.355144 136.531762,103.731215 138.581053,101.052755 L377.059914,273.501462 Z" id="Combined-Shape-Copy-6" fill="url(#linearGradient-2)" opacity="0.825577446" transform="translate(254.646172, 197.131454) rotate(53.000000) translate(-254.646172, -197.131454) "></path>
                </g>
                <g id="stairs-copy" transform="translate(623.514845, 892.734186) rotate(-24.000000) translate(-623.514845, -892.734186) translate(430.014845, 710.234186)">
                    <path d="M316.208181,144.66126 C297.396934,203.891618 267.772871,258.310672 229.652604,305.603486 L7.83911771,127.669389 C24.1221948,107.467378 36.7370243,84.1887103 44.6726898,58.8435702 L316.208181,144.66126 Z" id="Combined-Shape-Copy-5" fill="#F6A623" opacity="0.717898551" transform="translate(162.023649, 182.223528) rotate(74.000000) translate(-162.023649, -182.223528) "></path>
                    <path d="M360.531471,259.46855 C355.661891,266.166335 350.628948,272.737847 345.438489,279.177241 L140.00962,114.386539 C142.543379,111.435774 144.996399,108.413758 147.36526,105.323913 L360.531471,259.46855 Z" id="Combined-Shape-Copy-6" fill="url(#linearGradient-2)" opacity="0.825577446" transform="translate(250.270545, 192.250577) rotate(53.000000) translate(-250.270545, -192.250577) "></path>
                </g>
                <g id="stairs-copy-2" transform="translate(759.290097, 859.119740) rotate(-43.000000) translate(-759.290097, -859.119740) translate(605.790097, 717.119740)">
                    <path d="M245.077654,114.408146 C231.147996,158.268004 211.289296,199.489658 186.442191,237.13315 L5.12872067,118.153167 C18.2539481,96.6574053 28.0679464,72.9218697 33.8623552,47.6544079 L245.077654,114.408146 Z" id="Combined-Shape-Copy-5" fill="#FF7511" opacity="0.819744112" transform="translate(125.103187, 142.393779) rotate(74.000000) translate(-125.103187, -142.393779) "></path>
                    <path d="M284.782771,199.686369 C279.913192,206.384154 274.880249,212.955666 269.68979,219.39506 L105.061633,87.3338282 C107.945222,83.5561235 110.7134,79.6857252 113.360913,75.7278864 L284.782771,199.686369 Z" id="Combined-Shape-Copy-6" fill="url(#linearGradient-2)" opacity="0.825577446" transform="translate(194.922202, 147.561473) rotate(53.000000) translate(-194.922202, -147.561473) "></path>
                </g>
                <g id="stairs-copy-3" transform="translate(845.615876, 796.510224) rotate(-55.000000) translate(-845.615876, -796.510224) translate(726.115876, 682.510224)">
                    <path d="M192.142774,102.735008 C183.369656,130.358639 172.244676,156.93578 159.002833,182.231602 L-5.40199352,96.712428 C2.57657818,80.7743507 8.93693125,63.8866095 13.463854,46.2642603 L192.142774,102.735008 Z" id="Combined-Shape-Copy-5" fill="#FF7511" transform="translate(93.370390, 114.247931) rotate(74.000000) translate(-93.370390, -114.247931) "></path>
                    <path d="M219.508262,161.415577 C214.638683,168.113362 209.60574,174.684874 204.415281,181.124268 L63.0805372,67.74852 C66.5312448,63.7783248 69.8569697,59.6967486 73.0515918,55.5099073 L219.508262,161.415577 Z" id="Combined-Shape-Copy-6" fill="url(#linearGradient-2)" opacity="0.825577446" transform="translate(141.294400, 118.317088) rotate(53.000000) translate(-141.294400, -118.317088) "></path>
                </g>
                <g id="top-stairs" transform="translate(801.701425, 310.357893) rotate(-138.000000) translate(-801.701425, -310.357893) translate(591.701425, 117.857893)" fill="url(#linearGradient-1)" opacity="0.825577446">
                    <path d="M389.05854,267.486119 C384.188961,274.183904 379.156017,280.755416 373.965558,287.19481 L120.158783,83.5963721 C122.036915,81.4429728 123.865323,79.2451367 125.64222,77.0046505 L389.05854,267.486119 Z" id="Combined-Shape-Copy-6" transform="translate(254.608661, 182.099730) rotate(53.000000) translate(-254.608661, -182.099730) "></path>
                </g>
                <g id="top-stairs-copy" transform="translate(812.190616, 361.309388) rotate(-121.000000) translate(-812.190616, -361.309388) translate(635.690616, 178.809388)" fill="url(#linearGradient-1)" opacity="0.825577446">
                    <path d="M320.030827,274.711488 C315.161247,281.409274 310.128304,287.980785 304.937845,294.420179 L32.9605255,76.2457148 C34.5000191,74.3243121 36.0006954,72.3686402 37.4613168,70.3799753 L320.030827,274.711488 Z" id="Combined-Shape-Copy-6" transform="translate(176.495676, 182.400077) rotate(53.000000) translate(-176.495676, -182.400077) "></path>
                </g>
            </g>
        </g>
    </g>
</svg>