<?xml version="1.0" encoding="UTF-8" standalone="no"?>
<!-- Generator: Adobe Illustrator 21.1.0, SVG Export Plug-In . SVG Version: 6.00 Build 0)  -->

<svg
   xmlns:dc="http://purl.org/dc/elements/1.1/"
   xmlns:cc="http://creativecommons.org/ns#"
   xmlns:rdf="http://www.w3.org/1999/02/22-rdf-syntax-ns#"
   xmlns:svg="http://www.w3.org/2000/svg"
   xmlns="http://www.w3.org/2000/svg"
   xmlns:sodipodi="http://sodipodi.sourceforge.net/DTD/sodipodi-0.dtd"
   xmlns:inkscape="http://www.inkscape.org/namespaces/inkscape"
   version="1.1"
   id="Layer_1"
   x="0px"
   y="0px"
   viewBox="0 0 280 353.94446"
   xml:space="preserve"
   sodipodi:docname="bee_logo_vertical.svg"
   inkscape:version="0.92.2 5c3e80d, 2017-08-06"
   width="280"
   height="353.94446"><metadata
     id="metadata3957"><rdf:RDF><cc:Work
         rdf:about=""><dc:format>image/svg+xml</dc:format><dc:type
           rdf:resource="http://purl.org/dc/dcmitype/StillImage" /></cc:Work></rdf:RDF></metadata><defs
     id="defs3955"><clipPath
       clipPathUnits="userSpaceOnUse"
       id="clipPath4000"><rect
         id="rect4002"
         width="500"
         height="500"
         x="74.953308"
         y="64.415115"
         clip-path="none" /></clipPath></defs><sodipodi:namedview
     pagecolor="#ffffff"
     bordercolor="#666666"
     borderopacity="1"
     objecttolerance="10"
     gridtolerance="10"
     guidetolerance="10"
     inkscape:pageopacity="0"
     inkscape:pageshadow="2"
     inkscape:window-width="1806"
     inkscape:window-height="1032"
     id="namedview3953"
     showgrid="false"
     inkscape:zoom="0.70710678"
     inkscape:cx="-23.789745"
     inkscape:cy="76.982217"
     inkscape:window-x="0"
     inkscape:window-y="0"
     inkscape:window-maximized="0"
     inkscape:current-layer="Layer_1" /><style
     type="text/css"
     id="style3872">
	.st0{fill:#263238;}
	.st1{fill:#FFC107;}
	.st2{fill:#FFFFFF;}
	.st3{fill:#FFC106;}
</style><title
     id="title3876">logo_bee_vertical</title><desc
     id="desc3878">Created with Sketch.</desc><g
     id="Logo"
     clip-path="url(#clipPath4000)"
     transform="translate(-180,-143)"><g
       id="logo_bee_vertical"><g
         id="logo_bee"
         transform="translate(180,143)"><g
           id="mark"><polygon
             id="Fill-1"
             class="st1"
             points="27.8,175.3 0,159.2 0,64.5 111.3,0 138.9,16.1 27.8,80.6 "
             style="fill:#ffc107" /><polygon
             id="Fill-2"
             class="st1"
             points="278.9,96.6 167.8,32.1 56.6,96.6 56.6,191.3 84.4,175.2 84.4,112.7 167.8,64.3 167.8,126.8 278.9,191.3 "
             style="fill:#ffc107" /></g><g
           id="bee"
           transform="translate(0,229.44444)"><path
             id="Fill-1_1_"
             class="st1"
             d="m 73.2,95.7 c 2.5,-4.8 3.7,-10.2 3.7,-16.2 0,-5.9 -1.3,-11.2 -3.8,-16 -2.5,-4.8 -6,-8.5 -10.4,-11.2 -4.4,-2.7 -9.4,-4 -15,-4 -5.6,0 -10.6,1.3 -15.1,4 -4.4,2.7 -7.9,6.4 -10.5,11.2 -2.5,4.8 -3.8,10.1 -3.8,16 0,6.1 1.3,11.6 3.8,16.3 2.5,4.7 6,8.4 10.5,11.1 4.4,2.7 9.5,4 15.1,4 5.6,0 10.6,-1.3 15.1,-4 4.4,-2.7 7.9,-6.4 10.4,-11.2 z m 11,-39.1 c 3.5,6.8 5.3,14.6 5.3,23.4 0,8.7 -1.7,16.4 -5.2,23.1 -3.5,6.7 -8.3,12 -14.7,15.7 -6.3,3.7 -13.5,5.6 -21.7,5.6 -7.4,0 -13.8,-1.6 -19.4,-4.7 -5.6,-3.1 -10,-7.6 -13.2,-13.4 v 17.5 H 0 V 0 H 15.3 V 53.1 C 18.5,47.3 22.9,42.9 28.4,39.7 33.9,36.6 40.3,35 47.6,35 c 8.1,0 15.4,1.9 21.7,5.7 6.4,3.8 11.4,9.1 14.9,15.9 z"
             inkscape:connector-curvature="0"
             style="fill:#ffc107" /><path
             id="Fill-4"
             class="st1"
             d="m 171.3,73.5 c -0.4,-8 -3.1,-14.4 -8,-19 -4.9,-4.6 -11.3,-7 -19.2,-7 -7.7,0 -14.2,2.4 -19.3,7 -5.1,4.7 -8.2,11 -9.2,19 z m 3,-26.4 c 6.9,8.1 10.4,19.3 10.4,33.7 0,2.2 -0.1,3.9 -0.2,5 h -68.9 c 1.2,7.9 4.5,14.2 9.8,18.9 5.3,4.7 11.9,7 19.7,7 5.2,0 10,-0.9 14.4,-2.8 4.4,-1.9 8.3,-4.6 11.6,-8 l 8.4,8.9 c -4.3,4.7 -9.5,8.3 -15.5,10.9 -6,2.6 -12.8,3.8 -20.1,3.8 -8.6,0 -16.2,-1.9 -22.8,-5.6 -6.7,-3.7 -11.8,-9 -15.5,-15.8 -3.7,-6.8 -5.5,-14.5 -5.5,-23.2 0,-8.7 1.8,-16.4 5.5,-23.2 3.7,-6.7 8.8,-12 15.4,-15.9 6.6,-3.8 14.1,-5.8 22.6,-5.8 13.6,0 23.8,4 30.7,12.1 z"
             inkscape:connector-curvature="0"
             style="fill:#ffc107" /><path
             id="Fill-4-Copy"
             class="st1"
             d="m 266.6,73.5 c -0.4,-8 -3.1,-14.4 -8,-19 -4.9,-4.6 -11.3,-7 -19.2,-7 -7.7,0 -14.2,2.4 -19.3,7 -5.1,4.7 -8.2,11 -9.2,19 z m 3,-26.4 c 6.9,8.1 10.4,19.3 10.4,33.7 0,2.2 -0.1,3.9 -0.2,5 h -68.9 c 1.2,7.9 4.5,14.2 9.8,18.9 5.3,4.7 11.9,7 19.7,7 5.2,0 10,-0.9 14.4,-2.8 4.4,-1.9 8.3,-4.6 11.6,-8 l 8.4,8.9 c -4.3,4.7 -9.5,8.3 -15.5,10.9 -6,2.6 -12.8,3.8 -20.1,3.8 -8.6,0 -16.2,-1.9 -22.8,-5.6 -6.7,-3.7 -11.8,-9 -15.5,-15.8 -3.7,-6.8 -5.5,-14.5 -5.5,-23.2 0,-8.7 1.8,-16.4 5.5,-23.2 3.7,-6.7 8.8,-12 15.4,-15.9 6.6,-3.8 14.1,-5.8 22.6,-5.8 13.6,0 23.8,4 30.7,12.1 z"
             inkscape:connector-curvature="0"
             style="fill:#ffc107" /></g></g></g></g><g
     id="g3948"
     transform="translate(-180,-143)"><path
       class="st2"
       d="m 902.5,899.6 c 5.6,3 10.1,7.3 13.3,12.7 3.2,5.4 4.8,11.6 4.8,18.5 0,6.9 -1.6,13 -4.8,18.4 -3.2,5.4 -7.7,9.6 -13.4,12.7 -5.7,3.1 -12.2,4.6 -19.5,4.6 H 853.7 V 895 h 29.7 c 7.1,0 13.5,1.5 19.1,4.6 z m -7.1,51.8 c 3.5,-2 6.2,-4.8 8.2,-8.4 2,-3.6 3,-7.6 3,-12.2 0,-4.6 -1,-8.7 -3.1,-12.3 -2,-3.6 -4.8,-6.5 -8.4,-8.5 -3.6,-2 -7.6,-3 -12,-3 h -15.8 v 47.3 h 16.3 c 4.4,0.1 8.3,-0.9 11.8,-2.9 z"
       id="path3900"
       inkscape:connector-curvature="0"
       style="fill:#ffffff" /><path
       class="st2"
       d="m 975.9,918.9 c 4.4,5 6.6,11.9 6.6,20.9 0,1.8 0,3.1 -0.1,4 h -40.3 c 0.9,3.9 2.7,6.9 5.5,9.1 2.8,2.2 6.1,3.3 10.1,3.3 2.8,0 5.5,-0.5 8,-1.6 2.6,-1.1 4.8,-2.6 6.7,-4.5 l 7.1,7.4 c -2.7,3 -6,5.3 -9.9,6.9 -3.9,1.6 -8.2,2.4 -13,2.4 -5.6,0 -10.5,-1.2 -14.7,-3.5 -4.3,-2.3 -7.5,-5.6 -9.8,-9.7 -2.3,-4.2 -3.5,-9 -3.5,-14.4 0,-5.4 1.2,-10.3 3.5,-14.5 2.3,-4.2 5.6,-7.5 9.8,-9.8 4.2,-2.3 9,-3.5 14.4,-3.5 8.7,0.1 15.2,2.5 19.6,7.5 z m -5.6,16 c -0.1,-4 -1.5,-7.2 -4,-9.6 -2.5,-2.4 -5.8,-3.6 -10,-3.6 -3.9,0 -7.1,1.2 -9.7,3.5 -2.6,2.3 -4.2,5.6 -4.8,9.6 h 28.5 z"
       id="path3902"
       inkscape:connector-curvature="0"
       style="fill:#ffffff" /><path
       class="st2"
       d="m 1018.7,923.1 c -4.4,0 -8,1.5 -10.8,4.5 -2.8,3 -4.1,6.9 -4.1,11.6 0,4.9 1.4,8.8 4.1,11.8 2.8,3 6.3,4.5 10.8,4.5 6.5,0 11.4,-2.1 14.7,-6.4 l 8.3,6.8 c -2.4,3.5 -5.7,6.3 -9.7,8.2 -4,1.9 -8.7,2.9 -14,2.9 -5.4,0 -10.1,-1.2 -14.3,-3.5 -4.2,-2.3 -7.4,-5.6 -9.7,-9.7 -2.3,-4.2 -3.5,-9 -3.5,-14.4 0,-5.5 1.2,-10.4 3.5,-14.6 2.3,-4.2 5.6,-7.5 9.8,-9.8 4.2,-2.3 9,-3.5 14.4,-3.5 5,0 9.4,0.9 13.3,2.6 3.9,1.7 7.1,4.2 9.5,7.4 l -8.1,7.6 c -3.6,-4 -8.4,-6 -14.2,-6 z"
       id="path3904"
       inkscape:connector-curvature="0"
       style="fill:#ffffff" /><path
       class="st2"
       d="m 1094.9,918.9 c 4.4,5 6.6,11.9 6.6,20.9 0,1.8 0,3.1 -0.1,4 h -40.3 c 0.9,3.9 2.7,6.9 5.5,9.1 2.8,2.2 6.1,3.3 10.1,3.3 2.8,0 5.5,-0.5 8,-1.6 2.6,-1.1 4.8,-2.6 6.7,-4.5 l 7.1,7.4 c -2.7,3 -6,5.3 -9.9,6.9 -3.9,1.6 -8.2,2.4 -13,2.4 -5.6,0 -10.5,-1.2 -14.7,-3.5 -4.3,-2.3 -7.5,-5.6 -9.8,-9.7 -2.3,-4.2 -3.5,-9 -3.5,-14.4 0,-5.4 1.2,-10.3 3.5,-14.5 2.3,-4.2 5.6,-7.5 9.8,-9.8 4.2,-2.3 9,-3.5 14.4,-3.5 8.7,0.1 15.2,2.5 19.6,7.5 z m -5.5,16 c -0.1,-4 -1.5,-7.2 -4,-9.6 -2.5,-2.4 -5.8,-3.6 -10,-3.6 -3.9,0 -7.1,1.2 -9.7,3.5 -2.6,2.3 -4.2,5.6 -4.8,9.6 h 28.5 z"
       id="path3906"
       inkscape:connector-curvature="0"
       style="fill:#ffffff" /><path
       class="st2"
       d="m 1162.1,917 c 3.6,3.8 5.4,8.9 5.4,15.4 v 34.1 h -13.4 v -30.2 c 0,-3.8 -1.1,-6.8 -3.3,-9 -2.2,-2.2 -5.1,-3.3 -8.9,-3.3 -4.4,0.1 -7.9,1.6 -10.5,4.5 -2.5,2.9 -3.8,6.7 -3.8,11.2 v 26.8 h -13.3 v -54.6 h 13.3 v 10.2 c 3.7,-7 10.3,-10.6 19.6,-10.7 6.4,0 11.3,1.8 14.9,5.6 z"
       id="path3908"
       inkscape:connector-curvature="0"
       style="fill:#ffffff" /><path
       class="st2"
       d="m 1215.9,963.1 c -4.4,2.7 -8.9,4 -13.7,4 -4.7,0 -8.5,-1.4 -11.5,-4.1 -3,-2.8 -4.5,-6.8 -4.5,-12.2 v -26.9 h -7.7 l -0.1,-9.7 h 7.8 v -15 h 13.2 v 15 h 15.6 v 9.7 h -15.6 v 24.6 c 0,2.5 0.5,4.3 1.4,5.4 1,1.1 2.4,1.6 4.3,1.6 2,0 4.6,-0.7 7.8,-2.2 z"
       id="path3910"
       inkscape:connector-curvature="0"
       style="fill:#ffffff" /><path
       class="st2"
       d="m 1248.6,914.3 c 3.2,-1.9 6.9,-2.8 11.1,-2.9 v 12.9 c -5.6,-0.3 -10.1,1 -13.5,3.9 -3.4,3 -5,7 -5,12 v 26.3 h -13.3 v -54.6 h 13.3 v 10.5 c 1.7,-3.6 4.2,-6.3 7.4,-8.1 z"
       id="path3912"
       inkscape:connector-curvature="0"
       style="fill:#ffffff" /><path
       class="st2"
       d="m 1300.7,966.4 v -6.6 c -1.9,2.4 -4.4,4.2 -7.3,5.4 -3,1.2 -6.4,1.8 -10.3,1.8 -3.8,0 -7.2,-0.7 -10,-2.2 -2.9,-1.5 -5.1,-3.5 -6.7,-6.1 -1.6,-2.6 -2.3,-5.5 -2.3,-8.7 0,-5.1 1.8,-9.1 5.4,-12 3.6,-2.9 8.7,-4.4 15.3,-4.4 h 15.9 v -1.4 c 0,-3.2 -1.1,-5.7 -3.2,-7.4 -2.1,-1.8 -5.2,-2.7 -9.2,-2.7 -5.2,0 -10.6,1.7 -16.2,5.1 l -4.8,-9.2 c 4.3,-2.4 8.2,-4.1 11.7,-5.2 3.5,-1.1 7.6,-1.6 12.3,-1.6 7.1,0 12.6,1.7 16.5,5.1 3.9,3.4 5.9,8.2 6,14.3 l 0.1,35.7 h -13.2 z m -4.7,-12.3 c 2.7,-1.8 4.2,-4 4.6,-6.7 v -4.9 h -13.8 c -3.5,0 -6.1,0.5 -7.8,1.6 -1.7,1.1 -2.5,2.8 -2.5,5.2 0,2.3 0.9,4.1 2.6,5.5 1.7,1.4 4.1,2 7.1,2 3.8,0 7.1,-0.9 9.8,-2.7 z"
       id="path3914"
       inkscape:connector-curvature="0"
       style="fill:#ffffff" /><path
       class="st2"
       d="m 1330.7,890.7 h 13.3 v 75.7 h -13.3 z"
       id="path3916"
       inkscape:connector-curvature="0"
       style="fill:#ffffff" /><path
       class="st2"
       d="m 1374.5,890.6 c 1.4,1.5 2.1,3.4 2.1,5.7 0,2.2 -0.7,4.1 -2.1,5.6 -1.4,1.5 -3.2,2.2 -5.4,2.2 -2.2,0 -4,-0.7 -5.4,-2.2 -1.4,-1.5 -2.1,-3.4 -2.1,-5.6 0,-2.3 0.7,-4.2 2.1,-5.7 1.4,-1.5 3.2,-2.2 5.4,-2.2 2.1,0 3.9,0.8 5.4,2.2 z m -12,21.3 h 13.3 v 54.6 h -13.3 z"
       id="path3918"
       inkscape:connector-curvature="0"
       style="fill:#ffffff" /><path
       class="st2"
       d="m 1390.8,912 h 45.5 v 8.8 l -30,34.9 30.8,0.1 v 10.8 l -47.3,-0.1 v -8.8 l 30,-34.9 -29,-0.1 z"
       id="path3920"
       inkscape:connector-curvature="0"
       style="fill:#ffffff" /><path
       class="st2"
       d="m 1492.3,918.9 c 4.4,5 6.6,11.9 6.6,20.9 0,1.8 0,3.1 -0.1,4 h -40.3 c 0.9,3.9 2.7,6.9 5.5,9.1 2.8,2.2 6.1,3.3 10.1,3.3 2.8,0 5.5,-0.5 8,-1.6 2.6,-1.1 4.8,-2.6 6.7,-4.5 l 7.1,7.4 c -2.7,3 -6,5.3 -9.9,6.9 -3.9,1.6 -8.2,2.4 -13,2.4 -5.6,0 -10.5,-1.2 -14.7,-3.5 -4.3,-2.3 -7.5,-5.6 -9.8,-9.7 -2.3,-4.2 -3.5,-9 -3.5,-14.4 0,-5.4 1.2,-10.3 3.5,-14.5 2.3,-4.2 5.6,-7.5 9.8,-9.8 4.2,-2.3 9,-3.5 14.4,-3.5 8.7,0.1 15.3,2.5 19.6,7.5 z m -5.5,16 c -0.1,-4 -1.5,-7.2 -4,-9.6 -2.5,-2.4 -5.8,-3.6 -10,-3.6 -3.9,0 -7.1,1.2 -9.7,3.5 -2.6,2.3 -4.2,5.6 -4.8,9.6 h 28.5 z"
       id="path3922"
       inkscape:connector-curvature="0"
       style="fill:#ffffff" /><path
       class="st2"
       d="m 1565.7,890.7 v 75.7 h -13.3 v -8.8 c -2,3.1 -4.5,5.4 -7.6,7 -3.1,1.6 -6.7,2.4 -10.8,2.4 -5.2,0 -9.7,-1.2 -13.6,-3.5 -3.9,-2.3 -7,-5.6 -9.1,-9.9 -2.2,-4.2 -3.3,-9.1 -3.3,-14.6 0,-5.4 1.1,-10.3 3.2,-14.4 2.1,-4.2 5.2,-7.4 9.1,-9.7 3.9,-2.3 8.4,-3.5 13.4,-3.5 4.1,0 7.8,0.8 10.9,2.4 3.1,1.6 5.7,4 7.8,7 v -30.1 z m -17.6,60.6 c 2.9,-3.1 4.3,-7.1 4.3,-12 0,-4.9 -1.4,-8.9 -4.3,-12 -2.9,-3.1 -6.6,-4.6 -11.2,-4.6 -4.6,0 -8.3,1.5 -11.1,4.6 -2.9,3.1 -4.3,7.1 -4.4,12 0.1,4.9 1.5,8.9 4.4,12 2.9,3.1 6.6,4.6 11.1,4.6 4.6,0 8.3,-1.5 11.2,-4.6 z"
       id="path3924"
       inkscape:connector-curvature="0"
       style="fill:#ffffff" /><path
       class="st2"
       d="m 852.9,1017.4 h 13.7 v 30.5 h 35.6 v -30.5 h 13.7 v 71.4 h -13.7 v -29 h -35.6 v 29 h -13.7 z"
       id="path3926"
       inkscape:connector-curvature="0"
       style="fill:#ffffff" /><path
       class="st2"
       d="m 970.6,1037.3 c 4.3,2.3 7.7,5.6 10.1,9.7 2.4,4.2 3.6,9 3.6,14.4 0,5.5 -1.2,10.4 -3.6,14.6 -2.4,4.2 -5.8,7.5 -10.1,9.8 -4.3,2.3 -9.3,3.5 -14.9,3.5 -5.7,0 -10.7,-1.2 -15.1,-3.5 -4.4,-2.3 -7.7,-5.6 -10.1,-9.8 -2.4,-4.2 -3.6,-9.1 -3.6,-14.6 0,-5.4 1.2,-10.3 3.6,-14.4 2.4,-4.2 5.8,-7.4 10.1,-9.7 4.4,-2.3 9.4,-3.5 15.1,-3.5 5.6,0.1 10.6,1.2 14.9,3.5 z m -26.2,12.5 c -2.9,3.1 -4.3,7 -4.3,11.9 0,4.9 1.4,8.9 4.3,11.9 2.9,3.1 6.6,4.6 11.2,4.6 4.5,0 8.2,-1.5 11,-4.6 2.9,-3.1 4.3,-7 4.3,-11.9 0,-4.9 -1.4,-8.9 -4.3,-11.9 -2.9,-3.1 -6.5,-4.6 -11,-4.6 -4.6,0 -8.3,1.5 -11.2,4.6 z"
       id="path3928"
       inkscape:connector-curvature="0"
       style="fill:#ffffff" /><path
       class="st2"
       d="m 1081.9,1039.4 c 3.5,3.8 5.3,8.9 5.3,15.4 v 34.1 h -13.4 v -30.2 c 0,-3.9 -1.1,-6.9 -3.2,-9.1 -2.1,-2.2 -5,-3.3 -8.7,-3.3 -4.2,0.1 -7.6,1.7 -10,4.6 -2.5,2.9 -3.7,6.6 -3.7,11.1 v 26.9 h -13.4 v -30.2 c 0,-3.9 -1.1,-6.9 -3.2,-9.1 -2.1,-2.2 -5,-3.3 -8.7,-3.3 -4.3,0.1 -7.7,1.7 -10.1,4.6 -2.5,2.9 -3.7,6.6 -3.7,11.1 v 26.9 h -13.3 v -54.6 h 13.3 v 10.1 c 3.6,-6.9 10,-10.5 19.2,-10.6 4.8,0 8.8,1.1 12,3.4 3.2,2.3 5.5,5.5 6.8,9.6 3.5,-8.6 10.2,-12.9 20.3,-13.1 6.1,0.1 11,1.9 14.5,5.7 z"
       id="path3930"
       inkscape:connector-curvature="0"
       style="fill:#ffffff" /><path
       class="st2"
       d="m 1144.4,1041.3 c 4.4,5 6.6,11.9 6.6,20.9 0,1.8 0,3.1 -0.1,4 h -40.3 c 0.9,3.9 2.7,6.9 5.5,9.1 2.8,2.2 6.1,3.3 10.1,3.3 2.8,0 5.5,-0.5 8,-1.6 2.6,-1.1 4.8,-2.6 6.7,-4.5 l 7.1,7.4 c -2.7,3 -6,5.3 -9.9,6.9 -3.9,1.6 -8.2,2.4 -13,2.4 -5.6,0 -10.5,-1.2 -14.7,-3.5 -4.3,-2.3 -7.5,-5.6 -9.8,-9.7 -2.3,-4.2 -3.5,-9 -3.5,-14.4 0,-5.4 1.2,-10.3 3.5,-14.5 2.3,-4.2 5.6,-7.5 9.8,-9.8 4.2,-2.3 9,-3.5 14.4,-3.5 8.7,0.1 15.2,2.5 19.6,7.5 z m -5.6,16 c -0.1,-4 -1.5,-7.2 -4,-9.6 -2.5,-2.4 -5.8,-3.6 -10,-3.6 -3.9,0 -7.1,1.2 -9.7,3.5 -2.6,2.3 -4.2,5.6 -4.8,9.6 h 28.5 z"
       id="path3932"
       inkscape:connector-curvature="0"
       style="fill:#ffffff" /><path
       class="st2"
       d="m 1221.5,1030.6 c -3.8,-1.2 -7.2,-1.8 -10.1,-1.8 -3.3,0 -5.8,0.6 -7.8,1.8 -1.9,1.2 -2.9,2.9 -2.9,5.1 0,2 0.7,3.6 2,4.9 1.3,1.3 3,2.4 5,3.3 2,0.9 4.7,1.8 8.2,2.8 4.8,1.4 8.8,2.9 11.9,4.3 3.1,1.4 5.7,3.5 7.9,6.3 2.2,2.8 3.3,6.5 3.3,11 0,4.4 -1.2,8.1 -3.5,11.4 -2.3,3.2 -5.6,5.7 -9.7,7.4 -4.1,1.7 -8.8,2.5 -14.1,2.5 -5.6,0 -11,-1 -16.3,-3.1 -5.3,-2.1 -9.9,-4.8 -13.9,-8.3 l 5.7,-11.6 c 3.6,3.3 7.7,6 12.1,7.9 4.5,1.9 8.7,2.9 12.5,2.9 3.8,0 6.8,-0.7 9,-2.2 2.2,-1.5 3.3,-3.5 3.3,-6 0,-2 -0.7,-3.7 -2,-5.1 -1.3,-1.3 -3,-2.4 -5.1,-3.2 -2,-0.8 -4.8,-1.7 -8.4,-2.8 -4.8,-1.4 -8.8,-2.8 -11.8,-4.2 -3.1,-1.4 -5.7,-3.4 -7.9,-6.2 -2.2,-2.8 -3.3,-6.4 -3.3,-10.9 0,-4.1 1.1,-7.8 3.3,-10.9 2.2,-3.1 5.3,-5.5 9.4,-7.2 4,-1.7 8.7,-2.5 14,-2.5 4.6,0 9.2,0.7 13.7,2 4.5,1.4 8.6,3.2 12.1,5.5 l -5.5,11.9 c -3.5,-2 -7.3,-3.8 -11.1,-5 z"
       id="path3934"
       inkscape:connector-curvature="0"
       style="fill:#ffffff" /><path
       class="st2"
       d="m 1299.7,1039.4 c 3.6,3.8 5.4,8.9 5.4,15.4 v 34.1 h -13.4 v -30.2 c 0,-3.8 -1.1,-6.8 -3.3,-9 -2.2,-2.2 -5.1,-3.3 -8.9,-3.3 -4.4,0.1 -7.9,1.6 -10.5,4.5 -2.6,2.9 -3.9,6.7 -3.9,11.2 v 26.8 H 1252 v -75.7 h 13.3 v 31.5 c 3.7,-7.1 10.3,-10.8 19.7,-10.9 6.2,0 11.1,1.8 14.7,5.6 z"
       id="path3936"
       inkscape:connector-curvature="0"
       style="fill:#ffffff" /><path
       class="st2"
       d="m 1352.2,1088.8 v -6.6 c -1.9,2.4 -4.4,4.2 -7.3,5.4 -3,1.2 -6.4,1.8 -10.3,1.8 -3.8,0 -7.2,-0.7 -10,-2.2 -2.9,-1.5 -5.1,-3.5 -6.7,-6.1 -1.6,-2.6 -2.3,-5.5 -2.3,-8.7 0,-5.1 1.8,-9.1 5.4,-12 3.6,-2.9 8.7,-4.4 15.3,-4.4 h 15.9 v -1.4 c 0,-3.2 -1.1,-5.7 -3.2,-7.4 -2.1,-1.8 -5.2,-2.7 -9.2,-2.7 -5.2,0 -10.6,1.7 -16.2,5.1 l -4.8,-9.2 c 4.3,-2.4 8.2,-4.1 11.7,-5.2 3.5,-1.1 7.6,-1.6 12.3,-1.6 7.1,0 12.6,1.7 16.5,5.1 3.9,3.4 5.9,8.2 6,14.3 l 0.1,35.7 h -13.2 z m -4.7,-12.2 c 2.7,-1.8 4.2,-4 4.6,-6.7 v -4.9 h -13.8 c -3.5,0 -6.1,0.5 -7.8,1.6 -1.7,1.1 -2.5,2.8 -2.5,5.2 0,2.3 0.9,4.1 2.6,5.5 1.7,1.4 4.1,2 7.1,2 3.8,0 7.1,-0.9 9.8,-2.7 z"
       id="path3938"
       inkscape:connector-curvature="0"
       style="fill:#ffffff" /><path
       class="st2"
       d="m 1399.8,1036.7 c 3.2,-1.9 6.9,-2.8 11.1,-2.9 v 12.9 c -5.6,-0.3 -10.1,1 -13.5,3.9 -3.4,3 -5,7 -5,12 v 26.3 H 1379 v -54.6 h 13.3 v 10.5 c 1.8,-3.6 4.3,-6.3 7.5,-8.1 z"
       id="path3940"
       inkscape:connector-curvature="0"
       style="fill:#ffffff" /><path
       class="st2"
       d="m 1432.1,1013.1 c 1.4,1.5 2.1,3.4 2.1,5.7 0,2.2 -0.7,4.1 -2.1,5.6 -1.4,1.5 -3.2,2.2 -5.4,2.2 -2.2,0 -4,-0.7 -5.4,-2.2 -1.4,-1.5 -2.1,-3.4 -2.1,-5.6 0,-2.3 0.7,-4.2 2.1,-5.7 1.4,-1.5 3.2,-2.2 5.4,-2.2 2.1,-0.1 3.9,0.7 5.4,2.2 z m -12,21.2 h 13.3 v 54.6 h -13.3 z"
       id="path3942"
       inkscape:connector-curvature="0"
       style="fill:#ffffff" /><path
       class="st2"
       d="m 1496.3,1039.4 c 3.6,3.8 5.4,8.9 5.4,15.4 v 34.1 h -13.4 v -30.2 c 0,-3.8 -1.1,-6.8 -3.3,-9 -2.2,-2.2 -5.1,-3.3 -8.9,-3.3 -4.4,0.1 -7.9,1.6 -10.5,4.5 -2.5,2.9 -3.8,6.7 -3.8,11.2 v 26.8 h -13.3 v -54.6 h 13.3 v 10.2 c 3.7,-7 10.3,-10.6 19.6,-10.7 6.3,0 11.3,1.8 14.9,5.6 z"
       id="path3944"
       inkscape:connector-curvature="0"
       style="fill:#ffffff" /><path
       class="st2"
       d="m 1566.4,1034.3 v 49.4 c 0,5.2 -1.2,9.7 -3.5,13.5 -2.3,3.8 -5.7,6.8 -10,8.9 -4.3,2.1 -9.3,3.1 -15,3.1 -8.3,0 -16,-2.4 -23.1,-7.2 l 5.3,-9.6 c 5.2,3.8 10.8,5.7 17,5.7 4.9,0 8.8,-1.3 11.7,-3.8 2.9,-2.5 4.3,-6 4.3,-10.3 v -6.4 c -1.8,2.8 -4.2,4.9 -7.1,6.4 -2.9,1.5 -6.3,2.2 -10.2,2.2 -4.8,0 -9,-1.1 -12.6,-3.3 -3.7,-2.2 -6.5,-5.3 -8.6,-9.3 -2,-4 -3.1,-8.6 -3.1,-13.7 0,-5.1 1,-9.6 3.1,-13.5 2,-3.9 4.9,-7 8.6,-9.1 3.7,-2.2 7.9,-3.3 12.6,-3.3 3.8,0 7.2,0.7 10.1,2.2 3,1.5 5.4,3.6 7.2,6.3 v -8.2 z m -17.2,37.1 c 2.7,-2.9 4,-6.6 4,-11.3 0,-4.6 -1.3,-8.4 -4,-11.3 -2.7,-2.9 -6.2,-4.3 -10.5,-4.3 -4.3,0 -7.8,1.5 -10.5,4.4 -2.7,2.9 -4.1,6.7 -4.1,11.2 0.1,4.6 1.4,8.4 4.1,11.3 2.7,2.9 6.2,4.3 10.5,4.3 4.3,0 7.8,-1.5 10.5,-4.3 z"
       id="path3946"
       inkscape:connector-curvature="0"
       style="fill:#ffffff" /></g></svg>