<?xml version="1.0" encoding="utf-8"?>
<!-- Generator: Adobe Illustrator 21.0.2, SVG Export Plug-In . SVG Version: 6.00 Build 0)  -->
<svg version="1.1" id="Слой_1" xmlns="http://www.w3.org/2000/svg" xmlns:xlink="http://www.w3.org/1999/xlink" x="0px" y="0px"
	 viewBox="0 0 512 512" style="enable-background:new 0 0 512 512;" xml:space="preserve">
<style type="text/css">
	.st0{fill:url(#SVGID_1_);}
	.st1{fill:url(#SVGID_2_);}
	.st2{fill:url(#SVGID_3_);}
	.st3{fill:url(#SVGID_4_);}
	.st4{fill:url(#SVGID_5_);}
	.st5{fill:url(#SVGID_6_);}
	.st6{fill:url(#SVGID_7_);}
	.st7{fill:url(#SVGID_8_);}
	.st8{fill:url(#SVGID_9_);}
	.st9{fill:url(#SVGID_10_);}
	.st10{fill:url(#SVGID_11_);}
	.st11{fill:url(#SVGID_12_);}
	.st12{fill:url(#SVGID_13_);}
	.st13{fill:url(#SVGID_14_);}
</style>
<linearGradient id="SVGID_1_" gradientUnits="userSpaceOnUse" x1="137.4197" y1="92.2822" x2="392.7801" y2="444.9942">
	<stop  offset="0" style="stop-color:#FFFEFF"/>
	<stop  offset="0.3441" style="stop-color:#969993"/>
	<stop  offset="0.6807" style="stop-color:#DBE3D3"/>
	<stop  offset="1" style="stop-color:#8C8978"/>
</linearGradient>
<circle class="st0" cx="256" cy="256" r="214.6"/>
<g>
	<linearGradient id="SVGID_2_" gradientUnits="userSpaceOnUse" x1="199.7318" y1="66.9455" x2="312.2349" y2="444.3181">
		<stop  offset="0" style="stop-color:#CAD1CA"/>
		<stop  offset="0.3441" style="stop-color:#7D7D7D"/>
		<stop  offset="0.6807" style="stop-color:#A1A1A1"/>
		<stop  offset="1" style="stop-color:#8C8978"/>
	</linearGradient>
	<path class="st1" d="M450.4,254.2v-15.4c0.8-0.2,1.6-0.6,2.3-1.1c1.3-1,2.1-2.4,2.3-4.1c0.4-3.3-2-6.4-5.3-6.8c-0.3,0-0.6,0-0.9,0
		l-9-36.9c2.4-1.7,3.3-5.1,1.9-7.8c-0.8-1.4-2-2.5-3.6-3c-0.8-0.2-1.6-0.3-2.5-0.2l-14.7-26.3c1.3-1.2,2.1-2.9,2-4.8
		c-0.2-3.4-3-5.9-6.4-5.8c-0.9,0-1.7,0.3-2.4,0.6l-17.7-21.5c0-0.1-0.1-0.1-0.1-0.1l-25.5-23.5c0.3-0.8,0.5-1.6,0.4-2.5
		c-0.2-3.4-3-5.9-6.4-5.8c-1.3,0.1-2.6,0.6-3.6,1.4L335,76.2c0-0.4,0.1-0.7,0-1.1c-0.2-3.4-3-6-6.4-5.8c-2,0.1-3.7,1.1-4.7,2.6
		l-41.4-9c-0.7-2.8-3.2-4.8-6.2-4.6c-1.6,0.1-3.1,0.8-4.2,2c-0.4,0.4-0.7,0.9-0.9,1.4H231c0,0,0,0-0.1,0c-0.1,0-0.2,0-0.3,0.1
		c0,0,0,0,0,0l-48.5,14.7c-0.2-0.3-0.5-0.7-0.9-1c-1.2-1.1-2.8-1.6-4.4-1.6c-1.6,0.1-3.1,0.8-4.2,2c-1.1,1.2-1.6,2.8-1.6,4.4
		c0,0.4,0.1,0.8,0.2,1.2l-37.5,23.7c-1.2-1-2.7-1.5-4.2-1.4c-1.6,0.1-3.1,0.8-4.2,2c-1.1,1.2-1.6,2.8-1.6,4.4c0,0.8,0.3,1.6,0.6,2.4
		l-19.7,19c-1.1-0.7-2.3-1.1-3.6-1c-3.4,0.2-5.9,3-5.8,6.4c0.1,1.6,0.8,3.1,2,4.2l-22.5,37.3c-0.6-0.2-1.2-0.3-1.9-0.3
		c-3.4,0-6.1,2.7-6.1,6.1c0,2.5,1.5,4.7,3.7,5.6L64,229.3c-3.1,0.3-5.5,2.9-5.5,6.1c0,2.9,2.1,5.4,4.8,6l1.3,49.4
		c-2.2,0.9-3.8,3.1-3.8,5.7c0,3.4,2.7,6.1,6.1,6.1c0.1,0,0.1,0,0.2,0l16.4,41.3c-1.6,1.1-2.6,2.9-2.6,5c0,3.4,2.7,6.1,6.1,6.1
		c0.8,0,1.6-0.2,2.3-0.5l33.1,42c-0.6,0.9-0.9,2-0.9,3.2c0,3.4,2.7,6.1,6.1,6.1c1.3,0,2.5-0.4,3.4-1.1l22,15.4
		c-0.1,0.4-0.1,0.9-0.1,1.3c0,3.4,2.7,6.1,6.1,6.1c1.7,0,3.2-0.7,4.3-1.8l39.3,15.3c0.1,0,0.2,0.1,0.4,0.1l42.6,5.2
		c0.8,2.6,3.2,4.4,5.8,4.4c0.5,0,1-0.1,1.6-0.2c1.6-0.4,2.9-1.4,3.7-2.8c0.2-0.4,0.4-0.9,0.6-1.3l52.5-6.4c0.5,1,1.3,1.9,2.3,2.5
		c0.9,0.6,2,0.8,3.1,0.8c0.5,0,1-0.1,1.6-0.2c3-0.8,5-3.8,4.5-6.8l44.5-24.1c1.1,1,2.5,1.6,4.1,1.6c0.5,0,1-0.1,1.6-0.2
		c3.3-0.9,5.2-4.2,4.3-7.4h0c-0.1-0.4-0.2-0.7-0.4-1l10.5-10l26.2-27.1c0.7,0.3,1.5,0.4,2.2,0.4c0.5,0,1-0.1,1.5-0.2
		c3.3-0.9,5.2-4.2,4.3-7.4h0c-0.2-0.8-0.6-1.5-1.1-2.2l8.1-13.4c0.3,0.1,0.7,0.2,1,0.2c0.3,0,0.5,0,0.8,0c3,0,5.7-2.3,6-5.3
		c0.3-2.3-0.8-4.5-2.6-5.8l8.9-23.1c0.1,0,0.2,0,0.3,0c3,0,5.7-2.3,6-5.3c0.3-2.7-1.1-5.2-3.5-6.3l5.4-33.5c1.2-0.1,2.3-0.5,3.3-1.2
		c1.3-1,2.1-2.4,2.3-4.1c0.2-1.6-0.2-3.2-1.2-4.5C452.9,255.2,451.7,254.5,450.4,254.2z M368.1,361.5l43.2-17.3l1.1,12.1
		c-1.5,0.4-2.8,1.4-3.6,2.8c-0.4,0.8-0.7,1.6-0.8,2.4H368.1z M364.3,404.5c-0.8,1.4-1,3-0.6,4.6c0,0.2,0.1,0.4,0.2,0.5l-44,23.9
		c-0.1-0.1-0.2-0.3-0.3-0.4l23.8-39.2l14.5-3.4c1,2.2,3.2,3.6,5.5,3.6c0.2,0,0.4,0,0.6,0l2.4,8.3
		C365.5,402.9,364.8,403.6,364.3,404.5z M136,109.6c0-0.7-0.2-1.4-0.4-2l37.1-23.5c0.1,0.1,0.3,0.3,0.4,0.4c0.5,0.4,1,0.7,1.5,1
		l-2.4,11.5l-27.3,18.7c-1.1-0.8-2.4-1.2-3.8-1.1c-1,0.1-1.9,0.3-2.8,0.8l-3-2.7C135.8,111.8,136,110.7,136,109.6z M326.9,81.2
		l-3.1,38.4c-0.3,0.1-0.5,0.1-0.8,0.2l-15.6-30.6l16.7-10C324.8,80.1,325.8,80.8,326.9,81.2z M361.3,100c1.1,0.9,2.4,1.4,3.7,1.4
		l2.6,21.3l-36.6,1.9c-0.1-0.4-0.1-0.7-0.3-1L361.3,100z M411,149.9c0.4,1.1,1.1,2.1,2,2.9l-9.7,21.4c-0.2,0-0.4,0-0.7,0
		c-1.6,0.1-3.1,0.8-4.2,2c-0.8,0.9-1.3,1.9-1.5,3.1l-16.4,1.4l-4.9-28.2L411,149.9z M430.1,184.9c0,1,0.2,1.9,0.7,2.9
		c0.1,0.2,0.2,0.3,0.3,0.5l-10.3,11.2l-13.3-15.1c0.5-0.5,0.8-1.1,1.1-1.8L430.1,184.9z M445.4,255.1l-5-4.2
		c0.3-0.6,0.5-1.2,0.6-1.9c0.2-1.5-0.2-2.9-0.9-4l6.3-6.6c0.3,0.2,0.7,0.3,1.1,0.4v15.4C446.7,254.3,446,254.7,445.4,255.1z
		 M345.5,390.5l6.4-10.6l6.2,5.1c-0.5,0.8-0.8,1.7-0.8,2.7L345.5,390.5z M317.1,431.5c-1.1-0.4-2.4-0.5-3.7-0.2
		c-0.8,0.2-1.5,0.6-2.1,1l-23.7-22.8c0-0.1,0.1-0.1,0.1-0.2c0.5-0.8,0.8-1.7,0.8-2.7l50.9-11.8L317.1,431.5z M100.5,326.7
		l-16.9-15.9l-2.1-16.2l48.6,29.2c0,0.2-0.1,0.4-0.1,0.7L100.5,326.7z M89.4,343.2c-0.5-0.2-1-0.4-1.5-0.5l-3.6-27.3l13.9,13
		L89.4,343.2z M72.8,295.7l5.6-1.9l1.8,13.9l-8.4-7.9c0.6-1,1-2.1,1-3.4C72.9,296.2,72.9,295.9,72.8,295.7z M70.6,235.4
		c0-0.3,0-0.6-0.1-0.8l1-0.3l4.3,37.8l-8.3-31.4C69.4,239.6,70.6,237.6,70.6,235.4z M74.3,190.2c0.2-0.1,0.4-0.1,0.6-0.2L86,205.9
		l-11.7,20.8V190.2z M99.4,178.8c0.3,0.5,0.7,0.9,1.1,1.3L87.6,203l-10.2-14.7c1-1.1,1.6-2.5,1.6-4L99.4,178.8z M199.4,98.8
		c0.4-0.5,0.8-1,1-1.5l44.4,8.2l16.3,2.3L204,120.3l-6.1-20.3C198.4,99.6,198.9,99.2,199.4,98.8z M247.3,80.3l53.6,9l-26.9,14.1
		c-1.2-1.4-3-2.3-5-2.2c-1,0.1-1.9,0.3-2.8,0.8l-19.3-20.4C247.1,81.1,247.2,80.7,247.3,80.3z M397.1,182.1c0.2,0.6,0.5,1.2,0.9,1.7
		l-21.1,32.7l3.7-33L397.1,182.1z M411,254.1c-0.8,0.2-1.5,0.5-2.2,1l-17.8-19.2l5.6-6.1l14.3,3.7V254.1z M234.9,386.1
		c0.2-0.9,0.1-1.8-0.1-2.7c-0.1-0.3-0.2-0.6-0.3-0.8l62.7-41c0.4,0.3,0.7,0.6,1.2,0.9l-15.7,57.7c-0.6,0-1.2,0-1.8,0.2
		c-1.5,0.4-2.8,1.4-3.6,2.6L234.9,386.1z M204.7,411.8c-0.1-0.2-0.2-0.4-0.3-0.6l21-21.3c0.6,0.5,1.4,0.8,2.1,1l2.2,16.2
		L204.7,411.8z M142,323.6c-0.3-1.3-1.1-2.5-2.2-3.3l14.6-31.4l-4.7,34.3L142,323.6z M141.3,126.9c0.1,0,0.2,0,0.3,0
		c1.6-0.1,3.1-0.8,4.2-2c0.3-0.3,0.5-0.6,0.7-0.9l11.7,5L132.6,158c-0.1-0.1-0.2-0.1-0.4-0.2l8.5-31.1
		C141,126.8,141.1,126.9,141.3,126.9z M195.1,138.3l-18.4,6.9l1-6.9c1.5-0.1,3-0.8,4-2c0.5-0.5,0.9-1.1,1.1-1.8L195.1,138.3z
		 M204.1,123.9l24.9,7l-27.4,5.4L204.1,123.9z M305,128.7l12.9,22.7c-1.2,1.2-2,2.8-1.9,4.7l-39.7,11.6c-1.1-1.8-3.2-3-5.5-2.9
		c-1,0.1-1.9,0.3-2.7,0.8l-27.7-31c0.5-0.7,0.8-1.5,1-2.4L305,128.7z M368.4,225c0.5,1.4,1.5,2.6,2.8,3.3l-10.4,29.1
		c-1.5-0.1-2.9,0.3-4.1,1.3c-0.2,0.2-0.4,0.3-0.6,0.5l-55.7-26.5c0-0.1,0-0.2,0-0.3l33.1-3.1c0.8,1.9,2.6,3.3,4.8,3.6
		c0.3,0,0.5,0,0.8,0c1.3,0,2.6-0.4,3.7-1.3c1.2-0.9,2-2.2,2.2-3.6L368.4,225z M152.7,322.9l5.2-37.4c0.8-0.1,1.5-0.3,2.2-0.7
		l29.6,33.2c-0.5,0.7-0.9,1.6-1.1,2.5L152.7,322.9z M136.1,318.9c-0.5,0-0.9,0.1-1.3,0.1L108.4,254c0.4-0.3,0.8-0.7,1.1-1.1
		l41.9,24.7c-0.2,0.6-0.3,1.1-0.3,1.7c0,1.9,0.9,3.6,2.3,4.7L137.1,319C136.8,319,136.4,318.9,136.1,318.9z M135.9,164.3
		c0-0.3,0.1-0.6,0.1-0.9c0,0,0-0.1,0-0.1l29-10.8l3.6,14.9c-1.1,0.6-1.9,1.6-2.5,2.7L135.9,164.3z M164.3,149.7l-29.1,10.8
		c-0.1-0.2-0.3-0.4-0.4-0.6l25-28.5L164.3,149.7z M316.8,158.9c0.5,0.8,1.1,1.5,1.9,2l-8.3,22.5c-0.3,0-0.5,0-0.8,0
		c-1.8,0.1-3.3,0.9-4.3,2.2L277,172.2c0.1-0.5,0.2-1.1,0.1-1.6c0,0,0-0.1,0-0.1L316.8,158.9z M333.1,226.1c0,0.1,0,0.2,0,0.4
		l-32.9,3c-0.7-2.1-2.6-3.8-5-4.1c-0.5-0.1-1-0.1-1.5,0l-11.3-28.7l21.9-4.7c1,2.1,3.1,3.6,5.6,3.6c0.1,0,0.2,0,0.3,0
		c0.8,0,1.5-0.2,2.1-0.5l21.9,28.2C333.6,224.1,333.2,225.1,333.1,226.1z M374,229.1c0.1,0,0.1,0,0.2,0c1.3,0,2.6-0.4,3.7-1.3
		c0.1,0,0.1-0.1,0.1-0.1l8.8,8.2l-23.1,21.7L374,229.1z M362.1,295c-0.5,0.4-0.9,0.8-1.2,1.3l-25.9-6.9c0,0,0,0,0-0.1
		c0.1-1,0-2-0.3-2.9l21.8-18.4c0.9,0.8,2,1.3,3.2,1.4c0.1,0,0.2,0,0.4,0L364,294C363.3,294.3,362.7,294.6,362.1,295z M224.5,178.7
		l-46.7-6.5c-0.1-1.2-0.6-2.4-1.4-3.3l23.1-28.3L224.5,178.7z M303.8,189.1l-22.4,4.9l-7-17.9c0.5-0.3,0.9-0.6,1.3-1.1
		c0-0.1,0.1-0.1,0.1-0.2l28.2,13.4C303.9,188.5,303.8,188.8,303.8,189.1z M354.7,265.5c0,0.1,0,0.1,0.1,0.2L332.9,284
		c-0.9-0.8-2-1.3-3.3-1.5c-0.6-0.1-1.2-0.1-1.8,0l-4.2-10.9L354.7,265.5z M300.8,331.1l-15.7-44.8c1.1-0.5,2-1.4,2.6-2.4
		c0.1-0.1,0.2-0.3,0.2-0.4l35,6.3c0.3,1.4,1,2.6,2,3.5l-21.9,38C302.3,331.1,301.6,331,300.8,331.1z M231.7,297.9l17.1-11.8
		l-6.2,9.9c-1-0.3-2.1-0.3-3.3,0c-1.7,0.4-3,1.6-3.8,3L231.7,297.9z M166,223.9c0.1,0,0.3,0,0.4-0.1c1.6-0.4,2.9-1.4,3.7-2.8
		c0.5-0.8,0.7-1.6,0.8-2.5l21.3-5l5.4,9.7l-38.1,50.6c-0.1,0-0.1,0-0.2-0.1L166,223.9z M225.1,181.7l-11.9,19.9
		c-0.6-0.2-1.2-0.3-1.8-0.3c-1.3,0-2.5,0.4-3.5,1.1L177,175.7c0.1-0.2,0.2-0.4,0.3-0.7L225.1,181.7z M271.1,177c0.1,0,0.2,0,0.3,0
		c0.1,0,0.1,0,0.2,0l6.9,17.6l-10.9,2.4L271.1,177z M320.6,271.6l4.6,12.1c0,0,0,0,0,0c-1,0.8-1.7,1.8-2.1,3l-34.6-6.2
		c0-0.4-0.1-0.9-0.2-1.3c-0.4-1.6-1.4-2.9-2.8-3.7c-0.5-0.3-1.1-0.5-1.7-0.7l2.5-20.8c1.2-0.3,2.2-1,3-1.8L320.6,271.6z M259,279.3
		C259,279.3,259,279.3,259,279.3L259,279.3c-0.1-0.5-0.3-0.9-0.5-1.3l23.6-24.3c0.4,0.2,0.8,0.3,1.2,0.4l-2.5,20.8
		c-2.2,0.6-3.8,2.3-4.3,4.4H259z M202.6,278.6l5.2-35.1c0.1,0,0.3,0,0.4-0.1c2.4-0.6,4-2.5,4.4-4.8l14.4-1l22.2,38.4
		c-1.1,0.8-1.8,2-2.1,3.2L202.6,278.6z M163.1,278c-0.2-0.9-0.6-1.8-1.2-2.5l37.3-49.5l3.7,6.7c-1.8,1.5-2.8,3.9-2.1,6.3
		c0.6,2.1,2.2,3.7,4.1,4.3l-5.2,35.2L163.1,278z M199.3,281.4l-1.1,7.4l-29.2-7.9L199.3,281.4z M264.8,200.5l12.3,30.8l-17.3,1.2
		L217.2,209c0.1-0.3,0.2-0.7,0.2-1L264.8,200.5z M256.6,275.8c-1.3-0.9-2.9-1.3-4.6-1l-21.6-37.4l28.8-2l19.7,10.9
		c-0.4,1.1-0.4,2.3-0.1,3.5c0.2,0.8,0.6,1.5,1.1,2.2L256.6,275.8z M215.8,211.5l38.6,21.3l-25.7,1.7l-13.2-22.8
		C215.7,211.7,215.7,211.6,215.8,211.5z M280.5,243.8l-15.9-8.8l13.7-0.9l3.5,8.8C281.3,243.1,280.9,243.5,280.5,243.8z M209,213
		c0.7,0.3,1.5,0.5,2.4,0.5c0.6,0,1.2-0.1,1.7-0.2l12.4,21.5l-13,0.9c-0.9-2.9-3.9-4.7-6.9-4.2l-4.5-8.1L209,213z M286.9,242.6
		c-0.7-0.3-1.5-0.4-2.3-0.4l-3.3-8.2l7.3-0.5c0.2,0.7,0.5,1.3,1,1.9c0.2,0.3,0.5,0.6,0.8,0.8L286.9,242.6z M288.4,230.5l-8.2,0.6
		l-9.9-24.9l19.2,21.8C289,228.7,288.6,229.6,288.4,230.5z M217,205c-0.3-0.7-0.8-1.4-1.3-2l12.4-20.6l32.8,15.7L217,205z
		 M205.9,204.6c-0.4,0.8-0.7,1.7-0.7,2.7l-11.5,2.7l-17.1-30.8L205.9,204.6z M205.9,210.2c0.2,0.4,0.4,0.7,0.7,1.1l-7,9.4l-4.4-7.9
		L205.9,210.2z M162.2,282.8c0.1-0.2,0.2-0.3,0.3-0.5l35.2,9.5l-3.5,23.7c-0.4,0-0.8,0.1-1.2,0.2c-0.4,0.1-0.8,0.2-1.1,0.4
		l-23.4-26.3L162.2,282.8z M198.7,317.1c-0.5-0.4-1-0.8-1.6-1.1l3.5-23.5l24.2,6.5L198.7,317.1z M201,289.6l1.2-8.1l44.9,0.7
		c0,0.1,0,0.1,0,0.2c0.1,0.3,0.2,0.7,0.4,1L228,296.9L201,289.6z M245.4,297.7c-0.1-0.1-0.2-0.2-0.3-0.3l6.7-10.7
		c0.4,0.1,0.8,0.2,1.3,0.2c0.5,0,1-0.1,1.5-0.2c2.2-0.6,3.8-2.3,4.4-4.4h16.5L245.4,297.7z M290.6,249.7c0.2-1,0.2-2,0-3l0,0
		c-0.2-0.9-0.7-1.7-1.3-2.4l3.7-6.8c0.2,0.1,0.5,0.1,0.7,0.1c0.3,0,0.5,0,0.8,0c0.8,0,1.5-0.2,2.2-0.4l19.8,28.5L290.6,249.7z
		 M268.5,199.8l11.1-2.4l10.6,27L268.5,199.8z M265.5,173.5c0.3,0.7,0.8,1.4,1.4,1.9c0.4,0.3,0.8,0.6,1.3,0.9l-3.6,20.4l-32.7-15.6
		L265.5,173.5z M172,178.8c0.3,0,0.6-0.1,1-0.1l17.8,32l-20.2,4.8c-0.5-1.2-1.4-2.3-2.5-2.9c-0.1-0.1-0.3-0.2-0.4-0.2L172,178.8z
		 M159.8,221.1c0.8,1.2,2,2.2,3.3,2.6l-6.6,49.6c-1,0.1-1.9,0.5-2.7,1l-44.6-41.2L159.8,221.1z M228.5,300l6.3,1.7
		c0,0.3,0,0.6,0.1,1l-27.1,11.7L228.5,300z M246.8,300.3l30.8-15.8c1.1,1.4,2.8,2.3,4.6,2.4l15.8,45.2c-0.4,0.2-0.7,0.5-1,0.9
		l-50.3-29.3C247,302.6,247.1,301.4,246.8,300.3z M306.9,334.5c-0.3-0.7-0.8-1.3-1.3-1.8l22-38.2c0.1,0,0.1,0,0.2,0l2.3,35.2
		L306.9,334.5z M354.4,262.6l-32,6.5l-23.3-33.5c0,0,0.1-0.1,0.1-0.1l55.5,26.3C354.5,262,354.5,262.3,354.4,262.6z M265,170.6
		l-35.7,8.1l6.5-41.5c0.8-0.1,1.6-0.3,2.4-0.7l27.8,31.1C265.4,168.5,265,169.5,265,170.6z M229.8,133.7c0.3,0.7,0.8,1.4,1.4,2
		c0.5,0.4,1.1,0.8,1.6,1l-6.3,39.9l-24.5-37.4L229.8,133.7z M174.1,167.1c-0.1-0.1-0.3-0.1-0.4-0.2l2.6-18.6l18.8-7L174.1,167.1z
		 M171,165l-3.2-13.4l5.4-2L171,165z M168.1,177.7c0.3,0.2,0.7,0.4,1,0.6l-4.4,33.5c-0.4,0-0.9,0.1-1.3,0.2
		c-1.6,0.4-2.9,1.4-3.7,2.8c-0.6,1.1-0.9,2.3-0.8,3.5l-47.5,11.2L168.1,177.7z M107.4,235.3l38.7,35.8l-35.5-21
		c0-0.2,0.1-0.5,0.1-0.8c0-2.7-1.7-4.9-4.1-5.8L107.4,235.3z M200.6,320.6l35.4-15.3c0.6,0.8,1.4,1.5,2.4,1.9L227.6,379
		c-0.1,0-0.2,0-0.2,0c-0.2,0-0.4,0.1-0.5,0.2l-28.1-53.3C200.1,324.6,200.9,322.6,200.6,320.6z M232.7,380.2
		c-0.6-0.5-1.4-0.9-2.2-1.1l10.7-71.2c0.4,0,0.8-0.1,1.2-0.2c1.1-0.3,2-0.8,2.7-1.6l50.4,29.3c-0.3,1-0.3,2.1-0.1,3.3
		c0,0.2,0.1,0.3,0.2,0.4L232.7,380.2z M307.4,337.4l22.9-4.6l1.6,24.3c-0.7,0.2-1.4,0.5-2,1l-23.1-18.4
		C307.2,339,307.4,338.2,307.4,337.4z M334.9,357.1l-1.6-24.8l16.3-3.3l-14.4,28.2C335.1,357.1,335,357.1,334.9,357.1z M333,329.3
		l-2.3-34.8c0.7-0.2,1.3-0.5,1.9-1c0.5-0.4,0.9-0.8,1.2-1.3l25.9,6.9c0,0,0,0,0,0c-0.3,2.2,0.6,4.2,2.2,5.5l-10.7,21L333,329.3z
		 M364.6,305.8c0.1,0,0.3,0.1,0.5,0.1c0.3,0,0.5,0,0.8,0c1.6,0,3.1-0.7,4.2-1.7l15.1,12.3c-0.3,0.7-0.5,1.5-0.6,2.3l-29.7,6
		L364.6,305.8z M387,314.2l-15.4-12.5c0.1-0.4,0.2-0.7,0.2-1.1c0.2-1.6-0.2-3.2-1.2-4.5c-0.9-1.2-2.2-2-3.7-2.2l-4-24.8
		c0.7-0.3,1.4-0.8,1.9-1.4l22.8,15.8l1.3,29.8C388.3,313.5,387.6,313.8,387,314.2z M387.6,279.9l-21.3-14.8c0.1-0.3,0.2-0.6,0.2-0.9
		c0.2-1.5-0.2-2.9-1-4.2l22.1-20.8V279.9z M389,233.8l-9-8.3l13.5,3.4L389,233.8z M314.7,193.3c0.9-1.1,1.4-2.6,1.3-4.1
		c-0.1-2.1-1.2-3.8-2.8-4.9l8.3-22.4c0.2,0,0.4,0,0.6,0l14.3,59.2L314.7,193.3z M171.1,132.4c0.1,1.6,0.8,3.1,2,4.2
		c0.5,0.5,1.1,0.8,1.7,1.1l-1.2,8.5l-6.6,2.4l-4.5-18.5l8.5,1.4C171.1,131.9,171.1,132.1,171.1,132.4z M129.9,169.6
		c2,0,3.8-1,4.9-2.5l30.8,6c0.1,0.8,0.3,1.6,0.6,2.3L107.6,229l-1.4-47.6c2.6-0.7,4.5-3.1,4.5-5.9c0-0.3,0-0.5-0.1-0.8l14.9-7
		C126.6,168.9,128.2,169.6,129.9,169.6z M103.2,181.5l1.4,45.9l-15.2-21.7l13.7-24.3C103.1,181.5,103.2,181.5,103.2,181.5z
		 M103.6,243.3c-2.9,0.5-5.1,3-5.1,6c0,1.5,0.6,2.9,1.5,4l-19.3,33.8l-6.1-53.4h30.1L103.6,243.3z M102.3,255
		c0.7,0.3,1.4,0.4,2.2,0.4c0.4,0,0.9,0,1.3-0.1l26.3,65.1c-0.3,0.2-0.5,0.5-0.7,0.7l-49.8-29.9L102.3,255z M152.3,325.8l36.5-2.4
		c0.1,0.3,0.2,0.6,0.3,0.8l-39.1,31.3c-0.5-0.5-1-1-1.6-1.3L152.3,325.8z M151.3,358.2l39.7-31.7c1,0.7,2.3,1.2,3.6,1.2
		c0.5,0,1-0.1,1.6-0.2c0,0,0.1,0,0.1,0l28.2,53.5c-0.3,0.4-0.6,0.8-0.8,1.2l-72.2-21.4c0.1-0.4,0.1-0.7,0.1-1.1
		C151.4,359.1,151.4,358.6,151.3,358.2z M232.6,406.7l-2.2-15.9c0,0,0,0,0,0c1.3-0.3,2.4-1.1,3.2-2.1l41.7,16.6L232.6,406.7z
		 M286.2,401.5c-0.2-0.2-0.5-0.3-0.7-0.5l15.8-57.7c0,0,0.1,0,0.1,0c0.5,0,1-0.1,1.6-0.2c0.8-0.2,1.5-0.6,2.2-1.1l23,18.3
		c-0.6,1.3-0.8,2.8-0.4,4.2c0.1,0.5,0.3,0.9,0.5,1.3L286.2,401.5z M339.5,364.5h18.4l-6.7,11l-12.1-10
		C339.3,365.2,339.4,364.8,339.5,364.5z M339.5,361.5C339.5,361.5,339.5,361.5,339.5,361.5c-0.3-1.2-0.9-2.2-1.8-3l15.5-30.4l32-6.5
		c0.2,0.5,0.6,1,1,1.4l-26.5,38.4H339.5z M399,227.3l9.1-9.8l2.6,12.8L399,227.3z M395.7,226.5l-15.5-3.9c-0.1-1.2-0.5-2.3-1.3-3.3
		c-0.1-0.1-0.1-0.1-0.2-0.2l21.5-33.3c0.5,0.2,1,0.4,1.5,0.5l5.5,27.7L395.7,226.5z M373.9,216.9c-1.3,0-2.5,0.5-3.5,1.3
		c-1.2,1-2,2.3-2.3,3.9l-23.2,3.1c-0.7-2.2-2.6-4-5.1-4.3c-0.2,0-0.5,0-0.7,0l-14.3-59.6c0.8-0.4,1.4-0.9,1.9-1.6l50.9,23.4
		L373.9,216.9z M321.1,149.8c-0.2,0-0.5,0.1-0.7,0.2l-12.2-21.4l11.2-0.6c0.7,1.5,1.9,2.6,3.4,3.2L321.1,149.8z M318.9,125.1
		l-12.7,0.7l-31-16.9c0.2-0.6,0.3-1.3,0.2-2c0-0.3-0.1-0.6-0.1-0.9l29.5-15.4l15.7,30.8C319.6,122.3,319,123.6,318.9,125.1z
		 M265.5,111.9c1.1,0.9,2.4,1.4,3.9,1.4c0.1,0,0.2,0,0.3,0c1.6-0.1,3-0.8,4.1-1.9l26.9,14.6l-59.4,3.3c0-0.1-0.1-0.3-0.1-0.4
		L265.5,111.9z M239.3,126.5c-1.2-1-2.7-1.6-4.3-1.5c-2.2,0.1-4,1.3-5,3.1l-21.1-5.9l53.5-11.8L239.3,126.5z M198.5,136.2l-15.3-4.8
		c0-0.3-0.1-0.6-0.1-0.9l17.9-6.3L198.5,136.2z M181.7,128c-0.1-0.1-0.3-0.3-0.4-0.4c-1.2-1.1-2.8-1.6-4.4-1.6
		c-1.6,0.1-3.1,0.8-4.2,2c-0.2,0.2-0.4,0.5-0.6,0.8l-9.4-1.6l11.4-26.9l25.9,21.2L181.7,128z M159.8,126.5l-12.4-5.3
		c0-0.2,0-0.5,0-0.7c0-0.9-0.3-1.7-0.7-2.5l23.4-16L159.8,126.5z M137.2,128.7l-7.9,28.8c-3.1,0.3-5.5,2.9-5.5,6.1
		c0,0.6,0.1,1.1,0.2,1.7l-14.5,6.8c-0.1-0.1-0.2-0.3-0.3-0.4L137.2,128.7z M87.9,208.5l15.6,22.3H75.3L87.9,208.5z M142,326.5
		l7.3-0.5l-3.8,27.4c0,0,0,0-0.1,0l-6.7-22.9C140.3,329.7,141.5,328.3,142,326.5z M145.8,365.6c0.9-0.1,1.7-0.3,2.4-0.7l13.1,13.3
		l-19.4-1.5L145.8,365.6z M151,363.6l63.4,18.8l-48.6-3.9L151,363.6z M222.9,386c0,0.2,0.1,0.3,0.1,0.5c0.1,0.4,0.3,0.8,0.4,1.2
		l-21.2,21.5c0,0,0,0,0,0c-1.4-0.8-3-1-4.6-0.6c-0.6,0.1-1.1,0.4-1.5,0.7L169,381.7L222.9,386z M205.2,414.7l25.3-4.9l16.2,30.6
		c-0.2,0.2-0.3,0.4-0.5,0.6L205,416.2C205.1,415.7,205.2,415.2,205.2,414.7z M254.3,439.4C254.3,439.4,254.3,439.4,254.3,439.4
		c-1.4-0.8-3.1-1.1-4.7-0.7c-0.1,0-0.2,0.1-0.4,0.1l-15.5-29.3l42.9-1.4c0.2,0.7,0.6,1.3,1,1.9L254.3,439.4z M288,403.8
		C288,403.8,288,403.8,288,403.8l42.2-35.8c1,0.7,2.2,1.1,3.4,1.1c0.5,0,1-0.1,1.6-0.2c0.8-0.2,1.6-0.6,2.2-1.1l12.3,10.2l-8.2,13.4
		L288,403.8z M360.1,382.9l-6.7-5.5l6.1-10l2,14.9C361,382.4,360.6,382.6,360.1,382.9z M388.6,324.8c0.7,0.3,1.4,0.4,2.1,0.4
		c0.5,0,1-0.1,1.6-0.2c0.5-0.1,1-0.4,1.4-0.6l16.3,17.2l-45.5,18.2L388.6,324.8z M394.5,314.3c-0.2-0.2-0.4-0.4-0.7-0.5
		c-0.6-0.3-1.2-0.6-1.9-0.7l-1.2-28l24.7,13L394.5,314.3z M390.5,281.8v-42.2l16.4,17.7c-0.3,0.6-0.5,1.3-0.6,2
		c-0.2,1.6,0.2,3.2,1.2,4.5c1,1.3,2.4,2.1,4.1,2.3c0.1,0,0.1,0,0.2,0l4.4,29.2L390.5,281.8z M417.1,256.3c-0.8-1.1-1.9-1.8-3.2-2.1
		v-19.1l15.3,10.9c-0.2,0.5-0.3,1-0.4,1.5c-0.1,0.8,0,1.7,0.2,2.5l-11.7,6.8C417.3,256.6,417.2,256.5,417.1,256.3z M444.1,236.5
		l-6.1,6.4c-0.7-0.4-1.4-0.7-2.3-0.8c-1.8-0.2-3.5,0.3-4.7,1.4l-17.1-12.2l-3.3-16.6l10.3-11.1l22.9,26.1c-0.4,0.7-0.7,1.5-0.8,2.3
		C442.7,233.7,443.1,235.3,444.1,236.5z M409.8,211.3l-5-25.2c0.1,0,0.3-0.1,0.4-0.1l13.7,15.6L409.8,211.3z M377.4,179.7L328.1,157
		c0.1-0.4,0.1-0.8,0.1-1.3l44.5-3.1L377.4,179.7z M327.4,152.8c-0.7-1.3-1.9-2.2-3.3-2.7l1.6-18.6c2.4-0.3,4.3-1.9,5.1-4.1l37.3-1.9
		l4.2,24.2L327.4,152.8z M247.1,77.3c0-0.1,0-0.1-0.1-0.2l24-10c0.3,0.7,0.8,1.4,1.4,1.9c1.1,1,2.6,1.6,4.1,1.6c0.1,0,0.2,0,0.3,0
		c1.5-0.1,2.9-0.7,3.9-1.7l19.9,17.4L247.1,77.3z M245.3,74.6c-1.2-1-2.7-1.6-4.3-1.5c-0.3,0-0.7,0.1-1,0.1l-6.1-8.6h35.4
		L245.3,74.6z M237.3,74.6c-0.2,0.2-0.4,0.3-0.6,0.5c-1.1,1.2-1.6,2.8-1.6,4.4c0.1,1.6,0.8,3.1,2,4.2c1.1,1,2.6,1.6,4.1,1.6
		c0.1,0,0.2,0,0.3,0c1.3-0.1,2.6-0.6,3.6-1.4l19,20.1c-0.2,0.4-0.4,0.7-0.5,1.1l-18.4-2.6l-44.3-8.2c0,0,0,0,0,0
		c0-0.9-0.3-1.7-0.7-2.5l30.5-26.5L237.3,74.6z M188.8,95c0.1,1.6,0.8,3.1,2,4.2c1.1,1,2.6,1.6,4.1,1.6c0.1,0,0.1,0,0.2,0l5.1,17.1
		l-25.1-20.5l2.4-11.3c0,0,0,0,0,0c1.4-0.1,2.6-0.6,3.6-1.5l8.3,7.3C188.9,92.9,188.7,93.9,188.8,95z M136,123.8
		c0.1,0.2,0.3,0.5,0.5,0.7l-29.7,45.4c-0.4-0.1-0.8-0.3-1.2-0.3l-1.8-27.2c2.3-1,3.8-3.3,3.7-5.9c0-0.3,0-0.5-0.1-0.8L136,123.8z
		 M100.9,142.8l1.8,26.9c-2.4,0.8-4.2,3.1-4.2,5.8c0,0.2,0,0.4,0,0.5l-20.2,5.4c-0.3-0.5-0.6-1-1-1.4l22.6-37.4
		C100.2,142.7,100.5,142.8,100.9,142.8z M71.4,231.2l-1.9,0.6c-0.7-0.9-1.6-1.6-2.6-2.1l4.5-27.4V231.2z M77.9,290.8l-6.1,2.1
		c-1-1.4-2.5-2.4-4.3-2.6l-1.1-43L77.9,290.8z M80.9,312.3l3.4,25.9L69.9,302L80.9,312.3z M91.7,345.1l8-13.5l22.9,60.5l-31-39.3
		c0.9-1.1,1.4-2.4,1.4-3.9C93,347.4,92.5,346.1,91.7,345.1z M129.3,393.9c-0.6-0.2-1.2-0.3-1.9-0.3c-0.4,0-0.8,0-1.1,0.1l-21.7-57.4
		l33.6,41.8L129.3,393.9z M102.9,329.5l27.6-2.1c0.9,2.2,3,3.7,5.5,3.8l6.7,23c-2,1-3.3,3.1-3.3,5.4c0,2.5,1.5,4.6,3.6,5.6l-3.4,9.9
		L102.9,329.5z M164.5,381.4l29.5,29.8c0,0-0.1,0.1-0.1,0.1c-0.5,0.9-0.8,1.8-0.8,2.8l-28.4,5.7c-0.7-2.6-3.1-4.5-5.9-4.5
		c-0.5,0-0.9,0.1-1.4,0.2l-15.2-35.9L164.5,381.4z M164.8,422.8l28.9-5.8c0.9,2,2.8,3.2,4.9,3.4l2.5,17l-36.5-14.2
		C164.7,423.1,164.7,423,164.8,422.8z M201.5,420c0.8-0.3,1.4-0.8,2-1.3l41.1,24.6l-40.3-4.9L201.5,420z M257.1,443.1
		c-0.2-0.6-0.4-1.1-0.7-1.6l23.7-29.6c0.7,0.3,1.5,0.5,2.4,0.5c0.5,0,1-0.1,1.6-0.2c0.5-0.1,1-0.4,1.5-0.6l24,23
		c-0.4,0.8-0.6,1.7-0.6,2.5l-51.7,6.3C257.1,443.3,257.1,443.2,257.1,443.1z M411.4,338.9l-15.6-16.5c0-0.1,0.1-0.1,0.2-0.2
		c0.8-1.4,1-3,0.6-4.6c-0.1-0.3-0.2-0.6-0.3-0.9l19.9-15.4L411.4,338.9z M414.6,265.7c0.5-0.2,1-0.5,1.4-0.8c1.3-1,2.1-2.4,2.3-4.1
		c0.1-0.5,0.1-0.9,0-1.3l12.1-7c1,1,2.2,1.6,3.6,1.8l5,45.2c-0.5,0.2-1,0.5-1.5,0.9c-0.9,0.7-1.5,1.5-1.9,2.5l-16.5-5.9L414.6,265.7
		z M437,253.9c0.5-0.2,1-0.5,1.5-0.8l5,4.2c-0.3,0.6-0.5,1.3-0.6,2c-0.2,1.6,0.2,3.2,1.2,4.5c0.6,0.8,1.5,1.5,2.4,1.9l-4.8,29.9
		L437,253.9z M445.7,227.7l-22.9-26.1l10.5-11.4c0.4,0.2,0.7,0.4,1.2,0.5c0.6,0.2,1.2,0.3,1.8,0.3c0.3,0,0.5,0,0.8-0.1l8.9,36.6
		C445.9,227.6,445.8,227.6,445.7,227.7z M432.8,179.8c-0.8,0.6-1.5,1.3-1.9,2.2l-21.9-2.5c-0.2-1.9-1.3-3.6-2.9-4.5l9.5-21
		c0.4,0.1,0.8,0.1,1.2,0.1c0.1,0,0.2,0,0.3,0c0.4,0,0.8-0.1,1.2-0.2L432.8,179.8z M411.9,144.5c-0.5,0.7-0.9,1.6-1.1,2.5l-35.7,2.5
		l-4.2-24.2l23.7-1.8L411.9,144.5z M370.5,122.4l-2.7-21.8c0.4-0.2,0.8-0.5,1.2-0.8l22.7,21L370.5,122.4z M359.4,93
		c-0.3,0.8-0.5,1.7-0.4,2.6c0,0.7,0.2,1.4,0.5,2.1L329.1,121c-0.7-0.6-1.5-1.1-2.4-1.4l3.1-38.2c1.7-0.3,3.1-1.2,4.1-2.5L359.4,93z
		 M322.8,75.7c0,0.2,0,0.5,0.1,0.7l-17.2,10.3l-23.3-20.4c0-0.1,0.1-0.2,0.1-0.4l40.4,8.8C322.8,75.1,322.8,75.4,322.8,75.7z
		 M224.9,66.6l-26.6,23.1c-1.1-0.8-2.4-1.2-3.8-1.1c-1.2,0.1-2.3,0.5-3.2,1.1l-8.5-7.4c0.3-0.8,0.5-1.7,0.4-2.6c0-0.2,0-0.4-0.1-0.5
		L224.9,66.6z M126.3,114.8c1,0.8,2.3,1.2,3.6,1.2c0.1,0,0.2,0,0.3,0c1.1-0.1,2.2-0.4,3.1-1l2.9,2.6c-0.6,1-0.9,2.2-0.9,3.4
		L108.5,132L126.3,114.8z M132.8,402.5c0.4-0.8,0.7-1.8,0.7-2.8c0-1.7-0.7-3.2-1.8-4.3l8-14.1l15.1,35.6c-0.2,0.2-0.4,0.4-0.6,0.6
		L132.8,402.5z M383.5,392.8l-10.3,9.9c-0.2-0.1-0.4-0.3-0.6-0.4c-1.1-0.6-2.3-0.9-3.5-0.8l-2.4-8.4c0.8-0.5,1.4-1.2,1.9-2
		c0.8-1.4,1-3,0.6-4.6c-0.4-1.6-1.4-2.9-2.8-3.7c-0.6-0.4-1.3-0.6-2-0.7l-2.3-17.6h46.3c0.2,0.6,0.6,1.2,1,1.6L383.5,392.8z
		 M416.6,356.6c-0.4-0.2-0.8-0.3-1.3-0.4l-1.3-14l4.6-36.5l7.3,28.2c-0.3,0.2-0.6,0.3-0.8,0.5c-1.3,1-2.1,2.4-2.3,4.1
		c-0.2,1.6,0.2,3.2,1.2,4.5c0.2,0.2,0.3,0.4,0.5,0.6L416.6,356.6z M429.5,333.2c-0.3,0-0.6,0-0.8,0l-8.5-32.9l15.2,5.5
		c0.1,1.1,0.5,2.2,1.2,3.1c0.5,0.6,1.1,1.1,1.7,1.5L429.5,333.2C429.5,333.2,429.5,333.2,429.5,333.2z"/>
	<linearGradient id="SVGID_3_" gradientUnits="userSpaceOnUse" x1="256.7199" y1="57.3306" x2="256.7199" y2="451.7302">
		<stop  offset="0" style="stop-color:#F6FFF6"/>
		<stop  offset="0.3441" style="stop-color:#C9C9C9"/>
		<stop  offset="0.6807" style="stop-color:#A1A1A1"/>
		<stop  offset="1" style="stop-color:#FFFFFF"/>
	</linearGradient>
	<path class="st2" d="M276.6,58.3c2.8,0,5.3,1.9,5.9,4.6l41.4,9c1-1.5,2.7-2.5,4.7-2.6c0.1,0,0.2,0,0.3,0c3.2,0,5.9,2.5,6.1,5.8
		c0,0.4,0,0.7,0,1.1l26.2,14.4c1-0.9,2.3-1.4,3.6-1.4c0.1,0,0.2,0,0.3,0c3.2,0,5.9,2.5,6.1,5.8c0,0.9-0.1,1.7-0.4,2.5l25.5,23.5
		c0,0,0.1,0.1,0.1,0.1l17.7,21.5c0.7-0.4,1.5-0.6,2.4-0.6c0.1,0,0.2,0,0.3,0c3.2,0,5.9,2.5,6.1,5.8c0.1,1.9-0.7,3.6-2,4.8l14.7,26.3
		c0.2,0,0.4,0,0.7,0c0.6,0,1.2,0.1,1.8,0.3c1.6,0.5,2.8,1.5,3.6,3c1.4,2.7,0.6,6.1-1.9,7.8l9,36.9c0.1,0,0.1,0,0.2,0
		c0.2,0,0.5,0,0.7,0c3.3,0.4,5.7,3.5,5.3,6.8c-0.2,1.6-1,3.1-2.3,4.1c-0.7,0.5-1.5,0.9-2.3,1.1v15.4c1.3,0.3,2.5,1.1,3.4,2.2
		c1,1.3,1.4,2.9,1.2,4.5c-0.2,1.6-1,3.1-2.3,4.1c-1,0.7-2.1,1.2-3.3,1.2l-5.4,33.5c2.3,1.1,3.8,3.6,3.5,6.3c-0.4,3.1-3,5.3-6,5.3
		c-0.1,0-0.2,0-0.3,0l-8.9,23.1c1.8,1.3,2.8,3.4,2.6,5.8c-0.4,3.1-3,5.3-6,5.3c-0.3,0-0.5,0-0.8,0c-0.4,0-0.7-0.1-1-0.2l-8.1,13.4
		c0.5,0.6,0.8,1.4,1.1,2.2h0c0.9,3.3-1.1,6.6-4.3,7.4c-0.5,0.1-1,0.2-1.5,0.2c-0.8,0-1.5-0.2-2.2-0.4l-26.2,27.1l-10.5,10
		c0.2,0.3,0.3,0.7,0.4,1h0c0.9,3.3-1.1,6.6-4.3,7.4c-0.5,0.1-1,0.2-1.6,0.2c-1.5,0-3-0.6-4.1-1.6L321,436.2c0.5,3.1-1.4,6-4.5,6.8
		c-0.5,0.1-1,0.2-1.6,0.2c-1.1,0-2.1-0.3-3.1-0.8c-1-0.6-1.8-1.5-2.3-2.5l-52.5,6.4c-0.1,0.5-0.3,0.9-0.6,1.3
		c-0.8,1.4-2.1,2.4-3.7,2.8c-0.5,0.1-1,0.2-1.6,0.2c-2.6,0-5-1.7-5.8-4.4l-42.6-5.2c-0.1,0-0.2,0-0.4-0.1l-39.3-15.3
		c-1.1,1.1-2.6,1.8-4.3,1.8c-3.4,0-6.1-2.7-6.1-6.1c0-0.5,0.1-0.9,0.1-1.3l-22-15.4c-1,0.7-2.2,1.1-3.4,1.1c-3.4,0-6.1-2.7-6.1-6.1
		c0-1.2,0.3-2.3,0.9-3.2l-33.1-42c-0.7,0.3-1.5,0.5-2.3,0.5c-3.4,0-6.1-2.7-6.1-6.1c0-2.1,1-3.9,2.6-5L67,302.5c-0.1,0-0.1,0-0.2,0
		c-3.4,0-6.1-2.7-6.1-6.1c0-2.6,1.6-4.8,3.8-5.7l-1.3-49.4c-2.7-0.6-4.8-3-4.8-6c0-3.2,2.4-5.8,5.5-6.1l6.5-39.4
		c-2.2-0.9-3.7-3.1-3.7-5.6c0-3.4,2.7-6.1,6.1-6.1c0.7,0,1.3,0.1,1.9,0.3l22.5-37.3c-1.2-1.1-1.9-2.6-2-4.2
		c-0.2-3.4,2.4-6.2,5.8-6.4c0.1,0,0.2,0,0.3,0c1.2,0,2.3,0.3,3.3,1l19.7-19c-0.4-0.7-0.6-1.5-0.6-2.4c-0.1-1.6,0.5-3.2,1.6-4.4
		c1.1-1.2,2.6-1.9,4.2-2c0.1,0,0.2,0,0.3,0c1.4,0,2.8,0.5,3.9,1.4l37.5-23.7c-0.1-0.4-0.2-0.8-0.2-1.2c-0.1-1.6,0.5-3.2,1.6-4.4
		c1.1-1.2,2.6-1.9,4.2-2c0.1,0,0.2,0,0.3,0c1.5,0,2.9,0.6,4.1,1.6c0.3,0.3,0.6,0.6,0.9,1l48.5-14.7c0,0,0,0,0,0c0.1,0,0.2,0,0.3-0.1
		c0,0,0,0,0.1,0h40.1c0.2-0.5,0.6-0.9,0.9-1.4c1.1-1.2,2.6-1.9,4.2-2C276.3,58.3,276.5,58.3,276.6,58.3 M240,73.2
		c0.3-0.1,0.7-0.1,1-0.1c0.1,0,0.2,0,0.3,0c1.5,0,2.9,0.5,4,1.5l23.9-10h-35.4L240,73.2 M263.6,105.1c0.1-0.4,0.3-0.8,0.5-1.1
		l-19-20.1c-1,0.8-2.2,1.3-3.6,1.4c-0.1,0-0.2,0-0.3,0c-1.5,0-2.9-0.6-4.1-1.6c-1.2-1.1-1.9-2.6-2-4.2c-0.1-1.6,0.5-3.2,1.6-4.4
		c0.2-0.2,0.4-0.4,0.6-0.5l-6.6-9.2l-30.5,26.5c0.4,0.8,0.6,1.6,0.7,2.5c0,0,0,0,0,0l44.3,8.2L263.6,105.1 M305.7,86.7l17.2-10.3
		c0-0.2-0.1-0.5-0.1-0.7c0-0.3,0-0.7,0-1l-40.4-8.8c0,0.1-0.1,0.2-0.1,0.4L305.7,86.7 M191.3,89.7c0.9-0.7,2.1-1.1,3.2-1.1
		c0.1,0,0.2,0,0.3,0c1.3,0,2.5,0.4,3.5,1.1l26.6-23.1l-41.7,12.6c0,0.2,0,0.4,0.1,0.5c0,0.9-0.1,1.8-0.4,2.6L191.3,89.7 M300.7,86.2
		l-19.9-17.4c-1.1,1-2.4,1.6-3.9,1.7c-0.1,0-0.2,0-0.3,0c-1.5,0-2.9-0.6-4.1-1.6c-0.6-0.5-1.1-1.2-1.4-1.9l-24,10
		c0,0.1,0,0.1,0.1,0.2L300.7,86.2 M329.1,121l30.4-23.4c-0.3-0.6-0.4-1.3-0.5-2.1c0-0.9,0.1-1.8,0.4-2.6l-25.6-14
		c-0.9,1.3-2.4,2.2-4.1,2.5l-3.1,38.2C327.6,119.9,328.4,120.4,329.1,121 M323,119.7c0.2-0.1,0.5-0.2,0.8-0.2l3.1-38.4
		c-1.1-0.4-2.1-1.1-2.8-2l-16.7,10L323,119.7 M266.3,101.9c0.8-0.5,1.8-0.8,2.8-0.8c0.1,0,0.2,0,0.3,0c1.9,0,3.6,0.9,4.7,2.2
		L301,89.3l-53.6-9c-0.1,0.4-0.2,0.8-0.4,1.2L266.3,101.9 M138.2,115.5c0.8-0.5,1.8-0.8,2.8-0.8c0.1,0,0.2,0,0.3,0
		c1.3,0,2.5,0.4,3.5,1.1l27.3-18.7l2.4-11.5c-0.5-0.3-1.1-0.6-1.5-1c-0.1-0.1-0.3-0.3-0.4-0.4l-37.1,23.5c0.3,0.6,0.4,1.3,0.4,2
		c0.1,1.1-0.2,2.2-0.7,3.2L138.2,115.5 M200.2,117.9l-5.1-17.1c-0.1,0-0.1,0-0.2,0c-1.5,0-2.9-0.6-4.1-1.6c-1.2-1.1-1.9-2.6-2-4.2
		c-0.1-1.1,0.2-2.1,0.6-3l-8.3-7.3c-1,0.9-2.3,1.4-3.6,1.5c0,0,0,0,0,0l-2.4,11.3L200.2,117.9 M306.2,125.8l12.7-0.7
		c0.1-1.4,0.7-2.8,1.6-3.8l-15.7-30.8L275.3,106c0.1,0.3,0.1,0.6,0.1,0.9c0,0.7-0.1,1.4-0.2,2L306.2,125.8 M204,120.3l57.2-12.6
		l-16.3-2.3l-44.4-8.2c-0.3,0.5-0.6,1.1-1,1.5c-0.4,0.5-1,0.9-1.5,1.2L204,120.3 M370.5,122.4l21.3-1.6l-22.7-21
		c-0.4,0.3-0.8,0.6-1.2,0.8L370.5,122.4 M331,124.5l36.6-1.9l-2.6-21.3c-1.4,0-2.7-0.5-3.7-1.4l-30.5,23.5
		C330.8,123.8,330.9,124.1,331,124.5 M172.1,128.8c0.2-0.3,0.4-0.5,0.6-0.8c1.1-1.2,2.6-1.9,4.2-2c0.1,0,0.2,0,0.3,0
		c1.5,0,3,0.5,4.1,1.6c0.1,0.1,0.3,0.3,0.4,0.4l18.3-6.5l-25.9-21.2l-11.4,26.9L172.1,128.8 M159.8,126.5l10.3-24.5l-23.4,16
		c0.4,0.8,0.6,1.6,0.7,2.5c0,0.2,0,0.5,0,0.7L159.8,126.5 M230,128.1c1-1.8,2.8-3,5-3.1c0.1,0,0.2,0,0.3,0c1.5,0,2.9,0.5,4,1.5
		l23.2-16.1L209,122.2L230,128.1 M269.4,113.3c-1.4,0-2.8-0.5-3.9-1.4l-24.5,17c0.1,0.1,0.1,0.3,0.1,0.4l59.4-3.3l-26.9-14.6
		c-1,1.1-2.5,1.8-4.1,1.9C269.6,113.3,269.5,113.3,269.4,113.3 M108.5,132l26.7-11.1c0-1.2,0.3-2.4,0.9-3.4l-2.9-2.6
		c-0.9,0.6-2,1-3.1,1c-0.1,0-0.2,0-0.3,0c-1.3,0-2.5-0.4-3.6-1.2L108.5,132 M375.1,149.5l35.7-2.5c0.2-0.9,0.5-1.8,1.1-2.5
		l-17.3-20.9l-23.7,1.8L375.1,149.5 M106.8,169.9l29.7-45.4c-0.2-0.2-0.3-0.5-0.5-0.7l-28.7,11.9c0,0.3,0.1,0.5,0.1,0.8
		c0.1,2.6-1.4,4.9-3.7,5.9l1.8,27.2C106,169.6,106.4,169.7,106.8,169.9 M201.5,136.3l27.4-5.4l-24.9-7L201.5,136.3 M141.3,126.9
		c-0.2,0-0.4,0-0.5,0l-8.5,31.1c0.1,0.1,0.2,0.1,0.4,0.2l25.6-29.1l-11.7-5c-0.2,0.3-0.4,0.6-0.7,0.9c-1.1,1.2-2.6,1.9-4.2,2
		C141.5,126.9,141.4,126.9,141.3,126.9 M198.5,136.2l2.4-12l-17.9,6.3c0.1,0.3,0.1,0.6,0.1,0.9L198.5,136.2 M327.4,152.8l44.8-3.1
		l-4.2-24.2l-37.3,1.9c-0.7,2.2-2.7,3.8-5.1,4.1l-1.6,18.6C325.5,150.6,326.6,151.6,327.4,152.8 M320.4,150c0.2-0.1,0.5-0.1,0.7-0.2
		l1.6-18.7c-1.5-0.6-2.7-1.7-3.4-3.2l-11.2,0.6L320.4,150 M109.5,172l14.5-6.8c-0.1-0.5-0.2-1.1-0.2-1.7c0-3.2,2.4-5.8,5.5-6.1
		l7.9-28.8l-28.1,42.9C109.3,171.7,109.4,171.8,109.5,172 M268,165.6c0.8-0.5,1.7-0.8,2.7-0.8c0.1,0,0.2,0,0.3,0
		c2.2,0,4.1,1.1,5.2,2.9l39.7-11.6c-0.1-1.8,0.7-3.5,1.9-4.7L305,128.7l-63.7,3.5c-0.2,0.9-0.5,1.7-1,2.4L268,165.6 M167,148.7
		l6.6-2.4l1.2-8.5c-0.6-0.3-1.2-0.6-1.7-1.1c-1.2-1.1-1.9-2.6-2-4.2c0-0.3,0-0.6,0-0.8l-8.5-1.4L167,148.7 M135.2,160.6l29.1-10.8
		l-4.4-18.3l-25,28.5C135,160.1,135.1,160.3,135.2,160.6 M226.6,176.6l6.3-39.9c-0.6-0.3-1.1-0.6-1.6-1c-0.6-0.6-1.1-1.2-1.4-2
		l-27.7,5.4L226.6,176.6 M176.7,145.1l18.4-6.9l-12.3-3.8c-0.3,0.6-0.6,1.2-1.1,1.8c-1,1.2-2.5,1.8-4,2L176.7,145.1 M229.2,178.7
		l35.7-8.1c0.1-1.1,0.4-2.1,0.9-3l-27.8-31.1c-0.7,0.4-1.5,0.6-2.4,0.7L229.2,178.7 M224.5,178.7l-24.9-38.1l-23.1,28.3
		c0.7,0.9,1.2,2,1.4,3.3L224.5,178.7 M174.1,167.1l21-25.8l-18.8,7l-2.6,18.6C173.8,167,173.9,167.1,174.1,167.1 M78.2,181.5
		l20.2-5.4c0-0.2,0-0.3,0-0.5c0-2.7,1.8-5,4.2-5.8l-1.8-26.9c-0.4,0-0.7-0.1-1.1-0.2l-22.6,37.4C77.6,180.5,77.9,181,78.2,181.5
		 M171,165l2.2-15.4l-5.4,2L171,165 M380.5,180.6l16.4-1.4c0.2-1.1,0.7-2.2,1.5-3.1c1.1-1.2,2.6-1.9,4.2-2c0.1,0,0.2,0,0.3,0
		c0.1,0,0.2,0,0.4,0l9.7-21.4c-0.9-0.7-1.6-1.7-2-2.9l-35.4,2.5L380.5,180.6 M377.4,179.7l-4.7-27.1l-44.5,3.1c0,0.4,0,0.9-0.1,1.3
		L377.4,179.7 M166.1,170.2c0.5-1.1,1.4-2.1,2.5-2.7l-3.6-14.9l-29,10.8c0,0,0,0.1,0,0.1c0,0.3,0,0.6-0.1,0.9L166.1,170.2
		 M416.8,154.1c-0.4,0-0.8,0-1.2-0.1l-9.5,21c1.6,0.9,2.7,2.6,2.9,4.5l21.9,2.5c0.5-0.8,1.1-1.6,1.9-2.2l-14.5-25.9
		c-0.4,0.1-0.8,0.2-1.2,0.2C417,154.1,416.9,154.1,416.8,154.1 M305.2,185.6c1.1-1.2,2.6-2.1,4.3-2.2c0.1,0,0.2,0,0.2,0
		c0.2,0,0.4,0,0.5,0l8.3-22.5c-0.8-0.5-1.4-1.2-1.9-2l-39.7,11.5c0,0,0,0.1,0,0.1c0,0.5,0,1.1-0.1,1.6L305.2,185.6 M345,225.2
		l23.2-3.1c0.2-1.5,1-2.9,2.3-3.9c1-0.8,2.2-1.2,3.5-1.3l3.8-33.8l-50.9-23.4c-0.5,0.7-1.2,1.2-1.9,1.6l14.3,59.6c0.2,0,0.4,0,0.7,0
		C342.4,221.2,344.3,222.9,345,225.2 M336.3,221.1L322,161.9c-0.2,0-0.4,0-0.6,0l-8.3,22.4c1.6,1,2.7,2.8,2.8,4.9
		c0.1,1.5-0.4,3-1.3,4.1L336.3,221.1 M129.9,169.6c-1.7,0-3.3-0.7-4.4-1.9l-14.9,7c0,0.3,0.1,0.5,0.1,0.8c0,2.8-1.9,5.2-4.5,5.9
		l1.4,47.6l58.6-53.6c-0.4-0.7-0.6-1.5-0.6-2.3l-30.8-6C133.7,168.6,131.9,169.6,129.9,169.6 M264.6,196.7l3.6-20.4
		c-0.4-0.2-0.9-0.5-1.3-0.9c-0.6-0.6-1.1-1.2-1.4-1.9l-33.7,7.6L264.6,196.7 M281.4,194l22.4-4.9c0-0.3,0.1-0.6,0.1-0.9l-28.2-13.4
		c0,0.1-0.1,0.1-0.1,0.2c-0.4,0.4-0.8,0.8-1.3,1.1L281.4,194 M207.8,202.4c1-0.7,2.2-1.1,3.5-1.1c0.6,0,1.2,0.1,1.8,0.3l11.9-19.9
		l-47.7-6.6c-0.1,0.2-0.2,0.4-0.3,0.7L207.8,202.4 M267.6,197l10.9-2.4l-6.9-17.6c-0.1,0-0.1,0-0.2,0c-0.1,0-0.2,0-0.3,0L267.6,197
		 M111.4,229.6l47.5-11.2c-0.1-1.2,0.2-2.4,0.8-3.5c0.8-1.4,2.1-2.4,3.7-2.8c0.4-0.1,0.9-0.2,1.3-0.2l4.4-33.5
		c-0.4-0.2-0.7-0.4-1-0.6L111.4,229.6 M170.5,215.6l20.2-4.8l-17.8-32c-0.3,0.1-0.6,0.1-1,0.1l-4.5,33.6c0.1,0.1,0.3,0.1,0.4,0.2
		C169.2,213.3,170,214.3,170.5,215.6 M87.6,203l12.9-22.9c-0.4-0.4-0.8-0.8-1.1-1.3l-20.5,5.5c0,1.6-0.6,3-1.6,4L87.6,203
		 M193.7,210.1l11.5-2.7c0-1,0.3-1.9,0.7-2.7l-29.3-25.4L193.7,210.1 M104.6,227.4l-1.4-45.9c0,0-0.1,0-0.1,0l-13.7,24.3
		L104.6,227.4 M376.9,216.6l21.1-32.7c-0.4-0.5-0.7-1.1-0.9-1.7l-16.5,1.4L376.9,216.6 M420.8,199.4l10.3-11.2
		c-0.1-0.2-0.2-0.3-0.3-0.5c-0.5-0.9-0.7-1.9-0.7-2.9l-21.6-2.4c-0.2,0.6-0.6,1.2-1.1,1.8L420.8,199.4 M217,205l43.9-6.9L228,182.5
		l-12.4,20.6C216.2,203.6,216.7,204.3,217,205 M395.7,226.5l11.6-12.5l-5.5-27.7c-0.5-0.1-1-0.3-1.5-0.5L378.8,219
		c0.1,0.1,0.1,0.1,0.2,0.2c0.7,1,1.2,2.1,1.3,3.3L395.7,226.5 M409.8,211.3l9-9.8l-13.7-15.6c-0.1,0-0.3,0.1-0.4,0.1L409.8,211.3
		 M74.3,226.7L86,205.9L74.9,190c-0.2,0.1-0.4,0.1-0.6,0.2V226.7 M445.7,227.7c0.1-0.1,0.2-0.1,0.3-0.1l-8.9-36.6
		c-0.3,0-0.5,0.1-0.8,0.1c-0.6,0-1.2-0.1-1.8-0.3c-0.4-0.1-0.8-0.3-1.2-0.5l-10.5,11.4L445.7,227.7 M293.7,225.5c0.2,0,0.5,0,0.8,0
		c0.2,0,0.5,0,0.7,0c2.4,0.3,4.3,1.9,5,4.1l32.9-3c0-0.1,0-0.2,0-0.4c0.1-1.1,0.5-2,1.2-2.9l-21.9-28.2c-0.7,0.3-1.4,0.5-2.1,0.5
		c-0.1,0-0.2,0-0.3,0c-2.4,0-4.6-1.5-5.6-3.6l-21.9,4.7L293.7,225.5 M290.1,224.3l-10.6-27l-11.1,2.4L290.1,224.3 M259.9,232.4
		l17.3-1.2l-12.3-30.8l-47.4,7.4c0,0.4-0.1,0.7-0.2,1L259.9,232.4 M69.5,231.8l1.9-0.6v-28.8l-4.5,27.4
		C67.9,230.2,68.8,230.9,69.5,231.8 M431,243.6c1.1-0.9,2.5-1.5,4-1.5c0.3,0,0.5,0,0.8,0c0.8,0.1,1.6,0.4,2.3,0.8l6.1-6.4
		c-0.9-1.2-1.4-2.8-1.2-4.4c0.1-0.8,0.4-1.6,0.8-2.3l-22.9-26.1l-10.3,11.1l3.3,16.6L431,243.6 M280.2,231l8.2-0.6
		c0.2-0.9,0.5-1.8,1-2.5l-19.2-21.8L280.2,231 M75.3,230.8h28.1l-15.6-22.3L75.3,230.8 M199.6,220.6l7-9.4c-0.3-0.3-0.5-0.7-0.7-1.1
		l-10.7,2.5L199.6,220.6 M228.7,234.6l25.7-1.7l-38.6-21.3c-0.1,0.1-0.2,0.2-0.2,0.3L228.7,234.6 M205.6,231.5
		c0.4-0.1,0.7-0.1,1.1-0.1c2.6,0,5,1.7,5.8,4.3l13-0.9L213,213.2c-0.5,0.2-1.1,0.2-1.7,0.2c-0.8,0-1.7-0.2-2.4-0.5l-7.8,10.4
		L205.6,231.5 M159.6,273.7l38.1-50.6l-5.4-9.7l-21.3,5c-0.1,0.9-0.3,1.7-0.8,2.5c-0.8,1.4-2.1,2.4-3.7,2.8c-0.1,0-0.3,0.1-0.4,0.1
		l-6.6,49.8C159.5,273.7,159.5,273.7,159.6,273.7 M410.6,230.3l-2.6-12.8l-9.1,9.8L410.6,230.3 M153.9,274.3c0.8-0.5,1.7-0.9,2.7-1
		l6.6-49.6c-1.4-0.4-2.6-1.3-3.3-2.6l-50.5,12L153.9,274.3 M339.2,233c-0.3,0-0.5,0-0.8,0c-2.2-0.3-4-1.7-4.8-3.6l-33.1,3.1
		c0,0.1,0,0.2,0,0.3l55.7,26.5c0.2-0.2,0.4-0.3,0.6-0.5c1.1-0.8,2.4-1.3,3.7-1.3c0.1,0,0.3,0,0.4,0l10.4-29.1
		c-1.3-0.7-2.3-1.9-2.8-3.3l-23.3,3.1c-0.3,1.4-1.1,2.7-2.2,3.6C341.8,232.6,340.5,233,339.2,233 M389,233.8l4.5-4.9l-13.5-3.4
		L389,233.8 M199.7,278.5l5.2-35.2c-2-0.6-3.6-2.2-4.1-4.3c-0.6-2.4,0.3-4.9,2.1-6.3l-3.7-6.7l-37.3,49.5c0.6,0.7,1,1.6,1.2,2.5
		L199.7,278.5 M374.2,229.1c-0.1,0-0.1,0-0.2,0l-10.2,28.5l23.1-21.7l-8.8-8.2c0,0-0.1,0.1-0.1,0.1
		C376.9,228.7,375.6,229.1,374.2,229.1 M408.8,255.1c0.7-0.5,1.4-0.8,2.2-1v-20.7l-14.3-3.7l-5.6,6.1L408.8,255.1 M284.6,242.1
		C284.7,242.1,284.7,242.1,284.6,242.1c0.8,0,1.6,0.1,2.3,0.4l3.5-6.5c-0.3-0.2-0.5-0.5-0.8-0.8c-0.4-0.6-0.8-1.2-1-1.9l-7.3,0.5
		L284.6,242.1 M80.6,287.2l19.3-33.8c-0.9-1.1-1.5-2.5-1.5-4c0-3,2.2-5.6,5.1-6l1-9.6H74.5L80.6,287.2 M280.5,243.8
		c0.4-0.4,0.8-0.7,1.3-0.9l-3.5-8.8l-13.7,0.9L280.5,243.8 M75.9,272l-4.3-37.8l-1,0.3c0,0.3,0.1,0.6,0.1,0.8c0,2.3-1.2,4.2-3.1,5.3
		L75.9,272 M417.4,256.7l11.7-6.8c-0.2-0.8-0.3-1.6-0.2-2.5c0.1-0.5,0.2-1,0.4-1.5L414,235.1v19.1c1.3,0.3,2.4,1.1,3.2,2.1
		C417.2,256.5,417.3,256.6,417.4,256.7 M146.1,271.1l-38.7-35.8l-0.9,8.3c2.4,0.8,4.1,3.1,4.1,5.8c0,0.3,0,0.5-0.1,0.8L146.1,271.1
		 M322.4,269l32-6.5c0-0.3,0.1-0.6,0.2-0.9l-55.5-26.3c0,0-0.1,0.1-0.1,0.1L322.4,269 M252,274.8c0.4-0.1,0.7-0.1,1-0.1
		c1.3,0,2.5,0.4,3.5,1.1l23.3-23.9c-0.5-0.6-0.8-1.4-1.1-2.2c-0.3-1.2-0.3-2.4,0.1-3.5l-19.7-10.9l-28.8,2L252,274.8 M294.5,237.6
		c-0.3,0-0.5,0-0.8,0c-0.2,0-0.5-0.1-0.7-0.1l-3.7,6.8c0.6,0.7,1,1.5,1.3,2.4l0,0c0.3,1,0.3,2,0,3l25.9,16l-19.8-28.5
		C296,237.5,295.2,237.6,294.5,237.6 M247.2,279.2c0.3-1.3,1.1-2.4,2.1-3.2l-22.2-38.4l-14.4,1c-0.4,2.3-2.1,4.2-4.4,4.8
		c-0.1,0-0.3,0.1-0.4,0.1l-5.2,35.1L247.2,279.2 M445.4,255.1c0.6-0.4,1.3-0.7,2-0.9v-15.4c-0.4-0.1-0.7-0.2-1.1-0.4l-6.3,6.6
		c0.7,1.2,1.1,2.6,0.9,4c-0.1,0.7-0.3,1.3-0.6,1.9L445.4,255.1 M387.6,279.9v-40.6l-22.1,20.8c0.8,1.2,1.2,2.7,1,4.2
		c0,0.3-0.1,0.6-0.2,0.9L387.6,279.9 M416.1,295.3l-4.4-29.2c-0.1,0-0.1,0-0.2,0c-1.6-0.2-3.1-1-4.1-2.3c-1-1.3-1.4-2.9-1.2-4.5
		c0.1-0.7,0.3-1.4,0.6-2l-16.4-17.7v42.2L416.1,295.3 M71.8,292.9l6.1-2.1l-11.6-43.5l1.1,43C69.2,290.6,70.8,291.5,71.8,292.9
		 M323.1,286.8c0.4-1.2,1.1-2.2,2.1-3c0,0,0,0,0,0l-4.6-12.1l-31.3-19.4c-0.8,0.9-1.8,1.5-3,1.8l-2.5,20.8c0.6,0.1,1.2,0.4,1.7,0.7
		c1.4,0.8,2.4,2.1,2.8,3.7c0.1,0.4,0.2,0.9,0.2,1.3L323.1,286.8 M435.8,302.8c0.4-1,1-1.9,1.9-2.5c0.5-0.4,1-0.6,1.5-0.9l-5-45.2
		c-1.4-0.2-2.6-0.8-3.6-1.8l-12.1,7c0,0.4,0,0.9,0,1.3c-0.2,1.6-1,3.1-2.3,4.1c-0.4,0.3-0.9,0.6-1.4,0.8l4.7,31.2L435.8,302.8
		 M134.8,319.1c0.4-0.1,0.9-0.1,1.3-0.1c0.4,0,0.7,0,1,0.1l16.3-34.9c-1.4-1.1-2.3-2.8-2.3-4.7c0-0.6,0.1-1.2,0.3-1.7l-41.9-24.7
		c-0.3,0.4-0.7,0.8-1.1,1.1L134.8,319.1 M441.7,295.6l4.8-29.9c-0.9-0.4-1.8-1-2.4-1.9c-1-1.3-1.4-2.9-1.2-4.5
		c0.1-0.7,0.3-1.4,0.6-2l-5-4.2c-0.5,0.3-1,0.6-1.5,0.8L441.7,295.6 M259,279.3L259,279.3C259,279.3,259,279.3,259,279.3l17.5,0.1
		c0.5-2.1,2.1-3.8,4.3-4.4l2.5-20.8c-0.4-0.1-0.8-0.2-1.2-0.4l-23.6,24.3C258.7,278.4,258.8,278.8,259,279.3 M131.4,321.1
		c0.2-0.3,0.5-0.5,0.7-0.7l-26.3-65.1c-0.4,0.1-0.8,0.1-1.3,0.1c-0.8,0-1.5-0.2-2.2-0.4l-20.7,36.2L131.4,321.1 M327.9,282.6
		c0.3-0.1,0.7-0.1,1-0.1c0.3,0,0.5,0,0.8,0c1.2,0.2,2.4,0.7,3.3,1.5l21.8-18.3c0-0.1,0-0.1-0.1-0.2l-31,6.2L327.9,282.6 M387,314.2
		c0.6-0.4,1.2-0.8,1.9-1l-1.3-29.8l-22.8-15.8c-0.5,0.6-1.2,1-1.9,1.4l4,24.8c1.5,0.3,2.8,1.1,3.7,2.2c1,1.3,1.4,2.9,1.2,4.5
		c0,0.4-0.1,0.7-0.2,1.1L387,314.2 M360.9,296.3c0.3-0.5,0.8-0.9,1.2-1.3c0.6-0.5,1.2-0.8,1.9-1l-3.9-24.5c-0.1,0-0.2,0-0.4,0
		c-1.2-0.2-2.3-0.7-3.2-1.4l-21.8,18.4c0.3,0.9,0.5,1.9,0.3,2.9c0,0,0,0,0,0.1L360.9,296.3 M198.2,288.8l1.1-7.4l-30.3-0.5
		L198.2,288.8 M228,296.9l19.6-13.5c-0.1-0.3-0.3-0.6-0.4-1c0-0.1,0-0.1,0-0.2l-44.9-0.7l-1.2,8.1L228,296.9 M253.1,286.9
		c-0.4,0-0.9-0.1-1.3-0.2l-6.7,10.7c0.1,0.1,0.2,0.2,0.3,0.3l30.1-15.4H259c-0.5,2.1-2.1,3.8-4.4,4.4
		C254.1,286.8,253.6,286.9,253.1,286.9 M191.9,316.1c0.4-0.2,0.7-0.3,1.1-0.4c0.4-0.1,0.8-0.2,1.2-0.2l3.5-23.7l-35.2-9.5
		c-0.1,0.2-0.2,0.3-0.3,0.5l6.2,7L191.9,316.1 M300.8,331.1c0.2,0,0.4,0,0.6,0c0.6,0,1.1,0.1,1.7,0.2l21.9-38c-1-0.9-1.8-2.1-2-3.5
		l-35-6.3c-0.1,0.2-0.1,0.3-0.2,0.4c-0.6,1.1-1.5,1.9-2.6,2.4L300.8,331.1 M297,332.9c0.3-0.3,0.7-0.6,1-0.9l-15.8-45.2
		c-1.8-0.1-3.5-1-4.6-2.4l-30.8,15.8c0.3,1.1,0.2,2.3-0.1,3.3L297,332.9 M152.7,322.9l35.9-2.4c0.2-0.9,0.5-1.8,1.1-2.5L160,284.7
		c-0.7,0.4-1.4,0.6-2.2,0.7L152.7,322.9 M394.5,314.3l20.9-16.1l-24.7-13l1.2,28c0.7,0.1,1.3,0.4,1.9,0.7
		C394,314,394.2,314.2,394.5,314.3 M235.5,298.9c0.8-1.4,2.1-2.6,3.8-3c0.5-0.1,1-0.2,1.5-0.2c0.6,0,1.2,0.1,1.7,0.2l6.2-9.9
		l-17.1,11.8L235.5,298.9 M142,323.6l7.7-0.5l4.7-34.3l-14.6,31.4C140.9,321,141.6,322.2,142,323.6 M333,329.3l18.2-3.7l10.7-21
		c-1.6-1.3-2.5-3.3-2.2-5.5c0,0,0,0,0,0l-25.9-6.9c-0.3,0.5-0.7,0.9-1.2,1.3c-0.6,0.5-1.2,0.8-1.9,1L333,329.3 M198.7,317.1l26.1-18
		l-24.2-6.5l-3.5,23.5C197.7,316.3,198.2,316.6,198.7,317.1 M80.3,307.7l-1.8-13.9l-5.6,1.9c0,0.2,0.1,0.5,0.1,0.8
		c0,1.2-0.4,2.4-1,3.4L80.3,307.7 M306.9,334.5l23.3-4.7l-2.3-35.2c-0.1,0-0.1,0-0.2,0l-22,38.2
		C306.1,333.3,306.5,333.9,306.9,334.5 M100.5,326.7l29.5-2.3c0-0.2,0.1-0.4,0.1-0.7l-48.6-29.2l2.1,16.2L100.5,326.7 M207.8,314.3
		l27.1-11.7c0-0.3-0.1-0.6-0.1-1l-6.3-1.7L207.8,314.3 M428.7,333.2C428.7,333.2,428.7,333.2,428.7,333.2c0.3,0,0.6,0,0.8,0
		c0,0,0,0,0,0l8.8-22.8c-0.7-0.4-1.2-0.9-1.7-1.5c-0.7-0.9-1.1-2-1.2-3.1l-15.2-5.5L428.7,333.2 M411.4,338.9l4.7-37.7l-19.9,15.4
		c0.1,0.3,0.3,0.6,0.3,0.9c0.4,1.6,0.2,3.2-0.6,4.6c0,0.1-0.1,0.1-0.2,0.2L411.4,338.9 M84.3,338.2l-3.4-25.9L69.9,302L84.3,338.2
		 M365.8,305.9c-0.3,0-0.5,0-0.8,0c-0.2,0-0.3,0-0.5-0.1l-9.7,19l29.7-6c0-0.8,0.2-1.6,0.6-2.3l-15.1-12.3
		C369,305.3,367.5,305.9,365.8,305.9 M226.8,379.2c0.2-0.1,0.4-0.1,0.5-0.2c0.1,0,0.2,0,0.2,0l10.7-71.7c-0.9-0.4-1.7-1.1-2.4-1.9
		l-35.4,15.3c0.3,2-0.4,4-1.8,5.3L226.8,379.2 M416.6,356.6l7.9-13.1c-0.2-0.2-0.4-0.4-0.5-0.6c-1-1.3-1.4-2.9-1.2-4.5
		c0.2-1.6,1-3.1,2.3-4.1c0.3-0.2,0.5-0.4,0.8-0.5l-7.3-28.2l-4.6,36.5l1.3,14C415.7,356.3,416.2,356.5,416.6,356.6 M232.7,380.2
		l62.9-41.1c-0.1-0.1-0.1-0.3-0.2-0.4c-0.3-1.1-0.3-2.2,0.1-3.3l-50.4-29.3c-0.7,0.7-1.7,1.3-2.7,1.6c-0.4,0.1-0.8,0.2-1.2,0.2
		l-10.7,71.2C231.3,379.3,232.1,379.7,232.7,380.2 M89.4,343.2l8.7-14.8l-13.9-13l3.6,27.3C88.4,342.9,88.9,343,89.4,343.2
		 M339.5,361.5h20.2l26.5-38.4c-0.4-0.4-0.7-0.9-1-1.4l-32,6.5l-15.5,30.4C338.5,359.3,339.1,360.3,339.5,361.5
		C339.5,361.5,339.5,361.5,339.5,361.5 M149.9,355.5l39.1-31.3c-0.1-0.3-0.2-0.5-0.3-0.8l-36.5,2.4l-3.9,28.4
		C148.9,354.6,149.5,355,149.9,355.5 M390.7,325.2c-0.7,0-1.5-0.1-2.1-0.4l-24.1,35.1l45.5-18.2l-16.3-17.2
		c-0.4,0.3-0.9,0.5-1.4,0.6C391.7,325.1,391.2,325.2,390.7,325.2 M145.5,353.4l3.8-27.4l-7.3,0.5c-0.4,1.8-1.6,3.2-3.2,4
		L145.5,353.4C145.5,353.4,145.5,353.4,145.5,353.4 M223.6,382.1c0.2-0.4,0.5-0.8,0.8-1.2l-28.2-53.5c0,0-0.1,0-0.1,0
		c-0.5,0.1-1,0.2-1.6,0.2c-1.3,0-2.5-0.4-3.6-1.2l-39.7,31.7c0.1,0.4,0.1,0.9,0.1,1.3c0,0.4,0,0.8-0.1,1.1L223.6,382.1 M139.5,375
		l3.4-9.9c-2.1-0.9-3.6-3.1-3.6-5.6c0-2.4,1.4-4.4,3.3-5.4l-6.7-23c-2.5-0.1-4.6-1.6-5.5-3.8l-27.6,2.1L139.5,375 M335.1,357.1
		l14.4-28.2l-16.3,3.3l1.6,24.8C335,357.1,335.1,357.1,335.1,357.1 M122.6,392l-22.9-60.5l-8,13.5c0.8,1,1.3,2.3,1.3,3.7
		c0,1.5-0.5,2.9-1.4,3.9L122.6,392 M330,358.1c0.6-0.4,1.2-0.8,2-1l-1.6-24.3l-22.9,4.6c0,0.8-0.2,1.6-0.6,2.3L330,358.1
		 M126.3,393.7c0.4-0.1,0.8-0.1,1.1-0.1c0.6,0,1.3,0.1,1.9,0.3l8.9-15.8l-33.6-41.8L126.3,393.7 M277.3,403c0.8-1.2,2-2.2,3.6-2.6
		c0.5-0.1,1-0.2,1.5-0.2c0.1,0,0.2,0,0.2,0l15.7-57.7c-0.4-0.2-0.8-0.5-1.2-0.9l-62.7,41c0.1,0.3,0.2,0.5,0.3,0.8
		c0.2,0.9,0.3,1.8,0.1,2.7L277.3,403 M301.4,343.3c0,0-0.1,0-0.1,0L285.5,401c0.3,0.1,0.5,0.3,0.7,0.5l42-35.6
		c-0.2-0.4-0.4-0.8-0.5-1.3c-0.4-1.5-0.2-3,0.4-4.2l-23-18.3c-0.6,0.5-1.4,0.8-2.2,1.1C302.4,343.2,301.9,343.3,301.4,343.3
		 M368.1,361.5H408c0.1-0.8,0.4-1.7,0.8-2.4c0.8-1.4,2.1-2.3,3.6-2.8l-1.1-12.1L368.1,361.5 M214.4,382.4L151,363.6l14.8,15
		L214.4,382.4 M369.2,401.5c0.1,0,0.3,0,0.4,0c1.1,0,2.1,0.3,3.1,0.8c0.2,0.1,0.4,0.3,0.6,0.4l10.3-9.9l25.9-26.7
		c-0.4-0.5-0.7-1-1-1.6h-46.3l2.3,17.6c0.7,0.1,1.4,0.4,2,0.7c1.4,0.8,2.4,2.1,2.8,3.7c0.4,1.6,0.2,3.2-0.6,4.6
		c-0.5,0.8-1.1,1.5-1.9,2L369.2,401.5 M351.2,375.5l6.7-11h-18.4c-0.1,0.4-0.2,0.7-0.4,1L351.2,375.5 M161.3,378.2l-13.1-13.3
		c-0.7,0.4-1.5,0.6-2.4,0.7l-3.8,11.1L161.3,378.2 M360.1,382.9c0.4-0.3,0.9-0.5,1.4-0.6l-2-14.9l-6.1,10L360.1,382.9 M333.6,369.1
		c-1.2,0-2.4-0.4-3.4-1.1L288,403.8c0,0,0,0,0,0l53.5-12.4l8.2-13.4l-12.3-10.2c-0.6,0.5-1.4,0.9-2.2,1.1
		C334.6,369,334.1,369.1,333.6,369.1 M157.5,415.5c0.4-0.1,0.9-0.2,1.4-0.2c2.8,0,5.2,1.9,5.9,4.5l28.4-5.7c0-1,0.3-1.9,0.8-2.8
		c0,0,0.1-0.1,0.1-0.1l-29.5-29.8l-22.2-1.8L157.5,415.5 M345.5,390.5l11.8-2.7c0.1-1,0.3-1.9,0.8-2.7l-6.2-5.1L345.5,390.5
		 M154.2,417.5c0.2-0.2,0.4-0.4,0.6-0.6l-15.1-35.6l-8,14.1c1.1,1.1,1.8,2.6,1.8,4.3c0,1-0.3,2-0.7,2.8L154.2,417.5 M196.1,409.2
		c0.5-0.3,1-0.5,1.5-0.7c0.5-0.1,1-0.2,1.6-0.2c1.1,0,2.1,0.3,3.1,0.8c0,0,0,0,0,0l21.2-21.5c-0.2-0.4-0.3-0.7-0.4-1.2
		c0-0.2-0.1-0.3-0.1-0.5l-54-4.3L196.1,409.2 M232.6,406.7l42.7-1.4l-41.7-16.6c-0.8,1-1.9,1.8-3.2,2.1c0,0,0,0,0,0L232.6,406.7
		 M204.7,411.8l25-4.8l-2.2-16.2c-0.8-0.2-1.5-0.5-2.1-1l-21,21.3C204.5,411.4,204.6,411.6,204.7,411.8 M319.8,433.5l44-23.9
		c-0.1-0.2-0.1-0.3-0.2-0.5c-0.4-1.6-0.2-3.2,0.6-4.6c0.5-0.9,1.2-1.6,2.1-2.1l-2.4-8.3c-0.2,0-0.4,0-0.6,0c0,0,0,0,0,0
		c-2.4,0-4.6-1.4-5.5-3.6l-14.5,3.4l-23.8,39.2C319.6,433.2,319.7,433.4,319.8,433.5 M311.3,432.3c0.6-0.5,1.3-0.8,2.1-1
		c0.5-0.1,1-0.2,1.5-0.2c0.7,0,1.5,0.1,2.2,0.4l22.3-36.6l-50.9,11.8c-0.1,0.9-0.3,1.8-0.8,2.7c0,0.1-0.1,0.1-0.1,0.2L311.3,432.3
		 M249.3,438.9c0.1,0,0.2-0.1,0.4-0.1c0.5-0.1,1-0.2,1.6-0.2c1.1,0,2.1,0.3,3.1,0.8c0,0,0,0,0,0l23.4-29.3c-0.5-0.6-0.8-1.2-1-1.9
		l-42.9,1.4L249.3,438.9 M246.3,441c0.1-0.2,0.3-0.4,0.5-0.6l-16.2-30.6l-25.3,4.9c0,0.5-0.1,1-0.3,1.5L246.3,441 M282.4,412.4
		c-0.8,0-1.6-0.2-2.4-0.5l-23.7,29.6c0.3,0.5,0.6,1,0.7,1.6c0,0.1,0,0.2,0.1,0.3l51.7-6.3c0-0.9,0.2-1.7,0.6-2.5l-24-23
		c-0.5,0.3-0.9,0.5-1.5,0.6C283.4,412.3,282.9,412.4,282.4,412.4 M201.1,437.5l-2.5-17c-2.1-0.2-4-1.5-4.9-3.4l-28.9,5.8
		c0,0.1-0.1,0.3-0.1,0.4L201.1,437.5 M244.5,443.3l-41.1-24.6c-0.6,0.6-1.2,1-2,1.3l2.7,18.4L244.5,443.3 M276.6,57.3
		c-0.1,0-0.2,0-0.4,0c-1.9,0.1-3.6,0.9-4.9,2.3c-0.3,0.3-0.5,0.7-0.8,1H231h-0.1l-0.1,0c-0.1,0-0.3,0-0.4,0.1l0,0l-0.1,0l-47.9,14.5
		c-0.2-0.2-0.4-0.4-0.5-0.5c-1.3-1.2-3-1.8-4.7-1.8c-0.1,0-0.3,0-0.4,0c-1.9,0.1-3.6,0.9-4.9,2.3c-1.3,1.4-1.9,3.2-1.8,5.1
		c0,0.2,0,0.5,0.1,0.7l-36.3,23c-1.2-0.8-2.6-1.2-4-1.2c-0.1,0-0.2,0-0.4,0c-1.9,0.1-3.6,0.9-4.9,2.3c-1.3,1.4-1.9,3.2-1.8,5.1
		c0,0.7,0.2,1.4,0.4,2.1l-18.7,18c-1-0.5-2.1-0.8-3.2-0.8c-0.1,0-0.2,0-0.4,0c-3.9,0.2-6.9,3.5-6.7,7.5c0.1,1.6,0.7,3.1,1.7,4.3
		l-21.7,36c-0.5-0.1-0.9-0.1-1.4-0.1c-3.9,0-7.1,3.2-7.1,7.1c0,2.6,1.4,4.9,3.6,6.2l-6.2,37.9c-3.3,0.7-5.7,3.5-5.7,7
		c0,3,2,5.8,4.8,6.7l1.3,48c-2.3,1.2-3.8,3.6-3.8,6.3c0,3.7,2.9,6.8,6.6,7.1l15.9,40c-1.5,1.3-2.4,3.3-2.4,5.3
		c0,3.9,3.2,7.1,7.1,7.1c0.7,0,1.3-0.1,1.9-0.3l32.3,40.9c-0.5,1-0.7,2.1-0.7,3.1c0,3.9,3.2,7.1,7.1,7.1c1.2,0,2.4-0.3,3.4-0.9
		l20.9,14.7c0,0.3-0.1,0.6-0.1,0.9c0,3.9,3.2,7.1,7.1,7.1c1.7,0,3.3-0.6,4.5-1.6L202,442c0.2,0.1,0.4,0.1,0.6,0.2l42,5.1
		c1.1,2.6,3.7,4.4,6.6,4.4c0.6,0,1.2-0.1,1.8-0.2c1.8-0.5,3.4-1.6,4.3-3.3c0.2-0.3,0.3-0.6,0.4-0.9L309,441c0.6,0.9,1.4,1.7,2.4,2.3
		c1.1,0.6,2.3,1,3.6,1c0.6,0,1.2-0.1,1.8-0.2c3.3-0.9,5.5-3.9,5.3-7.3l43.4-23.5c1.2,0.9,2.7,1.4,4.2,1.4c0.6,0,1.2-0.1,1.8-0.2
		c3.8-1,6.1-4.9,5.1-8.7c0-0.2-0.1-0.4-0.2-0.5l10-9.6l25.8-26.6c0.7,0.2,1.3,0.3,2,0.3c0.6,0,1.2-0.1,1.8-0.2
		c3.8-1,6.1-4.9,5.1-8.7c-0.2-0.7-0.5-1.3-0.8-1.9l7.4-12.2c0.1,0,0.3,0.1,0.4,0.1c0.3,0,0.6,0.1,0.9,0.1c3.6,0,6.6-2.7,7-6.2
		c0.3-2.3-0.6-4.7-2.3-6.2l8.4-21.7c3.4-0.2,6.2-2.8,6.6-6.2c0.4-2.8-1-5.5-3.4-6.9l5.2-32c1.1-0.2,2.1-0.7,3-1.3
		c1.5-1.2,2.5-2.8,2.7-4.7c0.2-1.9-0.3-3.7-1.4-5.2c-0.8-1.1-1.9-1.8-3.1-2.3v-13.9c0.7-0.3,1.3-0.6,1.9-1c1.5-1.2,2.5-2.8,2.7-4.7
		c0.2-1.9-0.3-3.7-1.4-5.2c-1.2-1.5-2.8-2.5-4.7-2.7c-0.1,0-0.2,0-0.2,0l-8.7-35.6c2.4-2.1,3.2-5.7,1.6-8.7
		c-0.9-1.7-2.4-2.9-4.2-3.5c-0.7-0.2-1.4-0.3-2.1-0.3c0,0-0.1,0-0.1,0l-14-25.1c1.2-1.4,1.8-3.2,1.7-5c-0.2-3.8-3.3-6.7-7.1-6.7
		c-0.1,0-0.2,0-0.4,0c-0.7,0-1.4,0.2-2,0.4l-17.2-20.9c-0.1-0.1-0.2-0.2-0.2-0.2l-25-23.1c0.2-0.7,0.3-1.5,0.3-2.3
		c-0.2-3.8-3.3-6.7-7.1-6.7c-0.1,0-0.2,0-0.4,0c-1.3,0.1-2.6,0.5-3.6,1.2L336,75.6c0-0.2,0-0.4,0-0.6c-0.2-3.8-3.3-6.7-7.1-6.7
		c-0.1,0-0.3,0-0.4,0c-2,0.1-3.8,1-5.1,2.5l-40.2-8.7C282.3,59.3,279.6,57.3,276.6,57.3L276.6,57.3z M235.8,65.6h28.4l-18.8,7.8
		c-1.2-0.9-2.7-1.4-4.1-1.4c-0.1,0-0.3,0-0.4,0c-0.2,0-0.3,0-0.5,0L235.8,65.6L235.8,65.6z M201.5,92.1l29.1-25.3l5.4,7.6
		c-1.3,1.4-1.9,3.2-1.8,5.1c0.1,1.9,0.9,3.6,2.3,4.9c1.3,1.2,3,1.8,4.7,1.8c0.1,0,0.2,0,0.4,0c1.2-0.1,2.4-0.4,3.4-1.1l17.7,18.8
		l-17.4-2.4l-43.6-8C201.8,93,201.6,92.6,201.5,92.1L201.5,92.1z M305.8,85.5l-20.4-17.9l36.5,7.9c0,0.1,0,0.2,0,0.2
		c0,0,0,0.1,0,0.1L305.8,85.5L305.8,85.5z M250.3,76.8l20.3-8.5c0.3,0.5,0.7,1,1.2,1.4c1.3,1.2,3,1.8,4.7,1.8c0.1,0,0.2,0,0.4,0
		c1.4-0.1,2.7-0.6,3.8-1.4l16.6,14.5L250.3,76.8L250.3,76.8z M184.3,79.9l36.5-11.1l-22.5,19.6c-1-0.6-2.2-0.9-3.4-0.9
		c-0.1,0-0.3,0-0.4,0c-1.1,0.1-2.1,0.4-3.1,0.9L184,82C184.2,81.3,184.3,80.6,184.3,79.9L184.3,79.9z M330.8,82.3
		c1.3-0.3,2.5-1.1,3.4-2l24.1,13.2c-0.2,0.7-0.3,1.4-0.2,2.2c0,0.6,0.1,1.1,0.3,1.7l-29.2,22.5c-0.4-0.3-0.9-0.6-1.4-0.8L330.8,82.3
		L330.8,82.3z M308.7,89.5l15.2-9.1c0.6,0.6,1.2,1,2,1.4l-2.9,35.6L308.7,89.5L308.7,89.5z M266.5,100.7l-18.2-19.3l49.6,8.3
		l-23.6,12.3c-1.3-1.3-3.1-2-4.9-2c-0.1,0-0.2,0-0.4,0C268.1,100.1,267.3,100.4,266.5,100.7L266.5,100.7z M136.7,108.1l35.8-22.6
		c0.3,0.2,0.6,0.5,0.9,0.7l-2.2,10.4l-26.5,18.1c-1.1-0.6-2.2-0.9-3.5-0.9c-0.1,0-0.2,0-0.4,0c-0.9,0-1.8,0.3-2.6,0.6l-1.9-1.7
		c0.4-1,0.6-2,0.5-3C137,109,136.9,108.5,136.7,108.1L136.7,108.1z M178.3,87c1-0.2,1.9-0.5,2.8-1.1l7.1,6.3
		c-0.3,0.9-0.5,1.9-0.4,2.8c0.1,1.9,0.9,3.6,2.3,4.9c1.2,1.1,2.6,1.7,4.2,1.8l4,13.3l-22.1-18L178.3,87L178.3,87z M276.4,106.5
		l28-14.6l14.9,29.3c-0.7,0.9-1.1,1.9-1.3,3l-11.6,0.6l-30-16.4c0.1-0.5,0.1-1,0.1-1.5C276.4,106.7,276.4,106.6,276.4,106.5
		L276.4,106.5z M199,100.4c0.4-0.3,0.8-0.6,1.1-1c0.3-0.3,0.6-0.7,0.8-1.1l43.7,8.1l10.9,1.5l-50.9,11.2L199,100.4L199,100.4z
		 M368.9,101.2C369,101.2,369,101.2,368.9,101.2l20.5,18.8l-18,1.4L368.9,101.2L368.9,101.2z M332.4,123.4l28.8-22.2
		c0.9,0.6,1.8,0.9,2.8,1.1l2.4,19.4L332.4,123.4L332.4,123.4z M164.1,126.5l10.4-24.5l23.5,19.2l-16.1,5.7c0,0,0,0,0,0
		c-1.3-1.2-3-1.8-4.8-1.8c-0.1,0-0.2,0-0.4,0c-1.9,0.1-3.6,0.9-4.9,2.3c-0.1,0.1-0.2,0.2-0.3,0.3L164.1,126.5L164.1,126.5z
		 M148,118.4l19.9-13.6l-8.6,20.4l-10.9-4.6c0,0,0-0.1,0-0.1C148.4,119.7,148.2,119,148,118.4L148,118.4z M213.1,122.3l44.7-9.8
		l-18.4,12.8c-1.2-0.8-2.6-1.2-4-1.3c-0.1,0-0.2,0-0.4,0c-2.2,0.1-4.1,1.2-5.4,2.9L213.1,122.3L213.1,122.3z M269.4,114.3
		c0.1,0,0.2,0,0.4,0c1.5-0.1,3-0.7,4.2-1.6l23.1,12.6l-53.2,2.9l21.7-15.1C266.6,113.9,268,114.3,269.4,114.3L269.4,114.3z
		 M113,129.1l13.4-13c1.1,0.6,2.2,0.9,3.4,0.9c0.1,0,0.2,0,0.4,0c1-0.1,2-0.3,2.9-0.8l1.7,1.6c-0.4,0.8-0.6,1.6-0.6,2.5L113,129.1
		L113,129.1z M372.1,126.2l22-1.7l16.5,20c-0.3,0.5-0.5,1-0.6,1.5l-34,2.4L372.1,126.2L372.1,126.2z M202.8,135l2-9.9l19.8,5.6
		L202.8,135L202.8,135z M141.5,127.9c0.1,0,0.1,0,0.2,0c1.9-0.1,3.6-0.9,4.9-2.3c0.1-0.1,0.2-0.2,0.3-0.3l9.7,4.1l-22.4,25.5
		L141.5,127.9L141.5,127.9z M108.4,136.3l26.2-10.9l-28.2,43l-1.7-25.5C107.1,141.6,108.6,139.1,108.4,136.3
		C108.4,136.4,108.4,136.3,108.4,136.3L108.4,136.3z M185,131l14.6-5.2l-1.9,9.2L185,131L185,131z M331.4,128.4l35.7-1.8l3.8,22.2
		l-43.1,3c-0.7-1-1.7-1.8-2.8-2.3l1.5-17.1C328.7,131.9,330.5,130.4,331.4,128.4L331.4,128.4z M309.9,129.5l8.9-0.5
		c0.7,1.2,1.7,2.1,2.9,2.8l-1.4,16L309.9,129.5L309.9,129.5z M242.1,133.2l62.3-3.4l12.2,21.5c-1,1.1-1.5,2.6-1.7,4.1l-38.4,11.2
		c-1.3-1.7-3.4-2.7-5.6-2.7c-0.1,0-0.2,0-0.4,0c-0.9,0-1.7,0.2-2.4,0.6l-26.7-29.9C241.8,134.1,242,133.7,242.1,133.2L242.1,133.2z
		 M167.8,147.4l-3.9-16l6.2,1c0,0,0,0,0,0c0.1,1.9,0.9,3.6,2.3,4.9c0.4,0.4,0.8,0.7,1.3,0.9l-1,7.2L167.8,147.4L167.8,147.4z
		 M137.2,158.7l22.1-25.2l3.8,15.5L137.2,158.7L137.2,158.7z M111.4,170l23.2-35.5l-6,22c-3.3,0.6-5.7,3.6-5.7,7
		c0,0.4,0,0.7,0.1,1.1L111.4,170L111.4,170z M203.7,139.8l25.6-5c0.4,0.6,0.8,1.1,1.3,1.6c0.4,0.3,0.8,0.6,1.2,0.9l-5.8,36.6
		L203.7,139.8L203.7,139.8z M178.6,139.1c1.5-0.3,2.8-1.1,3.9-2.2c0.3-0.4,0.6-0.8,0.9-1.2l8.7,2.7l-14.1,5.2L178.6,139.1
		L178.6,139.1z M236.6,138.1c0.4-0.1,0.8-0.2,1.2-0.3l26.8,30c-0.3,0.6-0.5,1.3-0.6,2l-33.6,7.6L236.6,138.1L236.6,138.1z
		 M177.7,168.9l21.8-26.7l23,35.1l-43.8-6.1C178.4,170.5,178.1,169.7,177.7,168.9L177.7,168.9z M177.2,149.1l14.8-5.5l-17,20.8
		L177.2,149.1L177.2,149.1z M78.4,180l21.6-35.6l1.6,24.7c-2.5,1.1-4.1,3.5-4.2,6.2l-18.7,5C78.6,180.2,78.5,180.1,78.4,180
		L78.4,180z M376.8,153.3l33.5-2.3c0.3,0.8,0.8,1.5,1.4,2.1l-9.1,20.1c0,0,0,0-0.1,0c-1.9,0.1-3.6,0.9-4.9,2.3
		c-0.7,0.8-1.3,1.8-1.6,2.8l-14.7,1.3L376.8,153.3L376.8,153.3z M168.9,152.2l3-1.1l-1.2,8.5L168.9,152.2L168.9,152.2z M329.6,156.6
		l42.3-3l4.2,24.3L329.6,156.6L329.6,156.6z M138,163.7l26.3-9.8l3.2,13.1c-0.7,0.6-1.4,1.3-1.9,2L138,163.7L138,163.7z
		 M416.8,155.1c0.1,0,0.2,0,0.4,0c0.2,0,0.4,0,0.7-0.1l13.7,24.5c-0.4,0.4-0.8,0.9-1.2,1.4l-20.5-2.3c-0.4-1.6-1.2-2.9-2.5-3.9
		l8.9-19.6C416.4,155.1,416.6,155.1,416.8,155.1L416.8,155.1z M278.2,171.2l38.2-11.1c0.3,0.4,0.7,0.8,1.1,1.2l-7.8,21.2
		c0,0-0.1,0-0.1,0c-1.7,0.1-3.3,0.8-4.5,2l-26.9-12.8C278.1,171.5,278.2,171.3,278.2,171.2L278.2,171.2z M326,161.7
		c0.4-0.3,0.7-0.5,1.1-0.9l49.6,22.8L373,216c-1.2,0.2-2.3,0.7-3.2,1.4c-1.2,1-2.1,2.3-2.5,3.7l-21.7,2.9c-1-2.3-3.1-3.9-5.6-4.2
		L326,161.7L326,161.7z M314.3,184l7.3-19.7l12.7,52.6l-18.4-23.6c0.8-1.2,1.2-2.7,1.1-4.1C316.9,187.1,315.9,185.2,314.3,184
		L314.3,184z M129.9,170.6c2,0,4-0.9,5.3-2.4l29.5,5.8c0.1,0.4,0.2,0.8,0.3,1.2l-56.5,51.6l-1.4-44.7c2.7-1.1,4.4-3.7,4.4-6.6
		c0-0.1,0-0.1,0-0.2l13.7-6.4C126.6,170,128.2,170.6,129.9,170.6L129.9,170.6z M234.9,181.4l30.1-6.8c0.4,0.6,0.8,1.1,1.3,1.5
		c0.2,0.2,0.5,0.4,0.8,0.6l-3.3,18.5L234.9,181.4L234.9,181.4z M275.5,176.4c0.1-0.1,0.3-0.2,0.4-0.4l26.2,12.4l-20.2,4.4
		L275.5,176.4L275.5,176.4z M207.9,201.2l-28.7-24.8l44.2,6.1l-10.8,17.9c-0.4-0.1-0.9-0.1-1.3-0.1
		C210.2,200.3,209,200.6,207.9,201.2L207.9,201.2z M114.9,227.7l53.1-48.5l-4.2,31.7c-0.2,0-0.5,0.1-0.7,0.1
		c-1.8,0.5-3.4,1.7-4.3,3.3c-0.6,1-0.9,2.1-1,3.2L114.9,227.7L114.9,227.7z M268.8,195.7l2.8-15.8l5.5,14L268.8,195.7L268.8,195.7z
		 M79.9,185.1L99,180c0.1,0.1,0.2,0.2,0.3,0.3l-11.8,20.9l-8.9-12.7C79.3,187.4,79.7,186.3,79.9,185.1L79.9,185.1z M168.7,211.8
		l4.2-31.4l16.4,29.6l-18.2,4.3C170.5,213.3,169.7,212.5,168.7,211.8L168.7,211.8z M381.5,184.5l14.9-1.3c0.1,0.2,0.2,0.5,0.4,0.7
		l-18.4,28.6L381.5,184.5L381.5,184.5z M408.8,184.2c0.1-0.2,0.3-0.4,0.4-0.6l20,2.2c0.1,0.8,0.3,1.6,0.7,2.3l-9.1,9.8L408.8,184.2
		L408.8,184.2z M194.2,208.9l-14-25.2l24.4,21.2c-0.2,0.5-0.3,1.1-0.4,1.6L194.2,208.9L194.2,208.9z M216.9,203l11.5-19.2l29.1,13.9
		l-40,6.3C217.4,203.6,217.1,203.3,216.9,203L216.9,203z M90.6,205.6l11.7-20.8l1.2,39.2L90.6,205.6L90.6,205.6z M380.1,219l20.6-32
		c0.1,0,0.2,0.1,0.3,0.1l5.3,26.6l-10.8,11.7l-14.2-3.6C381,220.8,380.6,219.8,380.1,219L380.1,219z M410.4,209.2l-4.1-20.4
		l11.2,12.7L410.4,209.2L410.4,209.2z M424.1,201.6l9.4-10.2c0.2,0.1,0.4,0.2,0.6,0.2c0.7,0.2,1.4,0.3,2.1,0.3c0,0,0,0,0,0l7.9,32.4
		L424.1,201.6L424.1,201.6z M75.3,222.9v-30.6l9.5,13.6L75.3,222.9L75.3,222.9z M283.8,197.5l20-4.3c1.3,2.1,3.6,3.5,6.1,3.5
		c0.1,0,0.2,0,0.4,0c0.6,0,1.2-0.1,1.7-0.3l21,27c-0.4,0.7-0.7,1.5-0.8,2.3l-31.3,2.9c-1-2.2-3.1-3.7-5.5-4c-0.3,0-0.6-0.1-0.8-0.1
		c0,0-0.1,0-0.1,0L283.8,197.5L283.8,197.5z M270.4,200.4l8.6-1.9l8.2,20.9L270.4,200.4L270.4,200.4z M218.9,208.7l45.3-7.1
		l11.5,28.8l-15.6,1.1L218.9,208.7L218.9,208.7z M411.6,215.1l9.2-9.9l21.7,24.7c-0.3,0.6-0.5,1.3-0.6,2c-0.2,1.6,0.1,3.1,0.9,4.5
		l-5,5.3c-0.6-0.3-1.3-0.4-1.9-0.5c-0.3,0-0.6-0.1-0.9-0.1c-1.4,0-2.8,0.4-4,1.2l-16.2-11.5L411.6,215.1L411.6,215.1z M77,229.8
		l10.9-19.4l13.6,19.4H77L77,229.8z M280.9,230l-7.5-18.8l14.9,16.9c-0.2,0.4-0.4,0.9-0.6,1.4L280.9,230L280.9,230z M196.7,213.4
		l8.6-2l-5.6,7.4L196.7,213.4L196.7,213.4z M229.3,233.5l-11.4-19.7L251,232L229.3,233.5L229.3,233.5z M202.3,223.5l7-9.3
		c0.7,0.2,1.3,0.3,2,0.3c0.4,0,0.8,0,1.2-0.1l11.3,19.5l-10.6,0.7c-1.1-2.6-3.6-4.2-6.5-4.2c-0.2,0-0.4,0-0.5,0L202.3,223.5
		L202.3,223.5z M171.9,219.3l19.9-4.7l4.7,8.5l-35.6,47.3l6.1-45.7c1.7-0.5,3.2-1.7,4.1-3.2C171.5,220.8,171.7,220,171.9,219.3
		L171.9,219.3z M68,229.2l2.4-14.5v15.8l-0.5,0.2C69.3,230,68.7,229.5,68,229.2L68,229.2z M400.8,226.8l6.6-7.1l1.9,9.3L400.8,226.8
		L400.8,226.8z M111.3,233.6l48-11.4c0.7,0.9,1.6,1.6,2.7,2.1l-6.4,48.1c-0.6,0.1-1.1,0.3-1.6,0.6L111.3,233.6L111.3,233.6z
		 M345.9,229l21.9-2.9c0.5,1.1,1.3,2,2.2,2.7l-9.9,27.7c-1.5,0.1-2.9,0.6-4,1.5c0,0-0.1,0.1-0.1,0.1l-52.3-24.8l29.3-2.7
		c1.1,1.9,3,3.2,5.3,3.5c0.3,0,0.6,0.1,0.9,0.1c1.6,0,3.1-0.5,4.3-1.5C344.7,231.6,345.5,230.4,345.9,229L345.9,229z M388.9,232.4
		l-5.3-4.9l8,2L388.9,232.4L388.9,232.4z M163.2,275.5l35.9-47.7l2.6,4.7c-1.8,1.8-2.5,4.4-1.8,6.8c0.6,2.1,2,3.8,4,4.7l-5,33.6
		l-34.9-0.5C163.7,276.5,163.5,276,163.2,275.5L163.2,275.5z M374.7,230.1c1.2-0.1,2.3-0.5,3.3-1.1l7.5,6.9L366.2,254L374.7,230.1
		L374.7,230.1z M392.4,235.9l4.6-5l13,3.3v19.2c-0.4,0.1-0.7,0.3-1,0.4L392.4,235.9L392.4,235.9z M282.8,234.8l5.2-0.4
		c0.2,0.5,0.5,1,0.9,1.4c0.1,0.1,0.2,0.3,0.3,0.4l-2.7,5.1c-0.4-0.1-0.7-0.2-1.1-0.2L282.8,234.8L282.8,234.8z M75.6,234.7h27.9
		l-0.8,7.8c-3.1,0.8-5.2,3.6-5.2,6.8c0,1.5,0.5,2.9,1.3,4.1L81.2,284L75.6,234.7L75.6,234.7z M268.1,235.8l9.6-0.7l2.9,7.3
		c-0.1,0-0.1,0.1-0.2,0.1L268.1,235.8L268.1,235.8z M232,238.3l26.9-1.8l18.8,10.3c-0.2,1.1-0.2,2.2,0.1,3.3
		c0.2,0.6,0.4,1.2,0.7,1.8l-22.1,22.7c-1-0.6-2.2-0.9-3.4-0.9c-0.2,0-0.3,0-0.5,0L232,238.3L232,238.3z M415,253.5V237l13.1,9.3
		c-0.1,0.3-0.2,0.6-0.2,1c-0.1,0.7-0.1,1.4,0,2.1l-10.3,6C416.9,254.5,416,253.9,415,253.5L415,253.5z M107.6,242.9l0.6-5.5
		l30.4,28.1l-26.9-15.9c0-0.1,0-0.1,0-0.2C111.6,246.6,110,244.1,107.6,242.9L107.6,242.9z M322.9,267.9l-21-30.2l50.9,24.1
		L322.9,267.9L322.9,267.9z M68.7,241.1c1-0.7,1.8-1.7,2.3-2.9l2.3,20.3L68.7,241.1L68.7,241.1z M294.5,238.6c0.6,0,1.2-0.1,1.8-0.3
		l16.7,23.9l-21.2-13.1c0.1-0.9,0.1-1.9-0.2-2.8l-0.1-0.4l0,0c-0.2-0.7-0.5-1.3-0.9-1.8l3-5.6c0,0,0,0,0,0
		C293.9,238.6,294.2,238.6,294.5,238.6L294.5,238.6z M213.5,239.5l13.1-0.9l21.5,37.2c-0.7,0.7-1.2,1.5-1.6,2.4l-42.6-0.6l5-33.3
		C211,243.6,212.8,241.8,213.5,239.5L213.5,239.5z M441.3,245.1l5.1-5.4v13.7c-0.3,0.1-0.6,0.3-0.9,0.4l-3.9-3.3
		c0.2-0.5,0.3-1,0.4-1.5C442.1,247.7,441.9,246.4,441.3,245.1L441.3,245.1z M366.8,260.3l19.8-18.7V278l-19.2-13.3
		c0-0.1,0-0.2,0.1-0.3C367.7,263,367.4,261.5,366.8,260.3L366.8,260.3z M391.5,281.2v-39l14.2,15.4c-0.2,0.5-0.4,1.1-0.4,1.7
		c-0.2,1.9,0.3,3.7,1.4,5.2c1,1.3,2.5,2.3,4.1,2.6l4,26.5L391.5,281.2L391.5,281.2z M287.2,254.9c0.8-0.3,1.6-0.8,2.2-1.3l30.4,18.8
		l4.3,11.2c-0.7,0.6-1.2,1.4-1.6,2.2l-33-6c0-0.2-0.1-0.5-0.1-0.7c-0.5-1.8-1.7-3.4-3.3-4.3c-0.4-0.2-0.7-0.4-1.1-0.5L287.2,254.9
		L287.2,254.9z M419.4,260.1l11-6.4c0.8,0.7,1.8,1.2,2.8,1.4l4.9,43.7c-0.4,0.2-0.7,0.4-1,0.7c-0.7,0.6-1.3,1.3-1.8,2.1l-15-5.4
		l-4.5-29.9c0.3-0.2,0.7-0.4,0.9-0.6c1.5-1.2,2.5-2.8,2.7-4.7C419.4,260.7,419.4,260.4,419.4,260.1L419.4,260.1z M109.6,254.3
		c0,0,0.1-0.1,0.1-0.1l40.5,23.9c-0.1,0.4-0.1,0.8-0.1,1.3c0,1.9,0.7,3.7,2.1,5L136.5,318c-0.2,0-0.3,0-0.4,0c-0.2,0-0.5,0-0.7,0
		L109.6,254.3L109.6,254.3z M438.1,254.6c0.1-0.1,0.2-0.1,0.3-0.2l3.8,3.2c-0.2,0.5-0.3,1.1-0.4,1.6c-0.2,1.9,0.3,3.7,1.4,5.2
		c0.6,0.7,1.3,1.4,2.1,1.8l-3.5,21.9L438.1,254.6L438.1,254.6z M259.7,278.3l22.5-23.1l-2.3,19c-1.9,0.7-3.4,2.3-4.2,4.2
		L259.7,278.3C259.7,278.3,259.7,278.3,259.7,278.3L259.7,278.3z M68.4,289.5l-0.9-33.7l9.1,34.4l-4.5,1.6
		C71.2,290.6,69.9,289.9,68.4,289.5L68.4,289.5z M83,290.9l19.8-34.7c0.6,0.1,1.1,0.2,1.7,0.2c0.2,0,0.4,0,0.7,0l25.5,63.1L83,290.9
		L83,290.9z M325.1,272.5l26.4-5.3l-18.6,15.6c-0.9-0.6-2-1-3.1-1.2c-0.3,0-0.6-0.1-0.9-0.1c-0.1,0-0.2,0-0.4,0L325.1,272.5
		L325.1,272.5z M364,269.6c0.3-0.2,0.6-0.4,0.9-0.6l21.7,15.1l1.3,28.6c-0.3,0.1-0.6,0.3-0.8,0.4l-14.3-11.7c0-0.2,0.1-0.4,0.1-0.6
		c0.2-1.9-0.3-3.7-1.4-5.2c-0.9-1.2-2.2-2-3.6-2.5L364,269.6L364,269.6z M335.8,286.8l20.7-17.4c0.8,0.5,1.7,0.9,2.7,1.1l3.7,22.9
		c-0.5,0.2-1,0.5-1.4,0.8c-0.4,0.3-0.7,0.6-1,0.9l-24.5-6.5C336,288,335.9,287.4,335.8,286.8L335.8,286.8z M197.3,287.6l-20.4-5.5
		l21.1,0.3L197.3,287.6L197.3,287.6z M202.1,288.9l0.9-6.4l43,0.7l-18.3,12.6L202.1,288.9L202.1,288.9z M259.7,283.3h11.7
		l-23.9,12.2l4.8-7.7c0.3,0,0.5,0.1,0.8,0.1c0.6,0,1.2-0.1,1.8-0.2C257.1,287.1,258.9,285.4,259.7,283.3L259.7,283.3z M192.1,314.9
		l-22.9-25.7l-4.7-5.3l32.1,8.6l-3.3,22.1c-0.2,0-0.4,0.1-0.6,0.1C192.5,314.7,192.3,314.8,192.1,314.9L192.1,314.9z M286.3,286.8
		c0.9-0.6,1.6-1.3,2.2-2.2l33.7,6.1c0.3,1,0.9,2,1.6,2.8l-21.2,36.7c-0.4-0.1-0.7-0.1-1.1-0.1L286.3,286.8L286.3,286.8z
		 M247.9,300.8l29.4-15.1c1.1,1.1,2.5,1.9,4.1,2.1l15.4,43.8l-49-28.5C248,302.4,248,301.6,247.9,300.8L247.9,300.8z M158.7,286.3
		c0.4-0.1,0.7-0.2,1.1-0.3l28.6,32.1c-0.3,0.5-0.5,1-0.6,1.5l-33.9,2.2L158.7,286.3L158.7,286.3z M392.9,312.3l-1.1-25.5l21.8,11.5
		l-19,14.7c-0.1,0-0.1-0.1-0.2-0.1C393.8,312.7,393.4,312.5,392.9,312.3L392.9,312.3z M234,297.5l11.3-7.8l-3.2,5.2
		c-0.4-0.1-0.8-0.1-1.3-0.1c-0.6,0-1.2,0.1-1.8,0.2c-1.6,0.4-3.1,1.4-4,2.8L234,297.5L234,297.5z M331.8,295.1
		c0.5-0.2,1-0.5,1.5-0.9c0.4-0.3,0.7-0.6,1-0.9l24.5,6.5c0,1.9,0.7,3.6,2,5l-10.2,19.9l-16.6,3.4L331.8,295.1L331.8,295.1z
		 M198.2,315.5l3.2-21.7l21.1,5.7l-23.7,16.4C198.5,315.7,198.4,315.6,198.2,315.5L198.2,315.5z M73.9,296.4l3.7-1.3l1.3,9.9
		l-5.8-5.4C73.6,298.6,73.9,297.5,73.9,296.4C73.9,296.4,73.9,296.4,73.9,296.4L73.9,296.4z M141,320l11.5-24.7l-3.7,26.9l-6.1,0.4
		C142.3,321.6,141.8,320.7,141,320L141,320z M84.6,310.4l-1.8-13.8l45.1,27.1l-27,2.1L84.6,310.4L84.6,310.4z M306.8,332.6l20.2-35
		l2.1,31.4l-21.7,4.4C307.2,333.1,307,332.9,306.8,332.6L306.8,332.6z M216.7,309.4l12-8.3l4.5,1.2L216.7,309.4L216.7,309.4z
		 M429.2,331.2l-7.6-29.4l12.9,4.7c0.2,1.1,0.7,2.1,1.3,2.9c0.4,0.5,0.8,0.9,1.3,1.3L429.2,331.2L429.2,331.2z M397.5,317l17.4-13.4
		l-4.1,33.2l-13.6-14.4c0.8-1.5,0.9-3.3,0.5-5C397.5,317.2,397.5,317.1,397.5,317L397.5,317z M365.8,306.9c1.5,0,3-0.5,4.2-1.4
		l13.9,11.3c-0.1,0.4-0.2,0.8-0.3,1.2l-27,5.4l8.4-16.5C365.4,306.9,365.6,306.9,365.8,306.9L365.8,306.9z M82.2,330.3l-9.7-24.5
		l7.4,7L82.2,330.3L82.2,330.3z M201.6,321.3l34.1-14.7c0.5,0.5,1,0.9,1.6,1.3l-10.4,69.3L200,326.1
		C201.1,324.8,201.7,323,201.6,321.3L201.6,321.3z M242.1,308.8c0.2,0,0.4-0.1,0.6-0.1c0.9-0.2,1.8-0.7,2.6-1.3l49.1,28.6
		c-0.2,0.9-0.1,1.9,0.1,2.8L232.8,379c-0.4-0.2-0.7-0.4-1.1-0.6L242.1,308.8L242.1,308.8z M415,342.2l3.9-31.2l5.8,22.4
		c-0.1,0.1-0.2,0.1-0.3,0.2c-1.5,1.2-2.5,2.8-2.7,4.7c-0.2,1.9,0.3,3.7,1.4,5.2c0,0,0,0,0.1,0.1l-7,11.6L415,342.2L415,342.2z
		 M88.8,341.9l-3.1-23.9l11.2,10.6L89,342C88.9,342,88.8,342,88.8,341.9L88.8,341.9z M353.9,329.1l30.8-6.2c0.1,0.1,0.1,0.2,0.2,0.3
		l-25.7,37.4h-19c-0.3-0.8-0.7-1.5-1.3-2.2L353.9,329.1L353.9,329.1z M153.1,326.8l34-2.2L150,354.2c-0.2-0.2-0.4-0.3-0.6-0.5
		L153.1,326.8L153.1,326.8z M390.7,326.2L390.7,326.2L390.7,326.2c0.6,0,1.2-0.1,1.8-0.2c0.3-0.1,0.6-0.2,1-0.3l14.7,15.6
		l-41.1,16.4L389,326C389.5,326.1,390.1,326.2,390.7,326.2L390.7,326.2z M142.7,327.5l5.4-0.4l-3,21.7l-5.2-17.8
		C141.2,330.1,142.2,328.9,142.7,327.5L142.7,327.5z M152.4,358.6l38.6-30.9c1.1,0.6,2.3,0.9,3.5,0.9c0.4,0,0.8,0,1.1-0.1l27.5,52.2
		c0,0-0.1,0.1-0.1,0.1l-70.7-21c0-0.1,0-0.3,0-0.4C152.4,359.2,152.4,358.9,152.4,358.6L152.4,358.6z M104.8,330.3l25-1.9
		c1.1,2,3,3.4,5.3,3.7l6.3,21.6c-2,1.3-3.2,3.5-3.2,5.9c0,2.5,1.3,4.8,3.4,6.1l-2.6,7.4L104.8,330.3L104.8,330.3z M334.3,333
		l13.4-2.7l-12.1,23.6L334.3,333L334.3,333z M92.9,345l6.6-11.1l19.8,52.5l-26.5-33.6c0.8-1.2,1.2-2.5,1.2-3.9
		C94,347.4,93.6,346.2,92.9,345L92.9,345z M308.4,338.2l21-4.2l1.5,22.4c-0.3,0.1-0.6,0.3-0.9,0.4l-21.9-17.5
		C308.2,339,308.3,338.6,308.4,338.2L308.4,338.2z M127,392.6l-19.2-50.8l29.2,36.4l-8.2,14.5c-0.4-0.1-0.9-0.1-1.4-0.1
		C127.3,392.6,127.1,392.6,127,392.6L127,392.6z M235.7,383l61.4-40.1c0,0,0.1,0,0.1,0.1l-15.4,56.3c-0.4,0-0.9,0.1-1.3,0.2
		c-1.4,0.4-2.7,1.2-3.7,2.4L236,385.4c0.1-0.8,0-1.5-0.2-2.3C235.8,383.1,235.7,383,235.7,383L235.7,383z M302,344.2
		c0.4,0,0.8-0.1,1.2-0.2c0.7-0.2,1.3-0.4,1.9-0.8l21.8,17.4c-0.5,1.3-0.5,2.8-0.2,4.2c0.1,0.3,0.2,0.5,0.3,0.8l-40.1,34L302,344.2
		L302,344.2z M373.3,360.5l37.1-14.8l0.9,10c-1.4,0.6-2.6,1.6-3.4,3c-0.4,0.6-0.6,1.2-0.8,1.9H373.3L373.3,360.5z M363.3,365.5h44.5
		c0.1,0.2,0.2,0.4,0.3,0.6l-25.3,26.1l-9.7,9.3c-1-0.6-2.1-0.9-3.2-0.9l-2-7c0.7-0.5,1.2-1.2,1.6-1.9c1-1.6,1.2-3.6,0.7-5.4
		c-0.5-1.8-1.7-3.4-3.3-4.3c-0.5-0.3-1.1-0.5-1.6-0.7L363.3,365.5L363.3,365.5z M340.6,365.5h15.4l-5.2,8.5L340.6,365.5L340.6,365.5
		z M166.3,377.6l-11.8-11.9l50.5,15L166.3,377.6L166.3,377.6z M146.5,366.5c0.5-0.1,1-0.2,1.4-0.4l10.8,10.9l-15.4-1.2L146.5,366.5
		L146.5,366.5z M333.6,370.1c0.6,0,1.2-0.1,1.8-0.2c0.7-0.2,1.3-0.4,1.9-0.8l11.1,9.1l-7.5,12.3l-49.1,11.4l38.5-32.6
		C331.3,369.8,332.4,370.1,333.6,370.1L333.6,370.1z M354.8,377.1l4.2-6.9l1.5,11.3c-0.1,0-0.1,0-0.2,0.1L354.8,377.1L354.8,377.1z
		 M158.1,414.4l-14.3-33.7l20.2,1.6l28.7,29c-0.3,0.6-0.5,1.2-0.6,1.9l-26.8,5.4c-1.1-2.6-3.7-4.3-6.5-4.3
		C158.6,414.4,158.3,414.4,158.1,414.4L158.1,414.4z M347.6,388.9l4.6-7.6l4.7,3.9c-0.2,0.5-0.4,1.1-0.5,1.6L347.6,388.9
		L347.6,388.9z M196.2,407.9l-24.7-25l50.5,4c0,0.2,0.1,0.3,0.2,0.5l-20.2,20.5c-0.9-0.4-1.9-0.6-2.9-0.6c-0.6,0-1.2,0.1-1.8,0.2
		C197,407.6,196.6,407.8,196.2,407.9L196.2,407.9z M133,395.3l6.6-11.7l13.6,32l-19.1-13.4c0.3-0.8,0.5-1.6,0.5-2.5
		C134.5,398.1,134,396.5,133,395.3L133,395.3z M231.6,391.5c0.9-0.4,1.7-0.9,2.4-1.6l36.6,14.6l-37,1.2L231.6,391.5L231.6,391.5z
		 M206.5,410.5l19-19.3c0.3,0.2,0.7,0.3,1.1,0.5l2,14.6L206.5,410.5L206.5,410.5z M344,394.8l13.3-3.1c1.3,2.1,3.5,3.4,6,3.4l2,6.8
		c-0.7,0.6-1.3,1.2-1.8,2c-0.9,1.6-1.2,3.4-0.8,5.2l-40.9,22.1L344,394.8L344,394.8z M289.4,407.5l47.9-11.1l-20.6,33.9
		c-0.6-0.1-1.1-0.2-1.7-0.2c-0.6,0-1.2,0.1-1.8,0.2c-0.6,0.2-1.2,0.4-1.7,0.7l-22.6-21.7C289.1,408.7,289.3,408.1,289.4,407.5
		L289.4,407.5z M235.4,410.5l40.6-1.3c0.1,0.3,0.3,0.6,0.5,0.8l-22.4,28c-0.9-0.4-1.9-0.6-2.8-0.6c-0.5,0-1,0-1.4,0.1L235.4,410.5
		L235.4,410.5z M206.2,415.6L230,411l14.8,28l-38.7-23.2C206.1,415.6,206.1,415.6,206.2,415.6L206.2,415.6z M282.4,413.4
		c0.6,0,1.2-0.1,1.8-0.2c0.3-0.1,0.7-0.2,1.1-0.4l23,22.1c-0.2,0.5-0.3,0.9-0.3,1.4l-50,6.1c-0.1-0.2-0.2-0.5-0.3-0.7l22.8-28.5
		C281,413.3,281.7,413.4,282.4,413.4L282.4,413.4z M167.5,423.3l25.6-5.2c1,1.6,2.7,2.8,4.6,3.2l2.2,14.6L167.5,423.3L167.5,423.3z
		 M202.6,420.6c0.4-0.2,0.7-0.4,1-0.7l36.4,21.8l-34.9-4.2L202.6,420.6L202.6,420.6z"/>
</g>
<g>
	<g>
		<linearGradient id="SVGID_4_" gradientUnits="userSpaceOnUse" x1="187.1768" y1="0.7271" x2="489.3257" y2="394.9809">
			<stop  offset="0" style="stop-color:#FFFE4E"/>
			<stop  offset="0.4183" style="stop-color:#FFD73C"/>
			<stop  offset="0.4431" style="stop-color:#DE9F2F"/>
			<stop  offset="0.7153" style="stop-color:#FFC737"/>
			<stop  offset="1" style="stop-color:#E5A42E"/>
		</linearGradient>
		<path class="st3" d="M186.4,93.6v28.8c56.7-29.5,128.5-20.4,176,27.1c5,5,13.3,5,18.4,0c5-5.1,5-13.4,0-18.4
			C328.5,78.6,250.9,66.1,186.4,93.6z"/>
	</g>
	<g>
		<linearGradient id="SVGID_5_" gradientUnits="userSpaceOnUse" x1="50.8518" y1="105.2041" x2="353.0007" y2="499.4579">
			<stop  offset="0" style="stop-color:#FFFE4E"/>
			<stop  offset="0.4183" style="stop-color:#FFD73C"/>
			<stop  offset="0.4431" style="stop-color:#DE9F2F"/>
			<stop  offset="0.7153" style="stop-color:#FFC737"/>
			<stop  offset="1" style="stop-color:#E5A42E"/>
		</linearGradient>
		<path class="st4" d="M362.5,362.4c-58.7,58.7-154.3,58.7-213,0C121,334,105.4,296.2,105.4,256c0-24.3,5.7-47.7,16.5-68.6V141
			c-59.6,69.3-56.5,174.2,9.1,239.9c34.4,34.4,79.7,51.7,125,51.7c45.2,0,90.5-17.2,124.9-51.7c5-5,5-13.3,0-18.4
			C375.8,357.4,367.5,357.4,362.5,362.4z"/>
	</g>
	<g>
		<linearGradient id="SVGID_6_" gradientUnits="userSpaceOnUse" x1="107.2541" y1="61.9784" x2="409.403" y2="456.2322">
			<stop  offset="0" style="stop-color:#FFFE4E"/>
			<stop  offset="0.4183" style="stop-color:#FFD73C"/>
			<stop  offset="0.4431" style="stop-color:#DE9F2F"/>
			<stop  offset="0.7153" style="stop-color:#FFC737"/>
			<stop  offset="1" style="stop-color:#E5A42E"/>
		</linearGradient>
		<path class="st5" d="M256,3.7C116.6,3.7,3.7,116.7,3.7,256s113,252.3,252.3,252.3s252.3-113,252.3-252.3S395.3,3.7,256,3.7z
			 M255.9,466.7c-116.3,0-210.6-94.3-210.6-210.6c0-73.6,37.7-138.3,94.8-176v176c0,63.8,51.9,115.8,115.8,115.8
			c63.8,0,115.8-51.9,115.8-115.8c0-63.8-51.9-115.9-115.8-115.9c-36.1,0-68.5,16.7-89.7,42.7V65.4c27.2-12.9,57.7-20,89.7-20
			c116.3,0,210.7,94.3,210.7,210.7C466.6,372.4,372.2,466.7,255.9,466.7z M166.3,256.1c0-49.5,40.2-89.8,89.7-89.8
			c49.5,0,89.7,40.3,89.7,89.8c0,49.4-40.2,89.7-89.7,89.7C206.4,345.7,166.3,305.5,166.3,256.1z"/>
	</g>
</g>
<g>
	<linearGradient id="SVGID_7_" gradientUnits="userSpaceOnUse" x1="267.9815" y1="77.895" x2="300.1824" y2="178.9908">
		<stop  offset="0" style="stop-color:#FFFE4E"/>
		<stop  offset="0.4431" style="stop-color:#DE9F2F"/>
		<stop  offset="0.7153" style="stop-color:#FFC737"/>
		<stop  offset="1" style="stop-color:#8A621C"/>
	</linearGradient>
	<path class="st6" d="M383.6,152.2L383.6,152.2c6.5-6.6,6.5-17.2,0-23.7c-17.2-17.2-37.3-30.5-59.7-39.6
		c-21.6-8.8-44.5-13.2-67.9-13.2c-24.6,0-48.5,4.9-71,14.5l-2.3,1v2.5v28.8v6.2l5.5-2.8c20.8-10.8,44.2-16.5,67.8-16.5
		c39.3,0,76.2,15.3,103.9,43c3.1,3.1,7.3,4.9,11.8,4.9C376.1,157,380.4,155.3,383.6,152.2L383.6,152.2z M371.7,153.3
		c-3.3,0-6.7-1.3-9.2-3.8c-29.4-29.4-68-44.1-106.5-44.1c-23.9,0-47.8,5.6-69.5,16.9V93.6c22.1-9.4,45.8-14.2,69.5-14.2
		c45.3,0,90.5,17.2,124.9,51.7c5,5,5,13.3,0,18.4C378.4,152,375,153.3,371.7,153.3z"/>
	<linearGradient id="SVGID_8_" gradientUnits="userSpaceOnUse" x1="164.7669" y1="119.2479" x2="268.8581" y2="440.5079">
		<stop  offset="0" style="stop-color:#FFFE4E"/>
		<stop  offset="0.4431" style="stop-color:#DE9F2F"/>
		<stop  offset="0.7153" style="stop-color:#FFC737"/>
		<stop  offset="1" style="stop-color:#8A621C"/>
	</linearGradient>
	<path class="st7" d="M383.6,359.8L383.6,359.8c-3.2-3.2-7.4-4.9-11.9-4.9c-4.5,0-8.7,1.7-11.8,4.9c-27.7,27.7-64.6,42.9-103.9,42.9
		s-76.2-15.2-103.9-42.9c-27.7-27.7-43-64.6-43-103.8c0-23.3,5.6-46.4,16.1-66.9l0.4-0.8v-0.9V141v-10.1l-6.6,7.7
		c-29.5,34.4-44.9,78.4-43.3,123.9c1.6,45.8,20.3,88.8,52.6,121.1c17.2,17.2,37.3,30.5,59.7,39.6c21.6,8.8,44.5,13.2,68,13.2
		c23.4,0,46.3-4.4,67.9-13.2c22.4-9.1,42.5-22.4,59.6-39.6C390.1,377,390.1,366.4,383.6,359.8L383.6,359.8z M380.9,380.9
		c-34.4,34.4-79.7,51.7-124.9,51.7c-45.3,0-90.5-17.2-125-51.7c-65.7-65.7-68.7-170.6-9.1-239.9v46.4c-10.8,21-16.5,44.4-16.5,68.6
		c0,40.2,15.7,78,44.1,106.5c29.4,29.4,67.9,44,106.5,44c38.6,0,77.2-14.7,106.5-44c2.5-2.5,5.8-3.8,9.2-3.8s6.7,1.3,9.3,3.8
		C386,367.6,386,375.8,380.9,380.9z"/>
	<linearGradient id="SVGID_9_" gradientUnits="userSpaceOnUse" x1="202.5654" y1="-0.8443" x2="308.9032" y2="510.6254">
		<stop  offset="0" style="stop-color:#FFFE4E"/>
		<stop  offset="0.4431" style="stop-color:#DE9F2F"/>
		<stop  offset="0.7153" style="stop-color:#FFC737"/>
		<stop  offset="1" style="stop-color:#8A621C"/>
	</linearGradient>
	<path class="st8" d="M491.9,156.4C479,125.9,460.5,98.5,437,75c-23.5-23.5-50.9-42-81.4-54.9C324.1,6.8,290.5,0,256,0
		c-34.6,0-68.1,6.8-99.7,20.1C125.8,33,98.4,51.5,74.9,75c-23.5,23.5-42,50.9-54.9,81.4C6.7,187.9-0.1,221.5-0.1,256
		s6.8,68.1,20.1,99.7c12.9,30.5,31.4,57.9,54.9,81.4s50.9,42,81.4,54.9c31.6,13.4,65.1,20.1,99.7,20.1c34.6,0,68.1-6.8,99.7-20.1
		c30.5-12.9,57.9-31.4,81.4-54.9c23.5-23.5,42-50.9,54.9-81.4c13.4-31.6,20.1-65.1,20.1-99.7S505.2,187.9,491.9,156.4z M256,508.3
		C116.6,508.3,3.7,395.4,3.7,256S116.6,3.7,256,3.7s252.3,113,252.3,252.3S395.3,508.3,256,508.3z"/>
	<linearGradient id="SVGID_10_" gradientUnits="userSpaceOnUse" x1="286.5156" y1="462.5497" x2="230.3513" y2="82.8789">
		<stop  offset="0" style="stop-color:#FFFE4E"/>
		<stop  offset="0.4431" style="stop-color:#DE9F2F"/>
		<stop  offset="0.7153" style="stop-color:#FFC737"/>
		<stop  offset="1" style="stop-color:#8A621C"/>
	</linearGradient>
	<path class="st9" d="M255.9,45.4c-32,0-62.5,7.1-89.7,20v117.5c21.2-26,53.6-42.7,89.7-42.7c63.8,0,115.8,52,115.8,115.9
		c0,63.8-51.9,115.8-115.8,115.8c-63.8,0-115.8-51.9-115.8-115.8V80c-57.1,37.7-94.8,102.5-94.8,176c0,116.3,94.3,210.6,210.6,210.6
		c116.3,0,210.7-94.3,210.7-210.6C466.6,139.7,372.2,45.4,255.9,45.4z M255.9,462.9c-114,0-206.8-92.8-206.8-206.8
		c0-67.4,32.5-130,87.3-168.9v168.9c0,65.9,53.6,119.5,119.5,119.5S375.4,322,375.4,256.1c0-65.9-53.6-119.6-119.5-119.6
		c-32.6,0-63.4,13.2-85.9,36.6V67.8c27-12.4,55.9-18.6,85.9-18.6c114.1,0,206.9,92.8,206.9,206.9C462.8,370.1,370,462.9,255.9,462.9
		z"/>
	<linearGradient id="SVGID_11_" gradientUnits="userSpaceOnUse" x1="273.2721" y1="338.4434" x2="237.3269" y2="167.7039">
		<stop  offset="0" style="stop-color:#FFFE4E"/>
		<stop  offset="0.4431" style="stop-color:#DE9F2F"/>
		<stop  offset="0.7153" style="stop-color:#FFC737"/>
		<stop  offset="1" style="stop-color:#8A621C"/>
	</linearGradient>
	<path class="st10" d="M255.9,345.7c49.5,0,89.7-40.3,89.7-89.7c0-49.5-40.2-89.8-89.7-89.8c-49.5,0-89.7,40.3-89.7,89.8
		C166.3,305.5,206.4,345.7,255.9,345.7z M255.9,170.1c47.4,0,85.9,38.6,85.9,86c0,47.4-38.5,85.9-85.9,85.9
		c-47.4,0-85.9-38.5-85.9-85.9C170,208.6,208.5,170.1,255.9,170.1z"/>
</g>
<linearGradient id="SVGID_12_" gradientUnits="userSpaceOnUse" x1="61.8024" y1="-115.5387" x2="403.1357" y2="537.7947">
	<stop  offset="0" style="stop-color:#FFFE4E"/>
	<stop  offset="0.4233" style="stop-color:#FFC737"/>
	<stop  offset="1" style="stop-color:#B5661C"/>
</linearGradient>
<path class="st11" d="M255.9,7.5C118.7,7.5,7.4,118.8,7.4,256s111.3,248.5,248.5,248.5S504.4,393.3,504.4,256S393.2,7.5,255.9,7.5z
	 M255.9,471.7c-119.1,0-215.7-96.6-215.7-215.7S136.8,40.4,255.9,40.4c119.1,0,215.7,96.6,215.7,215.7S375,471.7,255.9,471.7z"/>
<g>
	<g>
		<linearGradient id="SVGID_13_" gradientUnits="userSpaceOnUse" x1="13.2608" y1="228.3204" x2="500.1789" y2="228.3204">
			<stop  offset="0" style="stop-color:#FFFE4E"/>
			<stop  offset="0.4183" style="stop-color:#FFD73C"/>
			<stop  offset="0.4431" style="stop-color:#DE9F2F"/>
			<stop  offset="0.7153" style="stop-color:#FFC737"/>
			<stop  offset="1" style="stop-color:#E5A42E"/>
		</linearGradient>
		<path class="st12" d="M97.8,418.3c-1.9,2.2-2,5-0.5,6.9c-1.9-1.1-4.4-0.8-6.3,1.3c-1.7,2-2.3,5.6,1.2,8.7l10.1,9l14.9-16.7
			l-10.5-9.3C103.4,415.1,99.9,415.9,97.8,418.3z M101.1,435.4l-3.9-3.5c-0.5-0.5-0.7-1.3-0.2-1.8c0.5-0.6,1.4-0.6,1.9-0.1l3.9,3.5
			L101.1,435.4z M106.6,429.3l-4.1-3.6c-0.7-0.6-0.8-1.5-0.2-2.1c0.6-0.6,1.4-0.6,2.1,0l4.1,3.6L106.6,429.3z M88.2,398.8
			l-16.8,14.7l4.5,5.1l16.8-14.7L88.2,398.8z M76.5,383.7l-3.8-5.6l-13.6,9.3l-3.4-4.9l-4.9,3.3l10.6,15.4l4.9-3.3l-3.4-4.9
			L76.5,383.7z M58.4,352.3c-2.6-5.3-7.1-6.4-10.4-6.2l0.2,6.4c1.8-0.3,3.9,0.6,4.8,2.4c1.4,2.9,0.2,6-2.6,7.3s-6,0.5-7.4-2.4
			c-0.9-1.8-0.3-4,1-5.3l-5-4c-2.2,2.6-3.9,6.7-1.3,12c3.1,6.3,9.6,9,15.8,5.9C59.6,365.4,61.5,358.6,58.4,352.3z M44.2,316.9
			l-5.6,1.8l2.6,8.1l-15.6,5.1l2.1,6.4l21.2-6.9L44.2,316.9z M39.9,298.7l-2.7-0.3l-1.4-7.9l2.4-1.2l-1.3-7.6l-20.6,11.9l1.5,8.4
			l23.4,4.3L39.9,298.7z M23.6,296.6l6.7-3.4l0.8,4.4L23.6,296.6z M35.8,256.7L13.3,249l0.2,7.7l15.1,4.5l-14.9,5.2l0.2,7.7
			l22.2-8.7L35.8,256.7z M38.6,219.7l-5.9-0.7l-1.3,10.1l-2.4-0.3l1.2-9.9l-5.9-0.7l-1.2,9.9l-2.2-0.3l1.3-10.1l-5.9-0.7l-2.1,16.8
			l22.2,2.7L38.6,219.7z M64,147.6l-1.8-2l4.1-6.9l2.7,0.6l3.9-6.6l-23.4-4.3l-4.3,7.3l15,18.5L64,147.6z M53,135.5l7.3,1.8
			l-2.3,3.8L53,135.5z M69.9,117.7c5.3,4.3,12.3,3.2,16.7-2.2c3.7-4.5,2.8-9.1,1.4-12l-5.8,2.8c1,1.5,1.1,3.8-0.2,5.4
			c-2.1,2.5-5.4,2.6-7.8,0.7c-2.4-2-3-5.2-0.9-7.7c1.3-1.6,3.5-2,5.2-1.3l1.6-6.2c-3.2-0.9-7.7-0.8-11.5,3.8
			C64.3,106.3,64.5,113.4,69.9,117.7z M94.1,82.9L105.2,95l5-4.6L99.1,78.3l4.4-4l-4-4.4L85.7,82.6l4,4.4L94.1,82.9z M112,60.3
			l13.1,18.1l5.5-4l-13.1-18.1L112,60.3z M144.9,39.7l3,15.5l-11.4-10.9l-6.7,3.7l17.9,15.7l7.5-4.1L151.6,36L144.9,39.7z
			 M177.7,43.2l-0.8-2.3l9.3-3.4l-2-5.5l-9.3,3.4l-0.8-2.1l9.6-3.5l-2-5.5L165.7,30l7.7,21l15.9-5.8l-2-5.5L177.7,43.2z M268.2,18.2
			c2.1,0.1,4.6,1,6.4,2.5l3.9-4.6c-2.4-2.2-5.7-3.4-9.3-3.6c-6.1-0.3-9.5,3.1-9.6,6.9c-0.4,8.8,12.1,7.3,12,9.4
			c0,0.9-1.3,1.1-2.5,1.1c-3-0.2-5.5-1.6-7-3.2l-3.8,4.8c2.3,2.3,5.4,3.8,10.2,4.1c6,0.3,9.8-2.4,10-7.3c0.4-8.3-12.1-7.1-12-9.2
			C266.5,18.5,266.9,18.1,268.2,18.2z M290.9,37.4l16.6,3.2l1.1-5.8l-10-1.9l0.5-2.4l9.8,1.9l1.1-5.8l-9.8-1.9l0.4-2.2l10,1.9
			l1.1-5.8l-16.6-3.2L290.9,37.4z M333.8,24.9l-15.2,18.3l7.2,2.6l1.6-2.2l7.6,2.7l-0.1,2.7l7.2,2.6l-0.3-23.8L333.8,24.9z
			 M335.3,40.1l-4.2-1.5l4.5-6.1L335.3,40.1z M374.1,42.6L363.6,37L353,56.6l6,3.2l3.3-6.2l2.2,1.2l-0.6,7.7l6.8,3.7l0.2-8.9
			c2,0.1,4.9-0.7,6.7-4.1C379.5,49.5,378.7,45.1,374.1,42.6z M371.5,49.9c-0.6,1.1-1.8,1.1-2.8,0.5l-3.6-2l1.7-3.1l3.6,2
			C371.4,47.9,372.1,48.8,371.5,49.9z M402.5,81.3l-3-5.7c-1.5,1-3.8,1.2-5.4,0c-2.6-2-2.8-5.2-1-7.7s5.1-3.2,7.7-1.2
			c1.6,1.2,2.1,3.5,1.5,5.2l6.3,1.3c0.8-3.3,0.5-7.8-4.2-11.3c-5.6-4.2-12.6-3.7-16.8,1.8c-4.1,5.5-2.7,12.4,2.8,16.6
			C395.2,84,399.7,82.9,402.5,81.3z M413.1,99.7l6.2-5.9l5.6,5.8l-6.2,5.9l4.7,4.9l16.1-15.5l-4.7-4.9l-5.7,5.5l-5.6-5.8l5.7-5.5
			l-4.7-4.9l-16.1,15.5L413.1,99.7z M472.6,185.3l-3.5-9.6l2.3-0.8l3.5,9.3l5.5-2l-3.5-9.3l2.1-0.8l3.5,9.6l5.5-2l-5.9-15.9l-21,7.8
			l5.9,15.9L472.6,185.3z M481.6,197c-6.7,1.4-10.2,7.6-8.8,14.4c1.2,5.7,5.3,7.9,8.5,8.6l1.4-6.3c-1.8-0.2-3.7-1.6-4.1-3.6
			c-0.7-3.2,1.3-5.8,4.4-6.5c3-0.6,5.9,1,6.6,4.2c0.4,2-0.7,4-2.3,4.9l3.9,5.1c2.7-1.9,5.5-5.5,4.3-11.3
			C494,199.9,488.4,195.6,481.6,197z M477.1,245.1c0.3,6.9,5.3,12,12.1,11.7s11.3-5.9,11-12.8c-0.3-6.9-5.3-12-12.1-11.7
			S476.7,238.2,477.1,245.1z M494.2,244.3c0.2,3.2-2.2,5.5-5.3,5.6c-3.1,0.1-5.7-1.8-5.8-5.1c-0.2-3.2,2.2-5.5,5.3-5.6
			C491.5,239,494,241,494.2,244.3z M492.7,271c-8.8-0.9-7.9,11.7-10,11.5c-0.9-0.1-1.1-1.3-0.9-2.6c0.3-3,1.8-5.4,3.6-6.9l-4.6-4
			c-2.4,2.1-4.1,5.2-4.6,10c-0.6,6,1.8,9.9,6.7,10.4c8.3,0.9,7.7-11.7,9.8-11.5c0.6,0.1,1,0.5,0.8,1.8c-0.2,2.1-1.2,4.5-2.9,6.3
			l4.4,4.1c2.3-2.3,3.7-5.5,4.1-9.1C499.8,274.9,496.5,271.4,492.7,271z M471.8,306.9l-1.7,6.6l8.6,2.2l11,11.4l1.9-7.4l-6.3-5.8
			l8.3-2.2l1.9-7.4l-15.1,4.8L471.8,306.9z M478.9,337c-8.1-3.4-10.9,9-12.9,8.2c-0.8-0.3-0.7-1.6-0.2-2.8c1.1-2.8,3.3-4.6,5.4-5.6
			l-3.3-5.2c-2.9,1.4-5.4,3.9-7.2,8.3c-2.3,5.5-1,10,3.5,11.9c7.7,3.2,10.7-9,12.7-8.2c0.5,0.2,0.8,0.7,0.3,2c-0.8,2-2.4,4-4.5,5.2
			l3.1,5.2c2.9-1.6,5.1-4.2,6.5-7.6C484.5,342.8,482.4,338.5,478.9,337z M463.6,372.5l-14.2-8.3L446,370l14.2,8.3l-3,5.2l5.1,3
			l9.4-16.2l-5.1-3L463.6,372.5z M425.1,399.3l4.6,3.6l6.3-8l1.9,1.5l-6.2,7.8l4.6,3.6l6.2-7.8l1.7,1.4l-6.3,8l4.6,3.6l10.5-13.3
			L435.6,386L425.1,399.3z M411,414.2l9.1,9.9l-12.8-6.5l-2.2,2l5.4,13.3l-9.1-9.9l-5,4.6l15.1,16.5l6.9-6.3l-4.4-10.5l10.1,5.2
			l6.9-6.3L416,409.6L411,414.2z"/>
	</g>
	<g>
		<linearGradient id="SVGID_14_" gradientUnits="userSpaceOnUse" x1="192.8944" y1="-13.2279" x2="314.8944" y2="498.7721">
			<stop  offset="0" style="stop-color:#824314"/>
			<stop  offset="0.2351" style="stop-color:#E19F2C"/>
			<stop  offset="1" style="stop-color:#915216"/>
		</linearGradient>
		<path class="st13" d="M268.4,12.5c0.2,0,0.5,0,0.8,0c3.6,0.2,6.9,1.4,9.3,3.6l-3.9,4.6c-1.9-1.6-4.3-2.4-6.4-2.5
			c-0.1,0-0.2,0-0.3,0c-1.1,0-1.5,0.4-1.5,0.9c-0.1,2.1,12.4,0.9,12,9.2c-0.2,4.7-3.7,7.3-9.1,7.3c-0.3,0-0.6,0-0.9,0
			c-4.8-0.2-7.9-1.8-10.2-4.1l3.8-4.8c1.6,1.7,4,3.1,7,3.2c0.1,0,0.2,0,0.3,0c1.1,0,2.1-0.3,2.2-1.1c0.1-2.1-12.4-0.6-12-9.4
			C259.7,15.8,262.8,12.5,268.4,12.5 M295.1,15.4l16.6,3.2l-1.1,5.8l-10-1.9l-0.4,2.2l9.8,1.9l-1.1,5.8l-9.8-1.9l-0.5,2.4l10,1.9
			l-1.1,5.8l-16.6-3.2L295.1,15.4 M181.6,24.2l2,5.5l-9.6,3.5l0.8,2.1l9.3-3.4l2,5.5l-9.3,3.4l0.8,2.3l9.6-3.5l2,5.5L173.3,51
			l-7.7-21L181.6,24.2 M333.8,24.9l8,2.8l0.3,23.8l-7.2-2.6l0.1-2.7l-7.6-2.7l-1.6,2.2l-7.2-2.6L333.8,24.9 M335.3,40.1l0.3-7.5
			l-4.5,6.1L335.3,40.1 M151.6,36l3.4,23.6l-7.5,4.1L129.7,48l6.7-3.7l11.4,10.9l-3-15.5L151.6,36 M363.6,37l10.5,5.7
			c4.6,2.5,5.4,6.9,3.4,10.6c-1.7,3.2-4.5,4.1-6.5,4.1c-0.1,0-0.2,0-0.3,0l-0.2,8.9l-6.8-3.7l0.6-7.7l-2.2-1.2l-3.3,6.2l-6-3.2
			L363.6,37 M370,50.8c0.6,0,1.1-0.3,1.5-0.9c0.6-1.1-0.1-2-1.1-2.6l-3.6-2l-1.7,3.1l3.6,2C369.1,50.6,369.6,50.8,370,50.8
			 M117.5,56.3l13.1,18.1l-5.5,4L112,60.3L117.5,56.3 M396.6,59.2c2.6,0,5.4,0.9,7.8,2.8c4.7,3.5,5,8,4.2,11.3l-6.3-1.3
			c0.6-1.7,0.1-4-1.5-5.2c-1-0.8-2.2-1.1-3.3-1.1c-1.7,0-3.3,0.8-4.4,2.3c-1.9,2.5-1.6,5.8,1,7.7c0.8,0.6,1.7,0.9,2.6,0.9
			c1,0,2-0.3,2.8-0.8l3,5.7c-1.4,0.8-3.3,1.5-5.4,1.5c-2,0-4.3-0.6-6.6-2.4c-5.6-4.2-7-11.2-2.8-16.6
			C390,60.7,393.2,59.2,396.6,59.2 M99.6,69.9l4,4.4l-4.4,4l11.1,12.1l-5,4.6L94.1,82.9l-4.4,4l-4-4.4L99.6,69.9 M424.5,79.3
			l4.7,4.9l-5.7,5.5l5.6,5.8l5.7-5.5l4.7,4.9l-16.1,15.5l-4.7-4.9l6.2-5.9l-5.6-5.8l-6.2,5.9l-4.7-4.9L424.5,79.3 M77,96.7
			c1.1,0,2.2,0.2,3.2,0.4l-1.6,6.2c-0.5-0.2-1.1-0.3-1.7-0.3c-1.3,0-2.7,0.5-3.6,1.6c-2.1,2.5-1.5,5.8,0.9,7.7
			c1.1,0.9,2.4,1.4,3.7,1.4c1.5,0,3-0.7,4.1-2c1.3-1.6,1.2-3.9,0.2-5.4l5.8-2.8c1.5,2.9,2.3,7.5-1.4,12c-2.6,3.2-6.1,4.9-9.5,4.9
			c-2.5,0-5-0.9-7.2-2.7c-5.3-4.4-5.6-11.4-1.2-16.8C71.3,97.7,74.3,96.7,77,96.7 M49.4,128.4l23.4,4.3l-3.9,6.6l-2.7-0.6l-4.1,6.9
			l1.8,2l-3.9,6.6l-15-18.5L49.4,128.4 M58,141.1l2.3-3.8l-7.3-1.8L58,141.1 M482.2,163.7l5.9,15.9l-5.5,2l-3.5-9.6l-2.1,0.8
			l3.5,9.3l-5.5,2l-3.5-9.3l-2.3,0.8l3.5,9.6l-5.5,2l-5.9-15.9L482.2,163.7 M484.2,196.8c5.6,0,10,4,11.3,9.9
			c1.2,5.7-1.5,9.3-4.3,11.3l-3.9-5.1c1.6-0.9,2.7-2.9,2.3-4.9c-0.6-2.7-2.8-4.3-5.3-4.3c-0.4,0-0.9,0-1.3,0.1c-3,0.6-5,3.3-4.4,6.5
			c0.4,2,2.2,3.4,4.1,3.6l-1.4,6.3c-3.2-0.7-7.3-2.9-8.5-8.6c-1.4-6.9,2.1-13,8.8-14.4C482.5,196.9,483.4,196.8,484.2,196.8
			 M16.4,217l5.9,0.7L21,227.8l2.2,0.3l1.2-9.9l5.9,0.7l-1.2,9.9l2.4,0.3l1.3-10.1l5.9,0.7l-2.1,16.8l-22.2-2.7L16.4,217
			 M488.7,232.3c6.5,0,11.2,5,11.5,11.7c0.3,6.9-4.1,12.4-11,12.8c-0.2,0-0.4,0-0.6,0c-6.5,0-11.2-5-11.5-11.7
			c-0.3-6.9,4.1-12.4,11-12.8C488.2,232.3,488.5,232.3,488.7,232.3 M488.5,249.9c0.1,0,0.2,0,0.3,0c3.1-0.1,5.5-2.4,5.3-5.6
			c-0.2-3.1-2.6-5.1-5.5-5.1c-0.1,0-0.2,0-0.3,0c-3.1,0.1-5.5,2.4-5.3,5.6C483.2,247.9,485.6,249.9,488.5,249.9 M13.3,249l22.5,7.7
			l0.2,8.5L13.8,274l-0.2-7.7l14.9-5.2l-15.1-4.5L13.3,249 M480.7,269.1l4.6,4c-1.8,1.5-3.3,3.9-3.6,6.9c-0.1,1.3,0.1,2.5,0.9,2.6
			c0,0,0,0,0.1,0c2,0,1.3-11.5,9.1-11.5c0.3,0,0.6,0,0.9,0c3.8,0.4,7,3.9,6.4,10c-0.4,3.6-1.7,6.8-4.1,9.1l-4.4-4.1
			c1.7-1.8,2.7-4.2,2.9-6.3c0.1-1.3-0.3-1.7-0.8-1.8c0,0,0,0-0.1,0c-2,0-1.6,11.5-9,11.5c-0.3,0-0.5,0-0.8,0
			c-4.9-0.5-7.4-4.4-6.7-10.4C476.6,274.3,478.3,271.2,480.7,269.1 M37,281.6l1.3,7.6l-2.4,1.2l1.4,7.9l2.7,0.3l1.3,7.6L17.8,302
			l-1.5-8.4L37,281.6 M31.1,297.6l-0.8-4.4l-6.7,3.4L31.1,297.6 M495.6,304.2l-1.9,7.4l-8.3,2.2l6.3,5.8l-1.9,7.4l-11-11.4l-8.6-2.2
			l1.7-6.6l8.6,2.2L495.6,304.2 M44.2,316.9l4.7,14.5l-21.2,6.9l-2.1-6.4l15.6-5.1l-2.6-8.1L44.2,316.9 M467.9,331.7l3.3,5.2
			c-2.1,0.9-4.3,2.8-5.4,5.6c-0.5,1.2-0.6,2.4,0.2,2.8c0.1,0,0.1,0,0.2,0c1.7,0,4.1-8.8,10-8.8c0.8,0,1.7,0.2,2.7,0.6
			c3.5,1.4,5.6,5.7,3.3,11.4c-1.4,3.4-3.6,6-6.5,7.6l-3.1-5.2c2.1-1.2,3.7-3.3,4.5-5.2c0.5-1.2,0.2-1.7-0.3-2c-0.1,0-0.1,0-0.2,0
			c-1.7,0-4.3,8.8-10,8.8c-0.8,0-1.6-0.2-2.5-0.5c-4.6-1.9-5.8-6.3-3.5-11.9C462.5,335.6,465.1,333.1,467.9,331.7 M48.6,346.1
			c3.2,0,7.3,1.3,9.8,6.2c3.1,6.3,1.2,13.1-4.9,16.1c-1.7,0.9-3.5,1.3-5.2,1.3c-4.4,0-8.4-2.7-10.6-7.2c-2.6-5.3-0.8-9.4,1.3-12l5,4
			c-1.3,1.3-1.9,3.5-1,5.3c1,2,2.8,3,4.7,3c0.9,0,1.8-0.2,2.7-0.6c2.8-1.4,4.1-4.4,2.6-7.3c-0.8-1.6-2.5-2.5-4.2-2.5
			c-0.2,0-0.4,0-0.6,0l-0.2-6.4C48.2,346.1,48.4,346.1,48.6,346.1 M449.4,364.2l14.2,8.3l3-5.2l5.1,3l-9.4,16.2l-5.1-3l3-5.2
			L446,370L449.4,364.2 M72.7,378.1l3.8,5.6L62.9,393l3.4,4.9l-4.9,3.3l-10.6-15.4l4.9-3.3l3.4,4.9L72.7,378.1 M435.6,386l17.6,13.8
			l-10.5,13.3l-4.6-3.6l6.3-8l-1.7-1.4l-6.2,7.8l-4.6-3.6l6.2-7.8l-1.9-1.5l-6.3,8l-4.6-3.6L435.6,386 M88.2,398.8l4.5,5.1
			l-16.8,14.7l-4.5-5.1L88.2,398.8 M416,409.6l15.1,16.5l-6.9,6.3l-10.1-5.2l4.4,10.5l-6.9,6.3l-15.1-16.5l5-4.6l9.1,9.9l-5.4-13.3
			l2.2-2l12.8,6.5l-9.1-9.9L416,409.6 M102.2,416.2c1.5,0,3,0.6,4.6,1.9l10.5,9.3l-14.9,16.7l-10.1-9c-3.5-3.1-2.9-6.7-1.2-8.7
			c1.2-1.3,2.6-1.9,3.9-1.9c0.8,0,1.6,0.2,2.3,0.6c-1.6-1.9-1.5-4.8,0.5-6.9C98.9,417,100.5,416.2,102.2,416.2 M106.6,429.3l1.9-2.1
			l-4.1-3.6c-0.4-0.3-0.7-0.5-1.1-0.5c-0.4,0-0.7,0.2-1,0.5c-0.5,0.6-0.5,1.5,0.2,2.1L106.6,429.3 M101.1,435.4l1.7-2l-3.9-3.5
			c-0.3-0.2-0.6-0.3-0.9-0.3c-0.4,0-0.7,0.1-1,0.5c-0.5,0.6-0.4,1.4,0.2,1.8L101.1,435.4 M268.4,10.5
			C268.4,10.5,268.4,10.5,268.4,10.5c-7.2,0-10.7,4.6-10.9,8.8c-0.2,3.1,0.9,5.1,2.5,6.6l-3.4,4.4c-0.6,0.8-0.5,1.9,0.2,2.6
			c2.9,2.9,6.7,4.4,11.5,4.7c0.3,0,0.7,0,1,0c6.6,0,10.8-3.5,11.1-9.2c0.2-3.6-1.4-5.8-3.6-7.2l3.2-3.8c0.7-0.8,0.6-2-0.2-2.8
			c-2.7-2.5-6.4-3.9-10.6-4.1C269,10.5,268.7,10.5,268.4,10.5L268.4,10.5L268.4,10.5z M295.1,13.4c-0.9,0-1.8,0.7-2,1.6L288.9,37
			c-0.1,0.5,0,1.1,0.3,1.5c0.3,0.4,0.8,0.7,1.3,0.8l16.6,3.2c0.1,0,0.3,0,0.4,0c0.4,0,0.8-0.1,1.1-0.3c0.4-0.3,0.7-0.8,0.8-1.3
			l1.1-5.8c0.1-0.5,0-1-0.3-1.5c0.3-0.3,0.4-0.6,0.5-1l1.1-5.8c0.1-0.3,0-0.6,0-1c0.4-0.3,0.6-0.7,0.7-1.2l1.1-5.8
			c0.2-1.1-0.5-2.1-1.6-2.3l-16.6-3.2C295.4,13.4,295.3,13.4,295.1,13.4L295.1,13.4z M181.6,22.2c-0.2,0-0.5,0-0.7,0.1L165,28.2
			c-0.5,0.2-0.9,0.6-1.1,1c-0.2,0.5-0.2,1-0.1,1.5l7.7,21c0.3,0.8,1.1,1.3,1.9,1.3c0.2,0,0.5,0,0.7-0.1l15.9-5.8
			c0.5-0.2,0.9-0.6,1.1-1c0.2-0.5,0.2-1,0.1-1.5l-2-5.5c-0.2-0.5-0.5-0.9-1-1.1c0.1-0.4,0.1-0.8-0.1-1.1l-2-5.5
			c-0.1-0.3-0.3-0.6-0.5-0.8c0.2-0.4,0.2-0.9,0-1.4l-2-5.5c-0.2-0.5-0.6-0.9-1-1.1C182.2,22.3,181.9,22.2,181.6,22.2L181.6,22.2z
			 M333.8,22.9c-0.6,0-1.2,0.3-1.5,0.7L317,42c-0.4,0.5-0.6,1.2-0.4,1.8s0.6,1.1,1.3,1.4l7.2,2.6c0.2,0.1,0.4,0.1,0.7,0.1
			c0.6,0,1.2-0.3,1.6-0.8l0.7-1l4.8,1.7l-0.1,1.3c0,0.9,0.5,1.7,1.3,2l7.2,2.6c0.2,0.1,0.4,0.1,0.7,0.1c0.4,0,0.8-0.1,1.2-0.4
			c0.5-0.4,0.8-1,0.8-1.7l-0.3-23.8c0-0.8-0.5-1.6-1.3-1.9l-8-2.8C334.2,23,334,22.9,333.8,22.9L333.8,22.9z M151.6,34
			c-0.3,0-0.7,0.1-1,0.2l-6.7,3.7c-0.8,0.4-1.2,1.3-1,2.1l1.8,9.4l-6.9-6.6c-0.4-0.4-0.9-0.6-1.4-0.6c-0.3,0-0.7,0.1-1,0.2l-6.7,3.7
			c-0.6,0.3-1,0.9-1,1.5c-0.1,0.7,0.2,1.3,0.7,1.7l17.9,15.7c0.4,0.3,0.8,0.5,1.3,0.5c0.3,0,0.7-0.1,1-0.2l7.5-4.1
			c0.7-0.4,1.1-1.2,1-2l-3.4-23.6c-0.1-0.6-0.5-1.2-1.1-1.5C152.2,34.1,151.9,34,151.6,34L151.6,34z M363.6,35c-0.2,0-0.4,0-0.6,0.1
			c-0.5,0.2-0.9,0.5-1.2,1l-10.6,19.7c-0.3,0.5-0.3,1-0.2,1.5c0.2,0.5,0.5,0.9,1,1.2l6,3.2c0.3,0.2,0.6,0.2,0.9,0.2
			c0.7,0,1.4-0.4,1.8-1.1l1.5-2.7l-0.3,4.2c-0.1,0.8,0.3,1.5,1,1.9l6.8,3.7c0.3,0.2,0.6,0.2,0.9,0.2c0.3,0,0.7-0.1,1-0.3
			c0.6-0.4,1-1,1-1.7l0.1-7.1c2-0.4,4.7-1.5,6.5-4.9c1.3-2.3,1.6-4.9,0.9-7.2c-0.7-2.5-2.5-4.6-5.2-6l-10.5-5.7
			C364.2,35,363.9,35,363.6,35L363.6,35z M117.5,54.3c-0.4,0-0.8,0.1-1.2,0.4l-5.5,4c-0.9,0.6-1.1,1.9-0.5,2.8l13.1,18.1
			c0.4,0.5,1,0.8,1.6,0.8c0.4,0,0.8-0.1,1.2-0.4l5.5-4c0.4-0.3,0.7-0.8,0.8-1.3c0.1-0.5,0-1.1-0.4-1.5l-13.1-18.1
			c-0.3-0.4-0.8-0.7-1.3-0.8C117.7,54.3,117.6,54.3,117.5,54.3L117.5,54.3z M396.6,57.2c-4.2,0-7.9,1.9-10.5,5.4
			c-4.7,6.3-3.4,14.4,3.2,19.4c2.4,1.8,5.1,2.8,7.8,2.8c2.7,0,5-0.9,6.4-1.7c1-0.5,1.3-1.7,0.8-2.7l-3-5.7c-0.3-0.5-0.7-0.9-1.3-1
			c-0.2,0-0.3-0.1-0.5-0.1c-0.4,0-0.8,0.1-1.1,0.4c-0.4,0.3-1,0.5-1.6,0.5c-0.4,0-1-0.1-1.4-0.4c-1.6-1.2-1.8-3.2-0.6-4.9
			c0.7-1,1.8-1.5,2.8-1.5c0.7,0,1.4,0.2,2.1,0.7c0.9,0.7,1.1,2,0.8,3c-0.2,0.5-0.1,1.1,0.2,1.6c0.3,0.5,0.8,0.9,1.3,1l6.3,1.3
			c0.1,0,0.3,0,0.4,0c0.9,0,1.7-0.6,1.9-1.5c0.7-3,1.1-8.8-4.9-13.4C402.9,58.3,399.7,57.2,396.6,57.2L396.6,57.2z M99.6,67.9
			c-0.5,0-1,0.2-1.3,0.5L84.4,81.1c-0.4,0.4-0.6,0.9-0.6,1.4c0,0.5,0.2,1,0.5,1.4l4,4.4c0.4,0.4,0.9,0.7,1.5,0.7
			c0.5,0,1-0.2,1.3-0.5l2.9-2.7l9.7,10.7c0.4,0.4,0.9,0.6,1.4,0.6c0,0,0.1,0,0.1,0c0.5,0,1-0.2,1.3-0.5l5-4.6c0.8-0.7,0.9-2,0.1-2.8
			L102,78.4l2.9-2.7c0.8-0.7,0.9-2,0.1-2.8l-4-4.4C100.6,68.1,100.1,67.9,99.6,67.9L99.6,67.9z M424.5,77.3c-0.5,0-1,0.2-1.4,0.6
			L407,93.3c-0.8,0.8-0.8,2-0.1,2.8l4.7,4.9c0.4,0.4,0.9,0.6,1.4,0.6c0.5,0,1-0.2,1.4-0.6l4.7-4.5l2.8,2.9l-4.7,4.5
			c-0.4,0.4-0.6,0.9-0.6,1.4c0,0.5,0.2,1,0.6,1.4l4.7,4.9c0.4,0.4,0.9,0.6,1.4,0.6c0.5,0,1-0.2,1.4-0.6l16.1-15.5
			c0.4-0.4,0.6-0.9,0.6-1.4s-0.2-1-0.6-1.4l-4.7-4.9c-0.4-0.4-0.9-0.6-1.4-0.6c-0.5,0-1,0.2-1.4,0.6l-4.3,4.1l-2.8-2.9l4.3-4.1
			c0.4-0.4,0.6-0.9,0.6-1.4c0-0.5-0.2-1-0.6-1.4l-4.7-4.9C425.6,77.5,425,77.3,424.5,77.3L424.5,77.3z M77,94.7
			c-2.7,0-6.5,0.9-9.8,4.9c-5.2,6.4-4.6,14.7,1.5,19.6c2.5,2,5.4,3.1,8.4,3.1c4.1,0,8.2-2,11.1-5.6c4.9-6,2.7-11.9,1.6-14.2
			c-0.4-0.7-1.1-1.1-1.8-1.1c-0.3,0-0.6,0.1-0.9,0.2l-5.8,2.8c-0.5,0.3-0.9,0.7-1,1.3c-0.2,0.5-0.1,1.1,0.2,1.6
			c0.5,0.8,0.6,2.2-0.1,3.1c-0.7,0.8-1.6,1.3-2.6,1.3c-0.8,0-1.7-0.3-2.4-0.9c-1.6-1.3-1.9-3.4-0.6-4.9c0.4-0.5,1.2-0.9,2-0.9
			c0.3,0,0.7,0.1,1,0.2c0.2,0.1,0.5,0.1,0.7,0.1c0.3,0,0.6-0.1,0.9-0.2c0.5-0.3,0.9-0.7,1-1.3l1.6-6.2c0.3-1.1-0.4-2.1-1.4-2.4
			C79.5,94.9,78.2,94.7,77,94.7L77,94.7z M49.4,126.4c-0.7,0-1.4,0.4-1.7,1l-4.3,7.3c-0.4,0.7-0.4,1.6,0.2,2.3l15,18.5
			c0.4,0.5,1,0.7,1.6,0.7c0,0,0.1,0,0.1,0c0.7,0,1.2-0.4,1.6-1l3.9-6.6c0.4-0.8,0.3-1.7-0.2-2.4l-0.8-0.9l2.6-4.4l1.2,0.3
			c0.2,0,0.3,0.1,0.5,0.1c0.7,0,1.4-0.4,1.7-1l3.9-6.6c0.3-0.6,0.4-1.3,0.1-1.8s-0.8-1-1.5-1.1l-23.4-4.3
			C49.7,126.5,49.5,126.4,49.4,126.4L49.4,126.4z M482.2,161.7c-0.2,0-0.5,0-0.7,0.1l-21,7.8c-1,0.4-1.6,1.5-1.2,2.6l5.9,15.9
			c0.2,0.5,0.6,0.9,1,1.1c0.3,0.1,0.5,0.2,0.8,0.2c0.2,0,0.5,0,0.7-0.1l5.5-2c0.5-0.2,0.9-0.5,1.1-1c0.1,0,0.3,0,0.4,0
			c0.2,0,0.5,0,0.7-0.1l5.5-2c0.3-0.1,0.6-0.3,0.8-0.5c0.2,0.1,0.4,0.1,0.7,0.1c0.2,0,0.5,0,0.7-0.1l5.5-2c1-0.4,1.6-1.5,1.2-2.6
			L484,163c-0.2-0.5-0.6-0.9-1-1.1C482.7,161.7,482.4,161.7,482.2,161.7L482.2,161.7z M484.2,194.8c-1,0-2,0.1-3,0.3
			c-7.7,1.6-12,8.7-10.3,16.8c1.6,7.6,7.5,9.6,10,10.1c0.1,0,0.3,0,0.4,0c0.9,0,1.7-0.6,1.9-1.6l1.4-6.3c0.1-0.6,0-1.1-0.3-1.6
			c-0.3-0.5-0.8-0.8-1.4-0.8c-1-0.1-2.1-0.9-2.3-2c-0.2-1,0-1.9,0.5-2.6c0.5-0.7,1.3-1.3,2.3-1.5c0.3-0.1,0.6-0.1,0.9-0.1
			c1.7,0,3,1,3.3,2.7c0.2,1.1-0.5,2.3-1.3,2.8c-0.5,0.3-0.8,0.8-1,1.3c-0.1,0.6,0,1.1,0.4,1.6l3.9,5.1c0.4,0.5,1,0.8,1.6,0.8
			c0.4,0,0.8-0.1,1.2-0.4c2.6-1.8,6.6-6,5.1-13.3C496,199.4,490.7,194.8,484.2,194.8L484.2,194.8z M16.4,215c-1,0-1.9,0.7-2,1.8
			l-2.1,16.8c-0.1,0.5,0.1,1.1,0.4,1.5s0.8,0.7,1.3,0.8l22.2,2.7c0.1,0,0.2,0,0.2,0c1,0,1.9-0.7,2-1.8l2.1-16.8
			c0.1-0.5-0.1-1.1-0.4-1.5c-0.3-0.4-0.8-0.7-1.3-0.8L33,217c-0.1,0-0.2,0-0.2,0c-0.4,0-0.8,0.1-1.2,0.4c-0.3-0.2-0.6-0.4-1-0.4
			l-5.9-0.7c-0.1,0-0.2,0-0.2,0c-0.2,0-0.5,0-0.7,0.1c-0.3-0.3-0.7-0.6-1.2-0.6l-5.9-0.7C16.6,215,16.5,215,16.4,215L16.4,215z
			 M488.7,230.3c-0.2,0-0.5,0-0.7,0c-3.8,0.2-7.3,1.8-9.6,4.6c-2.3,2.7-3.4,6.3-3.2,10.2c0.4,7.9,6.1,13.6,13.5,13.6
			c0.2,0,0.5,0,0.7,0c3.8-0.2,7.3-1.8,9.6-4.6c2.3-2.7,3.4-6.3,3.2-10.2C501.8,236,496.1,230.3,488.7,230.3L488.7,230.3z
			 M488.5,247.9c-1.6,0-3.4-0.8-3.5-3.2c0-1,0.3-1.8,0.9-2.5c0.6-0.6,1.5-1,2.6-1.1c0.1,0,0.2,0,0.2,0c1.6,0,3.4,0.8,3.5,3.2
			c0.1,2.3-1.6,3.4-3.4,3.5C488.7,247.9,488.6,247.9,488.5,247.9L488.5,247.9z M13.3,247c-0.4,0-0.8,0.1-1.2,0.4
			c-0.5,0.4-0.8,1-0.8,1.7l0.2,7.7c0,0.9,0.6,1.6,1.4,1.9l9.2,2.7l-9,3.1c-0.8,0.3-1.4,1.1-1.3,1.9l0.2,7.7c0,0.7,0.3,1.3,0.9,1.6
			c0.3,0.2,0.7,0.3,1.1,0.3c0.2,0,0.5,0,0.7-0.1l22.2-8.7c0.8-0.3,1.3-1.1,1.3-1.9l-0.2-8.5c0-0.8-0.6-1.6-1.4-1.8l-22.5-7.7
			C13.7,247,13.5,247,13.3,247L13.3,247z M480.7,267.1c-0.5,0-1,0.2-1.3,0.5c-3,2.7-4.8,6.4-5.3,11.2c-0.7,7.1,2.5,12,8.5,12.6
			c0.3,0,0.7,0.1,1,0.1c3,0,5-1.4,6.4-3.3l3.7,3.4c0.4,0.4,0.9,0.5,1.4,0.5c0.5,0,1-0.2,1.4-0.6c2.6-2.6,4.2-6.2,4.7-10.3
			c0.3-3.3-0.3-6.3-1.9-8.5c-1.5-2.1-3.7-3.4-6.3-3.7c-0.4,0-0.7-0.1-1.1-0.1c-2.5,0-4.3,0.9-5.6,2.2l-4.2-3.6
			C481.7,267.2,481.2,267.1,480.7,267.1L480.7,267.1z M37,279.6c-0.3,0-0.7,0.1-1,0.3l-20.6,11.9c-0.7,0.4-1.1,1.2-1,2.1l1.5,8.4
			c0.1,0.8,0.8,1.5,1.6,1.6l23.4,4.3c0.1,0,0.2,0,0.4,0c0.5,0,1-0.2,1.4-0.6c0.5-0.5,0.7-1.1,0.6-1.8l-1.3-7.6
			c-0.2-0.9-0.8-1.5-1.7-1.6l-1.2-0.2l-0.9-5l1.1-0.6c0.8-0.4,1.2-1.3,1.1-2.1l-1.3-7.6c-0.1-0.6-0.5-1.2-1.1-1.5
			C37.5,279.7,37.2,279.6,37,279.6L37,279.6z M495.6,302.2c-0.2,0-0.4,0-0.6,0.1l-14.6,4.6l-8.1-2c-0.2,0-0.3-0.1-0.5-0.1
			c-0.9,0-1.7,0.6-1.9,1.5l-1.7,6.6c-0.1,0.5-0.1,1.1,0.2,1.5c0.3,0.5,0.7,0.8,1.2,0.9l8.1,2l10.6,10.9c0.4,0.4,0.9,0.6,1.4,0.6
			c0.2,0,0.3,0,0.5-0.1c0.7-0.2,1.2-0.7,1.4-1.4l1.9-7.4c0.2-0.7,0-1.5-0.6-2l-3.6-3.3l4.8-1.3c0.7-0.2,1.3-0.7,1.4-1.4l1.9-7.4
			c0.2-0.7,0-1.4-0.6-1.9C496.5,302.4,496.1,302.2,495.6,302.2L495.6,302.2z M44.2,314.9c-0.2,0-0.4,0-0.6,0.1l-5.6,1.8
			c-0.5,0.2-0.9,0.5-1.2,1c-0.2,0.5-0.3,1-0.1,1.5l2,6.2L25,330c-1,0.3-1.6,1.5-1.3,2.5l2.1,6.4c0.2,0.5,0.5,0.9,1,1.2
			c0.3,0.1,0.6,0.2,0.9,0.2c0.2,0,0.4,0,0.6-0.1l21.2-6.9c0.5-0.2,0.9-0.5,1.2-1c0.2-0.5,0.3-1,0.1-1.5l-4.7-14.5
			C45.8,315.4,45,314.9,44.2,314.9L44.2,314.9z M467.9,329.7c-0.3,0-0.6,0.1-0.9,0.2c-3.7,1.8-6.4,4.8-8.2,9.3
			c-1.3,3.2-1.6,6.1-0.9,8.6c0.8,2.7,2.7,4.7,5.5,5.9c1.1,0.4,2.2,0.7,3.2,0.7c1.9,0,3.4-0.7,4.8-1.6l2.5,4.3c0.4,0.6,1,1,1.7,1
			c0.3,0,0.6-0.1,1-0.2c3.2-1.8,5.8-4.7,7.4-8.6c2.8-6.8-0.1-12.2-4.4-14c-1.2-0.5-2.3-0.7-3.5-0.7c-1.3,0-2.5,0.3-3.6,0.9l-3-4.7
			C469.3,330.1,468.6,329.7,467.9,329.7L467.9,329.7z M48.6,344.1c-0.2,0-0.4,0-0.7,0c-1.1,0.1-1.9,1-1.9,2.1l0.2,6.4
			c0,0.6,0.3,1.1,0.7,1.5c0.4,0.3,0.8,0.5,1.3,0.5c0.1,0,0.2,0,0.3,0c0.1,0,0.2,0,0.3,0c0.8,0,1.9,0.4,2.4,1.4
			c0.4,0.9,0.5,1.8,0.2,2.7c-0.3,0.8-1,1.5-1.9,2c-0.6,0.3-1.2,0.4-1.8,0.4c-1.3,0-2.4-0.7-3-1.9c-0.5-1-0.1-2.3,0.6-3
			c0.4-0.4,0.6-1,0.6-1.5c0-0.6-0.3-1.1-0.7-1.5l-5-4c-0.4-0.3-0.8-0.4-1.3-0.4c-0.6,0-1.1,0.2-1.5,0.7c-2,2.4-4.9,7.4-1.6,14.2
			c2.6,5.2,7.2,8.3,12.4,8.3c2.1,0,4.1-0.5,6.1-1.5c7-3.5,9.5-11.4,5.8-18.8C57,345,51.6,344.1,48.6,344.1L48.6,344.1z M449.4,362.2
			c-0.2,0-0.3,0-0.5,0.1c-0.5,0.1-1,0.5-1.2,0.9l-3.4,5.8c-0.6,1-0.2,2.2,0.7,2.7l12.5,7.3l-2,3.4c-0.3,0.5-0.3,1-0.2,1.5
			c0.1,0.5,0.5,1,0.9,1.2l5.1,3c0.3,0.2,0.7,0.3,1,0.3c0.2,0,0.3,0,0.5-0.1c0.5-0.1,1-0.5,1.2-0.9l9.4-16.2c0.6-1,0.2-2.2-0.7-2.7
			l-5.1-3c-0.3-0.2-0.7-0.3-1-0.3c-0.2,0-0.3,0-0.5,0.1c-0.5,0.1-1,0.5-1.2,0.9l-2,3.5l-12.5-7.3
			C450.1,362.3,449.8,362.2,449.4,362.2L449.4,362.2z M72.7,376.1c-0.4,0-0.8,0.1-1.1,0.4l-11.9,8.2l-2.2-3.3
			c-0.3-0.4-0.8-0.7-1.3-0.8c-0.1,0-0.2,0-0.4,0c-0.4,0-0.8,0.1-1.1,0.4l-4.9,3.3c-0.9,0.6-1.1,1.9-0.5,2.8l10.6,15.4
			c0.3,0.4,0.8,0.7,1.3,0.8c0.1,0,0.2,0,0.4,0c0.4,0,0.8-0.1,1.1-0.4l4.9-3.3c0.9-0.6,1.1-1.9,0.5-2.8l-2.3-3.3l11.9-8.2
			c0.9-0.6,1.1-1.9,0.5-2.8l-3.8-5.6C73.9,376.4,73.3,376.1,72.7,376.1L72.7,376.1z M435.6,384c-0.1,0-0.2,0-0.2,0
			c-0.5,0.1-1,0.3-1.3,0.7l-10.5,13.3c-0.3,0.4-0.5,0.9-0.4,1.5c0.1,0.5,0.3,1,0.7,1.3l4.6,3.6c0.4,0.3,0.8,0.4,1.2,0.4
			c0.1,0,0.1,0,0.2,0c0.1,0.4,0.3,0.7,0.6,0.9l4.6,3.6c0.3,0.2,0.6,0.3,0.9,0.4c0.1,0.5,0.4,0.9,0.7,1.2l4.6,3.6
			c0.4,0.3,0.8,0.4,1.2,0.4c0.6,0,1.2-0.3,1.6-0.8l10.5-13.3c0.3-0.4,0.5-0.9,0.4-1.5c-0.1-0.5-0.3-1-0.7-1.3l-17.6-13.8
			C436.4,384.1,436,384,435.6,384L435.6,384z M88.2,396.8c-0.5,0-0.9,0.2-1.3,0.5L70.1,412c-0.4,0.3-0.6,0.8-0.7,1.4
			c0,0.5,0.1,1.1,0.5,1.4l4.5,5.1c0.4,0.5,0.9,0.7,1.5,0.7c0.5,0,0.9-0.2,1.3-0.5L94,405.4c0.4-0.3,0.6-0.8,0.7-1.4
			s-0.1-1.1-0.5-1.5l-4.5-5.1C89.3,397,88.8,396.8,88.2,396.8L88.2,396.8z M416,407.6c-0.5,0-1,0.2-1.4,0.5l-5,4.6
			c-0.8,0.7-0.9,2-0.1,2.8l1.6,1.7l-2.9-1.5c-0.3-0.1-0.6-0.2-0.9-0.2c-0.5,0-1,0.2-1.4,0.5l-2.2,2c-0.6,0.6-0.8,1.5-0.5,2.2l1.2,3
			l-1.6-1.7c-0.4-0.4-0.9-0.6-1.4-0.6c0,0-0.1,0-0.1,0c-0.5,0-1,0.2-1.4,0.5l-5,4.6c-0.8,0.7-0.9,2-0.1,2.8l15.1,16.5
			c0.4,0.4,0.9,0.6,1.4,0.6c0,0,0.1,0,0.1,0c0.5,0,1-0.2,1.4-0.5l6.9-6.3c0.6-0.6,0.8-1.5,0.5-2.2l-2.3-5.5l5.3,2.7
			c0.3,0.2,0.6,0.2,0.9,0.2c0.5,0,1-0.2,1.4-0.5l6.9-6.3c0.8-0.7,0.9-2,0.1-2.8l-15.1-16.5C417.1,407.9,416.6,407.7,416,407.6
			C416,407.6,416,407.6,416,407.6L416,407.6z M102.2,414.2c-2.2,0-4.3,1-5.9,2.7c-1.5,1.6-2.2,3.7-2,5.7c-1.7,0.2-3.4,1.1-4.7,2.5
			c-1.3,1.4-2,3.4-1.9,5.3c0.1,1.6,0.7,3.9,3.2,6.1l10.1,9c0.4,0.3,0.9,0.5,1.3,0.5c0.6,0,1.1-0.2,1.5-0.7l14.9-16.7
			c0.4-0.4,0.5-0.9,0.5-1.4c0-0.5-0.3-1-0.7-1.4l-10.5-9.3C106.3,415,104.3,414.2,102.2,414.2L102.2,414.2z"/>
	</g>
</g>
</svg>
