<?xml version="1.0" encoding="utf-8"?>
<!-- Generator: Adobe Illustrator 23.0.1, SVG Export Plug-In . SVG Version: 6.00 Build 0)  -->
<svg version="1.1" id="Layer_1" 
	xmlns="http://www.w3.org/2000/svg" 
	xmlns:xlink="http://www.w3.org/1999/xlink" x="0px" y="0px" viewBox="0 0 100 100" style="enable-background:new 0 0 100 100;" xml:space="preserve">
	<circle fill="#FFFFFF" class="st0" cx="50" cy="50" r="50"/>
	<g>
		<g>
			<path fill="#263238" d="M70.1,31c-0.8-1-2-1.9-3.7-2.6c-1.7-0.7-4.1-1-7-1H53l0,0l5.1-14.2l3.4-9.4C58.2,3.1,54.7,2.6,51,2.5l0,0
			c-0.4,0-0.7,0-1,0c-0.6,0-1,0-1.6,0C22.9,3.4,2.5,24.4,2.5,50c0,14.2,6.3,27,16.1,35.7l3.8-10.3c-6.2-6.7-10-15.7-10-25.5
			c0-18.9,14.1-34.6,32.2-37.1c1-0.1,1.8-0.2,2.8-0.3l0,0L33.7,50.2L61,47.5l0,0c0.8-0.2,1.5-0.6,2.5-1c0.9-0.5,1.8-1.1,2.7-1.9
			s1.7-1.6,2.5-2.6c0.8-0.9,1.3-2.1,1.8-3.3c0.5-1.3,0.8-2.7,0.8-4C71.3,33.3,70.9,32,70.1,31z M58.5,40.2c-0.6,1.6-1.5,2.8-2.8,3.4
			c-1.3,0.7-2.6,1-3.9,1l0,0h-4.9l0,0l3.3-9.1l0,0H55l0,0c0.6,0,1.1,0.1,1.7,0.2c0.6,0.2,1,0.4,1.4,0.8c0.4,0.4,0.6,0.9,0.7,1.4
			C58.9,38.6,58.8,39.3,58.5,40.2z"/>
			<path fill="#20AF65" d="M64,4.6L60.5,14c15.6,4.6,27,19,27,36c0,20.7-16.8,37.5-37.5,37.5c-5.1,0-10.1-1-14.6-2.9
			c-0.8-0.3-1.5-0.7-2.3-1L37,72.9h6.4c5.7,0,10.5-0.9,14.1-2.9c3.7-1.9,6.3-5,7.9-9.3c0.6-1.6,0.8-2.9,0.7-4.2
			c-0.2-1.2-0.5-2.2-1-3c-0.6-0.9-1.2-1.5-2-2.1c-0.7-0.5-1.3-0.8-2-1L33.3,53l-8.9,24.3l-3.6,10c2.8,2.2,5.8,4.1,9,5.6
			c0.8,0.4,1.5,0.7,2.3,1c5.5,2.3,11.6,3.5,18,3.5c26.2,0,47.5-21.3,47.5-47.5C97.5,28.6,83.3,10.6,64,4.6z M43.7,54.7h5.8
			c0.7,0,1.3,0.1,2.1,0.2s1.3,0.4,1.9,0.7c0.5,0.4,0.9,0.9,1,1.5c0.2,0.7,0.1,1.5-0.3,2.6c-0.4,1.1-1,2.1-1.6,2.8s-1.4,1.2-2.2,1.5
			c-0.8,0.4-1.5,0.6-2.4,0.7c-0.9,0.1-1.5,0.2-2.2,0.2h-5.8L43.7,54.7z"/>
		</g>
	</g>
</svg>
