<?xml version="1.0" encoding="UTF-8" standalone="no"?>
<svg
   xmlns:dc="http://purl.org/dc/elements/1.1/"
   xmlns:cc="http://creativecommons.org/ns#"
   xmlns:rdf="http://www.w3.org/1999/02/22-rdf-syntax-ns#"
   xmlns:svg="http://www.w3.org/2000/svg"
   xmlns="http://www.w3.org/2000/svg"
   xmlns:sodipodi="http://sodipodi.sourceforge.net/DTD/sodipodi-0.dtd"
   xmlns:inkscape="http://www.inkscape.org/namespaces/inkscape"
   inkscape:version="1.0 (4035a4fb49, 2020-05-01)"
   sodipodi:docname="01 BC Main Logo.svg"
   viewBox="0 0 256 256"
   height="256"
   width="256"
   xml:space="preserve"
   id="svg10"
   version="1.1"><metadata
     id="metadata16"><rdf:RDF><cc:Work
         rdf:about=""><dc:format>image/svg+xml</dc:format><dc:type
           rdf:resource="http://purl.org/dc/dcmitype/StillImage" /><dc:title></dc:title></cc:Work></rdf:RDF></metadata><defs
     id="defs14"><clipPath
       id="clipPath26"
       clipPathUnits="userSpaceOnUse"><path
         id="path24"
         d="M 0,1000 H 1000 V 0 H 0 Z" /></clipPath></defs><sodipodi:namedview
     inkscape:current-layer="g18"
     inkscape:window-maximized="1"
     inkscape:window-y="-9"
     inkscape:window-x="-9"
     inkscape:cy="345.38151"
     inkscape:cx="666.66663"
     inkscape:zoom="0.62250004"
     showgrid="false"
     id="namedview12"
     inkscape:window-height="1001"
     inkscape:window-width="1920"
     inkscape:pageshadow="2"
     inkscape:pageopacity="0"
     guidetolerance="10"
     gridtolerance="10"
     objecttolerance="10"
     borderopacity="1"
     bordercolor="#666666"
     pagecolor="#ffffff" /><g
     transform="matrix(1.3333333,0,0,-1.3333333,0,1333.3333)"
     inkscape:label="01 BC Main Logo"
     inkscape:groupmode="layer"
     id="g18"><g
       transform="matrix(1.415908,0,0,1.415908,-219.55744,198.07021)"
       id="g169"><g
         id="g161"><g
           transform="translate(261.8623,461.8682)"
           id="g28"><path
             id="path30"
             style="fill:#f9ae0c;fill-opacity:1;fill-rule:nonzero;stroke:none"
             d="m 0,0 c -10.185,-10.186 -23.728,-15.795 -38.132,-15.795 -14.404,0 -27.946,5.609 -38.132,15.795 -10.185,10.186 -15.794,23.728 -15.794,38.132 0,14.404 5.609,27.946 15.794,38.131 10.186,10.186 23.728,15.796 38.132,15.796 14.404,0 27.947,-5.61 38.132,-15.796 C 10.185,66.078 15.795,52.536 15.795,38.132 15.795,23.728 10.185,10.186 0,0 m 20.588,62.94 c -3.21,7.589 -7.804,14.405 -13.655,20.256 -5.852,5.851 -12.667,10.446 -20.257,13.656 -7.86,3.324 -16.206,5.01 -24.808,5.01 -8.601,0 -16.948,-1.686 -24.807,-5.01 -7.59,-3.21 -14.406,-7.805 -20.257,-13.656 -5.851,-5.851 -10.446,-12.667 -13.656,-20.256 -3.324,-7.86 -5.01,-16.207 -5.01,-24.808 0,-8.602 1.686,-16.948 5.01,-24.809 3.21,-7.59 7.805,-14.404 13.656,-20.256 5.851,-5.851 12.667,-10.446 20.257,-13.655 7.859,-3.325 16.206,-5.011 24.807,-5.011 8.602,0 16.948,1.686 24.808,5.011 7.59,3.209 14.405,7.804 20.257,13.655 5.851,5.852 10.445,12.666 13.655,20.256 3.325,7.861 5.011,16.207 5.011,24.809 0,8.601 -1.686,16.948 -5.011,24.808" /></g><g
           transform="translate(243.3691,514.9941)"
           id="g32"><path
             id="path34"
             style="fill:#f9ae0c;fill-opacity:1;fill-rule:nonzero;stroke:none"
             d="m 0,0 h -13.872 v 9.391 h 13.55 C 2.276,9.391 4.39,7.277 4.39,4.679 4.39,2.192 2.445,0.169 0,0 m 12.371,-2.346 c 1.158,2.084 1.822,4.477 1.822,7.025 0,8.005 -6.511,14.516 -14.515,14.516 h -13.55 v 9.258 h -9.804 V -0.032 h -10.026 c -13.551,0 -24.575,-11.025 -24.575,-24.576 0,-13.551 11.024,-24.576 24.575,-24.576 h 10.026 v -9.257 h 9.804 v 9.257 h 13.428 v 9.804 h -33.258 c -8.145,0 -14.772,6.627 -14.772,14.772 0,8.145 6.627,14.804 14.772,14.804 h 10.026 v -5.846 h 9.804 v 5.846 H 4.484 c 2.599,0 4.713,-2.113 4.713,-4.712 0,-2.598 -2.114,-4.712 -4.713,-4.712 h -41.891 v -9.803 h 13.731 v -6.796 h 9.804 v 6.796 H 4.484 c 8.004,0 14.516,6.511 14.516,14.515 0,5.097 -2.646,9.579 -6.629,12.17" /></g></g><path
         d="m 216.144,534.189 h -10.182 v -9.804 h 10.182 z"
         style="fill:#f9ae0c;fill-opacity:1;fill-rule:nonzero;stroke:none"
         id="path36" /></g></g></svg>
