<svg id="Layer_1" data-name="Layer 1" xmlns="http://www.w3.org/2000/svg" viewBox="0 0 600 600"><defs><style>.cls-1{fill:#18578c;}.cls-2{fill:#fff;}</style></defs><title>Bluzelle - Screen - Symbol - Big - Social Circle (Blue)</title><circle class="cls-1" cx="300" cy="300" r="300"/><path class="cls-2" d="M270.41,228.93l-37.82-37.82-41.48,41.48,37.82,37.82A77.43,77.43,0,0,1,270.41,228.93Z"/><path class="cls-2" d="M371.07,329.59a77.43,77.43,0,0,1-41.48,41.48l37.82,37.82,41.48-41.48Z"/><path class="cls-2" d="M196.29,196.29a36.66,36.66,0,1,0-51.85,0A36.66,36.66,0,0,0,196.29,196.29Z"/><path class="cls-2" d="M403.71,403.71a36.66,36.66,0,1,0,51.85,0A36.66,36.66,0,0,0,403.71,403.71Z"/><path class="cls-2" d="M228.93,329.59l-37.82,37.82,41.48,41.48,37.82-37.82A77.43,77.43,0,0,1,228.93,329.59Z"/><path class="cls-2" d="M371.07,270.41l37.82-37.82-41.48-41.48-37.82,37.82A77.43,77.43,0,0,1,371.07,270.41Z"/><path class="cls-2" d="M455.56,196.29a36.66,36.66,0,1,0-51.85,0A36.66,36.66,0,0,0,455.56,196.29Z"/><path class="cls-2" d="M144.44,403.71a36.66,36.66,0,1,0,51.85,0A36.66,36.66,0,0,0,144.44,403.71Z"/><path class="cls-2" d="M223.88,289H175.33v22h48.55a69.19,69.19,0,0,1,0-22Z"/><path class="cls-2" d="M376.12,311h48.55V289H376.12a69.19,69.19,0,0,1,0,22Z"/><circle class="cls-2" cx="483.33" cy="300" r="36.67"/><circle class="cls-2" cx="116.67" cy="300" r="36.67"/><path class="cls-2" d="M289,376.12v48.55h22V376.12a69.19,69.19,0,0,1-22,0Z"/><path class="cls-2" d="M311,223.88V175.33H289v48.55a69.19,69.19,0,0,1,22,0Z"/><circle class="cls-2" cx="300" cy="116.67" r="36.67"/><circle class="cls-2" cx="300" cy="483.33" r="36.67"/><circle class="cls-2" cx="300" cy="300" r="55"/></svg>