<?xml version="1.0" encoding="utf-8"?>
<!-- Generator: Adobe Illustrator 24.1.0, SVG Export Plug-In . SVG Version: 6.00 Build 0)  -->
<svg version="1.1" id="Layer_1" xmlns="http://www.w3.org/2000/svg" xmlns:xlink="http://www.w3.org/1999/xlink" x="0px" y="0px"
	 viewBox="0 0 612 612" style="enable-background:new 0 0 612 612;" xml:space="preserve">
<style type="text/css">
	.st0{fill:url(#SVGID_1_);}
	.st1{fill:url(#SVGID_2_);}
</style>
<g>
	<g>
		
			<linearGradient id="SVGID_1_" gradientUnits="userSpaceOnUse" x1="125.5499" y1="486.1766" x2="486.42" y2="486.1766" gradientTransform="matrix(1 0 0 -1 0 792)">
			<stop  offset="0" style="stop-color:#5BF3BF"/>
			<stop  offset="0" style="stop-color:#63F2C1"/>
			<stop  offset="1" style="stop-color:#00FAA6"/>
		</linearGradient>
		<path class="st0" d="M125.6,208c34.1-2.5,71.7,17.4,91.8,48.2c3.2-3.8,6.1-7.5,9.4-11c20.2-21.6,57.8-17.9,74.8,5.7
			c11.3,15.7,17.1,33.2,24.2,50.3c4.9,11.8,9.5,23.9,16.2,35c6.6,10.9,17.9,10.9,24.5,0c5.6-9.1,8.6-20.4,10.6-30.4
			c3.1-15.2,6.2-29.6,14.4-43.5c10.2-17.3,24-32.1,43.7-42.4c15.7-8.1,32.2-13,51.2-12.4c0,11.4,0,22.5,0,33.5
			c-43.4,2-70.3,35.8-69.2,66c1,29.5,27.7,61.3,69.3,62.7c0,10.9,0,21.7,0,32.6c-25.2,5.3-69.9-14.2-90.1-46.3
			c-2.9,3.1-10.6,21.3-39.9,23.8c-29.7,2.2-45.2-12.7-54.8-34c-8.5-19.1-15.3-38.9-23-58.3c-1.7-4.2-3.8-8.5-6.5-12.3
			c-7-9.9-19.1-7.9-27.2,3.6c-8.7,12.3-11.1,26-13.5,39.8c-3.6,21-13.1,39.4-30.1,55c-14.5,13.4-31.2,23.4-52,27.6
			c-7.5,1.5-15.3,1.9-23.7,2.8c0-12,0-23,0-34.6c20.3,0.3,37.2-7.2,50.1-20.2c14.4-14.4,21.7-31.5,19.1-50.8
			c-3.4-25.6-27.3-55.3-69.5-57.5C125.6,230.2,125.6,219.3,125.6,208z"/>
		
			<linearGradient id="SVGID_2_" gradientUnits="userSpaceOnUse" x1="90.8923" y1="486.105" x2="521.1077" y2="486.105" gradientTransform="matrix(1 0 0 -1 0 792)">
			<stop  offset="0" style="stop-color:#5BF3BF"/>
			<stop  offset="0" style="stop-color:#63F2C1"/>
			<stop  offset="1" style="stop-color:#00FAA6"/>
		</linearGradient>
		<path class="st1" d="M521.1,173v265.8H90.9V173H521.1 M555.6,138.5H56.4v334.8h499.2V138.5L555.6,138.5z"/>
	</g>
</g>
</svg>
