<?xml version="1.0" encoding="utf-8"?>
<!-- Generator: Adobe Illustrator 25.0.1, SVG Export Plug-In . SVG Version: 6.00 Build 0)  -->
<svg version="1.1" id="Capa_1" xmlns="http://www.w3.org/2000/svg" xmlns:xlink="http://www.w3.org/1999/xlink" x="0px" y="0px"
	 viewBox="0 0 256 256" style="enable-background:new 0 0 256 256;" xml:space="preserve">
<style type="text/css">
	.st0{fill:none;}
	.st1{fill:#FFA214;}
</style>
<g>
	<path class="st0" d="M164.9,95.4c0.1-0.3,0.3-0.6,0.4-0.9c-0.3,0.6-0.6,1.2-0.9,1.8C164.6,96,164.8,95.7,164.9,95.4z"/>
	<path class="st0" d="M96.3,180.3C96.3,180.3,96.3,180.3,96.3,180.3C96.3,180.3,96.3,180.3,96.3,180.3
		C96.3,180.3,96.3,180.3,96.3,180.3z"/>
	<path class="st0" d="M145.6,82.2c0.1,0.4,0.1,0.7,0.1,1.1C145.7,82.9,145.6,82.5,145.6,82.2z"/>
	<path class="st0" d="M116.4,79.1c5.5-1.2,11.2-2.1,17.3-2.5c3.1-0.2,6.2-0.4,9.3-0.6c0,0,0,0,0,0c-0.9-1.1-2.1-2-3.5-2.7
		c-4.2-2.1-9.8-3.1-16.8-3.1c-2.8,0-5.6,0.1-8.4,0.3c-2.8,0.2-5,0.4-6.7,0.6l-8,33.2h10.8v0l-1.2,5.2l-1.8,7.6l3-12.7L116.4,79.1z"
		/>
	<path class="st0" d="M128.4,123.7L128.4,123.7l-1.2,4.8h8.2c-0.6-0.7-1.3-1.4-2-2C132.1,125.3,130.4,124.4,128.4,123.7L128.4,123.7
		L128.4,123.7L128.4,123.7C128.4,123.7,128.4,123.7,128.4,123.7z"/>
	<path class="st0" d="M135.3,95.3l-1.5,6.2l0,0h0c1.2-0.5,2.3-1.1,3.3-1.7c2.3-1.4,4.2-3.2,5.7-5.2c-0.2,0-0.5,0-0.8,0
		C139.2,94.8,137,95,135.3,95.3z"/>
	<path class="st0" d="M165.7,93.7c0.1-0.2,0.1-0.3,0.2-0.5c0.1-0.2,0.2-0.4,0.3-0.7c0,0,0-0.1,0-0.1c-0.3,0.6-0.5,1.2-0.8,1.9
		C165.5,94.1,165.6,93.9,165.7,93.7z"/>
	<path class="st0" d="M145.7,83.4c0,0.4,0,0.9,0,1.3C145.8,84.3,145.7,83.9,145.7,83.4z"/>
	<path class="st0" d="M95.3,122l-9.4,38.7c1.7,0.2,3.9,0.4,6.7,0.6c1.3,0.1,2.6,0.1,4,0.2l9.5-39.5H95.3z"/>
	<path class="st0" d="M144.2,77.8c0,0.1,0.1,0.2,0.1,0.3C144.3,78,144.2,77.9,144.2,77.8z"/>
	<path class="st0" d="M143.6,76.9c0.1,0.1,0.1,0.2,0.2,0.2C143.7,77,143.7,76.9,143.6,76.9z"/>
	<path class="st0" d="M143,76L143,76c0.1,0.1,0.1,0.2,0.2,0.2C143.1,76.2,143,76.1,143,76z"/>
	<path class="st0" d="M118.2,160L118.2,160c0.5-0.1,1-0.2,1.6-0.4l0,0C119.2,159.8,118.7,159.9,118.2,160L118.2,160z"/>
	<path class="st0" d="M145.1,79.8c0,0.1,0.1,0.3,0.1,0.4C145.1,80.1,145.1,80,145.1,79.8z"/>
	<path class="st0" d="M145.3,168.7c-7.7,5.4-17.8,8.9-30.3,10.5l0,0c0,0,0,0,0,0l-1.3,5.6c1.7,0.2,3.9,0.5,6.7,0.6
		c2.8,0.2,5.9,0.3,9.3,0.3c4,0,8.2-0.3,12.5-0.9c4.4-0.6,8.3-1.7,11.8-3.5c3.5-1.7,6.5-4.1,8.8-7.3c2.4-3.1,3.6-7.2,3.6-12.2
		c0-4.6-1.8-8.4-5.3-11.4c-0.4-0.3-0.8-0.6-1.3-0.9C157.3,157.3,152.5,163.7,145.3,168.7z"/>
	<path class="st0" d="M144.7,78.8c0,0.1,0.1,0.2,0.1,0.3C144.8,79,144.7,78.9,144.7,78.8z"/>
	<path class="st0" d="M145.4,81c0,0.2,0.1,0.4,0.1,0.5C145.4,81.3,145.4,81.1,145.4,81z"/>
	<path class="st0" d="M167.8,87.6c0-0.2,0.1-0.3,0.1-0.5c0.1-0.2,0.1-0.5,0.1-0.7c0-0.2,0.1-0.3,0.1-0.5c0.1-0.5,0.2-1,0.2-1.5
		c-0.2,1.3-0.4,2.7-0.8,4C167.7,88,167.7,87.8,167.8,87.6z"/>
	<path class="st0" d="M168.6,78.5c0-0.2,0-0.4,0-0.6c0-0.3,0-0.6-0.1-0.9h0C168.5,77.6,168.6,78.1,168.6,78.5z"/>
	<path class="st0" d="M166.4,91.9c0.1-0.2,0.2-0.4,0.2-0.7c0,0,0,0,0-0.1c0.1-0.2,0.2-0.4,0.2-0.6c0,0,0,0,0-0.1
		c-0.2,0.6-0.4,1.3-0.7,1.9C166.3,92.2,166.4,92.1,166.4,91.9z"/>
	<path class="st0" d="M168.6,79.3c0-0.1,0-0.2,0-0.4c0-0.1,0-0.2,0-0.4c0,0.4,0,0.9,0,1.4C168.6,79.7,168.6,79.5,168.6,79.3z"/>
	<path class="st0" d="M128,18C67.3,18,18,67.3,18,128c0,60.7,49.4,110,110,110c60.7,0,110-49.4,110-110C238,67.3,188.7,18,128,18z
		 M190.9,122.3c-3.6,5.7-9.6,10.3-18.1,13.8c5.3,2.2,9.4,5.3,12.3,9.4c2.9,4.1,4.4,8.9,4.4,14.3c0,14.2-5.5,25.1-16.6,32.9
		c-11.1,7.7-27.1,11.6-48,11.6c-6.2,0-12.7-0.3-19.5-0.8c-6.8-0.5-12.9-1.4-18.3-2.6l5-20.7c-0.5,0-1,0-1.5,0l0,0
		c-4.2-0.1-8.5-0.4-12.9-0.7c-6.8-0.5-12.9-1.4-18.3-2.6L88.7,55c5.5-1.2,11.2-2.1,17.2-2.5c6.1-0.5,12.2-0.7,18.3-0.7
		c5.1,0,10.3,0.4,15.5,1.1c5.3,0.7,10,2.2,14.3,4.3c4.2,2.1,7.7,5,10.4,8.7c2.2,3,3.6,6.8,4,11.3v0c4.9,0.7,9.3,2.1,13.3,4.1
		c4.2,2.1,7.7,5,10.4,8.7c2.7,3.7,4.1,8.4,4.1,14.3C196.3,110.6,194.5,116.6,190.9,122.3z"/>
	<path class="st0" d="M168.5,83.2c0-0.2,0-0.3,0-0.5c0-0.2,0-0.4,0-0.6c0-0.3,0-0.6,0-1c0-0.2,0-0.3,0-0.5c0,0,0,0,0,0c0,0,0,0,0,0
		c0-0.2,0-0.4,0-0.6c0,1.4-0.1,2.8-0.3,4.1C168.4,83.9,168.5,83.6,168.5,83.2z"/>
	<path class="st0" d="M145.2,112c5.3,2.2,9.4,5.3,12.4,9.4c1,1.5,1.9,3,2.5,4.7c1.7-0.6,3.3-1.4,4.7-2.3c2.6-1.6,4.7-3.7,6.3-6.1
		c1.6-2.4,2.4-5.4,2.4-8.9c0-5.6-2.1-9.4-6.3-11.4c-0.9-0.4-1.8-0.8-2.8-1.1v0c-0.4,0.6-0.7,1.3-1.1,1.9
		C159.7,103.9,153.7,108.5,145.2,112z"/>
	<path class="st0" d="M167.2,89.9c0.1-0.2,0.1-0.5,0.2-0.7c0-0.2,0.1-0.3,0.1-0.5c0-0.1,0-0.1,0-0.2c-0.2,0.6-0.3,1.2-0.5,1.9
		C167.1,90.2,167.1,90,167.2,89.9z"/>
	<path class="st0" d="M119.7,159.7c2.3-0.6,4.5-1.4,6.6-2.4c3.5-1.7,6.5-4.1,8.8-7.3c0.9-1.2,1.6-2.5,2.1-3.9H123L119.7,159.7z"/>
	<path d="M168.6,79.9c0-0.5,0-0.9,0-1.4c0-0.5-0.1-1-0.1-1.5h0v0c-0.7-9.4-6.5-15.9-14.4-20c-8.6-4.4-20.1-5.3-29.8-5.4
		c-11.8,0-24.3,0.7-35.6,3.3L59.5,176.9c8.9,2.1,21.4,3.1,31.2,3.4l0,0c0.5,0,1,0,1.5,0l0,0c1.4,0,2.8,0.1,4.2,0.1c0,0,0,0,0,0
		c6.6,0,13-0.3,18.7-1.1l0,0c0,0,0,0,0,0l0,0c20.8-2.9,38.2-10.7,44.9-29.6c-3.6-2.4-9-3.5-16.2-3.5h-6.4
		c-3,7.3-10.1,11.6-17.6,13.5l0,0c-0.5,0.1-1,0.3-1.5,0.4l0,0l0,0c-10.5,2.1-22,1.9-32.2,0.7l9.4-38.7h10.8l0,0
		c1.2-5.1,3-12.5,4.2-17.6v0H99.6l8-33.2c10.4-1,28.1-2.8,35.4,4.8c0,0,0,0,0,0c0,0,0,0,0,0c0,0,0,0,0,0h0c2.1,2.4,2.8,5.6,2.8,8.8
		c0.2,8.1-5,13.7-12,16.7h0l-5.4,22.2h0v0c3,1,5.2,2.5,7,4.8c7.9,0,17.3,0.4,24.7-2.4c-2.8-6.6-7.8-11.2-14.9-14.1
		c9.4-4,15.4-8.7,19.2-15.7v0C167.2,91.3,168.7,85.7,168.6,79.9z"/>
	<g>
		<path class="st1" d="M128,0.4C57.6,0.4,0.4,57.6,0.4,128S57.6,255.6,128,255.6S255.6,198.4,255.6,128S198.4,0.4,128,0.4z M128,238
			c-60.7,0-110-49.4-110-110C18,67.3,67.3,18,128,18c60.7,0,110,49.4,110,110C238,188.7,188.7,238,128,238z"/>
		<path class="st1" d="M181.8,81.2c-4-2-8.4-3.4-13.3-4.1c0.1,0.6,0.1,1.2,0.1,1.8c0,0.6,0,1.2,0,1.8c0,0,0,0,0,0c0,0,0,0,0,0
			c-0.1,3.6-0.7,7.1-1.9,10.4c0,0,0,0,0,0.1c-0.6,1.7-1.4,3.4-2.3,5.1c0,0,0,0,0,0c5.7,1.7,9.1,5.7,9,12.6c0,3.5-0.8,6.5-2.4,8.9
			c-2.5,3.9-6.5,6.8-11,8.4c-7.4,2.8-16.8,2.4-24.7,2.4c0,0-8.2,0-8.2,0l1.2-4.8v0c0,0,0,0,0,0c1.1-4.6,5.9-24.3,6.9-28.5
			c1.8-0.3,4.7-0.5,7.5-0.7c3.7-4.8,4.3-13.5,0.2-18.6c-8.8,0.3-18.3,1.2-26.6,3.1c-2.7,11.1-7.7,32.1-10.3,42.9l0,0l-9.5,39.5
			c7.5,0.2,15.5,0,23.1-1.9l3.3-13.5c4.4,0,16.4,0,20.7,0c12.4-0.1,22.3,3.7,22.7,15.8c-0.2,26-34.5,24.9-52.7,22.9
			c0,0,1.3-5.6,1.3-5.6c-6.9,0.9-15.2,1.2-22.8,1c0,0-5,20.7-5,20.7c10.9,2.5,26.3,3.4,37.8,3.5c20.9,0,36.9-3.9,48-11.6
			c11.1-7.8,16.6-18.7,16.6-32.9c0.1-11.1-6.4-19.6-16.7-23.8c8.5-3.5,14.5-8.1,18.1-13.8c6.1-9.3,7.7-23.6,1.3-32.4
			C189.5,86.2,186,83.3,181.8,81.2z"/>
	</g>
</g>
</svg>
