<?xml version="1.0" encoding="UTF-8" standalone="no"?>
<svg width="48px" height="46px" viewBox="0 0 48 46" version="1.1" xmlns="http://www.w3.org/2000/svg" xmlns:xlink="http://www.w3.org/1999/xlink">
    <!-- Generator: Sketch 43 (38999) - http://www.bohemiancoding.com/sketch -->
    <title>logo</title>
    <desc>Created with Sketch.</desc>
    <defs></defs>
    <g id="Welcome" stroke="none" stroke-width="1" fill="none" fill-rule="evenodd">
        <g id="Desktop-HD-Copy-2" transform="translate(-40.000000, -20.000000)" fill-rule="nonzero">
            <g id="header-copy" transform="translate(40.000000, 20.000000)">
                <g id="logo">
                    <g id="#ae7fd9" fill="#ae7fd9">
                        <path d="M18.3818557,0.76371134 C21.9810309,-0.0989690722 25.7731959,-0.0775257732 29.3789691,0.734020619 C29.4004124,0.765360825 29.443299,0.826391753 29.4663918,0.857731959 C30.3224742,2.02556701 31.1521649,3.21319588 31.8878351,4.46185567 C32.5459794,5.54721649 33.1216495,6.6771134 33.6791753,7.81690722 C35.1637113,7.72948454 36.6548454,7.66020619 38.1426804,7.74762887 C39.2824742,7.77731959 40.4140206,7.91257732 41.548866,8.01649485 L41.6824742,8.02474227 C43.0713402,9.56865979 44.2556701,11.2907216 45.2107216,13.1331959 C44.8164948,14.3307216 44.3826804,15.5117526 43.8828866,16.6680412 C43.0482474,14.457732 41.8523711,12.3975258 40.377732,10.5534021 C38.5187629,10.345567 36.643299,10.3175258 34.774433,10.3950515 C35.6189691,12.6268041 36.2523711,14.934433 36.6861856,17.2816495 C36.9072165,18.6358763 37.0952577,19.9983505 37.174433,21.3707216 C37.014433,22.0701031 37.7385567,22.3637113 37.9397938,22.9459794 C38.4428866,24.0016495 38.1096907,25.331134 37.2239175,26.0783505 C37.2123711,26.2169072 37.1909278,26.4907216 37.1793814,26.6276289 C37.1397938,27.2280412 37.0952577,27.8268041 37.0193814,28.4239175 C36.9352577,29.2404124 36.8,30.0519588 36.6680412,30.8635052 C36.2342268,33.2437113 35.574433,35.5793814 34.7134021,37.8408247 C36.5476289,37.9249485 38.3835052,37.8837113 40.211134,37.7138144 C41.8375258,35.7624742 43.1323711,33.5307216 43.9736082,31.1307216 C44.4206186,29.9183505 44.7059794,28.6548454 44.9352577,27.3863918 C45.5637113,28.5839175 46.1575258,29.7979381 46.6919588,31.04 L46.7513402,31.1719588 C45.6527835,34.6193814 43.8020619,37.8639175 41.2734021,40.4519588 C38.7265979,40.4684536 36.1731959,40.6284536 33.6313402,40.4041237 C33.0193814,41.545567 32.4453608,42.7084536 31.7723711,43.8169072 C30.5946392,44.2754639 29.382268,44.64 28.1451546,44.8940206 L27.8614433,44.956701 C28.96,43.4078351 29.9595876,41.7880412 30.8206186,40.0956701 C28.4981443,39.7261856 26.2037113,39.1703093 23.9851546,38.3884536 C22.7068041,37.9364948 21.4465979,37.4268041 20.2259794,36.8395876 C19.9686598,36.7142268 19.7113402,36.5938144 19.4540206,36.4734021 C18.7183505,36.8016495 17.8375258,36.8280412 17.116701,36.4453608 C16.3101031,36.0428866 15.7591753,35.2049485 15.683299,34.3109278 C15.5859794,34.24 15.3913402,34.0964948 15.2940206,34.0239175 C14.0981443,33.2470103 12.9748454,32.3645361 11.8746392,31.4573196 C10.0651546,29.9035052 8.38927835,28.1962887 6.88,26.3505155 C5.78804124,28 4.85278351,29.7468041 4.02474227,31.5414433 C4.8643299,33.8672165 6.19051546,35.996701 7.77237113,37.8886598 C9.73195876,38.0569072 11.7047423,38.1030928 13.6676289,37.9694845 C13.6841237,38.0107216 13.7171134,38.0915464 13.7319588,38.1327835 C14.0618557,38.9426804 14.4098969,39.7443299 14.7826804,40.5360825 C13.4630928,40.6301031 12.1435052,40.7175258 10.8206186,40.6878351 C9.46969072,40.6696907 8.12371134,40.5723711 6.77773196,40.4437113 C6.70185567,40.4338144 6.55010309,40.4156701 6.4742268,40.4057732 C3.37649485,37.0837113 1.22061856,32.8808247 0.409072165,28.4057732 C-0.176494845,25.2420619 -0.133608247,21.9546392 0.572371134,18.8123711 C1.43505155,14.9096907 3.31051546,11.2412371 5.95298969,8.2457732 C9.19092784,4.54927835 13.5950515,1.88371134 18.3818557,0.76371134 L18.3818557,0.76371134 Z M20.5080412,3.03835052 C19.203299,3.26268041 17.9051546,3.56948454 16.6663918,4.04453608 C14.4428866,4.83463918 12.3810309,6.04041237 10.5303093,7.4985567 C9.48783505,8.37608247 8.48494845,9.31134021 7.62886598,10.3752577 C6.07505155,12.2259794 4.80989691,14.3472165 4.00329897,16.6235052 C4.81814433,18.451134 5.77979381,20.214433 6.88164948,21.8870103 C8.35628866,20.0692784 10.0156701,18.403299 11.7657732,16.8593814 C12.8775258,15.9901031 13.9529897,15.0597938 15.1604124,14.3257732 L15.1587629,14.297732 C15.3435052,14.1756701 15.5249485,14.0486598 15.7047423,13.916701 C15.7080412,13.3723711 15.843299,12.8230928 16.1550515,12.371134 C16.8989691,11.196701 18.6078351,10.8404124 19.7657732,11.6057732 C19.9620619,11.516701 20.1583505,11.4259794 20.3562887,11.3369072 C21.5538144,10.7447423 22.8123711,10.2927835 24.051134,9.80123711 C26.2828866,9.06391753 28.5756701,8.5014433 30.8948454,8.11546392 C30.0057732,6.38020619 29.0061856,4.70103093 27.8548454,3.1257732 C25.4334021,2.6771134 22.9410309,2.66226804 20.5080412,3.03835052 L20.5080412,3.03835052 Z M28.1253608,11.3731959 C26.8024742,11.6931959 25.4993814,12.0940206 24.2259794,12.5707216 L24.2787629,12.5921649 C23.145567,12.9006186 22.0849485,13.4713402 21.0012371,13.9331959 C20.9105155,14.6721649 20.6020619,15.411134 19.9983505,15.8762887 C19.2049485,16.5426804 18.0239175,16.643299 17.1117526,16.163299 C16.0280412,16.8907216 14.9525773,17.6395876 13.9694845,18.502268 C12.8445361,19.3913402 11.8037113,20.3859794 10.8123711,21.4202062 C9.98597938,22.2762887 9.22061856,23.1884536 8.48164948,24.1187629 C9.29319588,25.1414433 10.1360825,26.1410309 11.0581443,27.0663918 L11.0531959,27.0878351 C12.0412371,28.0610309 13.0391753,29.0292784 14.1327835,29.8853608 C14.9971134,30.6094845 15.9158763,31.2643299 16.8445361,31.8993814 C17.6659794,31.3550515 18.7859794,31.3187629 19.6338144,31.8235052 C20.4964948,32.3084536 20.9863918,33.2964948 20.956701,34.2729897 C22.0107216,34.771134 23.0729897,35.2527835 24.1698969,35.6470103 C25.4630928,36.1352577 26.7876289,36.5410309 28.1303093,36.8692784 C29.3938144,37.1826804 30.6771134,37.4070103 31.9653608,37.5917526 C32.4684536,36.3480412 32.9204124,35.0828866 33.276701,33.7880412 L33.2948454,33.7797938 C33.654433,32.4239175 33.974433,31.0564948 34.188866,29.6692784 C34.3604124,28.6152577 34.4659794,27.5529897 34.5550515,26.4874227 C33.8721649,26.188866 33.3030928,25.6214433 33.0606186,24.9105155 C32.5723711,23.628866 33.2865979,22.0898969 34.5517526,21.5901031 C34.4692784,20.5080412 34.3620619,19.4276289 34.1789691,18.3587629 C33.974433,16.9731959 33.6478351,15.6090722 33.2816495,14.2597938 C32.9204124,13.0342268 32.5063918,11.8268041 32.0346392,10.6408247 C30.72,10.8206186 29.4119588,11.0482474 28.1253608,11.3731959 L28.1253608,11.3731959 Z M2.94597938,20.4618557 C2.55670103,22.8783505 2.55340206,25.3525773 2.95917526,27.7674227 C3.63876289,26.5105155 4.4057732,25.3047423 5.20082474,24.1171134 C4.39587629,22.931134 3.64536082,21.7121649 2.94597938,20.4618557 Z" id="Shape"></path>
                    </g>
                    <g id="#30303030" transform="translate(29.360825, 0.824742)" fill="#303030" opacity="0.19">
                        <path d="M0.10556701,0.0329896907 C0.349690722,-0.0610309278 0.593814433,0.0725773196 0.831340206,0.122061856 C2.81731959,0.682886598 4.77360825,1.44 6.52536082,2.54020619 C5.89360825,3.24783505 5.00783505,3.65195876 4.32659794,4.30680412 C3.74268041,4.04783505 3.18515464,3.64371134 2.52701031,3.6371134 C1.79134021,2.38845361 0.961649485,1.20082474 0.10556701,0.0329896907 Z" id="Shape"></path>
                    </g>
                    <g id="#33333333" transform="translate(7.587629, 2.969072)" fill="#333333" opacity="0.2">
                        <path d="M9.07876289,1.07546392 C10.3175258,0.600412371 11.6156701,0.293608247 12.9204124,0.0692783505 C11.8334021,1.67917526 10.7414433,3.30226804 9.92,5.06886598 C11.9026804,5.38721649 13.8589691,5.86061856 15.7657732,6.49237113 C16.0148454,6.56824742 16.2441237,6.69030928 16.4635052,6.83216495 C15.2247423,7.32371134 13.9661856,7.7756701 12.7686598,8.36783505 C11.4540206,8.01649485 10.1146392,7.7443299 8.76371134,7.57773196 C8.29030928,8.72412371 7.85319588,9.89360825 7.54474227,11.094433 L7.57113402,11.3286598 L7.57278351,11.356701 C6.36536082,12.0907216 5.28989691,13.0210309 4.17814433,13.8903093 C4.49484536,11.622268 5.28,9.45649485 5.97773196,7.28742268 C3.99835052,7.16865979 2.01402062,7.21814433 0.0412371134,7.40618557 C0.897319588,6.34226804 1.90020619,5.40701031 2.94268041,4.52948454 C4.32989691,4.61195876 5.72371134,4.59216495 7.11092784,4.7043299 C7.74597938,3.48371134 8.3843299,2.26474227 9.07876289,1.07546392 Z" id="Shape"></path>
                    </g>
                    <g id="#2a2a2a2a" transform="translate(33.649485, 3.298969)" fill="#2A2A2A" opacity="0.16">
                        <path d="M2.23670103,0.0659793814 L2.26474227,0.0329896907 C4.19628866,1.16783505 5.96948454,2.57154639 7.52,4.18804124 C7.66350515,4.34969072 7.84659794,4.49649485 7.89938144,4.71752577 C6.76453608,4.61360825 5.63298969,4.47835052 4.49319588,4.44865979 C3.87298969,4.44206186 3.4028866,4.02309278 2.94597938,3.66020619 C2.03546392,2.96247423 1.03587629,2.39340206 0.0379381443,1.83257732 C0.719175258,1.17773196 1.60494845,0.773608247 2.23670103,0.0659793814 Z" id="Shape"></path>
                    </g>
                    <g id="#28282829" transform="translate(10.721649, 11.216495)" fill="#282828" opacity="0.16">
                        <path d="M13.5043299,1.3542268 C14.777732,0.877525773 16.0808247,0.476701031 17.4037113,0.156701031 C18.5748454,0.778556701 19.7558763,1.38721649 20.8692784,2.11298969 C20.1962887,2.77773196 19.3303093,3.19175258 18.6375258,3.83505155 C17.0210309,2.86845361 15.3006186,2.08824742 13.5571134,1.3756701 L13.5043299,1.3542268 Z" id="Shape"></path>
                        <path d="M0.0907216495,10.2037113 C1.08206186,9.16948454 2.1228866,8.17484536 3.24783505,7.2857732 C3.39463918,7.74597938 3.28412371,8.2243299 3.22639175,8.68948454 C2.82061856,12.0049485 2.93608247,15.3682474 3.41113402,18.668866 C2.31752577,17.8127835 1.31958763,16.8445361 0.331546392,15.8713402 L0.336494845,15.8498969 C0.456907216,15.5315464 0.404123711,15.1901031 0.394226804,14.8602062 C0.296907216,13.2915464 0.321649485,11.7179381 0.40742268,10.1476289 C0.328247423,10.1624742 0.169896907,10.1905155 0.0907216495,10.2037113 Z" id="Shape"></path>
                    </g>
                    <g id="#13131313" transform="translate(13.690722, 13.030928)" fill="#131313" opacity="0.07">
                        <path d="M30.1921649,3.6371134 C30.6919588,2.48082474 31.1257732,1.29979381 31.52,0.102268041 C32.7142268,2.37360825 33.4812371,4.86597938 33.862268,7.40123711 C33.7929897,7.70309278 33.8721649,8.13195876 33.5389691,8.29525773 C32.8527835,8.74061856 32.2292784,9.29649485 31.4738144,9.62474227 C31.4012371,8.98969072 31.3781443,8.33979381 31.1835052,7.72453608 C30.6589691,8.39587629 30.3158763,9.18597938 29.8292784,9.88206186 C29.5950515,10.2960825 29.1760825,10.6705155 29.2305155,11.1868041 C28.8230928,11.8136082 28.1468041,12.1451546 27.5150515,12.4964948 C26.4329897,13.3492784 25.2519588,14.0701031 24.1995876,14.9608247 C23.9340206,15.148866 23.625567,15.2626804 23.3286598,15.3929897 C23.4045361,14.7958763 23.4490722,14.1971134 23.4886598,13.596701 C24.4470103,12.902268 25.1958763,11.9323711 25.8292784,10.9443299 C25.3393814,10.2465979 24.7142268,9.65773196 24.2160825,8.96494845 C24.8296907,8.3414433 25.7682474,8.0643299 26.1690722,7.2428866 C26.6342268,7.69319588 27.0284536,8.20783505 27.4358763,8.70927835 C28.5393814,7.12742268 29.3707216,5.37731959 30.1921649,3.6371134 Z" id="Shape"></path>
                        <path d="M2.24,23.4309278 C2.41814433,23.8268041 2.51381443,24.2738144 2.80412371,24.6070103 C4.06597938,24.4453608 5.32453608,24.2094845 6.53525773,23.8086598 C7.75587629,24.3958763 9.01608247,24.905567 10.294433,25.3575258 C10.1393814,25.4696907 9.97278351,25.5587629 9.79298969,25.6230928 C7.90597938,26.2795876 5.95958763,26.7529897 3.99505155,27.1158763 C3.96536082,27.7080412 4.52123711,28.1665979 4.68618557,28.7274227 C3.98515464,29.2173196 3.20494845,29.6016495 2.61113402,30.2317526 C2.0057732,29.3806186 1.59505155,28.4156701 1.09195876,27.5051546 C0.719175258,26.7134021 0.371134021,25.9117526 0.0412371134,25.1018557 C0.725773196,24.476701 1.64123711,24.1517526 2.24,23.4309278 Z" id="Shape"></path>
                    </g>
                    <g id="#23232323" transform="translate(29.195876, 13.195876)" fill="#232323" opacity="0.14">
                        <path d="M2.39505155,0.133608247 C2.98391753,0.394226804 3.43257732,0.97814433 4.0857732,1.06391753 C4.45195876,2.41319588 4.7785567,3.77731959 4.98309278,5.1628866 C3.41938144,3.99835052 1.85237113,2.83546392 0.163298969,1.8556701 C0.856082474,1.21237113 1.72206186,0.798350515 2.39505155,0.133608247 Z" id="Shape"></path>
                    </g>
                    <g id="#19191919" transform="translate(36.618557, 17.154639)" fill="#191919" opacity="0.1">
                        <path d="M0.067628866,0.127010309 C0.351340206,0.250721649 0.626804124,0.402474227 0.846185567,0.626804124 C1.66762887,1.43505155 2.50391753,2.23175258 3.24123711,3.11917526 C2.84041237,3.94061856 1.90185567,4.21773196 1.28824742,4.84123711 C1.07216495,4.60206186 0.81814433,4.39917526 0.555876289,4.21608247 C0.476701031,2.84371134 0.288659794,1.48123711 0.067628866,0.127010309 Z" id="Shape"></path>
                    </g>
                    <g id="#0b0b0b0b" transform="translate(42.226804, 20.288660)" fill="#0B0B0B" opacity="0.04">
                        <path d="M5.32618557,0.143505155 C5.68742268,1.82103093 5.63793814,3.57608247 5.56865979,5.28989691 C5.35092784,7.13072165 5.1414433,9.01443299 4.46515464,10.7513402 C3.93072165,9.50927835 3.33690722,8.29525773 2.70845361,7.09773196 C2.47917526,8.36618557 2.19381443,9.62969072 1.74680412,10.8420619 C1.08371134,9.93979381 0.705979381,8.87257732 0.150103093,7.90762887 C0.829690722,7.39463918 1.55546392,6.93278351 2.29938144,6.52536082 C2.39505155,6.59134021 2.58639175,6.72329897 2.68041237,6.78927835 C3.00701031,5.35092784 2.93278351,3.84 2.93773196,2.36701031 C3.69319588,2.03876289 4.31670103,1.4828866 5.0028866,1.03752577 C5.33608247,0.874226804 5.25690722,0.445360825 5.32618557,0.143505155 Z" id="Shape"></path>
                    </g>
                    <g id="#0e0e0e0e" transform="translate(13.690722, 24.082474)" fill="#0E0E0E" opacity="0.05">
                        <path d="M29.2305155,0.135257732 C29.8919588,0.913814433 30.3851546,1.81938144 30.8354639,2.73154639 C30.0915464,3.13896907 29.3657732,3.60082474 28.6861856,4.11381443 C28.3101031,3.50515464 27.9769072,2.86350515 27.5134021,2.31587629 C26.7381443,2.84371134 26.297732,3.71463918 25.6082474,4.33814433 C24.7274227,5.14804124 24.003299,6.14762887 22.9773196,6.78103093 C23.1092784,5.96948454 23.2445361,5.15793814 23.3286598,4.3414433 C23.625567,4.21113402 23.9340206,4.09731959 24.1995876,3.90927835 C25.2519588,3.0185567 26.4329897,2.29773196 27.5150515,1.44494845 C28.1468041,1.09360825 28.8230928,0.762061856 29.2305155,0.135257732 Z" id="Shape"></path>
                        <path d="M4.68618557,17.6758763 C5.07216495,18.1558763 5.31628866,18.7315464 5.66927835,19.2346392 C6.01402062,19.8020619 6.44948454,20.3150515 6.73319588,20.9171134 C5.26020619,20.9550515 3.78556701,20.9121649 2.31257732,20.9517526 C1.57690722,20.9385567 0.83628866,21.0094845 0.10556701,20.8940206 C0.354639175,20.7785567 0.574020619,20.6103093 0.762061856,20.4107216 C1.07876289,20.0527835 1.66103093,20.0131959 1.85402062,19.5364948 C2.16082474,19.6585567 2.47752577,19.7476289 2.80247423,19.8070103 C2.74639175,19.5958763 2.68701031,19.3847423 2.61113402,19.1802062 C3.20494845,18.5501031 3.98515464,18.1657732 4.68618557,17.6758763 Z" id="Shape"></path>
                    </g>
                    <g id="#0f0f0f0f" transform="translate(24.082474, 29.525773)" fill="#0F0F0F" opacity="0.06">
                        <path d="M2.96412371,4.79010309 C5.54391753,3.57278351 7.89113402,1.92824742 10.1063918,0.143505155 C9.89195876,1.53072165 9.57195876,2.89814433 9.21237113,4.25402062 L9.1942268,4.26226804 C8.27546392,4.65154639 7.53154639,5.33608247 6.65896907,5.80618557 C5.80948454,6.35546392 4.83958763,6.71175258 4.04783505,7.34350515 C2.70515464,7.01525773 1.38061856,6.60948454 0.0874226804,6.12123711 C1.03752577,5.65773196 2.04041237,5.30639175 2.96412371,4.79010309 Z" id="Shape"></path>
                    </g>
                    <g id="#1b1b1b1b" transform="translate(11.711340, 31.340206)" fill="#1B1B1B" opacity="0.11">
                        <path d="M0.163298969,0.117113402 C1.26350515,1.0243299 2.38680412,1.90680412 3.58268041,2.68371134 C3.51340206,2.85525773 3.50680412,3.02680412 3.56123711,3.2 C3.75752577,3.84824742 3.9785567,4.48824742 4.21938144,5.12164948 C3.62061856,5.84247423 2.70515464,6.16742268 2.02061856,6.79257732 C2.0057732,6.75134021 1.97278351,6.67051546 1.95628866,6.62927835 C1.25525773,4.77030928 0.644948454,2.87340206 0.217731959,0.931958763 C0.168247423,0.663092784 0.168247423,0.387628866 0.163298969,0.117113402 Z" id="Shape"></path>
                    </g>
                    <g id="#14141414" transform="translate(6.762887, 40.412371)" fill="#141414" opacity="0.08">
                        <path d="M0.0148453608,0.0313402062 C1.36082474,0.16 2.70680412,0.257319588 4.05773196,0.275463918 C4.70268041,0.963298969 5.53731959,1.42185567 6.3257732,1.92329897 C7.10597938,2.41979381 7.93896907,2.82886598 8.78185567,3.20659794 C8.58886598,3.68329897 8.00659794,3.7228866 7.68989691,4.08082474 C7.50185567,4.28041237 7.28247423,4.44865979 7.03340206,4.56412371 C6.42639175,4.59876289 5.75010309,4.70927835 5.21731959,4.3414433 C3.34020619,3.25773196 1.57030928,1.95134021 0.0857731959,0.367835052 C0.067628866,0.28371134 0.0329896907,0.115463918 0.0148453608,0.0313402062 Z" id="Shape"></path>
                    </g>
                </g>
            </g>
        </g>
    </g>
</svg>