<?xml version="1.0" encoding="utf-8"?>
<!-- Generator: Adobe Illustrator 25.1.0, SVG Export Plug-In . SVG Version: 6.00 Build 0)  -->
<svg version="1.1" id="Ebene_1" xmlns="http://www.w3.org/2000/svg" xmlns:xlink="http://www.w3.org/1999/xlink" x="0px" y="0px"
	 viewBox="0 0 128 128" style="enable-background:new 0 0 128 128;" xml:space="preserve">
<g>
	<circle cx="64" cy="64" r="64"/>
</g>
<g>
	<polygon style="fill:#FFFFFF;" points="91,26.5 83.5,29.1 86.3,37.6 64,26.1 33.9,42.6 33.9,64.9 46,60.7 45.9,49.5 64,39.9 
		81.3,48.3 72.7,51.5 75.4,59.3 99.3,50.8 	"/>
</g>
<g>
	<polygon style="fill:#FFFFFF;" points="37,101.5 44.5,98.9 41.7,90.4 63.9,101.9 94.1,85.4 94.1,63.1 82,67.3 82.1,78.5 63.9,88.1 
		46.7,79.7 55.3,76.5 52.6,68.7 28.7,77.2 	"/>
</g>
<g>
	<g>
		<path style="fill:#FFFFFF;" d="M66.3,122.2l-0.2-5.1c6.2-0.2,12.1-1.5,17.8-3.8l1.9,4.7C79.6,120.5,73,121.9,66.3,122.2z
			 M46.5,119.6c-6.4-2-12.4-5.1-17.7-9.2l3.1-4.1c4.9,3.7,10.3,6.5,16.2,8.4L46.5,119.6z M102.8,107.5l-3.4-3.8
			c4.6-4.1,8.4-8.9,11.3-14.3l4.5,2.4C112,97.7,107.8,103,102.8,107.5z M15.2,95.7c-3.7-5.6-6.3-11.8-7.9-18.4l5-1.2
			c1.4,6,3.8,11.6,7.2,16.8L15.2,95.7z M121.6,72.9l-5.1-0.8c0.4-2.7,0.6-5.4,0.6-8.1c0-3.4-0.3-6.8-1-10.1l5-1
			c0.7,3.6,1.1,7.4,1.1,11.1C122.2,67,122,69.9,121.6,72.9z M11.2,58l-5.1-0.6c0.8-6.7,2.6-13.1,5.6-19.2l4.6,2.3
			C13.6,46,11.9,51.9,11.2,58z M109.7,36.8c-3.1-5.3-7.1-9.9-11.9-13.8l3.3-3.9c5.2,4.3,9.6,9.4,13,15.2L109.7,36.8z M27.1,25.8
			l-3.6-3.7c4.8-4.7,10.4-8.5,16.5-11.2l2.1,4.7C36.6,18.1,31.5,21.5,27.1,25.8z M82,14c-5.7-2.1-11.8-3.1-18-3.1
			c-1.4,0-2.8,0.1-4.2,0.2l-0.4-5.1c1.5-0.1,3.1-0.2,4.6-0.2c6.8,0,13.4,1.1,19.7,3.4L82,14z"/>
	</g>
</g>
</svg>
