<svg xmlns="http://www.w3.org/2000/svg" viewBox="0 0 152.12 178.9"><defs><style>.cls-1{fill:#0e6cac;}.cls-2{fill:#fff;}</style></defs><title>Asset 1</title><g id="Layer_2" data-name="Layer 2"><g id="Layer_2_copy" data-name="Layer 2 copy"><path class="cls-1" d="M76.06,178.9,0,134.13V44.77L76.06,0l76.06,44.77v89.36Z"/><path class="cls-2" d="M62.91,101.81a16.57,16.57,0,0,1-1.67,5.62A17.49,17.49,0,0,1,58,112a14.76,14.76,0,0,1-4.25,3,10.7,10.7,0,0,1-4.55,1.08,11.69,11.69,0,0,1-5.24-1.23,11.12,11.12,0,0,1-4.38-4.27,26,26,0,0,1-3-8.17,61.58,61.58,0,0,1-1.12-12.9,61.58,61.58,0,0,1,1.12-12.9,27.78,27.78,0,0,1,2.92-8.16,11.06,11.06,0,0,1,4.12-4.28,9.46,9.46,0,0,1,11.89,2.12A23.63,23.63,0,0,1,60.77,76h1.29V61.36s-5.58-.82-5.58,3.93a12.45,12.45,0,0,0-2.4-1.93A15.47,15.47,0,0,0,51.2,62a10.79,10.79,0,0,0-3.74-.62,16.8,16.8,0,0,0-7.3,1.73,19.19,19.19,0,0,0-6.48,5.24A27.42,27.42,0,0,0,29,77.1a39.24,39.24,0,0,0-1.76,12.36A39.2,39.2,0,0,0,29,101.82a26.39,26.39,0,0,0,4.72,8.78,19.37,19.37,0,0,0,6.74,5.24,18.46,18.46,0,0,0,7.81,1.73,14.74,14.74,0,0,0,5.84-1.16A14.94,14.94,0,0,0,59,113.14a18.08,18.08,0,0,0,3.48-5,19.22,19.22,0,0,0,1.72-6.35H62.91Z"/><path class="cls-2" d="M82.93,109.72h-.06a2.29,2.29,0,0,1-2.29-2.29V64.16a2.29,2.29,0,0,0-2.29-2.29H70.43a2.29,2.29,0,0,0-2.29,2.29v2.63a2.29,2.29,0,0,0,2.29,2.29H71a2.29,2.29,0,0,1,2.29,2.29v36.06A2.29,2.29,0,0,1,71,109.72h-.57A2.29,2.29,0,0,0,68.14,112v2.63a2.29,2.29,0,0,0,2.29,2.29h13a2.29,2.29,0,0,0,2.29-2.29h0V112a2.29,2.29,0,0,0-2.29-2.29Z"/><path class="cls-2" d="M122.54,61.86H91a2.29,2.29,0,0,0-2.29,2.29v50.49A2.29,2.29,0,0,0,91,116.93h31.51a2.29,2.29,0,0,0,2.29-2.29V64.15A2.3,2.3,0,0,0,122.54,61.86ZM98.33,69.08h16.88L96,105.53V71.37A2.28,2.28,0,0,1,98.33,69.08Zm16.91,40.64H98.35l19.18-36.47v34.17A2.29,2.29,0,0,1,115.24,109.72Z"/></g></g></svg>