<?xml version="1.0" encoding="windows-1252"?>
<!-- Generator: Adobe Illustrator 19.0.0, SVG Export Plug-In . SVG Version: 6.00 Build 0)  -->
<svg version="1.1" id="Layer_1" xmlns="http://www.w3.org/2000/svg" xmlns:xlink="http://www.w3.org/1999/xlink" x="0px" y="0px" viewBox="0 0 500 500" style="enable-background:new 0 0 500 500;" xml:space="preserve">
<path style="fill:#023048;" d="M252.511,496.333c-71.455-41.249-142.571-82.303-213.608-123.31c0-82.539,0-164.543,0-247.381  C109.886,84.664,181.149,43.524,252.501,2.333c71.301,41.154,142.254,82.108,213.386,123.164c0,82.54,0,164.919,0,247.679  C395.011,414.085,324.046,455.045,252.511,496.333z M252.508,100.105c-43.098,24.877-86.102,49.7-128.999,74.461  c0,50.024,0,99.535,0,149.523c42.937,24.786,85.939,49.609,129.019,74.477c43.308-25.01,86.28-49.825,128.825-74.394  c0-50.395,0-99.89,0-149.692C338.451,149.715,295.625,124.994,252.508,100.105z"/>
<path style="fill:#023048;" d="M361.718,249.518c-0.235,12.371-1.637,24.468-6.852,35.766c-2.004,4.342-4.476,8.68-7.614,12.247  c-11.893,13.523-30.641,13.269-42.539-0.278c-6.899-7.855-10.246-17.362-11.984-27.423c-3.237-18.747-3.152-37.418,4.294-55.246  c2.371-5.677,5.981-11.27,10.32-15.605c10.891-10.882,27.655-10.332,38.528,0.589c8.381,8.418,12.052,19.147,13.952,30.501  C360.898,236.479,361.115,243.031,361.718,249.518z M344.863,262.209c0.586-7.926,0.395-14.748,0.39-22.93  c-0.005-8.17-1.682-15.75-3.08-23.268c-1.046-5.627-3.515-11.341-6.67-16.142c-4.906-7.465-13.868-7.279-18.891,0.153  c-2.651,3.923-4.676,8.552-5.838,13.151c-5.338,21.134-5.359,42.567-1.762,63.921c1.165,6.916,3.434,13.985,6.788,20.115  c5.266,9.625,15.219,9.331,20.981-0.086c1.946-3.181,3.705-6.785,4.333-10.407C342.549,278.454,344.271,270.207,344.863,262.209z"/>
<path style="fill:#023048;" d="M215.072,304.73c-0.875,0-1.325-1.049-0.732-1.692c8.588-9.309,16.464-17.715,24.158-26.284  c9.173-10.218,17.622-20.966,23.164-33.704c4.807-11.049,5.641-22.422,2.274-33.932c-3.228-11.035-10.653-15.851-21.241-14.391  c-9.936,1.37-19.272,11.573-19.415,21.219c-0.07,4.762,2.308,8.013,6.985,9.194c1.863,0.471,3.811,0.606,6.432,0.956  c0.41,0.055,0.751,0.353,0.848,0.755c0.879,3.625,1.796,7.402,2.708,11.166c0.128,0.528-0.186,1.077-0.713,1.21  c-10.251,2.584-18.428-3.764-19.905-14.67c-2.912-21.504,12.298-32.876,25.575-34.208c17.668-1.773,34.693,11.69,36.298,28.754  c0.734,7.796-0.914,15.052-4.327,22.006c-6.122,12.476-14.937,22.929-24.83,32.481c-6.331,6.113-13.004,11.87-20.061,18.189  c-0.686,0.614-0.255,1.758,0.666,1.758h43.163c0.459,0,0.861-0.315,0.974-0.76c0.994-3.922,1.953-7.707,2.983-11.772  c0.241-0.952,1.913-0.114,1.913-0.114l0.75,22.979c0,0-0.501,0.859-1,0.859H215.072z"/>
<path style="fill:#343434;" d="M212.657,275.026c1.091,10.723-6.558,24.647-16.809,29.552c-11.706,5.602-22.586,3.054-32.456-4.657  c-6.121-4.782-10.393-11.133-12.981-18.368c-7.97-22.275-8.038-44.583,1.027-66.573c1.812-4.395,4.59-8.58,7.671-12.23  c11.335-13.428,25.404-14.937,39.215-4.814c3.187-2.176,6.293-4.296,9.398-6.417c0.448,0.324,0.896,0.648,1.343,0.972  c0,4.728,0,9.457,0,14.185c0,4.816,0,9.632,0,14.449c-0.346,0.224-0.692,0.448-1.038,0.671c-0.796-1.067-1.764-2.048-2.358-3.218  c-2.468-4.86-4.22-10.205-7.334-14.592c-9.095-12.81-23.238-11.887-30.05,2.212c-3.143,6.506-5.127,13.865-6.141,21.049  c-2.514,17.817-2.634,35.746,1.732,53.357c1.244,5.017,3.32,10.075,6.107,14.411c5.991,9.321,16.734,11.203,25.935,5.008  c7.13-4.801,11.263-11.784,13.582-19.939c0.523-1.84,1.106-3.663,1.661-5.493C211.66,274.737,212.158,274.882,212.657,275.026z"/>
</svg>