<?xml version="1.0" encoding="UTF-8"?>
<svg width="220px" height="220px" viewBox="0 0 220 220" version="1.1" xmlns="http://www.w3.org/2000/svg" xmlns:xlink="http://www.w3.org/1999/xlink">
    <!-- Generator: Sketch 53.2 (72643) - https://sketchapp.com -->
    <title>Token Symbol 1</title>
    <desc>Created with Sketch.</desc>
    <g id="Token-Symbol-1" stroke="none" stroke-width="1" fill="none" fill-rule="evenodd">
        <g>
            <circle id="Oval" fill="#FFFFFF" cx="110" cy="110" r="110"></circle>
            <g id="Group" transform="translate(40.000000, 40.000000)">
                <path d="M126.536028,113.341148 C109.309872,130.206796 94.4470906,138.359375 69.9780024,138.359375 C29.2301453,138.359375 1.09375,109.896684 1.09375,69.816567 C1.09375,28.6562337 32.9993221,1.640625 70.3651071,1.640625 C92.1763991,1.66542843 112.893869,11.1982375 127.106498,27.7492593 L109.676602,44.4314741 C97.8902846,31.9172653 85.0241487,25.3952021 69.7946371,25.3952021 C45.3459228,25.3952021 25.3896598,44.2480411 25.3896598,69.816567 C25.3896598,96.6589334 44.6022744,114.604798 70.3447332,114.604798 C86.4706976,114.604798 97.3503755,108.082735 109.676602,95.7519589 L126.536028,113.341148 Z" id="Path" fill="#000000"></path>
                <circle id="Oval" opacity="0.347563244" cx="70" cy="70" r="70"></circle>
            </g>
        </g>
    </g>
</svg>