<svg id="Layer_1" data-name="Layer 1" xmlns="http://www.w3.org/2000/svg" viewBox="0 0 500 500"><defs><style>.cls-1{fill:#4156a6;}.cls-2{fill:#fff;fill-rule:evenodd;}</style></defs><title>celsius</title><circle class="cls-1" cx="250" cy="250" r="250"/><path class="cls-2" d="M250,400c-82.71,0-150-67.29-150-150s67.29-150,150-150,150,67.29,150,150S332.71,400,250,400m0-286.26c-75.13,0-136.26,61.13-136.26,136.26S174.87,386.26,250,386.26,386.26,325.13,386.26,250,325.13,113.74,250,113.74m59.19,201.6A6.87,6.87,0,0,0,300,305.16a74.43,74.43,0,1,1,0-110.32,6.87,6.87,0,1,0,9.22-10.18,88.17,88.17,0,1,0,0,130.68m17-113.53a12.87,12.87,0,1,0,12.87,12.87,12.9,12.9,0,0,0-12.87-12.87M332,214.68a5.74,5.74,0,1,1-5.73-5.73,5.74,5.74,0,0,1,5.73,5.73"/></svg>