<svg width="160" height="160" viewBox="0 0 160 160" fill="none" xmlns="http://www.w3.org/2000/svg">
<path d="M103.161 27.7941C102.837 25.9554 101.084 24.7277 99.245 25.0519C97.4064 25.3761 96.1787 27.1295 96.5029 28.9682L98.0497 37.7408C95.3161 35.6487 92.3539 34.1353 89.1629 33.2544C84.6458 31.9669 80.0951 32.0316 75.5932 33.438C71.0865 34.7341 67.0248 37.2618 63.4071 40.8796L53.9756 50.3111C48.3548 55.9319 44.9381 62.1087 44.1608 68.8364C43.3689 75.5765 45.5105 81.5153 50.3866 86.3915L54.9772 90.9821C59.0919 95.0967 64.0724 97.2138 69.7603 97.1468L69.7991 97.1461C75.4601 97.0145 81.0893 94.7469 86.6368 90.7503C88.1517 89.6589 88.495 87.5462 87.4036 86.0313C86.3123 84.5164 84.1995 84.1731 82.6847 85.2644C77.8906 88.7183 73.5659 90.2906 69.6614 90.3863C65.898 90.4259 62.6495 89.0926 59.758 86.2011L55.1675 81.6105C51.698 78.141 50.3338 74.2323 50.8762 69.6227L50.877 69.6152C51.436 64.7706 53.9174 59.9311 58.7564 55.092L68.188 45.6604C71.1248 42.7237 74.227 40.86 77.4933 39.9267L77.5359 39.9146L77.5782 39.9013C80.8476 38.8738 84.0672 38.8302 87.321 39.7598L87.3523 39.7686C89.6458 40.4002 91.8565 41.5068 93.9842 43.1433L85.534 44.6333C83.6954 44.9575 82.4676 46.7109 82.7918 48.5496C83.1161 50.3882 84.8694 51.616 86.7081 51.2918L106.684 47.7696L103.161 27.7941Z" fill="black"/>
<path d="M109.123 90.9349C108.564 95.7796 106.083 100.619 101.244 105.458L91.812 114.89C88.8752 117.826 85.773 119.69 82.5067 120.623L82.4641 120.635L82.4219 120.648C79.1525 121.676 75.9328 121.72 72.679 120.79L72.6478 120.781C70.1415 120.092 67.7341 118.834 65.4259 116.938L74.5075 115.336C76.3462 115.013 77.5739 113.259 77.2497 111.42C76.9255 109.582 75.1721 108.354 73.3334 108.678L53.358 112.2L56.8802 132.176C57.2044 134.015 58.9578 135.242 60.7965 134.918C62.6352 134.593 63.8629 132.84 63.5387 131.001L62.1164 122.936C64.8038 124.962 67.7107 126.433 70.8371 127.295C75.3543 128.584 79.905 128.518 84.4069 127.112C88.9135 125.816 92.9752 123.289 96.5929 119.671L106.024 110.239C111.645 104.618 115.062 98.4414 115.839 91.7137C116.631 84.9736 114.49 79.0348 109.613 74.1586L105.023 69.5681C100.908 65.4534 95.9276 63.3363 90.2398 63.4033L90.201 63.404C84.54 63.5356 78.9108 65.8032 73.3632 69.7998C71.8483 70.8912 71.505 73.0039 72.5964 74.5189C73.6877 76.0337 75.8005 76.377 77.3153 75.2857C82.1095 71.8318 86.4341 70.2595 90.3387 70.1638C94.1021 70.1242 97.3505 71.4575 100.242 74.349L104.833 78.9396C108.302 82.4091 109.666 86.3178 109.124 90.9274L109.123 90.9349Z" fill="black"/>
<path d="M103.161 27.7941C102.837 25.9554 101.084 24.7277 99.245 25.0519C97.4064 25.3761 96.1787 27.1295 96.5029 28.9682L98.0497 37.7408C95.3161 35.6487 92.3539 34.1353 89.1629 33.2544C84.6458 31.9669 80.0951 32.0316 75.5932 33.438C71.0865 34.7341 67.0248 37.2618 63.4071 40.8796L53.9756 50.3111C48.3548 55.9319 44.9381 62.1087 44.1608 68.8364C43.3689 75.5765 45.5105 81.5153 50.3866 86.3915L54.9772 90.9821C59.0919 95.0967 64.0724 97.2138 69.7603 97.1468L69.7991 97.1461C75.4601 97.0145 81.0893 94.7469 86.6368 90.7503C88.1517 89.6589 88.495 87.5462 87.4036 86.0313C86.3123 84.5164 84.1995 84.1731 82.6847 85.2644C77.8906 88.7183 73.5659 90.2906 69.6614 90.3863C65.898 90.4259 62.6495 89.0926 59.758 86.2011L55.1675 81.6105C51.698 78.141 50.3338 74.2323 50.8762 69.6227L50.877 69.6152C51.436 64.7706 53.9174 59.9311 58.7564 55.092L68.188 45.6604C71.1248 42.7237 74.227 40.86 77.4933 39.9267L77.5359 39.9146L77.5782 39.9013C80.8476 38.8738 84.0672 38.8302 87.321 39.7598L87.3523 39.7686C89.6458 40.4002 91.8565 41.5068 93.9842 43.1433L85.534 44.6333C83.6954 44.9575 82.4676 46.7109 82.7918 48.5496C83.1161 50.3882 84.8694 51.616 86.7081 51.2918L106.684 47.7696L103.161 27.7941Z" stroke="black" stroke-width="0.3" stroke-linecap="round"/>
<path d="M109.123 90.9349C108.564 95.7796 106.083 100.619 101.244 105.458L91.812 114.89C88.8752 117.826 85.773 119.69 82.5067 120.623L82.4641 120.635L82.4219 120.648C79.1525 121.676 75.9328 121.72 72.679 120.79L72.6478 120.781C70.1415 120.092 67.7341 118.834 65.4259 116.938L74.5075 115.336C76.3462 115.013 77.5739 113.259 77.2497 111.42C76.9255 109.582 75.1721 108.354 73.3334 108.678L53.358 112.2L56.8802 132.176C57.2044 134.015 58.9578 135.242 60.7965 134.918C62.6352 134.593 63.8629 132.84 63.5387 131.001L62.1164 122.936C64.8038 124.962 67.7107 126.433 70.8371 127.295C75.3543 128.584 79.905 128.518 84.4069 127.112C88.9135 125.816 92.9752 123.289 96.5929 119.671L106.024 110.239C111.645 104.618 115.062 98.4414 115.839 91.7137C116.631 84.9736 114.49 79.0348 109.613 74.1586L105.023 69.5681C100.908 65.4534 95.9276 63.3363 90.2398 63.4033L90.201 63.404C84.54 63.5356 78.9108 65.8032 73.3632 69.7998C71.8483 70.8912 71.505 73.0039 72.5964 74.5189C73.6877 76.0337 75.8005 76.377 77.3153 75.2857C82.1095 71.8318 86.4341 70.2595 90.3387 70.1638C94.1021 70.1242 97.3505 71.4575 100.242 74.349L104.833 78.9396C108.302 82.4091 109.666 86.3178 109.124 90.9274L109.123 90.9349Z" stroke="black" stroke-width="0.3" stroke-linecap="round"/>
</svg>
