<svg xmlns="http://www.w3.org/2000/svg" width="20" height="20" viewBox="0 0 20 20">
  <path fill="#01C38D" fill-rule="evenodd" d="M12.384243,0 L10.7435971,0.930955317 L10.7435971,8.83996511 L11.6395569,9.3490531 L11.6395569,3.32581431 L14.7151244,5.07163123 L14.7180944,5.07022768 L15.3152689,5.40868397 L15.8138384,5.12757276 L15.8138384,4.65216999 L11.6395569,2.28598354 L11.6395569,1.46250013 L12.384243,1.04003128 L16.7072241,3.49424043 L16.7072241,5.67856677 L14.6319635,6.84993032 L14.5618707,6.81524256 C14.4355453,6.75308531 14.3046659,6.72140516 14.1731925,6.72140516 C13.6793751,6.72140516 13.2774307,7.12843494 13.2774307,7.62850011 C13.2774307,8.12856527 13.6793751,8.53579556 14.1731925,8.53579556 C14.6313695,8.53579556 15.0123256,8.18550934 15.0592521,7.72113447 L15.0671722,7.64293663 L17.1616391,6.46074569 L19.1040402,7.56353575 L19.1040402,12.44268 L17.159461,13.54547 L9.25620489,9.05751551 L9.25620489,0.931556839 L7.61555901,0 L2.39701413,2.96269562 L2.39701413,5.66633583 L0,7.0253742 L0,12.9680091 L2.39701413,14.328852 L2.39701413,17.0373044 L7.61555901,20 L9.25620489,19.0686437 L9.25620489,11.1425908 L8.36024513,10.6341043 L8.36024513,16.6743862 L4.68473106,14.591316 L4.18596363,14.8724272 L4.18596363,15.3480305 L8.36024513,17.7144175 L8.36024513,18.5370989 L7.61555901,18.9599687 L3.29277589,16.5057596 L3.29277589,14.3210322 L5.36803651,13.1502702 L5.43773327,13.1847574 C5.56465265,13.2469147 5.69513608,13.2785948 5.82641151,13.2785948 C6.32042689,13.2785948 6.72237127,12.8717656 6.72237127,12.3714999 C6.72237127,11.8710337 6.32042689,11.4644049 5.82641151,11.4644049 C5.36863052,11.4644049 4.98807037,11.8144907 4.94054985,12.279066 L4.93302577,12.3570634 L2.83816294,13.5394548 L0.895761764,12.4364643 L0.895761764,7.55732002 L2.84053896,6.45473047 L10.7435971,10.9420835 L10.7435971,19.0686437 L12.384243,20 L17.6029859,17.0373044 L17.6029859,14.3336642 L20,12.9748263 L20,7.03199094 L17.6029859,5.67154902 L17.6029859,2.96269562 L12.384243,0 Z M3.29277589,3.49424043 L7.61555901,1.04003128 L8.36024513,1.46270063 L8.36024513,2.28558252 L3.29277589,5.15825037 L3.29277589,3.49424043 Z M3.75748696,5.9352161 L8.36024513,3.3254133 L8.36024513,8.54862803 L3.75748696,5.9352161 Z M11.6395569,11.450971 L16.242711,14.0649844 L11.6395569,16.6747872 L11.6395569,11.450971 Z M11.6395569,18.5370989 L11.6395569,17.714618 L16.7072241,14.8415491 L16.7072241,16.5057596 L12.384243,18.9599687 L11.6395569,18.5370989 Z"/>
</svg>
