<svg width="256" height="256" viewBox="0 0 256 256" fill="none" xmlns="http://www.w3.org/2000/svg">
<path d="M128 256C198.692 256 256 198.692 256 128C256 57.3075 198.692 0 128 0C57.3075 0 0 57.3075 0 128C0 198.692 57.3075 256 128 256Z" fill="#070A0E"/>
<path d="M128 246.459C193.423 246.459 246.459 193.423 246.459 128C246.459 62.5769 193.423 9.54102 128 9.54102C62.5769 9.54102 9.54102 62.5769 9.54102 128C9.54102 193.423 62.5769 246.459 128 246.459Z" fill="#070A0E"/>
<path fill-rule="evenodd" clip-rule="evenodd" d="M73.9963 170.95C70.1677 168.608 67.8262 164.437 67.8262 159.959V134.954C67.8262 133.996 68.0824 133.074 68.5611 132.253C70.0482 129.689 73.347 128.818 75.9108 130.322L132.349 163.224C135.648 165.155 137.682 168.676 137.682 172.505V198.416C137.682 199.596 137.358 200.775 136.742 201.783C134.879 204.826 130.914 205.783 127.871 203.92L73.9963 170.95ZM158.125 123.468C161.423 125.399 163.457 128.92 163.457 132.749V185.324C163.457 186.879 162.62 188.315 161.27 189.067L148.912 196.023C148.758 196.109 148.587 196.177 148.416 196.229V167.035C148.416 163.258 146.433 159.754 143.186 157.806L93.6184 128.151V95.1977C93.6184 94.2407 93.8746 93.3176 94.3533 92.4972C95.8404 89.9333 99.1392 89.0617 101.703 90.5658L158.125 123.468ZM182.823 84.6348C186.139 86.5491 188.173 90.1044 188.173 93.933V170.727C188.173 172.3 187.301 173.753 185.917 174.505L174.208 180.829V127.365C174.208 123.588 172.226 120.101 168.995 118.152L118.334 87.7629V56.5016C118.334 55.5443 118.59 54.6215 119.052 53.8009C120.539 51.2373 123.837 50.3654 126.401 51.8524L182.823 84.6348Z" fill="#00D395"/>
</svg>
