<?xml version="1.0" encoding="utf-8"?>
<!-- Generator: Adobe Illustrator 25.3.1, SVG Export Plug-In . SVG Version: 6.00 Build 0)  -->
<svg version="1.1" id="Layer_1" xmlns="http://www.w3.org/2000/svg" xmlns:xlink="http://www.w3.org/1999/xlink" x="0px" y="0px"
	 viewBox="0 0 48 47.8" style="enable-background:new 0 0 48 47.8;" xml:space="preserve">
<style type="text/css">
	.st0{fill:#325CE8;}
	.st1{fill:url(#SVGID_1_);}
	.st2{fill:url(#SVGID_2_);}
	.st3{fill:url(#SVGID_3_);}
</style>
<g>
	<g transform="translate(-1577.516 -172)">
		<g transform="translate(1577.516 172)">
			<g transform="translate(0 0)">
				<path class="st0" d="M45.1,14.9V32c0,2.3-1.2,4.3-3.1,5.5L24,47.8L6,37.4c-2-1.1-3.1-3.2-3.1-5.5v-17c0-2.3,1.2-4.3,3.1-5.5
					l14.8-8.6c1-0.5,2-0.8,3.1-0.8s2.2,0.3,3.1,0.8l14.9,8.6C43.9,10.5,45.1,12.6,45.1,14.9z"/>
				<linearGradient id="SVGID_1_" gradientUnits="userSpaceOnUse" x1="36.6188" y1="14.5423" x2="11.3727" y2="14.5423">
					<stop  offset="0" style="stop-color:#F9F9F9"/>
					<stop  offset="0.7346" style="stop-color:#F9F9F9;stop-opacity:0.7"/>
					<stop  offset="1" style="stop-color:#E8EBF8;stop-opacity:0"/>
				</linearGradient>
				<path class="st1" d="M36.6,18c0,0.3,0,0.5-0.1,0.8l-2.3-1.3l-3-1.7c-0.4-0.2-5.4-3-5.7-3.1c-1.2-0.4-2.6-0.3-3.7,0.3
					c-1.2,0.7-8.5,4.6-9.5,5.3c-0.3,0.2-0.6,0.5-0.9,0.9c0-0.7,0-1.5,0.3-2.2c0.3-0.7,0.8-1.3,1.5-1.6l9.2-5.1c1-0.6,2.3-0.6,3.3,0
					c0,0,9.4,5.2,9.4,5.2C35.9,16,36.6,17,36.6,18z"/>
				<linearGradient id="SVGID_2_" gradientUnits="userSpaceOnUse" x1="35.4601" y1="30.175" x2="14.5901" y2="28.3491">
					<stop  offset="0" style="stop-color:#F9F9F9"/>
					<stop  offset="0.75" style="stop-color:#F9F9F9;stop-opacity:0.8"/>
					<stop  offset="1" style="stop-color:#E8EBF8;stop-opacity:0"/>
				</linearGradient>
				<path class="st2" d="M35.7,27.1c-1.3,0.7-3.8,2.1-5.1,2.8c0,0-5,2.8-5,2.8c-1,0.6-2.3,0.6-3.3,0c0,0-7.1-3.9-7.1-3.9
					c-0.3-0.2-0.5-0.5-0.5-0.8V26l7,3.9c1.3,0.8,3.1,0.8,4.4,0c0,0,6.3-3.5,6.3-3.5C33.5,25.8,35,26.1,35.7,27.1z"/>
				<linearGradient id="SVGID_3_" gradientUnits="userSpaceOnUse" x1="11.1522" y1="28.1173" x2="36.2683" y2="24.5883">
					<stop  offset="0" style="stop-color:#F9F9F9"/>
					<stop  offset="0.75" style="stop-color:#F9F9F9;stop-opacity:0.8"/>
					<stop  offset="1" style="stop-color:#E8EBF8"/>
				</linearGradient>
				<path class="st3" d="M36.6,29.8c0,0.9-0.4,1.6-1.1,2.2c-0.3,0.3-1.7,1-2.1,1.2c0,0-3.2,1.8-3.2,1.8s-4.7,2.6-4.7,2.6
					c-1,0.6-2.3,0.6-3.3,0c0,0-7.8-4.3-7.8-4.3s-1.4-0.8-1.4-0.8c-1.1-0.6-1.8-1.7-1.8-3v-6.2c0.1-1.2,0.7-2.4,1.8-3
					c0.7-0.4,8.3-4.6,9.2-5.1c0.8-0.5,1.8-0.6,2.7-0.3c0.1-0.1,5.3,2.9,5.6,3c1.2,0.7,3.9,2.1,5.1,2.8c-0.7,1.1-2.4,1.2-3.5,0.5
					c0,0-6.1-3.4-6.1-3.4c-1.4-0.8-3.1-0.8-4.4,0c0,0-7.1,3.9-7.1,3.9c-0.7,0.4-1.1,1.1-1.1,1.8c0,0,0,5.4,0,5.4
					c0,0.8,0.4,1.5,1.1,1.8l7.1,3.9c1.3,0.8,3.1,0.8,4.4,0c0,0,5-2.8,5-2.8c0.9-0.5,3.5-2,4.4-2.4c0.2-0.1,0.7-0.4,0.9-0.5
					C36.6,29.3,36.6,29.5,36.6,29.8z"/>
			</g>
		</g>
	</g>
</g>
</svg>
