<?xml version="1.0" encoding="utf-8"?>
<!-- Generator: Adobe Illustrator 16.0.0, SVG Export Plug-In . SVG Version: 6.00 Build 0)  -->
<!DOCTYPE svg PUBLIC "-//W3C//DTD SVG 1.1//EN" "http://www.w3.org/Graphics/SVG/1.1/DTD/svg11.dtd">
<svg version="1.1" id="Layer_1" xmlns="http://www.w3.org/2000/svg" xmlns:xlink="http://www.w3.org/1999/xlink" x="0px" y="0px"
	 width="100px" height="100px" viewBox="0 0 100 100" enable-background="new 0 0 100 100" xml:space="preserve">
<rect fill="#FFFFFF" width="100" height="100"/>
<polygon fill="#44AAF4" points="50.075,19.438 69,30.386 69,52.511 50.075,63.648 31,52.813 31,30.083 "/>
<path fill="none" stroke="#000000" stroke-miterlimit="10" d="M17.433,68.043"/>
<path fill="none" stroke="#44AAF4" stroke-width="4" stroke-miterlimit="10" d="M17.205,69.483"/>
<path fill="none" stroke="#44AAF4" stroke-width="4" stroke-miterlimit="10" d="M20.186,81"/>
<path fill="none" stroke="#44AAF4" stroke-width="4" stroke-miterlimit="10" d="M20.236,81"/>
<path fill="none" stroke="#44AAF4" stroke-width="4" stroke-miterlimit="10" d="M27.308,67.21"/>
<path fill="none" stroke="#44AAF4" stroke-width="4" stroke-miterlimit="10" d="M20.236,81"/>
<path fill="none" stroke="#44AAF4" stroke-width="4" stroke-miterlimit="10" d="M20.236,81"/>
<polygon fill="#FFFFFF" points="40,35.603 49.655,29.996 59.417,35.603 53.965,39.442 49.71,36.36 40,41.6 "/>
<polygon fill="#FFFFFF" points="40,43.343 45,40.653 45,44.024 49.428,46.525 53.848,44.024 59.363,47.661 49.682,53.382 40,47.661 
	"/>
<g>
	<path fill="#44AAF4" d="M12.414,80.697c-0.891,0-1.714-0.167-2.47-0.501s-1.412-0.791-1.969-1.371s-0.99-1.27-1.301-2.065
		c-0.311-0.797-0.466-1.658-0.466-2.584c0-0.938,0.155-1.793,0.466-2.567c0.311-0.773,0.744-1.433,1.301-1.978
		c0.557-0.544,1.213-0.967,1.969-1.266c0.756-0.298,1.579-0.448,2.47-0.448h6.926v2.232h-6.926c-0.575,0-1.105,0.104-1.591,0.308
		c-0.487,0.205-0.906,0.49-1.257,0.853c-0.352,0.363-0.627,0.798-0.826,1.302s-0.299,1.061-0.299,1.67c0,0.597,0.1,1.154,0.299,1.67
		s0.475,0.957,0.826,1.326c0.352,0.37,0.771,0.66,1.257,0.871c0.486,0.21,1.016,0.315,1.591,0.315h6.926v2.233H12.414z"/>
	<path fill="#44AAF4" d="M25,77.146v-2.162h5.133c0.785,0,1.397-0.223,1.837-0.669c0.439-0.445,0.66-1.031,0.66-1.757
		c0-0.738-0.22-1.324-0.66-1.759c-0.439-0.433-1.052-0.65-1.837-0.65h-6.768v10.548H21.15v-12.78h8.982
		c0.738,0,1.397,0.108,1.978,0.325c0.58,0.218,1.069,0.522,1.467,0.914c0.398,0.394,0.704,0.87,0.914,1.434
		c0.211,0.562,0.316,1.194,0.316,1.898c0,0.691-0.105,1.32-0.316,1.889c-0.21,0.569-0.516,1.059-0.914,1.469
		s-0.887,0.729-1.467,0.957c-0.581,0.229-1.24,0.344-1.978,0.344H25z"/>
	<path fill="#44AAF4" d="M42.227,80.697c-0.891,0-1.714-0.167-2.47-0.501s-1.413-0.791-1.969-1.371
		c-0.557-0.58-0.99-1.27-1.301-2.065c-0.311-0.797-0.466-1.658-0.466-2.584c0-0.938,0.155-1.793,0.466-2.567
		c0.311-0.773,0.744-1.433,1.301-1.978c0.556-0.544,1.213-0.967,1.969-1.266c0.756-0.298,1.579-0.448,2.47-0.448h3.111
		c0.926,0,1.772,0.152,2.54,0.457c0.768,0.306,1.427,0.732,1.978,1.283c0.551,0.552,0.979,1.211,1.283,1.979
		c0.305,0.767,0.457,1.614,0.457,2.54s-0.155,1.787-0.465,2.584c-0.312,0.796-0.745,1.485-1.301,2.065
		c-0.557,0.58-1.216,1.037-1.978,1.371s-1.599,0.501-2.514,0.501H42.227z M45.338,78.464c0.586,0,1.125-0.105,1.617-0.315
		c0.492-0.211,0.917-0.501,1.274-0.871c0.358-0.369,0.636-0.811,0.835-1.326s0.299-1.073,0.299-1.67c0-0.598-0.1-1.151-0.299-1.662
		c-0.199-0.509-0.477-0.946-0.835-1.31c-0.357-0.362-0.782-0.647-1.274-0.853c-0.492-0.204-1.031-0.308-1.617-0.308h-3.111
		c-0.574,0-1.104,0.104-1.591,0.308c-0.486,0.205-0.905,0.49-1.257,0.853c-0.352,0.363-0.627,0.798-0.826,1.302
		s-0.299,1.061-0.299,1.67c0,0.597,0.1,1.154,0.299,1.67s0.475,0.957,0.826,1.326c0.352,0.37,0.771,0.66,1.257,0.871
		c0.486,0.21,1.017,0.315,1.591,0.315H45.338z"/>
	<path fill="#44AAF4" d="M53.406,80.697v-12.78h2.232v10.547h8.596v2.233H53.406z"/>
	<path fill="#44AAF4" d="M65.834,80.697v-12.78h2.232v10.547h8.596v2.233H65.834z"/>
	<path fill="#44AAF4" d="M84.099,80.697c-0.892,0-1.715-0.167-2.47-0.501c-0.757-0.334-1.412-0.791-1.969-1.371
		c-0.558-0.58-0.991-1.27-1.301-2.065c-0.313-0.797-0.467-1.658-0.467-2.584c0-0.938,0.154-1.793,0.467-2.567
		c0.31-0.773,0.743-1.433,1.301-1.978c0.557-0.544,1.212-0.967,1.969-1.266c0.755-0.298,1.578-0.448,2.47-0.448h3.111
		c0.926,0,1.772,0.152,2.539,0.457c0.769,0.306,1.427,0.732,1.979,1.283c0.551,0.552,0.978,1.211,1.283,1.979
		c0.305,0.767,0.457,1.614,0.457,2.54s-0.156,1.787-0.467,2.584c-0.31,0.796-0.743,1.485-1.301,2.065
		c-0.557,0.58-1.216,1.037-1.978,1.371c-0.761,0.334-1.599,0.501-2.513,0.501H84.099z M87.21,78.464
		c0.586,0,1.124-0.105,1.617-0.315c0.492-0.211,0.916-0.501,1.273-0.871c0.357-0.369,0.636-0.811,0.836-1.326
		c0.199-0.516,0.299-1.073,0.299-1.67c0-0.598-0.1-1.151-0.299-1.662c-0.2-0.509-0.479-0.946-0.836-1.31
		c-0.357-0.362-0.781-0.647-1.273-0.853c-0.493-0.204-1.031-0.308-1.617-0.308h-3.111c-0.574,0-1.104,0.104-1.592,0.308
		c-0.486,0.205-0.905,0.49-1.257,0.853c-0.352,0.363-0.626,0.798-0.826,1.302c-0.199,0.504-0.299,1.061-0.299,1.67
		c0,0.597,0.1,1.154,0.299,1.67c0.2,0.516,0.475,0.957,0.826,1.326c0.352,0.37,0.771,0.66,1.257,0.871
		c0.487,0.21,1.018,0.315,1.592,0.315H87.21z"/>
</g>
</svg>
