<svg id="Layer_1" data-name="Layer 1" xmlns="http://www.w3.org/2000/svg" xmlns:xlink="http://www.w3.org/1999/xlink" viewBox="0 0 1013.13 1324.46"><defs><style>.cls-1{fill:url(#linear-gradient);}</style><linearGradient id="linear-gradient" x1="240.32" y1="1108.41" x2="1117.61" y2="231.12" gradientUnits="userSpaceOnUse"><stop offset="0.05" stop-color="#00c1b4"/><stop offset="0.35" stop-color="#1870eb"/><stop offset="0.49" stop-color="#4e4fd5"/><stop offset="0.69" stop-color="#9821b6"/><stop offset="0.74" stop-color="#a420aa"/><stop offset="0.83" stop-color="#c61f8b"/><stop offset="0.95" stop-color="#fb1c58"/><stop offset="0.96" stop-color="#ff1c54"/></linearGradient></defs><path class="cls-1" d="M708.31,1334.09a45.56,45.56,0,0,1-22.91-6.16L151.49,1017.48a45.76,45.76,0,0,1-22.62-39.37V363.3a45.61,45.61,0,0,1,22.73-39.39L684.75,15.73a45.73,45.73,0,0,1,45.42-.12L1128.12,243a27.54,27.54,0,1,1-27.33,47.83L707.58,66.15,184,368.83v603.8l524.36,304.91,378.61-219.74V963.32l-356,202.4a45.68,45.68,0,0,1-45.6-.32l-393-230.81a45.68,45.68,0,0,1-22.52-39.3V443a45.59,45.59,0,0,1,22.87-39.47L687.22,177.3a45.76,45.76,0,0,1,45.37,0L1071,371.7a45.6,45.6,0,0,1,.34,78.86L968.53,510.8a45.72,45.72,0,0,1-45.56.31L710.06,390.27l-242.6,141v279L708.59,952.66,894.71,847.35l-88-50.38-76.28,41.22a45.83,45.83,0,0,1-44.95-.92L575.84,772.1a45.72,45.72,0,0,1-22.5-39.29V606.41a45.52,45.52,0,0,1,23.42-39.79l112.55-62.45a45.88,45.88,0,0,1,44.46.13l80.41,45.23a27.54,27.54,0,0,1-27,48l-75.79-42.63-103,57.14V727.39L709,787.16,785.12,746a45.35,45.35,0,0,1,44.33.55l107.08,61.27a45.61,45.61,0,0,1-.19,79.27L730.93,1003.3a45.7,45.7,0,0,1-45.61-.42L434.76,854.94a45.79,45.79,0,0,1-22.38-39.23v-290A45.62,45.62,0,0,1,435,486.4L687.1,339.9a45.72,45.72,0,0,1,45.39-.23L945.4,460.51l83.92-49.2L709.88,227.8l-385,220.73V889.84l383.61,225.28,365.33-207.74A45.62,45.62,0,0,1,1142,947v116.24a45.74,45.74,0,0,1-22.72,39.44L731.18,1328A45.47,45.47,0,0,1,708.31,1334.09Z" transform="translate(-128.87 -9.63)"/></svg>