<?xml version="1.0" encoding="UTF-8"?>
<svg fill="none" viewBox="0 0 43 42" xmlns="http://www.w3.org/2000/svg">
<path d="m21.079 0c-11.64 0-21.079 9.4037-21.079 21 0 11.6 9.4393 21 21.079 21 11.644 0 21.08-9.4037 21.08-21 0.0036-11.596-9.4357-21-21.08-21zm1.6971 21.99 7.3921 7.3642c0.6038 0.6016 0.5288 1.5839-0.1429 2.1071-2.2687 1.7761-5.1341 2.8368-8.2424 2.8368-7.8816 0-14.166-6.8018-13.266-14.835 0.68954-6.1505 5.7201-11.091 11.901-11.7 3.6585-0.35949 7.0562 0.75102 9.6608 2.8118 0.6467 0.5126 0.6753 1.4843 0.0893 2.0645l-7.3956 7.3677c-0.5467 0.5517-0.5467 1.438 0.0035 1.9826z" fill="#69E2DC"/>
</svg>
