<?xml version="1.0" encoding="utf-8"?>
<!-- Generator: Adobe Illustrator 24.0.1, SVG Export Plug-In . SVG Version: 6.00 Build 0)  -->
<svg version="1.1" id="layer_1" xmlns="http://www.w3.org/2000/svg" xmlns:xlink="http://www.w3.org/1999/xlink" x="0px" y="0px"
	 viewBox="0 0 128 128" style="enable-background:new 0 0 128 128;" xml:space="preserve">
<style type="text/css">
	.st0{fill:#191919;}
	.st1{fill:#F08727;}
	.st2{fill:#FFFFFF;}
</style>
<g>
	<ellipse transform="matrix(0.7071 -0.7071 0.7071 0.7071 -26.5097 64)" class="st0" cx="64" cy="64" rx="51.1" ry="51.1"/>
	<g>
		<path class="st1" d="M43.8,49.3l22-12.7c0.8-0.4,1.7-0.4,2.5,0l13.9,8c1.4,0.8,1.6,2.7,0.5,3.9l-4.7,4.7c-0.8,0.8-2,0.9-3,0.4
			l-6.7-3.9c-0.8-0.4-1.7-0.4-2.5,0L42.6,63.3l0-11.8C42.6,50.6,43,49.8,43.8,49.3z"/>
		<path class="st2" d="M82.2,83.4l-13.9,8c-0.8,0.4-1.7,0.4-2.5,0l-22-12.7c-0.8-0.4-1.2-1.2-1.2-2.1V65.8l11.3-6.6V70
			c0,0.9,0.5,1.7,1.2,2.1l10.7,6.2c0.8,0.4,1.7,0.4,2.5,0l6.8-3.9c1-0.6,2.2-0.4,3,0.4l4.7,4.7C83.8,80.6,83.6,82.6,82.2,83.4z"/>
	</g>
</g>
</svg>
