<svg width="69" height="81" viewBox="0 0 69 81" fill="none" xmlns="http://www.w3.org/2000/svg">
  <g clip-path="url(#clip0)">
  <path d="M64.7441 16.9734V63.031C64.7441 63.4812 64.5646 63.9129 64.2451 64.2312C63.9256 64.5495 63.4922 64.7283 63.0403 64.7283H53.9175C53.4656 64.7283 53.0322 64.5495 52.7127 64.2312C52.3932 63.9129 52.2137 63.4812 52.2137 63.031V18.105C52.2137 17.3642 52.5091 16.6538 53.0349 16.13C53.5607 15.6062 54.2738 15.3119 55.0174 15.3119H63.0475C63.492 15.3137 63.9182 15.4884 64.2351 15.7988C64.5521 16.1092 64.7347 16.5307 64.7441 16.9734V16.9734Z" fill="#030303"/>
  <path d="M28.8392 33.6009L20.6773 25.0953C18.7287 23.0646 17.6697 20.346 17.7332 17.5375C17.7967 14.7289 18.9775 12.0605 21.0159 10.1193L26.3423 5.04669C28.3807 3.10547 31.1096 2.05045 33.9289 2.1137C36.7481 2.17694 39.4266 3.35329 41.3752 5.38395L48.7521 13.0716C50.9036 15.3137 52.0729 18.3154 52.0029 21.4164C51.9328 24.5174 50.629 27.4636 48.3784 29.607L43.8522 33.9174C41.8174 35.8552 39.0943 36.9101 36.28 36.8508C33.4657 36.7915 30.7899 35.6227 28.8392 33.6009V33.6009Z" fill="#030303"/>
  <path d="M42.8899 75.4925L26.3933 75.7593C25.9345 75.7667 25.4788 75.6841 25.0521 75.516C24.6254 75.348 24.2361 75.0978 23.9065 74.7799C23.5768 74.462 23.3132 74.0825 23.1308 73.6632C22.9484 73.2438 22.8506 72.7927 22.8432 72.3356L22.827 71.3403C22.8195 70.8832 22.9025 70.4293 23.0712 70.0042C23.2399 69.5791 23.4909 69.1913 23.8101 68.8629C24.1292 68.5345 24.5101 68.2719 24.9311 68.0901C25.3521 67.9084 25.8049 67.811 26.2636 67.8036L41.7611 67.553C42.9526 67.5337 44.1029 67.9868 44.9591 68.8125C45.8153 69.6382 46.3072 70.7689 46.3265 71.9559V71.9559C46.3416 72.8789 45.9879 73.77 45.3434 74.4333C44.6989 75.0965 43.8164 75.4775 42.8899 75.4925Z" fill="#030303"/>
  <path d="M16.2543 17.1597L16.2543 64.578C16.2543 64.7451 16.1877 64.9054 16.069 65.0236C15.9504 65.1418 15.7895 65.2082 15.6217 65.2082H4.98916C4.82138 65.2082 4.66047 65.1418 4.54182 65.0236C4.42318 64.9054 4.35653 64.7451 4.35653 64.578L4.35653 18.2626C4.35653 17.8029 4.53982 17.3621 4.86608 17.037C5.19235 16.712 5.63487 16.5294 6.09627 16.5294H15.6145C15.7823 16.5294 15.9432 16.5958 16.0618 16.714C16.1805 16.8322 16.2471 16.9925 16.2471 17.1597H16.2543Z" fill="#030303"/>
  <path d="M54.3872 11.9693L56.3298 67.9484C56.3356 68.1154 56.2746 68.2779 56.1601 68.4001C56.0456 68.5223 55.8871 68.5942 55.7194 68.6L14.3499 70.0248C14.1822 70.0306 14.0191 69.9697 13.8964 69.8557C13.7737 69.7417 13.7016 69.5837 13.6958 69.4167L11.7914 14.5399C11.7755 14.0805 11.9434 13.6337 12.2582 13.2976C12.5729 12.9615 13.0088 12.7638 13.47 12.7479L53.7043 11.3622C53.872 11.3565 54.0351 11.4173 54.1578 11.5313C54.2805 11.6454 54.3527 11.8033 54.3585 11.9703L54.3872 11.9693Z" fill="#030303"/>
  <path d="M45.1692 72.5658L25.474 72.8843C24.5475 72.8993 23.6529 72.547 22.9871 71.9049C22.3214 71.2628 21.9389 70.3836 21.9239 69.4606L21.6956 55.4539C21.6806 54.5309 22.0342 53.6398 22.6787 52.9765C23.3232 52.3133 24.2058 51.9322 25.1323 51.9173L43.8213 51.615C45.0127 51.5958 46.1631 52.0488 47.0193 52.8745C47.8755 53.7002 48.3674 54.8309 48.3867 56.0179L48.5987 69.0292C48.6138 69.9522 48.2601 70.8434 47.6156 71.5066C46.9711 72.1699 46.0885 72.5509 45.162 72.5659L45.1692 72.5658Z" fill="#030303"/>
  <path d="M27.9724 40.6503L10.8123 31.4617C10.4774 31.2822 10.1015 31.1922 9.7213 31.2006C9.3411 31.209 8.96957 31.3154 8.64297 31.5094C8.31637 31.7035 8.04584 31.9786 7.85779 32.3079C7.66974 32.6372 7.57058 33.0094 7.57001 33.3883V55.7188C7.56585 56.115 7.67176 56.5046 7.87602 56.8446C8.08029 57.1846 8.37495 57.4617 8.72744 57.6453L25.8876 66.8339C26.2083 67.0052 26.5661 67.0961 26.93 67.0989C27.3282 67.0997 27.7188 66.9906 28.0586 66.7838C28.3846 66.5897 28.6545 66.3149 28.8422 65.9861C29.0299 65.6572 29.129 65.2856 29.1298 64.9074V42.5769C29.1292 42.1816 29.0213 41.7939 28.8176 41.4547C28.6138 41.1156 28.3218 40.8376 27.9724 40.6503V40.6503ZM23.7452 43.3647L19.6044 46.5445L15.8302 44.5177V49.4307L11.9697 52.3885V37.0623L23.7452 43.3647ZM12.9618 54.9453L17.1098 51.7726L20.884 53.7922V48.8793L24.7445 45.9214V61.2692L12.9618 54.9453Z" fill="white"/>
  <path d="M47.2605 16.866L34.5 23.6984L26.6352 19.4872L39.3957 12.6549L35.9019 10.7857C35.4718 10.5562 34.9915 10.4362 34.5036 10.4362C34.0157 10.4362 33.5354 10.5562 33.1053 10.7857L18.8064 18.4273C18.6159 18.5308 18.4569 18.6835 18.3461 18.8694C18.2353 19.0553 18.1768 19.2675 18.1768 19.4837C18.1768 19.6998 18.2353 19.912 18.3461 20.0979C18.4569 20.2838 18.6159 20.4365 18.8064 20.54L33.0838 28.1817C33.5129 28.4142 33.9935 28.5361 34.482 28.5361C34.9705 28.5361 35.4512 28.4142 35.8803 28.1817L50.1504 20.54C50.343 20.4382 50.504 20.2861 50.6163 20.1C50.7287 19.9139 50.788 19.7008 50.788 19.4837C50.788 19.2665 50.7287 19.0535 50.6163 18.8674C50.504 18.6813 50.343 18.5291 50.1504 18.4273L47.2605 16.866Z" fill="white"/>
  <path d="M60.3588 31.512C60.0354 31.3157 59.6658 31.2077 59.2872 31.1989C58.9086 31.1901 58.5344 31.2808 58.2021 31.4618L41.042 40.6504C40.6926 40.8377 40.4006 41.1157 40.1968 41.4548C39.993 41.794 39.8852 42.1817 39.8846 42.5769V64.9075C39.8883 65.4863 40.1203 66.0405 40.5305 66.4505C40.9407 66.8604 41.4962 67.0934 42.0772 67.099C42.4412 67.0971 42.7992 67.0061 43.1196 66.834L60.2797 57.6454C60.6322 57.4618 60.9269 57.1847 61.1312 56.8447C61.3354 56.5047 61.4413 56.1151 61.4372 55.7189V33.3884C61.4399 33.0086 61.3416 32.6348 61.1522 32.3052C60.9628 31.9756 60.689 31.7019 60.3588 31.512V31.512ZM57.0375 52.3815L53.177 49.4237V44.5106L49.4028 46.5374L45.2547 43.3647L57.0375 37.0624V52.3815ZM44.2699 45.9358L48.1303 48.8937V53.8067L51.9046 51.787L56.0526 54.9597L44.2699 61.2693V45.9358Z" fill="white"/>
  <path d="M68.9214 18.9073C68.9006 18.8464 68.8766 18.7867 68.8495 18.7283C68.8097 18.6094 68.7592 18.4943 68.6986 18.3845C68.6986 18.32 68.6051 18.2627 68.562 18.1983C68.5006 18.1039 68.4308 18.0152 68.3535 17.9333C68.2895 17.8792 68.2223 17.829 68.1522 17.7829C68.0836 17.7194 68.0116 17.6596 67.9365 17.6039H67.8862L67.8431 17.5681L35.5429 0.279455C35.2246 0.105175 34.8673 0.0137939 34.5041 0.0137939C34.1409 0.0137939 33.7836 0.105175 33.4653 0.279455L1.15795 17.5824V17.6182H1.10763C1.02855 17.6683 0.963851 17.7399 0.884772 17.7972C0.817034 17.8433 0.752207 17.8936 0.690666 17.9476C0.613372 18.0296 0.543593 18.1183 0.482179 18.2126C0.431856 18.2771 0.381535 18.3344 0.338401 18.3988C0.280096 18.5088 0.231972 18.6239 0.194624 18.7426C0.194624 18.807 0.137111 18.8643 0.115544 18.9216C0.0635964 19.1107 0.0370052 19.3057 0.0364647 19.5017V61.5344C0.0370669 61.9296 0.144956 62.3173 0.348713 62.6565C0.55247 62.9956 0.844509 63.2736 1.19389 63.4609L33.5012 80.7567C33.6009 80.8034 33.7043 80.8417 33.8104 80.8712L33.9829 80.9428C34.164 80.9882 34.3498 81.0122 34.5365 81.0145C34.7255 81.0118 34.9136 80.9878 35.0972 80.9428L35.2697 80.8712C35.3754 80.8405 35.4787 80.8023 35.5789 80.7567L67.8431 63.4179C68.1925 63.2306 68.4845 62.9527 68.6883 62.6135C68.892 62.2744 68.9999 61.8866 69.0005 61.4914V19.4874C69 19.2914 68.9734 19.0964 68.9214 18.9073V18.9073ZM34.5005 4.74127L62.0416 19.4874L60.8698 20.1105L34.5005 34.2336L8.13127 20.1105L6.95947 19.4874L34.5005 4.74127ZM4.42894 23.1471L32.3366 38.0866V75.149L4.42894 60.2094V23.1471ZM36.7291 75.149V38.0866L64.6368 23.1471V60.2094L36.7291 75.149Z" fill="#F79723"/>
  </g>
  <defs>
  <clipPath id="clip0">
  <rect width="69" height="81" fill="white"/>
  </clipPath>
  </defs>
</svg>
