<svg height="40.78" viewBox="0 0 42 40.78" width="42" xmlns="http://www.w3.org/2000/svg"><ellipse cx="21" cy="20.39" fill="#ffd9ff" rx="21" ry="20.39"/><path d="M28.93 32.2A35.47 35.47 0 0 0 33 27.85a3.54 3.54 0 0 0 2.48-.22 8.85 8.85 0 0 1-1.78-2 3.85 3.85 0 0 0 3.39-.31s-3.23-1.8-3.69-3.25c-1.71-5.35-1.58-5.83-1.58-5.83 1-2.59 1.78-5.55 1-6.52-1-1.24-2.17.71-5.14 2.71 0 0-1.78-1.69-6.56-1.69a15.55 15.55 0 0 0-6.35 1.72c-1.36-1-2.24-1.92-3.32-2.54-1.64-1-2.42-.09-1.81 2 .25.84.63 2.69 1 4.34.27 1.18 0 .91-1 4.54a12.88 12.88 0 0 1-1.3 2.51 5.17 5.17 0 0 1-3 2 3.85 3.85 0 0 0 3.39.31 8.85 8.85 0 0 1-1.78 2 3.54 3.54 0 0 0 2.48.22A9 9 0 0 0 13.4 32s2 2.36 7.76 2.36c5.19 0 7.77-2.16 7.77-2.16z" fill="#ffe888"/><path d="M16.53 11.59s-5.83 5.53-5.06 13.06c.85 8.29 9.69 9.71 9.69 9.71A14.07 14.07 0 0 1 9.5 27.85s-1.68.6-2.48-.22c0 0 1.51-1 1.78-2a3.65 3.65 0 0 1-3.39-.31 5.53 5.53 0 0 0 3.42-2.65c1.9-3.22 1.95-8.55 7.7-11.08z" fill="#eaba5c"/><path d="M13.86 13.48s-1.16-1-2.48-2c-1-.77-1.51-.79-1.77.07l1.23 5.14L12 16l.92-1.52zm14.82 0s1.16-1 2.48-2c1-.77 1.51-.79 1.77.07l-1.23 5.19-1.12-.74-.92-1.52z" fill="#eaba5c"/><path d="M9.5 27.85a3.54 3.54 0 0 1-2.5-.22 8.85 8.85 0 0 0 1.78-2 3.85 3.85 0 0 1-3.39-.31 5.17 5.17 0 0 0 3.42-2.65c.81-1.58 1.88-4.69 2.75-6.27 2.22-4.06 5.12-5.66 9.58-5.66a10.38 10.38 0 0 1 9.86 5.7c.87 1.58 1.94 4.69 2.75 6.27a5.17 5.17 0 0 0 3.42 2.65 3.86 3.86 0 0 1-3.39.31 8.85 8.85 0 0 0 1.78 2 3.54 3.54 0 0 1-2.48.22S29 34.36 21.27 34.36 9.5 27.85 9.5 27.85z" fill="none" stroke="#44392e" stroke-linecap="round" stroke-linejoin="round" stroke-width=".631"/><path d="M14.61 12.35L11.49 10c-1.2-.93-2.42-.49-2 1.42.31 1.26 1.3 5.36 1.3 5.36m16.93-4.31L31 9.93c1.2-.93 2.42-.49 2 1.42-.31 1.26-1.29 5.39-1.29 5.39" fill="none" stroke="#44392e" stroke-linecap="round" stroke-linejoin="round" stroke-width=".534"/><circle cx="13.6" cy="19.8" fill="#fff" r="4.1" stroke="#44392e" stroke-miterlimit="10" stroke-width=".534"/><circle cx="13.62" cy="19.65" fill="#44392e" r="2.52" stroke="#f930e7" stroke-miterlimit="10" stroke-width=".548"/><ellipse cx="13.59" cy="17.93" fill="#fff" rx="1.18" ry="1.18" transform="rotate(-45.03 13.586 17.93)"/><circle cx="28.97" cy="19.8" fill="#fff" r="4.1" stroke="#44392e" stroke-miterlimit="10" stroke-width=".534"/><circle cx="29" cy="19.84" fill="#44392e" r="2.52" stroke="#f930e7" stroke-miterlimit="10" stroke-width=".548"/><ellipse cx="28.97" cy="18.12" fill="#fff" rx="1.18" ry="1.18" transform="rotate(-45.03 28.972 18.116)"/><path d="M23.63 26.9a2.68 2.68 0 0 1-2.31 2.71A2.67 2.67 0 0 1 19 26.9l2.3-1.35z" fill="#44392e"/><path d="M23.18 28.5a2.6 2.6 0 0 0-3.76 0l1.9.83z" fill="#f930e7"/><path d="M19.71 28.42a2.1 2.1 0 0 1 1.61-.61 2.28 2.28 0 0 1 1.43.44" fill="none" stroke="#44392e" stroke-linecap="round" stroke-miterlimit="10" stroke-width=".449"/><path d="M21.15 26.25h.34" fill="none" stroke="#fff" stroke-linecap="round" stroke-linejoin="round" stroke-width="1.71"/><path d="M27.31 26.39a3.56 3.56 0 0 1-1.88.8 4.89 4.89 0 0 1-2.05-.19 4.13 4.13 0 0 1-1.84-1 2.06 2.06 0 0 1-.54-1 4.28 4.28 0 0 1 0-.55v-.49a.39.39 0 0 1 .37-.41.4.4 0 0 1 .41.38v.49a2 2 0 0 0 0 .43 1.34 1.34 0 0 0 .34.71 3.63 3.63 0 0 0 1.51 1 3.91 3.91 0 0 0 3.58-.37.16.16 0 0 1 .21 0 .14.14 0 0 1-.11.2z" fill="#44392e"/><path d="M15.79 26.18a2.73 2.73 0 0 0 1.7.6 4.47 4.47 0 0 0 1.81-.32 3.18 3.18 0 0 0 1.41-1 1.19 1.19 0 0 0 .23-.7v-1a.39.39 0 0 1 .38-.4.41.41 0 0 1 .4.39v1a1.87 1.87 0 0 1-.44 1.09 3.74 3.74 0 0 1-1.8 1.16 4.94 4.94 0 0 1-2 .22 3.15 3.15 0 0 1-1.86-.81.14.14 0 0 1 .19-.2z" fill="#44392e"/><path d="M23.63 27.22a2.32 2.32 0 0 1-4.62 0" fill="none" stroke="#44392e" stroke-linecap="round" stroke-miterlimit="10" stroke-width=".679"/><g fill="#44392e"><path d="M19.36 23.74a.47.47 0 0 1 .11-.49 2.59 2.59 0 0 1 1.9-.68 2.26 2.26 0 0 1 1.81.64.48.48 0 0 1 .08.5.62.62 0 0 1-.55.38 1.19 1.19 0 0 0-1 .49l-.06.07a.51.51 0 0 1-.75 0s-.22-.39-1-.45a.64.64 0 0 1-.53-.42zm-1.11.88a9.23 9.23 0 0 0-4.58.13 7.16 7.16 0 0 0-3.73 2.68 7.31 7.31 0 0 1 3.64-2.95 9.73 9.73 0 0 1 4.76-.41.29.29 0 0 1 .24.32.27.27 0 0 1-.32.23z"/><path d="M18.3 25.3a5.41 5.41 0 0 0-3 .53 3.62 3.62 0 0 0-1.59 2.59 5.05 5.05 0 0 1 .4-1.56 3.25 3.25 0 0 1 1-1.26 5.8 5.8 0 0 1 3.16-.85.26.26 0 0 1 .28.26.28.28 0 0 1-.26.29zm5.96-1.23a9.73 9.73 0 0 1 4.76.41 7.27 7.27 0 0 1 3.64 2.95 7.08 7.08 0 0 0-3.73-2.68 9.19 9.19 0 0 0-4.57-.13.28.28 0 1 1-.11-.54z"/><path d="M24.31 24.75a5.82 5.82 0 0 1 3.16.85 3.14 3.14 0 0 1 1 1.26 5.05 5.05 0 0 1 .4 1.56 3.62 3.62 0 0 0-1.59-2.59 5.38 5.38 0 0 0-3-.53.29.29 0 0 1-.28-.3.27.27 0 0 1 .27-.28z"/></g></svg>