<svg width="256" height="257" viewBox="0 0 256 257" fill="none" xmlns="http://www.w3.org/2000/svg">
<g clip-path="url(#clip0)">
<circle cx="128" cy="128.604" r="126.175" transform="rotate(-5.6583 128 128.604)" fill="#F9FAFB"/>
<path d="M208.101 226.092C188.82 241.934 165.274 251.703 140.44 254.164C107.14 257.463 73.8924 247.399 48.0124 226.185C22.1324 204.971 5.7396 174.345 2.44025 141.044C-0.0202017 116.211 4.93856 91.2056 16.6895 69.1905C28.4403 47.1753 46.4556 29.1391 68.4571 17.3627C90.4585 5.58618 115.458 0.59836 140.294 3.02994C165.131 5.46152 188.688 15.2033 207.988 31.0233L182.537 62.0717C169.378 51.2853 153.316 44.6432 136.382 42.9853C119.449 41.3274 102.404 44.7282 87.4025 52.7576C72.4015 60.7871 60.1184 73.0845 52.1064 88.0948C44.0945 103.105 40.7135 120.154 42.3911 137.086C44.6406 159.791 55.8175 180.672 73.463 195.136C91.1085 209.6 113.777 216.463 136.482 214.213C153.414 212.535 169.468 205.875 182.614 195.073L208.101 226.092Z" fill="url(#paint0_linear)"/>
<path d="M128 232.604C185.438 232.604 232 186.042 232 128.604C232 71.1664 185.438 24.604 128 24.604C70.5624 24.604 24 71.1664 24 128.604C24 186.042 70.5624 232.604 128 232.604Z" fill="white"/>
<path d="M140.629 126.446C143.596 124.863 145.453 122.074 145.019 117.428C144.435 111.079 139.202 108.95 132.596 108.343L132.595 99.5364H127.476L127.475 108.112C126.128 108.112 124.755 108.139 123.388 108.168L123.387 99.5375L118.273 99.537L118.272 108.342C117.164 108.365 116.076 108.388 115.013 108.388V108.362L107.953 108.359L107.954 114.083C107.954 114.083 111.734 114.009 111.671 114.081C113.744 114.083 114.42 115.344 114.615 116.432L114.617 126.465V140.558C114.525 141.24 114.141 142.332 112.692 142.334C112.758 142.394 108.969 142.333 108.969 142.333L107.954 148.734H114.614C115.854 148.736 117.074 148.756 118.27 148.766L118.274 157.673L123.387 157.674L123.386 148.861C124.792 148.891 126.15 148.904 127.476 148.902L127.475 157.674H132.593L132.596 148.782C141.2 148.265 147.223 145.994 147.972 137.53C148.576 130.716 145.514 127.674 140.629 126.446ZM123.511 114.47C126.397 114.47 135.476 113.507 135.478 119.824C135.476 125.88 126.4 125.173 123.511 125.173V114.47ZM123.508 142.377L123.511 130.576C126.979 130.575 137.858 129.531 137.859 136.474C137.861 143.133 126.979 142.374 123.508 142.377Z" fill="#657786"/>
<circle cx="128" cy="128.604" r="50.1188" stroke="#657786" stroke-width="8.019"/>
<circle cx="128" cy="128.604" r="66.1568" stroke="#283947" stroke-width="8.019"/>
<path d="M165.328 169.701L148.133 152.758M101.644 106.949L86.9028 92.5184M90.8181 169.701L108.013 152.758M154.502 106.949L169.098 92.5184" stroke="white" stroke-width="6.01425"/>
</g>
<defs>
<linearGradient id="paint0_linear" x1="96.4564" y1="15.5724" x2="136.022" y2="234.931" gradientUnits="userSpaceOnUse">
<stop stop-color="#27D3A2"/>
<stop offset="1" stop-color="#9388FD"/>
</linearGradient>
<clipPath id="clip0">
<rect y="0.604004" width="256" height="256" fill="white"/>
</clipPath>
</defs>
</svg>
