<svg width="256" height="257" viewBox="0 0 256 257" fill="none" xmlns="http://www.w3.org/2000/svg">
<g clip-path="url(#clip0)">
<circle cx="128" cy="128.604" r="126.175" transform="rotate(-5.6583 128 128.604)" fill="#F9FAFB"/>
<path d="M208.101 226.092C188.82 241.934 165.274 251.703 140.44 254.164C107.14 257.463 73.8924 247.399 48.0124 226.185C22.1324 204.971 5.7396 174.345 2.44025 141.044C-0.0202017 116.211 4.93856 91.2056 16.6895 69.1905C28.4403 47.1753 46.4556 29.1391 68.4571 17.3627C90.4585 5.58618 115.458 0.59836 140.294 3.02994C165.131 5.46152 188.688 15.2033 207.988 31.0233L182.537 62.0717C169.378 51.2853 153.316 44.6432 136.382 42.9853C119.449 41.3274 102.404 44.7282 87.4025 52.7576C72.4015 60.7871 60.1184 73.0845 52.1064 88.0948C44.0945 103.105 40.7135 120.154 42.3911 137.086C44.6406 159.791 55.8175 180.672 73.463 195.136C91.1085 209.6 113.777 216.463 136.482 214.213C153.414 212.535 169.468 205.875 182.614 195.073L208.101 226.092Z" fill="url(#paint0_linear)"/>
<path d="M128 232.604C185.438 232.604 232 186.042 232 128.604C232 71.1664 185.438 24.604 128 24.604C70.5624 24.604 24 71.1664 24 128.604C24 186.042 70.5624 232.604 128 232.604Z" fill="white"/>
<path fill-rule="evenodd" clip-rule="evenodd" d="M123.185 99.4657L90.0703 153.954L103.242 146.349C103.273 146.295 103.305 146.242 103.337 146.189L123.185 113.874V99.4657ZM160.345 161.469H96.3362L108.266 154.581H147.971C148.112 154.581 148.252 154.576 148.389 154.566L160.345 161.469ZM165.562 153.348L132.826 99.4832V113.887L152.393 145.746L165.562 153.348ZM132.708 80.7258C130.562 77.1952 125.438 77.1952 123.292 80.7258L73.4495 162.739C71.2183 166.411 73.8612 171.11 78.1573 171.11H177.843C182.139 171.11 184.782 166.411 182.55 162.739L132.708 80.7258ZM128.001 124.453L115.418 144.94H140.584L128.001 124.453Z" fill="#283947"/>
</g>
<defs>
<linearGradient id="paint0_linear" x1="96.4564" y1="15.5724" x2="136.022" y2="234.931" gradientUnits="userSpaceOnUse">
<stop stop-color="#27D3A2"/>
<stop offset="1" stop-color="#9388FD"/>
</linearGradient>
<clipPath id="clip0">
<rect y="0.604004" width="256" height="256" fill="white"/>
</clipPath>
</defs>
</svg>
