<svg width="256" height="257" viewBox="0 0 256 257" fill="none" xmlns="http://www.w3.org/2000/svg">
<g clip-path="url(#clip0)">
<circle cx="128" cy="128.604" r="126.175" transform="rotate(-5.6583 128 128.604)" fill="#F9FAFB"/>
<path d="M208.101 226.092C188.82 241.934 165.274 251.703 140.44 254.164C107.14 257.463 73.8924 247.399 48.0124 226.185C22.1324 204.971 5.7396 174.345 2.44025 141.044C-0.0202017 116.211 4.93856 91.2056 16.6895 69.1905C28.4403 47.1753 46.4556 29.1391 68.4571 17.3627C90.4585 5.58618 115.458 0.59836 140.294 3.02994C165.131 5.46152 188.688 15.2033 207.988 31.0233L182.537 62.0717C169.378 51.2853 153.316 44.6432 136.382 42.9853C119.449 41.3274 102.404 44.7282 87.4025 52.7576C72.4015 60.7871 60.1184 73.0845 52.1064 88.0948C44.0945 103.105 40.7135 120.154 42.3911 137.086C44.6406 159.791 55.8175 180.672 73.463 195.136C91.1085 209.6 113.777 216.463 136.482 214.213C153.414 212.535 169.468 205.875 182.614 195.073L208.101 226.092Z" fill="url(#paint0_linear)"/>
<path d="M128 232.604C185.438 232.604 232 186.042 232 128.604C232 71.1664 185.438 24.604 128 24.604C70.5624 24.604 24 71.1664 24 128.604C24 186.042 70.5624 232.604 128 232.604Z" fill="white"/>
<path d="M128.409 181.267L75.1855 126.815L128 146.058L180.814 126.815L128.409 181.267Z" fill="#657786"/>
<path fill-rule="evenodd" clip-rule="evenodd" d="M75.1857 126.814L128 74L180.814 126.814L128 146.057L75.1857 126.814ZM90.3337 127.225H113.261L128.409 112.077L143.557 127.225H166.075L128.409 89.559L90.3337 127.225Z" fill="#283947"/>
</g>
<defs>
<linearGradient id="paint0_linear" x1="96.4564" y1="15.5724" x2="136.022" y2="234.931" gradientUnits="userSpaceOnUse">
<stop stop-color="#27D3A2"/>
<stop offset="1" stop-color="#9388FD"/>
</linearGradient>
<clipPath id="clip0">
<rect y="0.604004" width="256" height="256" fill="white"/>
</clipPath>
</defs>
</svg>
