<svg width="256" height="257" viewBox="0 0 256 257" fill="none" xmlns="http://www.w3.org/2000/svg">
<g clip-path="url(#clip0)">
<circle cx="128" cy="128.604" r="126.175" transform="rotate(-5.6583 128 128.604)" fill="#F9FAFB"/>
<path d="M208.101 226.092C188.82 241.934 165.274 251.703 140.44 254.164C107.14 257.463 73.8924 247.399 48.0124 226.185C22.1324 204.971 5.7396 174.345 2.44025 141.044C-0.0202017 116.211 4.93856 91.2056 16.6895 69.1905C28.4403 47.1753 46.4556 29.1391 68.4571 17.3627C90.4585 5.58618 115.458 0.59836 140.294 3.02994C165.131 5.46152 188.688 15.2033 207.988 31.0233L182.537 62.0717C169.378 51.2853 153.316 44.6432 136.382 42.9853C119.449 41.3274 102.404 44.7282 87.4025 52.7576C72.4015 60.7871 60.1184 73.0845 52.1064 88.0948C44.0945 103.105 40.7135 120.154 42.3911 137.086C44.6406 159.791 55.8175 180.672 73.463 195.136C91.1085 209.6 113.777 216.463 136.482 214.213C153.414 212.535 169.468 205.875 182.614 195.073L208.101 226.092Z" fill="url(#paint0_linear)"/>
<path d="M128 232.604C185.438 232.604 232 186.042 232 128.604C232 71.1664 185.438 24.604 128 24.604C70.5624 24.604 24 71.1664 24 128.604C24 186.042 70.5624 232.604 128 232.604Z" fill="white"/>
<mask id="path-5-outside-1" maskUnits="userSpaceOnUse" x="78.8684" y="73" width="93" height="112" fill="black">
<rect fill="white" x="78.8684" y="73" width="93" height="112"/>
<path fill-rule="evenodd" clip-rule="evenodd" d="M144.936 130.156C143.751 126.707 141.72 123.661 139.068 121.304L138.053 120.442L137.996 120.384C137.658 120.097 137.319 119.867 136.981 119.637L136.924 119.58C136.586 119.35 136.247 119.12 135.852 118.89C135.796 118.89 135.796 118.833 135.739 118.833C135.401 118.603 135.006 118.43 134.667 118.258C134.611 118.258 134.611 118.2 134.555 118.2C134.216 118.028 133.821 117.855 133.426 117.683C133.37 117.683 133.37 117.626 133.313 117.626C132.975 117.511 132.636 117.338 132.298 117.223C131.395 116.878 130.436 116.591 129.477 116.419C128.743 117.855 127.728 119.12 126.599 120.212C128.348 120.327 130.041 120.787 131.564 121.419C132.467 121.821 133.37 122.281 134.16 122.799C134.216 122.799 134.272 122.856 134.272 122.856C134.498 122.971 134.667 123.143 134.893 123.316C135.006 123.373 135.062 123.431 135.175 123.546C135.344 123.661 135.57 123.833 135.739 124.006C135.852 124.121 135.965 124.178 136.078 124.293C136.247 124.465 136.416 124.58 136.586 124.753L136.924 125.098L137.376 125.557L137.714 125.902C137.827 126.075 137.996 126.247 138.109 126.362C138.222 126.477 138.335 126.65 138.448 126.764L138.786 127.282C138.899 127.454 139.012 127.569 139.068 127.742L139.407 128.259C139.52 128.431 139.576 128.604 139.689 128.719C139.802 128.891 139.858 129.064 139.971 129.236C140.084 129.408 140.14 129.581 140.253 129.753C140.309 129.926 140.422 130.098 140.479 130.271C140.592 130.501 140.648 130.73 140.761 130.903C141.212 132.052 141.551 133.259 141.72 134.581L142.228 136.593C142.453 137.455 144.485 144.812 149.224 147.284C154.64 150.158 161.806 153.722 164.627 155.101L127.446 177.747V162.228C127.446 159.757 132.241 156.883 134.442 155.906L134.555 155.848C135.006 155.618 135.457 155.388 135.909 155.101L136.078 154.986C137.037 154.411 137.94 153.722 138.786 152.974C138.842 152.917 138.955 152.859 139.012 152.744C139.125 152.687 139.181 152.572 139.294 152.514C139.576 152.285 139.802 151.997 140.084 151.767L140.197 151.652C140.479 151.365 140.761 151.078 140.986 150.733C141.043 150.618 141.156 150.56 141.212 150.445C141.438 150.215 141.607 149.928 141.833 149.641C141.889 149.583 141.946 149.468 142.002 149.411L142.679 148.376C142.679 148.319 142.736 148.319 142.736 148.261C143.018 147.801 143.3 147.284 143.582 146.824C142.453 145.445 141.607 143.95 140.93 142.571C140.648 143.433 140.253 144.295 139.858 145.042C139.689 145.387 139.463 145.732 139.294 146.077C139.237 146.134 139.237 146.192 139.181 146.192C139.012 146.479 138.786 146.767 138.617 146.997C138.56 147.054 138.504 147.169 138.448 147.227C138.278 147.514 138.053 147.744 137.827 147.974C137.77 148.031 137.771 148.089 137.714 148.089C136.36 149.641 134.724 150.963 132.862 151.882L132.523 152.055C131.564 152.457 123.27 156.308 123.27 162.113V177.632L86.0329 155.044C88.459 153.549 95.4552 149.296 101.21 147.456C103.467 146.709 108.263 149.813 110.971 152.055L111.14 152.227C111.479 152.572 111.874 152.917 112.268 153.204L112.381 153.319C113.228 154.009 114.13 154.699 115.146 155.216L115.823 155.561C115.879 155.561 115.936 155.618 115.936 155.618C116.556 155.963 117.177 156.251 117.854 156.538C117.967 156.595 118.023 156.595 118.136 156.653C118.193 156.653 118.249 156.71 118.362 156.71C119.321 157.055 120.28 157.343 121.239 157.573C121.973 156.136 123.045 154.871 124.173 153.779C122.537 153.664 121.014 153.319 119.547 152.744C119.49 152.687 119.377 152.687 119.321 152.629C119.152 152.572 118.982 152.514 118.813 152.4C118.757 152.342 118.644 152.342 118.588 152.285C118.418 152.227 118.249 152.112 118.136 152.055C117.008 151.48 115.992 150.848 115.033 150.043L113.566 148.663C113.51 148.606 111.704 146.939 109.165 145.445C105.498 143.318 102.395 142.628 100.025 143.376C95.1166 144.985 89.531 148.031 86.1458 150.043L123.327 81.9894V111.82C123.327 112.855 121.804 115.614 116.669 117.97L116.331 118.143C115.823 118.373 115.372 118.66 114.864 118.948L114.751 119.005C113.792 119.58 112.889 120.27 111.986 121.017C111.422 121.477 110.914 121.994 110.463 122.511L110.407 122.569C109.899 123.086 109.447 123.603 109.052 124.178L108.996 124.235C108.77 124.523 108.601 124.81 108.375 125.098C108.375 125.155 108.319 125.155 108.319 125.213C108.15 125.5 107.98 125.73 107.811 126.017C107.811 126.075 107.755 126.075 107.755 126.132L107.247 126.994C107.191 127.052 107.191 127.109 107.134 127.224C106.965 127.512 106.852 127.799 106.739 128.029C106.739 128.086 106.683 128.144 106.683 128.144C106.57 128.431 106.457 128.661 106.344 128.949C106.288 129.064 106.288 129.121 106.231 129.236L105.893 130.098C105.837 130.213 105.837 130.271 105.78 130.386C105.724 130.616 105.667 130.788 105.554 131.018C105.498 131.133 105.498 131.248 105.442 131.363C105.385 131.65 105.272 131.937 105.216 132.167C105.159 132.282 105.159 132.455 105.103 132.57C105.047 132.742 105.047 132.972 104.99 133.145C104.934 133.317 104.934 133.489 104.877 133.662C104.821 133.892 104.821 134.122 104.765 134.352C104.765 134.524 104.708 134.639 104.708 134.811C104.708 135.041 104.652 135.214 104.652 135.444C104.652 135.674 104.652 135.846 104.595 136.076V136.938C104.595 137.973 104.652 139.065 104.821 140.042C106.288 140.387 107.811 141.019 109.447 141.824C108.996 140.329 108.77 138.777 108.714 137.168V136.881C108.714 136.478 108.714 136.133 108.77 135.731V135.444C108.77 135.099 108.827 134.811 108.883 134.467V134.352C108.94 134.007 108.996 133.662 109.052 133.259C109.052 133.145 109.109 133.087 109.109 132.972C109.165 132.685 109.278 132.397 109.335 132.11C109.335 132.052 109.391 131.995 109.391 131.937L109.73 130.903C109.786 130.845 109.786 130.73 109.842 130.673C109.955 130.386 110.068 130.098 110.181 129.868C110.237 129.811 110.237 129.753 110.294 129.638C110.463 129.294 110.576 129.006 110.802 128.719C110.858 128.661 110.858 128.604 110.914 128.546C111.084 128.259 111.196 128.029 111.366 127.742C111.422 127.684 111.422 127.627 111.479 127.569C111.648 127.282 111.874 126.994 112.099 126.707C112.099 126.707 112.099 126.65 112.156 126.65C112.381 126.362 112.551 126.132 112.776 125.845C112.833 125.787 112.833 125.73 112.889 125.672C113.905 124.523 115.033 123.546 116.331 122.684L118.08 121.821C119.039 121.419 127.276 117.453 127.276 111.648V81.9894L164.796 150.618C161.467 148.951 155.543 145.962 150.973 143.548C148.321 142.169 146.572 137.283 146.064 135.501L145.557 133.432C145.557 132.34 145.274 131.248 144.936 130.156ZM170.325 151.767L128.969 76.1842C128.235 74.8047 126.881 74 125.358 74C123.835 74 122.481 74.8047 121.747 76.1842L80.3909 151.767C79.3189 153.722 79.9395 156.251 81.8578 157.4L123.27 182.633C123.947 183.035 124.681 183.208 125.414 183.208C126.148 183.208 126.881 183.035 127.558 182.633L168.915 157.458C170.776 156.251 171.454 153.722 170.325 151.767Z"/>
</mask>
<path fill-rule="evenodd" clip-rule="evenodd" d="M144.936 130.156C143.751 126.707 141.72 123.661 139.068 121.304L138.053 120.442L137.996 120.384C137.658 120.097 137.319 119.867 136.981 119.637L136.924 119.58C136.586 119.35 136.247 119.12 135.852 118.89C135.796 118.89 135.796 118.833 135.739 118.833C135.401 118.603 135.006 118.43 134.667 118.258C134.611 118.258 134.611 118.2 134.555 118.2C134.216 118.028 133.821 117.855 133.426 117.683C133.37 117.683 133.37 117.626 133.313 117.626C132.975 117.511 132.636 117.338 132.298 117.223C131.395 116.878 130.436 116.591 129.477 116.419C128.743 117.855 127.728 119.12 126.599 120.212C128.348 120.327 130.041 120.787 131.564 121.419C132.467 121.821 133.37 122.281 134.16 122.799C134.216 122.799 134.272 122.856 134.272 122.856C134.498 122.971 134.667 123.143 134.893 123.316C135.006 123.373 135.062 123.431 135.175 123.546C135.344 123.661 135.57 123.833 135.739 124.006C135.852 124.121 135.965 124.178 136.078 124.293C136.247 124.465 136.416 124.58 136.586 124.753L136.924 125.098L137.376 125.557L137.714 125.902C137.827 126.075 137.996 126.247 138.109 126.362C138.222 126.477 138.335 126.65 138.448 126.764L138.786 127.282C138.899 127.454 139.012 127.569 139.068 127.742L139.407 128.259C139.52 128.431 139.576 128.604 139.689 128.719C139.802 128.891 139.858 129.064 139.971 129.236C140.084 129.408 140.14 129.581 140.253 129.753C140.309 129.926 140.422 130.098 140.479 130.271C140.592 130.501 140.648 130.73 140.761 130.903C141.212 132.052 141.551 133.259 141.72 134.581L142.228 136.593C142.453 137.455 144.485 144.812 149.224 147.284C154.64 150.158 161.806 153.722 164.627 155.101L127.446 177.747V162.228C127.446 159.757 132.241 156.883 134.442 155.906L134.555 155.848C135.006 155.618 135.457 155.388 135.909 155.101L136.078 154.986C137.037 154.411 137.94 153.722 138.786 152.974C138.842 152.917 138.955 152.859 139.012 152.744C139.125 152.687 139.181 152.572 139.294 152.514C139.576 152.285 139.802 151.997 140.084 151.767L140.197 151.652C140.479 151.365 140.761 151.078 140.986 150.733C141.043 150.618 141.156 150.56 141.212 150.445C141.438 150.215 141.607 149.928 141.833 149.641C141.889 149.583 141.946 149.468 142.002 149.411L142.679 148.376C142.679 148.319 142.736 148.319 142.736 148.261C143.018 147.801 143.3 147.284 143.582 146.824C142.453 145.445 141.607 143.95 140.93 142.571C140.648 143.433 140.253 144.295 139.858 145.042C139.689 145.387 139.463 145.732 139.294 146.077C139.237 146.134 139.237 146.192 139.181 146.192C139.012 146.479 138.786 146.767 138.617 146.997C138.56 147.054 138.504 147.169 138.448 147.227C138.278 147.514 138.053 147.744 137.827 147.974C137.77 148.031 137.771 148.089 137.714 148.089C136.36 149.641 134.724 150.963 132.862 151.882L132.523 152.055C131.564 152.457 123.27 156.308 123.27 162.113V177.632L86.0329 155.044C88.459 153.549 95.4552 149.296 101.21 147.456C103.467 146.709 108.263 149.813 110.971 152.055L111.14 152.227C111.479 152.572 111.874 152.917 112.268 153.204L112.381 153.319C113.228 154.009 114.13 154.699 115.146 155.216L115.823 155.561C115.879 155.561 115.936 155.618 115.936 155.618C116.556 155.963 117.177 156.251 117.854 156.538C117.967 156.595 118.023 156.595 118.136 156.653C118.193 156.653 118.249 156.71 118.362 156.71C119.321 157.055 120.28 157.343 121.239 157.573C121.973 156.136 123.045 154.871 124.173 153.779C122.537 153.664 121.014 153.319 119.547 152.744C119.49 152.687 119.377 152.687 119.321 152.629C119.152 152.572 118.982 152.514 118.813 152.4C118.757 152.342 118.644 152.342 118.588 152.285C118.418 152.227 118.249 152.112 118.136 152.055C117.008 151.48 115.992 150.848 115.033 150.043L113.566 148.663C113.51 148.606 111.704 146.939 109.165 145.445C105.498 143.318 102.395 142.628 100.025 143.376C95.1166 144.985 89.531 148.031 86.1458 150.043L123.327 81.9894V111.82C123.327 112.855 121.804 115.614 116.669 117.97L116.331 118.143C115.823 118.373 115.372 118.66 114.864 118.948L114.751 119.005C113.792 119.58 112.889 120.27 111.986 121.017C111.422 121.477 110.914 121.994 110.463 122.511L110.407 122.569C109.899 123.086 109.447 123.603 109.052 124.178L108.996 124.235C108.77 124.523 108.601 124.81 108.375 125.098C108.375 125.155 108.319 125.155 108.319 125.213C108.15 125.5 107.98 125.73 107.811 126.017C107.811 126.075 107.755 126.075 107.755 126.132L107.247 126.994C107.191 127.052 107.191 127.109 107.134 127.224C106.965 127.512 106.852 127.799 106.739 128.029C106.739 128.086 106.683 128.144 106.683 128.144C106.57 128.431 106.457 128.661 106.344 128.949C106.288 129.064 106.288 129.121 106.231 129.236L105.893 130.098C105.837 130.213 105.837 130.271 105.78 130.386C105.724 130.616 105.667 130.788 105.554 131.018C105.498 131.133 105.498 131.248 105.442 131.363C105.385 131.65 105.272 131.937 105.216 132.167C105.159 132.282 105.159 132.455 105.103 132.57C105.047 132.742 105.047 132.972 104.99 133.145C104.934 133.317 104.934 133.489 104.877 133.662C104.821 133.892 104.821 134.122 104.765 134.352C104.765 134.524 104.708 134.639 104.708 134.811C104.708 135.041 104.652 135.214 104.652 135.444C104.652 135.674 104.652 135.846 104.595 136.076V136.938C104.595 137.973 104.652 139.065 104.821 140.042C106.288 140.387 107.811 141.019 109.447 141.824C108.996 140.329 108.77 138.777 108.714 137.168V136.881C108.714 136.478 108.714 136.133 108.77 135.731V135.444C108.77 135.099 108.827 134.811 108.883 134.467V134.352C108.94 134.007 108.996 133.662 109.052 133.259C109.052 133.145 109.109 133.087 109.109 132.972C109.165 132.685 109.278 132.397 109.335 132.11C109.335 132.052 109.391 131.995 109.391 131.937L109.73 130.903C109.786 130.845 109.786 130.73 109.842 130.673C109.955 130.386 110.068 130.098 110.181 129.868C110.237 129.811 110.237 129.753 110.294 129.638C110.463 129.294 110.576 129.006 110.802 128.719C110.858 128.661 110.858 128.604 110.914 128.546C111.084 128.259 111.196 128.029 111.366 127.742C111.422 127.684 111.422 127.627 111.479 127.569C111.648 127.282 111.874 126.994 112.099 126.707C112.099 126.707 112.099 126.65 112.156 126.65C112.381 126.362 112.551 126.132 112.776 125.845C112.833 125.787 112.833 125.73 112.889 125.672C113.905 124.523 115.033 123.546 116.331 122.684L118.08 121.821C119.039 121.419 127.276 117.453 127.276 111.648V81.9894L164.796 150.618C161.467 148.951 155.543 145.962 150.973 143.548C148.321 142.169 146.572 137.283 146.064 135.501L145.557 133.432C145.557 132.34 145.274 131.248 144.936 130.156ZM170.325 151.767L128.969 76.1842C128.235 74.8047 126.881 74 125.358 74C123.835 74 122.481 74.8047 121.747 76.1842L80.3909 151.767C79.3189 153.722 79.9395 156.251 81.8578 157.4L123.27 182.633C123.947 183.035 124.681 183.208 125.414 183.208C126.148 183.208 126.881 183.035 127.558 182.633L168.915 157.458C170.776 156.251 171.454 153.722 170.325 151.767Z" fill="#283947"/>
<path fill-rule="evenodd" clip-rule="evenodd" d="M144.936 130.156C143.751 126.707 141.72 123.661 139.068 121.304L138.053 120.442L137.996 120.384C137.658 120.097 137.319 119.867 136.981 119.637L136.924 119.58C136.586 119.35 136.247 119.12 135.852 118.89C135.796 118.89 135.796 118.833 135.739 118.833C135.401 118.603 135.006 118.43 134.667 118.258C134.611 118.258 134.611 118.2 134.555 118.2C134.216 118.028 133.821 117.855 133.426 117.683C133.37 117.683 133.37 117.626 133.313 117.626C132.975 117.511 132.636 117.338 132.298 117.223C131.395 116.878 130.436 116.591 129.477 116.419C128.743 117.855 127.728 119.12 126.599 120.212C128.348 120.327 130.041 120.787 131.564 121.419C132.467 121.821 133.37 122.281 134.16 122.799C134.216 122.799 134.272 122.856 134.272 122.856C134.498 122.971 134.667 123.143 134.893 123.316C135.006 123.373 135.062 123.431 135.175 123.546C135.344 123.661 135.57 123.833 135.739 124.006C135.852 124.121 135.965 124.178 136.078 124.293C136.247 124.465 136.416 124.58 136.586 124.753L136.924 125.098L137.376 125.557L137.714 125.902C137.827 126.075 137.996 126.247 138.109 126.362C138.222 126.477 138.335 126.65 138.448 126.764L138.786 127.282C138.899 127.454 139.012 127.569 139.068 127.742L139.407 128.259C139.52 128.431 139.576 128.604 139.689 128.719C139.802 128.891 139.858 129.064 139.971 129.236C140.084 129.408 140.14 129.581 140.253 129.753C140.309 129.926 140.422 130.098 140.479 130.271C140.592 130.501 140.648 130.73 140.761 130.903C141.212 132.052 141.551 133.259 141.72 134.581L142.228 136.593C142.453 137.455 144.485 144.812 149.224 147.284C154.64 150.158 161.806 153.722 164.627 155.101L127.446 177.747V162.228C127.446 159.757 132.241 156.883 134.442 155.906L134.555 155.848C135.006 155.618 135.457 155.388 135.909 155.101L136.078 154.986C137.037 154.411 137.94 153.722 138.786 152.974C138.842 152.917 138.955 152.859 139.012 152.744C139.125 152.687 139.181 152.572 139.294 152.514C139.576 152.285 139.802 151.997 140.084 151.767L140.197 151.652C140.479 151.365 140.761 151.078 140.986 150.733C141.043 150.618 141.156 150.56 141.212 150.445C141.438 150.215 141.607 149.928 141.833 149.641C141.889 149.583 141.946 149.468 142.002 149.411L142.679 148.376C142.679 148.319 142.736 148.319 142.736 148.261C143.018 147.801 143.3 147.284 143.582 146.824C142.453 145.445 141.607 143.95 140.93 142.571C140.648 143.433 140.253 144.295 139.858 145.042C139.689 145.387 139.463 145.732 139.294 146.077C139.237 146.134 139.237 146.192 139.181 146.192C139.012 146.479 138.786 146.767 138.617 146.997C138.56 147.054 138.504 147.169 138.448 147.227C138.278 147.514 138.053 147.744 137.827 147.974C137.77 148.031 137.771 148.089 137.714 148.089C136.36 149.641 134.724 150.963 132.862 151.882L132.523 152.055C131.564 152.457 123.27 156.308 123.27 162.113V177.632L86.0329 155.044C88.459 153.549 95.4552 149.296 101.21 147.456C103.467 146.709 108.263 149.813 110.971 152.055L111.14 152.227C111.479 152.572 111.874 152.917 112.268 153.204L112.381 153.319C113.228 154.009 114.13 154.699 115.146 155.216L115.823 155.561C115.879 155.561 115.936 155.618 115.936 155.618C116.556 155.963 117.177 156.251 117.854 156.538C117.967 156.595 118.023 156.595 118.136 156.653C118.193 156.653 118.249 156.71 118.362 156.71C119.321 157.055 120.28 157.343 121.239 157.573C121.973 156.136 123.045 154.871 124.173 153.779C122.537 153.664 121.014 153.319 119.547 152.744C119.49 152.687 119.377 152.687 119.321 152.629C119.152 152.572 118.982 152.514 118.813 152.4C118.757 152.342 118.644 152.342 118.588 152.285C118.418 152.227 118.249 152.112 118.136 152.055C117.008 151.48 115.992 150.848 115.033 150.043L113.566 148.663C113.51 148.606 111.704 146.939 109.165 145.445C105.498 143.318 102.395 142.628 100.025 143.376C95.1166 144.985 89.531 148.031 86.1458 150.043L123.327 81.9894V111.82C123.327 112.855 121.804 115.614 116.669 117.97L116.331 118.143C115.823 118.373 115.372 118.66 114.864 118.948L114.751 119.005C113.792 119.58 112.889 120.27 111.986 121.017C111.422 121.477 110.914 121.994 110.463 122.511L110.407 122.569C109.899 123.086 109.447 123.603 109.052 124.178L108.996 124.235C108.77 124.523 108.601 124.81 108.375 125.098C108.375 125.155 108.319 125.155 108.319 125.213C108.15 125.5 107.98 125.73 107.811 126.017C107.811 126.075 107.755 126.075 107.755 126.132L107.247 126.994C107.191 127.052 107.191 127.109 107.134 127.224C106.965 127.512 106.852 127.799 106.739 128.029C106.739 128.086 106.683 128.144 106.683 128.144C106.57 128.431 106.457 128.661 106.344 128.949C106.288 129.064 106.288 129.121 106.231 129.236L105.893 130.098C105.837 130.213 105.837 130.271 105.78 130.386C105.724 130.616 105.667 130.788 105.554 131.018C105.498 131.133 105.498 131.248 105.442 131.363C105.385 131.65 105.272 131.937 105.216 132.167C105.159 132.282 105.159 132.455 105.103 132.57C105.047 132.742 105.047 132.972 104.99 133.145C104.934 133.317 104.934 133.489 104.877 133.662C104.821 133.892 104.821 134.122 104.765 134.352C104.765 134.524 104.708 134.639 104.708 134.811C104.708 135.041 104.652 135.214 104.652 135.444C104.652 135.674 104.652 135.846 104.595 136.076V136.938C104.595 137.973 104.652 139.065 104.821 140.042C106.288 140.387 107.811 141.019 109.447 141.824C108.996 140.329 108.77 138.777 108.714 137.168V136.881C108.714 136.478 108.714 136.133 108.77 135.731V135.444C108.77 135.099 108.827 134.811 108.883 134.467V134.352C108.94 134.007 108.996 133.662 109.052 133.259C109.052 133.145 109.109 133.087 109.109 132.972C109.165 132.685 109.278 132.397 109.335 132.11C109.335 132.052 109.391 131.995 109.391 131.937L109.73 130.903C109.786 130.845 109.786 130.73 109.842 130.673C109.955 130.386 110.068 130.098 110.181 129.868C110.237 129.811 110.237 129.753 110.294 129.638C110.463 129.294 110.576 129.006 110.802 128.719C110.858 128.661 110.858 128.604 110.914 128.546C111.084 128.259 111.196 128.029 111.366 127.742C111.422 127.684 111.422 127.627 111.479 127.569C111.648 127.282 111.874 126.994 112.099 126.707C112.099 126.707 112.099 126.65 112.156 126.65C112.381 126.362 112.551 126.132 112.776 125.845C112.833 125.787 112.833 125.73 112.889 125.672C113.905 124.523 115.033 123.546 116.331 122.684L118.08 121.821C119.039 121.419 127.276 117.453 127.276 111.648V81.9894L164.796 150.618C161.467 148.951 155.543 145.962 150.973 143.548C148.321 142.169 146.572 137.283 146.064 135.501L145.557 133.432C145.557 132.34 145.274 131.248 144.936 130.156ZM170.325 151.767L128.969 76.1842C128.235 74.8047 126.881 74 125.358 74C123.835 74 122.481 74.8047 121.747 76.1842L80.3909 151.767C79.3189 153.722 79.9395 156.251 81.8578 157.4L123.27 182.633C123.947 183.035 124.681 183.208 125.414 183.208C126.148 183.208 126.881 183.035 127.558 182.633L168.915 157.458C170.776 156.251 171.454 153.722 170.325 151.767Z" stroke="#283947" stroke-width="1.6" mask="url(#path-5-outside-1)"/>
</g>
<defs>
<linearGradient id="paint0_linear" x1="96.4564" y1="15.5724" x2="136.022" y2="234.931" gradientUnits="userSpaceOnUse">
<stop stop-color="#27D3A2"/>
<stop offset="1" stop-color="#9388FD"/>
</linearGradient>
<clipPath id="clip0">
<rect y="0.604004" width="256" height="256" fill="white"/>
</clipPath>
</defs>
</svg>
