<svg width="256" height="257" viewBox="0 0 256 257" fill="none" xmlns="http://www.w3.org/2000/svg">
<g clip-path="url(#clip0)">
<circle cx="128" cy="128.604" r="126.175" transform="rotate(-5.6583 128 128.604)" fill="#F9FAFB"/>
<path d="M208.101 226.092C188.82 241.934 165.274 251.703 140.44 254.164C107.14 257.463 73.8924 247.399 48.0124 226.185C22.1324 204.971 5.7396 174.345 2.44025 141.044C-0.0202017 116.211 4.93856 91.2056 16.6895 69.1905C28.4403 47.1753 46.4556 29.1391 68.4571 17.3627C90.4585 5.58618 115.458 0.59836 140.294 3.02994C165.131 5.46152 188.688 15.2033 207.988 31.0233L182.537 62.0717C169.378 51.2853 153.316 44.6432 136.382 42.9853C119.449 41.3274 102.404 44.7282 87.4025 52.7576C72.4015 60.7871 60.1184 73.0845 52.1064 88.0948C44.0945 103.105 40.7135 120.154 42.3911 137.086C44.6406 159.791 55.8175 180.672 73.463 195.136C91.1085 209.6 113.777 216.463 136.482 214.213C153.414 212.535 169.468 205.875 182.614 195.073L208.101 226.092Z" fill="url(#paint0_linear)"/>
<path d="M128 232.604C185.438 232.604 232 186.042 232 128.604C232 71.1664 185.438 24.604 128 24.604C70.5624 24.604 24 71.1664 24 128.604C24 186.042 70.5624 232.604 128 232.604Z" fill="white"/>
<path d="M184.635 111.849H172.893C166.429 93.9064 149.047 81.604 126.125 81.604H88.4258V111.849H75.3318V122.7H88.4258V134.079H75.3318V144.93H88.4258V174.812H126.125C148.783 174.812 166.033 162.609 172.663 144.93H184.635V134.079H175.301C175.532 132.166 175.664 130.187 175.664 128.208V127.944C175.664 126.163 175.565 124.415 175.4 122.7H184.668V111.849H184.635ZM98.9801 91.2678H126.125C142.946 91.2678 155.446 99.5464 161.218 111.816H98.9801V91.2678ZM126.125 165.049H98.9801V144.897H161.152C155.347 156.969 142.88 165.049 126.125 165.049ZM164.747 128.439C164.747 130.352 164.615 132.232 164.351 134.046H98.9801V122.667H164.384C164.615 124.448 164.747 126.295 164.747 128.175V128.439Z" fill="url(#paint1_linear)"/>
</g>
<defs>
<linearGradient id="paint0_linear" x1="96.4564" y1="15.5724" x2="136.022" y2="234.931" gradientUnits="userSpaceOnUse">
<stop stop-color="#27D3A2"/>
<stop offset="1" stop-color="#9388FD"/>
</linearGradient>
<linearGradient id="paint1_linear" x1="130" y1="68.3995" x2="130" y2="184.599" gradientUnits="userSpaceOnUse">
<stop stop-color="#283947"/>
<stop offset="1" stop-color="#657786"/>
</linearGradient>
<clipPath id="clip0">
<rect y="0.604004" width="256" height="256" fill="white"/>
</clipPath>
</defs>
</svg>
