<?xml version="1.0" encoding="UTF-8"?>
<svg width="66.768mm" height="66.768mm" version="1.1" viewBox="0 0 66.768 66.768" xmlns="http://www.w3.org/2000/svg"><defs><clipPath id="clip0"><rect y=".604" width="256" height="256" fill="#fff"/></clipPath><linearGradient id="paint0_linear" x1="96.456" x2="136.02" y1="15.572" y2="234.93" gradientUnits="userSpaceOnUse"><stop stop-color="#27D3A2" offset="0"/><stop stop-color="#9388FD" offset="1"/></linearGradient></defs><g transform="translate(-74.694 -110.64)"><g transform="matrix(.26458 0 0 .26458 74.211 109.99)" clip-path="url(#clip0)"><circle transform="rotate(-5.6583 128 128.6)" cx="128" cy="128.6" r="126.18" fill="#f9fafb"/><path d="m208.1 226.09c-19.281 15.842-42.827 25.611-67.661 28.072-33.3 3.299-66.548-6.765-92.428-27.979s-42.273-51.84-45.572-85.141c-2.4605-24.833 2.4983-49.838 14.249-71.854 11.751-22.015 29.766-40.051 51.768-51.828 22.001-11.777 47.001-16.764 71.837-14.333 24.837 2.4316 48.394 12.173 67.694 27.993l-25.451 31.048c-13.159-10.786-29.221-17.428-46.155-19.086-16.933-1.6579-33.978 1.7429-48.98 9.7723-15.001 8.0295-27.284 20.327-35.296 35.337-8.0119 15.01-11.393 32.059-9.7153 48.991 2.2495 22.705 13.426 43.586 31.072 58.05s40.314 21.327 63.019 19.077c16.932-1.678 32.986-8.338 46.132-19.14z" fill="url(#paint0_linear)"/><path d="m128 232.6c57.438 0 104-46.562 104-104 0-57.438-46.562-104-104-104-57.438 0-104 46.562-104 104 0 57.438 46.562 104 104 104z" fill="#fff"/><path d="m80.03 166.75a11.455 11.455 0 0 1-5.4812-9.7607v-22.211a4.7752 4.7752 0 0 1 7.181-4.1146l50.13 29.229a9.5504 9.5504 0 0 1 4.7388 8.2429v23.016a5.7223 5.7223 0 0 1-8.7159 4.8889zm74.726-42.175a9.5504 9.5504 0 0 1 4.7366 8.244v46.7a3.8031 3.8031 0 0 1-1.9431 3.3233l-10.976 6.1793a2.2421 2.2421 0 0 1-0.44111 0.183v-25.93a9.5652 9.5651 0 0 0-4.6456-8.1997l-44.023-26.335v-29.275a4.7752 4.7752 0 0 1 7.181-4.1146zm21.943-34.493a9.5379 9.5379 0 0 1 4.7513 8.2588v68.217a3.8293 3.8292 0 0 1-2.0124 3.3506l-10.399 5.6165v-47.488a9.5595 9.5595 0 0 0-4.6308-8.186l-45.002-26.99v-27.768a4.8798 4.8798 0 0 1 0.63784-2.399 4.782 4.782 0 0 1 6.5284-1.7304z" fill="#283947" fill-rule="evenodd" stroke-width=".1137"/></g></g></svg>
