<svg width="256" height="257" viewBox="0 0 256 257" fill="none" xmlns="http://www.w3.org/2000/svg">
<g clip-path="url(#clip0)">
<circle cx="128" cy="128.604" r="126.175" transform="rotate(-5.6583 128 128.604)" fill="#F9FAFB"/>
<path d="M208.101 226.092C188.82 241.934 165.274 251.703 140.44 254.164C107.14 257.463 73.8924 247.399 48.0124 226.185C22.1324 204.971 5.7396 174.345 2.44025 141.044C-0.0202017 116.211 4.93856 91.2056 16.6895 69.1905C28.4403 47.1753 46.4556 29.1391 68.4571 17.3627C90.4585 5.58618 115.458 0.59836 140.294 3.02994C165.131 5.46152 188.688 15.2033 207.988 31.0233L182.537 62.0717C169.378 51.2853 153.316 44.6432 136.382 42.9853C119.449 41.3274 102.404 44.7282 87.4025 52.7576C72.4015 60.7871 60.1184 73.0845 52.1064 88.0948C44.0945 103.105 40.7135 120.154 42.3911 137.086C44.6406 159.791 55.8175 180.672 73.463 195.136C91.1085 209.6 113.777 216.463 136.482 214.213C153.414 212.535 169.468 205.875 182.614 195.073L208.101 226.092Z" fill="url(#paint0_linear)"/>
<path d="M128 232.604C185.438 232.604 232 186.042 232 128.604C232 71.1664 185.438 24.604 128 24.604C70.5624 24.604 24 71.1664 24 128.604C24 186.042 70.5624 232.604 128 232.604Z" fill="white"/>
<path d="M148.648 139.587C148.648 128.545 141.808 124.823 128.576 123.041C118.797 121.653 116.918 119.397 116.918 114.918C116.918 110.438 120.226 107.646 126.553 107.646C132.318 107.646 135.642 109.618 137.006 114.176C137.151 114.675 137.456 115.115 137.876 115.43C138.295 115.746 138.807 115.92 139.335 115.927H144.393C144.723 115.934 145.051 115.869 145.353 115.737C145.655 115.605 145.924 115.409 146.14 115.164C146.356 114.918 146.515 114.629 146.604 114.317C146.693 114.004 146.712 113.676 146.657 113.356C145.051 106.148 140.106 101.81 132.35 100.454V92.8512C132.35 92.2237 132.096 91.6219 131.644 91.1782C131.192 90.7345 130.58 90.4852 129.941 90.4852H125.124C124.485 90.4852 123.872 90.7345 123.421 91.1782C122.969 91.6219 122.715 92.2237 122.715 92.8512V100.186C113.08 101.511 106.994 107.757 106.994 115.769C106.994 126.132 113.418 130.154 126.842 131.937C135.979 133.404 138.58 135.344 138.58 140.438C138.58 145.533 134.164 148.956 127.934 148.956C119.536 148.956 116.693 145.344 115.746 140.659C115.636 140.122 115.341 139.637 114.912 139.287C114.482 138.937 113.944 138.742 113.385 138.735H107.894C107.566 138.733 107.242 138.801 106.944 138.935C106.646 139.069 106.381 139.265 106.169 139.51C105.956 139.755 105.8 140.043 105.713 140.353C105.625 140.663 105.608 140.988 105.662 141.306C107.059 149.192 112.213 154.965 122.715 156.353V163.83C122.715 164.457 122.969 165.059 123.421 165.503C123.872 165.946 124.485 166.196 125.124 166.196H129.941C130.58 166.196 131.192 165.946 131.644 165.503C132.096 165.059 132.35 164.457 132.35 163.83V156.353C142.306 154.807 148.648 148.057 148.648 139.587Z" fill="#283947"/>
<path d="M112.174 173.568C102.994 170.247 95.066 164.209 89.4644 156.273C83.8629 148.337 80.8586 138.886 80.8586 129.202C80.8586 119.517 83.8629 110.067 89.4644 102.131C95.066 94.1948 102.994 88.1569 112.174 84.835C112.763 84.579 113.267 84.1643 113.63 83.6383C113.992 83.1122 114.198 82.4958 114.224 81.8594V77.4511C114.262 77.0607 114.196 76.6672 114.032 76.3102C113.868 75.9532 113.613 75.6452 113.291 75.417C112.969 75.1889 112.592 75.0488 112.198 75.0106C111.804 74.9725 111.407 75.0377 111.046 75.1997C99.4853 78.8509 89.3956 86.0507 82.2358 95.7582C75.0761 105.466 71.2173 117.178 71.2173 129.202C71.2173 141.225 75.0761 152.938 82.2358 162.645C89.3956 172.353 99.4853 179.553 111.046 183.204C111.407 183.366 111.804 183.431 112.198 183.393C112.592 183.355 112.969 183.215 113.291 182.986C113.613 182.758 113.868 182.45 114.032 182.093C114.196 181.736 114.262 181.343 114.224 180.952V176.544C114.198 175.908 113.992 175.291 113.63 174.765C113.267 174.239 112.763 173.824 112.174 173.568Z" fill="#657786"/>
<path d="M144.954 75.1997C144.593 75.0377 144.196 74.9725 143.802 75.0106C143.408 75.0488 143.031 75.1889 142.709 75.417C142.387 75.6452 142.132 75.9532 141.968 76.3102C141.804 76.6672 141.738 77.0607 141.776 77.4511V81.8594C141.802 82.4958 142.008 83.1122 142.37 83.6383C142.733 84.1643 143.237 84.579 143.826 84.835C153.006 88.1569 160.934 94.1948 166.536 102.131C172.137 110.067 175.141 119.517 175.141 129.202C175.141 138.886 172.137 148.337 166.536 156.273C160.934 164.209 153.006 170.247 143.826 173.568C143.218 173.797 142.695 174.205 142.329 174.737C141.962 175.269 141.769 175.9 141.776 176.544V180.952C141.738 181.343 141.804 181.736 141.968 182.093C142.132 182.45 142.387 182.758 142.709 182.986C143.031 183.215 143.408 183.355 143.802 183.393C144.196 183.431 144.593 183.366 144.954 183.204C156.515 179.553 166.604 172.353 173.764 162.645C180.924 152.938 184.783 141.225 184.783 129.202C184.783 117.178 180.924 105.466 173.764 95.7582C166.604 86.0507 156.515 78.8509 144.954 75.1997Z" fill="#657786"/>
</g>
<defs>
<linearGradient id="paint0_linear" x1="96.4564" y1="15.5724" x2="136.022" y2="234.931" gradientUnits="userSpaceOnUse">
<stop stop-color="#27D3A2"/>
<stop offset="1" stop-color="#9388FD"/>
</linearGradient>
<clipPath id="clip0">
<rect y="0.604004" width="256" height="256" fill="white"/>
</clipPath>
</defs>
</svg>
