<svg width="256" height="257" viewBox="0 0 256 257" fill="none" xmlns="http://www.w3.org/2000/svg">
<g clip-path="url(#clip0)">
<circle cx="128" cy="128.604" r="126.175" transform="rotate(-5.6583 128 128.604)" fill="#F9FAFB"/>
<path d="M208.101 226.092C188.82 241.934 165.274 251.703 140.44 254.164C107.14 257.463 73.8924 247.399 48.0124 226.185C22.1324 204.971 5.7396 174.345 2.44025 141.044C-0.0202017 116.211 4.93856 91.2056 16.6895 69.1905C28.4403 47.1753 46.4556 29.1391 68.4571 17.3627C90.4585 5.58618 115.458 0.59836 140.294 3.02994C165.131 5.46152 188.688 15.2033 207.988 31.0233L182.537 62.0717C169.378 51.2853 153.316 44.6432 136.382 42.9853C119.449 41.3274 102.404 44.7282 87.4025 52.7576C72.4015 60.7871 60.1184 73.0845 52.1064 88.0948C44.0945 103.105 40.7135 120.154 42.3911 137.086C44.6406 159.791 55.8175 180.672 73.463 195.136C91.1085 209.6 113.777 216.463 136.482 214.213C153.414 212.535 169.468 205.875 182.614 195.073L208.101 226.092Z" fill="url(#paint0_linear)"/>
<path d="M128 232.604C185.438 232.604 232 186.042 232 128.604C232 71.1664 185.438 24.604 128 24.604C70.5624 24.604 24 71.1664 24 128.604C24 186.042 70.5624 232.604 128 232.604Z" fill="white"/>
<path d="M97.619 141.966L105.462 133.783L95.7114 120.516L83.2966 102.803C78.9107 110.351 76.3961 119.136 76.3961 128.516C76.3961 144.054 83.2966 157.965 94.18 167.308L109.939 156.079C104.578 152.711 100.26 147.809 97.619 141.966Z" fill="#283947"/>
<path d="M114.639 98.2229L122.822 106.066L136.089 96.3154L153.802 83.9006C146.254 79.5146 137.469 77 128.089 77C112.551 77 98.6399 83.9006 89.297 94.784L100.527 110.543C103.894 105.182 108.796 100.864 114.639 98.2229Z" fill="#283947"/>
<path d="M150.538 123.426L160.289 136.693L172.703 154.406C177.089 146.858 179.604 138.073 179.604 128.693C179.604 113.155 172.703 99.2438 161.82 89.9009L146.061 101.131C151.421 104.498 155.739 109.4 158.381 115.243L150.538 123.426Z" fill="#283947"/>
<path d="M166.703 162.425L155.473 146.666C152.106 152.026 147.204 156.344 141.361 158.985L133.178 151.142L119.911 160.893L102.198 173.307C109.745 177.693 118.531 180.208 127.91 180.208C143.448 180.208 157.36 173.307 166.703 162.425Z" fill="#283947"/>
</g>
<defs>
<linearGradient id="paint0_linear" x1="96.4564" y1="15.5724" x2="136.022" y2="234.931" gradientUnits="userSpaceOnUse">
<stop stop-color="#27D3A2"/>
<stop offset="1" stop-color="#9388FD"/>
</linearGradient>
<clipPath id="clip0">
<rect y="0.604004" width="256" height="256" fill="white"/>
</clipPath>
</defs>
</svg>
