<?xml version="1.0" encoding="utf-8"?>
<!-- Generator: Adobe Illustrator 22.1.0, SVG Export Plug-In . SVG Version: 6.00 Build 0)  -->
<svg version="1.1" id="Layer_1" xmlns="http://www.w3.org/2000/svg" xmlns:xlink="http://www.w3.org/1999/xlink" x="0px" y="0px"
	 viewBox="0 0 50 50" style="enable-background:new 0 0 50 50;" xml:space="preserve">
<style type="text/css">
	.st0{display:none;fill:#FFFFFF;}
	.st1{clip-path:url(#SVGID_2_);}
	.st2{clip-path:url(#SVGID_4_);}
	.st3{clip-path:url(#SVGID_6_);}
	.st4{clip-path:url(#SVGID_6_);fill:#FFFFFF;}
</style>
<ellipse class="st0" cx="25" cy="25" rx="24.9" ry="25"/>
<g>
	<defs>
		<circle id="SVGID_1_" cx="25" cy="25" r="25"/>
	</defs>
	<clipPath id="SVGID_2_">
		<use xlink:href="#SVGID_1_"  style="overflow:visible;"/>
	</clipPath>
	<g class="st1">
		<g>
			<g>
				<defs>
					<rect id="SVGID_3_" x="-21.8" y="-1.3" width="93.7" height="52.6"/>
				</defs>
				<clipPath id="SVGID_4_">
					<use xlink:href="#SVGID_3_"  style="overflow:visible;"/>
				</clipPath>
				<g class="st2">
					<defs>
						<rect id="SVGID_5_" x="-21.8" y="-1.3" width="93.7" height="52.6"/>
					</defs>
					<clipPath id="SVGID_6_">
						<use xlink:href="#SVGID_5_"  style="overflow:visible;"/>
					</clipPath>
					<path class="st3" d="M50.2,25.2c-0.1,14-11.5,25.2-25.4,25.1c-6.9,0-13.1-2.8-17.6-7.4c-4.6-4.6-7.5-11-7.4-18.1
						c0.1-14,11.5-25.2,25.4-25.1S50.3,11.2,50.2,25.2"/>
					<path class="st4" d="M12.9,33.6l-5.6,9.5c0,0,2.3,3.1,8.8,5.6l3.2-8.7l2.2-5.8l2.2-6.5c0,0,0.8-2.1,0.8-2.1l0.1-0.2
						c0,0,0-0.1,0.1-0.1l0.1-0.1l0,0c0,0,0,0,0.1,0l0.1,0l0.1,0l0.1,0.2l0.2,0.6l0.4,1.2l1.5,4.6l1.3,4.1l2.1,6.3l1.6,4.4L33,49
						c0,0,5.1-1.4,9.4-5.7l-3.1-4.7l-2-3.5l-2.1-4l-1.7-3.5l-1.4-3.2L31,21.1L30,18l-1.1-3.5l-1.1-3.7l-1-3.7l-1.1-4.1L25,0.8
						l-1.2,3.9l-1.7,5.5l-1.3,4.1L19.2,19l-1.3,3.8l-1.5,3.6l-1.6,3.5L12.9,33.6z"/>
				</g>
			</g>
		</g>
	</g>
</g>
</svg>
