<?xml version="1.0" encoding="utf-8"?>
<!-- Generator: Adobe Illustrator 17.0.0, SVG Export Plug-In . SVG Version: 6.00 Build 0)  -->
<!DOCTYPE svg PUBLIC "-//W3C//DTD SVG 1.0//EN" "http://www.w3.org/TR/2001/REC-SVG-20010904/DTD/svg10.dtd">
<svg version="1.0" id="Layer_1" xmlns="http://www.w3.org/2000/svg" xmlns:xlink="http://www.w3.org/1999/xlink" x="0px" y="0px"
	 width="425.197px" height="425.197px" viewBox="0 0 425.197 425.197" enable-background="new 0 0 425.197 425.197"
	 xml:space="preserve">
<circle fill="#EAA422" cx="213.923" cy="212.598" r="204.999"/>
<path fill="#FFFFFF" d="M113.357,190.89c12.571,15.343,33.985,25.448,58.295,25.448c4.57,0,9.04-0.356,13.364-1.037
	c3.715-0.585,6.568-3.173,7.539-6.836c0.97-3.666-0.223-7.347-3.149-9.722c-12.026-9.76-19.722-24.729-19.722-41.515
	c0-29.413,23.634-53.26,52.786-53.26c23.289,0,43.038,20.316,50.05,39.41l18.711-8.03c2.232-0.96,4.594-0.733,6.608,0.63
	c2.014,1.365,3.116,3.484,3.086,5.932c-0.096,7.232-3.063,13.763-7.804,18.485c1.427,0.22,2.761,0.845,3.854,1.955
	c1.758,1.791,2.418,4.181,1.821,6.63c-1.64,6.74-11.557,11.923-23.544,11.923c-2.107,0-4.137-0.174-6.082-0.476
	c-1.703,2.475-3.642,4.605-5.668,6.726c-1.132,1.182-1.552,2.734-1.176,4.335c0.375,1.602,1.45,2.796,2.988,3.341
	c50.141,17.703,68.747,114.273-54.953,114.273c-47.656,0-111.739-21.732-111.739-79.744
	C98.624,214.548,104.202,201.05,113.357,190.89z M248.833,139.678c3.882,5.443,9.084,8.367,11.62,6.525
	c2.536-1.84,1.448-7.747-2.437-13.192c-3.882-5.445-9.084-8.367-11.619-6.525C243.863,128.324,244.951,134.233,248.833,139.678z"/>
</svg>
