<?xml version="1.0" encoding="utf-8"?>
<!-- Generator: Adobe Illustrator 25.0.0, SVG Export Plug-In . SVG Version: 6.00 Build 0)  -->
<svg version="1.1" xmlns="http://www.w3.org/2000/svg" xmlns:xlink="http://www.w3.org/1999/xlink" x="0px" y="0px"
	 viewBox="0 0 600 600" style="enable-background:new 0 0 600 600;" xml:space="preserve">
<style type="text/css">
	.st0{fill:#FFFFFF;}
	.st1{fill:none;}
	.st2{fill:#2D1680;}
	.st3{fill:#2E1780;}
	.st4{fill:#EF88AA;}
	.st5{fill:#A298C4;}
	.st6{fill:#F1A3BD;}
	.st7{fill:#392487;}
	.st8{fill:#46328F;}
</style>
<g id="Layer_1">
	<rect class="st0" width="600" height="600"/>
	<path class="st1" d="M0,22.8"/>
	<path class="st1" d="M0,22.8"/>
	<path class="st2" d="M65.61,285.82v-75.85h72.96c3.9,0,7.73,0.54,11.54,1.32c1.7,0.35,3.47,0.37,5.13,0.81
		c23.39,6.12,40.6,19.9,51.06,41.77c2.84,5.94,5,12.19,5.82,18.83c0.54,4.31,1.48,8.57,1.32,12.92
		C211.73,286.14,69.5,286.33,65.61,285.82L65.61,285.82z M376.15,285.89H228.5v-75.74c0.61-0.06,1.22-0.17,1.83-0.17
		c23.98-0.01,47.96-0.11,71.93,0.05c7.8,0.05,15.42,1.53,22.85,4.15c20.72,7.32,35.58,21,44.68,40.89
		c2.5,5.47,4.49,11.23,5.34,17.25c0.59,4.22,0.84,8.48,1.23,12.73C376.38,285.27,376.25,285.51,376.15,285.89L376.15,285.89z
		 M66.22,302.07c0.88-0.03,1.75-0.09,2.63-0.09h144.59c0,1.24,0.1,2.34-0.02,3.42c-0.66,6.22-1.23,12.46-3.16,18.46
		c-7.24,22.59-21.68,38.72-43.42,48.24c-5.03,2.2-10.29,3.78-15.7,4.65c-3.91,0.63-7.89,1.09-11.84,1.1
		c-23.82,0.1-47.64,0.05-71.46,0.05h-2.36v-2.57c0-23.74,0-47.48,0.01-71.22c0-0.55,0.11-1.1,0.17-1.65
		C65.84,302.33,66.03,302.2,66.22,302.07L66.22,302.07z M376.25,302.5c0.11,3.75-0.05,7.47-0.9,11.15
		c-0.62,2.71-0.83,5.53-1.61,8.19c-7.42,25.13-23.25,42.52-47.91,51.71c-6.52,2.43-13.27,3.76-20.19,4.28
		c-0.32,0.01-0.64,0.03-0.96,0.04c-24.95,0.01-49.91,0.03-74.86,0.04c-0.32,0-0.63-0.06-0.95-0.1l-0.4-0.46
		c-0.03-0.64-0.08-1.28-0.08-1.91v-71v-2.26c0.66-0.08,1.19-0.19,1.72-0.19c48.13-0.01,96.26-0.01,144.39,0
		c0.4,0,0.79,0.06,1.19,0.09C375.88,302.21,376.06,302.35,376.25,302.5L376.25,302.5z"/>
	<path class="st3" d="M370.34,210.04h53.37c37.71,55.71,75.5,111.55,113.34,167.44c-2.1,0.57-47.86,0.79-56.15,0.31
		C444.19,322.1,407.4,266.28,370.34,210.04z"/>
	<path class="st4" d="M367.24,377.71c16.13-23.18,31.98-45.94,47.84-68.73c1.68,1.35,44.75,66.01,45.84,68.73H367.24z
		 M536.94,210.91c-3.16,4.61-6.29,9.23-9.48,13.82c-5.51,7.93-11.06,15.83-16.59,23.76c-6.57,9.43-13.14,18.87-19.71,28.29
		c-0.31,0.45-0.72,0.83-1.28,1.47c-0.52-0.59-1.03-1.05-1.41-1.6c-4.51-6.58-9-13.19-13.5-19.78
		c-10.27-15.03-20.54-30.05-30.81-45.08c-0.18-0.26-0.27-0.57-0.4-0.86l0.09-0.94c0.72-0.02,1.44-0.05,2.16-0.05h88.7
		c0.72,0,1.44,0.04,2.16,0.06C536.89,210.3,536.92,210.61,536.94,210.91L536.94,210.91z"/>
	<path class="st5" d="M302.16,384.72c0.32-0.01,0.64-0.03,0.96-0.04C302.8,384.7,302.48,384.71,302.16,384.72z"/>
	<path class="st6" d="M443.85,209.99l-0.09,0.94C443.41,210.58,443.1,210.23,443.85,209.99z M536.94,210.91
		c-0.03-0.31-0.05-0.61-0.08-0.92C537.61,210.24,537.31,210.57,536.94,210.91z"/>
	<path class="st7" d="M66.22,302.07c-0.19,0.13-0.37,0.27-0.56,0.4C65.84,302.33,66.03,302.2,66.22,302.07z M376.25,302.5
		c-0.19-0.14-0.37-0.28-0.56-0.43C375.88,302.21,376.06,302.35,376.25,302.5z"/>
	<path class="st8" d="M225.95,384.2l0.4,0.46L225.95,384.2z"/>
</g>
<g id="Layer_2">
</g>
</svg>
