<svg width="1260" height="1260" viewBox="0 0 1260 1260" fill="none" xmlns="http://www.w3.org/2000/svg">
<path fill-rule="evenodd" clip-rule="evenodd" d="M577.047 64.9939C588.243 77.9023 604.597 84.6321 621.43 84.4253C681.443 83.689 741.151 93.4274 797.981 113.223C813.946 118.783 831.547 117.578 846.096 108.842L898.234 77.5393C917.909 65.7274 942.649 67.6466 960.368 82.3598L1019.81 131.707L1079.17 181.007C1096.93 195.756 1103.92 220.265 1096.71 242.519L1077.77 301.025C1072.45 317.446 1074.94 335.374 1083.54 350.255C1114.13 403.208 1135.8 461.077 1147.6 521.424C1150.92 538.374 1160.4 554.477 1175.04 563.023L1227.36 593.56C1247.21 605.149 1258.33 627.077 1254.75 650.232L1242.77 727.572L1230.82 804.925C1227.24 828.061 1210.08 846.507 1187.73 851.23L1128.62 863.724C1112.1 867.218 1098.22 878.409 1089.97 893.506C1060.64 947.166 1022.62 995.328 977.548 1035.93C964.863 1047.35 957.07 1063.62 957.179 1080.95L957.563 1142.51C957.705 1165.96 943.681 1187.04 922.358 1195.43L851.002 1223.5L779.618 1251.59C758.331 1259.97 734.213 1253.94 719.056 1236.46L679.045 1190.3C667.849 1177.39 651.496 1170.66 634.658 1170.86C574.635 1171.6 514.923 1161.86 458.084 1142.07C442.124 1136.51 424.525 1137.71 409.976 1146.45L357.837 1177.75C338.16 1189.56 313.417 1187.64 295.695 1172.92L236.258 1123.56L176.929 1074.28C159.174 1059.53 152.186 1035.02 159.391 1012.77L178.336 954.252C183.652 937.832 181.165 919.907 172.568 905.025C141.978 852.074 120.322 794.208 108.518 733.866C105.201 716.911 95.3658 701.894 80.72 693.348L28.3972 662.825C8.53631 651.241 -2.24525 628.227 1.3387 605.062L13.3036 527.732L25.2564 450.366C28.8319 427.224 45.9989 408.777 68.3531 404.057L127.467 391.574C143.989 388.086 157.873 376.891 166.126 361.787C195.45 308.122 233.46 259.956 278.526 219.351C291.202 207.93 298.986 191.665 298.883 174.349L298.517 112.801C298.378 89.3635 312.399 68.2905 333.716 59.9032L405.065 31.829L476.479 3.72946C497.761 -4.64532 521.875 1.37725 537.032 18.8549L577.047 64.9939Z" fill="url(#paint0_linear)"/>
<path fill-rule="evenodd" clip-rule="evenodd" d="M604.203 637.086C711.372 795.958 922.723 815.196 1051.12 733.003C1157.1 665.161 1158.55 547.901 1158.55 547.901L1232.26 596.7C1252.12 608.284 1262.9 631.298 1259.32 654.458L1235.36 809.371C1231.78 832.503 1214.62 850.939 1192.28 855.667L1133.16 868.171C1116.65 871.66 1102.76 882.855 1094.51 897.957C1065.18 951.663 1027.16 999.858 982.079 1040.48C969.398 1051.91 961.614 1068.18 961.724 1085.5L962.103 1147.16C962.249 1170.6 948.23 1191.68 926.912 1200.07L855.546 1228.16L784.186 1256.26C762.89 1264.65 738.757 1258.62 723.596 1241.13L683.599 1194.95C672.403 1182.03 656.04 1175.29 639.194 1175.5C579.184 1176.23 519.486 1166.49 462.656 1146.69C446.687 1141.12 424.079 1141.32 409.524 1150.06L357.414 1181.36C337.731 1193.19 312.972 1191.27 295.245 1176.54L235.822 1127.16L176.472 1077.82C158.729 1063.07 151.746 1038.58 158.944 1016.33L177.912 957.714C183.221 941.303 180.737 923.387 172.148 908.51C141.547 855.517 119.886 797.595 108.081 737.201C104.767 720.246 99.9343 706.236 85.2935 697.691L27.7266 666.431C7.87524 654.842 -2.90022 631.837 0.680331 608.677L12.6509 531.267L25.9882 444.881C28.8381 426.422 40.3223 410.357 57.3539 403.762C206.172 346.143 425.847 372.679 604.203 637.086Z" fill="url(#paint1_linear)"/>
<mask id="mask0" mask-type="alpha" maskUnits="userSpaceOnUse" x="0" y="378" width="1260" height="882">
<path fill-rule="evenodd" clip-rule="evenodd" d="M604.203 637.086C711.372 795.958 922.723 815.196 1051.12 733.003C1157.1 665.161 1158.55 547.901 1158.55 547.901L1232.26 596.7C1252.12 608.284 1262.9 631.298 1259.32 654.458L1235.36 809.371C1231.78 832.503 1214.62 850.939 1192.28 855.667L1133.16 868.171C1116.65 871.66 1102.76 882.855 1094.51 897.957C1065.18 951.663 1027.16 999.858 982.079 1040.48C969.398 1051.91 961.614 1068.18 961.724 1085.5L962.103 1147.16C962.249 1170.6 948.23 1191.68 926.912 1200.07L855.546 1228.16L784.186 1256.26C762.89 1264.65 738.757 1258.62 723.596 1241.13L683.599 1194.95C672.403 1182.03 656.04 1175.29 639.194 1175.5C579.184 1176.23 519.486 1166.49 462.656 1146.69C446.687 1141.12 424.079 1141.32 409.524 1150.06L357.414 1181.36C337.731 1193.19 312.972 1191.27 295.245 1176.54L235.822 1127.16L176.472 1077.82C158.729 1063.07 151.746 1038.58 158.944 1016.33L177.912 957.714C183.221 941.303 180.737 923.387 172.148 908.51C141.547 855.517 119.886 797.595 108.081 737.201C104.767 720.246 99.9343 706.236 85.2935 697.691L27.7266 666.431C7.87524 654.842 -2.90022 631.837 0.680331 608.677L12.6509 531.267L25.9882 444.881C28.8381 426.422 40.3223 410.357 57.3539 403.762C206.172 346.143 425.847 372.679 604.203 637.086Z" fill="url(#paint2_linear)"/>
</mask>
<g mask="url(#mask0)">
<path opacity="0.215" fill-rule="evenodd" clip-rule="evenodd" d="M1054.88 730.544C928 815.862 712.093 796.494 604.842 637.622C438.283 390.903 236 350.231 88 393.569C152.711 383.269 251.754 383.74 324.857 425.783C459.09 502.982 511.579 589.378 562.864 661.817C582.2 689.127 605.705 718.441 624 738.257C744.946 869.269 1002.61 851.576 1107.59 708.862C1151.06 649.757 1160.5 594 1158.5 547.5C1154 590.838 1134.07 676.938 1054.88 730.544ZM797.197 1251.97L740.824 1257.44L751.632 1269.9L797.197 1251.97ZM341.072 1196.4L318.143 1190.04L332.206 1201.72L341.072 1196.4Z" fill="url(#paint3_linear)"/>
</g>
<path d="M342.052 896.894C342.021 896.894 341.99 896.88 341.967 896.857C341.944 896.834 341.931 896.806 341.93 896.773V746.609C341.93 746.576 341.943 746.543 341.966 746.52C341.989 746.496 342.02 746.482 342.052 746.482H408.508C408.486 746.482 408.465 746.478 408.447 746.464C408.429 746.454 408.414 746.435 408.404 746.417C408.394 746.398 408.389 746.375 408.389 746.351C408.39 746.328 408.396 746.309 408.407 746.29L486.047 625.48C486.061 625.457 486.07 625.433 486.07 625.41C486.07 625.387 486.061 625.363 486.047 625.34L471.055 601.963L408.403 504.057C408.392 504.038 408.386 504.02 408.385 503.996C408.384 503.973 408.389 503.954 408.399 503.931C408.41 503.912 408.425 503.898 408.443 503.884C408.461 503.874 408.481 503.865 408.503 503.865H565.49C565.513 503.865 565.531 503.87 565.549 503.884C565.572 503.893 565.586 503.912 565.595 503.931L630.297 625.125C630.307 625.143 630.311 625.167 630.311 625.185C630.311 625.209 630.307 625.228 630.297 625.246L565.595 746.44C565.586 746.459 565.572 746.478 565.549 746.487C565.531 746.501 565.513 746.506 565.49 746.506H642.854C672.962 746.506 701.912 734.448 723.67 712.85C745.424 691.247 758.315 661.771 759.656 630.559C760.201 614.078 757.537 597.652 751.819 582.271C746.101 566.884 737.449 552.856 726.38 541.027C715.311 529.198 702.054 519.808 687.405 513.424C672.756 507.039 657.018 503.79 641.128 503.87H342.052C342.036 503.87 342.019 503.865 342.004 503.86C341.989 503.856 341.976 503.842 341.964 503.832C341.953 503.818 341.944 503.804 341.938 503.79C341.932 503.771 341.929 503.757 341.93 503.739V354.039C341.93 354.005 341.943 353.973 341.966 353.949C341.989 353.925 342.02 353.912 342.052 353.912H654.505C802.298 353.912 922.492 479.351 918.638 632.609C916.944 702.116 889.523 768.277 842.065 817.361C836.233 823.423 830.126 829.185 823.75 834.652C776.855 874.95 717.866 896.969 656.986 896.899L342.052 896.894Z" fill="white"/>
<defs>
<linearGradient id="paint0_linear" x1="248.446" y1="392.935" x2="1425.04" y2="959.45" gradientUnits="userSpaceOnUse">
<stop stop-color="#72FFAE"/>
<stop offset="1" stop-color="#23B9AC"/>
</linearGradient>
<linearGradient id="paint1_linear" x1="1429.77" y1="1552.55" x2="710.57" y2="192.25" gradientUnits="userSpaceOnUse">
<stop stop-color="#6FCDFA"/>
<stop offset="1" stop-color="#42FCC7"/>
</linearGradient>
<linearGradient id="paint2_linear" x1="1429.77" y1="1552.55" x2="710.57" y2="192.25" gradientUnits="userSpaceOnUse">
<stop stop-color="#6FCDFA"/>
<stop offset="1" stop-color="#42FCC7"/>
</linearGradient>
<linearGradient id="paint3_linear" x1="42.8189" y1="1325.66" x2="732.361" y2="449.814" gradientUnits="userSpaceOnUse">
<stop offset="0.356" stop-color="white"/>
<stop offset="0.406" stop-color="#EDEDEE"/>
<stop offset="0.521" stop-color="#CACACB"/>
<stop offset="0.617" stop-color="#ADADAE"/>
<stop offset="0.79" stop-color="#7F7F81"/>
<stop offset="0.923" stop-color="#626365"/>
<stop offset="1" stop-color="#58595B"/>
</linearGradient>
</defs>
</svg>
