<?xml version="1.0" encoding="UTF-8"?>
<svg width="50px" height="50px" viewBox="0 0 50 50" version="1.1" xmlns="http://www.w3.org/2000/svg" xmlns:xlink="http://www.w3.org/1999/xlink">
    <!-- Generator: Sketch 52.3 (67297) - http://www.bohemiancoding.com/sketch -->
    <title>Group 7</title>
    <desc>Created with Sketch.</desc>
    <g id="Page-1" stroke="none" stroke-width="1" fill="none" fill-rule="evenodd">
        <g id="Group-7">
            <circle id="Oval" fill="#3C80F1" fill-rule="nonzero" cx="25" cy="25" r="25"></circle>
            <g id="symbole" transform="translate(9.433336, 6.039780)" fill="#FFFFFF">
                <path d="M15.8672158,0.897252288 C7.58037169,0.897252288 0.838454875,7.63916911 0.838454875,15.9263522 C0.838454875,16.7205956 0.927099632,17.5246697 1.09184668,18.3338285 C1.12591474,18.5019654 1.31998404,18.5739999 1.45879868,18.4731516 C1.55930794,18.4001002 1.66490198,18.3316251 1.77591979,18.2692517 C2.28270339,17.9838258 2.85745362,17.8329772 3.43779712,17.8331467 L3.44067849,17.8331467 C3.58559488,17.8333162 3.69966356,17.7072135 3.67373115,17.56467 C3.57271342,17.0094114 3.51813672,16.4619496 3.51813672,15.9263522 C3.51813672,9.11680771 9.05784081,3.57710363 15.8672158,3.57710363 C22.6765907,3.57710363 28.2164643,9.11680771 28.2164643,15.9263522 C28.2164643,22.7379306 19.5011423,31.4381677 16.3823045,34.5109034 C16.0962006,34.79277 15.6380615,34.7926005 15.3519575,34.5107339 C14.4344928,33.6068286 13.0326175,32.2154619 11.5110802,30.5291776 C11.4902326,30.5271437 11.4685375,30.5266352 11.4476899,30.5244318 C10.249206,30.4061258 9.07716299,30.1252761 7.96596791,29.690527 C7.89681483,29.6635776 7.82766175,29.6359503 7.75901715,29.607645 C7.53782899,29.5166273 7.34257324,29.7834091 7.49460832,29.9681563 C9.49631879,32.4002091 11.6793866,34.6554808 13.6334696,36.5793941 C14.2494066,37.18567 15.0583959,37.4887232 15.8672158,37.4887232 C16.6762051,37.4887232 17.4851945,37.18567 18.1011315,36.5792246 C23.593886,31.1712165 30.8961462,23.1465778 30.8961462,15.9263522 C30.8961462,7.63916911 24.1542294,0.897252288 15.8672158,0.897252288" id="Fill-13"></path>
                <path d="M22.1181796,17.4444826 C22.1110609,17.6551622 22.1015693,17.8651639 22.0837726,18.0709282 C22.015467,18.8968668 21.8527538,19.6672118 21.5508871,20.3680647 C21.2507153,21.070104 20.8054576,21.7223125 20.2546058,22.3655378 L20.2708771,22.3794362 C19.2288351,23.5387673 17.9256047,24.4947069 16.4735595,25.0982709 C15.0259211,25.7050553 13.4426885,25.9733625 11.9130155,25.818446 C10.4352074,25.6755636 9.02028119,25.133356 7.80688193,24.2609763 C8.17874923,24.2467389 8.56197255,24.1947046 8.95502645,24.0843648 C9.27791031,23.9930081 9.60723491,23.8599562 9.9223221,23.6697853 C10.2372398,23.4818177 10.5367337,23.2338497 10.7848712,22.940966 C11.0352121,22.6490994 11.2286034,22.315029 11.3664011,21.9773992 C11.5011479,21.6394305 11.582674,21.2985804 11.6255557,20.9717982 C11.6696238,20.6533211 11.6669119,20.2985726 11.6660645,20.100266 L11.6660645,19.400091 L11.6660645,17.9999107 L11.6660645,12.3998671 L11.6660645,11.0000257 L11.6660645,10.3000203 L11.6660645,10.2578166 L11.6667424,10.2444266 C11.6669119,10.235274 11.666573,10.2262909 11.6679289,10.2176468 C11.6687764,10.200189 11.6713188,10.1830702 11.6736917,10.1662904 C11.6791154,10.1322224 11.6872511,10.0995103 11.6989461,10.0679846 C11.7440312,9.94103446 11.843693,9.82611831 11.9650498,9.76221951 C12.0255588,9.7293379 12.0899661,9.70950724 12.1586107,9.70171057 C12.1757295,9.69984614 12.1930177,9.69764274 12.210984,9.69798172 L12.2243739,9.69730375 L12.2618318,9.69713426 L12.3492901,9.69713426 L12.6992928,9.69713426 L14.0993037,9.69713426 L14.7993092,9.69713426 L14.9743953,9.69713426 L15.0606671,9.69730375 L15.1298202,9.69984614 C15.2221938,9.70459194 15.3138894,9.70120209 15.406941,9.71103267 C16.1499976,9.75798219 16.9089866,9.97611948 17.6242464,10.3073085 C19.0601898,10.9720594 20.3132503,12.1166446 21.1224092,13.481401 C21.3234277,13.8237765 21.4978358,14.179203 21.6439387,14.5446296 C21.7876686,14.9109036 21.897161,15.2876862 21.979026,15.6688756 C22.0634334,16.050065 22.1036032,16.4387121 22.1180101,16.8275287 C22.1190271,16.9276989 22.1271627,17.0165132 22.1236034,17.1256666 L22.1181796,17.4444826 Z M24.7961665,16.7376975 C24.7766749,16.1948119 24.7176914,15.6512483 24.6019278,15.1205663 C24.488876,14.5893757 24.3356545,14.0675072 24.1380258,13.564622 C23.9383633,13.0629231 23.7003953,12.5788516 23.4285288,12.1164751 C22.3290287,10.2740879 20.7042703,8.78831363 18.7535772,7.87712011 C17.7774679,7.42626915 16.7135613,7.11219891 15.5908407,7.03762206 C15.4515176,7.02457111 15.3094826,7.02575756 15.1688036,7.02033379 L15.06304,7.01745241 L14.9743953,7.01728292 L14.7993092,7.01728292 L14.0993037,7.01728292 L12.6992928,7.01728292 L12.3492901,7.01728292 L12.2618318,7.01728292 L12.1375936,7.01914734 C12.0389487,7.02118125 11.9397954,7.02914742 11.8413201,7.04084242 C11.4464017,7.08728346 11.0575852,7.20847084 10.706396,7.39626891 C10.0023227,7.76932266 9.44892859,8.40525981 9.17841802,9.15797753 C9.11028189,9.3457756 9.0602815,9.54001439 9.02858634,9.73628711 C9.01316249,9.83493194 9.00095901,9.93374627 8.99468777,10.0325606 C8.99045045,10.0820525 8.98892502,10.1313749 8.98773857,10.1806973 L8.98621313,10.3000203 L8.98621313,11.0000257 L8.98621313,12.3998671 L8.98621313,17.9999107 L8.98621313,19.400091 L8.98621313,20.100266 C8.9870606,20.3682342 8.98621313,20.4814554 8.96824689,20.6262023 C8.95028065,20.7617965 8.91892447,20.8773907 8.88197503,20.9733236 C8.84197472,21.0668837 8.79858455,21.1414605 8.74434684,21.2041729 C8.63993925,21.3267162 8.47942953,21.4328187 8.22468179,21.5060396 C7.97383238,21.5789215 7.64874511,21.6023116 7.30772551,21.5755317 C6.96501098,21.5477349 6.60433021,21.47248 6.25212408,21.355869 C5.54686436,21.1253587 4.86940147,20.7341692 4.36380432,20.2528095 L4.36126192,20.2502671 C3.94600446,19.8558573 3.30650796,19.7592464 2.78124964,20.0548419 C2.13649886,20.4182346 1.908192,21.2351901 2.27141517,21.8801103 C3.21277842,23.5514793 4.46550002,25.1214915 6.07805493,26.3177719 C6.88094253,26.9150647 7.76840705,27.4140517 8.71061777,27.7815121 C9.65215051,28.1498201 10.6460565,28.3862626 11.6489457,28.4852464 C13.6589613,28.6869429 15.6842313,28.3343978 17.5093302,27.5696461 C19.3340902,26.80303 20.9917302,25.6287835 22.2708927,24.0979242 L22.287164,24.1119921 C22.9500505,23.3402912 23.5803944,22.4407927 24.0144656,21.4226491 C24.4526046,20.4063701 24.6704029,19.3236498 24.7544713,18.2917773 C24.7766749,18.0327923 24.7883699,17.7760106 24.7968445,17.5205849 L24.8032852,17.139565 C24.8070141,17.0154962 24.7985394,16.8710883 24.7961665,16.7376975 Z" id="Fill-16"></path>
            </g>
        </g>
    </g>
</svg>