<?xml version="1.0" encoding="UTF-8"?>
<svg width="256px" height="256px" viewBox="0 0 256 256" version="1.1" xmlns="http://www.w3.org/2000/svg" xmlns:xlink="http://www.w3.org/1999/xlink">
    <title>logo_DF_256x256</title>
    <g id="logo_DF_256x256" stroke="none" stroke-width="1" fill="none" fill-rule="evenodd">
        <g id="编组" transform="translate(40.000000, 32.000000)">
            <path d="M0,160 L0,38 L80.0789293,38 C110.362906,38 135,63.3418728 135,94.4899476 C135,125.638645 110.362906,150.980518 80.0789293,150.980518 L70.4618485,150.980518 L70.4618485,126.989606 L80.0789293,126.989606 C97.4297431,126.989606 111.546002,112.41057 111.546002,94.4899476 C111.546002,76.5705709 97.4297431,61.9915354 80.0789293,61.9915354 L23.4533657,61.9915354 L23.4533657,160 L0,160 Z" id="Fill-13" fill="#FA9B00"></path>
            <path d="M35.9726735,192 L35.9726735,76.5794347 L59.229244,76.5794347 L59.229244,167.767387 L86.4276061,167.767387 C124.09647,167.767387 154.742803,135.573412 154.742803,96 C154.742803,56.4272168 124.09647,24.2319836 86.4276061,24.2319836 L31,24.2319836 L31,0 L86.4276061,0 C136.920766,0 178,43.0655911 178,95.9993709 C178,148.934409 136.920766,192 86.4276061,192 L35.9726735,192 Z" id="Fill-15" fill="#242A47"></path>
        </g>
    </g>
</svg>