<svg id="图层_1" data-name="图层 1" xmlns="http://www.w3.org/2000/svg" viewBox="0 0 141.73 141.73"><defs><style>.cls-1{fill:#2196f3;}.cls-2{fill:#fff;}</style></defs><title>DG token logo</title><circle class="cls-1" cx="70.87" cy="69.48" r="62.36"/><path class="cls-2" d="M75.35,36.79H49.2a6.51,6.51,0,0,0-5,2.38,6,6,0,0,0-.38.5,6.53,6.53,0,0,0,5,10.17l.07.08H75.23A19.62,19.62,0,0,1,94.79,69.48h0A19.62,19.62,0,0,1,75.23,89H58.46a2.74,2.74,0,0,1-2.71-2.69h0V89h0V76H75.68a6.54,6.54,0,1,0,0-13.07H49a6.37,6.37,0,0,0-6.36,6.35V95.81A6.38,6.38,0,0,0,49,102.17H75.35A32.79,32.79,0,0,0,108,69.48h0A32.79,32.79,0,0,0,75.35,36.79Z"/><path class="cls-2" d="M55.74,78.71h0A2.74,2.74,0,0,1,58.47,76H55.74Z"/></svg>