<?xml version="1.0" encoding="utf-8"?>
<!-- Generator: Adobe Illustrator 24.2.3, SVG Export Plug-In . SVG Version: 6.00 Build 0)  -->
<svg version="1.1" id="Ebene_1" xmlns="http://www.w3.org/2000/svg" xmlns:xlink="http://www.w3.org/1999/xlink" x="0px" y="0px"
	 viewBox="0 0 283.5 283.5" style="enable-background:new 0 0 283.5 283.5;" xml:space="preserve">
<style type="text/css">
	.st0{fill:url(#Pfad_1813_1_);}
	.st1{fill:url(#Pfad_1814_1_);}
	.st2{fill:url(#Pfad_1815_1_);}
</style>
<g id="Gruppe_813" transform="translate(1340.238 2649.555)">
	
		<linearGradient id="Pfad_1813_1_" gradientUnits="userSpaceOnUse" x1="-1336.9631" y1="-2368.2788" x2="-1335.9631" y2="-2368.2788" gradientTransform="matrix(79.7424 0 0 -139.049 105364.2656 -331822.75)">
		<stop  offset="0" style="stop-color:#665AFE"/>
		<stop  offset="1" style="stop-color:#F1B184"/>
	</linearGradient>
	<path id="Pfad_1813" class="st0" d="M-1248.4-2571.2l21.8-14.4v115.4c21.4-1.3,53.5-7.5,56.8-39.1c0,0,5,19.4-6.5,34.9
		c-12.3,16.6-40.8,27.8-72.2,27.8V-2571.2z"/>
	
		<linearGradient id="Pfad_1814_1_" gradientUnits="userSpaceOnUse" x1="-1336.7031" y1="-2368.2288" x2="-1337.274" y2="-2368.9438" gradientTransform="matrix(104.668 0 0 -123.933 138745.5938 -296038.0938)">
		<stop  offset="0" style="stop-color:#5C3598"/>
		<stop  offset="0.995" style="stop-color:#CCE0F4"/>
	</linearGradient>
	<path id="Pfad_1814" class="st1" d="M-1204.5-2558.6v19.2c8.9,2.4,29.4,10.3,34.9,30.3c0,0,0.1,0.3,0.2,0.9c0,0.2,0.1,0.3,0.1,0.5
		c0.9,4.6,2.9,20.2-6.8,33.4c-11.9,16.4-41.2,27.8-72.2,27.8l27,11.8c0,0,57.5-0.8,75-51.4c1.6-4.4,2.5-9,2.7-13.7
		C-1145.3-2535.6-1174.6-2555.4-1204.5-2558.6z"/>
	
		<linearGradient id="Pfad_1815_1_" gradientUnits="userSpaceOnUse" x1="-1337.4852" y1="-2368.8633" x2="-1336.1892" y2="-2368.5193" gradientTransform="matrix(84.071 0 0 -115.37 111183.2188 -275808.7812)">
		<stop  offset="0" style="stop-color:#B7FEA8"/>
		<stop  offset="0.16" style="stop-color:#B5F9AA"/>
		<stop  offset="0.321" style="stop-color:#B0EDB0"/>
		<stop  offset="0.481" style="stop-color:#A7D9BC"/>
		<stop  offset="0.642" style="stop-color:#9CBDCB"/>
		<stop  offset="0.803" style="stop-color:#8D99E0"/>
		<stop  offset="0.962" style="stop-color:#7A6DF8"/>
		<stop  offset="1" style="stop-color:#7662FF"/>
	</linearGradient>
	<path id="Pfad_1815" class="st2" d="M-1156.2-2556.9c-12.3-16.1-39.6-28.7-70.3-28.7v115.4c3.9-0.2,8.2-0.6,12.7-1.3
		c2.1-0.3,4.2-0.7,6.3-1.2c1-0.2,2.1-0.5,3-0.7v-85.2c29.9,3.2,59.5,23.1,60.8,59C-1143.7-2499.6-1136.6-2531.1-1156.2-2556.9z"/>
</g>
</svg>
