<svg xmlns="http://www.w3.org/2000/svg" viewBox="0 0 28 28"><defs><style>.cls-1{fill:#00e5ae;}</style></defs><title>Монтажная область 92</title><g id="Слой_1" data-name="Слой 1"><path class="cls-1" d="M15.3,26.5H11.6a.4.4,0,0,1-.4-.4c0-.2.2-.3.4-.3h3.7a11.8,11.8,0,0,0,0-23.6H.6a.3.3,0,0,1-.3-.3c0-.2.1-.4.3-.4H15.3A12.4,12.4,0,0,1,27.7,14,12.4,12.4,0,0,1,15.3,26.5Z"/><path class="cls-1" d="M15.3,23.4H7.8a.4.4,0,0,1-.3-.4.3.3,0,0,1,.3-.3h7.5a8.7,8.7,0,0,0,0-17.4H5.3A.3.3,0,0,1,5,5a.4.4,0,0,1,.3-.4h10a9.4,9.4,0,0,1,0,18.8Z"/><path class="cls-1" d="M15.3,20.3H11.1a.4.4,0,0,1-.3-.4.3.3,0,0,1,.3-.3h4.2a5.6,5.6,0,0,0,0-11.2H11.1a.3.3,0,0,1-.3-.3.4.4,0,0,1,.3-.4h4.2a6.3,6.3,0,1,1,0,12.6Z"/><path class="cls-1" d="M10.1,9.5A1.4,1.4,0,0,1,8.7,8.1a1.4,1.4,0,0,1,2.8,0A1.4,1.4,0,0,1,10.1,9.5Zm0-2.2a.8.8,0,0,0-.7.8.7.7,0,1,0,1.4,0A.8.8,0,0,0,10.1,7.3Z"/><path class="cls-1" d="M10.1,21.3a1.4,1.4,0,0,1-1.4-1.4,1.4,1.4,0,0,1,2.8,0A1.4,1.4,0,0,1,10.1,21.3Zm0-2.1a.7.7,0,0,0-.7.7.8.8,0,0,0,.7.8.8.8,0,0,0,.7-.8A.7.7,0,0,0,10.1,19.2Z"/></g></svg>
