<svg xmlns="http://www.w3.org/2000/svg" viewBox="0 0 196.55 202.77"><defs><style>.cls-1{fill:#fff;}.cls-2{fill:#2c398f;}.cls-3{fill:#04ffcc;}.cls-4{fill:#7bf6f8;}</style></defs><title>Asset 1</title><g id="Layer_2" data-name="Layer 2"><g id="Background._blue" data-name="Background. blue"><path class="cls-1" d="M7.85,150.17c-20-49.28-.06-98.88,40.07-134.32,51.27-45.27,121.7,17.82,139.3,47.46,19.11,32.17,9.81,100.43-36.68,127S28,199.74,7.85,150.17Z"/><path class="cls-2" d="M20.84,143.39c-17-42-.05-84.28,34.15-114.48C98.69-9.68,158.71,44.09,173.71,69.35,190,96.77,182.07,155,142.46,177.6S38,185.63,20.84,143.39Z"/><path class="cls-3" d="M107,48.33c.12,2.7-4.21,1.55-8.92,3.25-5.24,1.9-9.06.25-9.17-2.45s3.48-8.83,8.47-9.05S106.87,45.63,107,48.33Z"/><path class="cls-3" d="M180,86.42c-3.26-2.37-6.61-3.82-9-4-6.38-.35-11.16,8.26-7.91,21.07,2.93,11.5-.78,21.44,5.6,21.79,2.79.16,7.16-1.53,11.24-4.47A90.22,90.22,0,0,0,180,86.42Z"/><path class="cls-4" d="M120.05,22.7a11,11,0,0,0-4,8.42V73.51a43,43,0,1,0,1,73.71,11,11,0,0,0,21-4.59V33.11A116.68,116.68,0,0,0,120.05,22.7Zm-7.79,94.15c-2.4,13.46-15,15.85-25.48,9.85C64,113.69,83.18,80.13,106,93.14,112.74,97,113.63,109.17,112.26,116.85Z"/><path class="cls-3" d="M87.27,187.47c-2.27-8.18-10-17.39-23.59-24.41-20.52-10.61-30.29-28.85-39-20a12.76,12.76,0,0,0-2.42,3.55C33.48,170,59.71,184.2,87.27,187.47Z"/></g></g></svg>