<?xml version="1.0" standalone="no"?>
<!DOCTYPE svg PUBLIC "-//W3C//DTD SVG 20010904//EN"
 "http://www.w3.org/TR/2001/REC-SVG-20010904/DTD/svg10.dtd">
<svg version="1.0" xmlns="http://www.w3.org/2000/svg"
 width="500.000000pt" height="500.000000pt" viewBox="0 0 500.000000 500.000000"
 preserveAspectRatio="xMidYMid meet">

<g transform="translate(0.000000,500.000000) scale(0.100000,-0.100000)"
fill="#000000" stroke="none">
<path fill="#6720e0" d="M0 2500 l0 -2500 2500 0 2500 0 0 2500 0 2500 -2500 0 -2500 0 0
-2500z m2290 1356 l0 -143 113 -6 c99 -6 260 -27 325 -44 l22 -5 0 171 0 171
260 0 260 0 0 -287 0 -288 93 -96 c141 -147 231 -313 278 -518 29 -124 37
-402 15 -535 -39 -235 -144 -440 -311 -606 l-75 -74 0 -303 0 -303 -260 0
-260 0 0 171 0 172 -32 -8 c-117 -25 -198 -36 -305 -42 l-123 -6 0 -144 0
-143 -257 2 -258 3 -3 143 -3 142 -174 0 -175 0 2 1216 3 1216 173 -2 172 -1
0 144 c0 79 2 146 4 148 2 2 119 3 260 1 l256 -3 0 -143z"/>
<path fill="#6720e0" d="M1965 3209 c-3 -8 -4 -333 -3 -724 l3 -710 215 1 c301 3 446 29 604
112 137 72 256 225 301 387 24 90 31 312 11 403 -55 260 -255 442 -564 513
-115 27 -558 41 -567 18z"/>
<path fill="#ffffff" d="M1750 3875 l0 -145 -170 0 -170 0 0 -1235 0 -1235 170 0 170 0 0
-145 0 -145 280 0 280 0 0 143 0 144 118 7 c64 3 159 15 210 25 l92 18 0 -169
0 -168 280 0 280 0 0 306 0 307 83 86 c219 228 317 482 317 824 0 376 -111
665 -338 880 l-62 58 0 295 0 294 -280 0 -280 0 0 -168 0 -168 -102 18 c-57 9
-151 20 -210 24 l-108 7 0 144 0 143 -280 0 -280 0 0 -145z m764 -699 c235
-54 394 -158 489 -317 57 -96 79 -176 85 -307 8 -197 -30 -348 -122 -477 -143
-200 -393 -285 -838 -285 l-148 0 0 706 0 707 233 -6 c158 -4 254 -11 301 -21z"/>
</g>
</svg>
