<?xml version="1.0" encoding="utf-8"?>
<!-- Generator: Adobe Illustrator 17.0.0, SVG Export Plug-In . SVG Version: 6.00 Build 0)  -->
<!DOCTYPE svg PUBLIC "-//W3C//DTD SVG 1.1//EN" "http://www.w3.org/Graphics/SVG/1.1/DTD/svg11.dtd">
<svg version="1.1" id="Layer_1" xmlns="http://www.w3.org/2000/svg" xmlns:xlink="http://www.w3.org/1999/xlink" x="0px" y="0px"
	 width="384px" height="384px" viewBox="-66.33 -22.065 384 384" enable-background="new -66.33 -22.065 384 384"
	 xml:space="preserve">
<g id="Layer_2">
</g>
<g>
	
		<radialGradient id="SVGID_1_" cx="103.2813" cy="177.6215" r="308.5871" gradientTransform="matrix(1 0 0 -1 0.14 338.924)" gradientUnits="userSpaceOnUse">
		<stop  offset="0" style="stop-color:#383938"/>
		<stop  offset="0.1085" style="stop-color:#333333"/>
		<stop  offset="0.4926" style="stop-color:#222222"/>
		<stop  offset="0.8034" style="stop-color:#141414"/>
		<stop  offset="1" style="stop-color:#0E0E0E"/>
	</radialGradient>
	<path fill="url(#SVGID_1_)" d="M125.058-22.065c-102.37,0-256.927,381.161,0,381.161S227.428-22.065,125.058-22.065z"/>
	<path fill="#EAA425" d="M69.181,164.803c6.569,8.017,17.756,13.296,30.458,13.296c2.388,0,4.724-0.186,6.983-0.542
		c1.941-0.306,3.432-1.657,3.939-3.572c0.506-1.915-0.116-3.839-1.645-5.079c-6.283-5.1-10.305-12.921-10.305-21.69
		c0-15.368,12.348-27.827,27.58-27.827c12.168,0,22.487,10.614,26.15,20.591l9.776-4.195c1.166-0.502,2.4-0.383,3.453,0.329
		c1.052,0.714,1.629,1.82,1.613,3.1c-0.049,3.779-1.6,7.191-4.077,9.658c0.746,0.115,1.443,0.442,2.014,1.021
		c0.918,0.936,1.264,2.185,0.952,3.464c-0.857,3.521-6.038,6.229-12.302,6.229c-1.102,0-2.162-0.091-3.178-0.249
		c-0.89,1.294-1.903,2.407-2.961,3.514c-0.592,0.618-0.811,1.428-0.615,2.265c0.196,0.837,0.757,1.461,1.562,1.746
		c26.198,9.249,35.92,59.706-28.712,59.706c-24.899,0-58.383-11.354-58.383-41.666C61.483,177.164,64.398,170.111,69.181,164.803z
		 M139.966,138.044c2.028,2.844,4.747,4.371,6.071,3.409c1.325-0.961,0.756-4.048-1.273-6.893c-2.028-2.845-4.745-4.371-6.071-3.409
		C137.369,132.112,137.936,135.199,139.966,138.044z"/>
</g>
</svg>
