<?xml version="1.0" encoding="utf-8"?>
<!-- Generator: Adobe Illustrator 16.0.2, SVG Export Plug-In . SVG Version: 6.00 Build 0)  -->
<!DOCTYPE svg PUBLIC "-//W3C//DTD SVG 1.1//EN" "http://www.w3.org/Graphics/SVG/1.1/DTD/svg11.dtd">
<svg version="1.1" id="Layer_1" xmlns="http://www.w3.org/2000/svg" xmlns:xlink="http://www.w3.org/1999/xlink" x="0px" y="0px"
	 width="629.29px" height="629.29px" viewBox="0 0 629.29 629.29" enable-background="new 0 0 629.29 629.29" xml:space="preserve">
<linearGradient id="SVGID_1_" gradientUnits="userSpaceOnUse" x1="104.3311" y1="419.0156" x2="239.3823" y2="419.0156">
	<stop  offset="0" style="stop-color:#F8C6C7"/>
	<stop  offset="0.6989" style="stop-color:#EA514E"/>
</linearGradient>
<path fill-rule="evenodd" clip-rule="evenodd" fill="url(#SVGID_1_)" d="M155.405,376.089c0,60.586,128.67,158.615,67.469,158.615
	s-118.543-55.116-118.543-115.702s15.29-115.675,76.491-115.675C242.023,303.327,155.405,315.503,155.405,376.089z"/>
<linearGradient id="SVGID_2_" gradientUnits="userSpaceOnUse" x1="218.394" y1="122.6621" x2="257.8032" y2="122.6621">
	<stop  offset="0" style="stop-color:#F8C6C7"/>
	<stop  offset="1" style="stop-color:#EA514E"/>
</linearGradient>
<path fill-rule="evenodd" clip-rule="evenodd" fill="url(#SVGID_2_)" d="M257.058,55.601c0,0,7.069,74.313-22.342,134.122
	C234.716,189.723,185.924,121.449,257.058,55.601z"/>
<linearGradient id="SVGID_3_" gradientUnits="userSpaceOnUse" x1="361.5127" y1="112.2139" x2="400.9229" y2="112.2139">
	<stop  offset="0" style="stop-color:#F8C6C7"/>
	<stop  offset="1" style="stop-color:#EA514E"/>
</linearGradient>
<path fill-rule="evenodd" clip-rule="evenodd" fill="url(#SVGID_3_)" d="M400.178,45.153c0,0,7.068,74.313-22.342,134.122
	C377.836,179.274,329.043,111.001,400.178,45.153z"/>
<linearGradient id="SVGID_4_" gradientUnits="userSpaceOnUse" x1="122.8345" y1="363.001" x2="531.333" y2="363.001">
	<stop  offset="0" style="stop-color:#F8C6C7"/>
	<stop  offset="1" style="stop-color:#EA514E"/>
</linearGradient>
<path fill="url(#SVGID_4_)" d="M531.333,359.029c0,108.348-97.048,209.107-205.999,209.107c-108.95,0-202.5-108.438-202.5-216.785
	c0-108.348,91.275-193.486,200.225-193.486S531.333,250.682,531.333,359.029z"/>
<linearGradient id="SVGID_5_" gradientUnits="userSpaceOnUse" x1="433.4043" y1="436.6738" x2="536.1152" y2="436.6738">
	<stop  offset="0" style="stop-color:#F8C6C7"/>
	<stop  offset="0.7688" style="stop-color:#EA514E"/>
</linearGradient>
<path fill-rule="evenodd" clip-rule="evenodd" fill="url(#SVGID_5_)" d="M536.105,413.093
	c0.493,37.563-17.702,102.879-49.361,101.004c-21.5-1.274-53.34-36.13-53.34-79.459s22.963-75.425,44.501-75.425
	S535.536,369.768,536.105,413.093z"/>
<path fill-rule="evenodd" clip-rule="evenodd" fill="#5A120F" d="M420.146,282.406c0,38.024-64.423,83.078-130.857,83.078
	c-66.434,0-126.96-45.564-126.96-83.589c0-38.024,60.909-77.569,127.343-77.569S420.146,244.382,420.146,282.406z"/>
<ellipse fill-rule="evenodd" clip-rule="evenodd" fill="#FFFBFB" cx="231.068" cy="275.824" rx="36.404" ry="33.248"/>
<ellipse fill-rule="evenodd" clip-rule="evenodd" fill="#FFFBFB" cx="319.66" cy="283.861" rx="41.32" ry="34.192"/>
<circle fill-rule="evenodd" clip-rule="evenodd" fill="#981915" cx="317.578" cy="284.72" r="6.868"/>
<circle fill-rule="evenodd" clip-rule="evenodd" fill="#981915" cx="227.712" cy="276.773" r="6.868"/>
</svg>
