<?xml version="1.0" encoding="UTF-8"?>
<svg width="50px" height="50px" viewBox="0 0 50 50" version="1.1" xmlns="http://www.w3.org/2000/svg" xmlns:xlink="http://www.w3.org/1999/xlink">
    <!-- Generator: Sketch 60 (88103) - https://sketch.com -->
    <title>画板</title>
    <desc>Created with Sketch.</desc>
    <defs>
        <linearGradient x1="4.51827151%" y1="-4.3727563%" x2="100%" y2="100%" id="linearGradient-1">
            <stop stop-color="#FFFC2C" offset="0%"></stop>
            <stop stop-color="#EFE806" offset="100%"></stop>
        </linearGradient>
    </defs>
    <g id="画板" stroke="none" stroke-width="1" fill="none" fill-rule="evenodd">
        <g id="编组">
            <circle id="椭圆形" fill="url(#linearGradient-1)" cx="25" cy="25" r="25"></circle>
            <path d="M25.4338561,8 C26.5689739,8 27.4891195,9.6770428 27.4891195,11.7454141 C27.4891195,11.7954419 27.4882148,11.8449138 27.4871291,11.8943858 C28.0965785,11.1484158 28.8077236,10.7785807 29.3504014,11.0146378 C29.9023078,11.2547712 30.1370038,12.0607745 30.0253558,13.0531777 C29.9980319,13.5234389 29.8847554,14.0398369 29.6797357,14.5571614 C29.5608497,14.8571429 29.4195254,15.1345192 29.2637249,15.3844729 C37.352502,17.2356865 43.0888909,24.0885677 42.9989573,36 L42.9989573,36 L38.0759518,36 C38.1523139,25.9036502 32.4669537,20.9186585 25.0277978,20.7619048 C16.9267159,20.5912544 12.4425213,26.1532333 11.9233674,36 L11.9233674,36 L7,36 C7.63080192,24.0389105 12.6413886,16.7509728 21.4431202,15.318325 C21.3023388,15.1076524 21.0428523,14.681675 20.9272234,14.4337595 C20.2372498,12.9564573 20.3353263,11.4352418 21.1461764,11.0357606 C21.7945308,10.7165092 22.7021907,11.2119696 23.3927071,12.1789883 C23.3836594,12.036687 23.3785927,11.8921623 23.3785927,11.7454141 C23.3785927,9.6770428 24.2987384,8 25.4338561,8 Z M20.9383096,26.5747867 C21.5315041,26.5747867 22.0125209,27.1257146 22.0125209,27.8049285 L22.0125209,27.8049285 L22.0125209,30.8265478 C22.0125209,31.5059879 21.5315041,32.0566897 20.9383096,32.0566897 C20.3449169,32.0566897 19.8639002,31.5059879 19.8639002,30.8265478 L19.8639002,30.8265478 L19.8639002,27.8049285 C19.8639002,27.1257146 20.3449169,26.5747867 20.9383096,26.5747867 Z M29.5325944,26.5747867 C30.1259871,26.5747867 30.6070038,27.1257146 30.6070038,27.8049285 L30.6070038,27.8049285 L30.6070038,30.8265478 C30.6070038,31.5059879 30.1259871,32.0566897 29.5325944,32.0566897 C28.9393999,32.0566897 28.4583831,31.5059879 28.4583831,30.8265478 L28.4583831,30.8265478 L28.4583831,27.8049285 C28.4583831,27.1257146 28.9393999,26.5747867 29.5325944,26.5747867 Z" id="形状结合" fill="#000000"></path>
        </g>
    </g>
</svg>