<?xml version="1.0" encoding="utf-8"?>
<!DOCTYPE svg PUBLIC "-//W3C//DTD SVG 20010904//EN" "http://www.w3.org/TR/2001/REC-SVG-20010904/DTD/svg10.dtd">
<svg version="1.0" xmlns="http://www.w3.org/2000/svg" width="256px" height="256px" viewBox="0 0 256 256" preserveAspectRatio="xMidYMid meet">
 <g fill="#fd5767">
  <path d="M114 254.4 c-8.9 -1.7 -22.1 -4.5 -23.6 -5 -21.3 -7.2 -36.8 -16.7 -51.9 -31.9 -15.2 -15.1 -24.7 -30.6 -31.9 -51.9 -5.5 -16.3 -6.8 -45.1 -2.8 -63.2 2.4 -11.3 2.4 -11.2 5.9 -20.4 12.6 -32.5 39.8 -59.7 72.3 -72.3 9.2 -3.5 9.1 -3.5 20.4 -5.9 14.3 -3.2 36.9 -3.2 51.2 0 11.3 2.4 11.2 2.4 20.4 5.9 16.5 6.4 30.2 15.4 43.5 28.8 15.2 15.1 24.7 30.6 31.9 51.9 5.5 16.3 6.8 45.1 2.8 63.2 -2.4 11.3 -2.4 11.2 -5.9 20.4 -12.6 32.5 -39.8 59.7 -72.3 72.3 -9.1 3.5 -9.1 3.5 -19.8 5.8 -9.4 2 -34 3.4 -40.2 2.3z m16.5 -60.1 c1.5 -4.9 7.8 -19.1 14 -31.8 16.5 -33.3 24.2 -57.5 27.5 -86.1 1.6 -13.6 1 -16.9 -1.4 -7.9 -1 3.9 -3.2 10 -4.9 13.8 -2.8 6.3 -3.2 6.7 -6.3 6.7 l-3.4 0 -0.2 -16.2 -0.3 -16.3 -11.7 11.8 c-11.2 11.2 -11.8 11.7 -15.9 11.7 -4 0 -4.7 -0.5 -14.7 -10.5 -5.8 -5.8 -11.2 -11 -12.1 -11.4 -1.4 -0.8 -1.6 0.6 -1.3 14.5 l0.3 15.4 -3.5 0 c-3.2 0 -3.8 -0.5 -5.7 -4.3 -1.2 -2.3 -3.5 -8.2 -5 -13.2 -2.7 -8.8 -2.8 -8.9 -2.8 -4.3 -0.2 11.9 4.6 36.6 10.5 54.5 5.4 16.3 11 29.5 20.6 48.3 4.1 8 8.7 18.9 10.3 24.2 1.7 5.4 3.1 9.8 3.1 9.8 0.1 0 1.4 -3.9 2.9 -8.7z m-58.1 -34.3 c3 -1.1 8 -2 11.1 -2 3 0 5.5 -0.2 5.5 -0.5 0 -0.2 -1.4 -3.9 -3.1 -8.2 -3.9 -9.8 -8.7 -25.4 -9.5 -31.3 -0.4 -2.5 -0.9 -5.1 -1.3 -5.7 -0.4 -0.7 -3.7 10.3 -7.4 24.5 -3.7 14.1 -7 26.8 -7.4 28.1 l-0.6 2.4 3.5 -2.7 c2 -1.5 6.1 -3.6 9.2 -4.6z m118.5 -12.5 c-10.2 -39.1 -9.8 -38.1 -11.3 -29 -1.1 6.2 -6.4 22.8 -10 31.5 l-3.3 7.8 7.6 0.4 c5.9 0.4 8.9 1.2 13.8 3.6 3.4 1.7 6.5 3.6 6.8 4.2 1.7 2.8 1 -0.9 -3.6 -18.5z m-139.1 -8.5 c2.3 -8 5 -17.9 6.1 -22 2.8 -10.6 11.8 -45.1 12.4 -47.8 0.3 -1.4 -6.1 4.1 -18.1 15.6 -10.3 9.9 -23.3 22.1 -29 27.3 l-10.3 9.4 3.7 0.8 c5.8 1.2 15.2 6.7 19.1 11.1 4 4.6 9 14.4 9.9 19.5 0.9 4.5 1.4 3.4 6.2 -13.9z m159.1 11 c3.7 -13.3 15 -24.7 27.3 -27.5 l5 -1.1 -14.8 -13.6 c-8.2 -7.4 -21.2 -19.6 -28.9 -27.1 -7.7 -7.4 -14.1 -13.3 -14.3 -13.2 -0.2 0.2 2.2 9.9 5.3 21.7 3.1 11.7 6.5 24.5 7.5 28.3 1 3.9 3.4 13.1 5.5 20.5 2.1 7.4 4 14.5 4.2 15.8 0.7 3 1.6 1.9 3.2 -3.8z"/>
 </g>
 <g fill="#24232b">
  <path d="M126.1 215.3 c-1.7 -12.4 -8.1 -30.7 -15.6 -45 -16.1 -30.4 -25.7 -59.4 -29.6 -89.8 -1.3 -9.7 -0.7 -34.3 0.9 -38.5 0.8 -2.1 1.1 -1.5 2.1 4.5 2.5 14.8 10.3 38.5 12.8 38.5 0.3 0 0.3 -7.7 0 -17 -0.6 -15.6 -0.5 -17 1.1 -17 2.1 0 13.3 9.8 22.1 19.2 3.5 3.7 7.2 6.8 8.2 6.8 1 0 3.9 -2.5 6.6 -5.6 6.1 -7.2 21.3 -20.4 23.4 -20.4 1.4 0 1.5 2 1.2 17.7 l-0.4 17.8 2.9 -5.5 c3.8 -7.1 9.2 -26.4 11.3 -39.9 0.4 -2.7 2 7.5 2.5 16.4 1.8 30.6 -7.4 66.1 -28.1 108 -12.2 24.8 -15.8 34.5 -17.6 48.2 -0.7 4.8 -1.5 9.2 -1.9 9.6 -0.4 0.4 -1.2 -3.2 -1.9 -8z"/>
  <path d="M53 179.2 c0 -0.4 5.3 -20.9 11.8 -45.7 9.8 -37.9 11.7 -44.2 12 -40 1 19.9 8.2 46.8 17.1 64.3 l1.9 3.7 -9.2 0 c-8 0 -9.8 0.3 -15 2.9 -3.2 1.6 -8.7 5.6 -12.2 9.1 -3.5 3.5 -6.4 6 -6.4 5.7z"/>
  <path d="M197 174 c-3.2 -3.3 -8.3 -7.2 -12 -9.1 -6 -3.1 -7.2 -3.4 -15.6 -3.4 l-9.2 0 2.5 -5.5 c9.6 -21.5 16.3 -45.2 16.3 -58 0 -7 1.5 -5.1 4.1 5.2 2.8 10.8 11.5 44.1 16.8 64.2 1.8 6.5 3 12 2.9 12.1 -0.2 0.1 -2.8 -2.4 -5.8 -5.5z"/>
  <path d="M208.2 169 c-0.6 -1.9 -2.7 -9.6 -4.7 -17 -2 -7.4 -4.5 -16.4 -5.5 -20 -1.1 -3.6 -2.6 -9.2 -3.3 -12.5 -0.8 -3.3 -4.7 -18.1 -8.7 -33 -4 -14.8 -7.5 -28.3 -7.7 -30 -0.5 -2.6 1.1 -1.5 12.8 10.1 18.6 18.3 32.2 31.1 47.4 44.8 7.2 6.5 13.1 12.1 13.3 12.5 0.1 0.5 -2.8 1 -6.6 1.3 -8.6 0.6 -15.6 4.2 -21.8 11.1 -5.8 6.5 -9 13.3 -11.4 24.7 -1.1 5.2 -2.2 10 -2.4 10.5 -0.1 0.6 -0.8 -0.6 -1.4 -2.5z"/>
  <path d="M44.1 161.7 c-4 -17.2 -10.2 -26.8 -21.3 -32.7 -4.5 -2.4 -8.1 -3.5 -12.7 -3.9 l-6.4 -0.6 19.9 -18.5 c10.9 -10.2 27.4 -25.8 36.5 -34.7 9.1 -9 16.8 -16.3 17.1 -16.3 1.1 0 -29.2 114.3 -30.7 115.8 -0.2 0.2 -1.3 -3.9 -2.4 -9.1z"/>
 </g>
</svg>