<?xml version="1.0" encoding="utf-8"?>
<!-- Generator: Adobe Illustrator 21.0.2, SVG Export Plug-In . SVG Version: 6.00 Build 0)  -->
<svg version="1.1" id="Слой_1" xmlns="http://www.w3.org/2000/svg" xmlns:xlink="http://www.w3.org/1999/xlink" x="0px" y="0px"
	 viewBox="0 0 200 200" style="enable-background:new 0 0 200 200;" xml:space="preserve">
<style type="text/css">
	.st0{fill:url(#SVGID_1_);}
	.st1{fill:url(#SVGID_2_);}
	.st2{fill:url(#SVGID_3_);}
	.st3{fill:url(#SVGID_4_);}
	.st4{fill:url(#SVGID_5_);}
	.st5{fill:url(#SVGID_6_);}
	.st6{fill:url(#SVGID_7_);}
	.st7{fill:#4DC4CF;}
</style>
<g id="Слой_1_1_">
</g>
<g id="Layer_1">
	<g>
		<g>
			
				<linearGradient id="SVGID_1_" gradientUnits="userSpaceOnUse" x1="91.2612" y1="185.7845" x2="150.7872" y2="151.4171" gradientTransform="matrix(1 0 0 -1 0 202)">
				<stop  offset="0.3102" style="stop-color:#19BED5"/>
				<stop  offset="0.3796" style="stop-color:#14BBC7"/>
				<stop  offset="0.654" style="stop-color:#00B095"/>
				<stop  offset="0.7659" style="stop-color:#01A2A1"/>
				<stop  offset="0.9727" style="stop-color:#018EB3"/>
			</linearGradient>
			<path class="st0" d="M140.4,60.4c-0.1-0.3-0.3-0.6-0.4-0.9c-14.9-32.8-35.5-55.1-39.3-59c-0.1-0.1-0.1-0.1-0.2-0.2
				c1.6,8.9,2.9,20.5,2.4,32.4c0,0.5,0,0.9,0,1.4c-0.1,1.7-0.2,3.3-0.4,5c3.4,3.6,7.1,6.7,10.3,9.2c1.9,1.5,3.5,2.7,4.9,3.7
				c5,3.7,11.4,7.5,18.1,10.6c2.2,1,4.4,1.9,6.6,2.8C141.6,63.6,141,62,140.4,60.4z"/>
			
				<linearGradient id="SVGID_2_" gradientUnits="userSpaceOnUse" x1="69.3737" y1="-1.4263" x2="113.1125" y2="42.3125" gradientTransform="matrix(1 0 0 -1 0 202)">
				<stop  offset="0.4048" style="stop-color:#00B095"/>
				<stop  offset="0.4841" style="stop-color:#00AF98"/>
				<stop  offset="0.5517" style="stop-color:#00ACA3"/>
				<stop  offset="0.6148" style="stop-color:#00A8B4"/>
				<stop  offset="0.6251" style="stop-color:#00A7B8"/>
				<stop  offset="0.6717" style="stop-color:#01A0B2"/>
				<stop  offset="0.7412" style="stop-color:#038CA0"/>
				<stop  offset="0.8251" style="stop-color:#076A84"/>
				<stop  offset="0.9192" style="stop-color:#0C3D5E"/>
				<stop  offset="1" style="stop-color:#111038"/>
			</linearGradient>
			<path class="st1" d="M107.2,161.6c-3.1-4.6-5.9-10-8.1-15.7c-3.8,13.9-10.5,25.1-17.6,33.8l19,20.3v-0.1v0.1l20.8-23.1
				C113.5,170.8,108.9,164.1,107.2,161.6z"/>
			
				<linearGradient id="SVGID_3_" gradientUnits="userSpaceOnUse" x1="5.9218" y1="106.6915" x2="105.1655" y2="70.5697" gradientTransform="matrix(1 0 0 -1 0 202)">
				<stop  offset="0.5195" style="stop-color:#4DC4CF"/>
				<stop  offset="0.585" style="stop-color:#4CC0CB"/>
				<stop  offset="0.6568" style="stop-color:#47B2C0"/>
				<stop  offset="0.7317" style="stop-color:#409CAE"/>
				<stop  offset="0.8087" style="stop-color:#357E94"/>
				<stop  offset="0.8874" style="stop-color:#285673"/>
				<stop  offset="0.9662" style="stop-color:#18264B"/>
				<stop  offset="1" style="stop-color:#111038"/>
			</linearGradient>
			<path class="st2" d="M80.4,79.9c-3.9,3.3-8,5.7-11.9,7.5c-1.2,7.1-4.4,14.3-9,20.3c-2.7,3.5-5.8,6.7-9.3,9.1
				c-1.8,1.3-3.6,2.3-5.4,3.2c0,0.3-0.1,0.6-0.1,0.9c0,0,16.7,1.6,23.5,17.6c3.9,9.2,2.3,29.2,2.3,29.2l11,11.7
				c7.1-8.7,13.8-19.9,17.6-33.8c0.5-1.8,0.9-3.6,1.3-5.4c0.4-2,0.8-4.1,1.1-6.3c0.7-5.7,1.4-17.5-1.3-32.5c-0.1-0.5-0.2-1-0.3-1.5
				c-1.8-9.2-4.8-19.6-9.8-30.5C87.1,73.6,83.8,77,80.4,79.9z"/>
			
				<linearGradient id="SVGID_4_" gradientUnits="userSpaceOnUse" x1="34.2846" y1="100.473" x2="72.0686" y2="122.2876" gradientTransform="matrix(1 0 0 -1 0 202)">
				<stop  offset="0.1615" style="stop-color:#4DC4CF"/>
				<stop  offset="0.2531" style="stop-color:#4ABBC8"/>
				<stop  offset="0.4005" style="stop-color:#42A4B4"/>
				<stop  offset="0.5853" style="stop-color:#357D94"/>
				<stop  offset="0.7979" style="stop-color:#244867"/>
				<stop  offset="1" style="stop-color:#111038"/>
			</linearGradient>
			<path class="st3" d="M59.5,107.7c4.6-6,7.9-13.2,9-20.3c1.1-6.7,0.4-13.3-2.9-18.7c-1.6-2.7-3.7-4.8-6.1-6.5
				c-4,9.3-7.6,19.5-10.2,30.2c-2.2,8.8-3.7,18-4.4,27.6c1.8-0.9,3.6-1.9,5.4-3.2C53.8,114.3,56.8,111.2,59.5,107.7z"/>
			
				<linearGradient id="SVGID_5_" gradientUnits="userSpaceOnUse" x1="-187.3629" y1="158.3" x2="103.0774" y2="158.3" gradientTransform="matrix(1 0 0 -1 0 202)">
				<stop  offset="0.824" style="stop-color:#4DC4CF"/>
				<stop  offset="0.8593" style="stop-color:#4CC1CC"/>
				<stop  offset="0.8858" style="stop-color:#49B7C4"/>
				<stop  offset="0.9096" style="stop-color:#43A7B7"/>
				<stop  offset="0.9317" style="stop-color:#3C90A4"/>
				<stop  offset="0.9527" style="stop-color:#32738B"/>
				<stop  offset="0.9728" style="stop-color:#264E6C"/>
				<stop  offset="0.9919" style="stop-color:#172449"/>
				<stop  offset="1" style="stop-color:#111038"/>
			</linearGradient>
			<path class="st4" d="M100.4,0.3C100.2,0,100.2,0,100.1,0c-0.2,0-0.4,0.2-0.7,0.4C99.3,0.5,98.8,1,98.8,1S75.9,24.2,59.5,62.2
				c2.4,1.7,4.5,3.8,6.1,6.5c3.3,5.4,4,12,2.9,18.7c3.9-1.8,7.9-4.2,11.9-7.5c3.4-2.8,6.7-6.3,9.7-10.5c1.5-2.1,2.9-4.3,4.2-6.8
				c0.5-0.9,0.9-1.7,1.3-2.6c3.4-6.6,6-13,6.8-20.9c0-0.1,0,0,0-0.1l0,0c0.4-2.2,0.4-4.5,0.5-6.7C103.4,20.5,102.1,9.2,100.4,0.3z"
				/>
			
				<linearGradient id="SVGID_6_" gradientUnits="userSpaceOnUse" x1="149.695" y1="65.4562" x2="94.8352" y2="160.4762" gradientTransform="matrix(1 0 0 -1 0 202)">
				<stop  offset="0.5674" style="stop-color:#0488A4"/>
				<stop  offset="0.6312" style="stop-color:#1294AC"/>
				<stop  offset="0.7508" style="stop-color:#36B1C1"/>
				<stop  offset="0.8184" style="stop-color:#4DC4CF"/>
			</linearGradient>
			<path class="st5" d="M135.8,62.4c-6.7-3.1-13.1-6.9-18.1-10.6c-1.3-1-3-2.2-4.9-3.7c-3.7-2.7-7.1-5.9-10.3-9.2l0,0
				c0,0.1,0,0,0,0.1c-0.8,8-3.4,14.4-6.8,21c-0.4,1-0.9,1.9-1.4,2.9c-1.3,2.5-2.7,4.7-4.2,6.8c5,11,8,21.3,9.8,30.5
				c0.7-0.8,1.4-1.5,2.2-2.2c9.2-7.8,23.4-5,28.4-3.8c-1-2-1.7-4.1-2.1-7c-0.9-5.8-0.4-15.2,4.8-21.8
				C134,64.1,134.9,63.2,135.8,62.4z"/>
			
				<linearGradient id="SVGID_7_" gradientUnits="userSpaceOnUse" x1="150.2994" y1="52.2342" x2="91.0289" y2="86.4539" gradientTransform="matrix(1 0 0 -1 0 202)">
				<stop  offset="0.2743" style="stop-color:#0488A4"/>
				<stop  offset="0.3044" style="stop-color:#0C8FA9"/>
				<stop  offset="0.4334" style="stop-color:#28A6B9"/>
				<stop  offset="0.5624" style="stop-color:#3DB7C5"/>
				<stop  offset="0.6903" style="stop-color:#49C1CD"/>
				<stop  offset="0.8158" style="stop-color:#4DC4CF"/>
			</linearGradient>
			<path class="st6" d="M147.6,108.8c-4.4-1.8-10.1-4.6-13.5-9c-1.6-2.1-2.8-3.8-3.7-5.5c-5-1.2-19.2-4-28.4,3.8
				c-0.8,0.7-1.5,1.4-2.2,2.2c0.1,0.5,0.2,1,0.3,1.5c2.7,15.1,2.1,26.8,1.3,32.5c-0.3,2.1-0.7,4.2-1.1,6.3c-0.4,1.8-0.8,3.6-1.3,5.4
				c2.2,5.7,5,11.1,8.1,15.7c1.7,2.5,6.3,9.1,14.1,15.3l8-8.9c0,0-1.7-20,2.3-29.2c6.9-16,23.5-17.6,23.5-17.6
				c-0.1-3.5-0.4-7-0.8-10.4C152,110.2,148.9,109.3,147.6,108.8z"/>
			<path class="st7" d="M154.1,109.4c-1.9-16-6.3-30.8-11.8-44.2c-2.2-0.8-4.5-1.8-6.6-2.8c-0.8,0.8-1.7,1.7-2.6,2.9
				c-5.2,6.7-5.7,16-4.8,21.8c0.5,3,1.1,5.1,2.1,7c0.9,1.8,2.1,3.4,3.7,5.5c3.4,4.4,9.1,7.3,13.5,9c1.3,0.5,4.4,1.4,6.7,2
				C154.2,110.3,154.2,109.9,154.1,109.4z"/>
		</g>
	</g>
</g>
</svg>
