<?xml version="1.0" encoding="utf-8"?>
<svg version="1.1" id="Layer_1" xmlns="http://www.w3.org/2000/svg" xmlns:xlink="http://www.w3.org/1999/xlink" x="0px" y="0px"
	 viewBox="0 0 43 43" style="enable-background:new 0 0 43 43;" xml:space="preserve">
<style type="text/css">
	.st0{fill:#F5D834;}
	.st1{fill:#CC8F12;}
</style>
<g>
	<circle class="st0" cx="21.5" cy="21.5" r="21.5"/>
	<circle class="st1" cx="21.5" cy="21.5" r="18.5"/>
	<g>
		<circle class="st0" cx="21.5" cy="21.5" r="13.2"/>
	</g>
	<g>
		<g>
			<path class="st1" d="M20.5,19.3l0.8-1l-4,0l0.7,1H20.5z M15.5,15.8h7.7l0.8-1h-9.2L15.5,15.8z M25.8,14.8H24v4.5h4.8L24,22.7v3.6
				l-3.8-2.7l-6.6,4.6H23c2.9,0,5.8-2.2,6.6-5.1l0.6-2.7C30.9,17.3,28.9,14.8,25.8,14.8z M22.6,16.5h-6.5l0.7,1h5L22.6,16.5z"/>
		</g>
	</g>
</g>
</svg>
