<?xml version="1.0" encoding="utf-8"?>
<!-- Generator: Adobe Illustrator 25.0.1, SVG Export Plug-In . SVG Version: 6.00 Build 0)  -->
<svg version="1.1" id="Calque_1" xmlns="http://www.w3.org/2000/svg" xmlns:xlink="http://www.w3.org/1999/xlink" x="0px" y="0px"
	 viewBox="0 0 788.4 788.4" style="enable-background:new 0 0 788.4 788.4;" xml:space="preserve">
<style type="text/css">
	.st0{fill:url(#SVGID_1_);}
	.st1{fill:url(#SVGID_2_);}
	.st2{fill:#F2D58B;}
	.st3{clip-path:url(#SVGID_4_);fill:#FDF5B2;}
	.st4{clip-path:url(#SVGID_4_);fill:#E4B94A;}
	.st5{clip-path:url(#SVGID_4_);fill:#FFFCC7;}
</style>
<g>
	<linearGradient id="SVGID_1_" gradientUnits="userSpaceOnUse" x1="261.3355" y1="730.9213" x2="537.5226" y2="30.9815">
		<stop  offset="0" style="stop-color:#EB5E57"/>
		<stop  offset="0.9243" style="stop-color:#F4CB54"/>
	</linearGradient>
	<path class="st0" d="M672.9,115.5C519-38.5,269.4-38.5,115.5,115.5s-153.9,403.5,0,557.5s403.5,153.9,557.5,0
		S826.9,269.4,672.9,115.5"/>
	
		<linearGradient id="SVGID_2_" gradientUnits="userSpaceOnUse" x1="187.9817" y1="603.1795" x2="582.4415" y2="241.5913" gradientTransform="matrix(0.9835 1.652387e-02 1.652387e-02 0.9835 9.5472 -9.5472)">
		<stop  offset="0" style="stop-color:#C7772B;stop-opacity:0"/>
		<stop  offset="1" style="stop-color:#C7772B"/>
	</linearGradient>
	<polygon class="st1" points="17.1,381.2 193.3,186.7 440,129.1 596.6,232.1 472.5,356.1 494.2,395.4 549.1,332.4 566.8,386.6 
		632.5,311.4 658.3,410.3 620.3,580.5 457,766.2 213.6,733.7 40.8,544.6 	"/>
	<path class="st2" d="M674.6,323.4c-3-11.2-13.2-19-24.8-19c-2.3,0-4.5,0.3-6.7,0.9c-6.6,1.8-12.2,6-15.6,12
		c-3.4,5.9-4.3,12.9-2.6,19.5c27.8,103.6-17.5,213.8-110.2,267.9c-2.8,1.6-6,2.5-9.3,2.5c-6.5,0-12.6-3.5-15.9-9.1
		c-5-8.5-2.4-19.3,5.8-24.7l0.3-0.2c0.2-0.1,0.4-0.2,0.6-0.4l0.3-0.2c0.1-0.1,0.2-0.1,0.3-0.2l0.9-0.5c36.9-22,66.4-56.1,83-96
		c17.3-41.5,20.3-86.3,8.7-129.7c-3-11.2-13.2-19.1-24.8-19.1c-2.2,0-4.5,0.3-6.7,0.9c-13.7,3.7-21.8,17.8-18.2,31.5l0.2,0.9l0,0.1
		c0,0.1,0,0.2,0,0.2l0,0c1.8,9.4-4,18.7-13.3,21.2c-1.6,0.4-3.2,0.6-4.8,0.6c-7.5,0-14.4-4.7-17.1-11.7l0-0.1
		c-0.2-0.6-0.4-1.2-0.6-1.9c-0.1-0.3-0.2-0.6-0.3-0.9l-0.3-0.8c-6.7-23.4-21-44.5-40.5-59.4c-20.1-15.4-44.1-23.5-69.5-23.5
		c-13.7,0-27.2,2.4-39.9,7.2l-0.4,0.1l-0.3,0.1c-1,0.2-2.1,0.3-3.1,0.3c-7.8,0-14.8-5-17.3-12.3c-3.2-9.2,1.3-19.3,10.4-23
		c0.1-0.1,0.3-0.1,0.5-0.2l0.2-0.1c0.3-0.1,0.6-0.2,0.9-0.3l0.2-0.1c0.1,0,0.1-0.1,0.2-0.1l0.2,0c15.6-5.3,31.9-8,48.5-8
		c40.2,0,78,15.6,106.4,44c4.9,4.8,11.3,7.5,18.2,7.5c6.8,0,13.3-2.7,18.2-7.5c9.9-9.9,10-26.1,0.2-36.1l-0.9-0.9
		c-6.5-7.3-6.2-18.4,0.7-25.3c3.5-3.5,8.1-5.4,13-5.4c4.5,0,8.9,1.6,12.2,4.6l1,0.9c4.8,4.7,11.2,7.3,18,7.3
		c6.9,0,13.3-2.7,18.1-7.5c4.9-4.8,7.5-11.3,7.5-18.2c0-6.9-2.7-13.3-7.5-18.1c-54.7-54.7-127.5-84.8-205.1-84.8
		c-77.6,0-150.4,30.1-205.1,84.8c-4.9,4.9-7.5,11.3-7.5,18.1c0,6.9,2.7,13.3,7.5,18.1c4.9,4.9,11.3,7.5,18.1,7.5
		c6.9,0,13.3-2.7,18.2-7.5c45-45,104.9-69.8,168.8-69.8c41.6,0,82.5,10.8,118.3,31.3c4.3,2.4,7.3,6.4,8.6,11.1
		c1.3,4.7,0.7,9.7-1.8,14c-3.3,5.7-9.4,9.3-16,9.3c-2.9,0-5.8-0.7-8.3-2l-0.3-0.2c-0.2-0.1-0.4-0.2-0.6-0.4l-0.9-0.5
		c-30.1-16.9-64.3-25.9-99.1-25.9c-54,0-104.7,21-142.8,59c-4.9,4.9-7.5,11.3-7.5,18.2c0,6.9,2.7,13.3,7.5,18.2
		c4.8,4.8,11.3,7.5,18.1,7.5c6.8,0,13.3-2.7,18.2-7.5c0.2-0.2,0.4-0.4,0.6-0.6l0.4-0.4c3.3-2.9,7.6-4.5,12-4.5c4.9,0,9.5,1.9,13,5.4
		c6.1,6.1,7.1,15.6,2.5,22.8l-3,3.3c-21.5,21.6-33.3,50.2-33.3,80.7c0,34.4,15.3,66.7,42,88.5l0.3,0.2l0.2,0.3
		c5.6,6.9,5.4,16.8-0.4,23.5c-3.5,4-8.6,6.4-13.9,6.4c-4.1,0-8.1-1.4-11.2-3.8l-0.4-0.4c-0.3-0.2-0.5-0.5-0.8-0.7l-0.5-0.5
		c-20.8-18.2-36.2-41.8-44.5-68.3c-8.6-27.3-9.2-56.3-1.8-83.9c3.7-13.7-4.5-27.8-18.2-31.5c-2.2-0.6-4.4-0.9-6.7-0.9
		c-11.5,0-21.6,7.7-24.7,18.8l-0.3,1.3c-2.5,7.6-9.5,12.6-17.5,12.6c-1.6,0-3.2-0.2-4.8-0.6c-9.4-2.5-15.2-12-13.3-21.5l0.3-1.3
		c3.5-13.6-4.7-27.6-18.2-31.2c-2.2-0.6-4.4-0.9-6.7-0.9c-11.6,0-21.8,7.8-24.8,19c-20,74.7-9.7,152.8,29.1,220
		c38.8,67.2,101.3,115.2,176,135.2c2.2,0.6,4.4,0.9,6.7,0.9c11.6,0,21.8-7.8,24.8-19c1.8-6.6,0.9-13.6-2.6-19.5
		c-3.4-5.9-9-10.2-15.6-12c-103.6-27.8-176.4-122.1-176.9-229.3c0-4.9,1.9-9.5,5.3-13c3.5-3.5,8.1-5.4,13-5.5h0.1
		c9.8,0,17.9,7.6,18.3,17.4l0,1c0,0.2,0,0.3,0,0.5l0,0.2c0,0.1,0,0.1,0,0.2l0,0.1l0,0.1c0.5,43.2,15.3,85.9,41.6,120.4
		c27.3,35.7,64.6,60.7,108,72.4c2.2,0.6,4.4,0.9,6.7,0.9c11.6,0,21.8-7.8,24.8-19c3.6-13.6-4.5-27.7-18.1-31.4l-0.1,0
		c-0.2,0-0.4-0.1-0.5-0.1l-0.8-0.2c-9-3.2-14.2-12.9-11.7-22.1c2.2-8,9.5-13.6,17.7-13.6c0.5,0,1,0,1.5,0.1l3.3,0.8
		c9.6,2.5,19.5,3.8,29.4,3.8c51.2,0,96.5-34.4,110.1-83.7l0.2-0.6c0.1-0.4,0.2-0.9,0.3-1.3l0.1-0.4c0-0.1,0.1-0.3,0.1-0.4l0.2-0.7
		c0.1-0.5,0.3-1,0.4-1.5l0-0.1c0.2-0.9,0.4-1.8,0.6-2.7l0.2-0.8c0-0.1,0-0.2,0.1-0.3l0.1-0.2c0-0.1,0-0.2,0.1-0.3l0.1-0.4
		c0.1-0.7,0.3-1.3,0.5-1.9c2.3-7.7,9.6-13,17.6-13c1.1,0,2.3,0.1,3.4,0.3c9.6,1.8,16.1,10.8,14.8,20.5l0,0.1c0,0.1,0,0.3-0.1,0.5
		l-0.1,0.3c0,0.3-0.1,0.5-0.1,0.8l0,0.2c0,0.1-0.1,0.3-0.1,0.4l0,0.2c-5.4,27.1-18.2,52.2-36.9,72.6c-19.3,21.1-44.1,36.1-71.8,43.5
		c-6.6,1.8-12.2,6-15.6,12c-3.4,5.9-4.3,12.9-2.6,19.5c3,11.2,13.2,19,24.8,19c2.1,0,4.3-0.3,6.4-0.8l1.3-0.3
		c1.2-0.3,2.5-0.4,3.8-0.4c8.3,0,15.6,5.6,17.7,13.6c2.5,9.4-2.7,19.1-12,22.2l-1.3,0.4c-13.5,3.7-21.5,17.8-17.9,31.4
		c3,11.2,13.2,19,24.8,19c2.2,0,4.5-0.3,6.7-0.9c74.7-20,137.2-68,176-135.2C684.3,476.3,694.6,398.1,674.6,323.4z M392.3,335.7
		l0.2,0c1.4,0,2.8,0,4.5,0.1l1.7,0.1c32.6,2.5,58.2,30.1,58.2,62.8c0,20.5-10.1,39.8-26.9,51.6l-1.5,1l-0.5,0.3
		c-0.4,0.3-0.9,0.5-1.3,0.8l-1.5,0.9c-0.5,0.3-0.9,0.5-1.5,0.8c-0.8,0.4-1.4,0.7-2,1l-0.1,0c-4.9,2.4-10.1,4.2-15.6,5.3
		c-8.1,1.6-16.8,1.6-24.9-0.1l-2.8-0.7c-27.5-7-47.4-32.7-47.4-61c0-7.3,1.2-14.5,3.7-21.3c2.8-7.7,7-14.8,12.6-20.9l0.2-0.3
		c11.3-12.4,26.7-19.7,43.4-20.5C391.3,335.7,391.8,335.7,392.3,335.7z"/>
	<g>
		<defs>
			<path id="SVGID_3_" d="M674.6,323.4c-3-11.2-13.2-19-24.8-19c-2.3,0-4.5,0.3-6.7,0.9c-6.6,1.8-12.2,6-15.6,12
				c-3.4,5.9-4.3,12.9-2.6,19.5c27.8,103.6-17.5,213.8-110.2,267.9c-2.8,1.6-6,2.5-9.3,2.5c-6.5,0-12.6-3.5-15.9-9.1
				c-5-8.5-2.4-19.3,5.8-24.7l0.3-0.2c0.2-0.1,0.4-0.2,0.6-0.4l0.3-0.2c0.1-0.1,0.2-0.1,0.3-0.2l0.9-0.5c36.9-22,66.4-56.1,83-96
				c17.3-41.5,20.3-86.3,8.7-129.7c-3-11.2-13.2-19.1-24.8-19.1c-2.2,0-4.5,0.3-6.7,0.9c-13.7,3.7-21.8,17.8-18.2,31.5l0.2,0.9
				l0,0.1c0,0.1,0,0.2,0,0.2l0,0c1.8,9.4-4,18.7-13.3,21.2c-1.6,0.4-3.2,0.6-4.8,0.6c-7.5,0-14.4-4.7-17.1-11.7l0-0.1
				c-0.2-0.6-0.4-1.2-0.6-1.9c-0.1-0.3-0.2-0.6-0.3-0.9l-0.3-0.8c-6.7-23.4-21-44.5-40.5-59.4c-20.1-15.4-44.1-23.5-69.5-23.5
				c-13.7,0-27.2,2.4-39.9,7.2l-0.4,0.1l-0.3,0.1c-1,0.2-2.1,0.3-3.1,0.3c-7.8,0-14.8-5-17.3-12.3c-3.2-9.2,1.3-19.3,10.4-23
				c0.1-0.1,0.3-0.1,0.5-0.2l0.2-0.1c0.3-0.1,0.6-0.2,0.9-0.3l0.2-0.1c0.1,0,0.1-0.1,0.2-0.1l0.2,0c15.6-5.3,31.9-8,48.5-8
				c40.2,0,78,15.6,106.4,44c4.9,4.8,11.3,7.5,18.2,7.5c6.8,0,13.3-2.7,18.2-7.5c9.9-9.9,10-26.1,0.2-36.1l-0.9-0.9
				c-6.5-7.3-6.2-18.4,0.7-25.3c3.5-3.5,8.1-5.4,13-5.4c4.5,0,8.9,1.6,12.2,4.6l1,0.9c4.8,4.7,11.2,7.3,18,7.3
				c6.9,0,13.3-2.7,18.1-7.5c4.9-4.8,7.5-11.3,7.5-18.2c0-6.9-2.7-13.3-7.5-18.1c-54.7-54.7-127.5-84.8-205.1-84.8
				c-77.6,0-150.4,30.1-205.1,84.8c-4.9,4.9-7.5,11.3-7.5,18.1c0,6.9,2.7,13.3,7.5,18.1c4.9,4.9,11.3,7.5,18.1,7.5
				c6.9,0,13.3-2.7,18.2-7.5c45-45,104.9-69.8,168.8-69.8c41.6,0,82.5,10.8,118.3,31.3c4.3,2.4,7.3,6.4,8.6,11.1
				c1.3,4.7,0.7,9.7-1.8,14c-3.3,5.7-9.4,9.3-16,9.3c-2.9,0-5.8-0.7-8.3-2l-0.3-0.2c-0.2-0.1-0.4-0.2-0.6-0.4l-0.9-0.5
				c-30.1-16.9-64.3-25.9-99.1-25.9c-54,0-104.7,21-142.8,59c-4.9,4.9-7.5,11.3-7.5,18.2c0,6.9,2.7,13.3,7.5,18.2
				c4.8,4.8,11.3,7.5,18.1,7.5c6.8,0,13.3-2.7,18.2-7.5c0.2-0.2,0.4-0.4,0.6-0.6l0.4-0.4c3.3-2.9,7.6-4.5,12-4.5
				c4.9,0,9.5,1.9,13,5.4c6.1,6.1,7.1,15.6,2.5,22.8l-3,3.3c-21.5,21.6-33.3,50.2-33.3,80.7c0,34.4,15.3,66.7,42,88.5l0.3,0.2
				l0.2,0.3c5.6,6.9,5.4,16.8-0.4,23.5c-3.5,4-8.6,6.4-13.9,6.4c-4.1,0-8.1-1.4-11.2-3.8l-0.4-0.4c-0.3-0.2-0.5-0.5-0.8-0.7
				l-0.5-0.5c-20.8-18.2-36.2-41.8-44.5-68.3c-8.6-27.3-9.2-56.3-1.8-83.9c3.7-13.7-4.5-27.8-18.2-31.5c-2.2-0.6-4.4-0.9-6.7-0.9
				c-11.5,0-21.6,7.7-24.7,18.8l-0.3,1.3c-2.5,7.6-9.5,12.6-17.5,12.6c-1.6,0-3.2-0.2-4.8-0.6c-9.4-2.5-15.2-12-13.3-21.5l0.3-1.3
				c3.5-13.6-4.7-27.6-18.2-31.2c-2.2-0.6-4.4-0.9-6.7-0.9c-11.6,0-21.8,7.8-24.8,19c-20,74.7-9.7,152.8,29.1,220
				c38.8,67.2,101.3,115.2,176,135.2c2.2,0.6,4.4,0.9,6.7,0.9c11.6,0,21.8-7.8,24.8-19c1.8-6.6,0.9-13.6-2.6-19.5
				c-3.4-5.9-9-10.2-15.6-12c-103.6-27.8-176.4-122.1-176.9-229.3c0-4.9,1.9-9.5,5.3-13c3.5-3.5,8.1-5.4,13-5.5h0.1
				c9.8,0,17.9,7.6,18.3,17.4l0,1c0,0.2,0,0.3,0,0.5l0,0.2c0,0.1,0,0.1,0,0.2l0,0.1l0,0.1c0.5,43.2,15.3,85.9,41.6,120.4
				c27.3,35.7,64.6,60.7,108,72.4c2.2,0.6,4.4,0.9,6.7,0.9c11.6,0,21.8-7.8,24.8-19c3.6-13.6-4.5-27.7-18.1-31.4l-0.1,0
				c-0.2,0-0.4-0.1-0.5-0.1l-0.8-0.2c-9-3.2-14.2-12.9-11.7-22.1c2.2-8,9.5-13.6,17.7-13.6c0.5,0,1,0,1.5,0.1l3.3,0.8
				c9.6,2.5,19.5,3.8,29.4,3.8c51.2,0,96.5-34.4,110.1-83.7l0.2-0.6c0.1-0.4,0.2-0.9,0.3-1.3l0.1-0.4c0-0.1,0.1-0.3,0.1-0.4l0.2-0.7
				c0.1-0.5,0.3-1,0.4-1.5l0-0.1c0.2-0.9,0.4-1.8,0.6-2.7l0.2-0.8c0-0.1,0-0.2,0.1-0.3l0.1-0.2c0-0.1,0-0.2,0.1-0.3l0.1-0.4
				c0.1-0.7,0.3-1.3,0.5-1.9c2.3-7.7,9.6-13,17.6-13c1.1,0,2.3,0.1,3.4,0.3c9.6,1.8,16.1,10.8,14.8,20.5l0,0.1c0,0.1,0,0.3-0.1,0.5
				l-0.1,0.3c0,0.3-0.1,0.5-0.1,0.8l0,0.2c0,0.1-0.1,0.3-0.1,0.4l0,0.2c-5.4,27.1-18.2,52.2-36.9,72.6
				c-19.3,21.1-44.1,36.1-71.8,43.5c-6.6,1.8-12.2,6-15.6,12c-3.4,5.9-4.3,12.9-2.6,19.5c3,11.2,13.2,19,24.8,19
				c2.1,0,4.3-0.3,6.4-0.8l1.3-0.3c1.2-0.3,2.5-0.4,3.8-0.4c8.3,0,15.6,5.6,17.7,13.6c2.5,9.4-2.7,19.1-12,22.2l-1.3,0.4
				c-13.5,3.7-21.5,17.8-17.9,31.4c3,11.2,13.2,19,24.8,19c2.2,0,4.5-0.3,6.7-0.9c74.7-20,137.2-68,176-135.2
				C684.3,476.3,694.6,398.1,674.6,323.4z M392.3,335.7l0.2,0c1.4,0,2.8,0,4.5,0.1l1.7,0.1c32.6,2.5,58.2,30.1,58.2,62.8
				c0,20.5-10.1,39.8-26.9,51.6l-1.5,1l-0.5,0.3c-0.4,0.3-0.9,0.5-1.3,0.8l-1.5,0.9c-0.5,0.3-0.9,0.5-1.5,0.8c-0.8,0.4-1.4,0.7-2,1
				l-0.1,0c-4.9,2.4-10.1,4.2-15.6,5.3c-8.1,1.6-16.8,1.6-24.9-0.1l-2.8-0.7c-27.5-7-47.4-32.7-47.4-61c0-7.3,1.2-14.5,3.7-21.3
				c2.8-7.7,7-14.8,12.6-20.9l0.2-0.3c11.3-12.4,26.7-19.7,43.4-20.5C391.3,335.7,391.8,335.7,392.3,335.7z"/>
		</defs>
		<clipPath id="SVGID_4_">
			<use xlink:href="#SVGID_3_"  style="overflow:visible;"/>
		</clipPath>
		<path class="st3" d="M991.4,538.8c0,0-1-9.9-365.7,34.9c-29.1,18.3-44.1,10.2-54.9-14.9c-14.1-6.7-21.1-10.6-34.6-17.6
			c-26.4,10.2-46.1-17.1-36.6-35.2c-14.1-12.4-15-14-26.4-25.1c-30.5,5.4-43.2-26.7-31.2-42c-25.9-34.3-51-66-73.9-97.6
			c-18.5,10.8-40.7-10.8-52.2-46.8c-40.7-22.4-42.5-57.1-24.4-70.5c-5.5-15.5-10.6-19.8-14.2-33.9c-40,19.7-63.2-3.7-31.9-41.3
			C328.4,49.3,232.6-220,232.6-220L991.4,538.8z"/>
		<path class="st4" d="M645,895.3c0,0-1-9.9-365.7,34.9c-29.1,18.3-44.1,10.2-54.9-14.9c-14.1-6.7-21.1-10.6-34.6-17.6
			c-26.4,10.2-46.1-17.1-36.6-35.2c-14.1-12.4-15-14-26.4-25.1c-30.5,5.4-43.2-26.7-31.2-42c-25.9-34.3-51-66-73.9-97.6
			C3.3,708.6-18.9,686.9-30.4,651c-40.7-22.4-42.5-57.1-24.4-70.5c-5.5-15.5-10.6-19.8-14.2-33.9c-40,19.7-63.2-3.7-31.9-41.3
			c82.9-99.4-12.9-368.7-12.9-368.7S116,269.4,114.7,320.9c27.8-1.4-31.2,131.4,61.7,239.3c84,97.6,156.4,119.1,172.2,105.7
			c19.6,19.4,79.9-51.3,99.6-33.2c1,11.6,23,40,92.9,15.6C598.2,732,643.2,908.5,645,895.3z"/>
		<path class="st5" d="M1183.2,391.7c0,0-1-9.9-365.7,34.9c-29.1,18.3-44.1,10.2-54.9-14.9c-14.1-6.7-87.4,5.2-77.9-12.9
			c-1.6,9.4-10.7-44.8-23.7-63.7c-15.1-22.1-34.1-10.9-31.2-20.3c-30.5,5.4-52-64-40-79.3c-16.9,1.1,18-24.6-38.6-58.3
			c-68.5-40.7-113.1-39-94.2-61.7c82.9-99.4-32.5-482.6-32.5-482.6s229.8,132.9,228.4,184.4c27.8-1.4-31.2,131.4,61.7,239.3
			c84,97.6,156.4,119.1,172.2,105.7c19.6,19.4,79.9-51.3,99.6-33.2c1,11.6,23,40,92.9,15.6C1136.4,228.4,1181.4,404.9,1183.2,391.7z
			"/>
	</g>
</g>
</svg>
