<?xml version="1.0" encoding="utf-8"?>
<!-- Generator: Adobe Illustrator 25.2.2, SVG Export Plug-In . SVG Version: 6.00 Build 0)  -->
<svg version="1.1" id="레이어_1" xmlns="http://www.w3.org/2000/svg" xmlns:xlink="http://www.w3.org/1999/xlink" x="0px"
	 y="0px" viewBox="0 0 200 300" style="enable-background:new 0 0 200 300;" xml:space="preserve">
<style type="text/css">
	.st0{fill:#1D1F2A;}
	.st1{fill:#FFFFFF;}
</style>
<path class="st0" d="M159.1,126.4c0-0.2-0.1-0.3-0.2-0.4c0,0,0-0.1,0-0.1c-0.1-0.3-0.3-0.5-0.5-0.6l-79-45.7l-0.2-0.1c0,0,0,0,0,0
	c-0.1-0.1-0.3-0.1-0.4-0.1H59.8H41.9c0,0,0,0,0,0c0,0-0.1,0-0.1,0c-0.1,0-0.1,0-0.2,0c0,0-0.1,0-0.1,0c-0.1,0-0.1,0.1-0.2,0.1
	c0,0,0,0,0,0c0,0,0,0,0,0c-0.1,0-0.1,0.1-0.2,0.2c0,0,0,0,0,0c-0.1,0.1-0.1,0.2-0.2,0.3c0,0,0,0.1,0,0.1c0,0.1-0.1,0.2-0.1,0.3
	c0,0,0,0.1,0,0.1l0.1,0.9L59.9,218l0.2,1.1c0,0,0,0,0,0l0.1,0.7c0,0,0,0,0,0c0,0.2,0.1,0.4,0.2,0.5c0,0,0,0,0.1,0.1
	c0.1,0.1,0.3,0.2,0.5,0.3c0,0,0,0,0,0c0,0,0,0,0,0c0,0,0,0,0,0c0,0,0,0,0,0c0,0,0,0,0,0c0,0,0,0,0,0c0,0,0,0,0,0c0,0,0,0,0,0
	c0.1,0,0.1,0,0.1,0h18H98c0,0,0,0,0,0c0.1,0,0.2,0,0.3-0.1c0.1,0,0.2-0.1,0.3-0.1c0,0,0,0,0.1,0c0,0,0.1,0,0.1-0.1
	c0,0,0.1-0.1,0.1-0.1l59.7-92.4h0.1v-0.1l0.4-0.6C159.1,126.9,159.2,126.6,159.1,126.4z M90.3,171.9l-13.8,21.4L62.7,93.9L81,104.5
	L90.3,171.9z M92,169.2l-8.7-63.4l36.2,21L92,169.2z M92.6,173l29.1-45.1h14.4l-41.1,63.4L92.6,173z M80.6,101.5L62.3,90.9l-1.3-9.2
	h16.8L80.6,101.5z M77,197.1l13.8-21.4l2.5,18.3l-13.8,21.4L77,197.1z M121.7,125.3c-0.1,0-0.1-0.1-0.2-0.1l-38.7-22.4l-2.8-20.3
	l73.6,42.8H121.7z"/>
</svg>
