<svg id="Layer_1" data-name="Layer 1" xmlns="http://www.w3.org/2000/svg" width="64" height="64" viewBox="0 0 64 64">
  <title>edu-coin-v01</title>
  <circle cx="32" cy="32" r="32" style="fill: #ffbc36"/>
  <path d="M9.81,40.32H20.63v-3h-6.9v-4H19V30.42H13.73V26.5h6.9v-3H9.81Zm25.9-14.43A8.26,8.26,0,0,0,33,24.13a9.7,9.7,0,0,0-3.57-.63H22.85V40.32h6.53A9.7,9.7,0,0,0,33,39.69a8.11,8.11,0,0,0,2.76-1.76,8,8,0,0,0,1.77-2.66,9.27,9.27,0,0,0,0-6.72A7.85,7.85,0,0,0,35.71,25.89Zm-1.92,8.27a5,5,0,0,1-.93,1.71,4.08,4.08,0,0,1-1.48,1.07,5.06,5.06,0,0,1-2,.38H26.77V26.5h2.61a5.06,5.06,0,0,1,2,.38A4,4,0,0,1,32.86,28a4.88,4.88,0,0,1,.93,1.7,8.11,8.11,0,0,1,0,4.51ZM50.29,23.5v10a5.22,5.22,0,0,1-.22,1.59,3.37,3.37,0,0,1-.65,1.18,2.9,2.9,0,0,1-1.05.74,3.9,3.9,0,0,1-2.8,0,2.81,2.81,0,0,1-1-.75A3.37,3.37,0,0,1,43.87,35a5.22,5.22,0,0,1-.22-1.59v-10H39.74v10a7.88,7.88,0,0,0,.5,2.84,6.42,6.42,0,0,0,1.43,2.23A6.6,6.6,0,0,0,44,40a9,9,0,0,0,6,0,6.69,6.69,0,0,0,2.28-1.45,6.42,6.42,0,0,0,1.43-2.23,7.67,7.67,0,0,0,.51-2.84v-10ZM32,0A32,32,0,1,0,64,32,32,32,0,0,0,32,0Zm0,60A28,28,0,1,1,60,32,28,28,0,0,1,32,60Z" style="fill: #ca9729"/>
</svg>