<?xml version="1.0" encoding="UTF-8"?>
<svg width="256px" height="256px" viewBox="0 0 256 256" version="1.1" xmlns="http://www.w3.org/2000/svg" xmlns:xlink="http://www.w3.org/1999/xlink">
    <title>ELTCOIN</title>
    <g id="Page-1" stroke="none" stroke-width="1" fill="none" fill-rule="evenodd">
        <g id="ELTCOIN" fill="#020202" fill-rule="nonzero">
            <path d="M0.0658434872,123.936666 C2.2975287,53.2848552 61.4032771,-2.17653248 132.059003,0.0656588937 C202.713669,2.30943972 258.17412,61.4022025 255.934487,132.058781 C253.696974,202.710062 194.594934,258.173039 123.938149,255.934556 C53.2850718,253.689716 -2.17961756,194.594304 0.0658434872,123.936666 Z M95.6616585,54.1415715 L74.0500231,54.1415715 L74.0500231,75.1573472 L52.7409263,75.1573472 L52.7409263,96.7617512 L74.0500231,96.7617512 L74.0500231,117.868656 L35.7081664,117.868656 C34.1303035,119.419964 32.5344261,120.954848 30.9353696,122.487082 L30.9353696,122.487082 L30.9353696,134.552107 C32.5789326,136.191894 34.2251448,137.833272 35.86182,139.470411 L35.86182,139.470411 L74.0500231,139.470411 L74.0500231,160.579964 L52.7409263,160.579964 L52.7409263,182.183308 L74.0500231,182.183308 L74.0500231,201.855465 L95.6616585,201.855465 L95.6616585,182.183308 L157.649205,182.183308 L157.649205,168.355579 C154.073317,166.199218 150.812153,163.579796 147.937772,160.579964 L147.937772,160.579964 L95.6621883,160.579964 L95.6621883,139.470411 L136.272819,139.470411 C135.34295,135.79665 134.853378,131.954937 134.853378,128.000902 C134.853378,124.523704 135.240161,121.134456 135.952796,117.868126 L135.952796,117.868126 L95.6616585,117.868126 L95.6616585,96.7612214 L146.694768,96.7612214 C149.857381,93.1971331 153.546126,90.1167691 157.649205,87.6398682 L157.649205,87.6398682 L157.649205,75.1573472 L95.6616585,75.1573472 L95.6616585,54.1415715 Z M185.595076,88.3816139 C163.811242,88.3816139 146.141085,106.04205 146.141085,127.83348 C146.141085,149.62491 163.811242,167.290644 185.595076,167.290644 C207.387916,167.290644 225.059663,149.62491 225.059663,127.83348 C225.059663,106.04205 207.387916,88.3816139 185.595076,88.3816139 Z" id="Shape"></path>
        </g>
    </g>
</svg>
