<svg xmlns="http://www.w3.org/2000/svg" width="256" height="256" viewBox="0 0 256 256"><defs><linearGradient id="prefix__linear-gradient" x1=".636" x2=".997" y1=".506" y2=".764" gradientUnits="objectBoundingBox"><stop offset="0" stop-color="#5a27ed"/><stop offset="1" stop-color="#ab37f4"/></linearGradient><linearGradient id="prefix__linear-gradient-2" x1=".039" x2=".877" y1=".245" y2=".957" gradientUnits="objectBoundingBox"><stop offset="0" stop-color="#7618f4"/><stop offset=".504" stop-color="#575ff8"/><stop offset="1" stop-color="#09ffff"/></linearGradient><linearGradient id="prefix__linear-gradient-3" x1=".17" x2=".918" y1=".498" y2=".744" gradientUnits="objectBoundingBox"><stop offset="0" stop-color="#7f4cff"/><stop offset="1" stop-color="#3095ff"/></linearGradient><linearGradient id="prefix__linear-gradient-4" x1=".14" x2=".791" y1=".056" y2="1.241" gradientUnits="objectBoundingBox"><stop offset="0" stop-color="#7f52ff"/><stop offset="1" stop-color="#3096ff"/></linearGradient><linearGradient id="prefix__linear-gradient-5" x1=".81" x2=".575" y1=".81" y2=".511" gradientUnits="objectBoundingBox"><stop offset="0" stop-color="#fff"/><stop offset=".157" stop-color="#fbffff"/><stop offset=".319" stop-color="#efffff"/><stop offset=".483" stop-color="#daffff"/><stop offset=".648" stop-color="#bdfffe"/><stop offset=".814" stop-color="#98fffe"/><stop offset=".979" stop-color="#6bfffd"/><stop offset="1" stop-color="#65fffd"/></linearGradient><linearGradient id="prefix__linear-gradient-6" x1=".126" x2=".692" y1=".992" y2="-.06" gradientUnits="objectBoundingBox"><stop offset="0" stop-color="#fff" stop-opacity="0"/><stop offset=".515" stop-color="#e6ffff"/><stop offset="1" stop-color="#ceffff" stop-opacity=".502"/></linearGradient><linearGradient id="prefix__linear-gradient-7" x2="1" y1=".5" y2=".5" gradientUnits="objectBoundingBox"><stop offset="0" stop-color="#fff"/><stop offset=".867" stop-color="#fff" stop-opacity=".306"/><stop offset="1" stop-color="#fff" stop-opacity=".2"/></linearGradient><radialGradient id="prefix__radial-gradient" cx=".197" cy=".16" r=".555" gradientUnits="objectBoundingBox"><stop offset="0" stop-color="#7ff"/><stop offset=".394" stop-color="#87e4ff"/><stop offset=".861" stop-color="#6273ff"/><stop offset="1" stop-color="#9468ff"/></radialGradient><radialGradient id="prefix__radial-gradient-2" cx=".502" cy=".478" r=".554" gradientTransform="matrix(.819 -.106 .101 1.15 .031 -.033)" gradientUnits="objectBoundingBox"><stop offset=".497" stop-color="#0ff"/><stop offset="1" stop-color="#00f4ff" stop-opacity="0"/></radialGradient><clipPath id="prefix__clip-path"><circle id="prefix__Ellipse_1482" cx="119.514" cy="119.514" r="119.514" data-name="Ellipse 1482" transform="rotate(-4.226 238.728 8.808)"/></clipPath><style>.prefix__cls-5{fill:#fff}</style></defs><g id="prefix__Group_27940" data-name="Group 27940" transform="translate(2459 19192)"><g id="prefix__图层_1" transform="translate(-2459 -19192)"><g id="prefix__Group_27939" data-name="Group 27939"><g id="prefix__Group_27938" data-name="Group 27938"><g id="prefix__Group_27936" data-name="Group 27936"><g id="prefix__Group_27935" data-name="Group 27935"><path id="prefix__Path_10164" fill="url(#prefix__radial-gradient)" d="M478.5 533.344A119.514 119.514 0 11358.984 413.83 119.513 119.513 0 01478.5 533.344z" data-name="Path 10164" transform="translate(-230.979 -405.366)"/><g id="prefix__Group_27933" data-name="Group 27933"><g id="prefix__Group_27932" clip-path="url(#prefix__clip-path)" data-name="Group 27932"><path id="prefix__Path_10165" fill="url(#prefix__radial-gradient-2)" d="M450.72 537.479c16.465 15.977 29 35.959 31.54 59.866 5.591 52.641-35.353 100.139-91.452 106.1S284.7 671.561 279.111 618.92s26.133-49.072 82.225-55.032c30.612-3.246 79.413-36.088 89.384-26.409z" data-name="Path 10165" transform="translate(-244.297 -446.975)"/></g></g><path id="prefix__Path_10166" fill="url(#prefix__linear-gradient)" d="M455.792 526.742l-.119-1.541H436.1l19.7-16.84-.033-.81a65.137 65.137 0 00-10.043-32.515l-.474-.9h-105.7c-9.984 0-29.38 3.089-43.618 19.014-6.21 6.942-19.514 27.786-19.343 51.166.1 13.159 1.376 23.387 6.342 34.833a106.159 106.159 0 008.41 15.8c10.03 17.993 20.963 30.519 32.495 37.237 9.767 5.684 18.414 6.454 25.593 6.454h59.912l.356-.2c.2-.1 19.8-10.346 37.5-21.1l.514-.31.2-.553c.059-.171.125-.336.184-.494a10.238 10.238 0 00.389-1.047c2.18-6.243 4-19.666 4.88-27.088.356-2.707.56-4.485.56-4.5l.224-1.857h-.072l.151-1.5h-20.91l22.418-16.979.066-.744c1.367-16.513-.001-35.335-.009-35.526z" data-name="Path 10166" transform="translate(-243.651 -425.957)"/><g id="prefix__Group_27934" data-name="Group 27934" transform="translate(35.065 49.876)"><path id="prefix__Path_10167" d="M374.866 658.688s-19.633 1.89-77.516-13.218c23.617 46.062 45.733 48.571 62.191 48.571h56.171s18.658-10.116 36.361-20.864z" class="prefix__cls-5" data-name="Path 10167" transform="translate(-285.805 -534.326)"/><path id="prefix__Path_10168" fill="url(#prefix__linear-gradient-2)" d="M360.892 693.493c-7.093 0-17.051.059-26.93-6.382-17.183-11.2-22.853-20.028-32.673-38.521 44.126 11.328 65.293 12.586 72.425 12.586 1.3 0 2.088-.046 2.437-.072l76.212 12.355c-15.615 9.332-34.043 18.928-36.163 20.041h-55.308z" data-name="Path 10168" transform="translate(-287.15 -535.391)"/><path id="prefix__Path_10169" d="M331.813 583.851s-9.49-11-12.8-19.356l107.357 19.356 27.516-20.838c-.033-17.09-.105-33.443-.105-33.443H319.017s4.762-13.653 13.343-19.079l98.3 18.362 23.2-19.843c-.935-18.664-9.872-30.038-9.872-30.038H340.243c-9.056 0-27.562 2-41.5 17.584s-26.357 50.323-12.994 82.686c13.574 32.87 31.191 37.092 41.149 37.092h119.266c.165-.481.4-.929.56-1.488 2.871-9.708 5.328-30.987 5.328-30.987H331.813z" class="prefix__cls-5" data-name="Path 10169" transform="translate(-279.89 -477.482)"/><path id="prefix__Path_10170" fill="url(#prefix__linear-gradient-3)" d="M376.256 495.64s-38.745 7.554-40.635 8.5-9.451 34.965-9.451 34.965H438.7l28.856-24.405z" data-name="Path 10170" transform="translate(-295.644 -483.173)"/><path id="prefix__Path_10171" fill="url(#prefix__linear-gradient-4)" d="M377.379 577.64s-38.745 7.561-40.628 8.509-9.451 34.958-9.451 34.958h108.378l33.122-25.013z" data-name="Path 10171" transform="translate(-296.03 -511.168)"/><path id="prefix__Path_10172" fill="url(#prefix__linear-gradient-5)" d="M453.82 562.241H319.052c3.306 8.364 12.8 19.356 12.8 19.356h120.242s-2.364 23.729-5.433 32.469h-116.2c-14.812 0-30.736-4.959-44.672-37.085s-.942-67.1 12.994-82.686 32.442-17.584 41.491-17.584h103.752s8.983 12.395 9.767 31.527H332.4c-8.581 5.433-13.35 19.079-13.35 19.079h134.763a257.32 257.32 0 01.007 34.924z" data-name="Path 10172" transform="translate(-279.82 -476.71)"/></g></g><path id="prefix__Path_10173" fill="url(#prefix__linear-gradient-6)" d="M429.78 454.607s-46.878-18.6-89.186 5.328c-37.079 20.976-79.136 54.5-47.9 123.308-28.221-40.266-28.524-72.985-6.362-107.265 20.95-32.402 82.613-61.947 143.448-21.371z" data-name="Path 10173" transform="translate(-241.586 -412.555)"/></g><g id="prefix__Group_27937" data-name="Group 27937" transform="translate(8.49 8.424)"><path id="prefix__Path_10174" fill="url(#prefix__linear-gradient-7)" d="M358.878 413.77a120.086 120.086 0 00-114.864 152.813s-.053-1.153-.119-3.253c-.382-12.493 1.232-58.457 24.691-54.452s57.8 10.952 98.433-.25 73.018-49.2 52.147-78.537c.006-.001-24.434-16.321-60.288-16.321z" data-name="Path 10174" opacity=".4" transform="translate(-239.468 -413.77)"/></g><path id="prefix__Path_10175" d="M366.652 471.774c2.911 7.409-7.027 16.28-19.475 18.994s-24.994-1.357-27.193-9c-3.491-12.138 8.614-16.458 21.062-19.165s19.754-5.733 25.606 9.171z" class="prefix__cls-5" data-name="Path 10175" transform="translate(-258.259 -421.253)"/></g></g></g></g></svg>