<?xml version="1.0" encoding="UTF-8"?>
<svg width="638px" height="639px" viewBox="0 0 638 639" version="1.1" xmlns="http://www.w3.org/2000/svg" xmlns:xlink="http://www.w3.org/1999/xlink">
    <!-- Generator: Sketch 51.2 (57519) - http://www.bohemiancoding.com/sketch -->
    <title>Slice 1</title>
    <desc>Created with Sketch.</desc>
    <defs>
        <polygon id="path-1" points="0.179824314 0.755 490.791 0.755 490.791 491.0808 0.179824314 491.0808"></polygon>
        <polygon id="path-3" points="0 0.665351175 490.606198 0.665351175 490.606198 490.9998 0 490.9998"></polygon>
    </defs>
    <g id="Page-1" stroke="none" stroke-width="1" fill="none" fill-rule="evenodd">
        <g id="logo">
            <g id="Page-1-Copy">
                <path d="M367.0268,427.6481 L171.8488,427.6481 C158.2278,427.6481 147.1858,416.6021 147.1858,402.9831 C147.1858,389.3641 158.2278,378.3181 171.8488,378.3181 L367.0268,378.3181 C380.6478,378.3181 391.6918,389.3641 391.6918,402.9831 C391.6918,416.6021 380.6478,427.6481 367.0268,427.6481" id="Fill-1" fill="#101425" fill-rule="nonzero"></path>
                <path d="M465.9897,599.0153 C457.4617,599.0153 449.1777,594.5993 444.6067,586.6803 L345.6677,415.3103 C338.8617,403.5173 342.8987,388.4373 354.6987,381.6213 C366.5177,374.8073 381.5807,378.8523 388.3857,390.6553 L487.3257,562.0233 C494.1317,573.8163 490.0937,588.8993 478.2937,595.7123 C474.4117,597.9563 470.1707,599.0153 465.9897,599.0153" id="Fill-3" fill="#101425" fill-rule="nonzero"></path>
                <g id="Group-7" transform="translate(147.000000, 0.245000)">
                    <g id="Fill-5-Clipped">
                        <mask id="mask-2" fill="white">
                            <use xlink:href="#path-1"></use>
                        </mask>
                        <g id="path-1"></g>
                        <path d="M426.5639,491.0808 C422.3819,491.0808 418.1439,490.0188 414.2589,487.7748 C402.4589,480.9618 398.4239,465.8808 405.2269,454.0888 C441.2199,391.7588 450.7769,319.1608 432.1449,249.6378 C413.5209,180.1238 368.9319,122.0198 306.6129,86.0398 C223.5029,38.0628 120.2649,38.0708 37.1779,86.0398 C25.3829,92.8448 10.3049,88.8058 3.4899,77.0128 C-3.3241,65.2148 0.7209,50.1318 12.5129,43.3208 C61.6689,14.9448 116.7819,0.7548 171.8939,0.7548 C227.0069,0.7548 282.1179,14.9448 331.2709,43.3208 C405.0069,85.8948 457.7519,154.6318 479.7919,236.8738 C501.8299,319.1198 490.5229,405.0158 447.9459,478.7458 C443.3769,486.6638 435.0839,491.0808 426.5639,491.0808" id="Fill-5" fill="#00A7D2" fill-rule="nonzero" mask="url(#mask-2)"></path>
                    </g>
                </g>
                <path d="M424.5034,344.2824 L213.2884,344.2824 C199.6674,344.2824 188.6284,333.2384 188.6284,319.6174 C188.6284,305.9954 199.6674,294.9574 213.2884,294.9574 L424.5034,294.9574 C438.1244,294.9574 449.1684,305.9954 449.1684,319.6174 C449.1684,333.2384 438.1214,344.2824 424.5034,344.2824" id="Fill-8" fill="#00A7D2" fill-rule="nonzero"></path>
                <path d="M465.9399,260.9117 L270.7649,260.9117 C257.1469,260.9117 246.1049,249.8697 246.1049,236.2537 C246.1049,222.6327 257.1469,211.5937 270.7649,211.5937 L465.9399,211.5917 C479.5589,211.5917 490.6059,222.6327 490.6059,236.2537 C490.6059,249.8697 479.5589,260.9117 465.9399,260.9117" id="Fill-10" fill="#00A7D2" fill-rule="nonzero"></path>
                <path d="M270.7885,260.922 C262.2675,260.922 253.9795,256.5 249.4105,248.589 L150.4615,77.216 C143.6525,65.419 147.6975,50.338 159.4875,43.522 C171.2805,36.737 186.3665,40.764 193.1805,52.551 L292.1295,223.924 C298.9375,235.719 294.8925,250.803 283.1015,257.616 C279.2185,259.855 274.9755,260.922 270.7885,260.922" id="Fill-12" fill="#00A7D2" fill-rule="nonzero"></path>
                <g id="Group-16" transform="translate(0.000000, 147.245000)">
                    <g id="Fill-14-Clipped">
                        <mask id="mask-4" fill="white">
                            <use xlink:href="#path-3"></use>
                        </mask>
                        <g id="path-3"></g>
                        <path d="M318.8999,490.9998 C263.7819,490.9998 208.6729,476.8108 159.5129,448.4258 C85.7819,405.8498 33.0369,337.1118 11.0009,254.8708 C-11.0401,172.6278 0.2719,86.7288 42.8429,12.9968 C49.6649,1.2068 64.7479,-2.8382 76.5359,3.9748 C88.3289,10.7828 92.3729,25.8638 85.5649,37.6588 C49.5769,99.9858 40.0149,172.5948 58.6419,242.1088 C77.2689,311.6258 121.8519,369.7248 184.1779,405.7048 C267.2789,453.6918 370.5039,453.6918 453.6129,405.7128 C465.4239,398.8988 480.4939,402.9438 487.2999,414.7448 C494.1049,426.5368 490.0709,441.6178 478.2709,448.4318 C429.1179,476.8008 374.0029,490.9998 318.8999,490.9998" id="Fill-14" fill="#101425" fill-rule="nonzero" mask="url(#mask-4)"></path>
                    </g>
                </g>
            </g>
        </g>
    </g>
</svg>