<?xml version="1.0" encoding="utf-8"?>
<!-- Generator: Adobe Illustrator 20.0.0, SVG Export Plug-In . SVG Version: 6.00 Build 0)  -->
<svg version="1.1"
	 id="Layer_1" inkscape:version="0.91 r13725" sodipodi:docname="ens.svg" xmlns:cc="http://creativecommons.org/ns#" xmlns:dc="http://purl.org/dc/elements/1.1/" xmlns:inkscape="http://www.inkscape.org/namespaces/inkscape" xmlns:rdf="http://www.w3.org/1999/02/22-rdf-syntax-ns#" xmlns:sodipodi="http://sodipodi.sourceforge.net/DTD/sodipodi-0.dtd" xmlns:svg="http://www.w3.org/2000/svg"
	 xmlns="http://www.w3.org/2000/svg" xmlns:xlink="http://www.w3.org/1999/xlink" x="0px" y="0px" viewBox="0 0 674.6 779"
	 style="enable-background:new 0 0 674.6 779;" xml:space="preserve">
<style type="text/css">
	.st0{fill:#1DD155;}
	.st1{fill:#FFFFFF;}
</style>
<sodipodi:namedview  bordercolor="#666666" borderopacity="1" fit-margin-bottom="0" fit-margin-left="0" fit-margin-right="0" fit-margin-top="0" gridtolerance="10" guidetolerance="10" id="namedview53" inkscape:current-layer="Layer_1" inkscape:cx="393.518" inkscape:cy="589.148" inkscape:pageopacity="0" inkscape:pageshadow="2" inkscape:window-height="480" inkscape:window-maximized="0" inkscape:window-width="699" inkscape:window-x="0" inkscape:window-y="0" inkscape:zoom="0.080729167" objecttolerance="10" pagecolor="#ffffff" showgrid="false">
	</sodipodi:namedview>
<polygon id="polygon3" class="st0" points="337.3,0 674.6,194.7 674.6,584.2 337.3,779 0,584.2 0,194.7 "/>
<g id="g49" transform="translate(-1526.482,-490.852)">
	<path id="path51" inkscape:connector-curvature="0" class="st1" d="M2075.9,793.8c13.5-20,23.4-44.3,20.7-64.8
		c-3-14.7-13.2-25.4-28.1-23.4c-21,2.8-34.5,27.5-31,54.1c1.5,11.8,6.1,22.7,12.1,32.8c-5.3,7-9.7,13.3-14.9,21.3
		c-1.3,2.3-2,5-1.7,7c0.4,3.1,1.9,6.5,4.7,8.2c2.3,1.8,5.5,1.9,8,1.6c3.1-0.4,6-2.3,7.7-5.2c2.5-4.5,5.6-9.1,8.7-13.1
		c33.4,44.1,43.1,58,46.5,80.5c4.6,42.7-21.6,73.8-63.2,79.2c-29.7,3.9-58.8-14.7-62.9-46c-2.1-31.5,13.3-57.6,41.5-61.3
		c13.3-1.7,27.8,9.4,31.1,26.7c0.8,6.2,6,10.2,12.2,9.4c6.2-0.8,10.2-6,9.4-12.2c-4.7-28.1-29.4-48.8-56-45.3
		c-25.8,3.4-44,18-53.2,39.9c-0.5,0.8-0.9,1.7-1.2,2.7c-22.4,71.8-37.3,101.4-61.4,104.5c-10.8,1.4-16.3-4.7-18.2-19.5
		c-5.2-39.5,26-111.9,20-157.5c-3.6-27.2-17.6-46.7-54.5-41.9c-16.9,2.2-31.5,14-44.4,31.4l2.8-10.8c1.7-7-4.4-14-12.1-13
		c-4.6,0.6-8.4,3.7-9.3,8.5c-7.2,32.2-16.6,76.7-26.5,123.2c-0.3,0.6-0.6,1.2-0.9,1.9c-20,69.9-49,104-91.1,108.4
		c-30.9,3-49.7-12.8-52.5-42.2c-0.9-10.8-0.6-20.8,1.2-34.6c55.1-21.3,127.2-64.1,120.1-118.5c-3.2-24.6-22.9-35.6-48.6-32.2
		c-60.5,7.9-99.9,121.6-94.3,187.6c4.5,42.2,33.8,67,76.4,61.4c28.1-3.7,51.1-16.8,70.1-40.6c-1.3,5.9-2.5,11.6-3.8,17.3
		c-1.2,6.4,2.6,11.7,8.5,13c5.8,0.8,11.7-2.6,12.9-9l22.2-104.2c0-0.1,0.1-0.3,0.1-0.4c0.2-0.8,0.3-1.5,0.4-2.2
		c10.8-45.8,40.6-119.5,71.7-123.6c20-2.6,28.2,8.3,30.2,23.2c5.8,44.6-26.4,109.3-20,157.5c3.3,25.1,18,41.5,42.6,38.2
		c25-3.3,42.5-21.4,59.5-61.7c13.7,29.5,46.3,47.9,81,43.3c51.8-6.8,88.2-47.5,81.9-103.1C2125.2,855.6,2109,839.5,2075.9,793.8
		L2075.9,793.8z M2059,756.3c-0.9-7.2-0.6-16.6,4.7-23.6c4.5-5.8,9.9-8.1,10.8-0.9c1.5,11.3-4.1,28.2-10.9,40.5
		C2061.4,767,2059.7,762,2059,756.3L2059,756.3z M1693.8,815.2c11.3-1.5,22.4-0.3,24.2,13.5c5,37.9-52.8,71.1-93.6,90
		C1635.6,877,1658.4,819.8,1693.8,815.2z"/>
</g>
</svg>
