<?xml version="1.0" encoding="UTF-8"?>
<svg width="164.62" height="164.62" version="1.1" viewBox="0 0 164.62 164.62" xml:space="preserve" xmlns="http://www.w3.org/2000/svg" xmlns:cc="http://creativecommons.org/ns#" xmlns:dc="http://purl.org/dc/elements/1.1/" xmlns:rdf="http://www.w3.org/1999/02/22-rdf-syntax-ns#"><metadata><rdf:RDF><cc:Work rdf:about=""><dc:format>image/svg+xml</dc:format><dc:type rdf:resource="http://purl.org/dc/dcmitype/StillImage"/><dc:title/></cc:Work></rdf:RDF></metadata><defs><clipPath id="clipPath20"><path d="m0 768h1366v-768h-1366z"/></clipPath><radialGradient id="radialGradient78" cx="0" cy="0" r="1" gradientTransform="matrix(54.295 -77.901 -77.901 -54.295 383.69 379.46)" gradientUnits="userSpaceOnUse"><stop stop-color="#00d5ff" offset="0"/><stop stop-color="#00d5ff" offset=".088894"/><stop stop-color="#3a4aff" offset=".5"/><stop stop-color="#7e20ff" offset="1"/></radialGradient><clipPath id="clipPath88"><path d="m0 768h1366v-768h-1366z"/></clipPath><radialGradient id="radialGradient158" cx="0" cy="0" r="1" gradientTransform="matrix(47.612 -68.312 -68.312 -47.612 281.42 588.57)" gradientUnits="userSpaceOnUse"><stop stop-color="#00d5ff" offset="0"/><stop stop-color="#00d5ff" offset=".088894"/><stop stop-color="#3a4aff" offset=".5"/><stop stop-color="#7e20ff" offset="1"/></radialGradient><clipPath id="clipPath168"><path d="m0 768h1366v-768h-1366z"/></clipPath><radialGradient id="radialGradient246" cx="0" cy="0" r="1" gradientTransform="matrix(69.494 -99.708 -99.708 -69.494 977.12 605.33)" gradientUnits="userSpaceOnUse"><stop stop-color="#00d5ff" offset="0"/><stop stop-color="#00d5ff" offset=".088894"/><stop stop-color="#3a4aff" offset=".5"/><stop stop-color="#7e20ff" offset="1"/></radialGradient><clipPath id="clipPath256"><path d="m0 768h1366v-768h-1366z"/></clipPath></defs><g transform="matrix(1.3333 0 0 -1.3333 -1268.3 821.94)"><path d="m0 0h1366v768h-1366z" display="none" fill="#010a24"/><g display="none"><g clip-path="url(#clipPath20)"><g transform="translate(321.55 245.23)"><path d="m0 0c0 1.131-0.152 2.213-0.455 3.244-0.304 1.031-0.749 1.93-1.334 2.699-0.587 0.767-1.334 1.384-2.244 1.849-0.909 0.465-1.992 0.698-3.244 0.698-2.467 0-4.357-0.749-5.67-2.244-1.315-1.496-2.114-3.578-2.396-6.246zm-15.403-4.488c0.08-3.395 0.96-5.882 2.637-7.459 1.677-1.576 4.155-2.365 7.429-2.365 2.87 0 5.599 0.505 8.187 1.516 0.323-0.606 0.586-1.344 0.788-2.213 0.202-0.87 0.323-1.728 0.364-2.577-1.334-0.567-2.8-0.991-4.397-1.274s-3.366-0.424-5.306-0.424c-2.83 0-5.256 0.393-7.277 1.182-2.022 0.788-3.69 1.9-5.003 3.335-1.314 1.434-2.274 3.133-2.88 5.094-0.607 1.961-0.91 4.113-0.91 6.459 0 2.304 0.292 4.457 0.879 6.458 0.585 2.001 1.486 3.739 2.699 5.215s2.738 2.648 4.579 3.518c1.839 0.869 4.011 1.303 6.518 1.303 2.143 0 4.023-0.363 5.64-1.091 1.616-0.728 2.972-1.729 4.063-3.001 1.092-1.274 1.92-2.79 2.487-4.549 0.565-1.759 0.848-3.669 0.848-5.731 0-0.566-0.02-1.162-0.06-1.789-0.041-0.627-0.081-1.162-0.121-1.607z" fill="#fff"/></g><g transform="translate(352.3 252.99)"><path d="m0 0c-0.567 0.121-1.042 0.212-1.426 0.273-0.384 0.06-0.748 0.1-1.091 0.121-0.344 0.02-0.688 0.04-1.031 0.061-0.344 0.02-0.738 0.03-1.182 0.03-1.78 0-3.335-0.303-4.67-0.91-1.334-0.606-2.436-1.455-3.305-2.547-0.87-1.091-1.526-2.385-1.971-3.881s-0.667-3.153-0.667-4.973c0-1.819 0.242-3.375 0.728-4.669 0.485-1.294 1.161-2.356 2.031-3.184 0.869-0.829 1.89-1.425 3.063-1.789 1.172-0.363 2.465-0.546 3.881-0.546 1.05 0 2.051 0.081 3.002 0.243 0.95 0.162 1.828 0.343 2.638 0.546zm0-26.319c-0.85-0.202-1.749-0.364-2.699-0.485s-2.012-0.182-3.184-0.182c-2.102 0-4.103 0.253-6.003 0.758-1.901 0.505-3.569 1.365-5.004 2.577-1.435 1.214-2.577 2.799-3.425 4.76-0.849 1.961-1.274 4.397-1.274 7.308 0 2.507 0.394 4.811 1.183 6.914 0.788 2.101 1.91 3.911 3.365 5.427s3.224 2.688 5.307 3.517c2.081 0.829 4.416 1.243 7.004 1.243 2.263 0 4.204-0.121 5.821-0.364 1.617-0.242 3.234-0.586 4.851-1.03v-44.755c-0.445-0.08-0.939-0.14-1.485-0.182-0.546-0.04-1.041-0.06-1.486-0.06-0.446 0-0.94 0.02-1.486 0.06-0.546 0.042-1.041 0.102-1.485 0.182z" fill="#fff"/></g><g transform="translate(363.88 257.78)"><path d="m0 0c0.444 0.08 0.95 0.141 1.517 0.182 0.565 0.039 1.05 0.06 1.455 0.06 0.444 0 0.949-0.021 1.516-0.06 0.566-0.041 1.071-0.102 1.516-0.182v-17.041c0-1.94 0.182-3.548 0.546-4.821 0.364-1.274 0.91-2.274 1.638-3.002 0.727-0.727 1.616-1.234 2.667-1.516 1.051-0.283 2.264-0.425 3.639-0.425 2.062 0 3.82 0.222 5.277 0.668v26.137c0.444 0.08 0.939 0.141 1.485 0.182 0.546 0.039 1.04 0.06 1.485 0.06 0.446 0 0.941-0.021 1.487-0.06 0.545-0.041 1.04-0.102 1.485-0.182v-30.14c-1.416-0.404-3.103-0.788-5.064-1.152-1.962-0.364-3.993-0.545-6.094-0.545-1.982 0-3.851 0.172-5.61 0.515-1.758 0.343-3.304 1.04-4.638 2.092-1.335 1.051-2.386 2.526-3.155 4.427-0.768 1.9-1.152 4.406-1.152 7.52z" fill="#fff"/></g><g transform="translate(412.52 241.29)"><path d="m0 0c-0.606 0.081-1.375 0.161-2.304 0.243-0.931 0.08-1.719 0.121-2.366 0.121-2.507 0-4.417-0.466-5.73-1.395-1.314-0.93-1.971-2.345-1.971-4.245 0-1.213 0.222-2.163 0.668-2.85 0.444-0.688 1-1.213 1.667-1.577 0.667-0.363 1.404-0.586 2.213-0.667 0.808-0.082 1.577-0.121 2.305-0.121 0.929 0 1.889 0.05 2.88 0.151s1.869 0.253 2.638 0.455zm0 5.882c0 2.385-0.606 4.042-1.819 4.973-1.213 0.93-2.972 1.395-5.277 1.395-1.415 0-2.739-0.112-3.971-0.333-1.234-0.224-2.437-0.516-3.608-0.88-0.768 1.334-1.152 2.931-1.152 4.791 1.374 0.444 2.889 0.788 4.548 1.03 1.657 0.243 3.254 0.364 4.791 0.364 4.042 0 7.115-0.92 9.217-2.759 2.102-1.84 3.154-4.781 3.154-8.823v-19.466c-1.416-0.325-3.134-0.658-5.154-1.001-2.023-0.343-4.085-0.515-6.186-0.515-1.982 0-3.771 0.181-5.368 0.546-1.597 0.363-2.951 0.949-4.063 1.758-1.112 0.808-1.97 1.839-2.577 3.093-0.606 1.252-0.909 2.768-0.909 4.548 0 1.738 0.353 3.264 1.061 4.579 0.707 1.313 1.667 2.404 2.88 3.274 1.213 0.869 2.608 1.516 4.184 1.94 1.577 0.425 3.234 0.637 4.974 0.637 1.293 0 2.354-0.03 3.183-0.091 0.828-0.06 1.526-0.131 2.092-0.212z" fill="#fff"/></g><g transform="translate(423.68 271.12)"><path d="m0 0c0.444 0.081 0.939 0.141 1.485 0.182 0.546 0.04 1.04 0.061 1.487 0.061 0.444 0 0.939-0.021 1.485-0.061 0.546-0.041 1.04-0.101 1.486-0.182v-35.051c0-1.133 0.1-2.022 0.303-2.669 0.202-0.647 0.475-1.142 0.818-1.486 0.343-0.343 0.748-0.566 1.213-0.666 0.464-0.102 0.96-0.151 1.486-0.151 0.364 0 0.778 0.019 1.243 0.06 0.465 0.04 0.859 0.1 1.183 0.182 0.364-1.416 0.545-2.951 0.545-4.609-0.566-0.202-1.253-0.334-2.061-0.395-0.809-0.06-1.557-0.09-2.243-0.09-1.174 0-2.266 0.142-3.276 0.424-1.011 0.283-1.9 0.748-2.668 1.395-0.768 0.646-1.375 1.516-1.82 2.608-0.444 1.091-0.666 2.446-0.666 4.063z" fill="#fff"/></g><g transform="translate(439.39 264.64)"><path d="m0 0c-0.081 0.485-0.131 1.01-0.151 1.577-0.021 0.566-0.031 1.07-0.031 1.516 0 0.444 0.01 0.949 0.031 1.516 0.02 0.566 0.07 1.071 0.151 1.516 0.525 0.081 1.092 0.141 1.699 0.182 0.606 0.04 1.131 0.061 1.576 0.061s0.971-0.021 1.578-0.061c0.606-0.041 1.151-0.101 1.636-0.182 0.08-0.445 0.131-0.95 0.152-1.516 0.019-0.567 0.03-1.072 0.03-1.516 0-0.446-0.011-0.95-0.03-1.516-0.021-0.567-0.072-1.092-0.152-1.577-0.485-0.081-1.021-0.142-1.606-0.182-0.587-0.04-1.103-0.061-1.547-0.061-0.485 0-1.031 0.021-1.637 0.061-0.607 0.04-1.174 0.101-1.699 0.182m1.335-11.583h-3.942c-0.081 0.324-0.142 0.698-0.182 1.123-0.041 0.424-0.061 0.838-0.061 1.242s0.02 0.82 0.061 1.243c0.04 0.425 0.101 0.799 0.182 1.123h9.824v-31.11c-0.446-0.08-0.94-0.141-1.486-0.182-0.545-0.04-1.041-0.06-1.485-0.06-0.405 0-0.88 0.02-1.426 0.06-0.546 0.041-1.041 0.102-1.485 0.182z" fill="#fff"/></g><g transform="translate(449.64 227.52)"><path d="m0 0 16.374 25.47h-14.433c-0.121 0.727-0.181 1.535-0.181 2.425 0 0.85 0.06 1.638 0.181 2.366h23.347l0.304-0.789-16.495-25.531h15.464c0.121-0.809 0.181-1.637 0.181-2.486 0-0.809-0.06-1.577-0.181-2.304h-24.257z" fill="#fff"/></g><g transform="translate(496.88 245.23)"><path d="m0 0c0 1.131-0.151 2.213-0.455 3.244s-0.748 1.93-1.334 2.699c-0.586 0.767-1.334 1.384-2.244 1.849-0.909 0.465-1.991 0.698-3.244 0.698-2.467 0-4.357-0.749-5.67-2.244-1.315-1.496-2.114-3.578-2.396-6.246zm-15.403-4.488c0.08-3.395 0.96-5.882 2.637-7.459 1.678-1.576 4.155-2.365 7.43-2.365 2.869 0 5.599 0.505 8.186 1.516 0.323-0.606 0.586-1.344 0.789-2.213 0.202-0.87 0.323-1.728 0.364-2.577-1.335-0.567-2.801-0.991-4.398-1.274s-3.365-0.424-5.305-0.424c-2.83 0-5.256 0.393-7.278 1.182-2.022 0.788-3.689 1.9-5.002 3.335-1.315 1.434-2.275 3.133-2.88 5.094-0.608 1.961-0.911 4.113-0.911 6.459 0 2.304 0.293 4.457 0.879 6.458s1.486 3.739 2.7 5.215c1.213 1.476 2.737 2.648 4.578 3.518 1.839 0.869 4.011 1.303 6.518 1.303 2.144 0 4.023-0.363 5.641-1.091 1.616-0.728 2.972-1.729 4.062-3.001 1.092-1.274 1.92-2.79 2.487-4.549 0.565-1.759 0.848-3.669 0.848-5.731 0-0.566-0.02-1.162-0.06-1.789-0.041-0.627-0.081-1.162-0.121-1.607z" fill="#fff"/></g><g transform="translate(507.07 257.78)"><path d="m0 0c0.444 0.08 0.869 0.141 1.273 0.182 0.405 0.039 0.829 0.06 1.274 0.06 0.444 0 0.889-0.021 1.335-0.06 0.444-0.041 0.848-0.102 1.212-0.182 0.122-0.607 0.243-1.406 0.364-2.396 0.121-0.991 0.182-1.829 0.182-2.516 0.849 1.373 1.97 2.566 3.366 3.578 1.394 1.01 3.183 1.516 5.366 1.516 0.323 0 0.657-0.011 1.001-0.031 0.343-0.021 0.637-0.051 0.88-0.09 0.08-0.365 0.141-0.749 0.182-1.153 0.04-0.405 0.06-0.829 0.06-1.274 0-0.485-0.03-0.99-0.091-1.515-0.06-0.526-0.132-1.031-0.212-1.516-0.324 0.08-0.658 0.121-1.001 0.121h-0.819c-1.091 0-2.133-0.152-3.123-0.455s-1.879-0.84-2.668-1.607c-0.788-0.768-1.415-1.819-1.88-3.154-0.465-1.334-0.697-3.053-0.697-5.154v-15.464c-0.445-0.08-0.941-0.141-1.486-0.182-0.545-0.04-1.041-0.06-1.486-0.06s-0.94 0.02-1.485 0.06c-0.546 0.041-1.062 0.102-1.547 0.182z" fill="#fff"/></g></g></g><g display="none"><path d="m363.44 339.93c0-26.636 21.593-48.23 48.231-48.23 26.637 0 48.231 21.594 48.231 48.23 0 26.638-21.594 48.231-48.231 48.231-26.638 0-48.231-21.593-48.231-48.231" fill="url(#radialGradient78)"/></g><g display="none"><g clip-path="url(#clipPath88)"><g transform="translate(411.67 350.67)"><path d="m0 0c-14.374 0-26.025 2.295-26.025 5.128 0 2.832 11.651 5.128 26.025 5.128 14.373 0 26.024-2.296 26.024-5.128 0-2.833-11.651-5.128-26.024-5.128" fill="#010a24"/></g><g transform="translate(411.67 335.05)"><path d="m0 0c-14.374 0-26.025 2.296-26.025 5.128s11.651 5.128 26.025 5.128c14.373 0 26.024-2.296 26.024-5.128s-11.651-5.128-26.024-5.128" fill="#010a24"/></g><g transform="translate(411.67 318.93)"><path d="m0 0c-14.374 0-26.025 2.296-26.025 5.128s11.651 5.128 26.025 5.128c14.373 0 26.024-2.296 26.024-5.128s-11.651-5.128-26.024-5.128" fill="#010a24"/></g><g transform="translate(382.56 554.89)"><path d="m0 0c0 0.992-0.134 1.94-0.399 2.844-0.266 0.903-0.657 1.692-1.169 2.365-0.515 0.673-1.17 1.214-1.967 1.622-0.798 0.406-1.746 0.611-2.844 0.611-2.162 0-3.819-0.656-4.971-1.967-1.151-1.311-1.851-3.136-2.099-5.475zm-13.502-3.934c0.07-2.976 0.841-5.156 2.312-6.538 1.47-1.382 3.641-2.073 6.511-2.073 2.517 0 4.908 0.442 7.177 1.329 0.283-0.532 0.513-1.179 0.69-1.94 0.178-0.762 0.285-1.515 0.32-2.26-1.17-0.496-2.454-0.867-3.854-1.116-1.4-0.248-2.95-0.372-4.651-0.372-2.482 0-4.607 0.345-6.379 1.037-1.772 0.69-3.234 1.665-4.386 2.923-1.151 1.257-1.993 2.746-2.524 4.465s-0.798 3.605-0.798 5.662c0 2.019 0.257 3.907 0.772 5.661 0.512 1.754 1.301 3.277 2.365 4.571 1.062 1.293 2.4 2.321 4.012 3.083 1.613 0.762 3.517 1.143 5.715 1.143 1.878 0 3.526-0.319 4.944-0.957 1.417-0.638 2.604-1.515 3.561-2.631s1.683-2.445 2.18-3.987c0.496-1.541 0.744-3.215 0.744-5.023 0-0.497-0.019-1.019-0.053-1.568-0.036-0.55-0.072-1.019-0.106-1.409z" fill="#fff"/></g><g transform="translate(409.52 561.7)"><path d="m0 0c-0.497 0.106-0.913 0.186-1.249 0.239-0.337 0.053-0.656 0.088-0.957 0.107-0.302 0.017-0.603 0.034-0.903 0.053-0.302 0.017-0.648 0.026-1.037 0.026-1.56 0-2.923-0.265-4.093-0.797-1.169-0.531-2.136-1.275-2.897-2.232-0.762-0.958-1.339-2.092-1.727-3.403-0.391-1.311-0.585-2.764-0.585-4.358 0-1.595 0.212-2.96 0.637-4.093 0.425-1.135 1.019-2.065 1.781-2.791 0.761-0.727 1.656-1.25 2.684-1.568 1.028-0.319 2.161-0.479 3.403-0.479 0.921 0 1.797 0.071 2.63 0.213s1.604 0.301 2.313 0.479zm0-23.07c-0.744-0.177-1.533-0.319-2.365-0.425-0.833-0.106-1.764-0.159-2.791-0.159-1.843 0-3.597 0.221-5.263 0.664s-3.128 1.196-4.385 2.259c-1.258 1.064-2.259 2.454-3.004 4.173-0.744 1.718-1.116 3.854-1.116 6.406 0 2.196 0.346 4.216 1.037 6.059s1.674 3.428 2.95 4.758c1.276 1.329 2.826 2.356 4.651 3.083 1.825 0.726 3.872 1.089 6.14 1.089 1.984 0 3.685-0.106 5.103-0.318 1.417-0.213 2.835-0.515 4.252-0.904v-39.23c-0.39-0.07-0.823-0.123-1.302-0.159-0.478-0.035-0.913-0.053-1.303-0.053s-0.823 0.018-1.301 0.053c-0.479 0.036-0.913 0.089-1.303 0.159z" fill="#fff"/></g><g transform="translate(419.67 565.9)"><path d="m0 0c0.39 0.07 0.832 0.124 1.329 0.159 0.496 0.035 0.921 0.053 1.275 0.053 0.39 0 0.833-0.018 1.33-0.053 0.496-0.035 0.938-0.089 1.329-0.159v-14.938c0-1.7 0.159-3.109 0.478-4.225 0.319-1.117 0.797-1.993 1.436-2.631 0.637-0.638 1.416-1.082 2.338-1.33s1.984-0.372 3.189-0.372c1.808 0 3.349 0.195 4.625 0.585v22.911c0.39 0.07 0.824 0.124 1.303 0.159 0.477 0.035 0.911 0.053 1.302 0.053 0.389 0 0.824-0.018 1.302-0.053 0.479-0.035 0.911-0.089 1.303-0.159v-26.419c-1.242-0.355-2.721-0.691-4.439-1.01-1.72-0.319-3.5-0.478-5.342-0.478-1.737 0-3.376 0.151-4.917 0.452-1.542 0.3-2.898 0.912-4.067 1.833-1.17 0.921-2.091 2.215-2.764 3.881-0.674 1.665-1.01 3.862-1.01 6.591z" fill="#fff"/></g><g transform="translate(462.31 551.44)"><path d="m0 0c-0.532 0.071-1.205 0.142-2.021 0.213-0.815 0.07-1.505 0.106-2.073 0.106-2.197 0-3.872-0.408-5.022-1.223-1.153-0.815-1.729-2.055-1.729-3.721 0-1.062 0.196-1.896 0.586-2.498 0.389-0.603 0.877-1.063 1.461-1.381 0.585-0.32 1.232-0.515 1.941-0.586s1.381-0.106 2.02-0.106c0.815 0 1.656 0.044 2.524 0.133 0.869 0.088 1.639 0.221 2.313 0.398zm0 5.156c0 2.091-0.532 3.544-1.595 4.359s-2.604 1.223-4.625 1.223c-1.241 0-2.401-0.098-3.481-0.293-1.081-0.195-2.136-0.451-3.163-0.77-0.673 1.169-1.01 2.569-1.01 4.199 1.204 0.39 2.533 0.691 3.986 0.904 1.453 0.212 2.853 0.319 4.201 0.319 3.542 0 6.236-0.807 8.079-2.419 1.842-1.613 2.764-4.191 2.764-7.734v-17.063c-1.241-0.285-2.747-0.577-4.518-0.877-1.773-0.301-3.58-0.452-5.422-0.452-1.737 0-3.305 0.159-4.705 0.478s-2.587 0.832-3.562 1.542c-0.974 0.708-1.726 1.612-2.259 2.711-0.531 1.098-0.796 2.426-0.796 3.987 0 1.523 0.309 2.86 0.929 4.013 0.62 1.151 1.462 2.108 2.526 2.87 1.063 0.762 2.285 1.329 3.667 1.701s2.836 0.558 4.359 0.558c1.134 0 2.064-0.026 2.791-0.079 0.726-0.054 1.337-0.116 1.834-0.187z" fill="#fff"/></g><g transform="translate(472.09 577.59)"><path d="m0 0c0.39 0.07 0.824 0.124 1.302 0.159s0.912 0.053 1.302 0.053 0.825-0.018 1.303-0.053c0.479-0.035 0.911-0.089 1.302-0.159v-30.725c0-0.992 0.088-1.772 0.266-2.338 0.177-0.568 0.416-1.002 0.717-1.303s0.656-0.497 1.064-0.584c0.406-0.089 0.841-0.133 1.302-0.133 0.319 0 0.682 0.017 1.089 0.053 0.408 0.034 0.753 0.088 1.038 0.159 0.318-1.24 0.478-2.587 0.478-4.04-0.497-0.176-1.099-0.292-1.808-0.345-0.709-0.054-1.364-0.08-1.966-0.08-1.029 0-1.986 0.125-2.871 0.372-0.886 0.248-1.665 0.656-2.338 1.223-0.674 0.566-1.205 1.329-1.596 2.285-0.39 0.957-0.584 2.144-0.584 3.562z" fill="#fff"/></g><g transform="translate(485.86 571.9)"><path d="m0 0c-0.07 0.425-0.115 0.886-0.133 1.382-0.017 0.496-0.026 0.939-0.026 1.329s9e-3 0.832 0.026 1.329c0.018 0.496 0.063 0.939 0.133 1.329 0.461 0.07 0.957 0.124 1.489 0.159s0.991 0.054 1.382 0.054c0.39 0 0.851-0.019 1.382-0.054s1.01-0.089 1.435-0.159c0.071-0.39 0.115-0.833 0.133-1.329 0.017-0.497 0.027-0.939 0.027-1.329s-0.01-0.833-0.027-1.329c-0.018-0.496-0.062-0.957-0.133-1.382-0.425-0.071-0.895-0.125-1.409-0.16-0.513-0.035-0.966-0.052-1.355-0.052-0.425 0-0.903 0.017-1.435 0.052s-1.028 0.089-1.489 0.16m1.17-10.153h-3.455c-0.071 0.283-0.125 0.611-0.159 0.984-0.036 0.372-0.054 0.734-0.054 1.089 0 0.354 0.018 0.718 0.054 1.09 0.034 0.372 0.088 0.699 0.159 0.984h8.611v-27.27c-0.39-0.07-0.823-0.123-1.303-0.159-0.478-0.035-0.912-0.053-1.301-0.053-0.355 0-0.771 0.018-1.249 0.053-0.479 0.036-0.913 0.089-1.303 0.159z" fill="#fff"/></g><g transform="translate(494.84 539.37)"><path d="m0 0 14.353 22.325h-12.652c-0.106 0.638-0.159 1.346-0.159 2.127 0 0.744 0.053 1.435 0.159 2.073h20.465l0.267-0.691-14.459-22.379h13.554c0.107-0.709 0.159-1.435 0.159-2.18 0-0.709-0.052-1.382-0.159-2.02h-21.262z" fill="#fff"/></g><g transform="translate(536.25 554.89)"><path d="m0 0c0 0.992-0.133 1.94-0.398 2.844-0.267 0.903-0.657 1.692-1.17 2.365-0.514 0.673-1.169 1.214-1.967 1.622-0.798 0.406-1.745 0.611-2.844 0.611-2.162 0-3.819-0.656-4.97-1.967-1.152-1.311-1.852-3.136-2.1-5.475zm-13.502-3.934c0.07-2.976 0.842-5.156 2.313-6.538 1.469-1.382 3.64-2.073 6.511-2.073 2.516 0 4.908 0.442 7.176 1.329 0.283-0.532 0.514-1.179 0.691-1.94 0.177-0.762 0.284-1.515 0.32-2.26-1.17-0.496-2.455-0.867-3.855-1.116-1.4-0.248-2.95-0.372-4.651-0.372-2.481 0-4.607 0.345-6.379 1.037-1.772 0.69-3.234 1.665-4.385 2.923-1.152 1.257-1.993 2.746-2.525 4.465-0.531 1.719-0.797 3.605-0.797 5.662 0 2.019 0.257 3.907 0.771 5.661 0.513 1.754 1.301 3.277 2.365 4.571 1.063 1.293 2.4 2.321 4.013 3.083 1.612 0.762 3.517 1.143 5.714 1.143 1.879 0 3.527-0.319 4.944-0.957 1.418-0.638 2.605-1.515 3.561-2.631 0.957-1.116 1.683-2.445 2.18-3.987 0.496-1.541 0.744-3.215 0.744-5.023 0-0.497-0.018-1.019-0.053-1.568-0.036-0.55-0.071-1.019-0.106-1.409z" fill="#fff"/></g><g transform="translate(545.18 565.9)"><path d="m0 0c0.39 0.07 0.762 0.124 1.116 0.159 0.355 0.035 0.727 0.053 1.116 0.053 0.39 0 0.78-0.018 1.17-0.053s0.744-0.089 1.063-0.159c0.107-0.532 0.213-1.232 0.319-2.1 0.107-0.869 0.159-1.604 0.159-2.206 0.745 1.204 1.728 2.25 2.952 3.136 1.222 0.886 2.79 1.329 4.704 1.329 0.283 0 0.575-9e-3 0.877-0.026 0.3-0.019 0.557-0.045 0.77-0.08 0.07-0.319 0.124-0.656 0.159-1.01 0.035-0.355 0.054-0.727 0.054-1.116 0-0.426-0.027-0.869-0.08-1.329-0.053-0.461-0.115-0.904-0.186-1.329-0.284 0.07-0.577 0.106-0.877 0.106h-0.717c-0.957 0-1.87-0.133-2.739-0.398-0.868-0.267-1.647-0.736-2.339-1.409-0.69-0.673-1.24-1.595-1.647-2.764-0.407-1.17-0.611-2.677-0.611-4.518v-13.556c-0.39-0.07-0.825-0.123-1.303-0.159-0.478-0.035-0.912-0.053-1.302-0.053s-0.824 0.018-1.303 0.053c-0.478 0.036-0.929 0.089-1.355 0.159z" fill="#fff"/></g></g></g><g display="none"><path d="m263.67 553.9c0-23.359 18.936-42.294 42.295-42.294 23.358 0 42.294 18.935 42.294 42.294 0 23.36-18.936 42.295-42.294 42.295-23.359 0-42.295-18.935-42.295-42.295" fill="url(#radialGradient158)"/></g><g display="none"><g clip-path="url(#clipPath168)"><g transform="translate(305.96 563.33)"><path d="m0 0c-12.604 0-22.822 2.014-22.822 4.497s10.218 4.497 22.822 4.497 22.821-2.014 22.821-4.497-10.217-4.497-22.821-4.497" fill="#010a24"/></g><g transform="translate(305.96 549.62)"><path d="m0 0c-12.604 0-22.822 2.013-22.822 4.497 0 2.483 10.218 4.497 22.822 4.497s22.821-2.014 22.821-4.497c0-2.484-10.217-4.497-22.821-4.497" fill="#010a24"/></g><g transform="translate(305.96 535.49)"><path d="m0 0c-12.604 0-22.822 2.013-22.822 4.497 0 2.483 10.218 4.496 22.822 4.496s22.821-2.013 22.821-4.496c0-2.484-10.217-4.497-22.821-4.497" fill="#010a24"/></g><g transform="translate(940.96 246.79)"><path d="m0 0c0 0.904-0.121 1.768-0.363 2.591-0.242 0.824-0.598 1.542-1.066 2.156-0.468 0.612-1.065 1.105-1.792 1.477-0.726 0.37-1.591 0.557-2.591 0.557-1.97 0-3.479-0.598-4.528-1.792-1.05-1.195-1.688-2.858-1.914-4.989zm-12.302-3.584c0.065-2.711 0.767-4.697 2.107-5.957 1.34-1.259 3.318-1.889 5.932-1.889 2.293 0 4.472 0.404 6.539 1.211 0.258-0.484 0.467-1.073 0.629-1.767 0.161-0.695 0.259-1.381 0.291-2.059-1.065-0.453-2.236-0.79-3.511-1.017-1.276-0.226-2.688-0.338-4.238-0.338-2.26 0-4.197 0.314-5.811 0.943-1.615 0.63-2.948 1.518-3.996 2.664-1.05 1.146-1.817 2.502-2.3 4.068-0.485 1.566-0.727 3.285-0.727 5.159 0 1.839 0.234 3.559 0.702 5.157s1.187 2.986 2.156 4.165c0.968 1.179 2.186 2.115 3.656 2.809 1.469 0.694 3.204 1.041 5.206 1.041 1.711 0 3.213-0.29 4.504-0.871 1.291-0.582 2.374-1.381 3.245-2.398 0.872-1.017 1.533-2.227 1.986-3.632 0.452-1.404 0.678-2.93 0.678-4.577 0-0.452-0.017-0.928-0.049-1.428-0.032-0.501-0.064-0.929-0.096-1.284z" fill="#fff"/></g><g transform="translate(965.52 252.99)"><path d="m0 0c-0.452 0.097-0.831 0.169-1.138 0.218s-0.597 0.08-0.872 0.097c-0.274 0.016-0.549 0.032-0.823 0.048s-0.589 0.025-0.944 0.025c-1.421 0-2.664-0.242-3.73-0.727-1.065-0.484-1.945-1.162-2.639-2.034-0.695-0.872-1.219-1.905-1.574-3.1-0.355-1.194-0.533-2.518-0.533-3.971 0-1.452 0.193-2.696 0.581-3.729 0.388-1.034 0.928-1.881 1.623-2.543 0.694-0.662 1.509-1.138 2.445-1.429 0.937-0.29 1.969-0.436 3.1-0.436 0.839 0 1.639 0.065 2.398 0.195 0.757 0.128 1.46 0.274 2.106 0.435zm0-21.019c-0.678-0.161-1.396-0.291-2.155-0.387-0.759-0.097-1.607-0.145-2.542-0.145-1.68 0-3.278 0.201-4.795 0.605-1.518 0.403-2.85 1.09-3.996 2.058-1.146 0.969-2.058 2.236-2.736 3.802-0.678 1.565-1.017 3.511-1.017 5.836 0 2.001 0.315 3.842 0.944 5.521 0.63 1.678 1.526 3.124 2.689 4.334 1.162 1.211 2.574 2.147 4.237 2.81 1.662 0.661 3.527 0.992 5.594 0.992 1.807 0 3.357-0.096 4.649-0.29 1.291-0.194 2.583-0.469 3.874-0.824v-35.742c-0.355-0.064-0.75-0.112-1.186-0.145-0.436-0.032-0.831-0.048-1.187-0.048-0.355 0-0.75 0.016-1.186 0.048-0.436 0.033-0.832 0.081-1.187 0.145z" fill="#fff"/></g><g transform="translate(974.77 256.82)"><path d="m0 0c0.354 0.064 0.758 0.113 1.211 0.145 0.451 0.032 0.839 0.049 1.162 0.049 0.355 0 0.758-0.017 1.211-0.049 0.451-0.032 0.855-0.081 1.211-0.145v-13.609c0-1.55 0.144-2.833 0.435-3.85 0.291-1.018 0.727-1.816 1.308-2.398 0.581-0.58 1.291-0.985 2.131-1.21 0.839-0.226 1.808-0.34 2.906-0.34 1.647 0 3.051 0.178 4.213 0.533v20.874c0.356 0.064 0.751 0.113 1.187 0.145s0.831 0.049 1.186 0.049c0.356 0 0.751-0.017 1.188-0.049 0.435-0.032 0.83-0.081 1.186-0.145v-24.07c-1.131-0.324-2.478-0.63-4.044-0.92-1.567-0.291-3.189-0.436-4.868-0.436-1.582 0-3.075 0.138-4.479 0.412-1.405 0.274-2.64 0.83-3.706 1.671-1.065 0.839-1.905 2.017-2.518 3.535-0.613 1.517-0.92 3.518-0.92 6.005z" fill="#fff"/></g><g transform="translate(1013.6 243.65)"><path d="m0 0c-0.484 0.064-1.098 0.129-1.84 0.194-0.743 0.064-1.373 0.097-1.889 0.097-2.002 0-3.528-0.372-4.577-1.114-1.049-0.743-1.574-1.873-1.574-3.39 0-0.969 0.177-1.728 0.533-2.276 0.355-0.55 0.799-0.969 1.332-1.26 0.533-0.29 1.121-0.468 1.768-0.533 0.645-0.065 1.259-0.096 1.84-0.096 0.743 0 1.51 0.04 2.301 0.121 0.791 0.08 1.493 0.201 2.106 0.363zm0 4.698c0 1.905-0.484 3.228-1.452 3.971-0.97 0.743-2.374 1.114-4.214 1.114-1.131 0-2.188-0.089-3.172-0.266-0.985-0.178-1.946-0.412-2.882-0.703-0.614 1.066-0.92 2.341-0.92 3.827 1.097 0.355 2.308 0.629 3.632 0.823 1.323 0.194 2.599 0.29 3.826 0.29 3.228 0 5.683-0.734 7.362-2.203 1.678-1.47 2.518-3.819 2.518-7.047v-15.546c-1.131-0.259-2.503-0.525-4.117-0.799s-3.262-0.411-4.939-0.411c-1.583 0-3.011 0.145-4.287 0.435-1.275 0.291-2.357 0.758-3.245 1.404-0.887 0.646-1.573 1.47-2.058 2.471-0.485 1-0.726 2.211-0.726 3.632 0 1.388 0.282 2.606 0.848 3.657 0.563 1.049 1.331 1.92 2.3 2.614 0.968 0.695 2.082 1.211 3.341 1.55s2.583 0.509 3.972 0.509c1.032 0 1.88-0.024 2.542-0.073 0.661-0.048 1.219-0.105 1.671-0.169z" fill="#fff"/></g><g transform="translate(1022.5 267.47)"><path d="m0 0c0.354 0.064 0.751 0.113 1.187 0.146 0.435 0.031 0.831 0.048 1.186 0.048s0.751-0.017 1.187-0.048c0.435-0.033 0.831-0.082 1.186-0.146v-27.993c0-0.904 0.08-1.615 0.242-2.131 0.161-0.517 0.379-0.913 0.655-1.187 0.273-0.274 0.596-0.452 0.967-0.532 0.371-0.081 0.767-0.121 1.187-0.121 0.291 0 0.622 0.016 0.993 0.048s0.686 0.08 0.944 0.145c0.29-1.13 0.437-2.356 0.437-3.681-0.453-0.16-1.001-0.266-1.648-0.315-0.645-0.048-1.243-0.072-1.791-0.072-0.937 0-1.809 0.113-2.616 0.339s-1.517 0.598-2.131 1.114c-0.613 0.516-1.097 1.211-1.453 2.083-0.355 0.871-0.532 1.953-0.532 3.245z" fill="#fff"/></g><g transform="translate(1035.1 262.29)"><path d="m0 0c-0.065 0.387-0.105 0.807-0.121 1.259-0.017 0.452-0.025 0.855-0.025 1.211 0 0.355 8e-3 0.759 0.025 1.211 0.016 0.452 0.056 0.855 0.121 1.211 0.419 0.064 0.871 0.112 1.356 0.145 0.484 0.031 0.904 0.048 1.259 0.048s0.776-0.017 1.259-0.048c0.484-0.033 0.921-0.081 1.308-0.145 0.064-0.356 0.104-0.759 0.121-1.211 0.015-0.452 0.024-0.856 0.024-1.211 0-0.356-9e-3 -0.759-0.024-1.211-0.017-0.452-0.057-0.872-0.121-1.259-0.387-0.065-0.816-0.114-1.284-0.146s-0.879-0.048-1.234-0.048c-0.388 0-0.824 0.016-1.308 0.048-0.485 0.032-0.937 0.081-1.356 0.146m1.065-9.25h-3.148c-0.064 0.258-0.113 0.557-0.145 0.896-0.033 0.339-0.048 0.669-0.048 0.992s0.015 0.654 0.048 0.993c0.032 0.339 0.081 0.638 0.145 0.896h7.846v-24.845c-0.356-0.064-0.75-0.112-1.187-0.145-0.435-0.032-0.831-0.048-1.185-0.048-0.325 0-0.703 0.016-1.139 0.048-0.436 0.033-0.832 0.081-1.187 0.145z" fill="#fff"/></g><g transform="translate(1043.3 232.65)"><path d="m0 0 13.077 20.341h-11.526c-0.098 0.581-0.146 1.226-0.146 1.937 0 0.678 0.048 1.308 0.146 1.889h18.645l0.242-0.629-13.172-20.39h12.349c0.097-0.647 0.145-1.308 0.145-1.986 0-0.646-0.048-1.259-0.145-1.84h-19.372z" fill="#fff"/></g><g transform="translate(1081 246.79)"><path d="m0 0c0 0.904-0.121 1.768-0.363 2.591-0.242 0.824-0.598 1.542-1.067 2.156-0.467 0.612-1.064 1.105-1.791 1.477-0.726 0.37-1.591 0.557-2.591 0.557-1.97 0-3.479-0.598-4.528-1.792-1.05-1.195-1.688-2.858-1.913-4.989zm-12.302-3.584c0.065-2.711 0.767-4.697 2.107-5.957 1.34-1.259 3.317-1.889 5.933-1.889 2.291 0 4.472 0.404 6.537 1.211 0.259-0.484 0.468-1.073 0.63-1.767 0.162-0.695 0.259-1.381 0.291-2.059-1.065-0.453-2.236-0.79-3.511-1.017-1.276-0.226-2.688-0.338-4.238-0.338-2.259 0-4.197 0.314-5.811 0.943-1.615 0.63-2.948 1.518-3.996 2.664-1.049 1.146-1.816 2.502-2.3 4.068-0.485 1.566-0.727 3.285-0.727 5.159 0 1.839 0.234 3.559 0.702 5.157s1.187 2.986 2.156 4.165c0.968 1.179 2.186 2.115 3.656 2.809 1.469 0.694 3.204 1.041 5.206 1.041 1.712 0 3.213-0.29 4.504-0.871 1.292-0.582 2.374-1.381 3.245-2.398 0.872-1.017 1.533-2.227 1.986-3.632 0.452-1.404 0.678-2.93 0.678-4.577 0-0.452-0.017-0.928-0.049-1.428-0.032-0.501-0.064-0.929-0.096-1.284z" fill="#fff"/></g><g transform="translate(1089.1 256.82)"><path d="m0 0c0.354 0.064 0.694 0.113 1.018 0.145 0.322 0.032 0.661 0.049 1.016 0.049s0.71-0.017 1.066-0.049c0.355-0.032 0.678-0.081 0.968-0.145 0.097-0.484 0.195-1.123 0.291-1.913 0.097-0.792 0.145-1.461 0.145-2.01 0.679 1.097 1.574 2.05 2.688 2.858 1.115 0.806 2.542 1.21 4.287 1.21 0.257 0 0.524-8e-3 0.798-0.024 0.274-0.017 0.509-0.041 0.702-0.073 0.065-0.29 0.113-0.597 0.146-0.92 0.032-0.323 0.048-0.662 0.048-1.017 0-0.387-0.024-0.792-0.072-1.211-0.048-0.42-0.106-0.823-0.169-1.21-0.259 0.064-0.526 0.097-0.8 0.097h-0.653c-0.873 0-1.705-0.121-2.495-0.364-0.792-0.242-1.501-0.67-2.13-1.283-0.63-0.614-1.131-1.453-1.502-2.518-0.372-1.066-0.557-2.439-0.557-4.117v-12.35c-0.356-0.064-0.751-0.113-1.187-0.145s-0.832-0.049-1.186-0.049c-0.356 0-0.751 0.017-1.187 0.049s-0.847 0.081-1.235 0.145z" fill="#fff"/></g></g></g><text transform="matrix(1 0 0 -1 351.46 447.13)" display="none" fill="#122c56" font-family="Aller" font-size="16px"><tspan x="0 7.9200001 17.072001 25.76 34.992001 38.784 44.703999 53.888 58.655998 63.424 67.216003 75.391998 84.288002 90.065598 97.345596 101.9536 111.1856 624.03198 631.95203 641.104 649.79199 659.02399 662.81598 676.47998 684.75201 690.70398" y="0">Logo full versionLogo mark</tspan><tspan x="627.71198 635.63202 644.784 653.47198 662.70398 668.43201 676.896 686.336" y="291.60001">Logotype</tspan><tspan x="13.264 21.184 30.336 39.023998 48.256001 52.048 59.327999 65.056 73.328003 80.975998 88.878403 97.774399" y="285.64801">Logo stacked</tspan></text><g><g><path d="m951.2 554.73c0-34.094 27.639-61.733 61.733-61.733s61.733 27.639 61.733 61.733-27.639 61.732-61.733 61.732-61.733-27.638-61.733-61.732" fill="url(#radialGradient246)"/></g></g><g><g clip-path="url(#clipPath256)"><g transform="translate(1012.9 568.48)"><path d="m0 0c-18.397 0-33.311 2.938-33.311 6.563s14.914 6.564 33.311 6.564c18.396 0 33.31-2.939 33.31-6.564s-14.914-6.563-33.31-6.563" fill="#010a24"/></g><g transform="translate(1012.9 548.48)"><path d="m0 0c-18.397 0-33.311 2.938-33.311 6.563s14.914 6.564 33.311 6.564c18.396 0 33.31-2.939 33.31-6.564s-14.914-6.563-33.31-6.563" fill="#010a24"/></g><g transform="translate(1012.9 527.84)"><path d="m0 0c-18.397 0-33.311 2.938-33.311 6.563s14.914 6.564 33.311 6.564c18.396 0 33.31-2.939 33.31-6.564s-14.914-6.563-33.31-6.563" fill="#010a24"/></g></g></g><text transform="matrix(1 0 0 -1 92.011 673.53)" display="none" fill="#122c56" font-family="Aller" font-size="16px"><tspan x="0 7.9200001 17.072001 25.76 34.992001 38.784 47.936001 56.832001 62.608002 69.888 74.496002 83.727997 92.975998" y="0">Logo Versions</tspan></text></g></svg>
