<?xml version="1.0" encoding="utf-8"?>
<!-- Generator: Adobe Illustrator 23.0.6, SVG Export Plug-In . SVG Version: 6.00 Build 0)  -->
<svg version="1.1" id="Слой_1" xmlns="http://www.w3.org/2000/svg" xmlns:xlink="http://www.w3.org/1999/xlink" x="0px" y="0px"
	 viewBox="0 0 1080 1080" style="enable-background:new 0 0 1080 1080;" xml:space="preserve">
<style type="text/css">
	.st0{fill:url(#SVGID_1_);}
	.st1{enable-background:new    ;}
	.st2{clip-path:url(#SVGID_3_);enable-background:new    ;}
	.st3{fill:#B3B3B3;}
	.st4{fill:#ADADAD;}
	.st5{fill:#A8A8A8;}
	.st6{fill:#A3A3A3;}
	.st7{fill:#C1C1C1;}
	.st8{clip-path:url(#SVGID_5_);enable-background:new    ;}
	.st9{clip-path:url(#SVGID_7_);enable-background:new    ;}
	.st10{fill:#AFAEA9;}
	.st11{fill:#BEBDB8;}
	.st12{clip-path:url(#SVGID_9_);enable-background:new    ;}
	.st13{fill:#9C9B96;}
	.st14{clip-path:url(#SVGID_11_);enable-background:new    ;}
	.st15{fill:#9C9B98;}
	.st16{fill:#EDEDED;}
	.st17{fill:#C6C5C0;}
</style>
<linearGradient id="SVGID_1_" gradientUnits="userSpaceOnUse" x1="10.563" y1="6.0119" x2="1068.584" y2="1073.1277">
	<stop  offset="0" style="stop-color:#E27640"/>
	<stop  offset="1" style="stop-color:#FE2F51"/>
</linearGradient>
<rect class="st0" width="1080" height="1080"/>
<g>
	<g class="st1">
		<g class="st1">
			<defs>
				<path id="SVGID_2_" class="st1" d="M705.04,660.71L779.42,715c-3.92-2.86-9.06-4.12-14.79-3.21l-74.37-54.29
					C695.98,656.59,701.12,657.85,705.04,660.71z"/>
			</defs>
			<clipPath id="SVGID_3_">
				<use xlink:href="#SVGID_2_"  style="overflow:visible;"/>
			</clipPath>
			<g class="st2">
				<path class="st3" d="M764.63,711.78l-74.37-54.29c2.72-0.43,5.3-0.37,7.69,0.11l74.37,54.29
					C769.93,711.41,767.34,711.35,764.63,711.78"/>
				<path class="st4" d="M772.31,711.89l-74.37-54.29c1.15,0.23,2.26,0.57,3.31,0.99l74.37,54.29
					C774.57,712.46,773.47,712.13,772.31,711.89"/>
				<path class="st5" d="M775.62,712.89l-74.37-54.29c0.82,0.33,1.61,0.72,2.36,1.16l74.37,54.29
					C777.23,713.61,776.44,713.22,775.62,712.89"/>
				<path class="st6" d="M777.98,714.05l-74.37-54.29c0.5,0.29,0.98,0.61,1.44,0.95L779.42,715
					C778.95,714.66,778.47,714.34,777.98,714.05"/>
			</g>
		</g>
		<g>
			<polygon class="st7" points="599.66,737.91 525.28,683.63 690.25,657.5 764.63,711.78 			"/>
		</g>
		<g class="st1">
			<defs>
				<path id="SVGID_4_" class="st1" d="M597.72,737.49l-74.37-54.29c0.44,0.32,1.07,0.56,1.93,0.42l74.37,54.29
					C598.79,738.05,598.16,737.81,597.72,737.49z"/>
			</defs>
			<clipPath id="SVGID_5_">
				<use xlink:href="#SVGID_4_"  style="overflow:visible;"/>
			</clipPath>
			<g class="st8">
				<path class="st6" d="M597.72,737.49l-74.37-54.29c0.06,0.04,0.13,0.09,0.2,0.13l74.37,54.29
					C597.85,737.58,597.78,737.54,597.72,737.49"/>
				<path class="st5" d="M597.92,737.62l-74.37-54.29c0.1,0.06,0.2,0.11,0.31,0.15l74.37,54.29
					C598.12,737.73,598.01,737.68,597.92,737.62"/>
				<path class="st4" d="M598.23,737.77l-74.37-54.29c0.13,0.05,0.27,0.1,0.42,0.13l74.37,54.29
					C598.49,737.87,598.35,737.83,598.23,737.77"/>
				<path class="st3" d="M598.65,737.9l-74.37-54.29c0.29,0.06,0.63,0.07,1.01,0.01l74.37,54.29
					C599.27,737.97,598.94,737.96,598.65,737.9"/>
			</g>
		</g>
		<g class="st1">
			<defs>
				<path id="SVGID_6_" class="st1" d="M365.09,922.05l-74.37-54.29c-2.14-1.56-3.96-3.64-5.36-6.16
					c-3.98-7.23-3.53-16.44,1.19-24.66l74.37,54.29c-4.72,8.22-5.17,17.43-1.19,24.66C361.13,918.42,362.95,920.49,365.09,922.05z"
					/>
			</defs>
			<use xlink:href="#SVGID_6_"  style="overflow:visible;fill:#AFAEA9;"/>
			<clipPath id="SVGID_7_">
				<use xlink:href="#SVGID_6_"  style="overflow:visible;"/>
			</clipPath>
			<g class="st9">
				<path class="st10" d="M365.09,922.05l-74.37-54.29c-2.14-1.56-3.96-3.64-5.36-6.16c-3.3-6-3.56-13.36-0.85-20.39l74.37,54.29
					c-2.71,7.03-2.45,14.39,0.85,20.39C361.13,918.42,362.95,920.49,365.09,922.05"/>
				<path class="st10" d="M358.88,895.49l-74.37-54.29c0.44-1.15,0.96-2.29,1.56-3.41l74.37,54.29
					C359.84,893.21,359.32,894.35,358.88,895.49"/>
				<path class="st10" d="M360.44,892.08l-74.37-54.29c0.15-0.29,0.31-0.57,0.48-0.86l74.37,54.29
					C360.75,891.51,360.59,891.79,360.44,892.08"/>
			</g>
		</g>
		<g>
			<polygon class="st11" points="360.92,891.22 286.54,836.94 464.72,526.7 539.09,580.99 			"/>
		</g>
		<g class="st1">
			<defs>
				<path id="SVGID_8_" class="st1" d="M539.09,580.99l-74.37-54.29c2.88-5.09,3-11.38,0.29-16l74.37,54.29
					C542.1,569.61,541.98,575.89,539.09,580.99z"/>
			</defs>
			<use xlink:href="#SVGID_8_"  style="overflow:visible;fill:#93928D;"/>
			<clipPath id="SVGID_9_">
				<use xlink:href="#SVGID_8_"  style="overflow:visible;"/>
			</clipPath>
			<g class="st12">
				<path class="st13" d="M539.09,580.99l-74.37-54.29c0.07-0.12,0.14-0.25,0.21-0.37l74.37,54.29
					C539.23,580.74,539.16,580.86,539.09,580.99"/>
				<path class="st13" d="M539.3,580.61l-74.37-54.29c0.33-0.63,0.63-1.27,0.88-1.93l74.37,54.29
					C539.93,579.34,539.63,579.99,539.3,580.61"/>
			</g>
		</g>
		<g class="st1">
			<defs>
				<path id="SVGID_10_" class="st1" d="M714.93,158.56l74.37,54.29c-3.92-2.86-9.06-4.12-14.79-3.21l-74.37-54.29
					C705.87,154.44,711.01,155.7,714.93,158.56z"/>
			</defs>
			<clipPath id="SVGID_11_">
				<use xlink:href="#SVGID_10_"  style="overflow:visible;"/>
			</clipPath>
			<g class="st14">
				<path class="st3" d="M774.51,209.63l-74.37-54.29c2.72-0.43,5.3-0.37,7.69,0.11l74.37,54.29
					C779.82,209.26,777.23,209.2,774.51,209.63"/>
				<path class="st4" d="M782.2,209.74l-74.37-54.29c1.15,0.23,2.26,0.57,3.31,0.99l74.37,54.29
					C784.46,210.31,783.35,209.98,782.2,209.74"/>
				<path class="st5" d="M785.51,210.74l-74.37-54.29c0.82,0.33,1.61,0.72,2.35,1.16l74.37,54.29
					C787.11,211.46,786.33,211.07,785.51,210.74"/>
				<path class="st6" d="M787.86,211.9l-74.37-54.29c0.5,0.29,0.98,0.61,1.44,0.95l74.37,54.29
					C788.84,212.51,788.36,212.19,787.86,211.9"/>
			</g>
		</g>
		<g>
			<polygon class="st15" points="539.38,564.99 465.01,510.7 298.41,255.93 372.78,310.22 			"/>
		</g>
		<g>
			<polygon class="st7" points="392.92,270.07 318.54,215.78 700.14,155.35 774.51,209.63 			"/>
		</g>
		<g>
			<path class="st16" d="M774.51,209.63c12.92-2.05,22.83,6.93,22.56,20.43l-2.14,104.78c-0.28,13.51-10.62,25.69-23.54,27.73
				l-164.6,26.07c-1.5,0.24-2.24,1.26-2.56,1.85c-0.59,1.13-0.6,2.43-0.02,3.49l92.56,141.45c4.89,6.93,4.69,17.15-0.51,26.07
				l-99.15,172.11c-0.81,1.3-0.46,2.4-0.17,2.95c0.2,0.38,0.98,1.61,2.72,1.33l164.97-26.13c12.92-2.05,22.83,6.93,22.56,20.42
				l-2.14,104.78c-0.28,13.51-10.62,25.69-23.54,27.73l-381.97,60.5c-8.44,1.34-15.84-2.15-19.8-9.34
				c-3.98-7.23-3.53-16.44,1.19-24.66l178.18-310.24c2.88-5.09,3-11.38,0.29-16l-166.6-254.77c-4.41-6.77-4.49-15.91-0.18-24.45
				c4.29-8.5,11.87-14.36,20.32-15.7L774.51,209.63z"/>
		</g>
		<path class="st17" d="M371.83,308.57c-0.15-0.28-0.3-0.57-0.43-0.86c-0.08-0.17-0.15-0.34-0.22-0.51
			c-0.12-0.27-0.23-0.54-0.33-0.81c-0.07-0.18-0.13-0.37-0.2-0.55c-0.09-0.27-0.18-0.54-0.27-0.81c-0.06-0.19-0.11-0.38-0.17-0.57
			c-0.08-0.28-0.14-0.56-0.21-0.84c-0.04-0.19-0.09-0.38-0.13-0.58c-0.06-0.29-0.11-0.59-0.16-0.88c-0.03-0.19-0.06-0.37-0.09-0.56
			c-0.04-0.33-0.08-0.66-0.11-0.99c-0.01-0.16-0.03-0.31-0.04-0.46c-0.03-0.49-0.06-0.99-0.06-1.48c0-0.02,0-0.05,0-0.08
			c0-0.47,0.01-0.95,0.04-1.42c0.01-0.17,0.03-0.34,0.04-0.51c0.02-0.34,0.05-0.67,0.09-1.01c0.02-0.2,0.05-0.4,0.08-0.59
			c0.04-0.31,0.09-0.62,0.14-0.94c0.04-0.21,0.08-0.42,0.12-0.63c0.06-0.3,0.12-0.61,0.2-0.91c0.05-0.21,0.1-0.43,0.16-0.64
			c0.08-0.31,0.16-0.61,0.25-0.92c0.06-0.21,0.12-0.42,0.19-0.63c0.1-0.32,0.21-0.63,0.32-0.95c0.07-0.2,0.14-0.4,0.21-0.59
			c0.13-0.34,0.27-0.69,0.42-1.03c0.07-0.17,0.14-0.34,0.21-0.51c0.22-0.51,0.46-1.02,0.72-1.53c0.2-0.4,0.41-0.78,0.63-1.17
			c0.12-0.21,0.23-0.42,0.36-0.63c0.17-0.29,0.34-0.57,0.52-0.84c0.12-0.2,0.24-0.39,0.37-0.58c0.1-0.14,0.2-0.28,0.29-0.43
			c0.44-0.64,0.9-1.27,1.38-1.87c0.06-0.07,0.12-0.15,0.18-0.23c0.49-0.6,1-1.18,1.53-1.74c0.12-0.13,0.25-0.26,0.37-0.38
			c0.53-0.54,1.08-1.07,1.65-1.57c0.01-0.01,0.02-0.02,0.04-0.03c0.02-0.02,0.05-0.04,0.07-0.06c0.36-0.31,0.73-0.62,1.11-0.91
			c0.13-0.1,0.26-0.2,0.39-0.29c0.27-0.2,0.54-0.4,0.82-0.59c0.19-0.13,0.37-0.26,0.56-0.38c0.25-0.17,0.5-0.33,0.75-0.48
			c0.19-0.12,0.39-0.24,0.58-0.35c0.22-0.13,0.44-0.25,0.67-0.37c0.33-0.18,0.66-0.35,1-0.52c0.2-0.1,0.4-0.2,0.61-0.29
			c0.36-0.16,0.72-0.32,1.08-0.46c0.2-0.08,0.39-0.17,0.59-0.24c0.14-0.05,0.29-0.1,0.43-0.15c0.32-0.11,0.65-0.22,0.97-0.32
			c0.16-0.05,0.33-0.1,0.49-0.15c0.33-0.09,0.66-0.18,0.99-0.26c0.15-0.04,0.3-0.07,0.44-0.11c0.48-0.11,0.96-0.2,1.44-0.28
			l-74.37-54.29c-0.48,0.08-0.96,0.17-1.44,0.28c-0.15,0.03-0.3,0.07-0.44,0.11c-0.33,0.08-0.66,0.17-0.99,0.26
			c-0.16,0.05-0.33,0.1-0.49,0.15c-0.33,0.1-0.65,0.21-0.97,0.32c-0.14,0.05-0.29,0.1-0.43,0.15c-0.06,0.02-0.12,0.04-0.18,0.06
			c-0.14,0.05-0.28,0.12-0.42,0.18c-0.36,0.15-0.72,0.3-1.08,0.46c-0.2,0.09-0.41,0.19-0.61,0.29c-0.34,0.16-0.67,0.34-1,0.52
			c-0.11,0.06-0.22,0.11-0.33,0.17c-0.11,0.06-0.22,0.14-0.33,0.2c-0.2,0.11-0.39,0.23-0.58,0.35c-0.25,0.16-0.5,0.32-0.75,0.48
			c-0.19,0.12-0.38,0.25-0.56,0.38c-0.09,0.06-0.19,0.12-0.28,0.19c-0.18,0.13-0.36,0.27-0.54,0.4c-0.13,0.1-0.26,0.19-0.39,0.29
			c-0.37,0.29-0.74,0.59-1.1,0.9c-0.03,0.02-0.05,0.04-0.08,0.06c0,0-0.01,0-0.01,0.01c-0.01,0.01-0.02,0.02-0.03,0.02
			c-0.57,0.5-1.12,1.03-1.65,1.57c-0.07,0.07-0.14,0.13-0.21,0.2c-0.06,0.06-0.11,0.12-0.16,0.18c-0.53,0.56-1.04,1.13-1.53,1.74
			c-0.02,0.02-0.04,0.04-0.05,0.06c-0.04,0.05-0.08,0.11-0.12,0.17c-0.48,0.6-0.94,1.22-1.37,1.87c-0.05,0.08-0.12,0.15-0.17,0.23
			c-0.04,0.06-0.08,0.13-0.12,0.19c-0.13,0.19-0.25,0.39-0.37,0.58c-0.18,0.28-0.35,0.56-0.52,0.84c-0.12,0.21-0.24,0.42-0.36,0.63
			c-0.09,0.17-0.19,0.33-0.28,0.49c-0.12,0.22-0.24,0.45-0.35,0.67c-0.26,0.51-0.49,1.02-0.72,1.53c-0.07,0.17-0.14,0.34-0.21,0.51
			c-0.12,0.28-0.24,0.56-0.35,0.85c-0.02,0.06-0.04,0.12-0.07,0.18c-0.07,0.2-0.14,0.4-0.21,0.59c-0.11,0.32-0.22,0.63-0.32,0.95
			c-0.07,0.21-0.13,0.42-0.19,0.63c-0.09,0.31-0.17,0.61-0.25,0.92c-0.05,0.21-0.11,0.43-0.16,0.64c-0.07,0.31-0.14,0.61-0.2,0.91
			c-0.04,0.21-0.08,0.42-0.12,0.63c-0.05,0.31-0.1,0.62-0.14,0.93c-0.03,0.2-0.06,0.4-0.08,0.6c-0.04,0.34-0.06,0.67-0.09,1.01
			c-0.01,0.17-0.03,0.34-0.04,0.51c-0.03,0.48-0.04,0.95-0.04,1.42c0,0.02,0,0.05,0,0.08c0,0.5,0.03,0.99,0.06,1.48
			c0.01,0.16,0.03,0.31,0.05,0.47c0.03,0.33,0.06,0.66,0.11,0.99c0.03,0.19,0.06,0.37,0.09,0.56c0.05,0.29,0.1,0.59,0.16,0.88
			c0.04,0.19,0.08,0.39,0.13,0.58c0.06,0.28,0.13,0.56,0.21,0.83c0.05,0.19,0.11,0.38,0.17,0.58c0.08,0.27,0.17,0.54,0.27,0.81
			c0.06,0.18,0.13,0.37,0.2,0.55c0.1,0.27,0.22,0.54,0.33,0.81c0.07,0.17,0.14,0.34,0.22,0.51c0.13,0.29,0.28,0.58,0.43,0.86
			c0.07,0.14,0.14,0.28,0.22,0.42c0.23,0.42,0.47,0.83,0.74,1.23l74.37,54.29c-0.26-0.4-0.51-0.81-0.74-1.23
			C371.97,308.85,371.9,308.71,371.83,308.57z"/>
	</g>
</g>
</svg>
