<svg width="286" height="285" viewBox="0 0 286 285" fill="none" xmlns="http://www.w3.org/2000/svg">
<rect width="286" height="285" fill="white"/>
<circle cx="142" cy="142" r="135" fill="#FAF9F9"/>
<circle cx="90" cy="142" r="67" fill="black" stroke="#D9D7D7" stroke-width="4"/>
<circle cx="194" cy="142" r="67" fill="white" stroke="#D9D7D7" stroke-width="4"/>
<path d="M86.7777 92L109.458 105.463L86.7777 118.937L64.1084 105.463L86.7777 92ZM114.499 113.419V140.356L91.3719 154.072V127.146L114.499 113.419ZM91.3719 165.063L122 146.921V173.858L91.3719 192V165.063ZM59 140.344V113.419L82.1164 127.146V154.072L59 140.344ZM59 178.273V151.335L82.1164 165.063V191.988L59 178.273Z" fill="white"/>
<path d="M194.155 86.9136L193.416 89.4248V162.295L194.155 163.033L227.98 143.039L194.155 86.9136Z" fill="#343434"/>
<path d="M194.154 86.9141L160.328 143.039L194.154 163.033V127.664V86.9141Z" fill="#8C8C8C"/>
<path d="M194.153 169.438L193.736 169.945V195.903L194.153 197.12L227.998 149.454L194.153 169.438Z" fill="#3C3C3B"/>
<path d="M194.154 197.118V169.436L160.328 149.452L194.154 197.118Z" fill="#8C8C8C"/>
<path d="M193.963 162.654L227.788 142.66L193.963 127.285V162.654Z" fill="#141414"/>
<path d="M160.328 143.04L194.153 163.034V127.665L160.328 143.04Z" fill="#393939"/>
</svg>
