<svg width="30" height="30" viewBox="0 0 30 30" fill="none" xmlns="http://www.w3.org/2000/svg">
<path d="M30 15C30 23.2843 23.2841 30 14.9999 30C6.71586 30 0 23.2843 0 15C0 6.71568 6.71586 0 14.9999 0C23.2841 0 30 6.71568 30 15Z" fill="#5591F1"/>
<path d="M22.5458 10.3665H12.5223C11.2688 10.3665 10.2527 9.35032 10.2527 8.0968C10.2527 6.84327 11.2688 5.82712 12.5223 5.82712H22.5458C23.7993 5.82712 24.8154 6.84327 24.8154 8.0968C24.8154 9.35032 23.7993 10.3665 22.5458 10.3665Z" fill="white"/>
<path d="M18.0061 24.1731H10.1069C6.95663 24.1731 4.3938 21.6103 4.3938 18.4603C4.3938 15.3102 6.95663 12.7473 10.1069 12.7473H20.2759C21.5296 12.7473 22.5457 13.7635 22.5457 15.017C22.5457 16.2705 21.5296 17.2867 20.2759 17.2867H10.1069C9.47059 17.2867 8.93318 17.8242 8.93318 18.4603C8.93318 19.0963 9.47059 19.6337 10.1069 19.6337H18.0061C19.2596 19.6337 20.2757 20.6499 20.2757 21.9034C20.2757 23.1569 19.2596 24.1731 18.0061 24.1731" fill="white"/>
</svg>
