<svg xmlns="http://www.w3.org/2000/svg" viewBox="0 0 191.07 191.07">
    <defs>
        <style>.cls-1{fill:#a566ff;}.cls-2{fill:#fff;}</style>
    </defs>
    <title>Asset 4</title>
    <g id="Layer_2" data-name="Layer 2">
        <g id="Layer_1-2" data-name="Layer 1">
            <circle class="cls-1" cx="95.53" cy="95.53" r="95.53"/>
            <path class="cls-2" d="M91.1,142.52a31,31,0,0,1-17.84,5.79c-11,0-21.22-6.05-28.77-17-6.6-9.6-10.47-22-11-35.34a1.19,1.19,0,0,1,.69-1.12l7.48-3.36a1.16,1.16,0,0,1,1.64,1.06v0c0,12.59,3.32,24.35,9.36,33.14,5.65,8.21,13,12.74,20.63,12.74a21.16,21.16,0,0,0,11.62-3.64,1.17,1.17,0,0,1,1.58.28,51.7,51.7,0,0,0,4.8,5.68A1.16,1.16,0,0,1,91.1,142.52Z"/>
            <path class="cls-2" d="M146.5,131.29c-7.54,11-17.76,17-28.77,17s-21.23-6.05-28.78-17c-7.16-10.42-11.1-24.17-11.1-38.74,0-13.45,7.75-24,17.65-24s17.64,10.54,17.64,24a71.29,71.29,0,0,1-8.09,33.8,1.18,1.18,0,0,1-1.92.22,34.67,34.67,0,0,1-2.54-3.28,41.47,41.47,0,0,1-2.47-4.09,1.17,1.17,0,0,1,0-1,63.19,63.19,0,0,0,5.17-25.62c0-6.66-3.32-14.11-7.76-14.11s-7.77,7.45-7.77,14.11c0,12.59,3.33,24.35,9.37,33.14,5.65,8.21,13,12.74,20.63,12.74s15-4.53,20.63-12.74c6-8.79,9.37-20.55,9.37-33.14s-3.33-24.35-9.37-33.13a35.62,35.62,0,0,0-6.1-6.9,1.17,1.17,0,0,1,.28-2L140,47.22a1.16,1.16,0,0,1,1.31.24,47.29,47.29,0,0,1,5.21,6.36c7.16,10.41,11.11,24.17,11.11,38.73S153.66,120.87,146.5,131.29Z"/>
        </g>
    </g>
</svg>
