<?xml version="1.0" encoding="utf-8"?>
<!-- Generator: Adobe Illustrator 25.0.0, SVG Export Plug-In . SVG Version: 6.00 Build 0)  -->
<svg version="1.1" id="Layer_1" xmlns="http://www.w3.org/2000/svg" xmlns:xlink="http://www.w3.org/1999/xlink" x="0px" y="0px"
	 viewBox="0 0 127.1 128.2" style="enable-background:new 0 0 127.1 128.2;" xml:space="preserve">
<style type="text/css">
	.st0{fill:#202943;}
</style>
<g id="Layer_2_1_">
	<g id="Layer_1-2">
		<rect class="st0" width="15.4" height="15.5"/>
		<rect x="38.5" class="st0" width="15.4" height="15.5"/>
		<rect x="77" class="st0" width="15.4" height="15.5"/>
		<rect y="38.8" class="st0" width="15.4" height="15.5"/>
		<rect x="38.5" y="38.8" class="st0" width="15.4" height="15.5"/>
		<rect y="77.7" class="st0" width="15.4" height="15.5"/>
		<ellipse class="st0" cx="123.3" cy="7.8" rx="3.8" ry="3.9"/>
		<ellipse class="st0" cx="123.3" cy="46.6" rx="3.8" ry="3.9"/>
		<ellipse class="st0" cx="123.3" cy="85.4" rx="3.8" ry="3.9"/>
		<ellipse class="st0" cx="123.3" cy="124.3" rx="3.8" ry="3.9"/>
		<ellipse class="st0" cx="84.7" cy="46.6" rx="3.8" ry="3.9"/>
		<ellipse class="st0" cx="84.7" cy="85.4" rx="3.8" ry="3.9"/>
		<ellipse class="st0" cx="84.7" cy="124.3" rx="3.8" ry="3.9"/>
		<ellipse class="st0" cx="46.2" cy="85.4" rx="3.8" ry="3.9"/>
		<ellipse class="st0" cx="46.2" cy="124.3" rx="3.8" ry="3.9"/>
		<ellipse class="st0" cx="7.7" cy="124.3" rx="3.8" ry="3.9"/>
	</g>
</g>
</svg>
