<?xml version="1.0" encoding="UTF-8" standalone="no"?>
<!-- Generator: Adobe Illustrator 19.0.0, SVG Export Plug-In . SVG Version: 6.00 Build 0)  -->

<svg
   xmlns:dc="http://purl.org/dc/elements/1.1/"
   xmlns:cc="http://creativecommons.org/ns#"
   xmlns:rdf="http://www.w3.org/1999/02/22-rdf-syntax-ns#"
   xmlns:svg="http://www.w3.org/2000/svg"
   xmlns="http://www.w3.org/2000/svg"
   xmlns:xlink="http://www.w3.org/1999/xlink"
   xmlns:sodipodi="http://sodipodi.sourceforge.net/DTD/sodipodi-0.dtd"
   xmlns:inkscape="http://www.inkscape.org/namespaces/inkscape"
   version="1.1"
   id="Layer_1"
   x="0px"
   y="0px"
   viewBox="0 0 349.60001 349.60001"
   xml:space="preserve"
   sodipodi:docname="reflexer-tokenicon-SVG-cropped.svg"
   width="349.60001"
   height="349.60001"
   inkscape:version="0.92.5 (2060ec1f9f, 2020-04-08)"><metadata
   id="metadata140"><rdf:RDF><cc:Work
       rdf:about=""><dc:format>image/svg+xml</dc:format><dc:type
         rdf:resource="http://purl.org/dc/dcmitype/StillImage" /><dc:title></dc:title></cc:Work></rdf:RDF></metadata><defs
   id="defs138" /><sodipodi:namedview
   pagecolor="#ffffff"
   bordercolor="#666666"
   borderopacity="1"
   objecttolerance="10"
   gridtolerance="10"
   guidetolerance="10"
   inkscape:pageopacity="0"
   inkscape:pageshadow="2"
   inkscape:window-width="982"
   inkscape:window-height="798"
   id="namedview136"
   showgrid="false"
   fit-margin-top="0"
   fit-margin-left="0"
   fit-margin-right="0"
   fit-margin-bottom="0"
   inkscape:zoom="1.668772"
   inkscape:cx="181.64547"
   inkscape:cy="103.03653"
   inkscape:window-x="358"
   inkscape:window-y="165"
   inkscape:window-maximized="0"
   inkscape:current-layer="Layer_1" />
<style
   type="text/css"
   id="style2">
	.st0{clip-path:url(#SVGID_2_);fill:url(#SVGID_3_);}
	.st1{clip-path:url(#SVGID_2_);}
	.st2{fill:url(#XMLID_2_);}
	.st3{fill:#FFFFFF;}
</style>
<g
   id="g133"
   transform="translate(-24.199997,-24.199997)">
	<g
   id="g37">
		<defs
   id="defs5">
			<circle
   id="SVGID_1_"
   cx="199"
   cy="199"
   r="174.8" />
		</defs>
		<clipPath
   id="SVGID_2_">
			<use
   xlink:href="#SVGID_1_"
   style="overflow:visible"
   id="use7"
   x="0"
   y="0"
   width="100%"
   height="100%" />
		</clipPath>
		<linearGradient
   id="SVGID_3_"
   gradientUnits="userSpaceOnUse"
   x1="-1.323"
   y1="398.84399"
   x2="397.66129"
   y2="5.3253002">
			<stop
   offset="7.887620e-004"
   style="stop-color:#4CE096"
   id="stop10" />
			<stop
   offset="0.3149"
   style="stop-color:#5FDDC2"
   id="stop12" />
			<stop
   offset="0.6018"
   style="stop-color:#6CDAE3"
   id="stop14" />
			<stop
   offset="0.84"
   style="stop-color:#75D9F8"
   id="stop16" />
			<stop
   offset="1"
   style="stop-color:#78D8FF"
   id="stop18" />
		</linearGradient>
		<rect
   x="3.9000001"
   y="3.9000001"
   class="st0"
   width="392.39999"
   height="392.39999"
   clip-path="url(#SVGID_2_)"
   id="rect21"
   style="fill:url(#SVGID_3_)" />
		<g
   class="st1"
   clip-path="url(#SVGID_2_)"
   id="g35">
			<linearGradient
   id="XMLID_2_"
   gradientUnits="userSpaceOnUse"
   x1="199.00011"
   y1="373.84241"
   x2="199.00011"
   y2="24.157499">
				<stop
   offset="7.887620e-004"
   style="stop-color:#4CE096"
   id="stop23" />
				<stop
   offset="0.3149"
   style="stop-color:#5FDDC2"
   id="stop25" />
				<stop
   offset="0.6018"
   style="stop-color:#6CDAE3"
   id="stop27" />
				<stop
   offset="0.84"
   style="stop-color:#75D9F8"
   id="stop29" />
				<stop
   offset="1"
   style="stop-color:#78D8FF"
   id="stop31" />
			</linearGradient>
			<path
   id="XMLID_10_"
   class="st2"
   d="m 199,44.2 c 41.4,0 80.2,16.1 109.5,45.4 29.2,29.2 45.4,68.1 45.4,109.5 0,41.4 -16.1,80.2 -45.4,109.5 C 279.3,337.8 240.4,354 199,354 157.6,354 118.8,337.9 89.5,308.6 60.3,279.2 44.2,240.4 44.2,199 44.2,157.6 60.3,118.8 89.6,89.5 118.8,60.3 157.6,44.2 199,44.2 m 0,-20 c -96.6,0 -174.8,78.3 -174.8,174.8 0,96.5 78.2,174.8 174.8,174.8 96.6,0 174.8,-78.2 174.8,-174.8 C 373.8,102.4 295.6,24.2 199,24.2 Z"
   inkscape:connector-curvature="0"
   style="fill:url(#XMLID_2_)" />
		</g>
	</g>
	<g
   id="g131">
		<g
   id="g129">
			<path
   class="st3"
   d="m 232.6,125 h -14 l -12.3,60 c 0.1,0 0.2,0.1 0.2,0.1 1.8,1 3.4,2.3 4.7,3.9 0.3,0.4 0.6,0.8 0.9,1.2 0.6,0.8 1.1,1.7 1.5,2.7 1,2.4 1.5,5 1.2,7.7 -0.1,1 -0.3,1.9 -0.5,2.9 0,0.1 0,0.1 0,0.2 -0.3,0.9 -0.6,1.7 -1,2.5 0,0.1 -0.1,0.2 -0.1,0.3 -0.4,0.8 -0.9,1.5 -1.4,2.2 -0.1,0.1 -0.1,0.2 -0.2,0.3 -0.5,0.7 -1.1,1.3 -1.7,1.9 -0.1,0.1 -0.2,0.2 -0.3,0.3 -0.6,0.6 -1.3,1.1 -2,1.5 -0.1,0.1 -0.2,0.1 -0.3,0.2 -0.7,0.4 -1.5,0.8 -2.3,1.1 -0.1,0 -0.2,0.1 -0.3,0.1 -0.8,0.3 -1.6,0.6 -2.5,0.7 -0.1,0 -0.2,0 -0.3,0.1 -0.6,0.1 -1.2,0.1 -1.7,0.2 l -9.1,44.1 h 24 L 240.6,135 c 1,-5.2 -2.9,-10 -8,-10 z"
   id="path39"
   inkscape:connector-curvature="0"
   style="fill:#ffffff" />
			<path
   class="st3"
   d="m 190.2,212.4 c -0.9,-0.6 -1.7,-1.2 -2.4,-1.9 -0.4,-0.4 -0.7,-0.7 -1,-1.1 -0.7,-0.8 -1.2,-1.6 -1.7,-2.5 -0.2,-0.4 -0.5,-0.9 -0.7,-1.4 -0.6,-1.4 -1,-2.9 -1.2,-4.5 -0.1,-0.5 -0.1,-1.1 -0.1,-1.6 0,-0.5 0,-1.1 0.1,-1.6 0.1,-1 0.3,-1.9 0.5,-2.9 0,-0.1 0,-0.1 0,-0.2 0.3,-0.9 0.6,-1.7 1,-2.5 0,-0.1 0.1,-0.2 0.1,-0.3 0.4,-0.8 0.9,-1.5 1.4,-2.2 0.1,-0.1 0.1,-0.2 0.2,-0.3 0.5,-0.7 1.1,-1.3 1.7,-1.9 0.1,-0.1 0.2,-0.2 0.3,-0.3 0.6,-0.6 1.3,-1.1 2,-1.5 0.1,-0.1 0.2,-0.1 0.3,-0.2 0.7,-0.4 1.5,-0.8 2.3,-1.1 0.1,0 0.2,-0.1 0.4,-0.1 0.8,-0.3 1.6,-0.6 2.5,-0.7 0.1,0 0.2,0 0.3,-0.1 0.6,-0.1 1.2,-0.1 1.8,-0.2 l 9.1,-44.4 h -24 l -25.5,124.2 c -1,5 2.8,9.8 8,9.8 h 14 l 12.3,-59.6 c -0.1,-0.1 -0.2,-0.1 -0.3,-0.1 -0.6,-0.2 -1,-0.5 -1.4,-0.8 z"
   id="path41"
   inkscape:connector-curvature="0"
   style="fill:#ffffff" />
			<g
   id="g127">
				<g
   id="g125">
					<path
   class="st3"
   d="m 184.8,205.3 c -0.6,-1.4 -1,-2.8 -1.2,-4.4 0.2,1.5 0.6,3 1.2,4.4 z"
   id="path43"
   inkscape:connector-curvature="0"
   style="fill:#ffffff" />
					<path
   class="st3"
   d="m 183.7,200.9 c -0.1,-0.5 -0.1,-1 -0.1,-1.5 0,0.5 0,1 0.1,1.5 z"
   id="path45"
   inkscape:connector-curvature="0"
   style="fill:#ffffff" />
					<path
   class="st3"
   d="m 184.1,195 c 0,-0.1 0,-0.1 0,-0.2 0.1,0.1 0.1,0.1 0,0.2 z"
   id="path47"
   inkscape:connector-curvature="0"
   style="fill:#ffffff" />
					<path
   class="st3"
   d="m 185.1,192.4 c 0,-0.1 0.1,-0.2 0.1,-0.3 0,0.1 0,0.2 -0.1,0.3 z"
   id="path49"
   inkscape:connector-curvature="0"
   style="fill:#ffffff" />
					<path
   class="st3"
   d="m 186.6,190 c 0.1,-0.1 0.1,-0.2 0.2,-0.3 -0.1,0.1 -0.1,0.2 -0.2,0.3 z"
   id="path51"
   inkscape:connector-curvature="0"
   style="fill:#ffffff" />
					<path
   class="st3"
   d="m 211.4,208.3 c -0.1,0.1 -0.1,0.2 -0.2,0.3 0.1,-0.1 0.1,-0.2 0.2,-0.3 z"
   id="path53"
   inkscape:connector-curvature="0"
   style="fill:#ffffff" />
					<path
   class="st3"
   d="m 202,214.3 c -0.1,0 -0.2,0 -0.3,0 0.1,0 0.2,0 0.3,0 z"
   id="path55"
   inkscape:connector-curvature="0"
   style="fill:#ffffff" />
					<path
   class="st3"
   d="m 209.5,210.4 c -0.1,0.1 -0.2,0.2 -0.3,0.3 0.1,-0.1 0.2,-0.2 0.3,-0.3 z"
   id="path57"
   inkscape:connector-curvature="0"
   style="fill:#ffffff" />
					<path
   class="st3"
   d="m 188.5,187.9 c 0.1,-0.1 0.2,-0.2 0.3,-0.3 -0.1,0.1 -0.2,0.2 -0.3,0.3 z"
   id="path59"
   inkscape:connector-curvature="0"
   style="fill:#ffffff" />
					<path
   class="st3"
   d="m 204.8,213.5 c -0.1,0 -0.2,0.1 -0.3,0.1 0.1,-0.1 0.2,-0.1 0.3,-0.1 z"
   id="path61"
   inkscape:connector-curvature="0"
   style="fill:#ffffff" />
					<path
   class="st3"
   d="m 187.1,209 c -0.6,-0.8 -1.2,-1.6 -1.7,-2.4 0.6,0.9 1.1,1.7 1.7,2.4 z"
   id="path63"
   inkscape:connector-curvature="0"
   style="fill:#ffffff" />
					<path
   class="st3"
   d="m 190.5,212 c -0.8,-0.6 -1.6,-1.2 -2.3,-1.9 0.7,0.7 1.4,1.4 2.3,1.9 z"
   id="path65"
   inkscape:connector-curvature="0"
   style="fill:#ffffff" />
					<path
   class="st3"
   d="m 199,214.6 c 0,0 0.1,0 0,0 -0.4,0 -0.9,0 -1.4,-0.1 0.5,0.1 1,0.1 1.4,0.1 z"
   id="path67"
   inkscape:connector-curvature="0"
   style="fill:#ffffff" />
					<path
   class="st3"
   d="m 194.5,213.9 c -1,-0.3 -1.9,-0.7 -2.8,-1.2 0.9,0.6 1.9,0.9 2.8,1.2 z"
   id="path69"
   inkscape:connector-curvature="0"
   style="fill:#ffffff" />
					<path
   class="st3"
   d="m 201.9,184 c 1,0.2 2,0.5 2.9,0.9 -0.8,-0.4 -1.8,-0.7 -2.9,-0.9 z"
   id="path71"
   inkscape:connector-curvature="0"
   style="fill:#ffffff" />
					<path
   class="st3"
   d="m 207.3,212.1 c -0.1,0.1 -0.2,0.1 -0.3,0.2 0.1,0 0.2,-0.1 0.3,-0.2 z"
   id="path73"
   inkscape:connector-curvature="0"
   style="fill:#ffffff" />
					<path
   class="st3"
   d="m 213.9,203.3 c 0,0.1 0,0.1 0,0.2 -0.1,-0.1 -0.1,-0.1 0,-0.2 z"
   id="path75"
   inkscape:connector-curvature="0"
   style="fill:#ffffff" />
					<path
   class="st3"
   d="m 211.7,190.4 c 0.6,0.8 1,1.7 1.4,2.6 -0.3,-0.9 -0.8,-1.8 -1.4,-2.6 z"
   id="path77"
   inkscape:connector-curvature="0"
   style="fill:#ffffff" />
					<path
   class="st3"
   d="m 199,183.7 c 0,0 -0.1,0 0,0 0.4,0 0.9,0 1.4,0.1 -0.5,-0.1 -1,-0.1 -1.4,-0.1 z"
   id="path79"
   inkscape:connector-curvature="0"
   style="fill:#ffffff" />
					<path
   class="st3"
   d="m 210.9,189.2 c -1.3,-1.5 -2.8,-2.8 -4.6,-3.7 1.7,1 3.3,2.2 4.6,3.7 z"
   id="path81"
   inkscape:connector-curvature="0"
   style="fill:#ffffff" />
					<path
   class="st3"
   d="m 193.2,184.8 c 0.1,0 0.2,-0.1 0.3,-0.1 -0.1,0.1 -0.2,0.1 -0.3,0.1 z"
   id="path83"
   inkscape:connector-curvature="0"
   style="fill:#ffffff" />
					<path
   class="st3"
   d="m 196,184 c 0.1,0 0.2,0 0.3,0 -0.1,0 -0.2,0 -0.3,0 z"
   id="path85"
   inkscape:connector-curvature="0"
   style="fill:#ffffff" />
					<path
   class="st3"
   d="m 212.9,205.9 c 0,0.1 -0.1,0.2 -0.1,0.3 0,-0.1 0,-0.2 0.1,-0.3 z"
   id="path87"
   inkscape:connector-curvature="0"
   style="fill:#ffffff" />
					<path
   class="st3"
   d="m 190.7,186.1 c 0.1,-0.1 0.2,-0.1 0.3,-0.2 -0.1,0.1 -0.2,0.2 -0.3,0.2 z"
   id="path89"
   inkscape:connector-curvature="0"
   style="fill:#ffffff" />
					<path
   class="st3"
   d="m 231,172.4 c -7.1,-8.6 -17.2,-13.8 -28.3,-14.8 -1.2,-0.1 -2.5,-0.2 -3.8,-0.2 -21.7,0 -39.6,16.3 -41.5,38 -1,11.1 2.4,21.9 9.5,30.5 7.1,8.6 17.2,13.8 28.3,14.8 1.2,0.1 2.5,0.2 3.8,0.2 21.7,0 39.6,-16.3 41.5,-38 1.1,-11.1 -2.3,-21.9 -9.5,-30.5 z m -16.6,28.1 c -0.1,1 -0.3,1.9 -0.5,2.8 0,0.1 0,0.1 0,0.2 -0.2,0.9 -0.6,1.7 -1,2.4 0,0.1 -0.1,0.2 -0.1,0.3 -0.4,0.7 -0.8,1.5 -1.3,2.1 -0.1,0.1 -0.1,0.2 -0.2,0.3 -0.5,0.6 -1.1,1.2 -1.7,1.8 -0.1,0.1 -0.2,0.2 -0.3,0.3 -0.6,0.5 -1.3,1 -1.9,1.5 -0.1,0.1 -0.2,0.1 -0.3,0.2 -0.7,0.4 -1.4,0.8 -2.2,1.1 -0.1,0 -0.2,0.1 -0.3,0.1 -0.8,0.3 -1.6,0.5 -2.4,0.7 -0.1,0 -0.2,0 -0.3,0 -0.9,0.2 -1.7,0.2 -2.6,0.3 0,0 0,0 -0.1,0 -0.5,0 -0.9,0 -1.4,-0.1 -1.1,-0.1 -2.1,-0.3 -3.1,-0.6 -1,-0.3 -1.9,-0.7 -2.8,-1.2 -0.4,-0.2 -0.9,-0.5 -1.3,-0.8 -0.8,-0.6 -1.6,-1.2 -2.3,-1.9 -0.4,-0.3 -0.7,-0.7 -1,-1.1 -0.6,-0.8 -1.2,-1.6 -1.7,-2.4 -0.2,-0.4 -0.5,-0.9 -0.7,-1.3 -0.6,-1.4 -1,-2.8 -1.2,-4.4 -0.1,-0.5 -0.1,-1 -0.1,-1.5 0,-0.5 0,-1 0.1,-1.6 0.1,-1 0.3,-1.9 0.5,-2.8 0,-0.1 0,-0.1 0,-0.2 0.2,-0.9 0.6,-1.7 1,-2.4 0,-0.1 0.1,-0.2 0.1,-0.3 0.4,-0.7 0.8,-1.5 1.3,-2.1 0.1,-0.1 0.1,-0.2 0.2,-0.3 0.5,-0.6 1.1,-1.2 1.7,-1.8 0.1,-0.1 0.2,-0.2 0.3,-0.3 0.6,-0.5 1.3,-1 1.9,-1.5 0.1,-0.1 0.2,-0.1 0.3,-0.2 0.7,-0.4 1.4,-0.8 2.2,-1.1 0.1,0 0.2,-0.1 0.3,-0.1 0.8,-0.3 1.6,-0.5 2.4,-0.7 0.1,0 0.2,0 0.3,0 0.9,-0.2 1.7,-0.2 2.6,-0.3 0,0 0,0 0.1,0 0.5,0 0.9,0 1.4,0.1 0.5,0 1.1,0.1 1.6,0.2 1,0.2 2,0.5 2.9,0.9 0.5,0.2 0.9,0.4 1.4,0.6 1.8,0.9 3.3,2.2 4.6,3.7 0.3,0.4 0.6,0.8 0.9,1.2 0.6,0.8 1,1.7 1.4,2.6 1.1,2.4 1.5,5 1.3,7.6 z"
   id="path91"
   inkscape:connector-curvature="0"
   style="fill:#ffffff" />
					<path
   class="st3"
   d="m 212.7,206.2 c -0.4,0.7 -0.8,1.5 -1.3,2.1 0.5,-0.6 0.9,-1.3 1.3,-2.1 z"
   id="path93"
   inkscape:connector-curvature="0"
   style="fill:#ffffff" />
					<path
   class="st3"
   d="m 209.2,210.7 c -0.6,0.5 -1.3,1 -1.9,1.5 0.7,-0.5 1.3,-1 1.9,-1.5 z"
   id="path95"
   inkscape:connector-curvature="0"
   style="fill:#ffffff" />
					<path
   class="st3"
   d="m 211.2,208.6 c -0.5,0.6 -1.1,1.2 -1.7,1.8 0.6,-0.5 1.2,-1.1 1.7,-1.8 z"
   id="path97"
   inkscape:connector-curvature="0"
   style="fill:#ffffff" />
					<path
   class="st3"
   d="m 214.4,200.5 c -0.1,1 -0.3,1.9 -0.5,2.8 0.2,-0.9 0.4,-1.8 0.5,-2.8 z"
   id="path99"
   inkscape:connector-curvature="0"
   style="fill:#ffffff" />
					<path
   class="st3"
   d="m 213.8,203.5 c -0.2,0.8 -0.6,1.7 -1,2.4 0.4,-0.7 0.8,-1.6 1,-2.4 z"
   id="path101"
   inkscape:connector-curvature="0"
   style="fill:#ffffff" />
					<path
   class="st3"
   d="m 193.6,184.7 c 0.8,-0.3 1.6,-0.5 2.4,-0.7 -0.9,0.2 -1.7,0.4 -2.4,0.7 z"
   id="path103"
   inkscape:connector-curvature="0"
   style="fill:#ffffff" />
					<path
   class="st3"
   d="m 191,185.9 c 0.7,-0.4 1.4,-0.8 2.2,-1.1 -0.8,0.3 -1.5,0.7 -2.2,1.1 z"
   id="path105"
   inkscape:connector-curvature="0"
   style="fill:#ffffff" />
					<path
   class="st3"
   d="m 186.8,189.7 c 0.5,-0.6 1.1,-1.2 1.7,-1.8 -0.6,0.5 -1.2,1.1 -1.7,1.8 z"
   id="path107"
   inkscape:connector-curvature="0"
   style="fill:#ffffff" />
					<path
   class="st3"
   d="m 188.8,187.6 c 0.6,-0.5 1.3,-1 1.9,-1.5 -0.7,0.5 -1.3,1 -1.9,1.5 z"
   id="path109"
   inkscape:connector-curvature="0"
   style="fill:#ffffff" />
					<path
   class="st3"
   d="m 196.3,184 c 0.9,-0.2 1.7,-0.2 2.6,-0.3 -0.9,0 -1.8,0.1 -2.6,0.3 z"
   id="path111"
   inkscape:connector-curvature="0"
   style="fill:#ffffff" />
					<path
   class="st3"
   d="m 184.1,195 c -0.2,0.9 -0.4,1.8 -0.5,2.8 0,0.5 -0.1,1.1 -0.1,1.6 0,-0.5 0,-1 0.1,-1.6 0.1,-1 0.3,-1.9 0.5,-2.8 z"
   id="path113"
   inkscape:connector-curvature="0"
   style="fill:#ffffff" />
					<path
   class="st3"
   d="m 207,212.4 c -0.7,0.4 -1.4,0.8 -2.2,1.1 0.8,-0.4 1.5,-0.7 2.2,-1.1 z"
   id="path115"
   inkscape:connector-curvature="0"
   style="fill:#ffffff" />
					<path
   class="st3"
   d="m 201.7,214.3 c -0.9,0.2 -1.7,0.2 -2.6,0.3 0.9,0 1.8,-0.1 2.6,-0.3 z"
   id="path117"
   inkscape:connector-curvature="0"
   style="fill:#ffffff" />
					<path
   class="st3"
   d="m 204.4,213.6 c -0.8,0.3 -1.6,0.5 -2.4,0.7 0.9,-0.2 1.7,-0.4 2.4,-0.7 z"
   id="path119"
   inkscape:connector-curvature="0"
   style="fill:#ffffff" />
					<path
   class="st3"
   d="m 184.2,194.8 c 0.2,-0.9 0.6,-1.7 1,-2.4 -0.4,0.7 -0.8,1.6 -1,2.4 z"
   id="path121"
   inkscape:connector-curvature="0"
   style="fill:#ffffff" />
					<path
   class="st3"
   d="m 185.3,192.1 c 0.4,-0.7 0.8,-1.5 1.3,-2.1 -0.5,0.6 -0.9,1.3 -1.3,2.1 z"
   id="path123"
   inkscape:connector-curvature="0"
   style="fill:#ffffff" />
				</g>
			</g>
		</g>
	</g>
</g>
</svg>