<?xml version="1.0" encoding="UTF-8"?>
<!DOCTYPE svg PUBLIC "-//W3C//DTD SVG 1.1//EN" "http://www.w3.org/Graphics/SVG/1.1/DTD/svg11.dtd">
<!-- Creator: CorelDRAW X7 -->
<svg xmlns="http://www.w3.org/2000/svg" xml:space="preserve" width="43.3492mm" height="43.3492mm" version="1.1" style="shape-rendering:geometricPrecision; text-rendering:geometricPrecision; image-rendering:optimizeQuality; fill-rule:evenodd; clip-rule:evenodd"
viewBox="0 0 4335 4335"
 xmlns:xlink="http://www.w3.org/1999/xlink">
 <defs>
  <style type="text/css">
   <![CDATA[
    .fil2 {fill:none}
    .fil0 {fill:#2B2A29}
    .fil1 {fill:black}
    .fil3 {fill:#35FFE5;fill-rule:nonzero}
   ]]>
  </style>
   <clipPath id="id0">
    <path d="M2167 0c1198,0 2168,970 2168,2167 0,1198 -970,2168 -2168,2168 -1197,0 -2167,-970 -2167,-2168 0,-1197 970,-2167 2167,-2167z"/>
   </clipPath>
 </defs>
 <g id="Слой_x0020_1">
  <metadata id="CorelCorpID_0Corel-Layer"/>
  <path class="fil0" d="M2167 0c1198,0 2168,970 2168,2167 0,1198 -970,2168 -2168,2168 -1197,0 -2167,-970 -2167,-2168 0,-1197 970,-2167 2167,-2167z"/>
  <g style="clip-path:url(#id0)">
   <g id="_1309386544">
    <rect class="fil1" width="4335" height="4335"/>
   </g>
  </g>
  <path class="fil2" d="M2167 0c1198,0 2168,970 2168,2167 0,1198 -970,2168 -2168,2168 -1197,0 -2167,-970 -2167,-2168 0,-1197 970,-2167 2167,-2167z"/>
  <circle class="fil1" cx="2167" cy="2167" r="2167"/>
  <path class="fil3" d="M2167 167c553,0 1053,224 1415,586 362,362 586,862 586,1414 0,553 -224,1053 -586,1415 -362,362 -862,586 -1415,586 -552,0 -1052,-224 -1414,-586 -362,-362 -586,-862 -586,-1415 0,-552 224,-1052 586,-1414 362,-362 862,-586 1414,-586zm1309 692c-335,-335 -798,-542 -1309,-542 -510,0 -973,207 -1308,542 -335,335 -542,798 -542,1308 0,511 207,974 542,1309 335,334 798,542 1308,542 511,0 974,-208 1309,-542 334,-335 542,-798 542,-1309 0,-510 -208,-973 -542,-1308z"/>
  <polygon class="fil3" points="1665,1141 2977,1141 3194,1141 3194,1357 3194,1634 3194,1851 2977,1851 1256,1851 1256,2128 1516,2128 1733,2128 1733,2344 1733,3079 2009,3079 2009,2820 2009,2603 2009,2603 2225,2603 2225,2603 2977,2603 2977,2326 2121,2326 2121,2110 2977,2110 3194,2110 3194,2326 3194,2603 3194,2603 3194,2820 3194,2820 2977,2820 2225,2820 2225,3079 2225,3295 2009,3295 1733,3295 1516,3295 1516,3079 1516,2344 1256,2344 1040,2344 1040,2128 1040,1851 1040,1634 1256,1634 2977,1634 2977,1357 1665,1357 "/>
 </g>
</svg>
