<svg id="Layer_1" data-name="Layer 1" xmlns="http://www.w3.org/2000/svg" viewBox="0 0 1000 1000"><defs><style>.cls-1{fill:#070618;}.cls-2{fill:#fff;}</style></defs><circle class="cls-1" cx="500" cy="500" r="500"/><path class="cls-2" d="M691.12,403.69a5.45,5.45,0,0,0-2.68-4.75l-52.5-32.61a5.46,5.46,0,0,0-2.42-.79l-41.72-3.22-50.61-74.15L499.47,159.54a5.49,5.49,0,0,0-5.54-3.87,5.93,5.93,0,0,0-5.24,4.22L457.05,294.38h-26a5.54,5.54,0,0,0-5.11,3.43l-27,65.13-62.36,13.11a5.81,5.81,0,0,0-3.79,2.78L309.45,422a7.35,7.35,0,0,0-.57,2.2v1.54l37.41,184.87a6.08,6.08,0,0,0,2,3.34l76.21,59.15,38.95,64.6,47.7,103.42a5.58,5.58,0,0,0,5.33,3.21,5.31,5.31,0,0,0,4.09-2.69l.22.14,59.5-92.55,73.58-113.1a5.1,5.1,0,0,0,.79-2.11v-.13l36.17-229.58h-.13C691,404.26,691.12,404,691.12,403.69Zm-98.53-13.42-37.27,7.66-35.52,7.43,31-35.16,4.54-5.23.44-.44.88.57,8.89,6.2Zm-15-29.18,4,5.9,2.77,4-6.12-4.31-8.89-6.2-9.77-6.87-5.32-18.88-3.65-13.11ZM495,181.77l35.86,110.41,17.87,63.46-2.69,3-4.53,5.23L537,369.1l-29.84,34L495.64,365.8l-1.76-5.68-1.76-5.67-7.65-24.65c0-.13-.14-.13-.22-.22a3.89,3.89,0,0,1-.22-.79l-16.42-29.61ZM458.19,305.51l4.89,8.89-13.42-8.89Zm-51,67.11,2.55-6.2,2.55-6.21L419,343.89l14.74-35.74,27.72,18.31,7.66,5.1-33,23.64-11.22,8-11.22,8-8.54,6.12Zm33.49-7,11.22-8,8-5.68L476,340.41l4.1,13.11,1.76,5.68,1.76,5.68,13.55,43.74H424.66l-22.4-15.53Zm-99.2,20.77,52.5-11-6.42,15.67a5.4,5.4,0,0,0,2,6.65l30.41,21a5.2,5.2,0,0,0,3.12,1h81.68a3.08,3.08,0,0,0,1.1-.13l101.52-21a5.64,5.64,0,0,0,4-3.35,5.8,5.8,0,0,0-.58-5.24l-11-16.1,31.42,2.42,43.53,27-56.16,32.09-174.22,9.19-121.41-24ZM451,455.4l164.58-8.67,13.64,89.55L550.87,716.49l-51.62-55.58Zm31.95,184.34-68.35-89.11L327.36,432.87l112,22.18ZM324.81,448l78,105.43-47.48,45.29Zm35.51,161.1,49.16-46.82,74.15,96.64-53.16,4.75Zm77.76,65L486,669.93,467.13,722.3Zm77.37,149.5-41-88.77,21.87-60.81,49.94,53.82Zm55.8-80.36-36.53,56.94,22.75-70.67L618.38,671Zm-2.56-40.09,63.59-146.28,11.31,74.24Zm80.8-106.28-23.19-153,16.63-9.55,35.38-20.2Z"/></svg>