<?xml version="1.0" encoding="UTF-8"?>
<svg xmlns="http://www.w3.org/2000/svg"
    xmlns:xlink="http://www.w3.org/1999/xlink" width="256pt" height="256pt" viewBox="0 0 256 256" version="1.1">
    <g id="surface1">
        <path style=" stroke:none;fill-rule:nonzero;fill:rgb(31.764706%,17.647059%,65.882353%);fill-opacity:1;" d="M 36.65625 0 L 219.257812 0 C 239.5 0 255.910156 16.410156 255.910156 36.65625 L 255.910156 219.257812 C 255.910156 239.5 239.5 255.910156 219.257812 255.910156 L 36.65625 255.910156 C 16.410156 255.910156 0 239.5 0 219.257812 L 0 36.65625 C 0 16.410156 16.410156 0 36.65625 0 Z M 36.65625 0 "/>
        <path style=" stroke:none;fill-rule:nonzero;fill:rgb(100%,100%,100%);fill-opacity:1;" d="M 142.40625 72.355469 L 79.5625 72.355469 C 74.929688 72.429688 71.210938 76.207031 71.210938 80.84375 C 71.210938 85.476562 74.929688 89.253906 79.5625 89.332031 L 142.40625 89.332031 C 145.46875 89.378906 148.324219 87.773438 149.871094 85.125 C 151.417969 82.480469 151.417969 79.207031 149.871094 76.558594 C 148.324219 73.914062 145.46875 72.304688 142.40625 72.355469 Z M 142.40625 72.355469 "/>
        <path style=" stroke:none;fill-rule:nonzero;fill:rgb(100%,100%,100%);fill-opacity:1;" d="M 79.5625 153.835938 L 142.40625 153.835938 C 145.46875 153.886719 148.324219 152.277344 149.871094 149.632812 C 151.417969 146.988281 151.417969 143.710938 149.871094 141.066406 C 148.324219 138.417969 145.46875 136.8125 142.40625 136.863281 L 79.5625 136.863281 C 74.929688 136.9375 71.210938 140.714844 71.210938 145.347656 C 71.210938 149.984375 74.929688 153.761719 79.5625 153.835938 Z M 79.5625 153.835938 "/>
        <path style=" stroke:none;fill-rule:nonzero;fill:rgb(100%,100%,100%);fill-opacity:1;" d="M 101.675781 121.582031 C 104.742188 121.632812 107.59375 120.027344 109.140625 117.378906 C 110.6875 114.734375 110.6875 111.457031 109.140625 108.8125 C 107.59375 106.167969 104.742188 104.558594 101.675781 104.609375 L 79.5625 104.609375 C 76.5 104.558594 73.644531 106.167969 72.097656 108.8125 C 70.550781 111.457031 70.550781 114.734375 72.097656 117.378906 C 73.644531 120.027344 76.5 121.632812 79.5625 121.582031 Z M 101.675781 121.582031 "/>
        <path style=" stroke:none;fill-rule:nonzero;fill:rgb(100%,100%,100%);fill-opacity:1;" d="M 221.875 133.964844 L 220.355469 46.074219 C 220.28125 41.605469 216.636719 38.023438 212.164062 38.023438 L 211.875 38.023438 C 207.347656 38.023438 203.679688 41.691406 203.679688 46.21875 L 203.679688 63.574219 L 204.902344 134.429688 L 204.902344 134.652344 C 204.902344 135.5625 204.765625 140.394531 202.332031 146.691406 C 199.894531 152.988281 195.261719 160.808594 185.816406 168.246094 C 174.488281 177.152344 158.828125 187.695312 146.101562 195.921875 C 139.734375 200.042969 134.089844 203.589844 130.039062 206.109375 L 129.820312 206.246094 C 128.683594 206.953125 127.246094 206.953125 126.109375 206.246094 L 126.089844 206.234375 L 125.855469 206.089844 C 124.378906 205.171875 122.710938 204.136719 120.902344 202.996094 L 120.917969 202.996094 L 120.730469 202.878906 L 120.679688 202.839844 L 120.632812 202.8125 C 119.4375 202.070312 118.109375 201.214844 116.636719 200.289062 L 116.246094 200.039062 C 115.71875 199.699219 115.140625 199.324219 114.480469 198.898438 L 114.394531 198.847656 L 114.351562 198.824219 C 113.003906 197.960938 111.625 197.078125 110.207031 196.171875 L 109.988281 196.019531 L 109.871094 195.941406 L 109.75 195.863281 C 109.164062 195.492188 108.511719 195.0625 107.792969 194.601562 L 107.558594 194.441406 L 107.457031 194.371094 L 107.351562 194.300781 C 106.71875 193.898438 106.082031 193.484375 105.46875 193.074219 L 105.304688 192.964844 L 105.132812 192.863281 C 105.078125 192.828125 104.972656 192.757812 104.839844 192.675781 C 104.210938 192.257812 103.597656 191.859375 103.011719 191.480469 L 103 191.480469 L 102.96875 191.460938 L 102.398438 191.082031 C 101.765625 190.664062 101.089844 190.199219 100.410156 189.757812 L 100.328125 189.703125 L 100.25 189.652344 L 100.097656 189.554688 L 99.996094 189.480469 L 99.847656 189.382812 C 99.082031 188.875 98.394531 188.425781 97.808594 188.015625 L 97.660156 187.914062 L 97.160156 187.601562 C 96.597656 187.222656 95.972656 186.792969 95.265625 186.316406 L 95.253906 186.316406 L 95.230469 186.304688 C 95.136719 186.242188 94.9375 186.101562 94.679688 185.929688 C 93.976562 185.449219 93.238281 184.949219 92.46875 184.445312 L 92.105469 184.191406 L 92.058594 184.160156 L 92.007812 184.125 C 91.464844 183.757812 90.867188 183.335938 90.242188 182.898438 L 90.222656 182.898438 C 89.917969 182.675781 89.660156 182.511719 89.421875 182.355469 C 88.945312 182.027344 88.421875 181.65625 87.816406 181.253906 L 87.871094 181.289062 L 86.859375 180.582031 L 86.847656 180.582031 L 86.828125 180.570312 C 86.214844 180.144531 85.648438 179.75 85.128906 179.371094 L 84.988281 179.273438 L 84.847656 179.183594 C 84.75 179.113281 84.628906 179.03125 84.4375 178.886719 L 84.34375 178.816406 L 84.242188 178.75 C 83.71875 178.386719 83.140625 177.96875 82.519531 177.527344 L 82.414062 177.449219 L 82.316406 177.386719 L 82.144531 177.261719 C 82.050781 177.195312 81.910156 177.09375 81.746094 176.980469 C 81.304688 176.660156 80.828125 176.316406 80.3125 175.941406 L 80.328125 175.941406 C 79.976562 175.679688 79.644531 175.453125 79.324219 175.230469 C 78.785156 174.832031 78.335938 174.507812 77.980469 174.238281 C 77.539062 173.90625 77.183594 173.652344 76.957031 173.484375 L 76.9375 173.46875 L 76.902344 173.441406 C 76.546875 173.179688 76.140625 172.875 75.71875 172.558594 C 75.296875 172.238281 74.921875 171.957031 74.503906 171.648438 C 74.089844 171.34375 73.675781 171.011719 73.324219 170.75 L 73.277344 170.714844 L 73.234375 170.683594 C 72.996094 170.511719 72.675781 170.261719 72.289062 169.964844 L 72.273438 169.964844 L 72.253906 169.949219 C 71.601562 169.460938 70.90625 168.90625 70.160156 168.316406 L 70.140625 168.300781 C 60.707031 160.871094 56.078125 153.0625 53.628906 146.75 C 51.175781 140.441406 51.050781 135.621094 51.054688 134.710938 L 51.054688 134.507812 L 52.160156 70.734375 L 52.160156 55.050781 L 169.277344 55.050781 L 169.277344 60.996094 C 169.277344 62 169.816406 62.925781 170.6875 63.425781 C 171.554688 63.929688 172.628906 63.929688 173.496094 63.425781 L 198.492188 48.992188 C 199.363281 48.492188 199.898438 47.5625 199.898438 46.554688 C 199.898438 45.550781 199.363281 44.621094 198.492188 44.117188 L 173.46875 29.640625 C 172.597656 29.136719 171.527344 29.136719 170.65625 29.636719 C 169.789062 30.140625 169.25 31.066406 169.246094 32.070312 L 169.246094 38.011719 L 35.714844 38.011719 L 34.0625 133.953125 C 34.0625 134.121094 34.050781 134.335938 34.050781 134.636719 C 34.050781 137.101562 34.378906 143.996094 37.757812 152.785156 C 41.140625 161.574219 47.660156 172.195312 59.625 181.574219 L 59.609375 181.574219 L 59.628906 181.574219 C 60.339844 182.136719 61.128906 182.765625 62 183.425781 L 61.96875 183.398438 C 62.273438 183.621094 62.667969 183.9375 63.132812 184.28125 C 63.53125 184.578125 63.875 184.835938 64.171875 185.070312 L 64.285156 185.164062 L 64.402344 185.25 C 64.75 185.507812 65.140625 185.796875 65.546875 186.101562 L 65.582031 186.132812 L 65.609375 186.148438 L 66.789062 187.03125 L 66.738281 186.992188 C 67.179688 187.332031 67.546875 187.589844 67.78125 187.765625 C 68.359375 188.207031 68.835938 188.539062 69.210938 188.824219 L 69.359375 188.933594 L 69.511719 189.035156 C 69.773438 189.214844 70.039062 189.402344 70.253906 189.5625 L 70.269531 189.5625 C 70.773438 189.933594 71.320312 190.335938 71.921875 190.761719 L 72.019531 190.832031 L 72.101562 190.882812 L 72.277344 191.011719 C 72.371094 191.078125 72.5 191.179688 72.671875 191.289062 C 73.238281 191.691406 73.867188 192.148438 74.554688 192.617188 C 74.742188 192.753906 74.949219 192.898438 75.167969 193.058594 C 75.859375 193.558594 76.511719 194.011719 77.117188 194.429688 L 78.125 195.136719 L 78.152344 195.152344 L 78.179688 195.175781 C 78.660156 195.503906 79.1875 195.878906 79.792969 196.292969 L 79.90625 196.375 L 80.570312 196.816406 L 80.554688 196.816406 C 81.113281 197.203125 81.738281 197.640625 82.414062 198.097656 L 82.804688 198.371094 L 82.890625 198.433594 L 82.984375 198.492188 C 83.644531 198.933594 84.363281 199.417969 85.109375 199.925781 L 85.152344 199.957031 L 85.203125 199.992188 C 85.296875 200.050781 85.515625 200.210938 85.8125 200.402344 L 85.777344 200.378906 C 86.398438 200.796875 87.070312 201.261719 87.816406 201.757812 L 87.910156 201.824219 L 88.351562 202.101562 C 89.113281 202.625 89.816406 203.085938 90.425781 203.492188 C 90.679688 203.667969 90.882812 203.804688 91.027344 203.898438 C 91.648438 204.3125 92.3125 204.761719 92.992188 205.222656 L 93.035156 205.253906 L 93.09375 205.289062 C 93.183594 205.34375 93.410156 205.511719 93.808594 205.761719 L 93.769531 205.734375 C 94.398438 206.144531 95 206.53125 95.546875 206.902344 L 95.710938 207.007812 L 95.832031 207.082031 L 96.160156 207.289062 C 96.792969 207.710938 97.421875 208.121094 98.042969 208.515625 L 98.300781 208.695312 L 98.398438 208.761719 L 98.5 208.828125 C 99.121094 209.222656 99.785156 209.660156 100.5 210.117188 L 100.722656 210.273438 L 100.898438 210.394531 C 102.417969 211.375 103.894531 212.320312 105.316406 213.222656 L 105.421875 213.289062 L 105.515625 213.34375 C 106.125 213.726562 106.785156 214.164062 107.542969 214.644531 L 107.945312 214.894531 L 107.984375 214.917969 C 109.203125 215.6875 110.414062 216.464844 111.628906 217.21875 L 111.816406 217.339844 L 111.832031 217.339844 C 113.722656 218.535156 115.445312 219.601562 116.910156 220.519531 L 116.925781 220.519531 L 117.144531 220.65625 C 119.371094 222.039062 121.089844 223.085938 122.101562 223.722656 L 122.136719 223.742188 L 122.164062 223.761719 C 123.046875 224.296875 123.617188 224.644531 123.644531 224.65625 L 126.207031 226.175781 C 127.320312 226.835938 128.710938 226.832031 129.820312 226.160156 L 132.371094 224.613281 C 132.417969 224.585938 142.386719 218.546875 155.34375 210.175781 C 168.300781 201.800781 184.191406 191.117188 196.324219 181.589844 C 208.289062 172.210938 214.824219 161.570312 218.191406 152.792969 C 221.558594 144.019531 221.898438 137.109375 221.902344 134.648438 C 221.882812 134.339844 221.878906 134.128906 221.875 133.964844 Z M 221.875 133.964844 "/>
    </g>
</svg>
