<svg xmlns="http://www.w3.org/2000/svg" viewBox="0 0 515.53 516"><defs><style>.cls-1{fill:#22373d;}.cls-2{fill:#ccc;}.cls-3{fill:#76bedd;}.cls-4{fill:#e6e6e6;}.cls-5{fill:#fff;}</style></defs><g id="Layer_2" data-name="Layer 2"><g id="Layer_1-2" data-name="Layer 1"><rect class="cls-1" width="515.53" height="516"/><polygon class="cls-2" points="93.76 168.59 55.71 146.62 55.71 369.39 93.76 347.42 93.76 168.59"/><polygon class="cls-3" points="459.82 146.62 459.82 369.39 421.76 347.42 421.76 168.59 459.82 146.62"/><polygon class="cls-4" points="97.76 357.68 59.71 379.64 252.63 491.03 252.63 447.09 97.76 357.68"/><polygon class="cls-5" points="417.77 357.68 455.82 379.64 262.89 491.03 262.89 447.09 417.77 357.68"/><polygon class="cls-5" points="262.89 24.97 455.82 136.36 417.77 158.33 262.89 68.91 262.89 24.97"/><polygon class="cls-4" points="252.64 24.97 59.71 136.36 97.76 158.33 252.64 68.91 252.64 24.97"/><polygon class="cls-3" points="296.18 308.24 296.18 207.77 321.77 222.46 321.77 293.36 296.18 308.24"/><polygon class="cls-3" points="261.76 283.13 261.76 232.88 277.42 241.85 277.42 274.04 261.76 283.13"/><polygon class="cls-3" points="350.19 338.7 350.19 177.3 388.25 199.14 388.25 316.6 350.19 338.7"/></g></g></svg>