<svg xmlns="http://www.w3.org/2000/svg" viewBox="0 0 900 899.99"><defs><style>.cls-1{fill:#e42c84;}.cls-2{fill:#009eff;}</style></defs><title>Asset 36</title><g id="Layer_2" data-name="Layer 2"><g id="Layer_1-2" data-name="Layer 1"><path class="cls-1" d="M131.8,131.8c-175.73,175.73-175.73,460.66,0,636.4,107.56,107.55,256,149.27,395.3,125.17L330.5,696.78,485.71,541.57,358.43,414.29l-144.6,144.6C169.55,462.82,187,345.31,266.15,266.15A259.15,259.15,0,0,1,446,190L286.58,30.6A448.49,448.49,0,0,0,131.8,131.8Z"/><path class="cls-2" d="M374.11,6.41l196.1,196.1L414.29,358.43,541.57,485.71l144.6-144.6c44.28,96.06,26.84,213.57-52.32,292.73a259.08,259.08,0,0,1-178.47,76.09L614.44,869A448.61,448.61,0,0,0,768.2,768.2c175.73-175.74,175.73-460.67,0-636.4C661,24.56,513.05-17.24,374.11,6.41Z"/></g></g></svg>