<?xml version="1.0" encoding="utf-8"?>
<!-- Generator: Adobe Illustrator 24.2.3, SVG Export Plug-In . SVG Version: 6.00 Build 0)  -->
<svg version="1.1" id="Layer_1" xmlns="http://www.w3.org/2000/svg" xmlns:xlink="http://www.w3.org/1999/xlink" x="0px" y="0px"
	 viewBox="0 0 1612.43 1619.88" style="enable-background:new 0 0 1612.43 1619.88;" xml:space="preserve">
<style type="text/css">
	.st0{fill:#333333;}
	.st1{fill:url(#Path_3973_4_);}
	.st2{fill:url(#Path_3974_4_);}
	.st3{fill:url(#Path_3975_4_);}
	.st4{fill:#0A2336;}
	.st5{fill:url(#Path_3973_5_);}
	.st6{fill:url(#Path_3974_5_);}
	.st7{fill:url(#Path_3975_5_);}
	.st8{fill:#656565;}
	.st9{fill:url(#Path_3973_6_);}
	.st10{fill:url(#Path_3974_6_);}
	.st11{fill:url(#Path_3975_6_);}
</style>
<g>
	<circle id="Ellipse_375_2_" class="st4" cx="806.21" cy="809.94" r="781.68"/>
	<linearGradient id="Path_3973_4_" gradientUnits="userSpaceOnUse" x1="797.3841" y1="322.3082" x2="808.551" y2="1301.2708">
		<stop  offset="0" style="stop-color:#B7FDBC"/>
		<stop  offset="1" style="stop-color:#FAFD89"/>
	</linearGradient>
	<path id="Path_3973_3_" class="st1" d="M801.75,1105.13c-42.41-0.03-84.41-8.27-123.69-24.25l-206.66-83.8l-103.24,45.97
		c-27.96,12.47-40.5,45.25-28.03,73.21c5.82,13.04,16.43,23.32,29.65,28.72l323.12,141.02c70.16,28.58,148.69,28.67,218.92,0.26
		l324.57-140.68c33.24-13.46,49.27-51.32,35.8-84.56c-6.6-16.29-19.52-29.21-35.8-35.8l-86.21-35.03l-225.44,90.72
		C885.67,1096.8,843.92,1105.02,801.75,1105.13z"/>
	<linearGradient id="Path_3974_4_" gradientUnits="userSpaceOnUse" x1="812.1468" y1="296.4998" x2="800.9799" y2="1301.5184">
		<stop  offset="0" style="stop-color:#B7FDBC"/>
		<stop  offset="1" style="stop-color:#FAFD89"/>
	</linearGradient>
	<path id="Path_3974_3_" class="st2" d="M1236.52,758.37l-109.77-44.4l-201.93,81.26c-39.06,15.78-80.78,23.91-122.9,23.95
		c-42.41-0.03-84.41-8.27-123.69-24.25l-184.33-74.74L368.34,776.1c-27.96,12.47-40.5,45.25-28.03,73.21
		c5.82,13.04,16.43,23.32,29.65,28.72l192.65,78.5l142.34,59.15c61.98,25.29,131.39,25.38,193.44,0.26l156.97-63.97l181.22-73.29
		c33.22-13.45,49.24-51.28,35.79-84.49C1265.76,777.88,1252.83,764.96,1236.52,758.37z"/>
	<linearGradient id="Path_3975_4_" gradientUnits="userSpaceOnUse" x1="807.627" y1="318.5233" x2="800.1824" y2="1301.2081">
		<stop  offset="0" style="stop-color:#B7FDBC"/>
		<stop  offset="1" style="stop-color:#FAFD89"/>
	</linearGradient>
	<path id="Path_3975_3_" class="st3" d="M1236.52,472.07L874.92,325.78c-46.31-18.74-98.25-17.84-143.87,2.5l-362.75,161.3
		c-27.96,12.48-40.5,45.25-28.03,73.21c5.82,13.03,16.43,23.32,29.65,28.72l215.5,87.79l119.44,50.35
		c61.98,25.28,131.39,25.37,193.44,0.26l132.84-54.73l205.3-83.19c33.13-13.73,48.85-51.72,35.11-84.85
		C1264.97,491.28,1252.38,478.66,1236.52,472.07z"/>
</g>
</svg>
