<?xml version="1.0" encoding="utf-8"?>
<!-- Generator: Adobe Illustrator 24.1.2, SVG Export Plug-In . SVG Version: 6.00 Build 0)  -->
<svg version="1.1" id="Layer_1" xmlns="http://www.w3.org/2000/svg" xmlns:xlink="http://www.w3.org/1999/xlink" x="0px" y="0px"
	 viewBox="0 0 841.9 595.3" style="enable-background:new 0 0 841.9 595.3;" xml:space="preserve">
<style type="text/css">
	.st0{fill:url(#SVGID_1_);}
	.st1{fill:url(#SVGID_2_);}
	.st2{fill:#383838;}
	.st3{fill:url(#SVGID_3_);}
	.st4{fill:url(#SVGID_4_);}
	.st5{fill:url(#SVGID_5_);}
	.st6{fill:url(#SVGID_6_);}
	.st7{fill:url(#SVGID_7_);}
	.st8{fill:url(#SVGID_8_);}
	.st9{fill:#FFFFFF;}
	.st10{fill:#39B54A;}
</style>
<g>
	<linearGradient id="SVGID_1_" gradientUnits="userSpaceOnUse" x1="456.8313" y1="337.6541" x2="502.9691" y2="289.539">
		<stop  offset="0" style="stop-color:#39B54A"/>
		<stop  offset="0.289" style="stop-color:#38B149"/>
		<stop  offset="0.4554" style="stop-color:#34A847"/>
		<stop  offset="0.5907" style="stop-color:#2E9D44"/>
		<stop  offset="0.7093" style="stop-color:#238D40"/>
		<stop  offset="0.8169" style="stop-color:#137A3A"/>
		<stop  offset="0.9151" style="stop-color:#006431"/>
		<stop  offset="1" style="stop-color:#004E26"/>
	</linearGradient>
	<path class="st0" d="M533,267.4c0,15.7-3.5,30.6-9.9,43.9c-10.3,21.7-27.9,39.2-49.8,49.3l-18.7-48.5c11.4-6.3,20.2-16.8,24.2-29.4
		c1.5-4.8,2.3-10,2.3-15.3c0-1.3,0-2.6-0.1-3.8c0-0.5-0.1-1-0.1-1.5h51.9C533,263.8,533,265.6,533,267.4z"/>
	<linearGradient id="SVGID_2_" gradientUnits="userSpaceOnUse" x1="345.2637" y1="290.3518" x2="524.8179" y2="224.0648">
		<stop  offset="0" style="stop-color:#81C341"/>
		<stop  offset="1" style="stop-color:#009444"/>
	</linearGradient>
	<path class="st1" d="M532.5,164.7H431.4c-56.7,0-104.1,46.4-103.8,103.1c0.1,18.4,5,35.7,13.5,50.6c14.2,24.8,38.4,43.1,67.2,49.4
		c-28.7-6.3-53-24.6-67.2-49.4c-0.7-5-1-9.8-1-14.3c0-66.8,68.2-83.2,71.1-83.9c0.1,0,0.1,0,0.1,0c5.8-2.4,12.3-3.7,18.9-3.7h50.4
		C509.3,216.5,532.5,193.3,532.5,164.7L532.5,164.7z"/>
	<path class="st2" d="M473.4,360.6c-13.1,6.1-27.7,9.5-43.1,9.5c-4.2,0-8.3-0.3-12.3-0.7c-2.3-0.3-4.6-0.6-6.9-1.1
		c-0.9-0.2-1.9-0.4-2.8-0.6c-28.7-6.3-53-24.6-67.2-49.4c-0.7-5-1-9.8-1-14.3c0-66.8,68.2-83.2,71.1-83.9
		c-18.7,7.5-31.9,25.9-31.9,47.2c0,28.1,22.8,50.9,50.9,50.9c8.9,0,17.2-2.3,24.4-6.2L473.4,360.6z"/>
	<linearGradient id="SVGID_3_" gradientUnits="userSpaceOnUse" x1="417.3405" y1="296.9843" x2="354.0109" y2="274.8786">
		<stop  offset="0" style="stop-color:#81C341"/>
		<stop  offset="1" style="stop-color:#009444"/>
	</linearGradient>
	<path class="st3" d="M473.4,360.6c-13.1,6.1-27.7,9.5-43.1,9.5c-4.2,0-8.3-0.3-12.3-0.7c-2.3-0.3-4.6-0.6-6.9-1.1
		c-0.9-0.2-1.9-0.4-2.8-0.6c-28.7-6.3-53-24.6-67.2-49.4c-0.7-5-1-9.8-1-14.3c0-66.8,68.2-83.2,71.1-83.9
		c-18.7,7.5-31.9,25.9-31.9,47.2c0,28.1,22.8,50.9,50.9,50.9c8.9,0,17.2-2.3,24.4-6.2L473.4,360.6z"/>
	<g>
		<linearGradient id="SVGID_4_" gradientUnits="userSpaceOnUse" x1="397.2717" y1="211.0687" x2="337.701" y2="317.4449">
			<stop  offset="0" style="stop-color:#009444"/>
			<stop  offset="1.497451e-02" style="stop-color:#209844"/>
			<stop  offset="7.641388e-02" style="stop-color:#5AA643"/>
			<stop  offset="0.1412" style="stop-color:#7AB341"/>
			<stop  offset="0.2095" style="stop-color:#92BF3F"/>
			<stop  offset="0.2829" style="stop-color:#A4C93D"/>
			<stop  offset="0.3647" style="stop-color:#AFD03B"/>
			<stop  offset="0.4724" style="stop-color:#B2D33B"/>
			<stop  offset="0.579" style="stop-color:#AED03B"/>
			<stop  offset="0.6712" style="stop-color:#A2C83D"/>
			<stop  offset="0.7581" style="stop-color:#8FBD3F"/>
			<stop  offset="0.8417" style="stop-color:#75B141"/>
			<stop  offset="0.9222" style="stop-color:#51A343"/>
			<stop  offset="1" style="stop-color:#009444"/>
		</linearGradient>
		<path class="st4" d="M341.1,318.3c-1-5.5-1.7-11-1.6-16.6c-0.1-5.6,0.5-11.2,1.5-16.7c2.1-11.1,7-21.6,13.8-30.7
			c3.5-4.5,7.4-8.6,11.6-12.3c4.3-3.7,8.9-7,13.7-9.8c4.8-2.9,9.9-5.3,15.1-7.3c5.2-2,10.5-3.7,16-4.7c-5.3,1.7-10.4,3.7-15.4,6.1
			c-5,2.4-9.8,5-14.4,8c-4.6,3-9,6.3-13.1,9.9c-4.1,3.6-7.8,7.6-11.1,12c-3.3,4.3-6.1,9-8.5,13.9c-2.3,4.9-4.2,10.1-5.4,15.4
			c-0.4,1.3-0.6,2.7-0.8,4c-0.2,1.3-0.6,2.7-0.7,4.1l-0.5,4.1c-0.1,1.4-0.2,2.7-0.3,4.1C340.5,307.2,340.7,312.8,341.1,318.3z"/>
	</g>
	<linearGradient id="SVGID_5_" gradientUnits="userSpaceOnUse" x1="420.9998" y1="275.3506" x2="533.0098" y2="275.3506">
		<stop  offset="0" style="stop-color:#51B848"/>
		<stop  offset="0.6092" style="stop-color:#51B848"/>
		<stop  offset="0.7068" style="stop-color:#51B848"/>
		<stop  offset="0.7945" style="stop-color:#4BB148"/>
		<stop  offset="0.9031" style="stop-color:#35A447"/>
		<stop  offset="1" style="stop-color:#069447"/>
	</linearGradient>
	<path class="st5" d="M533,262.7v4.7c0,9-1.2,17.7-3.3,26c-1.6,6.2-3.8,12.2-6.5,17.9c3.1-25.2-28.7-28.5-44.3-28.7
		c-5,0-8.3,0.2-8.3,0.2h-20.4c-9.6,0-18.1-4.6-23.5-11.8c-3.6-4.9-5.8-10.9-5.8-17.4c0-3.9,1.6-7.5,4.2-10.1
		c2.6-2.6,6.2-4.2,10.1-4.2h74.3C522.5,239.4,533,249.8,533,262.7z"/>
	<linearGradient id="SVGID_6_" gradientUnits="userSpaceOnUse" x1="458.4896" y1="298.593" x2="396.3548" y2="328.4655">
		<stop  offset="0" style="stop-color:#81C341"/>
		<stop  offset="1" style="stop-color:#009444"/>
	</linearGradient>
	<path class="st6" d="M523.2,311.3c-10.3,21.7-27.9,39.2-49.8,49.3c-114.6,8.2-94-93.2-94-93.2c0,28.1,22.8,50.9,50.9,50.9
		c8.9,0,17.2-2.3,24.4-6.2c1.8-1,3.5-2,5.1-3.2c8.9-6.4,15.7-15.5,19-26.2C494.5,282.8,526.2,286.2,523.2,311.3z"/>
	<g>
		<linearGradient id="SVGID_7_" gradientUnits="userSpaceOnUse" x1="364.6973" y1="280.3247" x2="460.0081" y2="375.6355">
			<stop  offset="0" style="stop-color:#009444"/>
			<stop  offset="1.497451e-02" style="stop-color:#209844"/>
			<stop  offset="7.641388e-02" style="stop-color:#5AA643"/>
			<stop  offset="0.1412" style="stop-color:#7AB341"/>
			<stop  offset="0.2095" style="stop-color:#92BF3F"/>
			<stop  offset="0.2829" style="stop-color:#A4C93D"/>
			<stop  offset="0.3647" style="stop-color:#AFD03B"/>
			<stop  offset="0.4724" style="stop-color:#B2D33B"/>
			<stop  offset="0.579" style="stop-color:#AED03B"/>
			<stop  offset="0.6712" style="stop-color:#A2C83D"/>
			<stop  offset="0.7581" style="stop-color:#8FBD3F"/>
			<stop  offset="0.8417" style="stop-color:#75B141"/>
			<stop  offset="0.9222" style="stop-color:#51A343"/>
			<stop  offset="1" style="stop-color:#009444"/>
		</linearGradient>
		<path class="st7" d="M473.4,360.6c-3.3,0.3-6.6,0.6-9.9,0.8c-3.3,0.1-6.6,0.1-9.9,0.2c-1.7-0.1-3.3-0.2-5-0.3
			c-1.7-0.1-3.3-0.1-5-0.3l-5-0.7l-2.5-0.3l-2.4-0.5l-4.9-1c-1.6-0.4-3.2-1-4.8-1.5l-2.4-0.7l-2.3-0.9l-2.3-0.9
			c-0.8-0.3-1.6-0.6-2.3-1l-4.5-2.3c-1.5-0.8-2.8-1.8-4.3-2.7c-1.5-0.9-2.7-2-4.1-3l-2-1.6L398,342c-4.9-4.7-9-10.1-12.1-16.1
			c-3.1-6-5.3-12.4-6.7-18.9c-2.7-13.1-2.6-26.7,0.2-39.6c-0.8,6.6-1,13.1-0.7,19.7c0.3,6.5,1.2,13.1,2.8,19.4
			c3.1,12.6,9.2,24.6,18.6,33.4c4.7,4.4,10,8.1,15.8,11c0.7,0.4,1.5,0.7,2.2,1l2.2,1l2.2,1l2.3,0.8l4.6,1.5l4.7,1.2
			C447,360.3,460.2,361,473.4,360.6z"/>
	</g>
	<linearGradient id="SVGID_8_" gradientUnits="userSpaceOnUse" x1="469.1305" y1="335.4852" x2="509.1596" y2="291.2739">
		<stop  offset="3.953035e-02" style="stop-color:#81C341;stop-opacity:0"/>
		<stop  offset="0.7657" style="stop-color:#009444"/>
	</linearGradient>
	<path class="st8" d="M523.2,311.3c-1.9,4-4,7.8-6.4,11.5c-10.5,16.4-25.6,29.5-43.4,37.8l-13.5-51.8c8.9-6.4,15.7-15.5,19-26.2
		C494.5,282.8,526.2,286.2,523.2,311.3z"/>
	<g>
		<path class="st9" d="M455.8,255.9h-3c-0.4,0-0.7-0.3-0.7-0.7v-3c0-2.1-1.7-3.9-3.9-3.9l0,0c-2.1,0-3.9,1.7-3.9,3.9v3
			c0,0.4-0.3,0.7-0.7,0.7h-3c-2.1,0-3.9,1.7-3.9,3.9v0c0,2.1,1.7,3.9,3.9,3.9h3c0.4,0,0.7,0.3,0.7,0.7v3c0,2.1,1.7,3.9,3.9,3.9l0,0
			c2.1,0,3.9-1.7,3.9-3.9v-3c0-0.4,0.3-0.7,0.7-0.7h3c2.1,0,3.9-1.7,3.9-3.9v0C459.7,257.7,458,255.9,455.8,255.9z"/>
		<g>
			<circle class="st9" cx="505.3" cy="252.1" r="3.8"/>
			<circle class="st9" cx="505.3" cy="267.5" r="3.8"/>
			<circle class="st9" cx="497.6" cy="259.8" r="3.8"/>
			<circle class="st9" cx="513" cy="259.8" r="3.8"/>
		</g>
	</g>
	<g>
		<path class="st10" d="M523.2,311.3c0.6-3.7,0-7.4-1.5-10.7c-1.5-3.3-4-6-6.9-8.1c-2.9-2.1-6.2-3.7-9.7-4.8c-3.4-1.2-7-2-10.6-2.6
			c-7.2-1.2-14.6-1.6-22-1.7c-7.4-0.1-14.8-0.4-22.2-0.8c7.4-0.4,14.8-0.6,22.2-0.8l5.6-0.1c1.9,0,3.7,0.1,5.6,0.1
			c3.7,0.3,7.5,0.6,11.1,1.2c3.7,0.7,7.4,1.5,10.9,2.8c3.5,1.3,7,3,10,5.4c3,2.3,5.5,5.4,6.9,9C523.9,303.8,524.2,307.8,523.2,311.3
			z"/>
	</g>
</g>
</svg>
