<svg id="Layer_1" data-name="Layer 1" xmlns="http://www.w3.org/2000/svg" xmlns:xlink="http://www.w3.org/1999/xlink" viewBox="0 0 512 512"><defs><style>.cls-1{fill:#fff;}.cls-2{fill:url(#linear-gradient);}</style><linearGradient id="linear-gradient" x1="137.46" y1="50.68" x2="374.54" y2="461.32" gradientUnits="userSpaceOnUse"><stop offset="0" stop-color="#0095d7"/><stop offset="1" stop-color="#0072aa"/></linearGradient></defs><circle class="cls-1" cx="256" cy="256" r="255"/><circle id="Ellipse_256" data-name="Ellipse 256" class="cls-2" cx="256" cy="256" r="237.05"/><path class="cls-1" d="M344.74,394.83,334.1,364.29a3,3,0,0,0-3-2.77,2.9,2.9,0,0,0-1,.19,108.16,108.16,0,0,1-33.55,5.11,100.88,100.88,0,0,1-34.06-5.72,126.51,126.51,0,0,0-38.23-7.3,136.47,136.47,0,0,0,16.24-29.56c3.47-8.52,7.87-30.56,7.87-43.19v-4.63h68.29a3,3,0,0,0,3-3V244.23a3,3,0,0,0-3-3H240.15L239,238.32c-2.3-5.72-4.83-11.29-7.53-16.55-2.78-5.42-5.41-10.81-7.79-16a144.61,144.61,0,0,1-6.14-15.69,53.19,53.19,0,0,1-2.64-16.38c0-11.49,3.94-21.26,11.7-29s17.82-11.7,29.9-11.7C268.08,133,280,136.34,292,143a90.68,90.68,0,0,1,23.64,18.92,3,3,0,0,0,2.24,1h0a3,3,0,0,0,2.26-1.05l20.72-24.28a3,3,0,0,0,0-3.88,112.62,112.62,0,0,0-34.79-27.67,105.68,105.68,0,0,0-48.71-11.81,96.22,96.22,0,0,0-33.81,5.87A90.58,90.58,0,0,0,196.13,116,73.37,73.37,0,0,0,177.9,139.4,64,64,0,0,0,171.34,168a78.9,78.9,0,0,0,7.27,33.27c4.92,10.7,10.17,21.94,15.6,33.4l3.14,6.61H166a3,3,0,0,0-3,3v29.19a3,3,0,0,0,3,3h41.45v4.63a93.29,93.29,0,0,1-12.28,47.2c-7.7,13.38-20.69,25.61-33.58,36.84a3,3,0,0,0-1,2.68,3,3,0,0,0,1.14,2l.07.14,14.16,28.88a2.88,2.88,0,0,0,.27.83,3,3,0,0,0,4,1.36,92,92,0,0,1,36.26-7.38,82.39,82.39,0,0,1,27.88,4.74,145.56,145.56,0,0,0,49.17,8.35c28.17,0,48.6-7.7,49.46-8A3,3,0,0,0,344.74,394.83Z"/></svg>