<?xml version="1.0" encoding="UTF-8"?>
<!DOCTYPE svg PUBLIC "-//W3C//DTD SVG 1.1//EN" "http://www.w3.org/Graphics/SVG/1.1/DTD/svg11.dtd">
<!-- Creator: CorelDRAW 2017 -->
<svg xmlns="http://www.w3.org/2000/svg" xml:space="preserve" width="1.82541in" height="1.82541in" version="1.1" style="shape-rendering:geometricPrecision; text-rendering:geometricPrecision; image-rendering:optimizeQuality; fill-rule:evenodd; clip-rule:evenodd"
viewBox="0 0 3333.2 3333.2"
 xmlns:xlink="http://www.w3.org/1999/xlink">
 <defs>
  <style type="text/css">
   <![CDATA[
    .fil0 {fill:#334B63}
    .fil1 {fill:white;fill-rule:nonzero}
   ]]>
  </style>
 </defs>
 <g id="Layer_x0020_1">
  <metadata id="CorelCorpID_0Corel-Layer"/>
  <path class="fil0" d="M1666.6 0c920.44,0 1666.6,746.16 1666.6,1666.6 0,920.44 -746.16,1666.6 -1666.6,1666.6 -920.44,0 -1666.6,-746.16 -1666.6,-1666.6 0,-920.44 746.16,-1666.6 1666.6,-1666.6z"/>
  <g id="_2898199513088">
   <path class="fil1" d="M1342.25 1178.33c-28.39,0 -51.41,-20.96 -51.41,-46.8 0,-25.84 23.02,-46.81 51.41,-46.81l639.25 0c28.39,0 51.41,20.96 51.41,46.81 0,25.84 -23.02,46.8 -51.41,46.8l-639.25 0z"/>
   <path class="fil1" d="M1570.68 2545.81c-28.39,0 -51.41,-20.96 -51.41,-46.8 0,-25.84 23.02,-46.81 51.41,-46.81l193.83 0c28.39,0 51.4,20.96 51.4,46.81 0,25.84 -23.01,46.8 -51.4,46.8l-193.83 0z"/>
   <path class="fil1" d="M1542.08 1459.39c-28.39,0 -51.41,-20.96 -51.41,-46.8 0,-25.84 23.02,-46.8 51.41,-46.8l239.57 0c28.39,0 51.41,20.96 51.41,46.8 0,25.84 -23.02,46.8 -51.41,46.8l-239.57 0z"/>
   <path class="fil1" d="M1421.35 2211.37c19.9,-23.53 55.13,-26.46 78.65,-6.56 23.52,19.9 26.46,55.13 6.56,78.65l-311.17 368.33c-2,3.4 -2.9,7.58 -2.9,12.01 0,5.46 1.32,10.88 3.64,15.67 2.26,4.67 5.15,8.5 8.36,10.93 1.68,1.27 3.57,2.06 5.46,2.06l913.3 0c1.89,0 3.77,-0.78 5.46,-2.06 3.21,-2.44 6.1,-6.27 8.36,-10.93 2.32,-4.8 3.64,-10.22 3.64,-15.67 0,-4.44 -0.9,-8.63 -2.9,-12.01l-796.31 -942.54 -27.53 -32.44c-90.85,-106.54 -210.36,-246.7 -261.97,-386.14 -5.34,-14.46 -10.2,-29.38 -14.53,-44.66 -44.02,-155.09 -22.5,-316.46 48.55,-453.16 70.89,-136.37 191.31,-248.47 345.29,-305.44 15.09,-5.58 30.88,-10.73 47.28,-15.38 63.1,-17.91 125.61,-26.87 188.03,-26.87l0 0.22c62.93,0.01 125.45,8.89 188.03,26.65 16.4,4.65 32.17,9.8 47.27,15.38 153.97,56.96 274.41,169.07 345.29,305.45 71.04,136.71 92.57,298.07 48.54,453.16 -4.33,15.28 -9.19,30.19 -14.53,44.66 -51.58,139.38 -171.03,279.48 -261.87,386.02l-56.51 66.68c-18.76,22.16 -37.27,44.02 -61.93,73.4 -19.78,23.65 -55,26.77 -78.65,6.99 -23.64,-19.78 -26.77,-55 -6.99,-78.65 16.61,-19.78 39.64,-46.98 62.36,-73.82l56.97 -67.12c85.11,-99.83 197.04,-231.1 241.75,-351.94 4.57,-12.39 8.56,-24.53 11.91,-36.36 35.98,-126.76 18.17,-259.05 -40.24,-371.46 -58.58,-112.71 -157.85,-205.25 -284.55,-252.12 -13.03,-4.82 -26.05,-9.09 -38.97,-12.76 -53.35,-15.14 -105.85,-22.72 -157.88,-22.72l0 0.22c-52.57,0 -105.06,7.51 -157.87,22.49 -12.93,3.67 -25.95,7.94 -38.99,12.77 -126.71,46.87 -225.96,139.41 -284.55,252.12 -58.42,112.41 -76.22,244.71 -40.24,371.46 3.35,11.83 7.33,23.97 11.91,36.36 44.74,120.9 156.73,252.22 241.86,352.06l27.99 32.88 796.98 943.34 -0.11 0.09 1.85 2.31c18.82,24.8 27.13,53.11 27.13,80.9 0,22.21 -5.42,44.38 -15.01,64.18 -9.66,19.93 -23.95,37.77 -41.57,51.14 -20.7,15.7 -45.53,25.21 -72.75,25.21l-913.3 0c-27.2,0 -52.05,-9.51 -72.75,-25.21 -17.63,-13.37 -31.9,-31.19 -41.57,-51.14 -9.6,-19.79 -15.01,-41.96 -15.01,-64.18 0,-26.25 7.42,-52.95 24.08,-76.73 1.42,-2.27 3.01,-4.47 4.8,-6.58l311.85 -369.12z"/>
   <path class="fil1" d="M1542.08 913.27c-28.39,0 -51.41,-20.96 -51.41,-46.81 0,-25.84 23.02,-46.8 51.41,-46.8l239.57 0c28.39,0 51.41,20.96 51.41,46.8 0,25.84 -23.02,46.81 -51.41,46.81l-239.57 0z"/>
  </g>
 </g>
</svg>
