<svg xmlns="http://www.w3.org/2000/svg" width="400" height="400" viewBox="0 0 400 400"><g fill="none" fill-rule="evenodd"><circle cx="200" cy="200" r="182" fill="#FFF"/><path fill="#01C696" d="M0 200C0 89.725 89.725 0 200 0s200 89.725 200 200-89.725 200-200 200S0 310.275 0 200zm213.381-19.47v-27.68l-46.23 46.232 46.23 46.23v-27.85h79.068l-88.453 88.45L97.079 198.996 203.996 92.079l56.64 56.64c7.21 7.21 18.902 7.21 26.113 0 7.211-7.212 7.211-18.903 0-26.115l-69.696-69.696c-7.212-7.21-18.903-7.21-26.114 0l-133.03 133.03c-7.212 7.212-7.212 18.904 0 26.115l133.03 133.03c7.21 7.211 18.903 7.211 26.114 0L338.787 223.35c5.053-4.936 8.298-11.28 8.298-18.705 0-7.425-3.245-13.769-8.448-18.854a18.465 18.465 0 0 0-12.907-5.26H213.381z"/></g></svg>