<svg xmlns="http://www.w3.org/2000/svg" viewBox="0 0 2000 2000" width="2000" height="2000"><circle cx="1000" cy="1000" r="1000" fill="#002d64"/><path d="m1186.8 850c49.4-49.4 76.2-114.4 76.2-184.4a261 261 0 0 0 -60.6 -167.2l151.6-151.6-33.8-32.8-151.6 151.6c-46.8-39-104.8-60.6-166.2-60.6a260.78 260.78 0 0 0 -184.4 445c43.2 43.2 99.6 70.2 160.2 75.4v192.2a253.22 253.22 0 0 0 -160.2 75.4 261.22 261.22 0 0 0 0 368.8c49.4 49.4 114.4 76.2 184.4 76.2a259.33 259.33 0 0 0 184.4 -76.2c49.4-49.4 76.2-114.4 76.2-184.4s-26.8-135-76.2-184.4c-43.2-43.2-99.6-70.2-160.2-75.4v-192.2a252.75 252.75 0 0 0 160.2 -75.4m-33.8 376.6c39.8 40.6 62.4 93.6 62.4 150.6a212.11 212.11 0 0 1 -62.4 150.6c-39.8 40.6-93.6 62.4-150.6 62.4a212.11 212.11 0 0 1 -150.6 -62.4c-39.8-40.6-62.4-93.6-62.4-150.6a212.11 212.11 0 0 1 62.4 -150.6c39.8-40.6 93.6-62.4 150.6-62.4 57.2.2 110.8 21.8 150.6 62.4m-150.6-347.2a212.11 212.11 0 0 1 -150.6 -62.4c-39.8-40.6-62.4-93.6-62.4-150.6a212.45 212.45 0 0 1 62.4 -150.6c39.8-40.6 93.6-62.4 150.6-62.4a212.11 212.11 0 0 1 150.6 62.4c40.6 39.8 62.4 93.6 62.4 150.6a212.11 212.11 0 0 1 -62.4 150.6c-39.8 40.8-93.4 62.4-150.6 62.4" fill="#fff"/></svg>