<svg width="81px" height="80px" id="glq_logo" data-name="Слой 1" xmlns="http://www.w3.org/2000/svg" viewBox="0 0 241.62 241.62"><defs><style>.cls-1{fill:#4d9afb;}.cls-2{fill:#fff;}</style></defs><circle class="cls-1" cx="120.81" cy="120.81" r="120.81"/><path class="cls-2" d="M185.31,121.14,138.89,94.33v23.35a13.65,13.65,0,0,0,6.82,11.82l26.08,15.06-16.31,28.25H122.41v-104h33.07l14.43,25a17.3,17.3,0,0,0,23.64,6.34l8.72-5L176.76,51a18,18,0,0,0-15.56-9H90.35a17,17,0,0,0-14.72,8.49L40,112.2a17.2,17.2,0,0,0,0,17.22l35.44,61.35a17.74,17.74,0,0,0,15.38,8.88h70.36a18.06,18.06,0,0,0,15.64-9l25.32-43.84a13.81,13.81,0,0,0-5.06-18.86ZM95.57,172.81h-.14l-10-17.35L65.58,121.09l-.15-.28,30-52h.14Z"/></svg>