<?xml version="1.0" standalone="no"?>
<!DOCTYPE svg PUBLIC "-//W3C//DTD SVG 20010904//EN"
 "http://www.w3.org/TR/2001/REC-SVG-20010904/DTD/svg10.dtd">
<svg version="1.0" xmlns="http://www.w3.org/2000/svg"
 width="256.000000pt" height="256.000000pt" viewBox="0 0 256.000000 256.000000"
 preserveAspectRatio="xMidYMid meet">
<metadata>
Created by potrace 1.13, written by Peter Selinger 2001-2015
</metadata>
<g transform="translate(0.000000,256.000000) scale(0.100000,-0.100000)"
fill="#000000" stroke="none">
<path d="M0 1280 l0 -1280 1280 0 1280 0 0 1280 0 1280 -1280 0 -1280 0 0
-1280z m1785 1130 l28 -30 -128 -129 -128 -130 25 -38 c47 -72 70 -155 70
-259 0 -89 -6 -118 -35 -184 -22 -48 -70 -115 -110 -152 -39 -36 -146 -98
-170 -98 -7 0 -29 -5 -49 -11 l-38 -10 0 -159 0 -160 28 -6 c181 -40 294 -140
362 -321 20 -52 14 -219 -9 -281 -55 -147 -156 -244 -300 -288 -56 -17 -181
-18 -230 -3 -207 66 -331 233 -331 444 0 90 7 121 51 211 50 104 167 199 274
225 28 6 56 13 63 15 10 3 12 41 10 166 l-3 163 -50 11 c-157 35 -278 152
-333 325 -7 19 -12 71 -12 116 0 200 115 365 302 434 111 40 278 20 378 -48
19 -12 40 -23 46 -23 6 0 66 56 133 125 68 69 124 125 125 125 1 0 15 -13 31
-30z"/>
<path d="M1094 2177 c-82 -31 -159 -101 -198 -177 -50 -98 -56 -187 -21 -295
56 -173 257 -282 426 -231 72 22 120 51 165 98 175 182 121 482 -106 591 -53
25 -214 34 -266 14z"/>
<path d="M1098 940 c-124 -47 -201 -134 -237 -266 -40 -147 44 -329 187 -407
234 -127 522 54 522 328 0 165 -104 301 -269 354 -50 16 -149 12 -203 -9z"/>
</g>
</svg>
