<?xml version="1.0" encoding="UTF-8"?>
<svg width="96px" height="96px" viewBox="0 0 96 96" version="1.1" xmlns="http://www.w3.org/2000/svg" xmlns:xlink="http://www.w3.org/1999/xlink">
    <title>GRT - 12 / The Graph Token</title>
    <defs>
        <circle id="path-1" cx="48" cy="48" r="48"></circle>
        <radialGradient cx="50%" cy="50%" fx="50%" fy="50%" r="49.8798077%" id="radialGradient-3">
            <stop stop-color="#59CEFF" offset="0%"></stop>
            <stop stop-color="#59CEFF" stop-opacity="0" offset="100%"></stop>
        </radialGradient>
        <radialGradient cx="50%" cy="50%" fx="50%" fy="50%" r="49.8798077%" id="radialGradient-4">
            <stop stop-color="#4C66FF" offset="0%"></stop>
            <stop stop-color="#4C66FF" stop-opacity="0" offset="100%"></stop>
        </radialGradient>
        <radialGradient cx="50%" cy="50%" fx="50%" fy="50%" r="50%" id="radialGradient-5">
            <stop stop-color="#3A0C83" offset="0.879589161%"></stop>
            <stop stop-color="#3A0C83" stop-opacity="0" offset="100%"></stop>
        </radialGradient>
        <radialGradient cx="50%" cy="50%" fx="50%" fy="50%" r="49.8798077%" id="radialGradient-6">
            <stop stop-color="#6F4CFF" offset="0%"></stop>
            <stop stop-color="#6F4CFF" stop-opacity="0" offset="100%"></stop>
        </radialGradient>
    </defs>
    <g id="GRT---12-/-The-Graph-Token" stroke="none" stroke-width="1" fill="none" fill-rule="evenodd">
        <mask id="mask-2" fill="white">
            <use xlink:href="#path-1"></use>
        </mask>
        <g id="Clipping-mask"></g>
        <g id="Highlights" mask="url(#mask-2)">
            <g transform="translate(-96.000000, -96.000000)">
                <circle id="Dark" fill="#0C0A1D" cx="144" cy="144" r="48"></circle>
                <circle id="Turquoise" fill="url(#radialGradient-3)" cx="96" cy="192" r="96"></circle>
                <circle id="Blue" fill="url(#radialGradient-4)" cx="192" cy="192" r="96"></circle>
                <circle id="Purple---2" fill="url(#radialGradient-5)" cx="192" cy="96" r="96"></circle>
                <circle id="Purple---1" fill="url(#radialGradient-6)" cx="96" cy="96" r="96"></circle>
                <path d="M191.976993,142.499494 C191.992294,142.997788 192,143.497994 192,144 C192,170.509668 170.509668,192 144,192 C117.490332,192 96,170.509668 96,144 C96,143.497994 96.0077064,142.997788 96.0230074,142.499494 C96.8156541,168.315817 117.992302,189 144,189 C169.979475,189 191.138379,168.360685 191.974343,142.584425 Z" id="Dark" fill-opacity="0.16" fill="#0C0A1D"></path>
                <path d="M191.976993,95.9998936 C191.992294,96.4981878 192,96.9983937 192,97.5003996 C192,124.010068 170.509668,145.5004 144,145.5004 C117.490332,145.5004 96,124.010068 96,97.5003996 C96,96.9983937 96.0077064,96.4981878 96.0230074,95.9998936 C96.8156541,121.816217 117.992302,142.5004 144,142.5004 C169.979475,142.5004 191.138379,121.861085 191.974343,96.0848247 Z" id="White" fill-opacity="0.08" fill="#FFFFFF" transform="translate(144.000000, 120.750200) scale(1, -1) translate(-144.000000, -120.750200) "></path>
            </g>
        </g>
        <g id="Group" mask="url(#mask-2)">
            <g transform="translate(15.500000, 18.000000)" id="Logos-/-The-Graph">
                <path d="M50.103125,43.5644228 C51.3151042,44.7710113 51.3599923,46.6991895 50.2377894,47.9592291 L50.103125,48.1015742 L37.2121094,60.9352532 C35.9535156,62.1882489 33.9132813,62.1882489 32.6546875,60.9352532 C31.4427083,59.7286646 31.3978202,57.8004864 32.5200231,56.5404468 L32.6546875,56.3981018 L45.5457031,43.5644228 C46.8042969,42.311427 48.8445313,42.311427 50.103125,43.5644228 Z M31.7109375,4.125 C42.3898438,4.125 51.046875,12.7435265 51.046875,23.3749352 C51.046875,34.0063438 42.3898438,42.6248704 31.7109375,42.6248704 C21.0320313,42.6248704 12.375,34.0063438 12.375,23.3749352 C12.375,12.7435265 21.0320313,4.125 31.7109375,4.125 Z M31.7109375,10.5416451 C24.5917969,10.5416451 18.8203125,16.2870702 18.8203125,23.3749352 C18.8203125,30.4628002 24.5917969,36.2082253 31.7109375,36.2082253 C38.8304688,36.2082253 44.6015625,30.4628002 44.6015625,23.3749352 C44.6015625,16.2870702 38.8304688,10.5416451 31.7109375,10.5416451 Z M54.2699219,4.125 C56.0496094,4.125 57.4921875,5.56116183 57.4921875,7.33332253 C57.4921875,9.10548323 56.0496094,10.5416451 54.2699219,10.5416451 C52.4898437,10.5416451 51.0472656,9.10548323 51.0472656,7.33332253 C51.0472656,5.56116183 52.4898437,4.125 54.2699219,4.125 Z" id="g" fill="#FFFFFF"></path>
            </g>
        </g>
    </g>
</svg>