<svg width="128" height="128" viewBox="0 0 128 128" fill="none" xmlns="http://www.w3.org/2000/svg">
<g clip-path="url(#clip0)">
<path d="M64 128C99.3131 128 128 99.3759 128 64.0404C127.919 28.6241 99.3131 0 64 0C28.6061 0 0 28.6241 0 63.9596C0 99.295 28.6061 128 64 128Z" fill="#02E2AC"/>
<path fill-rule="evenodd" clip-rule="evenodd" d="M89.3096 85.2494L84.8742 81.8523C88.1625 77.1425 89.9979 71.5063 89.9979 65.8701C90.0743 59.7706 88.0861 53.7483 84.3389 48.8842L89.3096 44.1745C89.9214 43.634 89.9214 42.7075 89.3861 42.0898L88.1625 40.8545C81.9682 34.5234 73.5563 30.8174 64.7619 30.5085V25.3356C64.8384 22.3244 60.1735 22.3244 60.1735 25.3356V30.663C58.1088 30.8174 56.044 31.2806 54.0557 31.8211V25.2584C54.1322 22.2472 49.4674 22.2472 49.4674 25.2584V33.5197H49.3909C42.3554 36.8396 36.3905 42.4759 32.8728 49.6563C29.2786 56.6823 28.1315 64.8664 29.6609 72.6644C31.2669 80.4625 35.3964 87.4885 41.4377 92.6615C47.4791 97.7572 55.1263 100.614 63.003 100.846L88.4684 101C89.2331 101 89.8449 100.382 89.8449 99.6102V86.6392C89.8449 85.9443 89.692 85.4811 89.3096 85.2494ZM72.2562 60.0794L79.5211 53.4395C84.4918 60.4655 84.6448 70.5798 79.5976 77.7602L71.8738 71.8151C73.1739 70.1166 73.8621 68.1863 73.9386 66.0245C73.8621 63.9399 73.4033 61.9324 72.2562 60.0794ZM83.5742 93.8968C83.5742 94.2828 83.2683 94.5917 82.8859 94.5917L63.5383 94.5145C57.2676 94.4373 51.1498 92.3526 46.179 88.5694C41.2083 84.709 37.6141 79.2272 36.0846 73.1277C32.7198 60.8515 38.4553 46.954 49.4674 40.7773L49.6968 40.7001V50.66C49.6203 53.6711 54.2851 53.6711 54.2851 50.66V38.461C63.0795 35.3727 73.4798 36.9168 80.8212 42.7075C81.2035 42.9391 81.2035 43.4796 80.8976 43.7884L67.4384 56.1418C64.8384 55.0609 61.8559 55.0609 59.3323 56.2962C55.2793 58.1492 52.6792 62.7045 53.4439 67.1826C53.5969 68.6496 54.1322 70.0393 54.8969 71.2747C55.6616 72.5872 56.7323 73.5909 57.9558 74.4402C60.4029 76.0616 63.5383 76.5249 66.3678 75.6756L83.3447 88.7238C83.4977 88.8782 83.5742 89.1099 83.5742 89.3415V93.8968ZM67.6679 65.7157C67.6679 66.4877 67.4384 67.337 66.9796 67.9547C66.5208 68.6496 65.909 69.1128 65.1443 69.4989C64.3795 69.8077 63.5383 69.8849 62.8501 69.6533C62.0854 69.4989 61.3971 69.1128 60.7853 68.5724C60.25 68.0319 59.8676 67.2598 59.7147 66.4877C59.5618 65.7157 59.6382 64.8664 59.9441 64.1715C60.25 63.3994 60.7853 62.8589 61.3971 62.3185C63.003 61.2376 65.1443 61.4692 66.5208 62.8589C67.209 63.5538 67.6679 64.6347 67.6679 65.7157Z" fill="#0E0333"/>
</g>
<defs>
<clipPath id="clip0">
<rect width="128" height="128" fill="white"/>
</clipPath>
</defs>
</svg>
