<?xml version="1.0" encoding="UTF-8"?>
<svg width="150px" height="150px" viewBox="0 0 150 150" version="1.1" xmlns="http://www.w3.org/2000/svg" xmlns:xlink="http://www.w3.org/1999/xlink">
    <!-- Generator: Sketch 52.6 (67491) - http://www.bohemiancoding.com/sketch -->
    <title>shaka_brand-purple_transparent</title>
    <desc>Created with Sketch.</desc>
    <g id="shaka_brand-purple_transparent" stroke="none" stroke-width="1" fill="none" fill-rule="evenodd">
        <path d="M61.2440849,27.501031 L61.2440849,7.41683461 L74.2800462,-1.70530257e-13 L136.389124,35.3370762 L97.3436701,57.5520604 L97.3436701,43.1731214 C100.510049,41.9673228 102.758608,38.9136509 102.758608,35.3370762 C102.758608,30.705214 98.9873965,26.9503478 94.3353714,26.9503478 C89.6833463,26.9503478 85.9121348,30.705214 85.9121348,35.3370762 C85.9121348,38.9136509 88.1606935,41.9673228 91.3270726,43.1731214 L91.3270726,60.9752148 L74.2800462,70.6741524 L12.1709683,35.3370762 L55.2274873,10.8399891 L55.2274873,27.501031 C52.0611082,28.7068296 49.8125495,31.7605015 49.8125495,35.3370762 C49.8125495,39.9689384 53.583761,43.7238046 58.2357861,43.7238046 C62.8878112,43.7238046 66.6590227,39.9689384 66.6590227,35.3370762 C66.6590227,31.7605015 64.410464,28.7068296 61.2440849,27.501031 Z M141,97.9933784 L141,109.419609 C141,112.141717 139.54509,114.656237 137.185122,116.01286 L78.7901164,149.581106 C78.5125569,149.740661 78.2274409,149.881344 77.9365559,150.003155 L77.9365559,103.560775 L90.0904129,110.544376 C89.980754,111.084389 89.9231998,111.643212 89.9231998,112.21542 C89.9231998,116.847282 93.6944113,120.602148 98.3464364,120.602148 C102.998461,120.602148 106.769673,116.847282 106.769673,112.21542 C106.769673,107.583557 102.998461,103.828691 98.3464364,103.828691 C96.4622158,103.828691 94.7224938,104.444681 93.3193258,105.485439 L77.9365559,96.646506 L77.9365559,77.7835879 C78.0454098,77.7280603 78.1533003,77.6699084 78.2601373,77.6091233 L140.369215,42.2720471 C140.581271,42.1513977 140.787135,42.0214844 140.986276,41.8828356 C140.995393,42.0345328 141,42.1870567 141,42.3402379 L141,91.0791097 L128.561642,83.9320344 C128.579231,83.710742 128.588192,83.4870322 128.588192,83.2612383 C128.588192,78.6293761 124.816981,74.87451 120.164956,74.87451 C115.512931,74.87451 111.741719,78.6293761 111.741719,83.2612383 C111.741719,87.8931005 115.512931,91.6479667 120.164956,91.6479667 C122.408902,91.6479667 124.44791,90.7743208 125.957587,89.3500143 L141,97.9933784 Z M9,98.0251807 L23.0632378,89.9444503 C24.4770831,91.0134972 26.2405241,91.6479667 28.1527984,91.6479667 C32.8048235,91.6479667 36.576035,87.8931005 36.576035,83.2612383 C36.576035,78.6293761 32.8048235,74.87451 28.1527984,74.87451 C23.5007733,74.87451 19.7295618,78.6293761 19.7295618,83.2612383 C19.7295618,83.8072806 19.7819728,84.3411346 19.8820592,84.8580855 L9,91.110912 L9,42.732399 L70.2999551,77.6091233 C70.4067925,77.6699086 70.5146834,77.7280607 70.6235365,77.7835797 L70.6235365,96.646506 L55.2407667,105.485439 C53.8375986,104.444681 52.0978766,103.828691 50.2136561,103.828691 C45.561631,103.828691 41.7904195,107.583557 41.7904195,112.21542 C41.7904195,116.847282 45.561631,120.602148 50.2136561,120.602148 C54.8656811,120.602148 58.6368926,116.847282 58.6368926,112.21542 C58.6368926,111.643212 58.5793385,111.084389 58.4696796,110.544376 L70.6235365,103.560775 L70.6235365,149.244046 L12.8148779,116.01286 C10.4549101,114.656237 9,112.141717 9,109.419609 L9,98.0251807 Z M50.2136561,115.809732 C48.219931,115.809732 46.6036975,114.200503 46.6036975,112.21542 C46.6036975,110.230336 48.219931,108.621107 50.2136561,108.621107 C52.2073811,108.621107 53.8236146,110.230336 53.8236146,112.21542 C53.8236146,114.200503 52.2073811,115.809732 50.2136561,115.809732 Z M28.1527984,86.8555505 C26.1590734,86.8555505 24.5428399,85.2463221 24.5428399,83.2612383 C24.5428399,81.2761545 26.1590734,79.6669262 28.1527984,79.6669262 C30.1465234,79.6669262 31.7627569,81.2761545 31.7627569,83.2612383 C31.7627569,85.2463221 30.1465234,86.8555505 28.1527984,86.8555505 Z M98.3464364,115.809732 C96.3527113,115.809732 94.7364779,114.200503 94.7364779,112.21542 C94.7364779,110.230336 96.3527113,108.621107 98.3464364,108.621107 C100.340161,108.621107 101.956395,110.230336 101.956395,112.21542 C101.956395,114.200503 100.340161,115.809732 98.3464364,115.809732 Z M120.164956,86.8555505 C118.171231,86.8555505 116.554997,85.2463221 116.554997,83.2612383 C116.554997,81.2761545 118.171231,79.6669262 120.164956,79.6669262 C122.158681,79.6669262 123.774914,81.2761545 123.774914,83.2612383 C123.774914,85.2463221 122.158681,86.8555505 120.164956,86.8555505 Z M94.3353714,38.9313884 C92.3416463,38.9313884 90.7254128,37.32216 90.7254128,35.3370762 C90.7254128,33.3519924 92.3416463,31.742764 94.3353714,31.742764 C96.3290964,31.742764 97.9453299,33.3519924 97.9453299,35.3370762 C97.9453299,37.32216 96.3290964,38.9313884 94.3353714,38.9313884 Z M58.2357861,38.9313884 C56.2420611,38.9313884 54.6258276,37.32216 54.6258276,35.3370762 C54.6258276,33.3519924 56.2420611,31.742764 58.2357861,31.742764 C60.2295111,31.742764 61.8457446,33.3519924 61.8457446,35.3370762 C61.8457446,37.32216 60.2295111,38.9313884 58.2357861,38.9313884 Z" id="Combined-Shape" fill="#B733A7"></path>
    </g>
</svg>