<svg width="280" height="280" viewBox="0 0 280 280" fill="none" xmlns="http://www.w3.org/2000/svg">
<g clip-path="url(#clip0)">
<path d="M258.396 198.675C290.797 133.29 264.057 54.0178 198.672 21.6169C133.286 -10.784 54.0142 15.9555 21.6133 81.3413C-10.7876 146.727 15.9519 225.999 81.3377 258.4C146.723 290.801 225.995 264.061 258.396 198.675Z" fill="#472EDB"/>
<path d="M120.4 217C119.097 216.999 117.81 216.712 116.63 216.159C115.449 215.606 114.405 214.801 113.57 213.8L113.51 213.73C112.683 212.71 112.09 211.519 111.776 210.243C111.461 208.968 111.432 207.638 111.69 206.35C112.227 203.642 113.243 201.051 114.69 198.7C96.2603 189.13 82.6903 169.64 80.2203 148.39C80.0402 146.853 80.2193 145.296 80.7433 143.84C81.2674 142.384 82.1221 141.07 83.2403 140C85.1846 138.15 87.7662 137.118 90.4503 137.12C91.0505 137.119 91.6496 137.173 92.2403 137.28C108.165 139.928 124.277 141.296 140.42 141.37C156.587 141.29 172.722 139.919 188.67 137.27C189.235 137.174 189.807 137.127 190.38 137.13C193.044 137.124 195.609 138.137 197.55 139.96C198.7 141.032 199.578 142.361 200.114 143.839C200.649 145.317 200.826 146.901 200.63 148.46C198.14 169.67 184.63 189.15 166.16 198.73C167.605 201.075 168.621 203.659 169.16 206.36C169.415 207.65 169.384 208.98 169.07 210.257C168.755 211.534 168.165 212.726 167.34 213.75L167.28 213.82C166.446 214.821 165.401 215.626 164.221 216.179C163.041 216.732 161.754 217.019 160.45 217.02L120.4 217ZM102.57 159.35C103.394 161.386 104.398 163.343 105.57 165.2L103.31 159.44L102.57 159.35Z" fill="white"/>
<path d="M90.4499 142.58C90.7217 142.583 90.9927 142.61 91.2599 142.66C107.509 145.364 123.948 146.762 140.42 146.84C156.892 146.76 173.331 145.362 189.58 142.66C189.844 142.611 190.112 142.588 190.38 142.59C191.65 142.589 192.873 143.072 193.8 143.94C194.311 144.421 194.702 145.016 194.942 145.676C195.181 146.336 195.263 147.043 195.18 147.74C192.67 169.17 177.9 188.63 158.45 196.16C158.306 196.216 158.179 196.309 158.082 196.428C157.985 196.548 157.92 196.691 157.895 196.844C157.87 196.996 157.885 197.152 157.938 197.297C157.992 197.442 158.082 197.571 158.2 197.67C161.066 200.219 163.01 203.643 163.73 207.41C163.832 207.903 163.824 208.413 163.704 208.903C163.585 209.392 163.358 209.849 163.04 210.24C162.722 210.63 162.321 210.945 161.866 211.162C161.411 211.378 160.914 211.49 160.41 211.49H120.41C119.91 211.49 119.415 211.38 118.962 211.168C118.51 210.955 118.109 210.645 117.79 210.26C117.471 209.866 117.243 209.406 117.122 208.913C117.001 208.42 116.99 207.907 117.09 207.41C117.799 203.639 119.744 200.211 122.62 197.67C122.74 197.572 122.832 197.443 122.884 197.296C122.937 197.15 122.95 196.992 122.92 196.84C122.899 196.687 122.837 196.543 122.74 196.423C122.643 196.303 122.515 196.212 122.37 196.16C102.92 188.63 88.1499 169.16 85.6399 147.74C85.5645 147.041 85.6526 146.333 85.8973 145.674C86.142 145.014 86.5365 144.421 87.0499 143.94C87.973 143.071 89.1919 142.585 90.4599 142.58H90.4499ZM113.46 180.58C114.164 180.572 114.837 180.293 115.34 179.8C115.823 179.344 116.126 178.731 116.196 178.07C116.266 177.41 116.097 176.747 115.72 176.2L108 156.51C107.862 155.901 107.541 155.35 107.079 154.929C106.618 154.509 106.039 154.241 105.42 154.16C102.9 153.86 100.64 153.53 98.7299 153.26C98.5903 153.245 98.4495 153.245 98.3099 153.26C97.9479 153.26 97.5902 153.338 97.2608 153.488C96.9314 153.638 96.6379 153.857 96.3999 154.13C96.1122 154.438 95.9079 154.815 95.8064 155.225C95.7049 155.634 95.7095 156.063 95.8199 156.47C98.3005 165.931 103.947 174.256 111.82 180.06C112.285 180.409 112.848 180.602 113.43 180.61L113.46 180.58ZM90.4299 131.61C86.3357 131.597 82.3948 133.167 79.4299 135.99C77.6869 137.63 76.3487 139.653 75.5209 141.898C74.6932 144.144 74.3984 146.551 74.6599 148.93C74.6599 148.93 74.6599 149.01 74.6599 149.04C75.991 159.567 79.6188 169.673 85.2867 178.643C90.9546 187.613 98.5241 195.228 107.46 200.95C106.947 202.36 106.542 203.808 106.25 205.28C105.833 207.361 105.88 209.508 106.388 211.568C106.896 213.629 107.853 215.552 109.19 217.2L109.3 217.33C110.65 218.95 112.339 220.252 114.249 221.146C116.159 222.039 118.242 222.502 120.35 222.5H160.35C162.45 222.496 164.524 222.03 166.424 221.137C168.325 220.244 170.006 218.944 171.35 217.33L171.47 217.2C172.807 215.552 173.764 213.629 174.272 211.568C174.78 209.508 174.827 207.361 174.41 205.28C174.113 203.808 173.705 202.361 173.19 200.95C182.121 195.232 189.687 187.623 195.355 178.661C201.023 169.698 204.653 159.6 205.99 149.08C206.304 146.691 206.05 144.261 205.249 141.989C204.448 139.716 203.122 137.664 201.38 136L201.31 135.92C198.345 133.149 194.438 131.609 190.38 131.61C189.512 131.61 188.646 131.681 187.79 131.82C172.132 134.414 156.291 135.752 140.42 135.82C124.575 135.749 108.761 134.411 93.1299 131.82C92.2454 131.661 91.3485 131.58 90.4499 131.58L90.4299 131.61Z" fill="#472EDB"/>
<path d="M140.31 144.78C124.03 144.684 107.783 143.306 91.7195 140.66H91.4095C89.9806 140.511 88.6671 139.807 87.751 138.7C86.8349 137.594 86.3892 136.172 86.5095 134.74C87.6395 121.281 93.7804 108.736 103.717 99.588C113.654 90.44 126.663 85.3553 140.17 85.34C143.107 85.3421 146.04 85.5796 148.94 86.05L157.76 68.89C158.403 67.6312 159.29 66.5122 160.368 65.5973C161.446 64.6825 162.694 63.99 164.041 63.5597C165.388 63.1293 166.806 62.9696 168.215 63.0898C169.624 63.21 170.995 63.6077 172.25 64.26L176.9 66.67C178.67 67.59 180.151 68.9824 181.178 70.6928C182.206 72.4033 182.739 74.3649 182.72 76.36C184.808 75.5849 187.087 75.4804 189.238 76.0611C191.389 76.6419 193.305 77.8789 194.72 79.6L198.05 83.6C199.856 85.8007 200.717 88.6276 200.443 91.4617C200.17 94.2957 198.784 96.9057 196.59 98.72L184.59 108.72C189.91 116.423 193.11 125.389 193.87 134.72C193.992 136.157 193.543 137.584 192.62 138.693C191.697 139.801 190.375 140.501 188.94 140.64C175.591 142.853 162.112 144.19 148.59 144.64H148.1H146.96H145.96H144.13C143.6 144.64 143.13 144.64 142.54 144.64C141.78 144.64 141.05 144.64 140.29 144.64L140.31 144.78Z" fill="white"/>
<path d="M167.32 68.51C168.151 68.5118 168.97 68.7106 169.71 69.09L174.38 71.51C175.614 72.1541 176.543 73.2592 176.966 74.5851C177.39 75.9109 177.272 77.3503 176.64 78.59L168.48 94.47L183.15 82.34C183.679 81.9018 184.289 81.5721 184.945 81.3701C185.601 81.168 186.291 81.0975 186.975 81.1625C187.659 81.2275 188.323 81.4269 188.93 81.749C189.536 82.0712 190.073 82.5099 190.51 83.04L193.85 87.1C194.732 88.172 195.152 89.5501 195.019 90.9319C194.886 92.3137 194.21 93.5862 193.14 94.47L177 107.84C183.567 115.534 187.548 125.099 188.38 135.18H188.3C175.069 137.386 161.706 138.706 148.3 139.13H147.85C147.15 139.13 146.45 139.13 145.74 139.18C145.03 139.23 144.59 139.18 143.98 139.18C143.37 139.18 142.98 139.18 142.43 139.18C141.7 139.18 140.99 139.18 140.27 139.18C124.234 139.081 108.231 137.717 92.4098 135.1L91.9398 135.05C92.9767 122.974 98.5075 111.727 107.438 103.534C116.369 95.3397 128.05 90.7957 140.17 90.8C144.13 90.7993 148.075 91.2794 151.92 92.23L162.65 71.36C163.093 70.5031 163.763 69.7841 164.586 69.2816C165.409 68.779 166.355 68.5121 167.32 68.51ZM167.32 57.51C164.34 57.5047 161.416 58.3215 158.87 59.8705C156.324 61.4196 154.255 63.6409 152.89 66.29L145.81 80.06C143.93 79.88 142.05 79.79 140.17 79.79C125.277 79.7959 110.929 85.396 99.9706 95.4807C89.0117 105.565 82.2409 119.399 80.9998 134.24C80.7616 137.104 81.6537 139.947 83.4852 142.162C85.3167 144.377 87.9421 145.786 90.7998 146.09H90.9598C107.263 148.763 123.75 150.157 140.27 150.26C141.02 150.26 141.79 150.26 142.62 150.26C143.12 150.26 143.62 150.26 144.26 150.26H145.14H146.14H146.99H148.25H148.46H148.78C162.476 149.817 176.128 148.48 189.65 146.26C192.475 145.92 195.058 144.499 196.857 142.295C198.657 140.091 199.532 137.276 199.3 134.44C198.605 125.846 196.031 117.51 191.76 110.02L200.1 103.1C203.403 100.358 205.489 96.4217 205.901 92.1485C206.313 87.8753 205.019 83.6125 202.3 80.29L199 76.05C197.544 74.2732 195.726 72.8277 193.667 71.8102C191.608 70.7927 189.355 70.2267 187.06 70.15C185.617 66.534 182.924 63.5565 179.47 61.76L174.77 59.33C172.47 58.1416 169.919 57.521 167.33 57.52L167.32 57.51Z" fill="#472EDB"/>
<path opacity="0.3" d="M145.81 80.07L152.89 66.3C154.255 63.6508 156.324 61.4295 158.87 59.8804C161.416 58.3314 164.34 57.5146 167.32 57.52C169.595 57.5214 171.844 58.0018 173.92 58.93C187.66 48.8299 204 42.5999 220.75 42.2599C204.876 29.2373 186.061 20.2911 165.94 16.2C154.875 23.7584 145.465 33.4902 138.282 44.8025C131.099 56.1148 126.294 68.7709 124.16 82C129.369 80.5433 134.752 79.8032 140.16 79.8C142.053 79.8 143.937 79.8899 145.81 80.07Z" fill="white"/>
<path opacity="0.3" d="M260.56 100.55C243.632 92.3174 224.686 89.1505 206 91.43C205.872 93.6462 205.288 95.8121 204.284 97.7925C203.281 99.7729 201.881 101.525 200.17 102.94L191.83 109.86C194.281 114.167 196.176 118.767 197.47 123.55C223.99 125.68 249.91 139 264.91 160.89C268.406 140.723 266.912 120.007 260.56 100.55Z" fill="white"/>
<path opacity="0.3" d="M95.7597 99.83C85.7597 75.83 86.3997 46.27 96.1997 21.83C76.7373 29.2245 59.3988 41.3045 45.7197 57C48.0797 84.16 61.7197 110 82.3797 125.71C84.6138 116.103 89.2131 107.207 95.7597 99.83Z" fill="white"/>
<path opacity="0.3" d="M203.72 160.51C200.522 171.183 194.93 180.986 187.37 189.17C193.47 211.17 191.58 236.54 184.29 257.69C190.664 255.34 196.841 252.484 202.76 249.15C214.801 242.341 225.639 233.598 234.84 223.27C233.44 198.72 221.32 176.07 203.72 160.51Z" fill="white"/>
<path opacity="0.3" d="M120.4 222.48C118.291 222.482 116.209 222.019 114.299 221.126C112.389 220.232 110.7 218.93 109.35 217.31L109.24 217.18C109.02 216.91 108.83 216.62 108.63 216.34C94.8874 227.106 78.7035 234.319 61.5098 237.34C77.372 250.193 96.1198 258.999 116.14 263C129.976 252.316 141.007 238.427 148.28 222.53L120.4 222.48Z" fill="white"/>
<path opacity="0.3" d="M76.2398 157.39C52.5698 153 29.7898 139.18 16.3498 120.86C13.3115 140.948 15.199 161.473 21.8498 180.67C42.8498 189.32 68.0598 191.26 90.0098 185.18C83.4775 177.013 78.781 167.535 76.2398 157.39Z" fill="white"/>
<g opacity="0.1">
<path d="M198 42.4301C198 42.4301 199.11 43.0201 201.06 44.3501C203.881 46.2813 206.579 48.3853 209.14 50.6501C213.187 54.1629 216.952 57.9879 220.4 62.0901C224.993 67.402 229.062 73.1454 232.55 79.2401C236.847 86.4648 240.351 94.1326 243 102.11C243.794 104.246 244.462 106.426 245 108.64C245.6 111.01 246.17 112.85 246.8 115.73C247.809 120.348 248.533 125.023 248.97 129.73C250.036 140.046 249.652 150.46 247.83 160.67C245.964 171.187 242.691 181.405 238.1 191.05C233.49 200.714 227.582 209.704 220.54 217.77C216.912 221.875 212.867 225.591 208.47 228.86C204.299 231.855 199.906 234.529 195.33 236.86C179.409 245.038 161.957 249.806 144.09 250.86C137.087 251.32 130.057 251.126 123.09 250.28C117.779 249.674 112.521 248.672 107.36 247.28C104.064 246.416 100.819 245.368 97.64 244.14L94.29 242.81L97.87 243.06C100.19 243.27 103.61 243.39 107.87 243.48C112.13 243.57 117.35 243.37 123.2 242.9C129.702 242.295 136.159 241.273 142.53 239.84C149.98 238.133 157.286 235.846 164.38 233C172.162 229.91 179.655 226.135 186.77 221.72C190.394 219.45 193.874 216.959 197.19 214.26C200.369 211.559 203.267 208.544 205.84 205.26C211.416 198.215 216.167 190.555 220 182.43C223.811 174.301 226.702 165.771 228.62 157C230.44 148.497 231.292 139.815 231.16 131.12C231.34 127.21 230.66 122.41 230.38 118.01C230.22 116.51 229.79 114.01 229.52 112.15C229.25 110.29 228.84 108.15 228.42 106.15C226.939 98.7022 224.842 91.3904 222.15 84.2901C218.011 73.3984 212.643 63.0146 206.15 53.3401C203.659 49.5404 200.937 45.8969 198 42.4301Z" fill="white"/>
</g>
<g opacity="0.1">
<path d="M86.4096 237.81C85.3773 237.218 84.3759 236.574 83.4096 235.88C80.5828 233.957 77.8838 231.853 75.3296 229.58C71.2536 226.075 67.4648 222.25 63.9996 218.14C59.4149 212.832 55.3559 207.092 51.8796 201C47.5795 193.774 44.0693 186.107 41.4096 178.13C40.6203 175.989 39.9525 173.806 39.4096 171.59C38.8196 169.23 38.2396 167.39 37.6096 164.5C36.6056 159.881 35.8809 155.206 35.4396 150.5C34.382 140.18 34.7691 129.763 36.5896 119.55C40.3111 98.3948 49.7405 78.6579 63.8596 62.4701C67.4856 58.363 71.5309 54.6462 75.9296 51.3801C80.0939 48.3796 84.4836 45.705 89.0596 43.3801C104.981 35.203 122.432 30.4349 140.3 29.3801C147.303 28.9223 154.333 29.1199 161.3 29.9701C166.602 30.5826 171.85 31.5955 177 33.0001C180.293 33.868 183.538 34.9129 186.72 36.1301L190.06 37.4601L186.48 37.2101C184.17 37.0001 180.75 36.8901 176.48 36.8001C172.21 36.7101 167.01 36.9001 161.16 37.3701C154.657 37.9784 148.201 39.0038 141.83 40.4401C134.4 42.1407 127.115 44.4176 120.04 47.2501C112.266 50.3594 104.777 54.1404 97.6596 58.5501C94.0357 60.8157 90.5557 63.3038 87.2396 66.0001C84.06 68.7005 81.1619 71.7159 78.5896 75.0001C73.0236 82.0386 68.2827 89.6919 64.4596 97.8101C60.635 105.954 57.7336 114.501 55.8096 123.29C53.9921 131.794 53.1433 140.476 53.2796 149.17C53.0896 153.07 53.7696 157.88 54.0596 162.28C54.2196 163.77 54.6396 166.23 54.9096 168.13C55.1596 170.18 55.5896 172.13 56.0096 174.13C57.495 181.58 59.5921 188.895 62.2796 196C66.4215 206.906 71.7893 217.306 78.2796 227C80.7719 230.762 83.4868 234.372 86.4096 237.81Z" fill="white"/>
</g>
<path d="M145.81 80.07L152.89 66.3C154.255 63.6508 156.324 61.4295 158.87 59.8804C161.416 58.3314 164.34 57.5146 167.32 57.52V57.52C169.595 57.5214 171.844 58.0018 173.92 58.93C187.66 48.83 204 42.5999 220.75 42.2599C204.876 29.2373 186.061 20.2911 165.94 16.2C154.875 23.7584 145.465 33.4902 138.282 44.8025C131.099 56.1148 126.294 68.7709 124.16 82C129.369 80.5433 134.752 79.8032 140.16 79.8C142.053 79.8 143.937 79.89 145.81 80.07Z" stroke="#6C6CEA" stroke-width="5" stroke-linecap="round" stroke-linejoin="round"/>
<path d="M260.56 100.55C243.632 92.3174 224.686 89.1505 206 91.43C205.872 93.6462 205.288 95.8121 204.284 97.7925C203.281 99.7729 201.881 101.525 200.17 102.94L191.83 109.86C194.281 114.167 196.176 118.767 197.47 123.55C223.99 125.68 249.91 139 264.91 160.89C268.406 140.723 266.912 120.007 260.56 100.55V100.55Z" stroke="#6C6CEA" stroke-width="5" stroke-linecap="round" stroke-linejoin="round"/>
<path d="M95.7597 99.83C85.7597 75.83 86.3997 46.27 96.1997 21.83C76.7373 29.2245 59.3988 41.3045 45.7197 57C48.0797 84.16 61.7197 110 82.3797 125.71C84.6138 116.103 89.2131 107.207 95.7597 99.83Z" stroke="#6C6CEA" stroke-width="5" stroke-linecap="round" stroke-linejoin="round"/>
<path d="M203.72 160.51C200.522 171.183 194.93 180.986 187.37 189.17C193.47 211.17 191.58 236.54 184.29 257.69C190.664 255.34 196.841 252.484 202.76 249.15C214.801 242.342 225.639 233.598 234.84 223.27C233.44 198.72 221.32 176.07 203.72 160.51Z" stroke="#6C6CEA" stroke-width="5" stroke-linecap="round" stroke-linejoin="round"/>
<path d="M120.4 222.48C118.291 222.482 116.209 222.019 114.299 221.126C112.389 220.232 110.7 218.93 109.35 217.31L109.24 217.18C109.02 216.91 108.83 216.62 108.63 216.34C94.8874 227.106 78.7035 234.319 61.5098 237.34C77.372 250.193 96.1198 258.999 116.14 263C129.976 252.316 141.007 238.427 148.28 222.53L120.4 222.48Z" stroke="#6C6CEA" stroke-width="5" stroke-linecap="round" stroke-linejoin="round"/>
<path d="M76.2398 157.39C52.5698 153 29.7898 139.18 16.3498 120.86C13.3115 140.948 15.199 161.473 21.8498 180.67C42.8498 189.32 68.0598 191.26 90.0098 185.18C83.4775 177.013 78.781 167.535 76.2398 157.39Z" stroke="#6C6CEA" stroke-width="5" stroke-linecap="round" stroke-linejoin="round"/>
<path d="M140.39 12.56C171.369 12.5165 201.304 23.7574 224.598 44.1812C247.892 64.605 262.951 92.8134 266.958 123.533C270.965 154.252 263.647 185.38 246.372 211.096C229.097 236.811 203.047 255.355 173.093 263.26C143.139 271.166 111.331 267.891 83.6157 254.048C55.9007 240.205 34.1759 216.743 22.5029 188.046C10.8299 159.35 10.0079 127.384 20.1904 98.1259C30.3729 68.8674 50.8629 44.319 77.8297 29.07C96.9147 18.2744 118.463 12.5876 140.39 12.56ZM140.39 5.72002C107.808 5.75054 76.3495 17.6307 51.8811 39.145C27.4126 60.6593 11.6046 90.339 7.40512 122.649C3.20563 154.959 10.9014 187.693 29.0571 214.748C47.2129 241.802 74.5891 261.329 106.081 269.688C137.572 278.046 171.029 274.665 200.211 260.175C229.393 245.685 252.309 221.076 264.685 190.936C277.061 160.796 278.052 127.184 267.473 96.3673C256.894 65.5507 235.468 39.6339 207.19 23.45C186.851 11.8129 163.822 5.70039 140.39 5.72002Z" fill="white"/>
</g>
<defs>
<clipPath id="clip0">
<rect width="280" height="280" fill="white"/>
</clipPath>
</defs>
</svg>
