<?xml version="1.0" encoding="utf-8"?>
<!-- Generator: Adobe Illustrator 24.3.0, SVG Export Plug-In . SVG Version: 6.00 Build 0)  -->
<svg version="1.1" id="logo" xmlns="http://www.w3.org/2000/svg" xmlns:xlink="http://www.w3.org/1999/xlink" x="0px" y="0px"
	 viewBox="0 0 369.38 369.38" style="enable-background:new 0 0 369.38 369.38;" xml:space="preserve">
<style type="text/css">
	.st0{fill:url(#SVGID_1_);}
</style>
<linearGradient id="SVGID_1_" gradientUnits="userSpaceOnUse" x1="100.9661" y1="331.3997" x2="270.2214" y2="38.241">
	<stop  offset="2.028925e-03" style="stop-color:#FFDC00"/>
	<stop  offset="0.3333" style="stop-color:#E58E2F"/>
	<stop  offset="0.6666" style="stop-color:#DB2D72"/>
	<stop  offset="1" style="stop-color:#FF00FF"/>
</linearGradient>
<path class="st0" d="M95.89,326.67l-22.92-39.7c-0.71-1.28-0.71-3.39,0.02-4.65l25.45-44.07c0.73-1.27,2.6-2.35,4.07-2.35h50.89
	c1.47,0,3.33,1.08,4.07,2.35l25.45,44.07c0.73,1.27,0.73,3.42,0,4.7l-25.45,44.07c-0.72,1.25-2.52,2.29-3.97,2.34h-45.8
	C103.38,333.39,98.13,330.38,95.89,326.67z M261.17,235.98l-50.7-87.81c-1.01-1.74-3.55-3.21-5.57-3.21h-101.4
	c-2.01,0-4.56,1.47-5.57,3.21l-50.7,87.81c-1.01,1.74-1.01,4.69,0,6.43l14.86,25.75l25.96-44.97c1.18-2.05,4.07-3.71,6.43-3.71
	h66.82c2.36,0,5.25,1.67,6.43,3.71l33.41,57.86c1.18,2.05,1.18,5.38,0,7.43l-25.96,44.96h29.7c2.01,0,4.56-1.47,5.57-3.21
	l50.7-87.81C262.17,240.67,262.17,237.72,261.17,235.98z M353.2,177.89L275.4,43.13c-2.2-3.81-7.6-6.93-12-6.93H107.79
	c-4.4,0-9.8,3.12-12,6.93l-77.8,134.76c-2.2,3.81-2.2,10.05,0,13.86l17.83,30.88l51.71-89.56c1.46-2.53,5.02-4.58,7.93-4.58h117.42
	c2.92,0,6.47,2.05,7.93,4.58l58.71,101.69c1.46,2.53,1.46,6.63,0,9.16l-51.69,89.52h35.57c4.4,0,9.8-3.12,12-6.93l77.8-134.76
	C355.4,187.94,355.4,181.7,353.2,177.89z"/>
</svg>
