<?xml version="1.0" encoding="UTF-8" standalone="no"?>
<!DOCTYPE svg PUBLIC "-//W3C//DTD SVG 1.1//EN" "http://www.w3.org/Graphics/SVG/1.1/DTD/svg11.dtd">
<svg xmlns="http://www.w3.org/2000/svg" version="1.1" viewBox="0 0 512 512" width="512.0pt" height="512.0pt" xmlns:xlink="http://www.w3.org/1999/xlink">
<defs>
<path d="M 0.00 0.00 L 512.00 0.00 L 512.00 512.00 L 0.00 512.00 L 0.00 0.00 Z M 18.17 248.01 C 17.57 255.01 17.93 261.94 18.38 268.94 C 19.52 296.19 25.74 323.23 36.50 348.29 C 42.65 363.59 50.91 378.08 60.37 391.57 C 87.52 430.97 126.82 461.44 171.48 478.49 C 188.82 484.53 206.05 489.72 224.36 491.82 C 239.55 493.80 254.72 493.94 270.00 493.37 C 301.08 492.03 332.09 483.23 360.10 469.89 C 394.01 453.28 423.66 428.56 446.40 398.44 C 459.21 381.34 469.60 362.52 477.56 342.70 C 483.74 325.80 488.82 308.94 491.26 291.05 C 494.73 265.72 494.39 239.81 490.12 214.60 C 487.54 200.49 483.56 186.75 478.65 173.29 C 457.96 118.25 416.27 71.72 363.85 45.08 C 345.50 35.72 325.88 28.57 305.67 24.49 C 285.66 19.73 264.51 18.69 244.01 19.46 C 235.50 19.93 226.95 20.58 218.54 21.97 C 206.50 24.28 194.53 26.73 182.92 30.75 C 170.78 34.19 159.31 39.32 148.09 45.03 C 131.56 53.05 117.10 63.46 102.79 74.87 C 72.42 100.45 48.29 133.75 33.91 170.80 C 29.03 184.18 24.82 197.77 22.03 211.76 C 19.82 223.73 18.59 235.84 18.17 248.01 Z" id="p0" />
<path d="M 244.01 19.46 C 264.51 18.69 285.66 19.73 305.67 24.49 C 325.88 28.57 345.50 35.72 363.85 45.08 C 416.27 71.72 457.96 118.25 478.65 173.29 C 483.56 186.75 487.54 200.49 490.12 214.60 C 494.39 239.81 494.73 265.72 491.26 291.05 C 488.82 308.94 483.74 325.80 477.56 342.70 C 469.60 362.52 459.21 381.34 446.40 398.44 C 423.66 428.56 394.01 453.28 360.10 469.89 C 332.09 483.23 301.08 492.03 270.00 493.37 C 254.72 493.94 239.55 493.80 224.36 491.82 C 206.05 489.72 188.82 484.53 171.48 478.49 C 126.82 461.44 87.52 430.97 60.37 391.57 C 50.91 378.08 42.65 363.59 36.50 348.29 C 25.74 323.23 19.52 296.19 18.38 268.94 C 17.93 261.94 17.57 255.01 18.17 248.01 C 18.59 235.84 19.82 223.73 22.03 211.76 C 24.82 197.77 29.03 184.18 33.91 170.80 C 48.29 133.75 72.42 100.45 102.79 74.87 C 117.10 63.46 131.56 53.05 148.09 45.03 C 159.31 39.32 170.78 34.19 182.92 30.75 C 194.53 26.73 206.50 24.28 218.54 21.97 C 226.95 20.58 235.50 19.93 244.01 19.46 Z M 195.77 104.94 C 204.18 105.46 212.58 104.44 221.00 104.84 C 231.35 105.36 241.76 105.12 252.05 106.16 C 265.38 107.28 278.64 109.53 291.72 112.32 C 301.75 114.72 312.03 117.43 321.46 121.67 C 327.46 124.34 333.45 127.26 338.48 131.54 C 350.72 142.46 360.73 155.20 365.75 171.02 C 366.87 174.40 367.51 178.00 368.91 181.26 C 370.13 183.92 373.46 185.62 375.84 187.14 C 376.22 174.39 375.23 161.49 376.47 148.65 C 376.71 145.08 377.33 141.96 375.16 138.82 C 368.78 129.35 359.04 121.60 349.56 115.39 C 337.25 107.15 324.10 100.33 309.90 96.00 C 297.90 91.78 285.64 90.13 273.05 88.91 C 260.77 87.84 248.89 89.07 236.78 91.00 C 226.83 92.64 217.57 95.73 208.11 99.11 C 203.81 100.66 199.65 102.50 195.77 104.94 Z M 273.89 206.92 C 271.91 202.44 269.41 198.26 266.97 194.02 C 253.52 170.47 240.17 146.87 226.70 123.33 C 224.37 119.38 222.43 115.04 219.65 111.39 C 218.56 109.82 216.79 110.08 215.08 109.83 C 210.17 109.63 205.17 109.60 200.27 110.09 C 201.83 114.62 204.59 118.90 206.84 123.12 C 216.88 141.73 226.79 160.35 236.84 178.95 C 238.64 182.15 240.22 186.47 243.60 188.27 C 247.26 190.39 251.20 191.99 254.85 194.16 C 261.57 197.95 267.32 202.91 273.89 206.92 Z M 302.67 228.07 C 299.58 221.77 295.92 215.76 292.40 209.62 C 275.59 180.38 258.95 151.06 242.28 121.74 C 240.14 118.26 238.44 113.67 235.31 111.00 C 232.11 110.12 228.55 110.26 225.25 110.34 C 227.38 115.62 230.83 120.46 233.58 125.45 C 248.46 151.53 263.59 177.47 278.49 203.54 C 281.50 208.62 284.24 215.29 289.09 218.79 C 293.46 222.08 298.02 225.19 302.67 228.07 Z M 129.13 127.04 C 131.56 132.99 135.18 138.31 138.05 144.09 C 142.78 152.44 146.86 161.25 152.11 169.28 C 158.79 169.59 165.33 168.37 172.01 168.91 C 177.62 169.38 183.98 169.62 189.23 171.77 C 192.56 173.18 194.43 175.71 197.04 178.04 C 198.65 179.91 201.90 179.21 204.14 179.39 C 202.25 173.75 199.08 168.99 196.16 163.88 C 188.01 149.38 179.44 135.12 171.37 120.58 C 170.03 118.17 168.49 115.89 166.89 113.64 C 161.23 114.38 155.74 115.82 150.24 117.30 C 142.80 119.32 135.05 121.90 129.13 127.04 Z M 263.78 113.67 C 264.79 115.79 265.82 117.89 267.06 119.89 C 288.14 152.46 309.23 185.10 330.25 217.72 C 333.70 222.91 336.67 228.70 340.88 233.19 C 346.04 231.49 350.66 229.08 354.56 225.24 C 351.62 219.70 348.04 214.61 344.70 209.31 C 327.78 182.55 310.66 155.91 293.75 129.14 C 291.42 125.57 289.42 121.60 286.63 118.37 C 285.24 116.69 283.02 116.47 281.02 116.01 C 275.32 115.03 269.53 114.22 263.78 113.67 Z M 376.39 318.81 C 375.41 327.21 374.78 336.74 377.14 344.95 C 378.48 349.39 381.17 352.61 385.25 354.78 C 393.61 359.47 404.14 360.11 412.76 355.73 C 421.96 351.11 429.08 343.16 434.80 334.76 C 443.36 322.15 448.50 308.22 452.50 293.61 C 454.35 286.21 455.19 278.46 456.05 270.89 C 456.94 262.88 455.85 254.72 454.09 246.89 C 452.67 240.72 449.89 235.41 447.27 229.71 C 443.08 220.18 437.80 211.47 432.34 202.63 C 425.42 191.74 417.99 181.23 409.83 171.24 C 403.24 163.14 396.43 154.17 387.94 148.01 C 386.37 156.36 386.71 165.51 386.77 174.00 C 387.70 194.30 387.87 214.68 387.56 235.00 C 386.92 263.90 380.05 290.46 376.39 318.81 Z M 139.62 207.19 C 139.93 200.10 135.95 193.88 136.60 186.99 C 137.04 184.06 139.32 182.94 141.82 182.00 C 157.05 177.26 171.28 178.36 186.86 178.40 C 186.69 177.43 186.54 176.46 186.42 175.48 C 182.61 174.65 178.89 174.30 175.00 174.29 C 163.44 174.18 152.17 173.81 140.93 176.93 C 137.72 177.88 133.85 179.40 131.82 182.20 C 131.07 185.17 132.25 188.77 132.86 191.72 C 134.52 197.45 135.07 202.94 139.62 207.19 Z M 168.28 223.35 C 163.44 225.45 158.27 226.65 153.03 227.11 C 149.37 226.24 145.94 225.34 142.84 223.13 C 138.08 219.89 134.96 214.60 132.31 209.62 C 129.55 204.50 128.46 199.09 126.47 193.70 C 120.56 192.55 113.97 194.26 108.51 196.58 C 95.68 202.35 86.85 213.31 80.82 225.72 C 75.33 237.87 72.34 250.77 71.01 264.00 C 69.28 276.58 69.20 289.24 69.70 301.90 C 70.86 317.04 73.39 331.84 78.92 346.04 C 83.10 357.70 89.77 369.68 100.06 376.99 C 103.62 379.66 107.61 381.27 111.92 382.28 C 110.79 375.50 108.42 369.27 106.71 362.66 C 104.77 355.36 103.62 348.13 102.32 340.69 C 101.26 334.49 100.32 328.32 100.37 322.01 C 100.40 314.87 99.99 307.55 100.91 300.45 C 102.75 288.96 106.63 277.42 114.85 268.87 C 120.53 262.79 127.91 259.12 135.84 256.90 C 140.64 255.56 146.01 255.62 151.03 255.08 C 151.38 250.77 151.24 246.45 151.53 242.14 C 151.88 237.95 153.62 234.37 155.71 230.79 C 155.95 239.10 154.45 246.51 157.51 254.60 C 163.02 256.44 168.80 256.95 174.32 258.72 C 181.24 260.91 188.05 263.89 194.14 267.86 C 202.11 273.11 209.55 278.98 215.70 286.34 C 230.33 302.53 240.21 321.18 251.03 339.93 C 260.00 356.02 269.42 373.39 282.07 386.92 C 289.06 394.45 297.77 400.14 307.94 402.20 C 319.81 405.15 332.60 402.63 342.55 395.58 C 353.57 387.67 362.04 376.34 368.60 364.60 C 369.98 361.77 371.67 358.74 370.52 355.53 C 368.74 350.20 366.25 345.42 365.66 339.71 C 364.68 328.46 365.38 317.24 367.42 306.14 C 369.73 291.52 372.08 276.91 374.47 262.31 C 375.38 256.28 376.33 250.34 375.92 244.21 C 371.74 240.85 367.01 238.09 362.08 236.00 C 359.75 234.70 357.73 237.36 355.75 238.34 C 348.27 243.09 339.76 244.72 331.00 244.75 C 323.88 244.78 317.07 245.17 310.21 242.98 C 297.58 239.01 287.21 231.15 276.89 223.16 C 266.18 214.98 254.98 206.26 243.00 200.08 C 228.52 192.59 212.37 188.77 196.06 190.49 C 195.03 190.60 194.33 191.01 193.98 191.71 C 192.36 194.28 191.18 197.14 189.73 199.81 C 186.99 205.03 183.10 209.80 179.12 214.12 C 175.89 217.49 172.34 221.01 168.28 223.35 Z M 112.41 331.01 C 112.58 341.93 114.31 352.67 116.70 363.30 C 118.51 372.08 123.83 380.55 130.55 386.42 C 138.98 393.01 148.23 398.63 157.79 403.41 C 185.64 418.38 218.48 425.60 249.95 421.02 C 256.92 420.16 263.80 418.71 270.48 416.53 C 277.77 414.14 284.73 412.15 291.31 408.08 C 285.50 403.29 279.21 399.57 274.12 393.89 C 258.69 377.06 247.88 355.55 236.59 335.93 C 229.22 323.86 222.05 310.82 213.02 299.99 C 207.69 293.43 201.81 287.13 195.21 281.83 C 181.22 270.66 162.77 265.14 144.95 266.60 C 136.82 267.30 129.05 270.39 123.37 276.36 C 117.28 282.36 114.58 290.29 112.73 298.43 C 110.63 308.96 111.17 320.39 112.41 331.01 Z" id="p1" />
<path d="M 273.05 88.91 C 285.64 90.13 297.90 91.78 309.90 96.00 C 324.10 100.33 337.25 107.15 349.56 115.39 C 359.04 121.60 368.78 129.35 375.16 138.82 C 377.33 141.96 376.71 145.08 376.47 148.65 C 375.23 161.49 376.22 174.39 375.84 187.14 C 373.46 185.62 370.13 183.92 368.91 181.26 C 367.51 178.00 366.87 174.40 365.75 171.02 C 360.73 155.20 350.72 142.46 338.48 131.54 C 333.45 127.26 327.46 124.34 321.46 121.67 C 312.03 117.43 301.75 114.72 291.72 112.32 C 278.64 109.53 265.38 107.28 252.05 106.16 C 241.76 105.12 231.35 105.36 221.00 104.84 C 212.58 104.44 204.18 105.46 195.77 104.94 C 199.65 102.50 203.81 100.66 208.11 99.11 C 217.57 95.73 226.83 92.64 236.78 91.00 C 248.89 89.07 260.77 87.84 273.05 88.91 Z" id="p2" />
<path d="M 200.27 110.09 C 205.17 109.60 210.17 109.63 215.08 109.83 C 216.79 110.08 218.56 109.82 219.65 111.39 C 222.43 115.04 224.37 119.38 226.70 123.33 C 240.17 146.87 253.52 170.47 266.97 194.02 C 269.41 198.26 271.91 202.44 273.89 206.92 C 267.32 202.91 261.57 197.95 254.85 194.16 C 251.20 191.99 247.26 190.39 243.60 188.27 C 240.22 186.47 238.64 182.15 236.84 178.95 C 226.79 160.35 216.88 141.73 206.84 123.12 C 204.59 118.90 201.83 114.62 200.27 110.09 Z" id="p3" />
<path d="M 225.25 110.34 C 228.55 110.26 232.11 110.12 235.31 111.00 C 238.44 113.67 240.14 118.26 242.28 121.74 C 258.95 151.06 275.59 180.38 292.40 209.62 C 295.92 215.76 299.58 221.77 302.67 228.07 C 298.02 225.19 293.46 222.08 289.09 218.79 C 284.24 215.29 281.50 208.62 278.49 203.54 C 263.59 177.47 248.46 151.53 233.58 125.45 C 230.83 120.46 227.38 115.62 225.25 110.34 Z" id="p4" />
<path d="M 166.89 113.64 C 168.49 115.89 170.03 118.17 171.37 120.58 C 179.44 135.12 188.01 149.38 196.16 163.88 C 199.08 168.99 202.25 173.75 204.14 179.39 C 201.90 179.21 198.65 179.91 197.04 178.04 C 194.43 175.71 192.56 173.18 189.23 171.77 C 183.98 169.62 177.62 169.38 172.01 168.91 C 165.33 168.37 158.79 169.59 152.11 169.28 C 146.86 161.25 142.78 152.44 138.05 144.09 C 135.18 138.31 131.56 132.99 129.13 127.04 C 135.05 121.90 142.80 119.32 150.24 117.30 C 155.74 115.82 161.23 114.38 166.89 113.64 Z" id="p5" />
<path d="M 263.78 113.67 C 269.53 114.22 275.32 115.03 281.02 116.01 C 283.02 116.47 285.24 116.69 286.63 118.37 C 289.42 121.60 291.42 125.57 293.75 129.14 C 310.66 155.91 327.78 182.55 344.70 209.31 C 348.04 214.61 351.62 219.70 354.56 225.24 C 350.66 229.08 346.04 231.49 340.88 233.19 C 336.67 228.70 333.70 222.91 330.25 217.72 C 309.23 185.10 288.14 152.46 267.06 119.89 C 265.82 117.89 264.79 115.79 263.78 113.67 Z" id="p6" />
<path d="M 387.94 148.01 C 396.43 154.17 403.24 163.14 409.83 171.24 C 417.99 181.23 425.42 191.74 432.34 202.63 C 437.80 211.47 443.08 220.18 447.27 229.71 C 444.37 244.27 441.05 258.25 434.83 271.81 C 427.59 288.04 416.75 303.73 402.22 314.22 C 395.15 319.14 386.12 323.09 377.35 322.71 C 377.02 321.41 376.70 320.11 376.39 318.81 C 380.05 290.46 386.92 263.90 387.56 235.00 C 387.87 214.68 387.70 194.30 386.77 174.00 C 386.71 165.51 386.37 156.36 387.94 148.01 Z" id="p7" />
<path d="M 175.00 174.29 C 178.89 174.30 182.61 174.65 186.42 175.48 C 186.54 176.46 186.69 177.43 186.86 178.40 C 171.28 178.36 157.05 177.26 141.82 182.00 C 139.32 182.94 137.04 184.06 136.60 186.99 C 135.95 193.88 139.93 200.10 139.62 207.19 C 135.07 202.94 134.52 197.45 132.86 191.72 C 132.25 188.77 131.07 185.17 131.82 182.20 C 133.85 179.40 137.72 177.88 140.93 176.93 C 152.17 173.81 163.44 174.18 175.00 174.29 Z" id="p8" />
<path d="M 196.06 190.49 C 212.37 188.77 228.52 192.59 243.00 200.08 C 254.98 206.26 266.18 214.98 276.89 223.16 C 287.21 231.15 297.58 239.01 310.21 242.98 C 317.07 245.17 323.88 244.78 331.00 244.75 C 339.76 244.72 348.27 243.09 355.75 238.34 C 361.09 240.20 368.12 242.71 371.61 247.40 C 372.23 251.95 370.99 256.88 370.52 261.42 C 369.06 273.71 367.53 285.97 365.18 298.12 C 363.27 307.89 362.19 317.97 359.51 327.57 C 357.79 333.64 354.38 338.54 349.37 342.36 C 343.37 347.06 336.35 349.92 328.76 350.72 C 320.49 351.59 312.37 351.14 304.96 347.02 C 296.38 342.17 288.80 335.09 281.83 328.17 C 264.66 310.72 249.41 291.10 233.40 272.59 C 226.80 265.08 219.96 257.10 212.13 250.86 C 200.87 242.05 187.39 236.80 173.31 234.67 C 167.89 233.92 162.38 234.00 156.92 233.48 C 157.10 231.59 157.29 229.71 157.52 227.83 C 161.14 226.51 164.91 225.21 168.28 223.35 C 172.34 221.01 175.89 217.49 179.12 214.12 C 183.10 209.80 186.99 205.03 189.73 199.81 C 191.18 197.14 192.36 194.28 193.98 191.71 C 194.33 191.01 195.03 190.60 196.06 190.49 Z" id="p9" />
<path d="M 126.47 193.70 C 128.46 199.09 129.55 204.50 132.31 209.62 C 134.96 214.60 138.08 219.89 142.84 223.13 C 145.94 225.34 149.37 226.24 153.03 227.11 C 154.42 228.16 155.27 229.06 155.71 230.79 C 150.93 236.24 145.01 235.64 138.58 237.56 C 126.76 240.83 115.26 246.88 108.14 257.19 C 99.26 269.63 95.16 286.04 93.36 301.03 C 91.70 313.15 92.86 324.95 94.25 337.03 C 94.97 343.01 96.55 349.75 95.58 355.73 C 95.23 357.68 94.24 359.10 92.07 358.72 C 84.88 357.92 81.71 351.90 78.92 346.04 C 73.39 331.84 70.86 317.04 69.70 301.90 C 69.20 289.24 69.28 276.58 71.01 264.00 C 72.34 250.77 75.33 237.87 80.82 225.72 C 86.85 213.31 95.68 202.35 108.51 196.58 C 113.97 194.26 120.56 192.55 126.47 193.70 Z" id="p10" />
<path d="M 168.28 223.35 C 164.91 225.21 161.14 226.51 157.52 227.83 C 157.29 229.71 157.10 231.59 156.92 233.48 C 162.38 234.00 167.89 233.92 173.31 234.67 C 187.39 236.80 200.87 242.05 212.13 250.86 C 219.96 257.10 226.80 265.08 233.40 272.59 C 249.41 291.10 264.66 310.72 281.83 328.17 C 288.80 335.09 296.38 342.17 304.96 347.02 C 312.37 351.14 320.49 351.59 328.76 350.72 C 336.35 349.92 343.37 347.06 349.37 342.36 C 354.38 338.54 357.79 333.64 359.51 327.57 C 362.19 317.97 363.27 307.89 365.18 298.12 C 367.53 285.97 369.06 273.71 370.52 261.42 C 370.99 256.88 372.23 251.95 371.61 247.40 C 368.12 242.71 361.09 240.20 355.75 238.34 C 357.73 237.36 359.75 234.70 362.08 236.00 C 367.01 238.09 371.74 240.85 375.92 244.21 C 376.33 250.34 375.38 256.28 374.47 262.31 C 372.08 276.91 369.73 291.52 367.42 306.14 C 365.38 317.24 364.68 328.46 365.66 339.71 C 366.25 345.42 368.74 350.20 370.52 355.53 C 371.67 358.74 369.98 361.77 368.60 364.60 C 362.04 376.34 353.57 387.67 342.55 395.58 C 332.60 402.63 319.81 405.15 307.94 402.20 C 297.77 400.14 289.06 394.45 282.07 386.92 C 269.42 373.39 260.00 356.02 251.03 339.93 C 240.21 321.18 230.33 302.53 215.70 286.34 C 209.55 278.98 202.11 273.11 194.14 267.86 C 188.05 263.89 181.24 260.91 174.32 258.72 C 168.80 256.95 163.02 256.44 157.51 254.60 C 154.45 246.51 155.95 239.10 155.71 230.79 C 155.27 229.06 154.42 228.16 153.03 227.11 C 158.27 226.65 163.44 225.45 168.28 223.35 Z" id="p11" />
<path d="M 447.27 229.71 C 449.89 235.41 452.67 240.72 454.09 246.89 C 455.85 254.72 456.94 262.88 456.05 270.89 C 455.19 278.46 454.35 286.21 452.50 293.61 C 448.50 308.22 443.36 322.15 434.80 334.76 C 429.08 343.16 421.96 351.11 412.76 355.73 C 404.14 360.11 393.61 359.47 385.25 354.78 C 381.17 352.61 378.48 349.39 377.14 344.95 C 374.78 336.74 375.41 327.21 376.39 318.81 C 376.70 320.11 377.02 321.41 377.35 322.71 C 386.12 323.09 395.15 319.14 402.22 314.22 C 416.75 303.73 427.59 288.04 434.83 271.81 C 441.05 258.25 444.37 244.27 447.27 229.71 Z" id="p12" />
<path d="M 155.71 230.79 C 153.62 234.37 151.88 237.95 151.53 242.14 C 151.24 246.45 151.38 250.77 151.03 255.08 C 146.01 255.62 140.64 255.56 135.84 256.90 C 127.91 259.12 120.53 262.79 114.85 268.87 C 106.63 277.42 102.75 288.96 100.91 300.45 C 99.99 307.55 100.40 314.87 100.37 322.01 C 100.32 328.32 101.26 334.49 102.32 340.69 C 103.62 348.13 104.77 355.36 106.71 362.66 C 108.42 369.27 110.79 375.50 111.92 382.28 C 107.61 381.27 103.62 379.66 100.06 376.99 C 89.77 369.68 83.10 357.70 78.92 346.04 C 81.71 351.90 84.88 357.92 92.07 358.72 C 94.24 359.10 95.23 357.68 95.58 355.73 C 96.55 349.75 94.97 343.01 94.25 337.03 C 92.86 324.95 91.70 313.15 93.36 301.03 C 95.16 286.04 99.26 269.63 108.14 257.19 C 115.26 246.88 126.76 240.83 138.58 237.56 C 145.01 235.64 150.93 236.24 155.71 230.79 Z" id="p13" />
<path d="M 144.95 266.60 C 162.77 265.14 181.22 270.66 195.21 281.83 C 201.81 287.13 207.69 293.43 213.02 299.99 C 222.05 310.82 229.22 323.86 236.59 335.93 C 236.14 338.20 235.77 340.35 234.42 342.30 C 227.32 352.08 218.11 360.17 206.91 364.88 C 198.11 368.67 188.53 369.55 179.05 369.76 C 169.11 369.94 159.26 368.99 150.09 364.89 C 141.66 361.10 134.06 354.94 127.65 348.34 C 122.23 342.82 118.00 336.38 112.41 331.01 C 111.17 320.39 110.63 308.96 112.73 298.43 C 114.58 290.29 117.28 282.36 123.37 276.36 C 129.05 270.39 136.82 267.30 144.95 266.60 Z" id="p14" />
<path d="M 112.41 331.01 C 118.00 336.38 122.23 342.82 127.65 348.34 C 134.06 354.94 141.66 361.10 150.09 364.89 C 159.26 368.99 169.11 369.94 179.05 369.76 C 188.53 369.55 198.11 368.67 206.91 364.88 C 218.11 360.17 227.32 352.08 234.42 342.30 C 235.77 340.35 236.14 338.20 236.59 335.93 C 247.88 355.55 258.69 377.06 274.12 393.89 C 279.21 399.57 285.50 403.29 291.31 408.08 C 284.73 412.15 277.77 414.14 270.48 416.53 C 263.80 418.71 256.92 420.16 249.95 421.02 C 218.48 425.60 185.64 418.38 157.79 403.41 C 148.23 398.63 138.98 393.01 130.55 386.42 C 123.83 380.55 118.51 372.08 116.70 363.30 C 114.31 352.67 112.58 341.93 112.41 331.01 Z" id="p15" />
</defs>
<g stroke-width="10pt">
<use stroke="#ffffff" xlink:href="#p0" />
<use stroke="#1b1c1a" xlink:href="#p1" />
<use stroke="#ffffff" xlink:href="#p2" />
<use stroke="#ffffff" xlink:href="#p3" />
<use stroke="#ffffff" xlink:href="#p4" />
<use stroke="#ffffff" xlink:href="#p5" />
<use stroke="#ffffff" xlink:href="#p6" />
<use stroke="#ffffff" xlink:href="#p7" />
<use stroke="#ffffff" xlink:href="#p8" />
<use stroke="#ffffff" xlink:href="#p9" />
<use stroke="#ffffff" xlink:href="#p10" />
<use stroke="#d2d2d2" xlink:href="#p11" />
<use stroke="#d2d2d2" xlink:href="#p12" />
<use stroke="#d2d2d2" xlink:href="#p13" />
<use stroke="#ffffff" xlink:href="#p14" />
<use stroke="#d2d2d2" xlink:href="#p15" />
</g>
<g>
<use fill="#ffffff" xlink:href="#p0" />
<use fill="#1b1c1a" xlink:href="#p1" />
<use fill="#ffffff" xlink:href="#p2" />
<use fill="#ffffff" xlink:href="#p3" />
<use fill="#ffffff" xlink:href="#p4" />
<use fill="#ffffff" xlink:href="#p5" />
<use fill="#ffffff" xlink:href="#p6" />
<use fill="#ffffff" xlink:href="#p7" />
<use fill="#ffffff" xlink:href="#p8" />
<use fill="#ffffff" xlink:href="#p9" />
<use fill="#ffffff" xlink:href="#p10" />
<use fill="#d2d2d2" xlink:href="#p11" />
<use fill="#d2d2d2" xlink:href="#p12" />
<use fill="#d2d2d2" xlink:href="#p13" />
<use fill="#ffffff" xlink:href="#p14" />
<use fill="#d2d2d2" xlink:href="#p15" />
</g>
</svg>