<svg width="300" height="320" xmlns="http://www.w3.org/2000/svg" xmlns:svg="http://www.w3.org/2000/svg" xmlns:xlink="http://www.w3.org/1999/xlink">
 <!-- Created with SVG-edit - http://svg-edit.googlecode.com/ -->
 <defs>
  <symbol id="svg_2" viewBox="0 0 792 792" preserveAspectRatio="xMidYMid meet" xmlns:xlink="http://www.w3.org/1999/xlink" xmlns="http://www.w3.org/2000/svg">
   <defs>
    <path id="svg_1" d="m262.84,251.09c17.69,-2.65 31.23,-17.87 31.23,-36.26c0,-20.2 -16.38,-36.58 -36.58,-36.58c-18.39,0 -33.56,13.54 -36.26,31.23c-11.01,0 -99.07,0 -110.08,0c-2.33,-15.87 -15.03,-28.58 -31.09,-30.72c0,-7.37 0,-66.32 0,-73.68c17.87,-2.52 31.56,-17.69 31.56,-36.26c0,-20.2 -16.39,-36.59 -36.59,-36.59c-20.2,0 -36.58,16.39 -36.58,36.59c0,18.2 13.35,33.42 30.72,36.07c0,7.38 0,66.44 0,73.82c-17.55,2.65 -30.91,17.88 -30.91,36.26c0,18.39 13.36,33.42 30.91,36.26c0,7.4 0,66.61 0,74.01c-17.55,2.65 -31.1,17.87 -31.1,36.26c0,20.2 16.39,36.58 36.59,36.58c20.2,0 36.58,-16.38 36.58,-36.58c0,-18.39 -13.54,-33.56 -31.23,-36.26c0,-7.4 0,-66.61 0,-74.01c16.06,-2.33 28.58,-14.85 31.09,-30.72c11.01,0 99.08,0 110.08,0c2.33,15.87 14.85,28.39 30.72,30.72c0,7.38 0,66.44 0,73.82c-17.68,2.65 -31.23,17.88 -31.23,36.26c0,20.2 16.39,36.59 36.59,36.59c20.2,0 36.58,-16.39 36.58,-36.59c0.09,-18.34 -13.45,-33.56 -31,-36.21c0,-14.8 0,-66.61 0,-74.01z"/>
   </defs>
   <g id="svg_5">
    <g id="svg_6">
     <g id="svg_7">
      <use fill="#ff6c49" xlink:href="#svg_1" id="svg_8"/>
      <g id="svg_9">
       <use stroke-opacity="0" stroke="#000000" fill-opacity="0" xlink:href="#svg_1" id="svg_10"/>
      </g>
     </g>
    </g>
   </g>
  </symbol>
 </defs>
 <g>
  <title>Layer 1</title>
  <use x="-18.87272" y="-24.86243" transform="matrix(1.968858818776184,0,0,2.0631643083079534,63.99595786675593,15.63504289905008) " xlink:href="#svg_2" id="svg_3"/>
  <g id="svg_4"/>
 </g>
</svg>