<svg width="43" height="43" viewBox="0 0 43 43" fill="none" xmlns="http://www.w3.org/2000/svg">
<path fill-rule="evenodd" clip-rule="evenodd" d="M21.2358 42.4717C32.9641 42.4717 42.4717 32.9641 42.4717 21.2358C42.4717 9.50761 32.9641 0 21.2358 0C9.50761 0 0 9.50761 0 21.2358C0 32.9641 9.50761 42.4717 21.2358 42.4717Z" fill="#1A61F0"/>
<path fill-rule="evenodd" clip-rule="evenodd" d="M27.4656 19.3749C26.8781 19.1082 26.2404 18.9703 25.5952 18.9705H19.0686C17.8158 18.9705 16.8001 17.9548 16.8001 16.7019V8.88403H12.2615V18.9705C12.2623 21.4767 14.2938 23.5082 16.8001 23.5091H23.3252C23.9269 23.5091 24.5041 23.7482 24.9295 24.1738C25.355 24.5994 25.5939 25.1766 25.5937 25.7784V33.5955H30.1323V23.5091C30.1325 21.7269 29.0893 20.1096 27.4656 19.3749Z" fill="white"/>
<path fill-rule="evenodd" clip-rule="evenodd" d="M12.4173 26.2834V33.9073H16.9559V30.8213C16.9555 28.315 14.9236 26.2834 12.4173 26.2834H12.4173Z" fill="white"/>
<path fill-rule="evenodd" clip-rule="evenodd" d="M26.3854 9.1958H25.4378V12.2818C25.4382 14.7883 27.47 16.82 29.9764 16.8204V9.1958H26.3854Z" fill="white"/>
</svg>
