<?xml version="1.0" standalone="no"?>
<!DOCTYPE svg PUBLIC "-//W3C//DTD SVG 20010904//EN"
 "http://www.w3.org/TR/2001/REC-SVG-20010904/DTD/svg10.dtd">
<svg version="1.0" xmlns="http://www.w3.org/2000/svg"
 width="512.000000pt" height="512.000000pt" viewBox="0 0 512.000000 512.000000"
 preserveAspectRatio="xMidYMid meet">

<g transform="translate(0.000000,512.000000) scale(0.100000,-0.100000)"
fill="#383838" stroke="none">
<path d="M2340 5109 c-781 -67 -1485 -489 -1923 -1154 -91 -139 -208 -372
-265 -530 -150 -415 -188 -888 -107 -1328 128 -692 525 -1288 1120 -1680 139
-91 372 -208 530 -265 415 -150 888 -188 1328 -107 692 128 1288 525 1680
1120 91 139 208 372 265 530 150 415 188 888 107 1328 -128 692 -525 1288
-1120 1680 -134 88 -368 206 -520 262 -334 123 -732 175 -1095 144z m410 -765
c137 -72 309 -259 523 -570 372 -539 564 -924 638 -1274 32 -150 31 -383 0
-525 -60 -265 -186 -492 -385 -691 -275 -274 -600 -406 -965 -391 -354 14
-650 145 -907 401 -203 204 -331 438 -391 716 -14 66 -18 128 -18 275 1 172 4
201 29 309 38 163 75 266 157 435 84 173 137 263 287 486 184 273 401 558 527
692 69 74 180 150 255 174 14 5 59 7 100 6 65 -3 85 -9 150 -43z"/>
<path d="M2438 3661 c-232 -239 -446 -535 -568 -786 -117 -240 -163 -414 -164
-615 0 -224 56 -375 194 -522 190 -203 401 -292 695 -291 166 1 289 28 420 92
197 98 361 294 417 498 27 101 29 320 4 433 -85 387 -344 816 -730 1208 -74
75 -107 102 -126 102 -19 0 -53 -29 -142 -119z"/>
</g>
</svg>
