<svg width="70" height="70" viewBox="0 0 70 70" fill="none" xmlns="http://www.w3.org/2000/svg" class="uni-gradient">
<path d="M0 35C0 15.67 15.67 0 35 0C54.33 0 70 15.67 70 35C70 54.33 54.33 70 35 70C15.67 70 0 54.33 0 35Z" fill="url(#uni_linear)"/>
<path d="M26.8634 16.4476C26.3261 16.3645 26.3035 16.3548 26.5563 16.316C27.0409 16.2417 28.185 16.343 28.9734 16.5299C30.8141 16.9662 32.4889 18.0839 34.2767 20.0689L34.7517 20.5963L35.4312 20.4874C38.2936 20.0286 41.2056 20.3932 43.6412 21.5152C44.3112 21.8239 45.3678 22.4384 45.4998 22.5963C45.5418 22.6466 45.6189 22.9705 45.6712 23.3162C45.8521 24.512 45.7615 25.4287 45.3949 26.1133C45.1952 26.4859 45.1841 26.604 45.3184 26.9228C45.4255 27.1772 45.7241 27.3656 46.0198 27.3652C46.6249 27.3643 47.2764 26.3886 47.5784 25.031L47.6984 24.4917L47.9358 24.76C49.2387 26.2321 50.2621 28.2396 50.4378 29.6685L50.4835 30.0411L50.2647 29.7024C49.8878 29.1196 49.5089 28.7228 49.0241 28.4028C48.1498 27.826 47.2255 27.6297 44.7778 27.5011C42.5669 27.3849 41.3157 27.1966 40.075 26.7932C37.964 26.1068 36.8999 25.1928 34.3923 21.912C33.2786 20.4549 32.5902 19.6486 31.9054 18.9994C30.3495 17.5241 28.8205 16.7503 26.8634 16.4476Z" fill="#FF007A"/>
<path d="M45.9979 19.7011C46.0536 18.7247 46.1862 18.0806 46.4533 17.4924C46.559 17.2596 46.6579 17.0691 46.6733 17.0691C46.6885 17.0691 46.6425 17.2409 46.571 17.4509C46.377 18.0217 46.345 18.8025 46.4788 19.7109C46.6485 20.8635 46.745 21.0298 47.9667 22.2748C48.5396 22.8588 49.2062 23.5953 49.4476 23.9115L49.887 24.4865L49.4476 24.0756C48.9105 23.5731 47.675 22.5931 47.4022 22.453C47.219 22.3591 47.1919 22.3607 47.079 22.4727C46.975 22.576 46.953 22.7311 46.9388 23.4644C46.9162 24.6074 46.7599 25.341 46.383 26.0745C46.179 26.4713 46.1467 26.3866 46.3313 25.9388C46.469 25.6044 46.483 25.4574 46.4822 24.351C46.4799 22.1279 46.2153 21.5934 44.6633 20.6779C44.2702 20.4459 43.6222 20.1114 43.2236 19.9345C42.825 19.7576 42.5083 19.6035 42.5198 19.5919C42.5638 19.5483 44.0773 19.9889 44.6867 20.2226C45.593 20.5702 45.7425 20.6153 45.8525 20.5733C45.9265 20.5452 45.9622 20.331 45.9979 19.7011Z" fill="#FF007A"/>
<path d="M27.9074 23.5041C26.8166 22.0066 26.1418 19.7106 26.2879 17.9943L26.333 17.4631L26.5813 17.5083C27.0476 17.5931 27.8515 17.8915 28.2279 18.1195C29.261 18.7451 29.7082 19.5688 30.1632 21.684C30.2964 22.3035 30.4713 23.0046 30.5518 23.242C30.6813 23.624 31.1707 24.5164 31.5687 25.096C31.8553 25.5134 31.6649 25.7112 31.0313 25.6541C30.0637 25.5671 28.753 24.665 27.9074 23.5041Z" fill="#FF007A"/>
<path d="M44.6758 34.6491C39.5785 32.6024 37.7832 30.8259 37.7832 27.8284C37.7832 27.3873 37.7984 27.0264 37.817 27.0264C37.8355 27.0264 38.0328 27.1719 38.2552 27.3499C39.2889 28.1766 40.4464 28.5298 43.6507 28.9959C45.5364 29.2703 46.5975 29.4919 47.5764 29.8156C50.6875 30.8445 52.6124 32.9326 53.0715 35.7768C53.205 36.6032 53.1267 38.153 52.9104 38.9698C52.7398 39.6149 52.2187 40.7778 52.0804 40.8225C52.0421 40.8348 52.0047 40.6884 51.9947 40.4891C51.9424 39.4211 51.4012 38.3814 50.4924 37.6026C49.459 36.7171 48.0707 36.012 44.6758 34.6491Z" fill="#FF007A"/>
<path d="M41.0962 35.4996C41.0324 35.1206 40.9216 34.6366 40.8501 34.424L40.72 34.0376L40.9616 34.308C41.2959 34.6822 41.5601 35.161 41.784 35.7988C41.9549 36.2856 41.9741 36.4303 41.9728 37.2213C41.9715 37.9978 41.9502 38.1606 41.7924 38.5988C41.5436 39.2896 41.2348 39.7795 40.7166 40.3054C39.7854 41.2505 38.5883 41.7736 36.8608 41.9906C36.5605 42.0282 35.6852 42.0918 34.9158 42.1317C32.9767 42.2323 31.7004 42.4401 30.5536 42.8418C30.3888 42.8994 30.2415 42.9346 30.2266 42.9197C30.1802 42.8736 30.961 42.4095 31.6059 42.0996C32.5152 41.6627 33.4205 41.4245 35.4486 41.0876C36.4505 40.9211 37.4852 40.7193 37.7479 40.639C40.229 39.8804 41.5044 37.9227 41.0962 35.4996Z" fill="#FF007A"/>
<path d="M43.4329 39.6378C42.7557 38.186 42.6002 36.7842 42.9712 35.4769C43.0109 35.3372 43.0747 35.2229 43.1131 35.2229C43.1515 35.2229 43.3113 35.309 43.4682 35.4143C43.7804 35.6238 44.4064 35.9767 46.0738 36.8834C48.1547 38.0147 49.3413 38.8908 50.1481 39.8917C50.8547 40.7682 51.2918 41.7666 51.5024 42.9841C51.6215 43.6735 51.5515 45.3328 51.3741 46.0271C50.8147 48.2166 49.5144 49.9364 47.6598 50.94C47.3881 51.087 47.1441 51.2077 47.1178 51.2083C47.0913 51.2089 47.1904 50.9577 47.3378 50.6504C47.9615 49.3498 48.0327 48.0848 47.561 46.6767C47.2721 45.8144 46.6833 44.7623 45.4944 42.9841C44.1118 40.917 43.773 40.3668 43.4329 39.6378Z" fill="#FF007A"/>
<path d="M24.2868 47.4711C26.1784 45.8784 28.532 44.7469 30.6759 44.3995C31.5999 44.2498 33.1391 44.3092 33.9947 44.5276C35.3662 44.8776 36.593 45.6617 37.231 46.5956C37.8546 47.5084 38.1221 48.3039 38.4006 50.0737C38.5105 50.7721 38.63 51.473 38.6661 51.6318C38.8753 52.5491 39.2823 53.2821 39.7867 53.6505C40.5879 54.2353 41.9673 54.2714 43.3244 53.7436C43.5547 53.6539 43.7546 53.592 43.7686 53.606C43.8181 53.6548 43.1346 54.1109 42.6525 54.3511C42.0039 54.6742 41.4881 54.7992 40.8027 54.7992C39.5598 54.7992 38.5279 54.1688 37.6669 52.8831C37.4975 52.6299 37.1166 51.8723 36.8206 51.1989C35.9115 49.1312 35.4626 48.5014 34.4071 47.8119C33.4885 47.2122 32.3038 47.1047 31.4126 47.5405C30.2419 48.1129 29.9153 49.6048 30.7537 50.5502C31.087 50.926 31.7084 51.2499 32.2166 51.313C33.1672 51.4311 33.9842 50.7099 33.9842 49.7527C33.9842 49.1312 33.7447 48.7766 33.1417 48.5051C32.3181 48.1344 31.4328 48.5679 31.437 49.3393C31.4389 49.6684 31.5825 49.8748 31.9132 50.0241C32.1254 50.1199 32.1303 50.1273 31.9573 50.0915C31.2017 49.9353 31.0246 49.0268 31.6322 48.4237C32.3617 47.6999 33.8701 48.0192 34.3881 49.0076C34.6057 49.4227 34.6309 50.2495 34.4412 50.7486C34.0166 51.866 32.7785 52.4534 31.5225 52.1337C30.6674 51.9159 30.3192 51.6802 29.2883 50.6213C27.4968 48.7809 26.8013 48.4243 24.2185 48.0224L23.7236 47.9452L24.2868 47.4711Z" fill="#FF007A"/>
<path fill-rule="evenodd" clip-rule="evenodd" d="M15.8811 14.5341C21.8639 21.7752 25.9845 24.7628 26.4424 25.394C26.8205 25.9152 26.6782 26.3837 26.0305 26.7509C25.6703 26.9551 24.9297 27.162 24.559 27.162C24.1396 27.162 23.9956 27.0007 23.9956 27.0007C23.7525 26.7707 23.6155 26.8109 22.3669 24.6006C20.6333 21.9181 19.1825 19.6929 19.143 19.6557C19.0515 19.5695 19.053 19.5724 22.1901 25.1699C22.697 26.3365 22.2909 26.7648 22.2909 26.9309C22.2909 27.2689 22.1985 27.4466 21.7803 27.9117C21.0833 28.6872 20.7717 29.5585 20.5467 31.3618C20.2946 33.3832 19.5855 34.8111 17.6204 37.255C16.4702 38.6856 16.282 38.9478 15.9917 39.5244C15.6261 40.2505 15.5256 40.6572 15.4849 41.574C15.4418 42.5435 15.5257 43.1699 15.8227 44.0967C16.0827 44.9082 16.3541 45.444 17.0479 46.5155C17.6467 47.4403 17.9915 48.1278 17.9915 48.3967C17.9915 48.6105 18.0325 48.6108 18.9603 48.4018C21.1808 47.9019 22.9838 47.0224 23.9979 45.9445C24.6255 45.2774 24.7728 44.9091 24.7776 43.9952C24.7807 43.3972 24.7596 43.2719 24.5975 42.9279C24.3337 42.3681 23.8534 41.9025 22.7948 41.181C21.4077 40.2353 20.8153 39.4741 20.6516 38.4272C20.5174 37.5682 20.6731 36.9621 21.4405 35.3583C22.2347 33.6983 22.4315 32.9909 22.5647 31.3176C22.6507 30.2365 22.7697 29.8102 23.0812 29.468C23.4061 29.1112 23.6985 28.9903 24.5024 28.8808C25.8131 28.7022 26.6476 28.3641 27.3336 27.7337C27.9287 27.1868 28.1777 26.6599 28.2159 25.8667L28.245 25.2654L27.9124 24.8788C26.7081 23.4785 15.0746 13.4333 15.0005 13.4333C14.9846 13.4333 15.3809 13.9287 15.8811 14.5341ZM18.6675 42.6711C18.9398 42.19 18.7951 41.572 18.3397 41.2698C17.9093 40.9846 17.2408 41.119 17.2408 41.4909C17.2408 41.6044 17.3037 41.6869 17.4455 41.7597C17.6843 41.8822 17.7017 42.02 17.5138 42.3015C17.3235 42.5868 17.3389 42.8376 17.5571 43.0079C17.9089 43.2825 18.4068 43.1314 18.6675 42.6711Z" fill="#FF007A"/>
<path fill-rule="evenodd" clip-rule="evenodd" d="M29.0724 29.1962C28.4571 29.3847 27.859 30.035 27.6738 30.7169C27.5609 31.1328 27.625 31.8625 27.7941 32.0879C28.0675 32.4519 28.3318 32.5477 29.0475 32.5427C30.4487 32.533 31.6668 31.9337 31.8084 31.1845C31.9245 30.5704 31.3895 29.7193 30.6526 29.3457C30.2723 29.153 29.4636 29.0765 29.0724 29.1962ZM30.7104 30.4735C30.9265 30.1674 30.8319 29.8365 30.4644 29.6127C29.7646 29.1865 28.7062 29.5391 28.7062 30.1985C28.7062 30.5266 29.2581 30.8847 29.764 30.8847C30.1007 30.8847 30.5615 30.6845 30.7104 30.4735Z" fill="#FF007A"/>
<defs>
<linearGradient id="uni_linear" x1="6" y1="16.5" x2="62" y2="64.5" gradientUnits="userSpaceOnUse">
<stop offset="0" stop-color="white"/>
<stop offset="1" stop-color="#FFE1EF"/>
</linearGradient>
</defs>
</svg>
