<svg xmlns="http://www.w3.org/2000/svg" xmlns:xlink="http://www.w3.org/1999/xlink" viewBox="0 0 256 256"><defs><path id="prefix__a" d="M0 0h256v256H0z"/></defs><clipPath id="prefix__b"><use overflow="visible" xlink:href="#prefix__a"/></clipPath><g clip-path="url(#prefix__b)"><linearGradient id="prefix__c" x1="239.36" x2="34.56" y1="17.92" y2="222.72" gradientTransform="matrix(1 0 0 -1 0 257.28)" gradientUnits="userSpaceOnUse"><stop offset=".159" stop-color="#003cda"/><stop offset="1" stop-color="#33dfcc"/></linearGradient><path fill="url(#prefix__c)" d="M128 49.4c15.6 0 30.8 4.6 43.7 13.3 12.9 8.6 23 20.9 29 35.3 6 14.4 7.5 30.2 4.5 45.4-3 15.3-10.5 29.3-21.5 40.3s-25 18.5-40.3 21.5c-15.3 3-31.1 1.5-45.4-4.5-14.4-6-26.7-16-35.3-29-8.7-12.9-13.3-28.1-13.3-43.7 0-20.8 8.3-40.8 23.1-55.6 14.7-14.7 34.7-23 55.5-23zM128 0c-25.3 0-50.1 7.5-71.1 21.6-21.1 14-37.5 34-47.2 57.4-9.7 23.4-12.2 49.1-7.3 74 4.9 24.8 17.1 47.6 35 65.5s40.7 30.1 65.5 35c24.8 4.9 50.6 2.4 74-7.3s43.4-26.1 57.4-47.1c14.1-21 21.6-45.8 21.6-71.1 0-33.9-13.5-66.5-37.5-90.5C194.5 13.5 161.9 0 128 0z"/><path fill="#FFF" d="M128 228c55.2 0 100-44.8 100-100S183.2 28 128 28 28 72.8 28 128s44.8 100 100 100z"/><linearGradient id="prefix__d" x1="197.6" x2="69.6" y1="59.68" y2="187.68" gradientTransform="matrix(1 0 0 -1 0 257.28)" gradientUnits="userSpaceOnUse"><stop offset=".159" stop-color="#003cda"/><stop offset="1" stop-color="#33dfcc"/></linearGradient><path fill="url(#prefix__d)" d="M48 128c0-44.2 35.8-80 80-80s80 35.8 80 80-35.8 80-80 80-80-35.8-80-80z"/><path fill="#FFF" d="M94.5 55.3c5.1-2.3 10.4-4.2 16-5.4v33.5h-16V55.3zM49.8 111c1.2-5.6 3-11 5.3-16.1h82.4c12 0 21.8 9.8 21.8 21.8V138c0 12.1-9.7 21.8-21.8 21.8h-21.2c-12 0-21.8-9.8-21.8-21.8v-15.5h16v15.4c0 3.2 2.5 5.7 5.7 5.7h21.2c3.2 0 5.7-2.5 5.7-5.7v-21.1c0-3.2-2.5-5.7-5.7-5.7H49.8z"/></g></svg>