<svg xmlns="http://www.w3.org/2000/svg" width="64" height="64" viewBox="0 0 64 64">
    <defs>
        <style>
            .cls-1{fill:#1bbc9a}.cls-2{fill:#fff}
        </style>
    </defs>
    <g id="ic_token_mkr" transform="translate(-181 -280)">
        <rect id="Rectangle_416" width="64" height="64" class="cls-1" data-name="Rectangle 416" rx="32" transform="translate(181 280)"/>
        <g id="Group_402" data-name="Group 402" transform="translate(196.133 300.439)">
            <g id="Group_400" data-name="Group 400">
                <path id="path0_fill" d="M-293.571 144.517a.779.779 0 0 1 .815.072l13.605 10.219a.789.789 0 0 1 .314.622v11.686a.781.781 0 0 1-.779.779.781.781 0 0 1-.779-.779v-11.293l-12.048-9.054v20.348a.781.781 0 0 1-.779.779.772.772 0 0 1-.779-.773v-21.912a.774.774 0 0 1 .43-.694z" class="cls-2" transform="translate(294 -144.435)"/>
            </g>
            <g id="Group_401" data-name="Group 401" transform="translate(18.843)">
                <path id="path1_fill" d="M15.628 144.517a.777.777 0 0 1 .429.694v21.911a.779.779 0 0 1-1.557 0v-20.354l-12.043 9.055v11.3a.779.779 0 0 1-1.557 0v-11.687a.764.764 0 0 1 .314-.622l13.593-10.225a.79.79 0 0 1 .821-.072z" class="cls-2" transform="translate(-.9 -144.435)"/>
            </g>
        </g>
    </g>
</svg>
