<svg width="70" height="70" viewBox="0 0 70 70" fill="none" xmlns="http://www.w3.org/2000/svg" class="bzrx-gradient">
<path d="M0 35C0 15.67 15.67 0 35 0C54.33 0 70 15.67 70 35C70 54.33 54.33 70 35 70C15.67 70 0 54.33 0 35Z" fill="url(#bzrx_linear)"/>
<path d="M20.3579 3.20061C22.5806 2.17547 24.9291 1.37652 27.3738 0.833252V15.4679H20.3579V3.20061Z" fill="white"/>
<path d="M0.787598 27.5822C1.31653 25.1311 2.10219 22.7755 3.11502 20.5449H39.1504C44.4123 20.5449 48.6719 24.8176 48.6719 30.0954V39.3948C48.6719 44.6727 44.4123 48.9453 39.1504 48.9453H29.8794C24.6175 48.9453 20.3579 44.6727 20.3579 39.3948V32.6089H27.3738V39.3445C27.3738 40.752 28.476 41.8579 29.8794 41.8579H39.1504C40.5534 41.8579 41.656 40.752 41.656 39.3445V30.0954C41.656 28.6881 40.5534 27.5822 39.1504 27.5822H0.787598Z" fill="white"/>
<defs>
<linearGradient id="bzrx_linear" x1="65.45" y1="65.45" x2="9.45" y2="9.45" gradientUnits="userSpaceOnUse">
<stop offset="0.159375" stop-color="#003CDA"/>
<stop offset="1" stop-color="#33DFCC"/>
</linearGradient>
</defs>
</svg>
