<svg width="256" height="256" viewBox="0 0 256 256" fill="none" xmlns="http://www.w3.org/2000/svg">
<path d="M128 49.36C143.554 49.36 158.758 53.9722 171.69 62.6132C184.622 71.2543 194.702 83.5362 200.654 97.9058C206.606 112.275 208.163 128.087 205.129 143.342C202.095 158.597 194.605 172.609 183.607 183.607C172.609 194.605 158.597 202.095 143.342 205.129C128.087 208.163 112.275 206.606 97.9058 200.654C83.5363 194.702 71.2544 184.622 62.6133 171.69C53.9722 158.758 49.3601 143.554 49.3601 128C49.3865 107.151 57.6803 87.1645 72.4224 72.4223C87.1645 57.6802 107.152 49.3865 128 49.36ZM128 0C102.684 0 77.9366 7.50707 56.8871 21.5719C35.8376 35.6367 19.4315 55.6276 9.74348 79.0165C0.05546 102.405 -2.47937 128.142 2.45954 152.972C7.39845 177.801 19.5893 200.609 37.4904 218.51C55.3915 236.411 78.1989 248.602 103.029 253.541C127.858 258.479 153.595 255.945 176.984 246.257C200.372 236.569 220.363 220.162 234.428 199.113C248.493 178.064 256 153.316 256 128C256 94.0523 242.514 61.495 218.51 37.4903C194.505 13.4857 161.948 0 128 0V0Z" fill="url(#paint0_linear)"/>
<path d="M128 229C183.228 229 228 184.228 228 129C228 73.7715 183.228 29 128 29C72.7715 29 28 73.7715 28 129C28 184.228 72.7715 229 128 229Z" fill="white"/>
<path d="M184.354 185.952C176.908 193.413 168.039 199.297 158.275 203.254C148.511 207.211 138.051 209.16 127.519 208.986C117.048 209.188 106.646 207.25 96.9481 203.289C87.2505 199.329 78.4613 193.43 71.1179 185.952C63.603 178.626 57.6742 169.829 53.7001 160.109C49.7261 150.389 47.7918 139.955 48.0177 129.454C48.0177 106.46 55.7178 87.3055 71.1179 71.9895C78.4663 64.5227 87.2577 58.6344 96.9552 54.6844C106.653 50.7343 117.052 48.8054 127.519 49.0155C138.047 48.8332 148.504 50.7731 158.268 54.7199C168.032 58.6667 176.903 64.5397 184.354 71.9895C200.109 87.3055 207.986 106.46 207.986 129.454C208.19 140 206.193 150.472 202.124 160.201C198.055 169.929 192.002 178.7 184.354 185.952Z" fill="#C8C8C8"/>
<path d="M128 74.1428L96 128.674L128 113.73V74.1428Z" fill="#8B8B8B"/>
<path d="M128 113.73L96 128.674L128 148.088V113.73Z" fill="#393939"/>
<path d="M128 74.1428V113.73L159.969 128.674L128 74.1428Z" fill="#343434"/>
<path d="M128 113.73V148.088L159.969 128.674L128 113.73Z" fill="#161616"/>
<path d="M96 134.898L128 181.215V154.328L96 134.898Z" fill="#8B8B8B"/>
<path d="M160 134.898L128 154.328V181.215L160 134.898Z" fill="#343434"/>
<defs>
<linearGradient id="paint0_linear" x1="239.36" y1="239.36" x2="34.56" y2="34.56" gradientUnits="userSpaceOnUse">
<stop offset="0.159375" stop-color="#003CDA"/>
<stop offset="1" stop-color="#33DFCC"/>
</linearGradient>
</defs>
</svg>
