<svg width="60" height="60" viewBox="0 0 60 60" fill="none" 
    xmlns="http://www.w3.org/2000/svg">
    <path d="M51.1193 51.3771C48.3247 54.1723 44.9971 56.3758 41.3348 57.8562C37.6725 59.3366 33.7503 60.0638 29.8017 59.9944C25.8777 60.0717 21.9793 59.3467 18.3445 57.8638C14.7096 56.3809 11.4148 54.1712 8.66124 51.3697C5.84288 48.6207 3.61996 45.3198 2.13106 41.6725C0.642149 38.0252 -0.0808355 34.1097 0.00716968 30.1702C0.00716968 21.5504 2.89678 14.3681 8.67601 8.62316C11.4313 5.82243 14.7277 3.61379 18.3638 2.13216C21.9998 0.650526 25.8992 -0.0729885 29.8238 0.00580953C33.7717 -0.0611818 37.6927 0.667833 41.3536 2.1495C45.0146 3.63116 48.3407 5.83521 51.1341 8.63056C57.0413 14.3804 59.9949 21.5652 59.9949 30.185C60.0696 34.1417 59.3187 38.0704 57.7903 41.7196C56.262 45.3688 53.9898 48.6582 51.1193 51.3771Z" class="fill-svg" fill="#49BC98"/>
    <path d="M40.2865 19.1874L31.7075 12.8572L31.2745 12.891C31.0683 13.1486 30.9018 13.4355 30.7806 13.7422C30.0221 17.0098 29.2803 20.2857 28.5388 23.5601L28.5384 23.5622L28.5367 23.5696C28.333 24.4691 28.1293 25.3684 27.9254 26.2674C27.8569 26.5777 27.7925 26.8921 27.7195 27.2489L27.6548 27.5645C27.7536 27.5138 27.8383 27.4724 27.9138 27.4356C28.0191 27.3842 28.1065 27.3415 28.1893 27.2943L37.411 22.2139C38.4326 21.66 39.4475 21.106 40.4624 20.5385C40.5644 20.486 40.6513 20.4085 40.715 20.3132C40.7787 20.2179 40.8171 20.108 40.8265 19.9938C40.836 19.8797 40.8163 19.765 40.7691 19.6605C40.722 19.5561 40.649 19.4653 40.5571 19.3968L40.2865 19.1874Z" fill="white"/>
    <path d="M19.2449 19.9035C18.699 20.2735 18.2733 20.7948 18.0203 21.4033L18 38.894C18.2413 39.3364 18.5368 39.7472 18.8796 40.1168C20.813 41.7064 22.7687 43.2773 24.722 44.8462L24.7233 44.8473C25.4011 45.3918 26.0787 45.936 26.7549 46.4807C27.012 46.6902 27.2894 46.8456 27.6142 46.6429C27.7511 46.5493 27.8528 46.4127 27.903 46.2548C27.9533 46.0969 27.9492 45.9267 27.8916 45.7714C26.8677 40.7676 25.8551 35.7593 24.8537 30.7465C24.7759 30.3608 24.7759 29.9635 24.8537 29.5778C25.8686 24.583 26.8947 19.5927 27.9322 14.6069C28.0066 14.2421 27.9998 13.9043 27.648 13.7017C27.2962 13.499 27.0188 13.6949 26.7549 13.9111C26.0506 14.4737 25.3469 15.0368 24.6432 15.5999C22.8458 17.0382 21.0488 18.4761 19.2449 19.9035Z" fill="white"/>
    <path d="M31.2136 47.1429C31.0127 46.8977 30.8486 46.6246 30.7264 46.3322C29.9357 42.851 29.1617 39.3614 28.388 35.8734C28.1753 34.9142 27.9625 33.9551 27.7495 32.9963C27.7495 32.8975 27.7286 32.7988 27.7026 32.6763C27.6895 32.6144 27.6751 32.5464 27.6615 32.4693C27.7253 32.5002 27.7829 32.5272 27.8357 32.5521C27.9564 32.6089 28.0525 32.6541 28.1419 32.7058L40.2797 39.4143C41.0307 39.8331 41.0578 40.2858 40.3474 40.7654L31.7075 47.0483L31.6466 47.1091L31.2136 47.1429Z" fill="white"/>
    <path d="M29.786 28.8144L28.0337 29.8075L28.487 30.0845L36.4976 34.5906L40.8751 37.1038C41.2946 37.3402 41.6802 37.2997 41.8629 36.9822C41.9635 36.7717 42.01 36.5395 41.9982 36.3066V23.4706C41.9982 22.5383 41.5517 22.2816 40.7398 22.7342L29.786 28.8144Z" fill="white"/>
</svg>
