<svg width="70" height="70" viewBox="0 0 70 70" fill="none" xmlns="http://www.w3.org/2000/svg">
<path d="M69.9447 35.0672C69.9752 15.7744 54.3547 0.104361 35.0553 0.0672184C15.7559 0.0300756 0.0858281 15.6399 0.0552915 34.9327C0.0247548 54.2256 15.6453 69.8956 34.9447 69.9327C54.2441 69.9699 69.9142 54.3601 69.9447 35.0672Z" fill="#3574B9"/>
<path d="M29.339 56.8188C29.339 57.6071 28.8254 57.883 28.0551 57.883C23.39 56.3386 19.3181 53.2821 16.4309 49.1573C13.5438 45.0325 11.9916 40.0544 12 34.946C12.0085 29.8377 13.577 24.8651 16.4777 20.7508C19.3785 16.6364 23.4605 13.5945 28.1306 12.0669C28.8859 11.8068 29.4145 12.3349 29.407 13.139V15.0388C29.4127 15.3123 29.345 15.582 29.2115 15.8174C29.078 16.0528 28.8841 16.2446 28.6517 16.371C24.9783 17.7512 21.8012 20.2789 19.5528 23.6104C17.3044 26.942 16.0938 30.9155 16.0855 34.9906C16.0772 39.0658 17.2718 43.0446 19.5067 46.3861C21.7416 49.7275 24.9083 52.2692 28.5762 53.6655C28.8092 53.7912 29.0036 53.9828 29.1371 54.2184C29.2707 54.454 29.338 54.7241 29.3314 54.9978L29.339 56.8188Z" fill="white"/>
<path d="M37.0121 50.197C37.0034 50.4801 36.8943 50.7498 36.7059 50.9537C36.5175 51.1576 36.2633 51.2812 35.9925 51.3006H33.9459C33.6801 51.2819 33.4299 51.1628 33.2422 50.9654C33.0545 50.7681 32.9422 50.5061 32.9263 50.2285V47.0753C28.8329 46.5314 26.7938 44.135 26.031 40.6664C26.031 40.1383 26.2953 39.6022 26.7862 39.6022H29.0897C29.5957 39.6022 29.8449 39.8703 30.1093 40.3905C30.6153 42.2588 31.6197 43.8591 34.9579 43.8669C37.5106 43.8669 39.3005 42.5426 39.308 40.4142C39.3156 38.2858 38.2885 37.4817 34.7162 36.9378C29.3465 36.1495 26.7938 34.5256 26.8013 30.0007C26.8013 26.5401 29.3691 23.8756 32.949 23.3554V20.0918C32.9651 19.815 33.0777 19.554 33.2655 19.358C33.4533 19.1619 33.7034 19.0444 33.9685 19.0276H36.0152C36.2803 19.0444 36.5304 19.1619 36.7183 19.358C36.9061 19.554 37.0187 19.815 37.0348 20.0918V23.2923C40.101 23.8283 42.1402 25.6966 42.6462 28.6291C42.6462 29.1573 42.3894 29.6933 41.8909 29.6933H39.8593C39.3458 29.6933 39.1041 29.4253 38.8398 28.905C38.3338 27.0367 37.0574 26.2327 34.754 26.2327C32.2013 26.2327 30.9174 27.557 30.9174 29.3859C30.9174 31.2147 31.6726 32.3183 35.5092 32.8623C40.8714 33.6506 43.424 35.2745 43.4165 39.7993C43.4165 43.26 40.8563 46.1846 37.0197 46.9807L37.0121 50.197Z" fill="white"/>
<path d="M40.5767 56.866C40.5767 57.6622 41.0978 58.1983 41.8531 57.9302C46.5227 56.4004 50.6046 53.3587 53.5076 49.2458C56.4106 45.1329 57.984 40.1623 58 35.0537C58.0151 24.4038 51.1349 15.3304 41.9437 12.1142C41.1734 12.1142 40.6598 12.3901 40.6598 13.1784V15.0467C40.6541 15.3201 40.7218 15.5899 40.8553 15.8253C40.9887 16.0607 41.1826 16.2525 41.415 16.3789C45.0826 17.776 48.2488 20.3185 50.4831 23.6604C52.7173 27.0023 53.911 30.9814 53.902 35.0566C53.8929 39.1317 52.6814 43.105 50.4323 46.436C48.1832 49.767 45.0057 52.2941 41.332 53.6734C41.0996 53.7978 40.9055 53.988 40.7719 54.2222C40.6383 54.4565 40.5707 54.7252 40.5767 54.9978V56.866Z" fill="white"/>
</svg>
