<svg width="70" height="70" viewBox="0 0 70 70" fill="none" xmlns="http://www.w3.org/2000/svg">
<path d="M0 35C0 15.67 15.67 0 35 0V0C54.33 0 70 15.67 70 35V35C70 54.33 54.33 70 35 70V70C15.67 70 0 54.33 0 35V35Z" fill="#006AE3"/>
<path d="M33.5542 49.7562V20.6362H36.7249V49.7562H33.5542Z" fill="white"/>
<path d="M49.6945 30.3382L39.9025 32.9352L37.7187 22.7712L40.6304 22.1132L41.7783 26.9292C41.7783 26.9292 44.424 22.5892 40.8964 18.0952C38.8176 15.7852 37.8307 15.6872 35.4999 15.3232C33.4491 15.0292 28.6826 15.7222 27.2617 21.2872C26.6598 24.8712 27.3387 27.5242 31.9583 30.9962L31.6993 34.8602C31.6993 34.8602 26.5408 31.2272 25.2109 28.6792C24.182 26.6632 22.4182 22.6802 25.6029 17.1362C27.3177 14.3642 30.6984 11.7042 36.6548 11.9842C39.6505 12.1102 46.9648 15.7712 45.8309 24.3252C45.6349 25.9282 44.802 28.0632 44.802 28.0632L48.8196 27.1672L49.6945 30.3382Z" fill="white"/>
<path d="M44.1023 53.1233C42.3105 55.8463 38.8598 58.4153 32.9174 57.9813C29.9217 57.7783 22.7124 53.9213 24.0703 45.4023C24.3083 43.8063 25.1972 41.6993 25.1972 41.6993L21.1586 42.4833L20.3677 39.2983L30.2297 36.9603L32.1475 47.1803L29.2148 47.7613L28.1929 42.9103C28.1929 42.9103 25.4352 47.1733 28.8368 51.7653C30.8526 54.1313 31.8325 54.2503 34.1633 54.6773C36.2001 55.0273 40.9876 54.4533 42.5555 48.9303C43.2484 45.3673 42.6394 42.6933 38.1179 39.0953L38.4819 35.2383C38.4819 35.2383 43.5424 39.0043 44.8022 41.5873C45.7681 43.6383 47.427 47.6703 44.1023 53.1233Z" fill="white"/>
</svg>
