<svg width="90" height="90" viewBox="0 0 90 90" fill="none" xmlns="http://www.w3.org/2000/svg">
<path d="M0 45C0 20.1472 20.1472 0 45 0V0C69.8528 0 90 20.1472 90 45V45C90 69.8528 69.8528 90 45 90V90C20.1472 90 0 69.8528 0 45V45Z" fill="#5B88FF"/>
<path d="M26.1736 4.11504C29.0313 2.797 32.0508 1.76977 35.194 1.07129V19.8872H26.1736V4.11504Z" fill="white"/>
<path d="M1.01172 35.4628C1.69178 32.3113 2.70191 29.2827 4.00412 26.4149H50.3354C57.1006 26.4149 62.5772 31.9083 62.5772 38.6941V50.6504C62.5772 57.4362 57.1006 62.9297 50.3354 62.9297H38.4154C31.6502 62.9297 26.1736 57.4362 26.1736 50.6504V41.9257H35.194V50.5857C35.194 52.3954 36.6111 53.8173 38.4154 53.8173H50.3354C52.1391 53.8173 53.5568 52.3954 53.5568 50.5857V38.6941C53.5568 36.8846 52.1391 35.4628 50.3354 35.4628H1.01172Z" fill="white"/>
</svg>
