<svg width="70" height="70" viewBox="0 0 70 70" fill="none" xmlns="http://www.w3.org/2000/svg" class="aave-gradient">
<path d="M35 70C54.33 70 70 54.33 70 35C70 15.67 54.33 0 35 0C15.67 0 0 15.67 0 35C0 54.33 15.67 70 35 70Z" fill="url(#aave_linear)"/>
<path d="M50.0447 49.1094L38.4363 20.0665C37.7803 18.5657 36.8105 17.8301 35.527 17.8301H34.5003C33.2168 17.8301 32.2471 18.5657 31.5911 20.0665L26.5431 32.7197H22.7208C22.1704 32.7219 21.6432 32.9487 21.2534 33.3509C20.8636 33.753 20.6427 34.2981 20.6387 34.8678V34.8972C20.6427 35.4669 20.8636 36.012 21.2534 36.4141C21.6432 36.8163 22.1704 37.0431 22.7208 37.0453H24.7739L19.9541 49.1094C19.863 49.374 19.8148 49.6525 19.8115 49.9335C19.8115 50.6103 20.0112 51.14 20.382 51.552C20.7528 51.9639 21.2661 52.1696 21.9222 52.1696C22.3529 52.1636 22.7713 52.0197 23.1198 51.7575C23.4906 51.4927 23.7473 51.1102 23.9469 50.6688L29.252 37.0448H32.9314C33.4817 37.0426 34.009 36.8158 34.3988 36.4137C34.7886 36.0115 35.0094 35.4664 35.0135 34.8967V34.8379C35.0094 34.2682 34.7886 33.7231 34.3988 33.3209C34.009 32.9188 33.4817 32.692 32.9314 32.6898H30.9636L35.0136 22.2439L46.0517 50.6689C46.2513 51.1103 46.508 51.4931 46.8788 51.7576C47.2274 52.0198 47.6459 52.1638 48.0768 52.1697C48.7328 52.1697 49.2462 51.9637 49.617 51.5518C49.9878 51.1397 50.1874 50.6101 50.1874 49.9333C50.1982 49.6512 50.1494 49.37 50.0447 49.1094Z" fill="white"/>
<defs>
<linearGradient id="aave_linear" x1="63.49" y1="15.89" x2="11.41" y2="59.71" gradientUnits="userSpaceOnUse">
<stop offset="0" stop-color="#B6509E"/>
<stop offset="1" stop-color="#2EBAC6"/>
</linearGradient>
</defs>
</svg>
