<svg xmlns="http://www.w3.org/2000/svg" xmlns:xlink="http://www.w3.org/1999/xlink" width="256" height="256" x="0px" y="0px" viewBox="0 0 256 256">
  <defs>
    <path id="a" d="M0 0h256v256H0z"/>
  </defs>
  <clipPath id="b">
    <use xlink:href="#a" overflow="visible"/>
  </clipPath>
  <g clip-path="url(#b)">
    <linearGradient id="c" gradientUnits="userSpaceOnUse" x1="239.36" y1="17.92" x2="34.56" y2="222.72" gradientTransform="matrix(1 0 0 -1 0 257.28)">
      <stop offset="0.1594" stop-color="#003cda"/>
      <stop offset="1" stop-color="#33dfcc"/>
    </linearGradient>
    <path fill="url(#c)" d="M128 49.4c15.6 0 30.8 4.6 43.7 13.3 12.9 8.6 23 20.9 29 35.3 6 14.4 7.5 30.2 4.5 45.4-3 15.3-10.5 29.3-21.5 40.3s-25 18.5-40.3 21.5c-15.3 3-31.1 1.5-45.4-4.5-14.4-6-26.7-16-35.3-29-8.7-12.9-13.3-28.1-13.3-43.7 0-20.8 8.3-40.8 23.1-55.6 14.7-14.7 34.7-23 55.5-23zM128 0c-25.3 0-50.1 7.5-71.1 21.6-21.1 14-37.5 34-47.2 57.4-9.7 23.4-12.2 49.1-7.3 74 4.9 24.8 17.1 47.6 35 65.5s40.7 30.1 65.5 35c24.8 4.9 50.6 2.4 74-7.3s43.4-26.1 57.4-47.1c14.1-21.1 21.6-45.8 21.6-71.1 0-33.9-13.5-66.5-37.5-90.5C194.5 13.5 161.9 0 128 0z"/>
    <path fill="#FFF" d="M128 228c55.2 0 100-44.8 100-100S183.2 28 128 28 28 72.8 28 128s44.8 100 100 100z"/>
    <defs>
      <path id="d" d="M48 48h160v160H48z"/>
    </defs>
    <clipPath id="e">
      <use xlink:href="#d" overflow="visible"/>
    </clipPath>
    <g clip-path="url(#e)">
      <path fill="#F7931A" d="M205.6 147.4c-10.7 42.9-54.1 68.9-97 58.3-42.8-10.7-68.9-54.1-58.2-97 10.7-42.9 54.1-68.9 96.9-58.3 42.9 10.7 69 54.1 58.3 97z"/>
      <path fill="#FFF" d="M163.3 116.6c1.6-10.6-6.5-16.4-17.6-20.2l3.6-14.4-8.8-2.2-3.5 14c-2.3-.6-4.7-1.1-7-1.7l3.5-14.1-8.8-2.2-3.6 14.4c-1.9-.4-3.8-.9-5.6-1.3l-12.1-3-2.3 9.4s6.5 1.5 6.4 1.6c3.6.9 4.2 3.2 4.1 5.1l-4.1 16.4c.2.1.6.2.9.3-.3-.1-.6-.2-.9-.2l-5.7 23c-.4 1.1-1.5 2.7-4 2.1.1.1-6.4-1.6-6.4-1.6L87 152l11.4 2.8c2.1.5 4.2 1.1 6.3 1.6l-3.6 14.6 8.8 2.2 3.6-14.4c2.4.6 4.7 1.2 7 1.8l-3.6 14.4 8.8 2.2 3.6-14.6c15 2.8 26.2 1.7 31-11.8 3.8-10.9-.2-17.2-8.1-21.3 5.6-1.3 9.9-5.1 11.1-12.9zm-20.1 28.1c-2.7 10.9-21.1 5-27 3.5l4.8-19.3c6 1.5 25.1 4.5 22.2 15.8zm2.7-28.3c-2.5 9.9-17.8 4.9-22.7 3.6l4.4-17.5c5 1.3 20.9 3.6 18.3 13.9z"/>
    </g>
  </g>
</svg>
