<svg width="70" height="70" viewBox="0 0 70 70" fill="none" xmlns="http://www.w3.org/2000/svg">
<path d="M35 70C54.3305 70 70 54.3305 70 35C70 15.6695 54.3305 0 35 0C15.6695 0 0 15.6695 0 35C0 54.3305 15.6695 70 35 70Z" fill="#070A0E"/>
<path fill-rule="evenodd" clip-rule="evenodd" d="M20.2192 46.7355C19.1727 46.095 18.5322 44.9575 18.5322 43.7325V36.8935C18.5322 36.0815 19.1937 35.4235 20.0057 35.427C20.2647 35.427 20.5202 35.497 20.7442 35.6265L36.1757 44.625C37.0787 45.15 37.6352 46.116 37.6352 47.1625V54.2465C37.6387 55.2195 36.8512 56.0105 35.8782 56.0105C35.5527 56.0105 35.2307 55.9195 34.9542 55.7515L20.2192 46.7355ZM43.2212 33.754C44.1242 34.279 44.6772 35.2485 44.6807 36.2915V50.6695C44.6807 51.093 44.4532 51.485 44.0822 51.6915L40.7047 53.592C40.6627 53.6165 40.6172 53.634 40.5682 53.648V45.6645C40.5682 44.632 40.0257 43.673 39.1367 43.141L25.5847 35.035V26.0225C25.5847 25.2105 26.2462 24.5525 27.0582 24.556C27.3172 24.556 27.5727 24.626 27.7967 24.7555L43.2212 33.754ZM49.9762 23.135C50.8827 23.66 51.4392 24.6295 51.4392 25.676V46.676C51.4357 47.1065 51.1977 47.502 50.8197 47.7085L47.6172 49.4375V34.818C47.6172 33.7855 47.0747 32.83 46.1927 32.298L32.3397 23.989V15.442C32.3397 15.183 32.4097 14.9275 32.5357 14.7035C32.9452 14.0035 33.8447 13.7655 34.5447 14.1715L49.9762 23.135Z" fill="#00D395"/>
</svg>
