<svg xmlns="http://www.w3.org/2000/svg" xmlns:xlink="http://www.w3.org/1999/xlink" viewBox="0 0 256 256" xml:space="preserve"><defs><path id="prefix__a" d="M0 0h256v256H0z"/></defs><clipPath id="prefix__b"><use overflow="visible" xlink:href="#prefix__a"/></clipPath><g clip-path="url(#prefix__b)"><linearGradient id="prefix__c" x1="239.36" x2="34.56" y1="17.92" y2="222.72" gradientTransform="matrix(1 0 0 -1 0 257.28)" gradientUnits="userSpaceOnUse"><stop offset=".159" stop-color="#003cda"/><stop offset="1" stop-color="#33dfcc"/></linearGradient><path fill="url(#prefix__c)" d="M128 49.4c43.4 0 78.6 35.2 78.6 78.6 0 20.9-8.3 40.9-23 55.6-22.5 22.5-56.3 29.2-85.7 17-29.4-12.2-48.5-40.8-48.5-72.7 0-43.3 35.2-78.5 78.6-78.5zM128 0C57.3 0 0 57.3 0 128s57.3 128 128 128 128-57.3 128-128S198.7 0 128 0z"/><path fill="#fff" d="M128 228c55.2 0 100-44.8 100-100S183.2 28 128 28 28 72.8 28 128s44.8 100 100 100z"/><circle cx="128" cy="128" r="80" fill="#26a17b"/><path fill="#fff" d="M136.8 134.8c-.6 0-3.5.2-9.9.2-5.1 0-8.8-.1-10-.2-19.8-.9-34.5-4.2-34.5-8.3 0-4.1 14.8-7.5 34.5-8.3v13.2c1.3.1 5 .3 10.1.3 6.1 0 9.2-.3 9.8-.3v-13.2c19.7.9 34.5 4.3 34.5 8.3s-14.7 7.4-34.5 8.3zm0-18v-11.9h27.5v-18h-75V105h27.5v11.9c-22.4 1-39.2 5.4-39.2 10.6s16.8 9.6 39.2 10.6v38h19.9v-38c22.4-1 39.2-5.4 39.2-10.6.1-5.3-16.7-9.7-39.1-10.7"/></g></svg>