<?xml version="1.0" encoding="utf-8"?>
<!-- Generator: Adobe Illustrator 19.0.1, SVG Export Plug-In . SVG Version: 6.00 Build 0)  -->
<svg version="1.0" id="Слой_1" xmlns="http://www.w3.org/2000/svg" xmlns:xlink="http://www.w3.org/1999/xlink" x="0px" y="0px"
	 viewBox="0 0 500 500" enable-background="new 0 0 500 500" xml:space="preserve">
<g>
	<g>
		<path fill="#163256" d="M326.588,166.095h37.322c38.589,0,69.979-31.39,69.979-69.979V68.125
			c0-12.884-10.442-23.326-23.326-23.326c-12.884,0-23.326,10.442-23.326,23.326v27.992c0,12.861-10.465,23.326-23.326,23.326
			h-37.322c-12.884,0-23.326,10.442-23.326,23.326C303.262,155.653,313.704,166.095,326.588,166.095z"/>
	</g>
	<g>
		<path fill="#03A3B4" d="M110.042,259.401c-51.318,0-93.305-41.987-93.305-93.305v0h148.511h169.504h148.511v0
			c0,51.318-41.987,93.305-93.305,93.305H110.042z"/>
		<path fill="#01949A" d="M16.737,166.095c0,0,59.871,47.819,125.768,60.065l-32.463,33.24
			C110.042,259.401,20.43,258.818,16.737,166.095z"/>
		<path fill="#03A3B4" d="M203.347,259.4h116.632c38.488,0,69.979-31.49,69.979-69.979v0c0-38.488-31.49-69.979-69.979-69.979
			H203.347c-38.488,0-69.979,31.49-69.979,69.979v0C133.369,227.91,164.859,259.4,203.347,259.4z"/>
		<path fill="#03A3B4" d="M366.878,212.748H189.105c-51.182,0-93.058,41.876-93.058,93.058v0.493
			c0,51.182,41.876,93.059,93.058,93.059h177.773c51.182,0,93.058-41.876,93.058-93.059v-0.493
			C459.937,254.624,418.06,212.748,366.878,212.748z"/>
		<path fill="#01949A" d="M307.538,166.095c0-25.659-24.493-46.653-37.322-46.653h49.763c38.488,0,69.979,31.49,69.979,69.979
			c0,6.355-0.933,12.489-2.54,18.352c-4.627,2.325-9.677,3.91-15,4.591c48.637,3.027,87.519,43.645,87.519,93.01
			c0,51.318-41.987,93.305-93.305,93.305h-87.085c25.659,0,46.653-41.987,46.653-93.305c0-47.673-13.462-87.24-36.606-92.628
			C289.594,212.748,307.538,200.985,307.538,166.095z"/>
	</g>
	<g>
		<circle fill="#FFFFFF" cx="224.341" cy="226.744" r="37.322"/>
		<circle fill="#163256" cx="224.341" cy="226.744" r="23.326"/>
		<path fill="#163256" d="M265.162,215.081H183.52c-9.622,0-17.495-7.873-17.495-17.495v0c0-9.622,7.873-17.495,17.495-17.495
			h81.642c9.622,0,17.495,7.873,17.495,17.495v0C282.657,207.208,274.784,215.081,265.162,215.081z"/>
	</g>
	<g>
		<path fill="#FFFFFF" d="M395.401,226.744c0,20.612-16.71,37.322-37.322,37.322c-13.498,0-25.323-7.166-31.877-17.901
			c-3.454-5.658-5.445-12.307-5.445-19.421c0-7.259,2.072-14.034,5.658-19.766c6.596-10.543,18.311-17.556,31.664-17.556
			C378.691,189.422,395.401,206.131,395.401,226.744z"/>
		<circle fill="#163256" cx="348.748" cy="226.744" r="23.326"/>
		<path fill="#163256" d="M404.725,215.08h-77.222c-9.622,0-17.495-7.873-17.495-17.495v0c0-9.622,7.873-17.495,17.495-17.495
			h77.222c9.622,0,17.495,7.873,17.495,17.495v0C422.22,207.208,414.347,215.08,404.725,215.08z"/>
		<polygon fill="#FFFFFF" points="334.752,245.405 344.083,222.078 320.756,231.409 320.756,242.683 		"/>
	</g>
	<g>
		<path fill="#163256" d="M179.243,166.095h-41.21c-38.589,0-69.979-31.39-69.979-69.979V68.125
			c0-12.884,10.442-23.326,23.326-23.326s23.326,10.442,23.326,23.326v27.992c0,12.861,10.465,23.326,23.326,23.326h41.21
			c12.884,0,23.326,10.442,23.326,23.326C202.57,155.653,192.128,166.095,179.243,166.095z"/>
	</g>
	<g>
		<g>
			<g>
				<path fill="#163256" d="M381.081,285.227H193.368c-10.814,0-20.125-14.361-24.321-22.016c-1.582-2.887-4.605-4.679-7.897-4.679
					h0c-4.974,0-9.007,4.033-9.007,9.007v7.164c0,25.319,20.525,45.843,45.843,45.843h183.029"/>
			</g>
			<g>
				<path fill="#5EC7D1" d="M197.987,313.365h174.099c4.932,0,8.931,3.998,8.931,8.93c0,4.932-3.999,8.931-8.931,8.931H197.987
					c-30.202,0-54.774-24.571-54.774-54.774c0,0-3.235-25.101,17.937-25.101c6.553,0,12.579,3.57,15.728,9.316
					c6.545,11.94,13.136,17.379,16.49,17.379h215.704c4.932,0,8.931,3.998,8.931,8.93c0,4.932-3.999,8.931-8.931,8.931H193.368
					c-14.5,0-25.488-14.495-32.152-26.655l-0.142,0.036C161.073,269.289,162.691,313.365,197.987,313.365z"/>
			</g>
		</g>
		<g>
			<polygon fill="#FFFFFF" points="354.628,295.994 337.874,313.365 313.462,313.365 313.462,295.994 			"/>
		</g>
		<g>
			<polygon fill="#FFFFFF" points="248.867,295.994 265.621,313.365 294.698,313.365 294.698,295.994 			"/>
		</g>
		<g>
			<polygon fill="#FFFFFF" points="356.535,295.945 376.097,341.86 396.178,295.945 			"/>
		</g>
		<g>
			<polygon fill="#FFFFFF" points="202.652,295.945 222.214,341.86 242.295,295.945 			"/>
		</g>
		<g>
			<g>
				<path fill="#5EC7D1" d="M328.033,287.392h-37.325c-15.459,0-27.992-12.532-27.992-27.992v0
					c0-15.459,12.532-27.992,27.992-27.992h37.325c15.459,0,27.992,12.532,27.992,27.992v0
					C356.025,274.86,343.493,287.392,328.033,287.392z"/>
			</g>
			<g>
				<g>
					<path fill="#163256" d="M302.373,278.061h-18.661V252.07c0-1.105,0.895-2,2-2h14.661c1.105,0,2,0.895,2,2V278.061z"/>
				</g>
				<g>
					<path fill="#163256" d="M335.03,278.061h-18.661V252.07c0-1.105,0.895-2,2-2h14.661c1.105,0,2,0.895,2,2V278.061z"/>
				</g>
			</g>
		</g>
	</g>
</g>
<path fill="#163256" d="M254.082,399.407c0,0,84.558,12.003,91.167,46.993c0,0,46.75-62.592-20.605-115.076
	C324.644,331.323,318.813,399.407,254.082,399.407z"/>
<polygon fill="#FFFFFF" points="210.345,245.405 219.676,222.078 196.35,231.409 196.35,242.683 "/>
</svg>
