<?xml version="1.0" standalone="no"?>
<!DOCTYPE svg PUBLIC "-//W3C//DTD SVG 20010904//EN"
 "http://www.w3.org/TR/2001/REC-SVG-20010904/DTD/svg10.dtd">
<svg version="1.0" xmlns="http://www.w3.org/2000/svg"
 width="163.000000pt" height="163.000000pt" viewBox="0 0 163.000000 163.000000"
 preserveAspectRatio="xMidYMid meet">
<metadata>
Created by potrace 1.16, written by Peter Selinger 2001-2019
</metadata>
<g transform="translate(0.000000,163.000000) scale(0.100000,-0.100000)"
fill="#000000" stroke="none">
<path d="M640 1270 c0 -18 7 -20 60 -20 53 0 60 -2 60 -20 0 -19 7 -20 135
-20 128 0 135 1 135 20 0 18 7 20 60 20 53 0 60 2 60 20 0 19 -7 20 -255 20
-248 0 -255 -1 -255 -20z"/>
<path d="M480 1150 c0 -18 7 -20 65 -20 l65 0 0 -465 0 -465 -65 0 c-63 0 -65
-1 -65 -25 l0 -25 255 0 255 0 0 25 c0 24 -3 25 -60 25 l-60 0 0 465 0 465 63
0 c56 0 63 2 63 20 0 19 -7 20 -258 20 -251 0 -258 -1 -258 -20z"/>
<path d="M910 680 l0 -410 120 0 120 0 0 25 c0 24 -3 25 -60 25 l-60 0 0 385
0 385 -60 0 -60 0 0 -410z"/>
</g>
</svg>
