<?xml version="1.0" encoding="UTF-8"?>
<svg width="40px" height="40px" viewBox="0 0 40 40" version="1.1" xmlns="http://www.w3.org/2000/svg" xmlns:xlink="http://www.w3.org/1999/xlink">
    <!-- Generator: Sketch 55.2 (78181) - https://sketchapp.com -->
    <title>INSUR</title>
    <desc>Created with Sketch.</desc>
    <g id="网站-黑色" stroke="none" stroke-width="1" fill="none" fill-rule="evenodd">
        <g id="Staking-Pools" transform="translate(-1340.000000, -124.000000)">
            <g id="INSUR" transform="translate(1340.000000, 124.000000)">
                <circle id="椭圆形" fill="#FFFFFF" cx="20" cy="20" r="20"></circle>
                <g id="编组" transform="translate(6.000000, 10.000000)">
                    <path d="M3.58651077,9.07070109 C3.89568,9.63364201 3.89568,10.3201628 3.58651077,10.883165 C3.68343385,11.1755414 3.87728,11.4867886 4.15395692,11.7622547 C4.43063385,12.0377208 4.74324923,12.2307799 5.03691077,12.3272175 C5.75752615,11.9350337 6.67949538,12.0425611 7.28958769,12.6499834 C7.89961846,13.2574057 8.00768,14.17534 7.61371077,14.8927405 C7.71063385,15.1851168 7.90448,15.4963641 8.18121846,15.7718915 C8.45789538,16.0473575 8.77051077,16.2403554 9.06417231,16.3368543 C9.62964923,16.0290381 10.3191262,16.0290381 10.8846031,16.3368543 C11.1782646,16.2403554 11.49088,16.0473575 11.7675569,15.7718915 C12.0442954,15.4963641 12.23808,15.1851168 12.3350646,14.8927405 C11.9410338,14.17534 12.0490954,13.2574057 12.6591877,12.6499834 C13.26928,12.0425611 14.1913108,11.9350337 14.9118646,12.3272175 C15.2054646,12.2307799 15.51808,12.0377208 15.7947569,11.7622547 C16.0714954,11.4867886 16.2653415,11.1755414 16.3622646,10.883165 C16.0531569,10.3201628 16.0531569,9.63364201 16.3622646,9.07070109 C16.2653415,8.77832473 16.0714954,8.46707746 15.7947569,8.19155011 C15.51808,7.91608403 15.2054646,7.72308621 14.9118646,7.62664858 C14.1913108,8.01883239 13.26928,7.91124376 12.6591877,7.30388271 C12.0490954,6.69646039 11.9410338,5.77852604 12.3350646,5.0611256 C12.23808,4.76868796 12.0442954,4.45750197 11.7675569,4.18197462 C11.49088,3.90650853 11.1782646,3.71344945 10.8846031,3.61701182 C10.3191262,3.92482801 9.62964923,3.92482801 9.06417231,3.61701182 C8.77051077,3.71344945 8.45789538,3.90650853 8.18121846,4.18197462 C7.90448,4.45750197 7.71063385,4.76868796 7.61371077,5.0611256 C8.00768,5.77852604 7.89961846,6.69646039 7.28958769,7.30388271 C6.67949538,7.91124376 5.75752615,8.01883239 5.03691077,7.62664858 C4.74324923,7.72308621 4.43063385,7.91608403 4.15395692,8.19155011 C3.87728,8.46707746 3.68343385,8.77832473 3.58651077,9.07070109 M2.83014154,8.31764201 C3.12380308,8.22114311 3.43641846,8.0281453 3.71309538,7.75267921 C3.98983385,7.47715186 4.18368,7.16596586 4.28054154,6.87352823 C3.88657231,6.15612779 3.99469538,5.23819344 4.60472615,4.63077112 C5.21481846,4.02341007 6.13678769,3.91582144 6.85734154,4.30800525 C7.15100308,4.21150635 7.46361846,4.0185698 7.74035692,3.74304245 C8.01703385,3.46757637 8.21088,3.1563291 8.30780308,2.86395274 C7.91383385,2.1465523 8.02189538,1.22855667 8.63198769,0.621195624 C9.37340308,-0.116975055 10.5753723,-0.116975055 11.3167877,0.621195624 C11.92688,1.22855667 12.0349415,2.1465523 11.6409723,2.86395274 C11.7378954,3.1563291 11.9317415,3.46757637 12.2084185,3.74304245 C12.4850954,4.0185698 12.7977108,4.21150635 13.0914338,4.30800525 C13.8119877,3.91582144 14.7339569,4.02341007 15.3440492,4.63077112 C15.95408,5.23819344 16.0621415,6.15612779 15.6682338,6.87352823 C15.7650954,7.16596586 15.9589415,7.47715186 16.2356185,7.75267921 C16.5122954,8.0281453 16.8249723,8.22114311 17.1186338,8.31764201 C17.8391877,7.92539694 18.7611569,8.03298556 19.3712492,8.64040788 C20.1126031,9.37851729 20.1126031,10.5753488 19.3712492,11.3134582 C18.7611569,11.9208805 17.8391877,12.0284691 17.1186338,11.6362241 C16.8249723,11.732723 16.5122954,11.9257208 16.2356185,12.2011869 C15.9589415,12.476653 15.7650954,12.7879002 15.6682338,13.0802766 C16.0621415,13.7977383 15.95408,14.7156726 15.3440492,15.3230337 C14.7339569,15.930456 13.8119877,16.0380446 13.0914338,15.6457996 C12.7977108,15.7422985 12.4850954,15.9352963 12.2084185,16.2108236 C11.9317415,16.4862897 11.7378954,16.797537 11.6409723,17.0899133 C12.0349415,17.8073138 11.92688,18.7252481 11.3167877,19.3326705 C10.5753723,20.0708411 9.37340308,20.0708411 8.63198769,19.3326705 C8.02189538,18.7252481 7.91383385,17.8073138 8.30780308,17.0899133 C8.21088,16.797537 8.01703385,16.4862897 7.74035692,16.2108236 C7.46361846,15.9352963 7.15100308,15.7422985 6.85734154,15.6457996 C6.13678769,16.0380446 5.21481846,15.930456 4.60472615,15.3230337 C3.99469538,14.7156726 3.88657231,13.7977383 4.28054154,13.0802766 C4.18368,12.7879002 3.98983385,12.476653 3.71309538,12.2011869 C3.43641846,11.9257208 3.12380308,11.732723 2.83014154,11.6362241 C2.10958769,12.0284691 1.18761846,11.9208805 0.577526154,11.3134582 C-0.163889231,10.5753488 -0.163889231,9.37851729 0.577526154,8.64040788 C1.18761846,8.03298556 2.10958769,7.92539694 2.83014154,8.31764201" id="Fill-16" fill="#75B943"></path>
                    <path d="M13.1053477,7.6080779 C12.8117477,7.70457681 12.4990708,7.89757462 12.2223938,8.1730407 C11.9456554,8.44850678 11.7518708,8.75975405 11.6549477,9.05213042 C11.9641169,9.6151326 11.9641169,10.3015921 11.6549477,10.8645943 C11.7518708,11.1569707 11.9456554,11.4682179 12.2223938,11.7437453 C12.5374708,12.0574433 12.8991938,12.2642267 13.2265169,12.3432639 C13.5537169,12.4223011 13.3188862,12.879614 13.1206708,13.0769619 C12.9223938,13.2743098 12.4630708,13.5081742 12.3836862,13.1823449 C12.3043015,12.8565155 12.0966092,12.4963755 11.7815323,12.1826775 C11.5048554,11.9071501 11.19224,11.7141523 10.8985785,11.6176534 C10.1780246,12.0098985 9.25599385,11.9023098 8.64596308,11.2948875 C7.90454769,10.5567781 7.90454769,9.36000788 8.64596308,8.6218372 C9.25599385,8.01441488 10.1780246,7.90682626 10.8985785,8.29907133 C11.19224,8.2026337 11.5048554,8.00957462 11.7815323,7.73410853 C12.0582092,7.45864245 12.2521169,7.14739519 12.3489785,6.85495755 C11.9550708,6.13761838 12.0630708,5.21962276 12.6732246,4.61226171 C13.2832554,4.00483939 14.2052246,3.89725077 14.9257785,4.28943457 C15.21944,4.19299694 15.5321169,3.99999912 15.8087938,3.72453304 C16.0854708,3.44900569 16.2793169,3.13775842 16.3761785,2.84538206 C15.9822708,2.12798162 16.0903323,1.21004726 16.7004246,0.602624945 C17.4417785,-0.135545733 18.6438092,-0.135545733 19.3852246,0.602624945 C19.9953169,1.21004726 20.1033785,2.12798162 19.7093477,2.84538206 C19.8063323,3.13775842 20.0001785,3.44900569 20.2768554,3.72453304 C20.5535323,3.99999912 20.8661477,4.19299694 21.1598708,4.28943457 C21.8804246,3.89725077 22.8023938,4.00483939 23.4124246,4.61226171 C24.0225169,5.21962276 24.1305785,6.13761838 23.7366708,6.85495755 C23.8335323,7.14739519 24.0273785,7.45864245 24.3040554,7.73410853 C24.5807938,8.00957462 24.8934092,8.2026337 25.1870708,8.29907133 C25.9076246,7.90682626 26.8296554,8.01441488 27.4396862,8.6218372 C28.18104,9.36000788 28.18104,10.5567781 27.4396862,11.2948875 C26.8296554,11.9023098 25.9076246,12.0098985 25.1870708,11.6176534 C24.8934092,11.7141523 24.5807938,11.9071501 24.3040554,12.1826775 C24.0273785,12.4581435 23.8335323,12.7693908 23.7366708,13.0617672 C24.1305785,13.7791676 24.0225169,14.697102 23.4124246,15.3045243 C22.8023938,15.9119466 21.8804246,16.0195352 21.1598708,15.6272902 C20.8661477,15.7237278 20.5535323,15.9167256 20.2768554,16.192253 C20.0001785,16.467719 19.8063323,16.7789663 19.7093477,17.0713427 C20.1033785,17.7888044 19.9953169,18.7066775 19.3852246,19.3141611 C18.6438092,20.0522705 17.4417785,20.0522705 16.7004246,19.3141611 C16.0903323,18.7066775 15.9822708,17.7888044 16.3761785,17.0713427 C16.2793169,16.7789663 16.0854708,16.467719 15.8087938,16.192253 C15.4936554,15.8784937 15.1319938,15.6717103 14.8046708,15.5926731 C14.4774092,15.5136359 14.71224,15.0563842 14.9105169,14.8590363 C15.1087938,14.6616271 15.5680554,14.4278241 15.64744,14.7535921 C15.7268862,15.0794214 15.9345169,15.4395615 16.2496554,15.7533208 C16.5263323,16.0287869 16.8389477,16.2217847 17.1325477,16.3182836 C17.6980862,16.0104674 18.3875631,16.0104674 18.9529785,16.3182836 C19.2467015,16.2217847 19.5593169,16.0287869 19.8359938,15.7533208 C20.1126708,15.4778547 20.3065785,15.1666074 20.40344,14.8742311 C20.0094708,14.1567694 20.1175323,13.238835 20.7276246,12.631474 C21.3376554,12.0240516 22.2596862,11.916463 22.9803015,12.3087081 C23.2739015,12.2122092 23.5865169,12.0192114 23.8631938,11.7437453 C24.1399323,11.4682179 24.3337785,11.1569707 24.4307015,10.8645943 C24.1215323,10.3015921 24.1215323,9.6151326 24.4307015,9.05213042 C24.3337785,8.75975405 24.1399323,8.44850678 23.8631938,8.1730407 C23.5865169,7.89757462 23.2739015,7.70457681 22.9803015,7.6080779 C22.2596862,8.00026171 21.3376554,7.89273435 20.7276246,7.28531204 C20.1175323,6.67788972 20.0094708,5.75995536 20.40344,5.04255492 C20.3065785,4.75011729 20.1126708,4.43893129 19.8359938,4.16340394 C19.5593169,3.88793786 19.2467015,3.69494004 18.9529785,3.59844114 C18.3875631,3.90625733 17.6980862,3.90625733 17.1325477,3.59844114 C16.8389477,3.69494004 16.5263323,3.88793786 16.2496554,4.16340394 C15.9729785,4.43893129 15.7790708,4.75011729 15.6821477,5.04255492 C16.0761169,5.75995536 15.9681169,6.67788972 15.3579631,7.28531204 C14.7478708,7.89273435 13.8259631,8.00026171 13.1053477,7.6080779" id="Fill-18" fill="#008845"></path>
                    <path d="M13.9956123,15.8678941 C15.0440431,15.8678941 15.8940738,15.0216446 15.8940738,13.9777409 C15.8940738,12.9338372 15.0440431,12.0875877 13.9956123,12.0875877 C12.94712,12.0875877 12.0970892,12.9338372 12.0970892,13.9777409 C12.0970892,15.0216446 12.94712,15.8678941 13.9956123,15.8678941" id="Fill-20" fill="#75B943"></path>
                </g>
            </g>
        </g>
    </g>
</svg>