<?xml version="1.0" encoding="utf-8"?>
<!-- Generator: Adobe Illustrator 22.0.0, SVG Export Plug-In . SVG Version: 6.00 Build 0)  -->
<svg version="1.1" id="Слой_1" xmlns="http://www.w3.org/2000/svg" xmlns:xlink="http://www.w3.org/1999/xlink" x="0px" y="0px"
	 viewBox="0 0 725.7 725.7" style="enable-background:new 0 0 725.7 725.7;" xml:space="preserve">
<style type="text/css">
	.st0{fill:url(#SVGID_1_);}
	.st1{fill:url(#SVGID_2_);}
	.st2{fill:url(#SVGID_3_);}
</style>
<g>
	<linearGradient id="SVGID_1_" gradientUnits="userSpaceOnUse" x1="72.0269" y1="520.6749" x2="213.9599" y2="274.8399">
		<stop  offset="0" style="stop-color:#7BD8D7"/>
		<stop  offset="1" style="stop-color:#375FA2"/>
	</linearGradient>
	<path class="st0" d="M38.7,227.2c18.7-19.9,49.2-25.1,73.8-10.9l253.8,146.5L112.6,509.4c-24.6,14.2-55.2,9-73.8-10.9
		C38.7,498.2,38.9,209.4,38.7,227.2z"/>
	<linearGradient id="SVGID_2_" gradientUnits="userSpaceOnUse" x1="259.0789" y1="48.7287" x2="421.9139" y2="330.7671">
		<stop  offset="0" style="stop-color:#8BF6DE"/>
		<stop  offset="1" style="stop-color:#5393FB"/>
	</linearGradient>
	<path class="st1" d="M642.2,152.2c6.8,25.6-3.7,53.6-27.8,67.4L366.4,362.8L112.6,216.3c-24.6-14.2-55.2-9-73.8,10.9
		c0.3-31.9,17.4-61.2,45-77.2L316.6,15.5c27.9-16.1,62.2-16.1,90.1,0L642.2,152.2z"/>
	<linearGradient id="SVGID_3_" gradientUnits="userSpaceOnUse" x1="727.9859" y1="264.5732" x2="142.531" y2="674.5131">
		<stop  offset="0" style="stop-color:#8DFBC6"/>
		<stop  offset="1" style="stop-color:#5393FB"/>
	</linearGradient>
	<path class="st2" d="M112.6,509.4l501.9-289.8c24-13.9,33.4-41.8,26.6-67.4c26.3,16.4,40.9,45.3,40.9,76.5v269
		c0,32.2-15.7,62-43.6,78.1L406.2,710.2c-27.9,16.1-61.9,16.1-89.8,0L83.6,575.7c-27.6-16-44.7-45.3-45-77.2
		C57.3,518.4,87.9,523.6,112.6,509.4z"/>
</g>
</svg>
