<svg xmlns="http://www.w3.org/2000/svg" xmlns:xlink="http://www.w3.org/1999/xlink" viewBox="0 0 510 510"><defs><style>.cls-1,.cls-3{fill:#fff;}.cls-2{fill:url(#linear-gradient);}.cls-3{stroke:#fff;stroke-linejoin:round;stroke-width:3px;}</style><linearGradient id="linear-gradient" x1="136.46" y1="49.68" x2="373.54" y2="460.32" gradientUnits="userSpaceOnUse"><stop offset="0" stop-color="#0095d7"/><stop offset="1" stop-color="#0072aa"/></linearGradient></defs><g id="Layer_2" data-name="Layer 2"><g id="Layer_1-2" data-name="Layer 1"><circle class="cls-1" cx="255" cy="255" r="255"/><circle id="Ellipse_256" data-name="Ellipse 256" class="cls-2" cx="255" cy="255" r="237.05"/><path class="cls-3" d="M150.93,334.45V175.73h30.89v75.44l66.72-75.67h34L221.67,246l64.7,88.43h-34.7L202.2,265.72,181.82,287v47.46Z"/><path class="cls-3" d="M367.64,243.11a59.27,59.27,0,0,0-24.4,5.26,30.77,30.77,0,0,0-15.45,15.12v71h-30V217.14h27.54v25.08a53.34,53.34,0,0,1,7.38-10.86,57.38,57.38,0,0,1,9.18-8.4,43,43,0,0,1,10-5.48,27.49,27.49,0,0,1,9.74-1.9h3.7a11.94,11.94,0,0,1,2.35.22Z"/></g></g></svg>