<?xml version="1.0" encoding="UTF-8"?>
<svg width="200px" height="200px" viewBox="0 0 200 200" version="1.1" xmlns="http://www.w3.org/2000/svg" xmlns:xlink="http://www.w3.org/1999/xlink">
    <!-- Generator: Sketch 49.1 (51147) - http://www.bohemiancoding.com/sketch -->
    <title>Artboard</title>
    <desc>Created with Sketch.</desc>
    <defs>
        <linearGradient x1="105.296421%" y1="39.4094761%" x2="0%" y2="60.5882494%" id="linearGradient-1">
            <stop stop-color="#F40083" offset="0%"></stop>
            <stop stop-color="#FC7A23" offset="100%"></stop>
        </linearGradient>
    </defs>
    <g id="Artboard" stroke="none" stroke-width="1" fill="none" fill-rule="evenodd">
        <path d="M1.85897719,119.577565 C9.40132498,159.359891 40.6413036,190.59987 80.4224529,198.141041 C150.876522,211.497502 211.497657,150.875191 198.141196,80.4222979 C190.600025,40.6423251 159.363575,9.40469945 119.583603,1.85999873 C112.953019,0.602352529 106.403612,0 100.000087,0 C38.3671875,-0.00235293957 -10.2410145,55.752903 1.85897719,119.577565 M70.4530479,84.2446482 L70.4530479,71.9846566 C70.4530479,70.3505401 71.7789294,69.0246587 73.4142224,69.0246587 L93.8177378,69.0246587 L93.8177378,50.8211417 C93.8177378,48.9564371 95.3318544,47.4446734 97.1953825,47.4446734 L107.495376,47.4446734 C109.34361,47.4446734 110.855373,48.9564371 110.855373,50.8058476 L110.855373,69.0246587 L131.170653,69.0246587 C132.937711,69.0246587 134.383592,70.47054 134.383592,72.2375976 L134.383592,83.9728837 C134.383592,85.7470002 132.931829,87.1975874 131.158889,87.1975874 L110.855373,87.1975874 L110.855373,102.126989 L131.243595,102.126989 C132.971829,102.126989 134.383592,103.538753 134.383592,105.26581 L134.383592,117.104626 C134.383592,118.868154 132.953005,120.298741 131.189477,120.298741 L110.882432,120.298741 C110.882432,141.318727 94.1424435,158.768127 73.3377518,160.106949 C71.7777529,160.205773 70.4530479,158.977538 70.4530479,157.41401 L70.4530479,146.462253 C70.4530479,144.702254 71.773047,143.23402 73.5201046,143.01402 C84.7918616,141.594021 93.7883261,132.452851 93.7883261,120.298741 L73.3918694,120.298741 C71.7695176,120.298741 70.4530479,118.983448 70.4530479,117.35992 L70.4530479,105.072869 C70.4530479,103.445812 71.773047,102.126989 73.4001047,102.126989 L93.8177378,102.126989 L93.8177378,87.1975874 L73.4059871,87.1975874 C71.7753999,87.1975874 70.4530479,85.8752354 70.4530479,84.2446482" id="Clip-2" fill="url(#linearGradient-1)"></path>
    </g>
</svg>