<svg width="503" height="503" fill="none" xmlns="http://www.w3.org/2000/svg"><path fill="#fff" d="M227.958 175.908h68.492v51.188h-68.492zM356.29 240.074h46.142v23.792H356.29z"/><mask id="a" maskUnits="userSpaceOnUse" x="81.155" y="72.497" width="341" height="358" fill="#000"><path fill="#fff" d="M81.155 72.497h341v358h-341z"/><path fill-rule="evenodd" clip-rule="evenodd" d="M189.538 73.665c-11.748 1.368-23.166 8.422-39.497 24.406-4.113 4.025-5.379 5.193-12.567 11.59a689.3 689.3 0 00-5.101 4.578c-.768.703-3.114 2.811-5.214 4.684a1737.514 1737.514 0 00-6.179 5.537c-1.298 1.17-4.557 4.093-7.241 6.494-2.686 2.4-6.805 6.09-9.153 8.198-2.349 2.107-6.33 5.674-8.846 7.925-2.515 2.253-5.022 4.661-5.57 5.352-15.518 19.562-8.472 45.681 20.875 77.392l3.712 4.009-.778 5.254c-16.532 111.592 40.813 177.67 163.923 188.887 10.97.999 31.832 1.908 31.832 1.386 0-.063-.466-.807-1.036-1.65-15.91-23.58-18.552-47.945-7.77-71.664l.713-1.569.587.385c34.827 22.829 52.559 22.782 65.938-.175.748-1.286.563-1.379 2.677 1.358 9.417 12.193 19.934 14.589 27.109 6.178 8.324-9.758 11.532-31.237 8.962-59.989l-.344-3.851 1.699-2.536c6.724-10.035 10.857-22.126 12.198-35.687l.247-2.49-1.421-2.726c-4.709-9.031-10.892-17.384-21.275-28.739-3.346-3.659-20.747-20.914-27.233-27.006-6.236-5.855-5.88-5.339-5.172-7.499 1.962-5.993 2.095-13.838.424-24.972-.872-5.803-1.437-8.358-2.755-12.456-.754-2.342-2.191-7.262-3.194-10.931-6.817-24.945-11.54-33.837-20.317-38.248-4.32-2.172-11.241-2.456-16.334-.67l-.821.288-4.258-4.179c-16.59-16.277-31.762-21.25-48.047-15.746l-1.883.636-3.141-1.31c-17.861-7.451-38.57-9.45-50.307-4.856l-1.718.673-.79-.47c-7.477-4.45-15.989-6.6-22.934-5.791zm4.898 13.66c5.393.681 12.432 3.328 18.218 6.85l1.538.937 2.153-.91c13.691-5.782 30.613-4.805 50.147 2.897l2.855 1.125 1.403-.264c3.75-.707 5.003-.883 7.58-1.067 22.191-1.585 40.69 13.763 59.582 49.436 4.871 9.199 4.752 10-2.33 15.665-5.105 4.083-6.397 7.474-4.806 12.609l.495 1.597 7.383 7.36c4.062 4.048 18.139 18.026 31.285 31.063 14.032 13.915 23.9 23.859 23.9 24.084 0 1.305-3.164 2.21-11.498 3.286-20.794 2.685-29.111 6.732-32.278 15.707-1.033 2.927 5.549 11.06 15.883 19.627 16.474 13.656 18.124 17.621 13.245 31.845-8.289 24.165-27.848 50.133-38.134 50.628-9.57.461-17.497-3.075-33.391-14.896-11.855-8.818-16.06-10.922-25.021-12.524-10.995-1.965-20.387-1.79-39.45.737-11.185 1.482-11.365 1.498-17.034 1.496-8.53-.002-14.531-1.754-18.469-5.39-1.036-.956-.869-.351.895 3.235 6.018 12.23 12.626 17.741 24.316 20.281l2.697.587-1.061 1.184c-3.647 4.071-5.043 8.17-4.794 14.067.113 2.684.373 4.471 1.961 13.52 1.589 9.059.266 17.779-3.427 22.571-.748.972-17.774-4.128-27.615-8.273-54.09-22.776-81.056-76.568-73.292-146.204.379-3.397.722-5.96.853-6.345.058-.175.819.34 2.064 1.398 16.138 13.7 36.524 26.158 45.914 28.057 10.311 2.085 15.992-2.94 22.872-20.236 6.808-17.116 7.616-21.472 10.8-58.128 2.627-30.252 3.86-38.284 7.69-50.127 3.926-12.134 3.894-18.508-.103-20.972-2.653-1.638-8.779-.54-11.057 1.982-4.126 4.569-6.617 19.972-8.457 52.297-1.02 17.908-1.598 24.071-3.209 34.174-4.833 30.298-11.964 45.74-19.02 41.188-.534-.345-2.061-1.459-3.392-2.478-4.906-3.753-10.586-7.68-24.415-16.881-21.445-14.266-26.591-18.139-33.438-25.16-10.629-10.902-15.164-22.521-13.828-35.422 1.338-12.905 7.252-20.91 28.528-38.613 11.675-9.713 13.599-11.329 16.608-13.944 9-7.819 19.636-18.034 26.515-25.464 6.688-7.223 12.578-9.404 22.139-8.193zm79.481 18.725c2.351 3.212 4.16 4.973 14.297 13.919 7.019 6.195 20.326 19.061 20.94 20.247 1.056 2.041.718 5.305-1.131 10.965-2.082 6.363-1.652 7.06 2.948 4.783 6.213-3.075 8.993-9.24 6.67-14.798-3.798-9.095-25.636-27.139-42.508-35.123a80.572 80.572 0 01-1.7-.823c-.116-.065.102.309.484.83zm60.119 15.695c12.535 12.809 20.986 29.748 22.869 45.831.941 8.037-.759 10.071-5.119 6.128l-1.067-.963.164-3.061c.354-6.681-.391-12.465-2.102-16.32-2.387-5.379-13.921-27.706-17.266-33.425-.861-1.473-.29-1.063 2.521 1.81zm-53.898 28.071c-7.161 4.66-18.952 11.072-26.403 14.36-1.932.852-3.553 1.583-3.602 1.624-.614.51 3.763.972 8.18.863 6.044-.148 10.959-1.216 18.71-4.063 2.604-.957 2.44-.971 3.295.288 3.85 5.678 11.031 7.883 12.977 3.985 2.915-5.836-1.559-14.837-9.012-18.135-1.574-.695-1.317-.761-4.145 1.078zm-11.604 20.301c-5.774 1.02-16.064 4.599-25.445 8.847a778.111 778.111 0 01-3.869 1.742l-1.207.538.119 1.205c.294 3.005 2.377 3.282 10.569 1.41 3.676-.84 3.529-.82 3.626-.499.05.161.251 1.012.451 1.889 1.774 7.852 7.236 12.776 14.169 12.776 7.038 0 13.021-4.997 14.454-12.073.208-1.031.417-1.86.463-1.842 2.824 1.042 5.345 1.309 5.849.619.823-1.124.132-4.015-1.553-6.495-4.618-6.799-10.295-9.413-17.626-8.117zm4.471 7.162c1.959.958 4.152 3.233 4.152 4.309 0 3.949-2.819 8.36-6.506 10.182-5.571 2.753-10.741-1.316-10.741-8.454v-1.44l1.33-1.194c4.468-4.01 8.271-5.11 11.765-3.403zm-2.992 3.798c-.356.156-.919.603-1.248.994l-.598.711.574.458c1.492 1.189 1.832 2.962.847 4.412-.617.907-.55 1.139.454 1.558 1.729.723 3.516-.032 4.432-1.871 1.767-3.546-1.184-7.689-4.461-6.262zm128.837 67.966c.757 1.594 1.377 2.935 1.377 2.981 0 .046-2.376.083-5.28.083-11.539 0-22.59 1.596-31.65 4.568-2.752.904-2.961.886-2.033-.173 3.561-4.055 14.198-7.453 29.701-9.49 4.208-.552 6.124-.806 6.341-.84.092-.015.787 1.277 1.544 2.871zm12.047 10.011c3.226.555 3.04.377 2.868 2.729-.328 4.472-1.698 8.005-4.041 10.431l-1.377 1.425-.707-.372c-1.148-.606-3.411-.525-4.904.172-4.18 1.954-6.144 7.162-4.424 11.736l.464 1.237-.818 1.031c-1.936 2.44-6.726 8.212-6.854 8.259-.128.046-1.358-1.665-5.159-7.177a202.07 202.07 0 01-1.758-2.58l-.356-.549 1.056-.685c3.977-2.577 4.95-7.479 2.042-10.301-2.139-2.078-5.859-2.087-10.16-.024l-2.059.988-1.88-1.016c-5.422-2.927-6.624-4.277-6.826-7.675l-.119-1.977.829-.234c1.363-.384 10.982-2.49 15.094-3.302 12.301-2.433 22.8-3.197 29.089-2.116zm-67.475 31.499c-1.004.703-1.469 2.833-.871 3.994 1.578 3.062 4.941 1.224 4.191-2.291-.361-1.696-2.074-2.575-3.32-1.703zm11.88 5.383c-1.651 1.65-.456 5.524 1.46 4.731 1.531-.635 1.791-3.619.427-4.89-.649-.604-1.168-.561-1.887.159zm44.285 2.536c-.001.555-.091 2.065-.198 3.353a245.965 245.965 0 00-.34 4.721l-.144 2.379-.735-.121c-.88-.141-1.639.218-1.965.933-.673 1.476.199 3.267 1.592 3.267.883 0 .865-.274.409 6.225-.174 2.49-.557 8.169-.851 12.619-.701 10.633-1.174 13.188-3.147 17.002-4.824 9.324-13.387 4.598-17.005-9.384l-.663-2.564 1.111-1.463c3.084-4.056 6.508-13.331 9.986-27.043l1.438-5.674 5.098-2.627c5.925-3.054 5.415-2.902 5.414-1.623zm-35.275.79c-.849.368-1.134.896-1.134 2.107 0 2.502 2.863 3.175 3.63.854.626-1.899-.863-3.666-2.496-2.961zm-26.579.533c-2.101.88-2.232 3.825-.211 4.785 2.029.963 4.363-.266 4.363-2.297 0-1.951-2.234-3.291-4.152-2.488zm9.308 4.154c-.793.668-1.046 1.678-.688 2.759.764 2.317 3.624 1.594 3.624-.916 0-1.96-1.602-2.966-2.936-1.843zm12.106 4.292c-.643.819-.603 2.277.082 2.963.686.686 1.459.672 2.017-.039.969-1.231.29-3.485-1.049-3.485-.403 0-.757.189-1.05.561zm-25.829 2.316c-1.638.923-1.536 3.226.18 4.04 2.494 1.184 4.887-1.54 3.105-3.534-.726-.812-2.309-1.056-3.285-.506zm59.074-.053c-.656.789-.441 2.56.325 2.672.312.046.494-.083.603-.426.458-1.434-.228-3.091-.928-2.246zm-48.261 2.946c-1.93 1.694-1.039 5.303 1.311 5.303 2.337 0 3.366-3.349 1.579-5.136-1.054-1.053-1.83-1.099-2.89-.167zm12.075 2.115c-2.314.93-1.425 6.798.904 5.96 1.691-.609 2.022-4.082.531-5.574-.655-.655-.72-.673-1.435-.386zm38.495 2.539c-.797.797-.847 2.611-.093 3.443.719.794 1.561.136 1.724-1.348.189-1.73-.768-2.959-1.631-2.095zm-65.484 2.022c-1.681.617-2.274 2.025-1.349 3.202 1.911 2.428 7.065.738 5.81-1.905-.598-1.26-2.81-1.902-4.461-1.297zm12.045 3.446c-.979 1.245-.289 3.485 1.074 3.485.99 0 1.679-.831 1.679-2.023 0-1.798-1.754-2.731-2.753-1.462zm47.472.286c-1.124 1.124-.658 4.263.634 4.263.872 0 1.549-1.869 1.192-3.292-.147-.585-.837-1.392-1.192-1.392-.118 0-.403.19-.634.421zm-38.871.863c-.838.876-1.01 3.109-.323 4.204.915 1.458 2.425 1.338 3.197-.255 1.36-2.809-.938-5.968-2.874-3.949zm44.115 6.983c-.415.46-.465 1.729-.085 2.211 1.044 1.327 2.853-.279 2.044-1.816-.464-.88-1.357-1.06-1.959-.395zm-142.052 23.137c3.161.171 7.137.368 8.835.437 4.557.182 4.239-.171 2.762 3.075-4.622 10.166-5.318 17.616-2.846 30.421 2.198 11.39.453 15.259-8.671 19.217l-1.889.818-4.1-.528c-2.255-.292-5.216-.721-6.582-.955-1.366-.232-2.587-.423-2.715-.423-.469 0-.213-.424.46-.765 6.613-3.343 8.5-11.597 6.689-29.257-1.092-10.639-1.165-16.202-.265-20.077.567-2.445.631-2.537 1.667-2.398.498.067 3.493.262 6.655.435z"/></mask><path fill-rule="evenodd" clip-rule="evenodd" d="M189.538 73.665c-11.748 1.368-23.166 8.422-39.497 24.406-4.113 4.025-5.379 5.193-12.567 11.59a689.3 689.3 0 00-5.101 4.578c-.768.703-3.114 2.811-5.214 4.684a1737.514 1737.514 0 00-6.179 5.537c-1.298 1.17-4.557 4.093-7.241 6.494-2.686 2.4-6.805 6.09-9.153 8.198-2.349 2.107-6.33 5.674-8.846 7.925-2.515 2.253-5.022 4.661-5.57 5.352-15.518 19.562-8.472 45.681 20.875 77.392l3.712 4.009-.778 5.254c-16.532 111.592 40.813 177.67 163.923 188.887 10.97.999 31.832 1.908 31.832 1.386 0-.063-.466-.807-1.036-1.65-15.91-23.58-18.552-47.945-7.77-71.664l.713-1.569.587.385c34.827 22.829 52.559 22.782 65.938-.175.748-1.286.563-1.379 2.677 1.358 9.417 12.193 19.934 14.589 27.109 6.178 8.324-9.758 11.532-31.237 8.962-59.989l-.344-3.851 1.699-2.536c6.724-10.035 10.857-22.126 12.198-35.687l.247-2.49-1.421-2.726c-4.709-9.031-10.892-17.384-21.275-28.739-3.346-3.659-20.747-20.914-27.233-27.006-6.236-5.855-5.88-5.339-5.172-7.499 1.962-5.993 2.095-13.838.424-24.972-.872-5.803-1.437-8.358-2.755-12.456-.754-2.342-2.191-7.262-3.194-10.931-6.817-24.945-11.54-33.837-20.317-38.248-4.32-2.172-11.241-2.456-16.334-.67l-.821.288-4.258-4.179c-16.59-16.277-31.762-21.25-48.047-15.746l-1.883.636-3.141-1.31c-17.861-7.451-38.57-9.45-50.307-4.856l-1.718.673-.79-.47c-7.477-4.45-15.989-6.6-22.934-5.791zm4.898 13.66c5.393.681 12.432 3.328 18.218 6.85l1.538.937 2.153-.91c13.691-5.782 30.613-4.805 50.147 2.897l2.855 1.125 1.403-.264c3.75-.707 5.003-.883 7.58-1.067 22.191-1.585 40.69 13.763 59.582 49.436 4.871 9.199 4.752 10-2.33 15.665-5.105 4.083-6.397 7.474-4.806 12.609l.495 1.597 7.383 7.36c4.062 4.048 18.139 18.026 31.285 31.063 14.032 13.915 23.9 23.859 23.9 24.084 0 1.305-3.164 2.21-11.498 3.286-20.794 2.685-29.111 6.732-32.278 15.707-1.033 2.927 5.549 11.06 15.883 19.627 16.474 13.656 18.124 17.621 13.245 31.845-8.289 24.165-27.848 50.133-38.134 50.628-9.57.461-17.497-3.075-33.391-14.896-11.855-8.818-16.06-10.922-25.021-12.524-10.995-1.965-20.387-1.79-39.45.737-11.185 1.482-11.365 1.498-17.034 1.496-8.53-.002-14.531-1.754-18.469-5.39-1.036-.956-.869-.351.895 3.235 6.018 12.23 12.626 17.741 24.316 20.281l2.697.587-1.061 1.184c-3.647 4.071-5.043 8.17-4.794 14.067.113 2.684.373 4.471 1.961 13.52 1.589 9.059.266 17.779-3.427 22.571-.748.972-17.774-4.128-27.615-8.273-54.09-22.776-81.056-76.568-73.292-146.204.379-3.397.722-5.96.853-6.345.058-.175.819.34 2.064 1.398 16.138 13.7 36.524 26.158 45.914 28.057 10.311 2.085 15.992-2.94 22.872-20.236 6.808-17.116 7.616-21.472 10.8-58.128 2.627-30.252 3.86-38.284 7.69-50.127 3.926-12.134 3.894-18.508-.103-20.972-2.653-1.638-8.779-.54-11.057 1.982-4.126 4.569-6.617 19.972-8.457 52.297-1.02 17.908-1.598 24.071-3.209 34.174-4.833 30.298-11.964 45.74-19.02 41.188-.534-.345-2.061-1.459-3.392-2.478-4.906-3.753-10.586-7.68-24.415-16.881-21.445-14.266-26.591-18.139-33.438-25.16-10.629-10.902-15.164-22.521-13.828-35.422 1.338-12.905 7.252-20.91 28.528-38.613 11.675-9.713 13.599-11.329 16.608-13.944 9-7.819 19.636-18.034 26.515-25.464 6.688-7.223 12.578-9.404 22.139-8.193zm79.481 18.725c2.351 3.212 4.16 4.973 14.297 13.919 7.019 6.195 20.326 19.061 20.94 20.247 1.056 2.041.718 5.305-1.131 10.965-2.082 6.363-1.652 7.06 2.948 4.783 6.213-3.075 8.993-9.24 6.67-14.798-3.798-9.095-25.636-27.139-42.508-35.123a80.572 80.572 0 01-1.7-.823c-.116-.065.102.309.484.83zm60.119 15.695c12.535 12.809 20.986 29.748 22.869 45.831.941 8.037-.759 10.071-5.119 6.128l-1.067-.963.164-3.061c.354-6.681-.391-12.465-2.102-16.32-2.387-5.379-13.921-27.706-17.266-33.425-.861-1.473-.29-1.063 2.521 1.81zm-53.898 28.071c-7.161 4.66-18.952 11.072-26.403 14.36-1.932.852-3.553 1.583-3.602 1.624-.614.51 3.763.972 8.18.863 6.044-.148 10.959-1.216 18.71-4.063 2.604-.957 2.44-.971 3.295.288 3.85 5.678 11.031 7.883 12.977 3.985 2.915-5.836-1.559-14.837-9.012-18.135-1.574-.695-1.317-.761-4.145 1.078zm-11.604 20.301c-5.774 1.02-16.064 4.599-25.445 8.847a778.111 778.111 0 01-3.869 1.742l-1.207.538.119 1.205c.294 3.005 2.377 3.282 10.569 1.41 3.676-.84 3.529-.82 3.626-.499.05.161.251 1.012.451 1.889 1.774 7.852 7.236 12.776 14.169 12.776 7.038 0 13.021-4.997 14.454-12.073.208-1.031.417-1.86.463-1.842 2.824 1.042 5.345 1.309 5.849.619.823-1.124.132-4.015-1.553-6.495-4.618-6.799-10.295-9.413-17.626-8.117zm4.471 7.162c1.959.958 4.152 3.233 4.152 4.309 0 3.949-2.819 8.36-6.506 10.182-5.571 2.753-10.741-1.316-10.741-8.454v-1.44l1.33-1.194c4.468-4.01 8.271-5.11 11.765-3.403zm-2.992 3.798c-.356.156-.919.603-1.248.994l-.598.711.574.458c1.492 1.189 1.832 2.962.847 4.412-.617.907-.55 1.139.454 1.558 1.729.723 3.516-.032 4.432-1.871 1.767-3.546-1.184-7.689-4.461-6.262zm128.837 67.966c.757 1.594 1.377 2.935 1.377 2.981 0 .046-2.376.083-5.28.083-11.539 0-22.59 1.596-31.65 4.568-2.752.904-2.961.886-2.033-.173 3.561-4.055 14.198-7.453 29.701-9.49 4.208-.552 6.124-.806 6.341-.84.092-.015.787 1.277 1.544 2.871zm12.047 10.011c3.226.555 3.04.377 2.868 2.729-.328 4.472-1.698 8.005-4.041 10.431l-1.377 1.425-.707-.372c-1.148-.606-3.411-.525-4.904.172-4.18 1.954-6.144 7.162-4.424 11.736l.464 1.237-.818 1.031c-1.936 2.44-6.726 8.212-6.854 8.259-.128.046-1.358-1.665-5.159-7.177a202.07 202.07 0 01-1.758-2.58l-.356-.549 1.056-.685c3.977-2.577 4.95-7.479 2.042-10.301-2.139-2.078-5.859-2.087-10.16-.024l-2.059.988-1.88-1.016c-5.422-2.927-6.624-4.277-6.826-7.675l-.119-1.977.829-.234c1.363-.384 10.982-2.49 15.094-3.302 12.301-2.433 22.8-3.197 29.089-2.116zm-67.475 31.499c-1.004.703-1.469 2.833-.871 3.994 1.578 3.062 4.941 1.224 4.191-2.291-.361-1.696-2.074-2.575-3.32-1.703zm11.88 5.383c-1.651 1.65-.456 5.524 1.46 4.731 1.531-.635 1.791-3.619.427-4.89-.649-.604-1.168-.561-1.887.159zm44.285 2.536c-.001.555-.091 2.065-.198 3.353a245.965 245.965 0 00-.34 4.721l-.144 2.379-.735-.121c-.88-.141-1.639.218-1.965.933-.673 1.476.199 3.267 1.592 3.267.883 0 .865-.274.409 6.225-.174 2.49-.557 8.169-.851 12.619-.701 10.633-1.174 13.188-3.147 17.002-4.824 9.324-13.387 4.598-17.005-9.384l-.663-2.564 1.111-1.463c3.084-4.056 6.508-13.331 9.986-27.043l1.438-5.674 5.098-2.627c5.925-3.054 5.415-2.902 5.414-1.623zm-35.275.79c-.849.368-1.134.896-1.134 2.107 0 2.502 2.863 3.175 3.63.854.626-1.899-.863-3.666-2.496-2.961zm-26.579.533c-2.101.88-2.232 3.825-.211 4.785 2.029.963 4.363-.266 4.363-2.297 0-1.951-2.234-3.291-4.152-2.488zm9.308 4.154c-.793.668-1.046 1.678-.688 2.759.764 2.317 3.624 1.594 3.624-.916 0-1.96-1.602-2.966-2.936-1.843zm12.106 4.292c-.643.819-.603 2.277.082 2.963.686.686 1.459.672 2.017-.039.969-1.231.29-3.485-1.049-3.485-.403 0-.757.189-1.05.561zm-25.829 2.316c-1.638.923-1.536 3.226.18 4.04 2.494 1.184 4.887-1.54 3.105-3.534-.726-.812-2.309-1.056-3.285-.506zm59.074-.053c-.656.789-.441 2.56.325 2.672.312.046.494-.083.603-.426.458-1.434-.228-3.091-.928-2.246zm-48.261 2.946c-1.93 1.694-1.039 5.303 1.311 5.303 2.337 0 3.366-3.349 1.579-5.136-1.054-1.053-1.83-1.099-2.89-.167zm12.075 2.115c-2.314.93-1.425 6.798.904 5.96 1.691-.609 2.022-4.082.531-5.574-.655-.655-.72-.673-1.435-.386zm38.495 2.539c-.797.797-.847 2.611-.093 3.443.719.794 1.561.136 1.724-1.348.189-1.73-.768-2.959-1.631-2.095zm-65.484 2.022c-1.681.617-2.274 2.025-1.349 3.202 1.911 2.428 7.065.738 5.81-1.905-.598-1.26-2.81-1.902-4.461-1.297zm12.045 3.446c-.979 1.245-.289 3.485 1.074 3.485.99 0 1.679-.831 1.679-2.023 0-1.798-1.754-2.731-2.753-1.462zm47.472.286c-1.124 1.124-.658 4.263.634 4.263.872 0 1.549-1.869 1.192-3.292-.147-.585-.837-1.392-1.192-1.392-.118 0-.403.19-.634.421zm-38.871.863c-.838.876-1.01 3.109-.323 4.204.915 1.458 2.425 1.338 3.197-.255 1.36-2.809-.938-5.968-2.874-3.949zm44.115 6.983c-.415.46-.465 1.729-.085 2.211 1.044 1.327 2.853-.279 2.044-1.816-.464-.88-1.357-1.06-1.959-.395zm-142.052 23.137c3.161.171 7.137.368 8.835.437 4.557.182 4.239-.171 2.762 3.075-4.622 10.166-5.318 17.616-2.846 30.421 2.198 11.39.453 15.259-8.671 19.217l-1.889.818-4.1-.528c-2.255-.292-5.216-.721-6.582-.955-1.366-.232-2.587-.423-2.715-.423-.469 0-.213-.424.46-.765 6.613-3.343 8.5-11.597 6.689-29.257-1.092-10.639-1.165-16.202-.265-20.077.567-2.445.631-2.537 1.667-2.398.498.067 3.493.262 6.655.435z" fill="#120D01"/><path clip-rule="evenodd" d="M189.538 73.665c-11.748 1.368-23.166 8.422-39.497 24.406-4.113 4.025-5.379 5.193-12.567 11.59a689.3 689.3 0 00-5.101 4.578c-.768.703-3.114 2.811-5.214 4.684a1737.514 1737.514 0 00-6.179 5.537c-1.298 1.17-4.557 4.093-7.241 6.494-2.686 2.4-6.805 6.09-9.153 8.198-2.349 2.107-6.33 5.674-8.846 7.925-2.515 2.253-5.022 4.661-5.57 5.352-15.518 19.562-8.472 45.681 20.875 77.392l3.712 4.009-.778 5.254c-16.532 111.592 40.813 177.67 163.923 188.887 10.97.999 31.832 1.908 31.832 1.386 0-.063-.466-.807-1.036-1.65-15.91-23.58-18.552-47.945-7.77-71.664l.713-1.569.587.385c34.827 22.829 52.559 22.782 65.938-.175.748-1.286.563-1.379 2.677 1.358 9.417 12.193 19.934 14.589 27.109 6.178 8.324-9.758 11.532-31.237 8.962-59.989l-.344-3.851 1.699-2.536c6.724-10.035 10.857-22.126 12.198-35.687l.247-2.49-1.421-2.726c-4.709-9.031-10.892-17.384-21.275-28.739-3.346-3.659-20.747-20.914-27.233-27.006-6.236-5.855-5.88-5.339-5.172-7.499 1.962-5.993 2.095-13.838.424-24.972-.872-5.803-1.437-8.358-2.755-12.456-.754-2.342-2.191-7.262-3.194-10.931-6.817-24.945-11.54-33.837-20.317-38.248-4.32-2.172-11.241-2.456-16.334-.67l-.821.288-4.258-4.179c-16.59-16.277-31.762-21.25-48.047-15.746l-1.883.636-3.141-1.31c-17.861-7.451-38.57-9.45-50.307-4.856l-1.718.673-.79-.47c-7.477-4.45-15.989-6.6-22.934-5.791zm4.898 13.66c5.393.681 12.432 3.328 18.218 6.85l1.538.937 2.153-.91c13.691-5.782 30.613-4.805 50.147 2.897l2.855 1.125 1.403-.264c3.75-.707 5.003-.883 7.58-1.067 22.191-1.585 40.69 13.763 59.582 49.436 4.871 9.199 4.752 10-2.33 15.665-5.105 4.083-6.397 7.474-4.806 12.609l.495 1.597 7.383 7.36c4.062 4.048 18.139 18.026 31.285 31.063 14.032 13.915 23.9 23.859 23.9 24.084 0 1.305-3.164 2.21-11.498 3.286-20.794 2.685-29.111 6.732-32.278 15.707-1.033 2.927 5.549 11.06 15.883 19.627 16.474 13.656 18.124 17.621 13.245 31.845-8.289 24.165-27.848 50.133-38.134 50.628-9.57.461-17.497-3.075-33.391-14.896-11.855-8.818-16.06-10.922-25.021-12.524-10.995-1.965-20.387-1.79-39.45.737-11.185 1.482-11.365 1.498-17.034 1.496-8.53-.002-14.531-1.754-18.469-5.39-1.036-.956-.869-.351.895 3.235 6.018 12.23 12.626 17.741 24.316 20.281l2.697.587-1.061 1.184c-3.647 4.071-5.043 8.17-4.794 14.067.113 2.684.373 4.471 1.961 13.52 1.589 9.059.266 17.779-3.427 22.571-.748.972-17.774-4.128-27.615-8.273-54.09-22.776-81.056-76.568-73.292-146.204.379-3.397.722-5.96.853-6.345.058-.175.819.34 2.064 1.398 16.138 13.7 36.524 26.158 45.914 28.057 10.311 2.085 15.992-2.94 22.872-20.236 6.808-17.116 7.616-21.472 10.8-58.128 2.627-30.252 3.86-38.284 7.69-50.127 3.926-12.134 3.894-18.508-.103-20.972-2.653-1.638-8.779-.54-11.057 1.982-4.126 4.569-6.617 19.972-8.457 52.297-1.02 17.908-1.598 24.071-3.209 34.174-4.833 30.298-11.964 45.74-19.02 41.188-.534-.345-2.061-1.459-3.392-2.478-4.906-3.753-10.586-7.68-24.415-16.881-21.445-14.266-26.591-18.139-33.438-25.16-10.629-10.902-15.164-22.521-13.828-35.422 1.338-12.905 7.252-20.91 28.528-38.613 11.675-9.713 13.599-11.329 16.608-13.944 9-7.819 19.636-18.034 26.515-25.464 6.688-7.223 12.578-9.404 22.139-8.193zm79.481 18.725c2.351 3.212 4.16 4.973 14.297 13.919 7.019 6.195 20.326 19.061 20.94 20.247 1.056 2.041.718 5.305-1.131 10.965-2.082 6.363-1.652 7.06 2.948 4.783 6.213-3.075 8.993-9.24 6.67-14.798-3.798-9.095-25.636-27.139-42.508-35.123a80.572 80.572 0 01-1.7-.823c-.116-.065.102.309.484.83zm60.119 15.695c12.535 12.809 20.986 29.748 22.869 45.831.941 8.037-.759 10.071-5.119 6.128l-1.067-.963.164-3.061c.354-6.681-.391-12.465-2.102-16.32-2.387-5.379-13.921-27.706-17.266-33.425-.861-1.473-.29-1.063 2.521 1.81zm-53.898 28.071c-7.161 4.66-18.952 11.072-26.403 14.36-1.932.852-3.553 1.583-3.602 1.624-.614.51 3.763.972 8.18.863 6.044-.148 10.959-1.216 18.71-4.063 2.604-.957 2.44-.971 3.295.288 3.85 5.678 11.031 7.883 12.977 3.985 2.915-5.836-1.559-14.837-9.012-18.135-1.574-.695-1.317-.761-4.145 1.078zm-11.604 20.301c-5.774 1.02-16.064 4.599-25.445 8.847a778.111 778.111 0 01-3.869 1.742l-1.207.538.119 1.205c.294 3.005 2.377 3.282 10.569 1.41 3.676-.84 3.529-.82 3.626-.499.05.161.251 1.012.451 1.889 1.774 7.852 7.236 12.776 14.169 12.776 7.038 0 13.021-4.997 14.454-12.073.208-1.031.417-1.86.463-1.842 2.824 1.042 5.345 1.309 5.849.619.823-1.124.132-4.015-1.553-6.495-4.618-6.799-10.295-9.413-17.626-8.117zm4.471 7.162c1.959.958 4.152 3.233 4.152 4.309 0 3.949-2.819 8.36-6.506 10.182-5.571 2.753-10.741-1.316-10.741-8.454v-1.44l1.33-1.194c4.468-4.01 8.271-5.11 11.765-3.403zm-2.992 3.798c-.356.156-.919.603-1.248.994l-.598.711.574.458c1.492 1.189 1.832 2.962.847 4.412-.617.907-.55 1.139.454 1.558 1.729.723 3.516-.032 4.432-1.871 1.767-3.546-1.184-7.689-4.461-6.262zm128.837 67.966c.757 1.594 1.377 2.935 1.377 2.981 0 .046-2.376.083-5.28.083-11.539 0-22.59 1.596-31.65 4.568-2.752.904-2.961.886-2.033-.173 3.561-4.055 14.198-7.453 29.701-9.49 4.208-.552 6.124-.806 6.341-.84.092-.015.787 1.277 1.544 2.871zm12.047 10.011c3.226.555 3.04.377 2.868 2.729-.328 4.472-1.698 8.005-4.041 10.431l-1.377 1.425-.707-.372c-1.148-.606-3.411-.525-4.904.172-4.18 1.954-6.144 7.162-4.424 11.736l.464 1.237-.818 1.031c-1.936 2.44-6.726 8.212-6.854 8.259-.128.046-1.358-1.665-5.159-7.177a202.07 202.07 0 01-1.758-2.58l-.356-.549 1.056-.685c3.977-2.577 4.95-7.479 2.042-10.301-2.139-2.078-5.859-2.087-10.16-.024l-2.059.988-1.88-1.016c-5.422-2.927-6.624-4.277-6.826-7.675l-.119-1.977.829-.234c1.363-.384 10.982-2.49 15.094-3.302 12.301-2.433 22.8-3.197 29.089-2.116zm-67.475 31.499c-1.004.703-1.469 2.833-.871 3.994 1.578 3.062 4.941 1.224 4.191-2.291-.361-1.696-2.074-2.575-3.32-1.703zm11.88 5.383c-1.651 1.65-.456 5.524 1.46 4.731 1.531-.635 1.791-3.619.427-4.89-.649-.604-1.168-.561-1.887.159zm44.285 2.536c-.001.555-.091 2.065-.198 3.353a245.965 245.965 0 00-.34 4.721l-.144 2.379-.735-.121c-.88-.141-1.639.218-1.965.933-.673 1.476.199 3.267 1.592 3.267.883 0 .865-.274.409 6.225-.174 2.49-.557 8.169-.851 12.619-.701 10.633-1.174 13.188-3.147 17.002-4.824 9.324-13.387 4.598-17.005-9.384l-.663-2.564 1.111-1.463c3.084-4.056 6.508-13.331 9.986-27.043l1.438-5.674 5.098-2.627c5.925-3.054 5.415-2.902 5.414-1.623zm-35.275.79c-.849.368-1.134.896-1.134 2.107 0 2.502 2.863 3.175 3.63.854.626-1.899-.863-3.666-2.496-2.961zm-26.579.533c-2.101.88-2.232 3.825-.211 4.785 2.029.963 4.363-.266 4.363-2.297 0-1.951-2.234-3.291-4.152-2.488zm9.308 4.154c-.793.668-1.046 1.678-.688 2.759.764 2.317 3.624 1.594 3.624-.916 0-1.96-1.602-2.966-2.936-1.843zm12.106 4.292c-.643.819-.603 2.277.082 2.963.686.686 1.459.672 2.017-.039.969-1.231.29-3.485-1.049-3.485-.403 0-.757.189-1.05.561zm-25.829 2.316c-1.638.923-1.536 3.226.18 4.04 2.494 1.184 4.887-1.54 3.105-3.534-.726-.812-2.309-1.056-3.285-.506zm59.074-.053c-.656.789-.441 2.56.325 2.672.312.046.494-.083.603-.426.458-1.434-.228-3.091-.928-2.246zm-48.261 2.946c-1.93 1.694-1.039 5.303 1.311 5.303 2.337 0 3.366-3.349 1.579-5.136-1.054-1.053-1.83-1.099-2.89-.167zm12.075 2.115c-2.314.93-1.425 6.798.904 5.96 1.691-.609 2.022-4.082.531-5.574-.655-.655-.72-.673-1.435-.386zm38.495 2.539c-.797.797-.847 2.611-.093 3.443.719.794 1.561.136 1.724-1.348.189-1.73-.768-2.959-1.631-2.095zm-65.484 2.022c-1.681.617-2.274 2.025-1.349 3.202 1.911 2.428 7.065.738 5.81-1.905-.598-1.26-2.81-1.902-4.461-1.297zm12.045 3.446c-.979 1.245-.289 3.485 1.074 3.485.99 0 1.679-.831 1.679-2.023 0-1.798-1.754-2.731-2.753-1.462zm47.472.286c-1.124 1.124-.658 4.263.634 4.263.872 0 1.549-1.869 1.192-3.292-.147-.585-.837-1.392-1.192-1.392-.118 0-.403.19-.634.421zm-38.871.863c-.838.876-1.01 3.109-.323 4.204.915 1.458 2.425 1.338 3.197-.255 1.36-2.809-.938-5.968-2.874-3.949zm44.115 6.983c-.415.46-.465 1.729-.085 2.211 1.044 1.327 2.853-.279 2.044-1.816-.464-.88-1.357-1.06-1.959-.395zm-142.052 23.137c3.161.171 7.137.368 8.835.437 4.557.182 4.239-.171 2.762 3.075-4.622 10.166-5.318 17.616-2.846 30.421 2.198 11.39.453 15.259-8.671 19.217l-1.889.818-4.1-.528c-2.255-.292-5.216-.721-6.582-.955-1.366-.232-2.587-.423-2.715-.423-.469 0-.213-.424.46-.765 6.613-3.343 8.5-11.597 6.689-29.257-1.092-10.639-1.165-16.202-.265-20.077.567-2.445.631-2.537 1.667-2.398.498.067 3.493.262 6.655.435z" stroke="#120D01" stroke-width="1.442" mask="url(#a)"/><path fill-rule="evenodd" clip-rule="evenodd" d="M189.645 67.205c-14.159 1.737-26.015 8.73-43.088 25.417-2.592 2.535-7.158 6.795-10.143 9.468a6666.054 6666.054 0 00-12.98 11.637 2103.782 2103.782 0 01-4.161 3.733c-5.265 4.707-13.17 11.786-19.493 17.453-2.99 2.683-7.17 6.428-9.288 8.324-23.927 21.434-18.377 54.167 15.314 90.318 1.16 1.245 2.076 2.412 2.076 2.644 0 .229-.138 1.388-.306 2.573-11.285 79.492 12.933 136.342 71.849 168.66 4.485 2.462 5.33 2.882 11.817 5.901 26.636 12.391 61.113 19.884 101.777 22.12 3.762.207 28.839.628 29.033.489.075-.054-2-3.088-5.149-7.534-13.995-19.745-18.707-36.932-15.045-54.856.72-3.52 2.461-9.446 2.775-9.446.114 0 2.003 1.064 4.198 2.364 27.152 16.087 46.096 15.712 59.824-1.186l.858-1.058 1.368 1.321c6.525 6.299 14.052 9.128 20.643 7.76 16.982-3.529 25.192-29.291 21.978-68.976l-.349-4.307 1.288-1.974c3.214-4.927 5.899-10.629 8.032-17.051 2.691-8.108 3.641-12.785 4.375-21.578l.234-2.802-1.031-2.311c-5.771-12.932-18.592-28.658-40.727-49.956-11.304-10.875-11.568-11.128-12.344-11.807l-.737-.645.363-1.569c.771-3.342.894-4.766.889-10.192-.009-8.903-1.634-19.972-4.032-27.467-1.448-4.533-2.417-7.863-4.267-14.692-8.623-31.829-19.799-43.666-38.527-40.811l-2.12.324-2.408-2.274c-17.721-16.725-34.264-22.221-51.689-17.172l-1.791.52-2.396-.964c-17.036-6.846-37.702-9.011-50.676-5.308l-1.842.525-2.416-1.15c-7.225-3.44-15.742-5.193-21.686-4.465zm9.791 6.875c3.508.757 6.168 1.74 10.13 3.74l3.844 1.941 1.221-.49c11.712-4.708 32.115-2.806 50.691 4.725l2.962 1.201 2.679-.759c17.165-4.867 31.118-.108 47.829 16.316l3.842 3.775 2.013-.52c9.589-2.476 17.307.126 23.07 7.778 4.821 6.4 7.371 13.06 13.653 35.669.782 2.81 1.833 6.355 2.338 7.877 3.617 10.913 4.662 28.862 2.105 36.153-.295.845-.582 1.679-.636 1.854-.062.204.961 1.313 2.838 3.074 29.378 27.567 42.98 42.878 50.514 56.865 2.271 4.217 2.266 4.196 1.947 7.509-1.264 13.131-5.38 24.958-12.354 35.502l-1.409 2.128.35 3.833c3.539 38.759-4.116 65.026-18.959 65.046-5.672.008-12.08-4.181-17.662-11.544l-1.57-2.072-1.154 1.952c-12.851 21.748-32.195 21.716-64.659-.104-1.488-1-1.304-1.157-2.799 2.402-9.801 23.336-7.051 46.429 8.253 69.291.777 1.161 1.372 2.179 1.321 2.262-.171.277-15.704-.225-23.842-.77-128.633-8.615-189.769-76.481-171.912-190.841l.643-4.12-2.41-2.48c-28.408-29.237-37.209-56.696-24.339-75.94 2.201-3.291 2.81-3.935 8.73-9.244 3.044-2.732 6.349-5.702 7.346-6.603.995-.9 2.769-2.493 3.942-3.541a19797.5 19797.5 0 0015.225-13.634c13.894-12.45 16.366-14.661 19.584-17.518 1.113-.987 3.604-3.348 5.536-5.245 17.469-17.151 28.97-24.49 40.669-25.95 1.956-.244 8.456.056 10.43.482zm33.007 16.56c-5.969.416-6.65.712-2.578 1.121 8.986.902 22.175 4.693 36.506 10.491l4.226 1.71 1.523-.449c5.397-1.59 16.044-.88 22.194 1.482 5.779 2.219 12.8 8.073 22.515 18.771 16.089 17.722 18.914 26.634 10.776 34.006-6.484 5.873-7.805 11.937-4.164 19.121 1.611 3.18 8.18 9.813 24.511 24.751 3.392 3.103 6.596 6.039 7.119 6.522l.95.879-1.799.147c-29.832 2.427-39.206 11.227-38.66 36.294.417 19.128.418 19.587.036 22.581-2.181 17.132-9.802 21.246-48.342 26.089-29.05 3.651-36.664 6.196-39.902 13.334-2.263 4.994-1.553 11.237 2.117 18.609 1.426 2.864 4.79 7.918 5.22 7.844.11-.019 1.973-.238 4.14-.487 2.165-.248 5.759-.689 7.984-.977 18.104-2.356 28.515-2.134 41.413.883 2.177.508 6.729 2.556 8.731 3.927.292.2 1.01.628 1.597.951 1.5.826 5.391 3.599 12.719 9.063 15.974 11.913 28.515 15.311 36.253 9.822 6.45-4.575 16.157-16.727 21.979-27.513.347-.644 1.288-2.369 2.089-3.833 2.003-3.655 2.231-4.119 3.9-7.878 1.902-4.289 3.33-7.878 3.77-9.475 3.964-14.401 2.754-17.368-12.149-29.807-10.373-8.657-13.984-12.637-16.946-18.673l-.699-1.423.601-1.529c3.332-8.493 11.846-12.551 31.894-15.202 9.325-1.231 10.247-1.433 11.37-2.488.737-.693.72-.721-1.997-3.381-1.375-1.345-13.999-13.848-28.055-27.784a22088.669 22088.669 0 00-28.787-28.512l-3.229-3.174-.539-1.723c-1.772-5.662-.591-8.558 5.448-13.37 6.626-5.276 6.627-5.807.059-17.95-19.619-36.27-39.706-50.5-64.317-45.561l-2.574.516-1.684-.708c-11.579-4.873-25.689-7.683-35.219-7.018zm-64.741 9.812l-.733.799.798-.734c.742-.683.896-.863.733-.863-.035 0-.394.359-.798.798zm165.014 21.145a189.617 189.617 0 002.747 5.151c.955 1.727 2.104 3.884 2.554 4.791.449.908 1.491 2.896 2.313 4.419 9.75 18.036 10.806 21.142 10.766 31.666l-.019 5.265 1.025.86c4.208 3.522 5.681 1.176 4.463-7.115-2.421-16.489-10.331-32.004-23.017-45.141l-1.844-1.908 1.012 2.012zm-186.4-.865c-.189.305-3.51 3.138-9.583 8.172a1392.154 1392.154 0 00-7.636 6.372 185.729 185.729 0 01-3.654 3.024c-18.562 14.723-25.876 27.348-24.626 42.511 1.429 17.326 10.983 28.956 39.323 47.861 3.865 2.578 7.697 5.16 8.516 5.736.82.576 1.874 1.26 2.343 1.519a26.39 26.39 0 011.809 1.131c.528.361 3.019 2.037 5.537 3.724 2.517 1.685 4.961 3.376 5.43 3.758.467.381 1.426 1.059 2.127 1.508.701.448 3.182 2.239 5.512 3.981 4.842 3.616 5.49 3.994 6.839 3.994 3.642 0 7.218-5.51 10.71-16.505 2.359-7.428 5.786-23.957 6.436-31.046.109-1.191.336-3.315.506-4.721.169-1.405.455-4.184.635-6.175.339-3.738.405-4.704 1.313-19.376.297-4.802.677-10.406.845-12.456.34-4.154.389-3.95-1.116-4.6-2.437-1.057-4.618.298-11.85 7.355-11.877 11.591-19.411 15.553-29.58 15.555-11.25.004-15.761-7.306-15.767-25.549-.006-15.759 1.603-25.668 5.615-34.612.542-1.208.698-1.779.316-1.161zm163.262 22.572c0 .526.043.742.094.479.05-.265.05-.695 0-.958-.051-.265-.094-.049-.094.479zm-32.55 19.564c-1.183.442-2.62.926-3.194 1.078-.574.151-1.809.509-2.745.796-6.679 2.048-13.988 2.786-18.839 1.904l-1.804-.329-2.668 1.407c-12.848 6.78-14.957 9.405-10.801 13.445.839.817.938.865.851.41-.088-.468.056-.579 1.57-1.209.917-.382 2.099-.89 2.626-1.13 16.469-7.503 27.493-10.632 33.217-9.427 4.49.944 9.899 5.325 11.906 9.643.645 1.39.654 1.388 1.68-.235 2.525-3.999 4.642-9.282 5.008-12.496.105-.919.1-.929-.12-.259-1.574 4.797-8.995 2.88-13.633-3.52-.361-.498-.711-.899-.779-.893-.068.006-1.092.373-2.275.815zm-8.602 13.868c-3.191.553-8.516 4.343-8.516 6.063 0 7.449 5.163 11.627 10.869 8.797 3.376-1.673 5.754-5.24 6.259-9.383l.15-1.227-1.305-1.358c-1.736-1.808-4.976-3.375-6.377-3.084-.067.014-.552.1-1.08.192zm4.451 4.35c2.995 1.549 2.995 6.565 0 8.113-.943.487-2.559.397-3.429-.194-.701-.476-.773-.485-1.36-.166-1.707.928-4.8.131-5.669-1.46-1.38-2.528.848-5.092 4.206-4.838 1.487.112 1.579.093 1.906-.406.816-1.246 2.963-1.763 4.346-1.049zm126.392 77.754c-8.328.658-16.145 1.956-27.042 4.49a834.226 834.226 0 01-5.59 1.289c-.445.094-.479.211-.477 1.726.002 3.548 1.028 4.769 6.551 7.805l1.993 1.096 1.746-.876c6.313-3.169 11.866-1.481 12.225 3.715.171 2.469-1.258 5.125-3.559 6.616-.597.387-1.046.805-.998.929.23.593 6.769 9.808 6.959 9.808.12 0 1.886-2.039 3.925-4.531l3.706-4.53-.398-.899c-2.881-6.531 3.104-14.679 9.1-12.39l.988.377 1.33-1.403c2.211-2.335 3.44-5.492 3.914-10.06.119-1.146.178-2.121.13-2.168-.675-.676-10.238-1.332-14.503-.994zm-53.362 31.516c.273.191.676.742.894 1.223 1.628 3.584-2.518 6.774-4.289 3.303-1.396-2.737 1.135-6.109 3.395-4.526zm11.572 5.383c1.553 1.389.683 5.342-1.177 5.342-2.216 0-2.84-4.624-.766-5.693.775-.401 1.183-.327 1.943.351zm39.554 3.106a291.754 291.754 0 01-5.108 2.685c-2.601 1.33-2.662 1.379-2.837 2.212-2.59 12.274-8.125 27.823-11.452 32.171l-.829 1.083.73 2.642c4.998 18.053 16.031 18.728 18.861 1.152.112-.702.586-6.786 1.054-13.52.466-6.734.885-12.64.93-13.124l.083-.882-.839-.112c-2.765-.37-2.516-4.717.27-4.717.463 0 .845-.001.851-.005.032-.014.8-10.867.771-10.887-.021-.013-1.139.572-2.485 1.302zm-31.06.226c1.541.797 1.623 3.406.139 4.445-2.203 1.544-4.371-2.347-2.325-4.176.768-.684 1.264-.746 2.186-.269zm-25.217.722c2.658 1.621 1.459 5.335-1.724 5.332-1.899-.001-3.18-1.159-3.18-2.874 0-1.707 1.282-2.872 3.159-2.872.68 0 1.31.149 1.745.414zm8.217 3.647c1.265.576 1.649 2.843.678 3.996-.986 1.172-2.504 1.067-3.293-.23-1.274-2.087.547-4.709 2.615-3.766zm12.405 4.551c1.216 1.216.432 3.949-1.135 3.949-1.14 0-1.936-1.383-1.657-2.877.285-1.517 1.775-2.089 2.792-1.072zm-25.007 2.518c1.621 1.09 1.495 3.286-.245 4.245-1.495.824-3.585.047-4.05-1.505-.691-2.305 2.199-4.148 4.295-2.74zm57.035-.175c.391.471.485 1.856.168 2.456-.664 1.26-1.977.275-1.786-1.338.112-.932.454-1.429.987-1.429.205 0 .489.14.631.311zm-46.688 2.661c2.793 1.702 1.367 6.462-1.759 5.875-2.241-.42-2.735-4.614-.691-5.861.886-.539 1.581-.544 2.45-.014zm10.591 2.345c2.027.772 1.898 5.763-.168 6.49-2.579.907-3.703-5.156-1.191-6.427.633-.321.674-.322 1.359-.063zm38.979 3.124c.995 2.099-.742 4.925-1.923 3.125-.503-.769-.522-2.591-.034-3.336.576-.879 1.486-.782 1.957.211zm-63.986 1.485c3.011 1.204 1.781 4.743-1.656 4.761-4.436.023-4.434-4.915.003-5.077.437-.015 1.18.127 1.653.316zm11.303 3.399c1.202 1.279.408 3.922-1.177 3.922-.888 0-1.523-.484-1.821-1.386-.717-2.174 1.541-4.087 2.998-2.536zm46.699.584c.962 1.292.379 4.172-.88 4.36-.912.137-1.744-1.712-1.459-3.236.323-1.717 1.483-2.275 2.339-1.124zm-37.469.861c.637.853.636 3.458-.003 4.323-1.34 1.813-3.335 1.229-3.904-1.141-.77-3.211 2.125-5.57 3.907-3.182zm42.592 6.441c.533.205 1.022 1.323.861 1.968-.469 1.882-2.874 1.664-2.874-.261 0-1.273.978-2.103 2.013-1.707zm-170.49 3.432c.615.043 1.62.043 2.236 0 .614-.042.111-.078-1.118-.078-1.23 0-1.734.036-1.118.078zm9.727 19.485l-.624.692.691-.626c.645-.582.791-.757.626-.757-.037 0-.349.31-.693.691zm-5.133 13.255c.002.82.04 1.129.086.687a8.049 8.049 0 00-.001-1.49c-.048-.378-.086-.016-.085.803z" fill="#554C37"/><path fill-rule="evenodd" clip-rule="evenodd" d="M186.194 87.395c-6.076 1.078-8.522 2.669-15.671 10.188-6.772 7.125-14.61 14.673-21.705 20.902-2.052 1.802-2.213 2.005-2.944 3.706-4.015 9.347-5.496 18.596-5.489 34.313.005 18.243 4.516 25.553 15.766 25.549 10.169-.002 17.703-3.964 29.58-15.555 7.571-7.388 9.593-8.561 12.291-7.126.545.29.991.479.991.421 0-.891 1.23-11.743 1.703-15.026 2.498-17.338 5.156-21.721 13.202-21.783 7.484-.058 8.647 7.39 3.542 22.661-3.591 10.737-5.225 22.008-7.906 54.509-1.89 22.896-3.552 34.06-6.276 42.159-10.515 31.261-17.7 36.636-36.737 27.478-10.361-4.983-24.144-14.187-35.402-23.637-3.181-2.67-2.823-2.727-3.232.523-2.475 19.673-1.86 42.638 1.602 59.915 9.952 49.653 39.863 81.785 89.306 95.936 9.834 2.815 8.951 2.833 10.583-.219 3.378-6.324 3.753-12.136 1.547-23.938-2.356-12.607-1.689-17.889 2.947-23.32l1.459-1.708-2.04-.391c-11.922-2.288-18.746-8.006-25.177-21.097-1.994-4.06-1.986-4.012-.444-2.801 3.049 2.394 6.412 3.959 10.486 4.88 2.154.488 13.024.699 15.362.298l.99-.169-1.787-2.492c-8.111-11.31-8.839-23.47-1.721-28.718 5.305-3.909 13.173-5.799 36.235-8.698 38.54-4.843 46.162-8.956 48.343-26.088.382-2.995.38-3.453-.036-22.582-.547-25.067 8.828-33.867 38.66-36.294l1.798-.147-.95-.879c-.523-.483-3.727-3.419-7.119-6.522-16.331-14.938-22.9-21.571-24.511-24.751-3.641-7.183-2.32-13.248 4.164-19.121 8.138-7.371 5.313-16.283-10.776-34.006-9.715-10.698-16.736-16.551-22.514-18.771-6.15-2.362-16.798-3.072-22.195-1.481l-1.523.448-4.226-1.709c-15.055-6.093-27.737-9.664-37.929-10.682-3.078-.307-6.967.594-12.059 2.792-2.334 1.007-2.049 1.019-3.96-.174-8.171-5.107-19.381-8.01-26.228-6.793zm89.103 18.568c21.149 10.616 41.655 28.625 43.224 37.961.793 4.717-2.649 9.988-8.225 12.596-3.842 1.799-4.45.784-2.664-4.447 2.668-7.806 2.588-11.131-.328-13.961-9.397-9.115-14.53-13.879-26.343-24.443-3.321-2.97-5.512-5.271-7.281-7.649-.988-1.326-.915-1.328 1.617-.057zm11.086 43.752c9.409 5.57 10.331 17.262 2.34 29.647l-.942 1.46.265 1.575c.469 2.789-.822 3.475-4.401 2.338-.924-.294-1.703-.511-1.731-.483-.028.028-.207.814-.399 1.748-2.574 12.552-18.039 16.589-25.543 6.667-1.436-1.899-2.581-4.396-3.244-7.075-.552-2.23-.584-2.293-1.113-2.204-.298.052-2.027.414-3.842.805-6.462 1.394-9.464 1.056-9.73-1.096-.092-.746-.323-1.152-1.133-2-3.958-4.142-1.896-6.686 10.805-13.33 2.613-1.366 3.015-1.682 2.144-1.682-.73 0-.236-.325 1.58-1.043 3.135-1.24 11.123-5.164 13.888-6.822 1.528-.918 3.737-2.148 4.909-2.733 1.759-.88 10.543-6.094 12.081-7.171.545-.382 1.77.04 4.066 1.399zm-22.378 33.203c-.749.381-1.754 1.379-1.754 1.742 0 .049.425-.318.947-.817 1.271-1.219 3.811-1.56 5.004-.673.216.16.2.103-.044-.162-.586-.64-2.967-.691-4.153-.09zm-1.909 2.969c0 .527.041.743.092.479a2.961 2.961 0 000-.958c-.051-.263-.092-.048-.092.479zm.155 1.172c0 .593 2.145 2.29 2.476 1.96.051-.051-.198-.214-.553-.361-.357-.148-.934-.595-1.285-.995-.351-.398-.638-.672-.638-.604zm3.354 2.173c.263.05.695.05.958 0 .263-.051.047-.093-.479-.093-.527 0-.743.042-.479.093zm-21.519 166.515c-1.301 4.741-1.236 9.782.318 24.753 1.396 13.446-.686 21.584-6.485 25.354-1.204.783-1.216.802-.639.925 1.149.244 8.501 1.359 10.732 1.629l2.261.272 2.218-1.084c8.67-4.235 10.318-7.891 8.186-18.154-2.762-13.291-1.868-22.17 3.254-32.316.816-1.619 1.31-1.443-4.874-1.743a566.469 566.469 0 01-9.475-.552c-2.46-.168-4.626-.306-4.815-.308-.239 0-.449.376-.681 1.224z" fill="#FBE8BF"/><path fill-rule="evenodd" clip-rule="evenodd" d="M189.911 73.612c.204.054.54.054.744 0 .206-.053.037-.097-.371-.097-.411 0-.578.044-.373.097zm5.11 0c.204.054.54.054.745 0 .205-.053.037-.097-.372-.097-.41 0-.578.044-.373.097zm7.931 1.556c.235.101.57.184.746.184.2 0 .161-.068-.108-.184-.233-.1-.569-.182-.744-.182-.202 0-.163.067.106.182zm23.901 1.642c.264.05.694.05.958 0 .264-.051.048-.093-.479-.093s-.743.042-.479.093zm6.175 0c.263.05.695.05.958 0 .263-.051.047-.093-.479-.093-.527 0-.742.042-.479.093zm36.356 8.07c-.468.173-1.091.26-1.384.196-.476-.106-.49-.094-.127.126.375.226 2.683-.263 2.683-.57 0-.144-.241-.094-1.172.248zm-110.946 5.247l-.626.691.693-.624c.38-.344.691-.656.691-.693 0-.165-.175-.02-.758.626zm19.438.273c-.437.297-.795.587-.795.642 0 .056.384-.151.853-.461.743-.492.995-.721.794-.721-.032 0-.415.244-.852.54zm53.665.253c.383.048.958.046 1.277-.002.321-.049.008-.087-.695-.086-.702.002-.964.041-.582.088zm6.81 0a6.767 6.767 0 001.384 0c.381-.047.069-.085-.693-.085-.761 0-1.071.038-.691.085zm-81.508.858l-.734.798.799-.733c.742-.684.895-.864.733-.864-.036 0-.395.36-.798.799zm72.246-.652c.204.054.54.054.745 0 .204-.054.037-.097-.373-.097s-.578.043-.372.097zm12.459.004c.264.051.647.049.85-.004.205-.054-.012-.096-.481-.093-.468.002-.635.046-.369.097zm-87.579 3.309l-.842.906.906-.842c.841-.784 1.003-.969.841-.969-.035 0-.441.408-.905.905zm18.953.639l-1.057 1.117 1.118-1.056c1.039-.981 1.215-1.18 1.057-1.18-.034 0-.537.504-1.118 1.119zm41.847.053c-.293.168-.436.304-.319.304.117 0 .453-.136.746-.304.292-.167.435-.304.319-.304-.117 0-.452.137-.746.304zm99.436 1.703c.398.41.771.746.828.746.059 0-.218-.336-.615-.746-.398-.41-.771-.745-.828-.745-.059 0 .218.335.615.745zm-143.625.799l-1.057 1.118 1.118-1.057c1.039-.981 1.215-1.18 1.057-1.18-.035 0-.537.504-1.118 1.119zm-22.14 2.13l-2.978 3.033 3.034-2.977c2.82-2.768 3.132-3.09 2.978-3.09-.03 0-1.395 1.365-3.034 3.033zm132.179-2.67c.324.05.803.049 1.065-.002.262-.051-.004-.09-.589-.09-.585.003-.799.044-.476.093zm38.483 4.426c1.929 1.932 3.557 3.513 3.616 3.513.057 0-1.473-1.581-3.402-3.513-1.931-1.933-3.557-3.513-3.616-3.513-.059 0 1.473 1.58 3.402 3.513zm-154.905 2.715l-2.766 2.821 2.823-2.765c2.62-2.568 2.918-2.877 2.764-2.877-.03 0-1.3 1.268-2.821 2.821zm165.713-.754c.266.05.649.048.852-.005.204-.054-.012-.095-.481-.092-.469.002-.635.046-.371.097zm2.127-.001c.264.051.695.051.959 0 .263-.05.047-.092-.479-.092-.528 0-.743.042-.48.092zm-190.1 2.352l-.733.798.799-.733c.743-.684.896-.864.733-.864-.035 0-.395.359-.799.799zm197.411-.72c.219.197 1.473.773 1.473.677 0-.122-1.181-.756-1.41-.756-.083 0-.112.036-.063.079zm-66.076.275c.147.06.217.189.156.289-.062.098.001.249.137.333.164.101.193.062.085-.113-.124-.201-.036-.234.338-.132.506.138.506.138-.025-.181-.293-.178-.629-.317-.746-.312-.117.005-.092.057.055.116zm71.807 3.798c.755.762 1.42 1.384 1.478 1.384.059 0-.51-.622-1.265-1.384-.755-.761-1.419-1.383-1.478-1.383-.059 0 .511.622 1.265 1.383zm-207.295.373l-.626.691.693-.624c.645-.583.789-.759.626-.759-.037 0-.349.312-.693.692zm20.022.851l-1.271 1.331 1.331-1.271c1.235-1.18 1.428-1.39 1.27-1.39-.032 0-.631.598-1.33 1.33zm153.737-.479c.457.469.88.852.939.852.058 0-.268-.383-.726-.852-.457-.468-.879-.851-.937-.851-.059 0 .267.383.724.851zm-34.813.066c0 .037.312.349.692.693l.693.626-.626-.693c-.583-.645-.759-.789-.759-.626zm-140.754 1.159l-.734.799.798-.735c.44-.404.799-.763.799-.798 0-.163-.18-.009-.863.734zm178.336 1.33c.813.82 1.526 1.491 1.585 1.491.059 0-.56-.671-1.372-1.491-.814-.819-1.528-1.49-1.586-1.49-.058 0 .559.671 1.373 1.49zm-34.494.427c.457.467.879.851.937.851.059 0-.266-.384-.724-.851-.457-.469-.88-.852-.939-.852-.057 0 .268.383.726.852zm-125.212.479l-.626.691.692-.625c.381-.343.691-.655.691-.692 0-.165-.175-.019-.757.626zm-22.889 1.597l-.733.798.798-.734c.744-.683.897-.863.734-.863-.035 0-.395.359-.799.799zm149.698-.732c0 .037.311.347.692.691l.691.626-.624-.693c-.583-.645-.759-.789-.759-.624zm35.549 1.051c.882.94 1.074 1.109 1.074.949 0-.034-.456-.489-1.012-1.011l-1.012-.95.95 1.012zm-164.806.32l-.734.798.799-.735c.743-.682.897-.862.733-.862-.034 0-.394.359-.798.799zm131.598.798c.398.409.771.745.83.745.058 0-.219-.336-.616-.745-.398-.41-.771-.746-.829-.746-.059 0 .218.336.615.746zm-154.063.372l-.626.692.693-.626c.381-.343.691-.654.691-.691 0-.165-.175-.02-.758.625zm20.441.639l-.626.692.693-.626c.38-.344.691-.654.691-.691 0-.165-.175-.021-.758.625zm201.271.898c.433.874.822 1.554.864 1.512.094-.096-1.406-3.102-1.549-3.102-.056 0 .252.716.685 1.59zm-65.732-.206c.397.41.77.745.829.745.059 0-.219-.335-.616-.745s-.77-.745-.829-.745c-.059 0 .218.335.616.745zm-157.896.373l-.626.691.693-.625c.38-.343.691-.655.691-.692 0-.165-.175-.019-.758.626zm204.022 2.236c1.35 2.448 1.917 3.061.81.876-.773-1.527-.595-1.464 1.2.412 8.06 8.426 15.096 19.324 18.621 28.845.207.559.414.978.461.932.046-.048-.312-1.079-.795-2.295-3.891-9.776-10.361-19.624-18.06-27.493-3.038-3.105-3.341-3.278-2.237-1.277zm-43.783-.479c.397.408.77.744.828.744.058 0-.219-.336-.616-.744-.397-.41-.77-.746-.828-.746-.059 0 .218.336.616.746zm-162.473.265l-.734.799.799-.733c.742-.684.895-.864.733-.864-.036 0-.395.359-.798.798zm20.513.467c-1.152 1.075-7.314 6.258-16.19 13.62-2.84 2.355-5.164 4.334-5.164 4.397 0 .167 1.502-1.014 4.267-3.356 1.343-1.137 4.836-4.053 7.764-6.479 6.193-5.133 9.119-7.642 9.994-8.571.927-.983.593-.789-.671.389zm143.867.917c.882.94 1.073 1.11 1.073.949 0-.033-.454-.489-1.012-1.01l-1.01-.95.949 1.011zm-166.192.213l-.626.693.693-.626c.38-.344.692-.656.692-.693 0-.163-.176-.019-.759.626zm89.712 1.165c.382.049.957.048 1.277-.001.32-.048.007-.088-.696-.087-.702.002-.964.041-.581.088zm-91.946.858l-.734.798.799-.733c.743-.684.897-.864.733-.864-.034 0-.395.36-.798.799zm212.565.746c.403.732 1.482 2.741 2.401 4.466.918 1.725 1.711 3.096 1.76 3.046.152-.152-4.546-8.843-4.78-8.843-.062 0 .217.599.619 1.331zm-41.043-.054c.457.469.88.852.939.852.057 0-.269-.383-.726-.852-.457-.469-.879-.852-.938-.852-.058 0 .267.383.725.852zm-86.461.905l-.624.692.691-.626c.38-.344.692-.654.692-.691 0-.165-.176-.021-.759.625zm97-.625c0 .037.312.347.693.691l.692.626-.626-.692c-.582-.646-.759-.79-.759-.625zm-184.19.944l-.734.798.798-.733c.744-.683.897-.863.735-.863-.036 0-.395.36-.799.798zm175.994.906c.576.585 1.096 1.064 1.155 1.064.058 0-.366-.479-.943-1.064-.576-.587-1.096-1.066-1.155-1.066-.059 0 .365.479.943 1.066zm10.956.691c.883.94 1.073 1.11 1.073.949 0-.033-.455-.489-1.01-1.01l-1.012-.95.949 1.011zm-188.761 0l-.626.692.692-.626c.381-.343.691-.654.691-.691 0-.165-.175-.02-.757.625zm-2.235 2.024l-.733.798.798-.735c.743-.682.896-.862.734-.862-.036 0-.395.359-.799.799zm184.084 1.117c.697.703 1.312 1.278 1.371 1.278.059 0-.462-.575-1.157-1.278-.695-.702-1.312-1.277-1.371-1.277-.059 0 .462.575 1.157 1.277zm10.753.745c.637.644 1.205 1.172 1.264 1.172.057 0-.414-.528-1.05-1.172-.636-.644-1.205-1.171-1.264-1.171-.058 0 .414.527 1.05 1.171zm-196.862-.053l-.624.692.691-.626c.645-.583.791-.758.626-.758-.037 0-.349.311-.693.692zm-2.021 1.81l-.733.798.799-.733c.743-.683.896-.864.733-.864-.035 0-.395.359-.799.799zm227.415.266c.239.468.483.852.542.852.058 0-.09-.384-.329-.852-.239-.468-.483-.851-.54-.851-.059 0 .088.383.327.851zm-35.771.485c0 .032.743.774 1.65 1.649l1.651 1.592-1.592-1.65c-1.478-1.532-1.709-1.747-1.709-1.591zm-193.667 1.059l-.626.691.692-.624c.381-.344.691-.656.691-.693 0-.165-.175-.019-.757.626zm232.96 5.163a785.807 785.807 0 014.722 9.369c.979 1.991 1.717 3.381 1.643 3.087-.274-1.064-8.583-17.527-9.081-17.992-.125-.117 1.096 2.374 2.716 5.536zm-235.09-3.247l-.626.692.692-.625c.381-.344.693-.655.693-.693 0-.164-.176-.019-.759.626zm-1.808 1.597l-.734.799.798-.735c.744-.682.897-.862.735-.862-.036 0-.395.359-.799.798zm15.874 3.299c-3.819 3.351-9.499 8.995-11.358 11.286-1.991 2.455-1.45 2 1.235-1.039 2.566-2.902 6.721-6.971 10.123-9.911 1.986-1.716 3.503-3.167 3.287-3.147-.051.004-1.531 1.27-3.287 2.811zm-18.324-1.063l-.626.691.692-.624c.646-.583.79-.759.625-.759-.037 0-.347.311-.691.692zm-1.809 1.597l-.733.798.798-.734c.744-.682.897-.862.733-.862-.034 0-.394.359-.798.798zm234.974.905c.181.351.378.638.437.638.058 0-.042-.287-.224-.638-.183-.352-.378-.639-.437-.639s.042.287.224.639zm-236.998.904l-.626.692.693-.626c.645-.582.79-.757.624-.757-.037 0-.347.31-.69.691zm219.493 1.331c.001.585.042.8.092.477.048-.325.047-.804-.004-1.066-.05-.262-.091.004-.088.589zm-221.622.585l-.626.693.692-.626c.645-.583.79-.758.626-.758-.037 0-.349.311-.692.691zm-1.917 1.705l-.626.691.693-.625c.645-.583.79-.759.626-.759-.037 0-.349.312-.693.693zm245.131 3.243c.195.409.392.705.438.659.097-.098-.55-1.401-.695-1.401-.054 0 .062.335.257.742zm-50.718 1.388c.695.702 1.312 1.277 1.371 1.277.059 0-.462-.575-1.157-1.277-.697-.703-1.312-1.278-1.371-1.278-.059 0 .462.575 1.157 1.278zm63.681 0c.078.292.23.676.338.851.138.222.155.157.055-.213a3.973 3.973 0 00-.338-.852c-.138-.222-.155-.157-.055.214zm-38.137.904l-1.057 1.118 1.118-1.056c.614-.582 1.118-1.085 1.118-1.118 0-.159-.198.018-1.179 1.056zm38.887 1.172c-.012.148.305 1.441.704 2.874.958 3.446 1.537 6.077 2.046 9.315.293 1.856.386 2.211.31 1.171-.151-2.016-.858-5.883-1.596-8.729-.703-2.71-1.433-5.018-1.464-4.631zm-246.451 1.811a44.355 44.355 0 00-3.41 5.641c-1.191 2.364-.903 2.131.38-.311a49.416 49.416 0 012.511-4.152c1.602-2.321 1.721-2.51 1.578-2.51-.06 0-.537.599-1.059 1.332zm160.887.493c-.966.532-1.756 1.016-1.756 1.076 0 .12 3.177-1.575 3.503-1.868.379-.342.01-.173-1.747.792zm42.319-.442c-.526.283-.882.518-.79.523.227.013 1.855-.824 1.855-.953 0-.141.009-.145-1.065.43zm-111.31 1.172c0 .409.045.577.098.372a1.765 1.765 0 000-.745c-.053-.205-.098-.037-.098.373zm107.664-.373c.161.206.543.359.851.343l.559-.029-.531-.097c-.293-.054-.677-.209-.852-.344-.279-.214-.281-.198-.027.127zm43.269.29c-.01.13.077.741.193 1.355.392 2.065.648 7.93.482 11.051l-.164 3.061 1.067.963c3.491 3.158 5.48 2.279 5.394-2.38l-.036-1.938-.129 2.236c-.237 4.132-1.742 4.782-4.914 2.127l-1.024-.86.019-5.264c.019-4.905-.224-8.43-.686-9.974-.101-.338-.192-.507-.202-.377zm-264.375 1.594c-.303.597-.514 1.122-.47 1.165.043.044.336-.444.65-1.086.314-.641.526-1.165.471-1.165-.056 0-.349.488-.651 1.086zm113.028 3.066c.001.585.043.8.092.477a3.83 3.83 0 00-.003-1.066c-.051-.262-.09.004-.089.589zm79.36.211c-.41.159-1.847.677-3.194 1.154-1.347.476-2.305.866-2.13.866.423 0 1.77-.422 4.362-1.367l2.126-.774.429.589c3.12 4.282 6.061 6.18 9.915 6.398l2.033.113.894-1.017c.493-.558.89-1.123.883-1.252-.007-.13-.127-.047-.266.184-1.077 1.786-2.287 2.163-5.087 1.581-2.658-.552-6.015-2.999-7.869-5.731-.762-1.125-.943-1.188-2.096-.744zm-21.293.428c-.293.167-.436.304-.319.304.117 0 .453-.137.746-.304.292-.167.435-.304.319-.304-.117 0-.452.137-.746.304zm76.111 1.437l-.842.905.905-.841c.842-.783 1.003-.968.842-.968-.035 0-.442.406-.905.904zm-230.47.927c-2.25 6.013-2.737 14.224-1.254 21.165.481 2.244 1.645 6.056 1.803 5.898.056-.055-.143-.856-.442-1.78-2.602-8.038-2.647-16.83-.125-24.36.727-2.169.739-2.854.018-.923zm96.082-.128c0 .644.04.907.089.585a4.771 4.771 0 000-1.17c-.049-.322-.089-.059-.089.585zm70.094.425c-.268.116-.308.184-.106.184.175 0 .511-.083.745-.184.268-.115.308-.182.107-.182-.176 0-.511.083-.746.182zm-1.809.427c-.421.134-.444.17-.107.17.235 0 .666-.077.958-.17.422-.135.445-.171.107-.171-.235 0-.665.076-.958.171zm-2.023.425c-.574.146-.584.164-.106.166.292.003.771-.072 1.064-.166.717-.228-.058-.228-.958 0zm-13.307.427c2.479.639 8.656.644 11.71.009.766-.158.66-.169-.532-.051-1.933.192-8.999.19-10.647-.001-.927-.108-1.073-.096-.531.043zm-53.165 1.17c.001.703.041.965.088.582a5.674 5.674 0 00-.003-1.278c-.048-.319-.087-.006-.085.696zm14.036.958c0 .411.044.578.097.373.054-.205.054-.54 0-.746-.053-.204-.097-.037-.097.373zm-14.703 8.837c-.956 15.669-1.275 19.678-2.079 26.03-.181 1.436-.3 2.873-.262 3.194.066.574.823-5.208 1.233-9.422.488-5.014 1.779-26.072 1.667-27.215-.035-.373-.287 2.962-.559 7.413zm71.291-7.747c-2.829.455-7.096 1.633-11.222 3.098-2.632.935-1.606.753 1.507-.267 14.093-4.614 20.512-3.369 26.425 5.128 1.318 1.897 1.543 2.133 1.002 1.05-3.119-6.225-10.783-10.124-17.712-9.009zm60.96 1.04c0 .644.04.907.088.585a4.59 4.59 0 000-1.171c-.048-.322-.088-.059-.088.586zM82.168 172.05c0 .408.043.577.097.371.053-.204.053-.54 0-.744-.054-.205-.097-.037-.097.373zm284.683.958c.002.467.046.635.097.369.051-.264.049-.648-.004-.851-.054-.204-.095.013-.093.482zm-114.82 1.937c-2.391.879-9.411 3.945-9.297 4.061.044.043.74-.219 1.548-.581.807-.365 3.384-1.435 5.727-2.379 2.342-.944 4.297-1.75 4.346-1.791.235-.201-.475.01-2.324.69zm115.041.83c.001.586.042.8.092.476.048-.323.047-.802-.004-1.064-.05-.262-.091.003-.088.588zm-35.833.45c0 .11.742.916 1.651 1.792l1.649 1.591-1.597-1.697c-.878-.934-1.62-1.74-1.649-1.792-.03-.053-.054-.005-.054.106zm-62.973.443c.206.052.541.052.746 0 .205-.054.037-.098-.373-.098s-.577.044-.373.098zm-186.099 1.131c0 .408.044.577.098.371.053-.204.053-.54 0-.744-.054-.205-.097-.037-.097.373zm193.393 1.489c.457.469.879.852.937.852.059 0-.268-.383-.725-.852-.458-.467-.879-.851-.938-.851-.059 0 .268.384.726.851zm91.721 1.066c0 .526.042.742.092.479a3.018 3.018 0 000-.958c-.05-.265-.092-.049-.092.479zm-128.019.027c-.756.347-1.405.661-1.44.696-.034.034.031.581.146 1.213l.209 1.15-.086-1.088-.086-1.09 1.637-.755c.9-.415 1.493-.756 1.317-.758-.175-.001-.939.283-1.697.632zm96.662.718c.753.761 1.419 1.383 1.478 1.383.059 0-.511-.622-1.266-1.383-.754-.762-1.42-1.384-1.478-1.384-.059 0 .511.622 1.266 1.384zm-75.28.159l-.842.905.906-.841c.497-.464.905-.871.905-.906 0-.161-.185 0-.969.842zm13.668 1.331c.491.841.502.854.502.592 0-.124-.197-.451-.439-.728l-.438-.502.375.638zm13.757.851c.003.469.046.635.098.371.049-.265.048-.648-.006-.852-.053-.204-.094.014-.092.481zm78.999.958c0 .528.042.744.093.479.05-.263.05-.693 0-.958-.051-.263-.093-.047-.093.479zm-92.736 3.249l-.376.691.43-.503c.364-.428.559-.884.375-.88-.029.001-.222.313-.429.692zm-5.276.488c-.228.275-.207.392.122.693.373.342.38.341.115-.011-.224-.299-.227-.436-.015-.692.146-.176.217-.319.158-.319-.058 0-.229.148-.38.329zm4.469 1.533l-.734.799.799-.734c.743-.683.897-.863.733-.863-.034 0-.395.36-.798.798zm-18.939.906c.239.468.483.851.541.851.058 0-.088-.383-.327-.851-.239-.469-.483-.852-.542-.852-.059 0 .089.383.328.852zm8.091.319c.397.409.77.745.829.745.059 0-.218-.336-.616-.745-.397-.41-.77-.746-.829-.746-.059 0 .219.336.616.746zm89.961 6.708c3.512 3.513 6.432 6.387 6.491 6.387.059 0-2.766-2.874-6.278-6.387-3.512-3.514-6.434-6.388-6.492-6.388-.058 0 2.767 2.874 6.279 6.388zm-86.075-4.959c.322.049.85.049 1.172 0 .322-.048.059-.088-.587-.088-.644 0-.907.04-.585.088zm10.692 1.178l-1.056 1.118 1.117-1.056c.615-.582 1.118-1.084 1.118-1.118 0-.159-.198.018-1.179 1.056zm-173.627-.421c-.013.462 2.539 5.133 3.932 7.192 4.98 7.369 14.022 15.781 24.807 23.078 2.467 1.668 1.108.51-1.916-1.634-13.069-9.266-20.7-17.172-25.648-26.574-.644-1.224-1.173-2.153-1.175-2.062zm153.513.688c.398.409.771.745.829.745.059 0-.218-.336-.615-.745-.398-.41-.771-.746-.829-.746-.059 0 .218.336.615.746zm111.041 2.661c.812.821 1.526 1.491 1.585 1.491.059 0-.559-.67-1.373-1.491-.813-.82-1.527-1.49-1.586-1.49-.058 0 .56.67 1.374 1.49zm-158.473 0c0 .411.043.578.097.373a1.77 1.77 0 000-.746c-.054-.204-.097-.037-.097.373zm51.69.32c.294.167.629.304.747.304.116 0-.027-.137-.32-.304-.292-.168-.628-.304-.746-.304-.116 0 .027.136.319.304zm10.221.213c-.41.157-.602.29-.426.293.175.004.607-.124.959-.285.822-.377.439-.382-.533-.008zm-5.371.901a10.64 10.64 0 001.704-.001c.436-.046.026-.082-.911-.082-.936.001-1.294.038-.793.083zm105.977 2.399c.932.937 1.742 1.703 1.801 1.703.058 0-.656-.766-1.587-1.703-.932-.936-1.741-1.703-1.8-1.703-.059 0 .655.767 1.586 1.703zm-162.943 1.064c0 .41.044.578.097.373.054-.204.054-.54 0-.744-.053-.206-.097-.039-.097.371zm167.628 3.407c1.049 1.054 1.956 1.917 2.014 1.917.058 0-.752-.863-1.8-1.917-1.051-1.053-1.956-1.916-2.015-1.916-.059 0 .752.863 1.801 1.916zM209.07 204.2c0 .41.043.578.097.373.054-.204.054-.54 0-.744-.054-.206-.097-.039-.097.371zm152.297 2.13c.814.82 1.528 1.491 1.586 1.491.059 0-.559-.671-1.372-1.491-.814-.82-1.527-1.491-1.586-1.491-.058 0 .56.671 1.372 1.491zm-152.505.106c.002.469.046.635.097.371.05-.265.048-.648-.005-.853-.054-.203-.095.014-.092.482zm-.214 2.343c.003.468.046.635.097.369.051-.264.049-.647-.003-.851-.054-.204-.096.013-.094.482zm178.378 6.174c3.687 3.689 6.751 6.708 6.81 6.708.059 0-2.91-3.019-6.598-6.708-3.687-3.689-6.752-6.707-6.811-6.707-.059 0 2.91 3.018 6.599 6.707zm-178.586-3.726c0 .527.041.743.092.479a3.018 3.018 0 000-.958c-.051-.263-.092-.048-.092.479zm-.217 2.024c.002.467.046.634.097.369.05-.265.049-.648-.005-.851-.054-.205-.095.013-.092.482zm-.213 2.128c.002.469.046.635.097.37.051-.264.048-.647-.004-.852-.054-.203-.096.014-.093.482zm172.095 9.475c4.917 4.919 8.989 8.943 9.048 8.943.058 0-3.917-4.024-8.835-8.943-4.918-4.918-8.988-8.942-9.047-8.942-.059 0 3.917 4.024 8.834 8.942zm-172.313-7.451c0 .408.044.577.097.371.054-.204.054-.54 0-.745-.053-.204-.097-.037-.097.374zm-.208 1.809c.003.468.046.634.097.37.05-.264.049-.648-.005-.852-.054-.203-.094.014-.092.482zm-14.822 3.017c-.211 1.034-.862 3.925-1.449 6.424-.585 2.498-1.018 4.589-.962 4.645.216.216 3.031-12.243 2.872-12.717-.042-.129-.25.613-.461 1.648zm14.605-1.207c0 .41.043.577.097.373a1.738 1.738 0 000-.746c-.054-.205-.097-.037-.097.373zm189.346 3.832c.576.586 1.096 1.065 1.155 1.065.059 0-.365-.479-.941-1.065-.578-.585-1.098-1.064-1.155-1.064-.059 0 .365.479.941 1.064zm-261.791.528c0 .086 12.446 8.457 13.608 9.154.196.117.25.099.155-.054-.079-.128-1.077-.836-2.216-1.571a626.855 626.855 0 01-5.907-3.899c-5.217-3.482-5.64-3.754-5.64-3.63zm-26.295 2.028c.457.468.879.852.937.852.059 0-.267-.384-.724-.852-.457-.469-.88-.853-.939-.853-.057 0 .268.384.726.853zm290.641.213c.458.467.879.851.938.851.059 0-.267-.384-.724-.851-.458-.469-.881-.852-.939-.852-.058 0 .268.383.725.852zm-288.201 2.395c.881.941 1.073 1.109 1.073.949 0-.034-.455-.489-1.012-1.011l-1.01-.95.949 1.012zm289.585-.839c0 .037.312.349.692.692l.693.626-.626-.692c-.583-.645-.759-.79-.759-.626zm1.491 1.704c0 .037.311.348.692.691l.691.626-.624-.692c-.583-.645-.759-.79-.759-.625zm-251.134 5.229c.111.104 2.071 1.435 4.354 2.959 2.284 1.525 5.302 3.552 6.707 4.503 1.406.952 2.221 1.436 1.811 1.076-.411-.36-2.848-2.063-5.417-3.784a1736.152 1736.152 0 01-6.006-4.035c-1.206-.818-1.966-1.195-1.449-.719zm37.598 2.624c-.741 2.293-2.707 7.218-3.574 8.955-.279.555-.45 1.011-.381 1.011.482 0 4.947-11.315 4.726-11.978-.033-.101-.38.805-.771 2.012zm193.036 3.057c-5.193.726-10.745 1.679-11.802 2.025l-.595.196.639-.082c.351-.045 2.316-.373 4.365-.731 2.049-.356 5.685-.902 8.081-1.212 2.394-.309 4.742-.64 5.216-.735l.862-.171-.852.001c-.468 0-3.129.32-5.914.709zm-253.437 2.025c-.076.126-.081.285-.011.355.07.071.128.002.128-.153 0-.197.144-.158.479.124l.479.406-.406-.479c-.467-.552-.48-.557-.669-.253zm238.698.74c-.84.29-.842.293-.107.169.869-.147 1.757-.47 1.277-.467-.175.002-.702.136-1.17.298zm-201.533 1.241c0 .044 1.365 1.073 3.035 2.282a219.847 219.847 0 014.95 3.698c4.9 3.826 7.683 3.171 11.048-2.598.389-.666-.102-.177-.535.532-.723 1.188-2.95 3.447-3.85 3.908-2.027 1.036-2.902.669-8.642-3.618-4.022-3.005-6.006-4.395-6.006-4.204zm194.605 1.271c-4.972 2.505-8.303 5.843-9.903 9.925l-.601 1.529.699 1.423c2.961 6.037 6.573 10.016 16.945 18.673 13.74 11.468 15.834 15.554 13.201 25.762-.996 3.865-1.042 4.07-.872 3.914.078-.072.333-.791.567-1.597 3.595-12.406 1.75-16.26-14.066-29.371-10.334-8.567-16.916-16.7-15.884-19.627 1.61-4.56 5.123-8.107 10.612-10.708.967-.459 1.614-.836 1.439-.837-.176-.001-1.138.409-2.137.914zm-247.996 7.913c.003.469.046.635.097.37.051-.264.05-.647-.003-.852-.054-.203-.095.014-.094.482zm14.909.319c0 .528.042.744.093.479.05-.263.05-.693 0-.958-.051-.263-.093-.047-.093.479zm-15.121 2.236c.003.469.046.635.097.37.05-.264.049-.647-.005-.852-.053-.203-.094.014-.092.482zm14.914.746c0 .644.041.907.09.585a4.78 4.78 0 000-1.171c-.049-.322-.09-.059-.09.586zm276.153.369c.673.044 1.775.044 2.448 0 .673-.042.123-.076-1.224-.076-1.346 0-1.897.034-1.224.076zm-4.361.211c.383.047.958.046 1.277-.003.32-.048.007-.086-.696-.085-.703.001-.965.041-.581.088zm9.577-.004c.264.05.695.05.959 0 .263-.051.047-.093-.48-.093s-.742.042-.479.093zm-12.134.213c.265.05.648.049.852-.005.204-.053-.014-.094-.481-.092-.469.003-.635.046-.371.097zm-1.916.213c.264.051.648.049.852-.004.203-.054-.014-.095-.482-.094-.468.003-.634.046-.37.098zm-282.433 1.446c.001.702.041.964.088.582a5.664 5.664 0 00-.003-1.277c-.048-.321-.087-.008-.085.695zm14.91.958c0 .879.037 1.238.083.798a9.258 9.258 0 000-1.597c-.046-.438-.083-.079-.083.799zm287.212-.212c0 .409.044.577.098.372a1.765 1.765 0 000-.745c-.054-.205-.098-.037-.098.373zm-302.327 3.406c0 .995.036 1.403.081.906a12.44 12.44 0 000-1.811c-.045-.498-.081-.09-.081.905zm14.926 7.453c0 4.273.029 6.022.064 3.885.034-2.137.034-5.634 0-7.771-.035-2.138-.064-.389-.064 3.886zm239.729-6.176c0 .879.037 1.238.083.799a9.258 9.258 0 000-1.597c-.046-.438-.083-.079-.083.798zm-203.415 1.597c0 .141 4.71 2.494 4.805 2.401.041-.042-1.023-.622-2.365-1.291-1.343-.666-2.44-1.167-2.44-1.11zm-51.433 7.24c.002 3.982.03 5.58.064 3.553.036-2.028.036-5.285 0-7.24-.034-1.953-.064-.295-.064 3.687zm78.889-5.483l-.734.798.799-.733c.742-.683.895-.864.733-.864-.036 0-.395.361-.798.799zm176.738.545c0 .037.312.349.692.693l.693.626-.626-.693c-.583-.645-.759-.789-.759-.626zm42.574 2.437l-.734.798.798-.734c.439-.404.798-.763.798-.799 0-.162-.18-.009-.862.735zm-230.525 1.275a21.27 21.27 0 002.343-.002c.61-.042.056-.076-1.233-.076-1.288 0-1.787.035-1.11.078zm193.274.15c0 .059.288.256.639.437.352.182.639.283.639.224 0-.059-.287-.254-.639-.437-.351-.181-.639-.282-.639-.224zm4.206.451c-.557.29-1.012.574-1.012.633 0 .094 2.108-.901 2.324-1.098.265-.24-.428.005-1.312.465zm23.994.571l-.626.693.692-.626c.645-.583.79-.758.626-.758-.037 0-.349.311-.692.691zm-2.803 6.761c0 .527.041.742.092.479a3.018 3.018 0 000-.958c-.051-.263-.092-.047-.092.479zm-271.042 1.172c.002.819.04 1.128.086.687a7.974 7.974 0 00-.001-1.491c-.048-.378-.085-.016-.085.804zm259.792.798l-.626.691.692-.624c.645-.583.79-.759.626-.759-.037 0-.349.311-.692.692zm-274.908 1.437c0 .878.039 1.237.085.799a9.258 9.258 0 000-1.597c-.046-.44-.085-.081-.085.798zm15.323 1.065c0 .643.041.907.09.585a4.771 4.771 0 000-1.17c-.049-.322-.09-.059-.09.585zm-15.117 2.768c0 .644.04.907.088.585a4.59 4.59 0 000-1.171c-.048-.322-.088-.059-.088.586zm15.32.106c.003.469.046.635.097.371.052-.266.049-.649-.003-.853-.054-.203-.096.013-.094.482zm216.342 1.511l-.596.554.613-.448c1.375-.999 3.115-.208 3.498 1.59.639 2.996-1.932 5.12-3.681 3.043-.571-.68-.698-1.058-.817-2.417-.072-.819-.076-.813-.11.168-.116 3.308 3.279 4.577 4.653 1.739 1.4-2.894-1.404-6.224-3.56-4.229zm-216.133.725c0 .41.044.577.098.373a1.803 1.803 0 000-.746c-.054-.205-.098-.037-.098.373zm-15.326.533c.003.467.046.634.097.369.05-.265.049-.648-.005-.851-.053-.205-.094.013-.092.482zm.208 2.235c0 .409.044.578.098.372.053-.204.053-.54 0-.745-.054-.204-.098-.037-.098.373zm243.559 1.334c-1.172.604-1.663 2.84-.953 4.337.693 1.459 1.777 1.734 2.896.734 1.97-1.761.265-6.211-1.943-5.071zm1.654.39c1.364 1.271 1.103 4.254-.427 4.889-1.917.793-3.111-3.08-1.46-4.731.719-.719 1.238-.763 1.887-.158zm36.762 4.429l-4.89 2.526-.705 2.847a561.596 561.596 0 01-1.657 6.448c-.523 1.981-.915 3.637-.872 3.682.105.103 1.693-5.601 2.681-9.626l.783-3.194 1.281-.658c6.237-3.206 8.756-4.584 8.323-4.555-.029.002-2.253 1.141-4.944 2.53zm5.485-.723c.001.585.043.8.092.475.048-.323.047-.802-.003-1.064-.051-.262-.091.002-.089.589zm7.232-.214c.002.469.046.635.097.371.051-.266.048-.649-.004-.852-.054-.203-.096.013-.093.481zm-42.835.02c-.36.302-.653.661-.649.798.004.135.11.07.235-.146.387-.666 1.589-1.055 2.27-.732 1.901.901 1.546 4.034-.502 4.428-.755.145-.774.164-.194.186 2.275.086 3.052-3.681.98-4.753-.903-.466-1.385-.418-2.14.219zm-26.568.503c-.955.584-1.413 1.378-1.413 2.458 0 3.148 4.625 4.033 6.094 1.168.976-1.905-.576-4.04-2.936-4.04-.679 0-1.309.149-1.745.414zm3.121.112c2.459 1.272 1.78 4.688-.986 4.953-1.533.147-2.558-.379-3.093-1.589-1.044-2.357 1.681-4.604 4.079-3.364zm22.609 1.438c-.026.835.07 1.111.556 1.607.322.329.396.374.163.098-.236-.282-.479-.985-.554-1.607l-.136-1.106-.029 1.008zm43.89.163c0 .526.042.742.092.479a3.018 3.018 0 000-.958c-.05-.263-.092-.047-.092.479zm-7.665.852c0 .527.042.743.092.479a3.018 3.018 0 000-.958c-.05-.264-.092-.048-.092.479zm7.878 1.49c0 .527.041.743.092.479a3.018 3.018 0 000-.958c-.051-.263-.092-.047-.092.479zm-60.057-.307c-1.458 1.022-1.345 4.083.167 4.518.175.051.111-.062-.143-.251-1.684-1.243-.646-4.67 1.299-4.299 1.643.316 2.243 2.723.989 3.975-.341.342-.541.623-.444.623.098 0 .426-.295.729-.655 1.675-1.991-.55-5.343-2.597-3.911zm51.972 2.011c0 .644.039.907.088.585a4.59 4.59 0 000-1.171c-.049-.322-.088-.059-.088.586zm8.304 1.064c0 .644.039.907.088.585.05-.322.05-.848 0-1.17-.049-.322-.088-.059-.088.585zm-48.145 1.286c-.256.238-.466.54-.466.668 0 .127.198-.019.441-.329.975-1.238 2.54-.337 2.54 1.463 0 1.763-1.362 2.595-2.458 1.5-.288-.287-.523-.448-.523-.356 0 .96 1.879 1.36 2.672.569 1.715-1.717-.442-5.157-2.206-3.515zm39.564.157c0 .297-.178.377-.84.377-1.96 0-2.964 2.645-1.583 4.172.608.671.792.438.206-.259-1.322-1.572-.244-3.851 1.674-3.54.723.117.756.095.756-.502 0-.344-.049-.626-.106-.626-.059 0-.107.169-.107.378zm8.798 1.965c0 .76.038 1.071.086.691a6.81 6.81 0 000-1.384c-.048-.381-.086-.069-.086.693zm-48.987-.32c.002.468.045.635.097.369.051-.264.049-.647-.004-.85-.054-.205-.095.012-.093.481zm-25.325.735c-.373.227-.781.604-.905.837-.384.718-.248.808.175.115 1.231-2.018 4.709-1.172 4.709 1.143 0 2.406-3.441 3.249-4.737 1.161-.199-.322-.364-.456-.368-.297-.03 1.588 3.319 2.211 4.663.867 2.193-2.192-.838-5.472-3.537-3.826zm58.92-.105c-.391.471-.485 1.856-.168 2.457.664 1.259 1.977.274 1.785-1.339-.109-.931-.453-1.428-.985-1.428-.205 0-.49.139-.632.31zm1.038.197c.288.347.362 1.523.14 2.219-.229.718-.999.543-1.226-.279-.371-1.337.417-2.745 1.086-1.94zm-48.886 2.463c-.577.351-1.132 1.015-1.132 1.355 0 .053.373-.277.827-.732.62-.619 1-.826 1.516-.826 2.338 0 3.258 4.209 1.232 5.63-.262.183-.376.332-.254.332.121 0 .479-.271.796-.602 2.353-2.455-.195-6.859-2.985-5.157zm63.467 2.14c0 1.464.034 2.062.076 1.33a28.8 28.8 0 000-2.661c-.042-.733-.076-.133-.076 1.331zm-10.249-1.983c.204.054.54.054.744 0 .206-.054.037-.097-.371-.097-.41 0-.578.043-.373.097zm-20.38.962c-.202.502-.987 2.287-1.747 3.967-.761 1.678-1.341 3.093-1.291 3.144.051.051.628-1.082 1.279-2.52 1.6-3.526 2.326-5.301 2.217-5.412-.051-.052-.257.319-.458.821zm21.245.701c.001.703.04.965.088.582a5.672 5.672 0 00-.003-1.278c-.048-.319-.087-.006-.085.696zm-42.428.589c-2.511 1.271-1.387 7.335 1.192 6.428.725-.255 1.569-1.45 1.556-2.204-.009-.478-.05-.443-.299.258-1.042 2.922-3.523 1.975-3.523-1.345 0-3.345 2.476-4.28 3.527-1.333.238.666.288.71.294.268.024-1.498-1.543-2.681-2.747-2.072zm29.495 1.13c-.079.311-.102.608-.051.658.05.051.154-.164.232-.476.08-.311.103-.608.051-.659-.049-.05-.154.165-.232.477zm12.719 1.475c.001.703.041.965.088.581a5.666 5.666 0 00-.002-1.277c-.049-.319-.087-.006-.086.696zm-3.816.22c-.194.296-.292.599-.218.673.075.076.135.024.135-.112 0-.137.192-.441.427-.675.234-.234.332-.425.217-.425-.114 0-.367.243-.561.539zm1.437-.133c.428.348.504.599.504 1.698 0 2.096-1.159 2.851-1.968 1.281-.144-.281-.264-.388-.265-.237-.013 1.158 1.432 1.717 2.041.788.778-1.189.433-3.936-.496-3.936-.218 0-.161.126.184.406zm-50.652.805c.205.054.541.054.745 0 .206-.054.037-.097-.372-.097-.41 0-.577.043-.373.097zm39.46.401c-.078.312-.101.608-.051.658.05.05.154-.164.234-.477.077-.311.1-.608.051-.657-.05-.05-.156.163-.234.476zm-55.218.484c-.564.163-1.968 1.245-1.968 1.515 0 .104.272-.084.606-.417 1.59-1.591 5.709-1.003 5.799.826.01.216.056.247.124.081.488-1.209-2.603-2.568-4.561-2.005zm68.576 1.204c.001.702.041.964.088.581a5.621 5.621 0 00-.001-1.278c-.049-.319-.088-.006-.087.697zm-15.182 3.78c-.762 2.125-1.834 4.802-2.384 5.95-.55 1.148-.959 2.087-.909 2.087.334 0 3.001-6.179 4.128-9.561 1.179-3.535.594-2.47-.835 1.524zm-49.12-1.764c-.673 1.784-4.463 1.996-5.78.323-.253-.323-.462-.496-.462-.385 0 .324 1.118 1.298 1.771 1.545 1.845.697 5.215-.641 4.793-1.905-.042-.125-.186.064-.322.422zm7.547.294c-.68.629-.906 1.623-.588 2.585.458 1.388 2.032 1.864 2.945.893.637-.678.585-.889-.06-.242-1.156 1.156-2.671.305-2.671-1.5s1.515-2.656 2.671-1.501c.287.287.522.448.522.356 0-.965-1.97-1.378-2.819-.591zm31.014 1.363a154.448 154.448 0 01-1.544 2.821 86.691 86.691 0 00-1.055 1.916 90.64 90.64 0 01-1.143 2.076c-.35.616-.587 1.118-.527 1.118.138 0 3.645-6.172 4.689-8.251 1.082-2.158.786-1.931-.42.32zm25.533-.479c0 .82.039 1.129.085.687a7.97 7.97 0 00-.002-1.491c-.048-.378-.085-.017-.083.804zm-9.211-.398c-.243.309-.437.668-.432.799.004.13.145-.014.313-.323.341-.628.796-.872 1.281-.685.179.069.463.377.63.685.167.309.309.453.313.323.015-.421-.861-1.36-1.269-1.36-.217 0-.594.253-.836.561zm19.228 1.781c0 1.347.034 1.899.076 1.225.044-.673.044-1.775 0-2.449-.042-.673-.076-.122-.076 1.224zm-57.083-1.754c-.26.044-.712.364-1.006.713-1.952 2.32-.263 6.653 2.135 5.479 2.657-1.303 1.68-6.665-1.129-6.192zm1.405.611c2.128 1.491.769 6.293-1.533 5.417-1.542-.587-1.969-3.778-.685-5.118.699-.73 1.456-.832 2.218-.299zm-8.013.612c.003.467.046.635.097.369.051-.265.049-.648-.004-.851-.053-.204-.095.013-.093.482zm43.867.745c0 .526.041.742.092.479a3.025 3.025 0 000-.959c-.051-.263-.092-.048-.092.48zm2.767 0c0 .526.043.742.094.479a3.147 3.147 0 000-.959c-.051-.263-.094-.048-.094.48zm6.477 5.748c-.58 8.8-.868 10.876-1.992 14.333-.297.915-.49 1.715-.428 1.776.909.91 3.303-16.82 2.873-21.277-.037-.377-.24 1.948-.453 5.168zm-8.577-3.672c.222.263.567.479.765.479.198 0 .543-.216.766-.479.405-.48.405-.48-.037-.107-.243.205-.572.372-.729.372-.157 0-.485-.167-.728-.372-.442-.373-.442-.373-.037.107zm-180.995 1.282c.167.272 1.413 1.195 1.413 1.046 0-.052-.351-.364-.782-.692-.429-.327-.714-.487-.631-.354zm199.923.9c0 .643.04.908.088.586a4.69 4.69 0 000-1.172c-.048-.321-.088-.058-.088.586zm-200.195.107c0 .116.184.548.408.958.224.409.408.649.408.532 0-.117-.184-.549-.408-.959-.224-.41-.408-.649-.408-.531zm56.874.903c1.486.037 3.977.037 5.535.001 1.559-.037.343-.066-2.702-.066-3.044 0-4.32.029-2.833.065zm-5.311.207c.322.049.85.049 1.172 0 .321-.048.058-.088-.587-.088-.644 0-.907.04-.585.088zm14.908 0c.323.05.802.049 1.064-.002.262-.052-.003-.091-.588-.09-.586.003-.8.044-.476.092zm120.118.327c-.405.478-.405.478.037.106.874-.734 1.675-.424 2.119.82.162.456.3.658.305.447.036-1.492-1.591-2.4-2.461-1.373zm-137.687-.116c.263.051.694.051.958 0 .263-.051.047-.092-.479-.092-.528 0-.744.041-.479.092zm20.016 0c.266.051.649.05.853-.004.203-.054-.013-.095-.482-.093-.469.002-.635.046-.371.097zm-22.143.213c.264.051.647.049.852-.004.203-.053-.014-.095-.482-.093-.469.003-.635.046-.37.097zm-2.025.21c.204.052.54.052.745 0 .204-.054.037-.099-.373-.099-.411 0-.578.045-.372.099zm-1.704.212c.205.053.54.053.746 0 .204-.054.037-.097-.373-.097s-.578.043-.373.097zm143.059.718c-.015.416.124.944.308 1.17.184.227.259.27.167.095-.092-.177-.231-.703-.309-1.172l-.14-.851-.026.758zm13.87.2c0 .527.043.743.094.479.05-.264.05-.695 0-.958-.051-.264-.094-.048-.094.479zm-41.082 2.038c-3.038 4.703-3.822 5.835-6.484 9.353-10.048 13.284-15.413 16.45-24.886 14.688-2.79-.519-3.462-.56-1.703-.104 4.587 1.191 9.089 1.135 11.751-.144 6.208-2.982 15.092-12.945 22.509-25.246 1.03-1.706.192-.682-1.187 1.453zm-127.186-1.689c-3.168.411-5.152.744-5.05.847.091.09 8.605-.934 8.99-1.081.463-.177-1.824-.041-3.94.234zm48.974.166c2.289.658 4.354 1.515 7.217 2.999 1.241.642 2.018.982 1.726.752-1.677-1.312-7.79-3.9-9.804-4.152-.657-.083-.39.042.861.401zm90.69.372c-.145.273-.69 1.054-1.211 1.735l-.949 1.238.552 2.2c.599 2.391 1.822 5.949 1.988 5.783.056-.056-.106-.66-.363-1.341-.256-.682-.792-2.433-1.193-3.89l-.729-2.651.606-.757c.857-1.07 1.79-2.587 1.666-2.71-.058-.058-.222.12-.367.393zm16.897.114c-.259.269-.393.489-.299.489.207 0 .982-.828.857-.916-.047-.035-.299.157-.558.427zm-163.747.424c.206.052.541.052.746 0 .205-.054.037-.099-.373-.099s-.577.045-.373.099zm-9.366.218c.325.049.804.048 1.066-.002.262-.051-.004-.091-.589-.09-.585.002-.8.044-.477.092zm6.172 0c.322.049.85.049 1.172 0 .322-.048.059-.089-.585-.089-.645 0-.909.041-.587.089zm178.427.486c0 .41.044.577.098.373a1.765 1.765 0 000-.745c-.054-.206-.098-.038-.098.372zm-.213 1.704c0 .409.045.577.098.372a1.765 1.765 0 000-.745c-.053-.204-.098-.037-.098.373zm-108.622 1.362c.049.046 1.189.832 2.537 1.744 1.347.913 4.46 3.155 6.919 4.983 4.874 3.621 8.37 6.121 9.37 6.702l.639.371-.639-.552c-.351-.304-1.454-1.103-2.449-1.775-.995-.673-3.439-2.427-5.43-3.899-6.942-5.133-8.311-6.124-9.517-6.889-1.02-.647-1.765-1.003-1.43-.685zm-158.008 1.694c0 .231 2.122 4.396 2.24 4.396.095 0-1.958-4.238-2.158-4.454-.045-.048-.082-.023-.082.058zm74.736 2.971c0 .038.312.349.693.693l.691.626-.625-.693c-.582-.645-.759-.789-.759-.626zm2.769 2.809c.397.41.77.746.828.746.058 0-.219-.336-.616-.746-.397-.411-.77-.745-.828-.745-.059 0 .219.334.616.745zm161.609-.027c0 .23.846 1.837.966 1.837.059 0-.098-.408-.349-.905-.494-.978-.617-1.165-.617-.932zm1.51 2.896c1.017 1.891 4.442 4.909 5.561 4.901.151-.002-.227-.236-.84-.522-1.225-.57-2.605-1.878-4.052-3.841-1.201-1.629-1.297-1.707-.669-.538zm12.553 1.267c-.647 1.009-1.877 2.265-2.991 3.055-.519.368-.514.369.199.028.918-.44 2.523-2.082 3.168-3.245.676-1.216.445-1.117-.376.162zm-170.562-.518c0 .144 1.728 1.005 1.826.908.044-.045-.349-.289-.873-.544-.524-.255-.953-.418-.953-.364zm95.603 3.156c0 .394 8.384 4.822 8.641 4.564.056-.055-.405-.315-1.023-.576-1.086-.458-6.162-3.153-7.139-3.791-.264-.172-.479-.261-.479-.197zm68.937 1.151c.383.049.958.048 1.278-.001.32-.048.007-.088-.695-.087-.703.001-.965.041-.583.088zm-143.107.84a.592.592 0 00-.138.373c.003.156.054.153.16-.01.086-.133.348-.29.583-.349.411-.102.411-.108-.018-.131-.244-.014-.507.039-.587.117zm2.789.222c.265.051.648.049.852-.004.204-.053-.014-.096-.481-.093-.469.002-.635.046-.371.097zm3.409.216a5.67 5.67 0 001.277-.001c.32-.049.007-.089-.696-.087-.703.001-.965.041-.581.088zm3.402.213a6.679 6.679 0 001.385 0c.38-.047.069-.085-.693-.085-.761 0-1.073.038-.692.085zm4.041.212a7.882 7.882 0 001.491.003c.442-.046.132-.086-.688-.086-.82-.001-1.181.036-.803.083zm144.029.389c-.357.783-.289.949.097.237.18-.332.289-.644.239-.692-.049-.049-.199.156-.336.455zm-139.872-.174a9.258 9.258 0 001.597 0c.439-.046.08-.083-.799-.083-.877 0-1.238.037-.798.083zm104.623 1.442c-.189.293-.498.796-.688 1.118l-.345.585.429-.518c.506-.612 1.176-1.717 1.042-1.717-.052 0-.249.24-.438.532zm6.044 1.656c0 .032.742.774 1.651 1.649l1.649 1.592-1.59-1.65c-1.48-1.532-1.71-1.747-1.71-1.591zm-129.617 1.325c.003.469.046.635.097.37.051-.265.049-.649-.004-.852-.053-.203-.096.013-.093.482zm-.192 3.939c0 .995.036 1.402.081.905a12.15 12.15 0 000-1.81c-.045-.498-.081-.091-.081.905zm117.886.532c-.518.527-.893.958-.834.958.058 0 .529-.431 1.046-.958.517-.527.893-.958.834-.958-.059 0-.529.431-1.046.958zm-41.52.638c0 .144 1.728 1.004 1.825.908.045-.045-.349-.29-.872-.544-.524-.256-.953-.419-.953-.364zm61.108 0c0 .143 2.156 1.217 2.252 1.121.043-.043-.445-.336-1.086-.65-.642-.314-1.166-.526-1.166-.471zm12.776.959c-.41.225-.668.413-.575.417.226.012 1.427-.612 1.427-.741 0-.14-.013-.136-.852.324zm-234.962.852c.457.468.88.851.939.851.057 0-.269-.383-.726-.851-.457-.469-.879-.852-.938-.852-.059 0 .267.383.725.852zm84.917 1.809c.001.703.041.965.088.583a5.673 5.673 0 00-.003-1.278c-.048-.32-.086-.007-.085.695zm-81.191 2.13c.99.995 1.849 1.81 1.908 1.81.057 0-.704-.815-1.694-1.81-.991-.995-1.849-1.81-1.908-1.81-.059 0 .704.815 1.694 1.81zm81.398.639c.002.585.043.799.092.476.05-.324.048-.803-.003-1.065-.051-.262-.091.004-.089.589zm106.721-.533c-.269.116-.308.184-.106.184.175 0 .511-.083.745-.184.268-.115.307-.183.106-.183-.175 0-.511.083-.745.183zm-90.758 1.597c.002.469.046.635.097.37.05-.264.048-.647-.005-.852-.054-.203-.095.014-.092.482zm80.272-.598c.204.054.54.054.745 0 .204-.054.037-.097-.374-.097-.41 0-.577.043-.371.097zm-194.88.772c0 .037.312.347.693.691l.691.626-.625-.693c-.582-.645-.759-.789-.759-.624zm98.856.997c0 .527.04.743.092.48a3.025 3.025 0 000-.959c-.052-.263-.092-.048-.092.479zm-77.67.853c.457.467.88.85.939.85.057 0-.268-.383-.726-.85-.457-.469-.879-.853-.937-.853-.059 0 .267.384.724.853zm93.239 2.235c0 1.639.033 2.282.074 1.427.041-.853.04-2.195-.001-2.98-.041-.786-.074-.087-.073 1.553zm-109.634.958c1.637 1.64 3.023 2.981 3.082 2.981.058 0-1.232-1.341-2.868-2.981-1.637-1.64-3.024-2.981-3.083-2.981-.058 0 1.233 1.341 2.869 2.981zm94.277-1.704c0 .528.042.744.093.479.05-.263.05-.693 0-.958-.051-.263-.093-.047-.093.479zm-76.497-.359c0 .037.31.349.691.693l.692.624-.626-.691c-.582-.645-.757-.791-.757-.626zm76.706 2.595c.003.469.046.635.097.37.05-.264.049-.647-.005-.852-.054-.203-.094.014-.092.482zm50.675.427c.003.467.046.635.097.369.051-.265.05-.648-.003-.851-.054-.204-.095.013-.094.482zm-50.458 1.809c0 .527.041.743.092.479a3.018 3.018 0 000-.958c-.051-.264-.092-.048-.092.479zm50.26.852c0 .761.039 1.073.086.692a6.82 6.82 0 000-1.385c-.047-.38-.086-.069-.086.693zm-35.146-.106c.002.467.046.635.097.369.05-.265.048-.648-.005-.851-.054-.204-.095.013-.092.482zm-105.559.531c.458.469.88.852.939.852.058 0-.268-.383-.725-.852-.458-.467-.879-.851-.938-.851-.059 0 .267.384.724.851zm90.661 1.385c.002.585.042.8.092.475a3.777 3.777 0 00-.004-1.064c-.049-.262-.09.003-.088.589zm-89.064-.041c0 .037.312.349.693.693l.692.626-.626-.693c-.583-.645-.759-.789-.759-.626zm89.298 5.471c0 1.464.035 2.062.075 1.33.043-.733.043-1.93 0-2.662-.04-.732-.075-.132-.075 1.332zm-12.374-1.066c0 .528.042.744.093.479.05-.263.05-.694 0-.958-.051-.263-.093-.047-.093.479zm62.184 1.066c0 .76.039 1.071.086.691a6.81 6.81 0 000-1.384c-.047-.381-.086-.069-.086.693zm.198 2.661c.003.469.046.635.097.37.051-.266.05-.649-.003-.852-.054-.203-.095.013-.094.482zm-62.39 1.383c0 .41.043.578.097.373.054-.204.054-.54 0-.744-.054-.206-.097-.039-.097.371zm12.137.639c0 .41.043.578.097.373.053-.204.053-.54 0-.745-.054-.205-.097-.038-.097.372zm-1.072 5.046c-.133.433-.207.823-.164.867.044.043.193-.27.334-.695.14-.426.214-.815.163-.867-.05-.051-.2.262-.333.695zm15.277 5.334l-.735.799.799-.734c.439-.403.798-.762.798-.798 0-.162-.18-.009-.862.733zm-30.323.604c-.199.303-.324.588-.28.633.045.044.25-.203.455-.551.459-.777.322-.84-.175-.082zm8.562 2.021c-.204.121-.373.31-.373.421 0 .111.169.194.373.185.241-.011.275-.056.095-.128-.207-.083-.18-.185.107-.402.451-.343.332-.386-.202-.076zm-45.299.409c.409.225.841.409.958.409.117 0-.122-.184-.532-.409-.411-.223-.841-.407-.959-.407-.117 0 .123.184.533.407zm61.748.533c-.527.282-.883.517-.79.523.226.012 1.854-.824 1.854-.954 0-.14.009-.144-1.064.431zm12.402 19.63c.206.053.541.053.746 0 .205-.054.037-.098-.373-.098s-.577.044-.373.098zm1.916.213c.206.052.541.052.747 0 .204-.054.037-.099-.374-.099-.41 0-.577.045-.373.099zm1.705.212c.204.054.54.054.745 0 .204-.054.037-.097-.374-.097-.41 0-.577.043-.371.097zm2.025.217c.264.051.647.049.852-.004.203-.053-.014-.096-.482-.093-.469.003-.635.046-.37.097zm2.129.213c.265.05.648.049.851-.005.205-.053-.013-.094-.482-.092-.467.003-.634.046-.369.097zm2.129.213c.265.051.649.049.852-.004.203-.054-.013-.095-.482-.094-.469.003-.635.046-.37.098zm2.343.213c.264.051.647.048.851-.004.204-.054-.013-.096-.482-.093-.468.002-.635.046-.369.097zm2.658.209c.205.053.541.053.745 0 .206-.053.037-.098-.372-.098-.41 0-.577.045-.373.098zm2.664.216c.266.051.649.05.852-.004.203-.053-.013-.094-.482-.093-.468.003-.635.046-.37.097zm3.191.214c.265.049.695.049.958 0 .265-.051.049-.094-.479-.094-.526 0-.742.043-.479.094zm3.407.212c.264.051.695.051.959 0 .263-.05.047-.092-.479-.092-.527 0-.743.042-.48.092zm4.152.216c.322.048.85.048 1.172 0 .322-.049.059-.09-.586-.09-.644 0-.907.041-.586.09zm5.425.213a7.966 7.966 0 001.491.003c.442-.046.133-.086-.687-.086-.821-.001-1.182.036-.804.083zm9.427.06l-.958.148.892.032c.491.018.951-.064 1.024-.18.073-.118.102-.199.067-.181-.038.018-.499.099-1.025.181z" fill="#000"/></svg>