<?xml version="1.0" encoding="utf-8"?>
<!-- Generator: Adobe Illustrator 25.4.0, SVG Export Plug-In . SVG Version: 6.00 Build 0)  -->
<svg version="1.1" id="b286b5ab-f55c-499e-be49-dbb666ac0d2b"
	 xmlns="http://www.w3.org/2000/svg" xmlns:xlink="http://www.w3.org/1999/xlink" x="0px" y="0px" viewBox="0 0 500 441.7"
	 style="enable-background:new 0 0 500 441.7;" xml:space="preserve">
<style type="text/css">
	.st0{fill:#1CC674;}
</style>
<g id="efebfd7b-7b2b-4fe2-abf5-7a9e2d63f0bf">
	<path class="st0" d="M130.7,358.3c6.2-26.6,13.6-52.9,21.8-79c4-13.1,8.4-26,12.7-39s9.1-25.8,13.9-38.6s9.8-25.5,15-38.1
		s10.5-25.2,16.1-37.7C221.3,101,252.3,24,265.4,0c-6.8,7.7-13.6,15.4-20.1,23.3c-1,1.2,9-16.7,8-15.5
		C171.5,106.2,83.6,290.6,43.3,412.2c27.1-3.5,54.1-6.9,81.1-10.8c13.5-2,27-3.8,40.4-6s26.9-4.1,40.3-6.4s26.9-4.5,40.3-6.9
		c13.4-2.4,26.8-4.9,40.2-7.3c26.8-5,53.5-14.6,80.4-19.7"/>
	<path class="st0" d="M256.6,145.9c19.9,18.7,39,38.3,57.5,58.3c9.3,10,18.3,20.2,27.4,30.5s17.8,20.8,26.5,31.3
		s17.2,21.3,25.5,32.1s16.6,21.7,24.5,32.8c16,22.1,67.2,87.4,81.5,110.8c-3.2-9.8-6.6-19.5-10.1-29.1c-0.5-1.5,10,16.1,9.4,14.6
		c-44.3-120-160-288.3-245.3-384c-10.5,25.2-21,50.3-31.2,75.6c-5.1,12.7-10.2,25.3-15.1,38s-9.9,25.4-14.6,38.1
		s-9.5,25.5-14.2,38.3s-9.2,25.7-13.8,38.5c-9.1,25.7-14.1,53.7-23.1,79.5"/>
	<path class="st0" d="M377.2,361.6c-26.2,7.9-52.6,14.7-79.3,20.7c-13.3,3.1-26.7,5.8-40.1,8.5s-26.9,5-40.3,7.3s-27,4.2-40.6,6.1
		s-27.1,3.5-40.7,4.9C109,411.7,26.9,423.4-0.5,424.1c10.1,2.1,20.2,4,30.3,5.8c1.5,0.3-18.9,0.6-17.4,0.8
		c126.1,21.6,329.7,5.5,455.2-20.4c-16.6-21.7-33.1-43.4-49.9-64.9c-8.5-10.7-16.8-21.4-25.4-32s-17-21.2-25.7-31.7
		s-17.3-21-26.1-31.4s-17.6-20.8-26.5-31.2c-17.7-20.7-39.4-39.1-57.3-59.7"/>
</g>
</svg>
