<svg id="Layer_1" data-name="Layer 1" xmlns="http://www.w3.org/2000/svg" viewBox="0 0 450 450"><defs><style>.cls-1{fill:#0a0806;}.cls-2{fill:#48dbb4;}</style></defs><title>keep-token-main</title><circle class="cls-1" cx="225" cy="225" r="225"/><polygon class="cls-2" points="305.28 174.2 262.43 224.78 304.97 274.74 318.31 274.74 318.31 314.82 228.46 314.82 228.46 274.74 242.49 274.74 214.77 242 202.08 242 202.08 274.74 218.11 274.74 218.11 314.82 130.27 314.82 130.27 274.74 149.3 274.74 149.3 174.2 130.27 174.2 130.27 134.12 152.31 134.12 152.31 149.15 164 149.15 164 134.12 184.71 134.12 184.71 149.15 196.4 149.15 196.4 134.12 218.11 134.12 218.11 174.2 202.08 174.2 202.08 206.94 213.43 206.94 242.69 174.2 228.46 174.2 228.46 134.12 318.31 134.12 318.31 174.2 305.28 174.2"/></svg>