<svg viewBox="0 0 71 71" xmlns="http://www.w3.org/2000/svg" xmlns:xlink="http://www.w3.org/1999/xlink"><linearGradient id="a"><stop offset="0" stop-color="#08bccd"/><stop offset="1" stop-color="#2da1f8"/></linearGradient><linearGradient id="b" x1="50%" x2="50%" xlink:href="#a" y1="97.784%" y2="1.559%"/><linearGradient id="c" x1="50%" x2="43.760087%" xlink:href="#a" y1="97.784%" y2="-16.397%"/><g fill="none" fill-rule="evenodd" transform="translate(5)"><ellipse cx="29.175587" cy="49.3136" fill="url(#b)" rx="4.520161" ry="4.558528"/><path d="m61.6385631 17.612-30.8192816-17.612-30.8192815 17.612v35.224l30.8192815 17.612 30.8192816-17.612zm-20.9754949-2.3843939c-.0011731 1.1118759-.8976778 2.0142739-2.0070381 2.0202319h-7.4647545v4.3504349h5.5063784c.5334472.0011486 1.0445903.2146394 1.4209833.5935066.3763929.3788673.5872032.8920759.5860548 1.4267253.0017935 1.1129271-.8966147 2.0167561-2.0070381 2.0191481h-5.5063784v15.4877219c.0032442.0715317.0032442.1430636 0 .2145955 3.8951247 1.0317921 6.4277127 4.8078049 5.9248718 8.8287601-.5039224 4.0209551-3.8886364 7.0458837-7.9156892 7.0731626-4.0281342.0269119-7.4528592-2.9514127-8.0097691-6.965865-.5569098-4.0144521 1.9248534-7.8229793 5.8070015-8.9078785-.0093783-.0780555-.0144325-.1565719-.0151392-.235188v-25.8002252c-.0014357-.5608945.2196498-1.0993564.6145594-1.4967823s.9312496-.6212157 1.4908841-.6220768c.1762646 0 .3514479.0238439.5223057.0682804.1653945-.0446636.3358749-.0676155.5071664-.0682804h8.5450513c1.1093604.005958 2.005865.908356 2.0070382 2.0202319l-.0064883-.0054191z" fill="url(#c)" fill-rule="nonzero"/></g></svg>