<?xml version="1.0" standalone="no"?>
<!DOCTYPE svg PUBLIC "-//W3C//DTD SVG 20010904//EN"
 "http://www.w3.org/TR/2001/REC-SVG-20010904/DTD/svg10.dtd">
<svg version="1.0" xmlns="http://www.w3.org/2000/svg"
 width="500.000000pt" height="167.000000pt" viewBox="0 0 500.000000 167.000000"
 preserveAspectRatio="xMidYMid meet">

<g transform="translate(0.000000,167.000000) scale(0.100000,-0.100000)"
fill="#000000" stroke="none">
<path d="M403 1279 l-103 -90 0 -185 c0 -101 3 -184 7 -184 4 0 52 44 105 97
l98 98 0 -138 c0 -75 3 -137 7 -137 4 0 18 10 31 23 l24 22 149 -152 148 -153
148 0 148 0 -150 150 -150 150 -142 0 c-79 0 -143 3 -143 8 0 4 63 70 140 147
l140 140 0 150 0 150 -170 -170 -170 -170 0 168 c0 92 -3 167 -7 166 -5 0 -54
-41 -110 -90z"/>
<path d="M1383 982 c-49 -19 -52 -23 -20 -37 22 -10 22 -13 25 -217 2 -202 2
-207 -20 -227 l-22 -21 80 1 c68 0 75 2 54 12 -34 16 -40 26 -40 75 0 27 4 42
13 42 6 0 36 -29 66 -65 l54 -65 54 0 c57 0 65 13 14 23 -21 4 -46 27 -86 76
-31 39 -54 74 -51 79 12 20 114 92 129 92 10 0 17 5 17 10 0 6 -29 10 -67 10
-63 -1 -67 -2 -48 -16 19 -15 18 -17 -35 -66 l-55 -51 -3 181 c-1 100 -6 181
-10 181 -4 -1 -26 -9 -49 -17z"/>
<path d="M2566 948 c-9 -29 -14 -88 -8 -88 4 0 15 14 24 30 16 29 20 30 88 30
l70 0 0 -205 0 -204 -27 -15 c-27 -14 -23 -15 62 -16 l90 0 -32 20 -33 20 0
200 0 200 80 0 c77 0 81 -1 90 -25 14 -37 20 -31 20 20 l0 45 -210 0 c-160 0
-212 -3 -214 -12z"/>
<path d="M4227 770 c-19 -22 -47 -26 -65 -8 -6 6 -34 12 -63 12 -45 1 -54 -3
-80 -32 -36 -40 -41 -108 -10 -137 20 -17 20 -17 -2 -46 -18 -25 -20 -34 -10
-59 10 -26 9 -32 -8 -40 -13 -8 -19 -21 -19 -45 0 -28 6 -37 29 -49 50 -26
107 -30 156 -11 107 40 100 145 -10 145 -41 0 -112 14 -122 23 -3 3 -2 15 2
26 5 18 15 21 56 21 86 0 129 35 129 103 0 21 6 37 14 40 13 5 33 64 24 72 -2
3 -12 -4 -21 -15z m-97 -20 c30 -16 44 -82 26 -123 -15 -37 -39 -49 -73 -36
-29 11 -46 44 -46 91 0 63 44 94 93 68z m28 -296 c79 -16 27 -94 -62 -94 -52
0 -85 16 -92 45 -10 39 11 55 71 55 29 0 66 -3 83 -6z"/>
<path d="M1870 762 c-41 -23 -80 -91 -80 -141 0 -49 28 -101 70 -129 46 -31
105 -26 157 14 38 29 30 47 -9 20 -54 -38 -135 -2 -158 70 -20 59 -12 65 87
64 49 -1 93 -1 100 -1 19 1 -3 54 -36 85 -37 36 -86 42 -131 18z m91 -32 c17
-16 28 -34 24 -40 -3 -5 -37 -10 -75 -10 l-70 0 11 28 c22 58 65 67 110 22z"/>
<path d="M3124 764 c-41 -20 -62 -57 -44 -79 22 -27 40 -18 40 20 0 28 5 37
22 44 49 18 92 -22 86 -80 -3 -31 -6 -33 -56 -44 -62 -14 -102 -48 -102 -84 0
-32 8 -44 37 -60 31 -16 53 -14 94 8 33 18 38 18 52 4 18 -18 63 -21 80 -4 8
8 6 11 -9 11 -37 0 -44 20 -44 125 -1 108 -8 127 -54 145 -37 14 -65 12 -102
-6z m106 -188 c0 -54 -20 -78 -63 -74 -60 6 -63 73 -5 101 56 28 68 23 68 -27z"/>
<path d="M3510 761 c-40 -17 -42 -19 -20 -22 25 -4 25 -5 28 -113 2 -91 0
-112 -14 -127 -17 -18 -15 -19 56 -19 74 0 79 4 38 24 -21 11 -23 19 -26 100
-3 80 -1 91 19 112 32 34 90 33 118 -2 18 -23 21 -41 21 -117 0 -74 -3 -92
-17 -103 -16 -12 -8 -13 55 -14 46 0 71 4 67 10 -3 6 -14 10 -25 10 -25 0 -30
19 -30 111 0 96 -16 134 -67 156 -40 16 -73 11 -115 -18 l-28 -20 0 25 c0 30
-1 31 -60 7z"/>
<path d="M4487 766 c-71 -26 -97 -66 -97 -152 0 -52 3 -59 38 -94 91 -91 246
-45 267 79 10 62 -26 129 -85 159 -51 25 -70 26 -123 8z m99 -21 c33 -22 54
-77 54 -140 0 -49 -4 -60 -29 -86 -37 -37 -79 -38 -120 -4 -60 51 -69 177 -17
222 31 27 81 30 112 8z"/>
<path d="M2160 764 c0 -3 9 -13 19 -22 21 -19 121 -250 121 -281 0 -10 -11
-35 -25 -55 -14 -21 -27 -42 -28 -48 -3 -15 30 -18 41 -5 5 7 37 93 72 192 35
99 72 190 83 203 l20 22 -56 0 c-56 0 -76 -13 -37 -23 12 -3 20 -14 20 -27 0
-27 -50 -170 -59 -170 -11 0 -82 180 -76 191 4 5 13 9 21 9 8 0 14 5 14 10 0
6 -28 10 -65 10 -36 0 -65 -3 -65 -6z"/>
<path d="M407 622 l-107 -107 0 -108 c0 -62 4 -107 9 -105 5 2 55 41 110 88
l101 85 0 128 c0 70 -1 127 -3 127 -1 0 -51 -48 -110 -108z"/>
</g>
</svg>
