<?xml version="1.0" encoding="utf-8"?>
<!-- Generator: Adobe Illustrator 16.0.0, SVG Export Plug-In . SVG Version: 6.00 Build 0)  -->
<!DOCTYPE svg PUBLIC "-//W3C//DTD SVG 1.1//EN" "http://www.w3.org/Graphics/SVG/1.1/DTD/svg11.dtd" [
	<!ENTITY ns_extend "http://ns.adobe.com/Extensibility/1.0/">
	<!ENTITY ns_ai "http://ns.adobe.com/AdobeIllustrator/10.0/">
	<!ENTITY ns_graphs "http://ns.adobe.com/Graphs/1.0/">
	<!ENTITY ns_vars "http://ns.adobe.com/Variables/1.0/">
	<!ENTITY ns_imrep "http://ns.adobe.com/ImageReplacement/1.0/">
	<!ENTITY ns_sfw "http://ns.adobe.com/SaveForWeb/1.0/">
	<!ENTITY ns_custom "http://ns.adobe.com/GenericCustomNamespace/1.0/">
	<!ENTITY ns_adobe_xpath "http://ns.adobe.com/XPath/1.0/">
]>
<svg version="1.1" id="Layer_1" xmlns:x="&ns_extend;" xmlns:i="&ns_ai;" xmlns:graph="&ns_graphs;"
	 xmlns="http://www.w3.org/2000/svg" xmlns:xlink="http://www.w3.org/1999/xlink" x="0px" y="0px" width="302px" height="302px"
	 viewBox="0 0 302 302" enable-background="new 0 0 302 302" xml:space="preserve">
<metadata>
	<sfw  xmlns="&ns_sfw;">
		<slices></slices>
		<sliceSourceBounds  height="302" width="302" y="269.5" x="146.5" bottomLeftOrigin="true"></sliceSourceBounds>
	</sfw>
</metadata>
<path fill="#132CC4" d="M302,277c0,13.807-11.193,25-25,25H25c-13.807,0-25-11.193-25-25V25C0,11.193,11.193,0,25,0h252
	c13.807,0,25,11.193,25,25V277z"/>
<polygon id="Shape" fill="#FFFFFF" points="80.696,73.353 86.955,73.353 86.955,88.552 87.102,88.552 101.807,73.353 
	110.248,73.353 93.809,89.594 111.342,108.519 102.55,108.519 87.102,90.886 86.955,90.886 86.955,108.519 80.696,108.519 "/>
<path id="Shape_1_" fill="#FFFFFF" d="M191.225,213.234c0-2.813,0.469-5.355,1.415-7.627c0.944-2.266,2.251-4.193,3.923-5.783
	s3.66-2.816,5.961-3.678c2.301-0.858,4.811-1.291,7.525-1.291c2.746,0,5.279,0.433,7.598,1.291c2.318,0.86,4.32,2.088,6.012,3.678
	c1.688,1.59,3.005,3.52,3.947,5.783c0.944,2.271,1.416,4.812,1.416,7.627c0,2.748-0.472,5.256-1.416,7.522
	c-0.942,2.269-2.259,4.224-3.947,5.863c-1.69,1.637-3.692,2.914-6.012,3.822c-2.317,0.911-4.852,1.364-7.598,1.364
	c-2.716,0-5.227-0.453-7.525-1.364c-2.301-0.908-4.289-2.187-5.961-3.822c-1.672-1.64-2.979-3.597-3.923-5.863
	C191.693,218.49,191.225,215.982,191.225,213.234z M198.027,213.234c0,1.888,0.289,3.615,0.867,5.189
	c0.582,1.572,1.406,2.938,2.483,4.098c1.076,1.158,2.351,2.062,3.825,2.707c1.472,0.646,3.105,0.968,4.893,0.968
	c1.788,0,3.428-0.321,4.916-0.968c1.489-0.646,2.771-1.549,3.85-2.707c1.076-1.159,1.904-2.524,2.482-4.098
	c0.578-1.574,0.87-3.303,0.87-5.189c0-1.822-0.292-3.51-0.87-5.066c-0.578-1.558-1.396-2.914-2.46-4.072
	c-1.06-1.16-2.332-2.067-3.821-2.73c-1.492-0.664-3.146-0.994-4.967-0.994c-1.822,0-3.469,0.33-4.943,0.994
	c-1.475,0.663-2.738,1.57-3.797,2.73c-1.062,1.158-1.883,2.516-2.461,4.072C198.318,209.725,198.027,211.412,198.027,213.234z"/>
<polygon id="Shape_2_" fill="#FFFFFF" points="138.106,187.061 103.662,187.061 103.662,182.031 133.078,182.031 133.078,150.99 
	161.902,150.99 161.902,120.834 195.904,120.834 195.904,125.862 166.932,125.862 166.932,156.02 138.106,156.02 "/>
</svg>
