<?xml version="1.0" encoding="utf-8"?>
<!-- Generator: Adobe Illustrator 24.2.3, SVG Export Plug-In . SVG Version: 6.00 Build 0)  -->
<svg version="1.1" id="Layer_1" xmlns="http://www.w3.org/2000/svg" xmlns:xlink="http://www.w3.org/1999/xlink" x="0px" y="0px"
	 viewBox="0 0 80 80" style="enable-background:new 0 0 80 80;" xml:space="preserve">
<style type="text/css">
	.st0{display:none;opacity:0.2;fill:#FF1749;enable-background:new    ;}
	.st1{display:none;fill:#0E3CA5;}
	.st2{fill:#0E3CA5;}
	.st3{fill:#5493F7;}
	.st4{display:none;opacity:0.3;fill:#FF1A82;enable-background:new    ;}
	.st5{opacity:0.3;}
	.st6{fill:url(#SVGID_1_);fill-opacity:0;}
	.st7{opacity:0.0625;fill:url(#SVGID_2_);enable-background:new    ;}
	.st8{opacity:0.125;fill:url(#SVGID_3_);enable-background:new    ;}
	.st9{opacity:0.1875;fill:url(#SVGID_4_);enable-background:new    ;}
	.st10{opacity:0.25;fill:url(#SVGID_5_);enable-background:new    ;}
	.st11{opacity:0.3125;fill:url(#SVGID_6_);enable-background:new    ;}
	.st12{opacity:0.375;fill:url(#SVGID_7_);enable-background:new    ;}
	.st13{opacity:0.4375;fill:url(#SVGID_8_);enable-background:new    ;}
	.st14{opacity:0.5;fill:url(#SVGID_9_);enable-background:new    ;}
	.st15{opacity:0.5625;fill:url(#SVGID_10_);enable-background:new    ;}
	.st16{opacity:0.625;fill:url(#SVGID_11_);enable-background:new    ;}
	.st17{opacity:0.6875;fill:url(#SVGID_12_);enable-background:new    ;}
	.st18{opacity:0.75;fill:url(#SVGID_13_);enable-background:new    ;}
	.st19{opacity:0.8125;fill:url(#SVGID_14_);enable-background:new    ;}
	.st20{opacity:0.875;fill:url(#SVGID_15_);enable-background:new    ;}
	.st21{opacity:0.9375;fill:url(#SVGID_16_);enable-background:new    ;}
	.st22{fill:url(#SVGID_17_);}
	.st23{fill:url(#SVGID_18_);}
	.st24{fill:url(#SVGID_19_);}
	.st25{fill:url(#SVGID_20_);}
	.st26{fill:url(#SVGID_21_);}
	.st27{fill:url(#SVGID_22_);}
	.st28{fill:url(#SVGID_23_);}
	.st29{fill:url(#SVGID_24_);}
	.st30{fill:url(#SVGID_25_);}
	.st31{fill:url(#SVGID_26_);}
	.st32{fill:url(#SVGID_27_);}
	.st33{fill:url(#SVGID_28_);}
	.st34{fill:url(#SVGID_29_);}
	.st35{fill:url(#SVGID_30_);}
	.st36{fill:url(#SVGID_31_);}
	.st37{fill:url(#SVGID_32_);}
	.st38{fill:url(#SVGID_33_);}
	.st39{fill:url(#SVGID_34_);}
	.st40{fill:url(#SVGID_35_);}
	.st41{fill:url(#SVGID_36_);}
	.st42{fill:url(#SVGID_37_);}
	.st43{fill:url(#SVGID_38_);}
	.st44{fill:url(#SVGID_39_);}
	.st45{fill:url(#SVGID_40_);}
	.st46{opacity:0.19;}
	.st47{fill:url(#SVGID_41_);}
</style>
<g>
	<rect class="st0" width="80" height="80"/>
	<g>
		<g id="Symbol_3_">
			<g>
				<g>
					<path class="st1" d="M21.6,16.13C12.38,28.32,47.85,36.8,60.41,34.75c2.2-0.36,8.91-1.45,4.32-10.23
						c-0.65-1.1-1.54-2.54-2.26-3.59c-0.87-1.1-2.09-2.52-3.04-3.54c-0.3-0.3-0.61-0.6-0.93-0.89c-2.45-2.14-7.55-6.59-20.61-6.74
						C30.16,9.92,24.68,12.06,21.6,16.13"/>
					<g>
						<path class="st2" d="M33.66,55.69c1.67,6.17,7.65,10.87,10.67,10.68c0.11-0.01,11.45-2.12,17.67-12.5
							c4.83-8.08,3.19-15.88-3.39-16.05C56.24,38,30.48,43.95,33.66,55.69"/>
					</g>
					<g>
						<path class="st2" d="M57.99,16.09L57.99,16.09v-0.01c-5.04-4.29-11.57-6.88-18.7-6.88c-4.17,0-8.13,0.89-11.71,2.49
							c-0.64,0.27-1.25,0.57-1.83,0.9c-0.4,0.22-0.81,0.43-1.2,0.66l0.1,0.03c-1.19,0.82-2.21,1.78-3.05,2.88
							c-8.28,10.94,19.48,18.9,34.32,18.92C62.75,39.99,64.66,21.28,57.99,16.09z"/>
					</g>
					<path class="st1" d="M64.1,48.92c1.88-6.17-0.22-11.22-5.5-11.36c-2.37,0.17-28.12,6.12-24.94,17.87
						c1.67,6.17,7.65,10.87,10.67,10.68c0.09-0.01,9.03-1.68,15.39-9.3c2.65-1.73,4.67-3.06,4.7-3.11c0.66-1.17,1.25-2.39,1.75-3.66
						l0,0C65.98,49.84,65.22,49.44,64.1,48.92z"/>
				</g>
			</g>
			<g>
				<path class="st3" d="M29.25,16.31c-3.81,5.73-16.52,9.77-18.61,9.14c0-0.01-0.01-0.02-0.01-0.03c0.09-0.17,0.17-0.34,0.26-0.52
					c0.72-1.4,1.55-2.73,2.47-3.99s1.94-2.44,3.04-3.54s2.29-2.12,3.54-3.04c0.78-0.57,1.59-1.11,2.43-1.61
					c1.78-1.03,3.6-1.1,4.2-1.12C32.24,11.73,29.28,16.27,29.25,16.31"/>
				<path class="st3" d="M26.13,56.82c0.27,1.8-0.01,8.92-0.38,9.51c-0.32,0.02-0.98,0.06-2.89-1.01c-1.01-0.57-1.98-1.2-2.9-1.89
					c-1.26-0.92-2.44-1.94-3.54-3.04c-1.1-1.1-2.12-2.29-3.04-3.54c-0.92-1.26-1.75-2.59-2.47-3.99s-1.34-2.85-1.84-4.36
					c-0.5-1.51-0.89-3.07-1.15-4.68s-0.4-3.25-0.4-4.93s0.14-3.33,0.4-4.93c0.26-1.61,0.65-3.17,1.15-4.68
					c0.1-0.31,0.21-0.61,0.32-0.91l0,0c2.19,2.92,4.73,5.55,6.89,8.5c2.05,2.8,4.88,7.38,5.45,8.35
					C25.28,51.28,25.85,55.02,26.13,56.82"/>
				<path class="st3" d="M68.33,38.89c0,3.94-0.75,7.71-2.12,11.17c-3.58,3.85-27.74-5.63-27.97-5.73
					c-3.3-1.45-13.36-5.85-14.27-12.77c-1.3-9.95,18.89-16.89,27.77-17.15c1.06,0.01,4.3,0.05,6.19,1.58
					C64.3,21.56,68.33,29.76,68.33,38.89"/>
				<path class="st3" d="M51.98,65.87c-2.63,1.23-5.53,0.33-4.78-2.23c1.45-4.92,14.07-9.97,16.86-10.25
					c0.34-0.03,0.49,0.2,0.34,0.47C61.49,58.95,57.19,63.15,51.98,65.87"/>
			</g>
		</g>
		<circle class="st4" cx="37.91" cy="38.88" r="30.41"/>
	</g>
	<g>
		<g class="st5">
			
				<linearGradient id="SVGID_1_" gradientUnits="userSpaceOnUse" x1="20.96" y1="23.6777" x2="79.5" y2="23.6777" gradientTransform="matrix(1 0 0 -1 0 82)">
				<stop  offset="0.375" style="stop-color:#000000;stop-opacity:0"/>
				<stop  offset="1" style="stop-color:#000000;stop-opacity:0"/>
			</linearGradient>
			<path class="st6" d="M22.91,38.12c-1.08,0-1.95,0.74-1.95,1.66c0,9.39,0,21.41,0,30.9c0,1.25,0.87,2.26,1.95,2.26
				c28.73,0.36,56.62,8.56,56.59,4.42c0-10.33,0-24.48,0-34.81C79.53,38.32,51.64,38.13,22.91,38.12z"/>
			
				<linearGradient id="SVGID_2_" gradientUnits="userSpaceOnUse" x1="20.96" y1="23.8327" x2="79.11" y2="23.8327" gradientTransform="matrix(1 0 0 -1 0 82)">
				<stop  offset="0.375" style="stop-color:#000000;stop-opacity:0.0625"/>
				<stop  offset="1" style="stop-color:#000000;stop-opacity:0"/>
			</linearGradient>
			<path class="st7" d="M22.91,38.12c-1.08,0-1.95,0.74-1.95,1.66c0,9.39,0,21.41,0,30.9c0,1.25,0.87,2.25,1.95,2.26
				c28.54,0.17,56.21,8.16,56.2,4.15c-0.04-10.19-0.04-24.2,0-34.38C79.12,38.61,51.44,38.14,22.91,38.12z"/>
			
				<linearGradient id="SVGID_3_" gradientUnits="userSpaceOnUse" x1="20.95" y1="23.9785" x2="78.7" y2="23.9785" gradientTransform="matrix(1 0 0 -1 0 82)">
				<stop  offset="0.375" style="stop-color:#000000;stop-opacity:0.125"/>
				<stop  offset="1" style="stop-color:#000000;stop-opacity:0"/>
			</linearGradient>
			<path class="st8" d="M22.9,38.12c-1.08,0-1.95,0.74-1.95,1.66c0,9.39,0,21.41,0,30.9c0,1.25,0.87,2.25,1.95,2.26
				c28.34,0.17,55.82,7.76,55.8,3.88c-0.04-10.04-0.04-23.91,0-33.95C78.72,38.9,51.24,38.16,22.9,38.12z"/>
			
				<linearGradient id="SVGID_4_" gradientUnits="userSpaceOnUse" x1="20.95" y1="24.1246" x2="78.31" y2="24.1246" gradientTransform="matrix(1 0 0 -1 0 82)">
				<stop  offset="0.375" style="stop-color:#000000;stop-opacity:0.1875"/>
				<stop  offset="1" style="stop-color:#000000;stop-opacity:0"/>
			</linearGradient>
			<path class="st9" d="M22.9,38.12c-1.08,0-1.95,0.74-1.95,1.66c0,9.39,0,21.41,0,30.9c0,1.25,0.87,2.25,1.95,2.26
				c28.14,0.16,55.42,7.36,55.41,3.61c-0.04-9.9-0.04-23.62,0-33.52C78.33,39.2,51.04,38.17,22.9,38.12z"/>
			
				<linearGradient id="SVGID_5_" gradientUnits="userSpaceOnUse" x1="20.95" y1="24.2685" x2="77.91" y2="24.2685" gradientTransform="matrix(1 0 0 -1 0 82)">
				<stop  offset="0.375" style="stop-color:#000000;stop-opacity:0.25"/>
				<stop  offset="1" style="stop-color:#000000;stop-opacity:0"/>
			</linearGradient>
			<path class="st10" d="M22.9,38.12c-1.08,0-1.95,0.74-1.95,1.66c0,9.39,0,21.41,0,30.9c0,1.25,0.87,2.25,1.95,2.26
				c27.94,0.15,55.03,6.97,55.01,3.34c-0.04-9.76-0.04-23.34,0-33.09C77.93,39.49,50.84,38.19,22.9,38.12z"/>
			
				<linearGradient id="SVGID_6_" gradientUnits="userSpaceOnUse" x1="20.95" y1="24.4141" x2="77.52" y2="24.4141" gradientTransform="matrix(1 0 0 -1 0 82)">
				<stop  offset="0.375" style="stop-color:#000000;stop-opacity:0.3125"/>
				<stop  offset="1" style="stop-color:#000000;stop-opacity:0"/>
			</linearGradient>
			<path class="st11" d="M22.9,38.12c-1.08,0-1.95,0.74-1.95,1.66c0,9.39,0,21.41,0,30.9c0,1.25,0.87,2.25,1.95,2.26
				c27.73,0.14,54.63,6.57,54.62,3.07c-0.04-9.61-0.04-23.05,0-32.66C77.54,39.78,50.65,38.2,22.9,38.12z"/>
			
				<linearGradient id="SVGID_7_" gradientUnits="userSpaceOnUse" x1="20.95" y1="24.5571" x2="77.12" y2="24.5571" gradientTransform="matrix(1 0 0 -1 0 82)">
				<stop  offset="0.375" style="stop-color:#000000;stop-opacity:0.375"/>
				<stop  offset="1" style="stop-color:#000000;stop-opacity:0"/>
			</linearGradient>
			<path class="st12" d="M22.9,38.12c-1.08,0-1.95,0.74-1.95,1.66c0,9.39,0,21.41,0,30.9c0,1.25,0.87,2.25,1.95,2.26
				c27.53,0.13,54.23,6.17,54.22,2.81c-0.04-9.47-0.04-22.76,0-32.23C77.14,40.08,50.45,38.21,22.9,38.12z"/>
			
				<linearGradient id="SVGID_8_" gradientUnits="userSpaceOnUse" x1="20.95" y1="24.7015" x2="76.73" y2="24.7015" gradientTransform="matrix(1 0 0 -1 0 82)">
				<stop  offset="0.375" style="stop-color:#000000;stop-opacity:0.4375"/>
				<stop  offset="1" style="stop-color:#000000;stop-opacity:0"/>
			</linearGradient>
			<path class="st13" d="M22.9,38.12c-1.08,0-1.95,0.74-1.95,1.66c0,9.39,0,21.41,0,30.9c0,1.25,0.87,2.25,1.95,2.26
				c27.33,0.13,53.84,5.77,53.83,2.54c-0.04-9.33-0.04-22.47,0-31.8C76.74,40.37,50.25,38.17,22.9,38.12z"/>
			
				<linearGradient id="SVGID_9_" gradientUnits="userSpaceOnUse" x1="20.95" y1="24.836" x2="76.33" y2="24.836" gradientTransform="matrix(1 0 0 -1 0 82)">
				<stop  offset="0.375" style="stop-color:#000000;stop-opacity:0.5"/>
				<stop  offset="1" style="stop-color:#000000;stop-opacity:0"/>
			</linearGradient>
			<path class="st14" d="M22.9,38.13c-1.08,0-1.95,0.74-1.95,1.66c0,9.39,0,21.41,0,30.9c0,1.25,0.87,2.25,1.95,2.26
				c27.13,0.12,53.44,5.37,53.43,2.27c-0.04-9.18-0.04-22.19,0-31.37C76.35,40.67,50.05,38.17,22.9,38.13z"/>
			
				<linearGradient id="SVGID_10_" gradientUnits="userSpaceOnUse" x1="20.95" y1="24.98" x2="75.94" y2="24.98" gradientTransform="matrix(1 0 0 -1 0 82)">
				<stop  offset="0.375" style="stop-color:#000000;stop-opacity:0.5625"/>
				<stop  offset="1" style="stop-color:#000000;stop-opacity:0"/>
			</linearGradient>
			<path class="st15" d="M22.9,38.13c-1.08,0-1.95,0.74-1.95,1.66c0,9.39,0,21.41,0,30.9c0,1.25,0.87,2.25,1.95,2.26
				c26.93,0.11,53.05,4.97,53.04,2c-0.04-9.04-0.04-21.9,0-30.94C75.95,40.96,49.85,38.18,22.9,38.13z"/>
			
				<linearGradient id="SVGID_11_" gradientUnits="userSpaceOnUse" x1="20.95" y1="25.1234" x2="75.54" y2="25.1234" gradientTransform="matrix(1 0 0 -1 0 82)">
				<stop  offset="0.375" style="stop-color:#000000;stop-opacity:0.625"/>
				<stop  offset="1" style="stop-color:#000000;stop-opacity:0"/>
			</linearGradient>
			<path class="st16" d="M22.9,38.13c-1.08,0-1.95,0.74-1.95,1.66c0,9.39,0,21.41,0,30.9c0,1.25,0.87,2.25,1.95,2.26
				c26.73,0.1,52.65,4.57,52.64,1.73c-0.04-8.9-0.04-21.61,0-30.51C75.56,41.25,49.65,38.18,22.9,38.13z"/>
			
				<linearGradient id="SVGID_12_" gradientUnits="userSpaceOnUse" x1="20.95" y1="25.264" x2="75.14" y2="25.264" gradientTransform="matrix(1 0 0 -1 0 82)">
				<stop  offset="0.375" style="stop-color:#000000;stop-opacity:0.6875"/>
				<stop  offset="1" style="stop-color:#000000;stop-opacity:0"/>
			</linearGradient>
			<path class="st17" d="M22.9,38.13c-1.08,0-1.95,0.74-1.95,1.66c0,9.39,0,21.41,0,30.9c0,1.25,0.87,2.25,1.95,2.26
				c26.53,0.09,52.26,4.17,52.24,1.47c-0.04-8.75-0.04-21.33,0-30.08C75.16,41.55,49.45,38.19,22.9,38.13z"/>
			
				<linearGradient id="SVGID_13_" gradientUnits="userSpaceOnUse" x1="20.95" y1="25.4086" x2="74.75" y2="25.4086" gradientTransform="matrix(1 0 0 -1 0 82)">
				<stop  offset="0.375" style="stop-color:#000000;stop-opacity:0.75"/>
				<stop  offset="1" style="stop-color:#000000;stop-opacity:0"/>
			</linearGradient>
			<path class="st18" d="M22.9,38.13c-1.08,0-1.95,0.74-1.95,1.66c0,9.39,0,21.41,0,30.9c0,1.25,0.87,2.25,1.95,2.25
				c26.33,0.08,51.86,3.78,51.85,1.2c-0.04-8.61-0.04-21.04,0-29.65C74.77,41.84,49.25,38.2,22.9,38.13z"/>
			
				<linearGradient id="SVGID_14_" gradientUnits="userSpaceOnUse" x1="20.95" y1="25.5532" x2="74.35" y2="25.5532" gradientTransform="matrix(1 0 0 -1 0 82)">
				<stop  offset="0.375" style="stop-color:#000000;stop-opacity:0.8125"/>
				<stop  offset="1" style="stop-color:#000000;stop-opacity:0"/>
			</linearGradient>
			<path class="st19" d="M22.9,38.13c-1.08,0-1.95,0.74-1.95,1.65c0,9.39,0,21.41,0,30.9c0,1.25,0.87,2.25,1.95,2.25
				c26.13,0.08,51.46,3.38,51.45,0.93c-0.04-8.46-0.04-20.75,0-29.22C74.37,42.13,49.06,38.2,22.9,38.13z"/>
			
				<linearGradient id="SVGID_15_" gradientUnits="userSpaceOnUse" x1="20.95" y1="25.692" x2="73.96" y2="25.692" gradientTransform="matrix(1 0 0 -1 0 82)">
				<stop  offset="0.375" style="stop-color:#000000;stop-opacity:0.875"/>
				<stop  offset="1" style="stop-color:#000000;stop-opacity:0"/>
			</linearGradient>
			<path class="st20" d="M22.9,38.13c-1.08,0-1.95,0.74-1.95,1.65c0,9.39,0,21.41,0,30.9c0,1.24,0.87,2.25,1.95,2.25
				c25.93,0.07,51.07,2.98,51.06,0.66c-0.04-8.32-0.04-20.47,0-28.79C73.97,42.43,48.86,38.21,22.9,38.13z"/>
			
				<linearGradient id="SVGID_16_" gradientUnits="userSpaceOnUse" x1="20.95" y1="25.8285" x2="73.56" y2="25.8285" gradientTransform="matrix(1 0 0 -1 0 82)">
				<stop  offset="0.375" style="stop-color:#000000;stop-opacity:0.9375"/>
				<stop  offset="1" style="stop-color:#000000;stop-opacity:0"/>
			</linearGradient>
			<path class="st21" d="M22.9,38.13c-1.08,0-1.95,0.74-1.95,1.65c0,9.39,0,21.41,0,30.9c0,1.24,0.87,2.25,1.95,2.25
				c25.73,0.06,50.67,2.58,50.66,0.39c-0.04-8.18-0.04-20.18,0-28.36C73.58,42.72,48.66,38.21,22.9,38.13z"/>
			
				<linearGradient id="SVGID_17_" gradientUnits="userSpaceOnUse" x1="20.95" y1="25.9551" x2="73.17" y2="25.9551" gradientTransform="matrix(1 0 0 -1 0 82)">
				<stop  offset="0.375" style="stop-color:#000000"/>
				<stop  offset="1" style="stop-color:#000000;stop-opacity:0"/>
			</linearGradient>
			<path class="st22" d="M22.9,38.13c-1.08,0-1.95,0.74-1.95,1.65c0,9.39,0,21.41,0,30.9c0,1.24,0.87,2.25,1.95,2.25
				c25.53,0.1,50.29,2.18,50.27,0.13c0-8.03,0-19.89,0-27.93C73.19,43.02,48.46,38.36,22.9,38.13z"/>
		</g>
		<g>
			<g>
				
					<linearGradient id="SVGID_18_" gradientUnits="userSpaceOnUse" x1="20.95" y1="13.7414" x2="73.17" y2="13.7414" gradientTransform="matrix(1 0 0 -1 0 82)">
					<stop  offset="0" style="stop-color:#808080"/>
					<stop  offset="0.3275" style="stop-color:#838383"/>
					<stop  offset="0.5905" style="stop-color:#8D8D8D"/>
					<stop  offset="0.8302" style="stop-color:#9E9E9E"/>
					<stop  offset="1" style="stop-color:#AFAFAF"/>
				</linearGradient>
				<path class="st23" d="M20.95,70.69c0,1.24,0.87,2.25,1.94,2.26c25.58,0.17,50.28-1,50.28-4.83
					C73.17,56.51,20.95,70.69,20.95,70.69z"/>
				<g>
					
						<linearGradient id="SVGID_19_" gradientUnits="userSpaceOnUse" x1="47.06" y1="18.4487" x2="47.06" y2="9.0245" gradientTransform="matrix(1 0 0 -1 0 82)">
						<stop  offset="0.35" style="stop-color:#DFDFDF"/>
						<stop  offset="0.6454" style="stop-color:#DDDDDD"/>
						<stop  offset="0.7517" style="stop-color:#D6D6D6"/>
						<stop  offset="0.8276" style="stop-color:#CBCBCB"/>
						<stop  offset="0.8889" style="stop-color:#BABABA"/>
						<stop  offset="0.9414" style="stop-color:#A4A4A4"/>
						<stop  offset="0.987" style="stop-color:#898989"/>
						<stop  offset="1" style="stop-color:#808080"/>
					</linearGradient>
					<path class="st24" d="M20.95,70.69L20.95,70.69c0,1.25,0.87,2.26,1.95,2.26c25.58,0.19,50.24-0.61,50.27-4.83
						C73.17,56.51,20.95,70.69,20.95,70.69z M22.9,72.8c-0.07,0-0.14,0-0.2-0.01c-0.78-0.09-1.43-0.68-1.66-1.47
						c0.25,0.85,0.99,1.47,1.86,1.47c25.56-0.16,49.87-8.03,49.87-4.56C72.77,71.76,48.46,72.98,22.9,72.8z"/>
				</g>
			</g>
			
				<linearGradient id="SVGID_20_" gradientUnits="userSpaceOnUse" x1="20.96" y1="29.5942" x2="73.18" y2="29.5942" gradientTransform="matrix(1 0 0 -1 0 82)">
				<stop  offset="0" style="stop-color:#DFDFDF"/>
				<stop  offset="0.021" style="stop-color:#E1E1E1"/>
				<stop  offset="0.2435" style="stop-color:#F2F2F2"/>
				<stop  offset="0.4872" style="stop-color:#FCFCFC"/>
				<stop  offset="0.7911" style="stop-color:#FFFFFF"/>
				<stop  offset="0.8444" style="stop-color:#FCFCFC"/>
				<stop  offset="0.8871" style="stop-color:#F2F2F2"/>
				<stop  offset="0.9263" style="stop-color:#E1E1E1"/>
				<stop  offset="0.963" style="stop-color:#C9C9C9"/>
				<stop  offset="0.966" style="stop-color:#C7C7C7"/>
				<stop  offset="1" style="stop-color:#FFFFFF"/>
			</linearGradient>
			<path class="st25" d="M22.91,37.83L22.91,37.83c-1.08,0-1.95,0.87-1.95,1.95c0,10.3,0,20.6,0,30.91c0,1.07,0.87,1.94,1.94,1.95
				c25.58-0.19,50.31-8.66,50.28-4.52c0-11.6,0-23.21,0-34.81C73.2,29.17,48.48,37.64,22.91,37.83z"/>
			<g>
				
					<linearGradient id="SVGID_21_" gradientUnits="userSpaceOnUse" x1="20.9541" y1="40.165" x2="73.1715" y2="40.165" gradientTransform="matrix(1 0 0 -1 0 82)">
					<stop  offset="0" style="stop-color:#242424"/>
					<stop  offset="0.3346" style="stop-color:#2D2D2D"/>
					<stop  offset="0.7911" style="stop-color:#303030"/>
					<stop  offset="0.8668" style="stop-color:#2D2D2D"/>
					<stop  offset="0.9275" style="stop-color:#232323"/>
					<stop  offset="0.966" style="stop-color:#181818"/>
					<stop  offset="1" style="stop-color:#303030"/>
				</linearGradient>
				<path class="st26" d="M57.79,43.81c0.48-0.4,0.72-0.61,1.21-1.01c-0.44-0.59-0.77-1.03-1.1-1.47c-0.33-0.44-0.66-0.88-1.11-1.47
					c-0.48,0.4-0.72,0.61-1.21,1.01c0.44,0.59,0.77,1.03,1.11,1.47C57.02,42.78,57.35,43.22,57.79,43.81z"/>
				
					<linearGradient id="SVGID_22_" gradientUnits="userSpaceOnUse" x1="20.9492" y1="36.69" x2="73.173" y2="36.69" gradientTransform="matrix(1 0 0 -1 0 82)">
					<stop  offset="0" style="stop-color:#242424"/>
					<stop  offset="0.3346" style="stop-color:#2D2D2D"/>
					<stop  offset="0.7911" style="stop-color:#303030"/>
					<stop  offset="0.8668" style="stop-color:#2D2D2D"/>
					<stop  offset="0.9275" style="stop-color:#232323"/>
					<stop  offset="0.966" style="stop-color:#181818"/>
					<stop  offset="1" style="stop-color:#303030"/>
				</linearGradient>
				<path class="st27" d="M60.4,47.28c0.48-0.41,0.72-0.61,1.2-1.01c-0.44-0.59-0.77-1.03-1.1-1.47c-0.33-0.44-0.66-0.88-1.1-1.46
					c-0.48,0.41-0.72,0.61-1.2,1.02c0.44,0.59,0.77,1.03,1.1,1.47C59.63,46.25,59.96,46.69,60.4,47.28z"/>
				
					<linearGradient id="SVGID_23_" gradientUnits="userSpaceOnUse" x1="20.9544" y1="39.945" x2="73.1714" y2="39.945" gradientTransform="matrix(1 0 0 -1 0 82)">
					<stop  offset="0" style="stop-color:#242424"/>
					<stop  offset="0.3346" style="stop-color:#2D2D2D"/>
					<stop  offset="0.7911" style="stop-color:#303030"/>
					<stop  offset="0.8668" style="stop-color:#2D2D2D"/>
					<stop  offset="0.9275" style="stop-color:#232323"/>
					<stop  offset="0.966" style="stop-color:#181818"/>
					<stop  offset="1" style="stop-color:#303030"/>
				</linearGradient>
				<path class="st28" d="M59.8,42.56c0.36,0.48,0.72,0.96,1.11,1.48s0.81,1.08,1.29,1.72c0.48-0.4,0.72-0.6,1.2-1
					c-0.48-0.65-0.9-1.21-1.29-1.73s-0.75-1-1.11-1.48s-0.72-0.96-1.11-1.48s-0.81-1.08-1.29-1.72c-0.48,0.41-0.72,0.61-1.2,1.01
					c0.48,0.64,0.9,1.2,1.3,1.72C59.08,41.6,59.44,42.08,59.8,42.56z"/>
				
					<linearGradient id="SVGID_24_" gradientUnits="userSpaceOnUse" x1="20.9547" y1="43.215" x2="73.1709" y2="43.215" gradientTransform="matrix(1 0 0 -1 0 82)">
					<stop  offset="0" style="stop-color:#242424"/>
					<stop  offset="0.3346" style="stop-color:#2D2D2D"/>
					<stop  offset="0.7911" style="stop-color:#303030"/>
					<stop  offset="0.8668" style="stop-color:#2D2D2D"/>
					<stop  offset="0.9275" style="stop-color:#232323"/>
					<stop  offset="0.966" style="stop-color:#181818"/>
					<stop  offset="1" style="stop-color:#303030"/>
				</linearGradient>
				<path class="st29" d="M61.4,40.76c0.48-0.41,0.72-0.61,1.2-1.01c-0.44-0.59-0.77-1.03-1.1-1.47c-0.33-0.44-0.66-0.88-1.1-1.47
					c-0.48,0.41-0.72,0.61-1.2,1.02c0.44,0.59,0.77,1.02,1.1,1.46C60.63,39.74,60.96,40.18,61.4,40.76z"/>
				
					<linearGradient id="SVGID_25_" gradientUnits="userSpaceOnUse" x1="20.955" y1="39.73" x2="73.1713" y2="39.73" gradientTransform="matrix(1 0 0 -1 0 82)">
					<stop  offset="0" style="stop-color:#242424"/>
					<stop  offset="0.3346" style="stop-color:#2D2D2D"/>
					<stop  offset="0.7911" style="stop-color:#303030"/>
					<stop  offset="0.8668" style="stop-color:#2D2D2D"/>
					<stop  offset="0.9275" style="stop-color:#232323"/>
					<stop  offset="0.966" style="stop-color:#181818"/>
					<stop  offset="1" style="stop-color:#303030"/>
				</linearGradient>
				<path class="st30" d="M63.01,40.29c-0.48,0.4-0.72,0.6-1.2,1.01c0.44,0.59,0.77,1.03,1.1,1.47c0.33,0.44,0.66,0.89,1.1,1.48
					c0.48-0.4,0.72-0.6,1.2-0.99c-0.44-0.6-0.77-1.04-1.1-1.49C63.78,41.33,63.45,40.89,63.01,40.29z"/>
				
					<linearGradient id="SVGID_26_" gradientUnits="userSpaceOnUse" x1="20.9529" y1="19.845" x2="73.1713" y2="19.845" gradientTransform="matrix(1 0 0 -1 0 82)">
					<stop  offset="0" style="stop-color:#242424"/>
					<stop  offset="0.3346" style="stop-color:#2D2D2D"/>
					<stop  offset="0.7911" style="stop-color:#303030"/>
					<stop  offset="0.8668" style="stop-color:#2D2D2D"/>
					<stop  offset="0.9275" style="stop-color:#232323"/>
					<stop  offset="0.966" style="stop-color:#181818"/>
					<stop  offset="1" style="stop-color:#303030"/>
				</linearGradient>
				<path class="st31" d="M36.25,61.7c-0.36-0.51-0.73-1.01-1.12-1.57c-0.39-0.55-0.82-1.15-1.3-1.83
					c-0.48,0.36-0.73,0.55-1.21,0.91c0.48,0.69,0.91,1.28,1.3,1.84c0.39,0.55,0.76,1.06,1.12,1.57s0.73,1.02,1.12,1.57
					s0.82,1.14,1.3,1.82c0.48-0.37,0.73-0.56,1.21-0.93c-0.48-0.67-0.91-1.26-1.3-1.81C36.98,62.72,36.61,62.21,36.25,61.7z"/>
				
					<linearGradient id="SVGID_27_" gradientUnits="userSpaceOnUse" x1="20.9513" y1="20.32" x2="73.176" y2="20.32" gradientTransform="matrix(1 0 0 -1 0 82)">
					<stop  offset="0" style="stop-color:#242424"/>
					<stop  offset="0.3346" style="stop-color:#2D2D2D"/>
					<stop  offset="0.7911" style="stop-color:#303030"/>
					<stop  offset="0.8668" style="stop-color:#2D2D2D"/>
					<stop  offset="0.9275" style="stop-color:#232323"/>
					<stop  offset="0.966" style="stop-color:#181818"/>
					<stop  offset="1" style="stop-color:#303030"/>
				</linearGradient>
				<path class="st32" d="M31.91,62.13c0.33,0.47,0.67,0.94,1.11,1.57c0.48-0.36,0.72-0.54,1.21-0.91
					c-0.44-0.62-0.78-1.09-1.11-1.56s-0.67-0.94-1.11-1.57c-0.48,0.36-0.73,0.54-1.21,0.89C31.25,61.18,31.58,61.66,31.91,62.13z"/>
				
					<linearGradient id="SVGID_28_" gradientUnits="userSpaceOnUse" x1="20.9544" y1="16.625" x2="73.1666" y2="16.625" gradientTransform="matrix(1 0 0 -1 0 82)">
					<stop  offset="0" style="stop-color:#242424"/>
					<stop  offset="0.3346" style="stop-color:#2D2D2D"/>
					<stop  offset="0.7911" style="stop-color:#303030"/>
					<stop  offset="0.8668" style="stop-color:#2D2D2D"/>
					<stop  offset="0.9275" style="stop-color:#232323"/>
					<stop  offset="0.966" style="stop-color:#181818"/>
					<stop  offset="1" style="stop-color:#303030"/>
				</linearGradient>
				<path class="st33" d="M34.64,63.36c-0.48,0.37-0.73,0.55-1.21,0.91c0.44,0.63,0.77,1.09,1.11,1.56
					c0.33,0.47,0.67,0.94,1.11,1.56c0.48-0.37,0.73-0.55,1.21-0.92c-0.44-0.62-0.78-1.09-1.11-1.55
					C35.41,64.45,35.08,63.98,34.64,63.36z"/>
				
					<linearGradient id="SVGID_29_" gradientUnits="userSpaceOnUse" x1="20.9521" y1="17.12" x2="73.1724" y2="17.12" gradientTransform="matrix(1 0 0 -1 0 82)">
					<stop  offset="0" style="stop-color:#242424"/>
					<stop  offset="0.3346" style="stop-color:#2D2D2D"/>
					<stop  offset="0.7911" style="stop-color:#303030"/>
					<stop  offset="0.8668" style="stop-color:#2D2D2D"/>
					<stop  offset="0.9275" style="stop-color:#232323"/>
					<stop  offset="0.966" style="stop-color:#181818"/>
					<stop  offset="1" style="stop-color:#303030"/>
				</linearGradient>
				<path class="st34" d="M32.62,64.44c-0.36-0.51-0.73-1.03-1.12-1.59c-0.39-0.56-0.82-1.17-1.3-1.86
					c-0.48,0.35-0.73,0.53-1.21,0.88c0.48,0.7,0.91,1.31,1.3,1.87c0.39,0.56,0.76,1.08,1.12,1.6c0.36,0.52,0.73,1.03,1.12,1.59
					s0.82,1.16,1.3,1.84c0.48-0.36,0.73-0.55,1.21-0.91c-0.48-0.68-0.91-1.27-1.3-1.83C33.35,65.47,32.98,64.96,32.62,64.44z"/>
				
					<linearGradient id="SVGID_30_" gradientUnits="userSpaceOnUse" x1="20.9531" y1="35.125" x2="73.1709" y2="35.125" gradientTransform="matrix(1 0 0 -1 0 82)">
					<stop  offset="0" style="stop-color:#242424"/>
					<stop  offset="0.3346" style="stop-color:#2D2D2D"/>
					<stop  offset="0.7911" style="stop-color:#303030"/>
					<stop  offset="0.8668" style="stop-color:#2D2D2D"/>
					<stop  offset="0.9275" style="stop-color:#232323"/>
					<stop  offset="0.966" style="stop-color:#181818"/>
					<stop  offset="1" style="stop-color:#303030"/>
				</linearGradient>
				<path class="st35" d="M36.16,44.75c-0.39,0.63-0.76,1.2-1.12,1.78c-0.36,0.58-0.73,1.15-1.12,1.78
					c-0.39,0.62-0.82,1.29-1.3,2.06c0.48,0.28,0.73,0.42,1.21,0.7c0.48-0.77,0.91-1.44,1.3-2.06c0.39-0.62,0.76-1.2,1.12-1.78
					c0.36-0.58,0.73-1.16,1.12-1.79s0.82-1.31,1.3-2.08c-0.48-0.27-0.73-0.4-1.21-0.68C36.98,43.45,36.56,44.12,36.16,44.75z"/>
				
					<linearGradient id="SVGID_31_" gradientUnits="userSpaceOnUse" x1="20.9522" y1="36.18" x2="73.1724" y2="36.18" gradientTransform="matrix(1 0 0 -1 0 82)">
					<stop  offset="0" style="stop-color:#242424"/>
					<stop  offset="0.3346" style="stop-color:#2D2D2D"/>
					<stop  offset="0.7911" style="stop-color:#303030"/>
					<stop  offset="0.8668" style="stop-color:#2D2D2D"/>
					<stop  offset="0.9275" style="stop-color:#232323"/>
					<stop  offset="0.966" style="stop-color:#181818"/>
					<stop  offset="1" style="stop-color:#303030"/>
				</linearGradient>
				<path class="st36" d="M33.23,45.48c-0.36,0.57-0.73,1.15-1.12,1.76c-0.39,0.62-0.82,1.28-1.3,2.04
					c0.48,0.29,0.73,0.43,1.21,0.72c0.48-0.76,0.91-1.43,1.3-2.05s0.76-1.2,1.12-1.77c0.36-0.58,0.73-1.15,1.12-1.78
					c0.39-0.62,0.82-1.3,1.3-2.07c-0.48-0.27-0.73-0.41-1.21-0.69c-0.49,0.77-0.91,1.44-1.3,2.07
					C33.95,44.33,33.59,44.91,33.23,45.48z"/>
				
					<linearGradient id="SVGID_32_" gradientUnits="userSpaceOnUse" x1="20.9521" y1="37.245" x2="73.1724" y2="37.245" gradientTransform="matrix(1 0 0 -1 0 82)">
					<stop  offset="0" style="stop-color:#242424"/>
					<stop  offset="0.3346" style="stop-color:#2D2D2D"/>
					<stop  offset="0.7911" style="stop-color:#303030"/>
					<stop  offset="0.8668" style="stop-color:#2D2D2D"/>
					<stop  offset="0.9275" style="stop-color:#232323"/>
					<stop  offset="0.966" style="stop-color:#181818"/>
					<stop  offset="1" style="stop-color:#303030"/>
				</linearGradient>
				<path class="st37" d="M31.5,46.89c0.39-0.62,0.76-1.19,1.12-1.76s0.73-1.15,1.12-1.77s0.82-1.29,1.3-2.06
					c-0.49-0.28-0.73-0.42-1.21-0.7c-0.48,0.77-0.91,1.43-1.3,2.05s-0.76,1.19-1.12,1.76s-0.73,1.14-1.12,1.75
					c-0.39,0.61-0.82,1.27-1.3,2.02c0.49,0.3,0.73,0.44,1.21,0.73C30.68,48.17,31.11,47.51,31.5,46.89z"/>
				
					<linearGradient id="SVGID_33_" gradientUnits="userSpaceOnUse" x1="20.9541" y1="20.95" x2="73.1714" y2="20.95" gradientTransform="matrix(1 0 0 -1 0 82)">
					<stop  offset="0" style="stop-color:#242424"/>
					<stop  offset="0.3346" style="stop-color:#2D2D2D"/>
					<stop  offset="0.7911" style="stop-color:#303030"/>
					<stop  offset="0.8668" style="stop-color:#2D2D2D"/>
					<stop  offset="0.9275" style="stop-color:#232323"/>
					<stop  offset="0.966" style="stop-color:#181818"/>
					<stop  offset="1" style="stop-color:#303030"/>
				</linearGradient>
				<path class="st38" d="M59,59.49c-0.48-0.24-0.72-0.36-1.21-0.59c-0.44,0.74-0.77,1.3-1.11,1.85c-0.33,0.56-0.66,1.11-1.11,1.85
					c0.48,0.24,0.72,0.36,1.21,0.6c0.44-0.74,0.77-1.29,1.11-1.85S58.56,60.24,59,59.49z"/>
				
					<linearGradient id="SVGID_34_" gradientUnits="userSpaceOnUse" x1="20.9493" y1="25.33" x2="73.173" y2="25.33" gradientTransform="matrix(1 0 0 -1 0 82)">
					<stop  offset="0" style="stop-color:#242424"/>
					<stop  offset="0.3346" style="stop-color:#2D2D2D"/>
					<stop  offset="0.7911" style="stop-color:#303030"/>
					<stop  offset="0.8668" style="stop-color:#2D2D2D"/>
					<stop  offset="0.9275" style="stop-color:#232323"/>
					<stop  offset="0.966" style="stop-color:#181818"/>
					<stop  offset="1" style="stop-color:#303030"/>
				</linearGradient>
				<path class="st39" d="M59.4,58.82c0.44-0.74,0.77-1.3,1.1-1.85c0.33-0.56,0.66-1.11,1.1-1.85c-0.48-0.24-0.72-0.36-1.2-0.6
					c-0.44,0.74-0.77,1.3-1.1,1.85c-0.33,0.56-0.66,1.11-1.1,1.85C58.68,58.46,58.92,58.58,59.4,58.82z"/>
				
					<linearGradient id="SVGID_35_" gradientUnits="userSpaceOnUse" x1="20.9538" y1="20.06" x2="73.172" y2="20.06" gradientTransform="matrix(1 0 0 -1 0 82)">
					<stop  offset="0" style="stop-color:#242424"/>
					<stop  offset="0.3346" style="stop-color:#2D2D2D"/>
					<stop  offset="0.7911" style="stop-color:#303030"/>
					<stop  offset="0.8668" style="stop-color:#2D2D2D"/>
					<stop  offset="0.9275" style="stop-color:#232323"/>
					<stop  offset="0.966" style="stop-color:#181818"/>
					<stop  offset="1" style="stop-color:#303030"/>
				</linearGradient>
				<path class="st40" d="M60.8,60.38c-0.48-0.24-0.72-0.35-1.2-0.59c-0.44,0.74-0.77,1.3-1.1,1.85c-0.33,0.56-0.66,1.11-1.1,1.85
					c0.48,0.24,0.72,0.36,1.21,0.6c0.44-0.74,0.77-1.3,1.1-1.85C60.03,61.68,60.36,61.12,60.8,60.38z"/>
				
					<linearGradient id="SVGID_36_" gradientUnits="userSpaceOnUse" x1="20.9549" y1="24.445" x2="73.1712" y2="24.445" gradientTransform="matrix(1 0 0 -1 0 82)">
					<stop  offset="0" style="stop-color:#242424"/>
					<stop  offset="0.3346" style="stop-color:#2D2D2D"/>
					<stop  offset="0.7911" style="stop-color:#303030"/>
					<stop  offset="0.8668" style="stop-color:#2D2D2D"/>
					<stop  offset="0.9275" style="stop-color:#232323"/>
					<stop  offset="0.966" style="stop-color:#181818"/>
					<stop  offset="1" style="stop-color:#303030"/>
				</linearGradient>
				<path class="st41" d="M62.31,57.86c0.33-0.55,0.66-1.11,1.1-1.84c-0.48-0.25-0.72-0.37-1.2-0.61c-0.44,0.74-0.77,1.29-1.1,1.85
					c-0.33,0.55-0.66,1.11-1.1,1.85c0.48,0.24,0.72,0.35,1.2,0.59C61.64,58.97,61.97,58.41,62.31,57.86z"/>
				
					<linearGradient id="SVGID_37_" gradientUnits="userSpaceOnUse" x1="20.9548" y1="19.18" x2="73.1712" y2="19.18" gradientTransform="matrix(1 0 0 -1 0 82)">
					<stop  offset="0" style="stop-color:#242424"/>
					<stop  offset="0.3346" style="stop-color:#2D2D2D"/>
					<stop  offset="0.7911" style="stop-color:#303030"/>
					<stop  offset="0.8668" style="stop-color:#2D2D2D"/>
					<stop  offset="0.9275" style="stop-color:#232323"/>
					<stop  offset="0.966" style="stop-color:#181818"/>
					<stop  offset="1" style="stop-color:#303030"/>
				</linearGradient>
				<path class="st42" d="M60.3,62.53c-0.33,0.56-0.66,1.11-1.1,1.85c0.48,0.24,0.72,0.36,1.2,0.59c0.44-0.74,0.77-1.3,1.1-1.85
					c0.33-0.56,0.66-1.11,1.1-1.85c-0.48-0.24-0.72-0.36-1.2-0.6C60.96,61.42,60.63,61.98,60.3,62.53z"/>
				
					<linearGradient id="SVGID_38_" gradientUnits="userSpaceOnUse" x1="20.955" y1="23.535" x2="73.1713" y2="23.535" gradientTransform="matrix(1 0 0 -1 0 82)">
					<stop  offset="0" style="stop-color:#242424"/>
					<stop  offset="0.3346" style="stop-color:#2D2D2D"/>
					<stop  offset="0.7911" style="stop-color:#303030"/>
					<stop  offset="0.8668" style="stop-color:#2D2D2D"/>
					<stop  offset="0.9275" style="stop-color:#232323"/>
					<stop  offset="0.966" style="stop-color:#181818"/>
					<stop  offset="1" style="stop-color:#303030"/>
				</linearGradient>
				<path class="st43" d="M62.91,58.16c-0.33,0.55-0.66,1.11-1.1,1.85c0.48,0.24,0.72,0.36,1.2,0.6c0.44-0.74,0.77-1.29,1.1-1.84
					c0.33-0.55,0.66-1.1,1.1-1.83c-0.48-0.25-0.72-0.37-1.2-0.62C63.57,57.06,63.24,57.61,62.91,58.16z"/>
			</g>
			
				<linearGradient id="SVGID_39_" gradientUnits="userSpaceOnUse" x1="20.9526" y1="30.4696" x2="73.172" y2="30.4696" gradientTransform="matrix(1 0 0 -1 0 82)">
				<stop  offset="0" style="stop-color:#B41B00"/>
				<stop  offset="0.021" style="stop-color:#B61D01"/>
				<stop  offset="0.2435" style="stop-color:#C72E0B"/>
				<stop  offset="0.4872" style="stop-color:#D13811"/>
				<stop  offset="0.7911" style="stop-color:#D43B13"/>
				<stop  offset="0.8415" style="stop-color:#D13812"/>
				<stop  offset="0.8819" style="stop-color:#C72F0F"/>
				<stop  offset="0.919" style="stop-color:#B61F0A"/>
				<stop  offset="0.9537" style="stop-color:#9E0903"/>
				<stop  offset="0.966" style="stop-color:#940000"/>
				<stop  offset="1" style="stop-color:#D43B13"/>
			</linearGradient>
			<path class="st44" d="M55.31,48.79c-0.31-0.79-0.74-1.51-1.3-2.13c-0.56-0.62-1.23-1.15-2.03-1.55c-0.67-0.34-1.37-0.56-2.1-0.69
				c-0.73-0.13-1.48-0.15-2.22-0.08c-0.75,0.07-1.48,0.24-2.21,0.49s-1.44,0.58-2.12,1c-0.67,0.42-1.31,0.91-1.89,1.48
				c-0.58,0.57-1.1,1.22-1.54,1.94c-0.5,0.81-0.83,1.66-0.98,2.51c-0.16,0.85-0.15,1.7,0.01,2.5s0.48,1.55,0.95,2.21
				c0.47,0.65,1.08,1.21,1.83,1.61c0.75,0.41,1.57,0.63,2.41,0.67c0.84,0.05,1.69-0.08,2.5-0.37c0.82-0.29,1.6-0.73,2.31-1.31
				c0.71-0.58,1.34-1.29,1.84-2.12c0.73,0.37,1.27,0.64,1.81,0.91s1.08,0.54,1.8,0.9c0.53-0.89,0.92-1.81,1.16-2.73
				s0.34-1.84,0.3-2.72C55.79,50.43,55.61,49.58,55.31,48.79z"/>
			<g>
				
					<linearGradient id="SVGID_40_" gradientUnits="userSpaceOnUse" x1="20.9524" y1="26.4281" x2="73.1719" y2="26.4281" gradientTransform="matrix(1 0 0 -1 0 82)">
					<stop  offset="0" style="stop-color:#00209F"/>
					<stop  offset="0.021" style="stop-color:#0222A1"/>
					<stop  offset="0.2435" style="stop-color:#1333B2"/>
					<stop  offset="0.4872" style="stop-color:#1D3DBC"/>
					<stop  offset="0.7911" style="stop-color:#2040BF"/>
					<stop  offset="0.8415" style="stop-color:#1E3DBC"/>
					<stop  offset="0.8819" style="stop-color:#1933B2"/>
					<stop  offset="0.919" style="stop-color:#1122A1"/>
					<stop  offset="0.9537" style="stop-color:#050A89"/>
					<stop  offset="0.966" style="stop-color:#00007F"/>
					<stop  offset="1" style="stop-color:#2040BF"/>
				</linearGradient>
				<path class="st45" d="M53.17,50.94c-0.66-0.33-1.41-0.45-2.15-0.37c-0.75,0.08-1.5,0.34-2.17,0.77s-1.27,1.03-1.72,1.76
					c-0.44,0.73-1.03,1.33-1.71,1.75c-0.67,0.42-1.42,0.67-2.17,0.73c-0.75,0.05-1.5-0.09-2.16-0.45c-0.67-0.36-1.17-0.9-1.5-1.53
					c-0.33-0.63-0.48-1.37-0.43-2.12c0.04-0.75,0.28-1.52,0.73-2.24c-0.53,0.86-0.92,1.76-1.16,2.66c-0.24,0.91-0.34,1.82-0.3,2.71
					s0.22,1.75,0.52,2.56c0.31,0.8,0.74,1.55,1.3,2.2c0.56,0.65,1.24,1.21,2.05,1.64c0.67,0.36,1.38,0.61,2.1,0.75
					c0.73,0.14,1.47,0.18,2.22,0.11c0.74-0.07,1.49-0.24,2.22-0.5s1.44-0.61,2.11-1.04c0.67-0.43,1.31-0.95,1.88-1.55
					c0.58-0.6,1.09-1.27,1.54-2.02c0.44-0.74,0.68-1.53,0.72-2.28s-0.11-1.47-0.43-2.09C54.34,51.78,53.84,51.27,53.17,50.94z"/>
			</g>
			<g class="st46">
				
					<linearGradient id="SVGID_41_" gradientUnits="userSpaceOnUse" x1="20.96" y1="29.5942" x2="73.18" y2="29.5942" gradientTransform="matrix(1 0 0 -1 0 82)">
					<stop  offset="0" style="stop-color:#404040"/>
					<stop  offset="0.7911" style="stop-color:#FFFFFF"/>
					<stop  offset="0.966" style="stop-color:#FFFFFF"/>
					<stop  offset="1" style="stop-color:#FFFFFF"/>
				</linearGradient>
				<path class="st47" d="M22.91,37.83L22.91,37.83c-1.08,0-1.95,0.88-1.95,1.95l0,0c0,10.3,0,20.6,0,30.91l0,0
					c0,1.07,0.87,1.94,1.94,1.95l0,0c25.58-0.19,50.31-8.66,50.28-4.52c0-11.6,0-23.21,0-34.81C73.2,29.17,48.48,37.64,22.91,37.83z
					"/>
			</g>
		</g>
	</g>
</g>
</svg>
