<?xml version="1.0" encoding="UTF-8"?>
<svg width="170px" height="170px" viewBox="0 0 170 170" version="1.1" xmlns="http://www.w3.org/2000/svg" xmlns:xlink="http://www.w3.org/1999/xlink">
    <title>矩形</title>
    <defs>
        <linearGradient x1="50%" y1="100%" x2="50%" y2="3.061617e-15%" id="linearGradient-1">
            <stop stop-color="#ABEC79" offset="0%"></stop>
            <stop stop-color="#72D444" offset="100%"></stop>
        </linearGradient>
        <linearGradient x1="50%" y1="0%" x2="50%" y2="98.134935%" id="linearGradient-2">
            <stop stop-color="#36B564" offset="0%"></stop>
            <stop stop-color="#598E69" offset="100%"></stop>
        </linearGradient>
        <linearGradient x1="50%" y1="100%" x2="50%" y2="-2.48949813e-15%" id="linearGradient-3">
            <stop stop-color="#499D6C" offset="0%"></stop>
            <stop stop-color="#1C8441" offset="100%"></stop>
        </linearGradient>
        <linearGradient x1="-1.11022302e-14%" y1="50%" x2="100%" y2="50%" id="linearGradient-4">
            <stop stop-color="#4C9B72" offset="0%"></stop>
            <stop stop-color="#25623E" offset="100%"></stop>
        </linearGradient>
        <linearGradient x1="50%" y1="0%" x2="50%" y2="98.0604227%" id="linearGradient-5">
            <stop stop-color="#B1F286" offset="0%"></stop>
            <stop stop-color="#6BD240" offset="100%"></stop>
        </linearGradient>
        <linearGradient x1="100%" y1="50%" x2="0%" y2="50%" id="linearGradient-6">
            <stop stop-color="#A6E579" offset="0%"></stop>
            <stop stop-color="#66B740" offset="100%"></stop>
        </linearGradient>
        <linearGradient x1="50%" y1="100%" x2="50%" y2="3.061617e-15%" id="linearGradient-7">
            <stop stop-color="#399163" offset="0%"></stop>
            <stop stop-color="#205A38" offset="100%"></stop>
        </linearGradient>
        <linearGradient x1="50%" y1="0%" x2="50%" y2="100%" id="linearGradient-8">
            <stop stop-color="#54A66D" offset="0%"></stop>
            <stop stop-color="#2A6D3B" offset="100%"></stop>
        </linearGradient>
        <linearGradient x1="50%" y1="0%" x2="50%" y2="100%" id="linearGradient-9">
            <stop stop-color="#B1F286" offset="0%"></stop>
            <stop stop-color="#79E14E" offset="100%"></stop>
        </linearGradient>
        <linearGradient x1="50%" y1="0%" x2="50%" y2="100%" id="linearGradient-10">
            <stop stop-color="#4C9D69" offset="0%"></stop>
            <stop stop-color="#256438" offset="100%"></stop>
        </linearGradient>
    </defs>
    <g id="矩形" stroke="none" stroke-width="1" fill="none" fill-rule="evenodd">
        <g id="kton" transform="translate(0.000000, 18.000000)" fill-rule="nonzero">
            <polygon id="Path" fill="url(#linearGradient-1)" points="27.7588858 0 41.3388913 16.3996555 0.220385528 32.799311"></polygon>
            <polygon id="Combined-Shape" fill="url(#linearGradient-2)" points="85.1970927 82.6367988 127.04095 32.799311 148.382941 32.799311 85.0889499 108.550101"></polygon>
            <polygon id="Combined-Shape-Copy-16" fill="url(#linearGradient-3)" points="127.04095 32.799311 0.220385528 32.799311 41.3388913 16.3996555 135.099017 16.3996555 148.382941 32.799311"></polygon>
            <polygon id="Combined-Shape-Copy-16" fill="url(#linearGradient-4)" points="127.04095 32.799311 135.099017 16.3996555 148.382941 32.799311"></polygon>
            <polygon id="Combined-Shape" fill="url(#linearGradient-5)" points="135.099017 16.3996555 41.3388913 16.3996555 27.7588858 0 142.6038 0"></polygon>
            <polygon id="Combined-Shape-Copy" fill="url(#linearGradient-6)" points="148.382941 32.799311 135.099017 16.3996555 142.6038 0 169.883251 32.799311"></polygon>
            <polygon id="Combined-Shape-Copy" fill="url(#linearGradient-7)" points="85.0889499 108.550101 148.382941 32.799311 169.883251 32.799311 106.618243 108.150134 85.2359429 133.709741"></polygon>
            <polygon id="Combined-Shape-Copy" fill="url(#linearGradient-8)" points="60.0839162 78.8745335 85.0889499 108.550101 85.2359429 133.709741 28.0494349 65.598622"></polygon>
            <polygon id="Combined-Shape-Copy" fill="url(#linearGradient-9)" points="60.0839162 78.8745335 28.0494349 65.598622 70.8917359 65.598622"></polygon>
            <polygon id="Combined-Shape" fill="url(#linearGradient-10)" points="70.8917359 65.598622 60.0839162 78.8745335 85.0889499 108.550101 85.1970927 82.6367988"></polygon>
        </g>
    </g>
</svg>