<?xml version="1.0" encoding="UTF-8"?>
<!DOCTYPE svg PUBLIC "-//W3C//DTD SVG 1.1//EN" "http://www.w3.org/Graphics/SVG/1.1/DTD/svg11.dtd">
<!-- Creator: CorelDRAW X7 -->
<svg xmlns="http://www.w3.org/2000/svg" xml:space="preserve" width="10in" height="10in" version="1.1" style="shape-rendering:geometricPrecision; text-rendering:geometricPrecision; image-rendering:optimizeQuality; fill-rule:evenodd; clip-rule:evenodd"
viewBox="0 0 10000 10000"
 xmlns:xlink="http://www.w3.org/1999/xlink">
 <defs>
  <style type="text/css">
   <![CDATA[
    .fil0 {fill:none}
    .fil2 {fill:white}
    .fil1 {fill:url(#id0)}
   ]]>
  </style>
  <radialGradient id="id0" gradientUnits="userSpaceOnUse" gradientTransform="matrix(1.19365 -0.468752 0.468754 1.19365 -3312 1375)" cx="5000" cy="5000" r="1683.5" fx="5000" fy="5000">
   <stop offset="0" style="stop-opacity:1; stop-color:#A0D1FE"/>
   <stop offset="1" style="stop-opacity:1; stop-color:#3270C4"/>
  </radialGradient>
 </defs>
 <g id="Layer_x0020_1">
  <metadata id="CorelCorpID_0Corel-Layer"/>
  <rect class="fil0" x="1283" y="1217" width="7500" height="7500"/>
  <g id="_2228481400688">
   <circle class="fil1" cx="5000" cy="5000" r="3100"/>
   <path class="fil2" d="M4460 5000l1145 1141 723 -720c128,-127 335,-127 463,0 128,127 128,334 0,461l-954 951c-128,126 -337,125 -463,0l-1377 -1372 0 815c0,179 -147,326 -327,326 -180,0 -327,-146 -327,-326l0 -2552c0,-180 147,-326 327,-326 181,0 327,146 327,326l0 815 1377 -1372c126,-125 335,-126 463,0l954 951c128,127 128,334 0,461 -128,127 -335,127 -463,0l-723 -720 -1145 1141zm1146 -326c181,0 327,146 327,326 0,180 -146,326 -327,326 -181,0 -328,-146 -328,-326 0,-180 147,-326 328,-326l0 0z"/>
  </g>
 </g>
</svg>
