<?xml version="1.0" encoding="utf-8"?>
<!-- Generator: Adobe Illustrator 21.0.0, SVG Export Plug-In . SVG Version: 6.00 Build 0)  -->
<svg version="1.1" id="Layer_1" xmlns="http://www.w3.org/2000/svg" xmlns:xlink="http://www.w3.org/1999/xlink" x="0px" y="0px"
	 viewBox="0 0 809.7 1000" style="enable-background:new 0 0 809.7 1000;" xml:space="preserve">
<style type="text/css">
	.st0{fill:#31CB9E;}
</style>
<g>
	<path class="st0" d="M371.8,500l238.9,137c8.4,4.8,18.8-1.2,18.8-10.9V373.7c0-9.6-10.4-15.7-18.8-10.9L371.8,500z"/>
	<path class="st0" d="M597,303.9L438.2,182.7c-7.3-5.6-17.9-1.7-19.9,7.3l-58,269.8l235.3-135.1C603.4,320.3,604.1,309.4,597,303.9z
		"/>
	<path class="st0" d="M438.2,817.3l159-121.3c7.1-5.4,6.4-16.4-1.4-20.8L360.3,540.1l58,269.9C420.2,818.9,430.8,822.8,438.2,817.3z
		"/>
	<path class="st0" d="M310.7,500l62.5-290.8c2.4-11.4-10.6-19.7-19.9-12.6L193.2,318.8c-8.2,6.3-13,16-13,26.4v309.8
		c0,10.3,4.8,20.1,13,26.4l160.1,122.1c9.3,7.1,22.3-1.2,19.9-12.6L310.7,500z"/>
</g>
</svg>
