<svg xmlns="http://www.w3.org/2000/svg" viewBox="0 0 80 80">
  <path fill="#1e8fca" d="M40 80a40.3 40.3 0 0 1-8.06-.81 39.78 39.78 0 0 1-14.3-6.02 40.12 40.12 0 0 1-14.5-17.6 39.95 39.95 0 0 1 3.7-37.93 40.12 40.12 0 0 1 17.59-14.5 39.8 39.8 0 0 1 7.5-2.33 40.39 40.39 0 0 1 16.13 0 39.78 39.78 0 0 1 14.3 6.02 40.12 40.12 0 0 1 14.5 17.6 39.95 39.95 0 0 1-3.7 37.94 40.12 40.12 0 0 1-17.6 14.49 39.8 39.8 0 0 1-7.5 2.33A40.3 40.3 0 0 1 40 80zM27.3 36.33l-4.9 4.9L33.86 52.7 22.4 64.15l4.9 4.9 16.35-16.36zm6.96-6.95l-4.87 4.88L45.73 50.6l4.87-4.88zM52.7 10.96L36.35 27.31 52.7 43.67l4.9-4.9L46.14 27.3 57.6 15.85z" data-name="Subtraction 16"/>
</svg>
