<?xml version="1.0" encoding="UTF-8"?>
<svg width="188px" height="188px" viewBox="0 0 188 188" version="1.1" xmlns="http://www.w3.org/2000/svg" xmlns:xlink="http://www.w3.org/1999/xlink">
    <!-- Generator: Sketch 50.2 (55047) - http://www.bohemiancoding.com/sketch -->
    <title>LikeCoin_Coin_Ticker</title>
    <desc>Created with Sketch.</desc>
    <defs>
        <linearGradient x1="0%" y1="50%" x2="100%" y2="50%" id="linearGradient-1">
            <stop stop-color="#D2F0F0" offset="0%"></stop>
            <stop stop-color="#F0E6B4" offset="100%"></stop>
        </linearGradient>
    </defs>
    <g id="Page-1" stroke="none" stroke-width="1" fill="none" fill-rule="evenodd">
        <g id="LikeCoin_Coin_Ticker" fill-rule="nonzero">
            <circle id="Oval" fill="url(#linearGradient-1)" cx="94" cy="94" r="90"></circle>
            <g id="Group" fill="#28646E">
                <g id="Shape">
                    <path d="M94,187.8 C42.3,187.8 0.2,145.7 0.2,94 C0.2,42.3 42.3,0.2 94,0.2 C145.7,0.2 187.8,42.3 187.8,94 C187.8,145.7 145.7,187.8 94,187.8 Z M94,8.2 C46.7,8.2 8.2,46.7 8.2,94 C8.2,141.3 46.7,179.8 94,179.8 C141.3,179.8 179.8,141.3 179.8,94 C179.8,46.7 141.3,8.2 94,8.2 Z"></path>
                    <g transform="translate(31.000000, 38.000000)">
                        <g transform="translate(0.000000, 4.000000)">
                            <path d="M57.7386139,31.1351064 C56.8930693,31.1351064 55.9267327,30.7744681 55.3227723,30.0531915 C54.1148515,28.7308511 54.2356436,26.687234 55.5643564,25.4851064 C64.6237624,17.5510638 68.7306931,10.9393617 69.4554455,9.73723404 C72.1128713,5.04893617 76.4613861,2.64468085 80.9306931,3.36595745 C82.7425743,3.60638298 83.950495,5.16914894 83.7089109,6.97234043 C83.4673267,8.77553191 81.8970297,9.97765957 80.0851485,9.73723404 C77.4277228,9.37659574 75.7366337,11.9010638 75.0118812,12.9829787 C74.1663366,14.4255319 69.6970297,21.7585106 59.9128713,30.4138298 C59.3089109,30.8946809 58.4633663,31.1351064 57.7386139,31.1351064 Z"></path>
                            <path d="M3.5029703,85.4712766 C2.53663366,85.4712766 1.69108911,85.1106383 1.08712871,84.2691489 C-9.99200722e-16,82.9468085 0.120792079,80.9031915 1.44950495,79.7010638 C4.59009901,77.056383 11.1128713,72.9691489 13.2871287,71.7670213 C14.8574257,70.9255319 16.790099,71.6468085 17.6356436,73.2095745 C18.4811881,74.7723404 17.7564356,76.6957447 16.1861386,77.537234 C14.4950495,78.3787234 8.45544554,82.2255319 5.55643564,84.6297872 C4.95247525,85.2308511 4.22772277,85.4712766 3.5029703,85.4712766 Z"></path>
                            <path d="M84.5544554,55.0574468 C85.8831683,56.2595745 87.3326733,55.7787234 88.6613861,54.456383 C97.9623762,45.5606383 107.867327,31.7361702 111.128713,24.5234043 C111.853465,22.9606383 113.30297,22.1191489 114.752475,22.7202128 C116.564356,23.4414894 116.564356,26.5670213 114.873267,29.812766 C110.524752,38.5882979 104.605941,48.3255319 92.7683168,60.587234 C91.6811881,61.7893617 91.8019802,63.3521277 92.7683168,64.193617 C93.8554455,65.1553191 95.5465347,65.0351064 97.1168317,63.4723404 C103.277228,57.2212766 107.384158,52.412766 110.887129,47.4840426 C111.853465,46.1617021 112.940594,45.6808511 114.027723,45.9212766 C115.59802,46.2819149 115.839604,47.7244681 115.356436,49.5276596 C114.631683,52.412766 106.417822,62.9914894 103.277228,66.5978723 C94.580198,76.3351064 85.7623762,81.6244681 68.9722772,90.4 C63.0534653,93.4053191 58.7049505,96.4106383 56.0475248,100.858511 C53.6316832,104.945745 52.9069307,106.268085 52.6653465,106.748936 C51.6990099,108.67234 52.4237624,111.196809 54.4772277,112.158511 C55.0811881,112.398936 55.5643564,112.519149 56.1683168,112.519149 C57.7386139,112.519149 59.1881188,111.557447 59.7920792,110.114894 C59.7920792,110.114894 59.6712871,110.235106 62.8118812,104.825532 C64.3821782,102.301064 67.6435644,98.4542553 72.7168317,96.1702128 C89.5069307,88.4765957 96.5128713,82.4659574 106.29703,72.7287234 C110.766337,68.2808511 116.926733,58.7840426 118.617822,56.0191489 C123.328713,48.0851064 120.912871,41.3531915 116.564356,40.2712766 C116.20198,40.1510638 116.081188,39.7904255 116.20198,39.4297872 C119.463366,33.7797872 121.033663,29.9329787 121.637624,26.9276596 C122.483168,22.8404255 121.275248,17.9117021 115.718812,16.7095745 C115.477228,16.5893617 115.235644,16.3489362 115.356436,15.9882979 C115.718812,14.6659574 116.081188,13.1031915 116.322772,12.0212766 C117.530693,6.73191489 114.148515,1.92340426 110.041584,1.08191489 C107.142574,0.480851064 104.605941,1.08191489 102.431683,2.64468085 C102.069307,2.88510638 101.706931,2.76489362 101.465347,2.52446809 C100.619802,1.56276596 99.170297,0.60106383 97.2376238,0.60106383 C93.7346535,0.480851064 90.2316832,1.56276596 87.6950495,6.97234043 C85.8831683,10.8191489 83.2257426,15.9882979 75.2534653,24.7638298 C67.8851485,32.9382979 57.6178218,40.7521277 51.3366337,44.9595745 C50.249505,45.6808511 48.6792079,45.5606383 48.8,43.9978723 C49.0415842,41.593617 51.5782178,25.8457447 52.0613861,21.1574468 C52.7861386,13.5840426 48.6792079,10.0978723 44.0891089,9.49680851 C40.3445545,9.01595745 34.5465347,10.0978723 31.4059406,18.6329787 C29.5940594,23.6819149 25.7287129,31.856383 22.4673267,45.0797872 C20.1722772,54.456383 19.809901,65.2755319 21.8633663,77.7776596 C21.9841584,78.4989362 21.8633663,79.3404255 21.5009901,79.9414894 C18.9643564,84.0287234 15.3405941,89.4382979 13.2871287,94.1265957 C12.4415842,96.05 13.1663366,98.3340426 14.9782178,99.2957447 C15.5821782,99.656383 16.1861386,99.7765957 16.9108911,99.7765957 C18.360396,99.7765957 19.809901,98.9351064 20.5346535,97.4925532 C21.7425743,94.9680851 24.2792079,90.1595745 25.2455446,88.1159574 C26.9366337,84.6297872 28.0237624,82.3457447 28.5069307,80.9031915 C28.8693069,79.5808511 29.2316832,78.0180851 28.3861386,74.6521277 C27.0574257,68.8819149 26.6950495,57.9425532 28.990099,48.2053191 C32.1306931,35.462766 37.5663366,21.1574468 38.5326733,18.7531915 C39.4990099,16.3489362 40.8277228,15.6276596 42.1564356,15.7478723 C43.4851485,15.8680851 46.1425743,16.4691489 45.4178218,21.2776596 C44.0891089,29.9329787 42.2772277,40.8723404 41.6732673,44.5989362 C41.3108911,46.4021277 41.0693069,50.6095745 44.3306931,52.5329787 C46.9881188,54.0957447 49.8871287,53.2542553 53.0277228,51.0904255 C60.1544554,46.2819149 72.5960396,36.6648936 80.3267327,28.0095745 C88.419802,18.8734043 91.0772277,13.4638298 93.1306931,8.53510638 C94.0970297,6.25106383 96.5128713,6.3712766 97.3584158,6.61170213 C98.2039604,6.85212766 99.2910891,8.05425532 98.5663366,10.4585106 C96.7544554,16.4691489 89.2653465,30.1734043 75.0118812,43.0361702 C73.4415842,44.4787234 73.5623762,46.1617021 74.4079208,47.1234043 C75.1326733,47.9648936 76.7029703,48.5659574 78.3940594,47.1234043 C91.3188119,36.1840426 98.5663366,23.0808511 101.948515,16.1085106 C103.639604,12.6223404 104.243564,10.5787234 104.726733,8.89574468 C105.451485,6.85212766 107.021782,6.13085106 108.108911,6.3712766 C109.679208,6.73191489 110.766337,8.29468085 110.162376,10.9393617 C109.679208,13.2234043 108.350495,16.95 106.659406,20.6765957 C102.552475,29.4521277 93.8554455,41.112766 84.4336634,51.0904255 C83.4673267,52.2925532 83.2257426,53.8553191 84.5544554,55.0574468 Z"></path>
                        </g>
                        <path d="M25.6717183,15.7204876 C26.149219,15.236358 26.0298438,14.7522284 25.7910934,14.2680988 C25.0748424,12.0895155 21.2548366,2.7700202 20.18046,0.954534107 C19.7029593,-0.0137251409 18.9867082,-0.134757547 18.2704571,0.107307265 C17.3154557,0.470404483 16.2410791,1.31763132 14.4504514,2.8910526 C12.6598237,4.46447388 11.7048222,5.43273313 11.2273215,6.40099237 C10.869196,7.12718681 10.869196,7.73234884 11.7048222,8.33751087 C13.3760748,9.54783493 21.9710877,14.7522284 24.0004657,15.7204876 C24.7167168,15.9625524 25.1942175,16.2046173 25.6717183,15.7204876 Z"></path>
                        <path d="M7.72664602,19 C6.64561547,19 6.16515744,19.4721185 6.04504294,20.1802963 C5.92492843,21.1245333 6.04504294,22.5408888 6.40538646,24.7834518 C6.76572997,27.0260147 7.12607349,28.4423703 7.60653151,29.2685777 C7.96687503,29.8587258 8.56744755,30.2128147 9.5283636,29.8587258 C11.4501957,29.0325184 20.3386691,24.4293629 22.2605012,23.131037 C22.6208447,22.8949777 23.1013027,22.5408888 22.9811882,21.9507407"></path>
                        <path d="M97.4993106,97.0155124 C96.9102337,97.0155124 96.674603,97.6150064 96.5567876,98.0946016 C95.7320799,100.25278 93.3757722,109.964583 93.0223261,112.002863 C92.9045107,113.081952 93.2579568,113.561548 93.9648491,113.801345 C94.9073722,114.041143 96.3211568,114.041143 98.5596491,113.921244 C100.798141,113.801345 102.211926,113.561548 103.154449,113.201851 C103.861341,112.842155 104.214788,112.362559 103.861341,111.28347 C103.272264,109.245191 99.6199875,100.012982 98.5596491,97.9747028 C98.4418337,97.4951076 98.0883876,96.8956136 97.4993106,97.0155124 Z"></path>
                        <path d="M103.129818,92.4995638 C102.768793,93.1115294 103.25016,93.6011018 103.490843,93.9682812 C104.934945,95.804178 111.914767,103.147765 113.599552,104.49409 C114.441944,105.228448 115.043653,105.106055 115.645362,104.49409 C116.367413,103.759731 117.089463,102.5358 118.172539,100.455117 C119.255615,98.3744335 119.857324,97.0281092 119.977666,96.0489642 C120.098007,95.3146055 119.736982,94.7026399 118.774248,94.3354606 C116.728438,93.723495 106.860413,92.1323844 104.573919,92.0099913 C104.092552,92.0099913 103.490843,91.8875982 103.129818,92.4995638 Z"></path>
                    </g>
                </g>
            </g>
        </g>
    </g>
</svg>