<?xml version="1.0" encoding="UTF-8" standalone="no"?>
<svg
   xmlns:dc="http://purl.org/dc/elements/1.1/"
   xmlns:cc="http://creativecommons.org/ns#"
   xmlns:rdf="http://www.w3.org/1999/02/22-rdf-syntax-ns#"
   xmlns:svg="http://www.w3.org/2000/svg"
   xmlns="http://www.w3.org/2000/svg"
   viewBox="0 0 1821.3333 1662.6667"
   height="1662.6667"
   width="1821.3333"
   xml:space="preserve"
   id="svg2"
   version="1.1"><metadata
     id="metadata8"><rdf:RDF><cc:Work
         rdf:about=""><dc:format>image/svg+xml</dc:format><dc:type
           rdf:resource="http://purl.org/dc/dcmitype/StillImage" /></cc:Work></rdf:RDF></metadata><defs
     id="defs6"><clipPath
       id="clipPath18"
       clipPathUnits="userSpaceOnUse"><path
         id="path16"
         d="M 0,1247 H 1366 V 0 H 0 Z" /></clipPath><clipPath
       id="clipPath26"
       clipPathUnits="userSpaceOnUse"><path
         id="path24"
         d="M 0,1247 H 1366 V 0 H 0 Z" /></clipPath></defs><g
     transform="matrix(1.3333333,0,0,-1.3333333,0,1662.6667)"
     id="g10"><g
       id="g12"><g
         clip-path="url(#clipPath18)"
         id="g14"><g
           id="g20"><g
             id="g22" /><g
             id="g32"><g
               style="opacity:0"
               id="g30"
               clip-path="url(#clipPath26)"><path
                 id="path28"
                 style="fill:#ffffff;fill-opacity:1;fill-rule:nonzero;stroke:none"
                 d="M 1366,0 H 0 v 1247 h 1366 z" /></g></g></g><g
           transform="translate(1062.6677,240.7041)"
           id="g34"><path
             id="path36"
             style="fill:#0d4e9e;fill-opacity:1;fill-rule:nonzero;stroke:none"
             d="m 0,0 -0.681,119.134 c 14.356,15.073 24.404,24.404 24.404,24.404 19.381,14.356 12.921,38.042 12.921,38.042 L 25.408,350.799 c -0.14,2.118 -1.899,3.764 -4.022,3.764 h -0.893 c -2.193,0 -3.984,-1.753 -4.03,-3.947 L 13.017,186.598 c -0.034,-1.592 -1.333,-2.865 -2.925,-2.865 H 9.361 c -1.591,0 -2.891,1.273 -2.924,2.865 L 2.99,350.616 c -0.046,2.194 -1.837,3.947 -4.03,3.947 -2.194,0 -3.985,-1.753 -4.031,-3.946 L -8.516,188.033 c -0.034,-1.592 -1.334,-2.864 -2.925,-2.864 h -0.953 c -1.578,0 -2.872,1.252 -2.923,2.83 l -5.334,162.665 c -0.072,2.174 -1.854,3.899 -4.03,3.899 h -0.062 c -2.187,0 -3.975,-1.744 -4.03,-3.93 l -4.136,-164.047 c -0.04,-1.587 -1.338,-2.853 -2.925,-2.853 -1.602,0 -2.905,1.288 -2.926,2.889 l -2.066,163.96 c -0.027,2.207 -1.825,3.981 -4.031,3.981 h -1.579 c -2.123,0 -3.881,-1.645 -4.023,-3.762 L -60.974,193.782 c -9.331,-31.582 5.743,-45.937 5.743,-45.937 32.299,-26.558 30.146,-32.3 30.146,-32.3 L -27.808,-0.134 c -57.051,3.185 -109.774,27.96 -149.006,70.22 -40.595,43.725 -61.45,100.648 -58.699,160.283 5.204,112.53 97.418,204.745 209.95,209.908 3.449,0.16 6.938,0.24 10.367,0.24 60.731,0 117.356,-24.265 159.425,-68.329 42.03,-44.002 63.643,-101.723 60.832,-162.535 C 199.974,98.71 110.327,7.55 0,0 m -350.376,268.85 c -1.755,-13.797 -13.059,-25.082 -26.877,-26.857 -1.355,-0.18 -2.731,-0.26 -4.087,-0.26 -8.972,0 -17.526,3.869 -23.467,10.627 -6.022,6.839 -8.693,15.612 -7.537,24.744 1.755,13.817 13.04,25.102 26.857,26.876 1.376,0.18 2.751,0.259 4.127,0.259 8.952,0 17.506,-3.867 23.447,-10.627 6.021,-6.818 8.693,-15.611 7.537,-24.762 m -173.422,-54.432 c -4.705,-102.183 -81.168,-187.617 -179.423,-206.34 -0.08,-0.019 -0.18,-0.039 -0.259,-0.059 -9.262,-2.008 -18.396,-3.15 -27.179,-3.687 l -1.433,109.777 c 7.178,16.509 31.582,30.865 31.582,30.865 40.196,27.275 32.3,71.059 32.3,71.059 -2.871,104.795 -56.704,128.482 -56.704,128.482 -34.453,12.202 -50.244,-9.331 -50.244,-9.331 -49.527,-45.22 -42.349,-123.457 -42.349,-123.457 -4.306,-48.091 33.736,-69.624 33.736,-69.624 l 32.299,-24.405 -3.479,-113.408 c -28.637,1.594 -49.456,8.334 -50.892,8.813 -0.02,0 -0.04,0 -0.06,0.02 h -0.02 c -95.184,27.973 -163.213,118.951 -158.468,222.011 5.164,112.551 97.378,204.745 209.929,209.928 3.449,0.16 6.938,0.24 10.367,0.24 60.712,0 117.336,-24.265 159.406,-68.328 42.049,-44.003 63.662,-101.745 60.891,-162.556 M 122.637,471.74 c -45.48,64.001 -90.918,127.963 -136.377,191.965 -12.403,17.465 -29.289,31.163 -48.869,39.636 -23.128,9.95 -47.014,14.974 -71.02,14.974 -5.143,0 -10.367,-0.219 -15.492,-0.698 -12.44,-1.137 -45.498,-4.147 -76.283,-26.657 -36.167,-26.418 -50.383,-65.118 -55.926,-92.892 -0.499,-2.432 -2.553,-3.549 -4.267,-3.549 -0.977,0 -1.835,0.339 -2.612,0.977 l -10.169,8.454 c -14.155,11.763 -31.382,19.001 -49.805,20.915 -9.091,0.977 -18.462,1.535 -27.853,1.695 -1.496,0.02 -2.991,0.02 -4.467,0.02 -6.759,0 -13.657,-0.22 -20.476,-0.658 -18.403,-1.197 -35.869,-7.796 -50.523,-19.101 l -11.584,-8.952 c -0.778,-0.598 -1.655,-0.898 -2.592,-0.898 -1.456,0 -3.37,0.778 -4.008,2.911 -2.054,6.979 -4.566,14.017 -7.457,20.975 -4.905,11.704 -13.119,31.283 -30.764,51.182 -21.573,24.284 -46.496,39.936 -74.051,46.575 -11.384,2.752 -20.536,3.25 -34.493,3.25 -3.23,0 -6.739,-0.04 -10.587,-0.06 -24.225,-0.159 -45.16,-0.279 -67.431,-11.245 -7.437,-3.668 -14.355,-8.175 -20.576,-13.378 -6.559,-5.444 -12.78,-12.182 -18.462,-19.998 -24.185,-33.237 -48.35,-66.474 -72.515,-99.711 l -71.838,-98.754 c -95.085,-50.283 -153.822,-148.08 -153.304,-255.387 0.379,-73.951 29.09,-144.193 80.849,-197.787 51.779,-53.613 120.985,-84.717 194.876,-87.588 3.768,-0.159 7.596,-0.22 11.364,-0.22 156.754,0 284.578,126.328 286.99,282.703 l 12.202,-5.622 c 10.607,-4.884 21.753,-7.916 33.117,-9.012 11.226,-1.057 22.451,-1.615 33.317,-1.635 l 2.552,-0.02 c 7.138,0 14.435,0.24 21.672,0.678 12.761,0.758 25.043,3.748 36.488,8.853 l 15.471,6.898 v -0.598 c 0,-158.269 128.761,-287.03 287.03,-287.03 h 0.02 c 3.748,0 7.576,0.08 11.345,0.22 73.552,2.851 142.538,33.716 194.257,86.91 51.7,53.195 80.61,123.038 81.427,196.67 1.197,105.932 -55.926,203.608 -149.176,254.989" /></g><g
           transform="translate(1084.9558,644.7939)"
           id="g38"><path
             id="path40"
             style="fill:#29549d;fill-opacity:1;fill-rule:nonzero;stroke:none"
             d="M 0,0 C 0,0 142.118,-70.342 144.989,-245.479 144.989,-245.479 203.847,-38.76 0,0" /></g><g
           transform="translate(354.2625,644.7939)"
           id="g42"><path
             id="path44"
             style="fill:#29549d;fill-opacity:1;fill-rule:nonzero;stroke:none"
             d="M 0,0 C 0,0 142.119,-70.342 144.99,-245.479 144.99,-245.479 203.848,-38.76 0,0" /></g><g
           transform="translate(1097.5164,1038.0142)"
           id="g46"><path
             id="path48"
             style="fill:#f48221;fill-opacity:1;fill-rule:nonzero;stroke:none"
             d="m 0,0 c -110.717,110.736 -257.939,171.707 -414.514,171.707 -156.594,0 -303.798,-60.971 -414.514,-171.707 -96.839,-96.82 -155.617,-221.533 -168.856,-356.036 l 29.289,25.102 c 40.474,269.445 273.512,476.722 554.081,476.722 280.629,0 513.766,-207.417 554.12,-476.981 l 28.592,-18.602 C 153.783,-217.685 95.344,-95.325 0,0 m -110.477,-884.955 c -87.628,-56.823 -192.044,-89.861 -304.037,-89.861 -114.186,0 -220.496,34.334 -309.161,93.211 l -32.1,-9.729 c 98.853,-71.081 217.106,-109.401 341.261,-109.401 124.095,0 242.308,38.301 341.121,109.301 z" /></g><g
           transform="translate(807.5164,265.3916)"
           id="g50"><path
             id="path52"
             style="fill:#f48221;fill-opacity:1;fill-rule:nonzero;stroke:none"
             d="m 0,0 c -40.435,-14.655 -84.02,-22.63 -129.438,-22.63 -42.369,0 -83.143,6.939 -121.245,19.759 -7.855,-13.339 -21.752,-30.885 -44.78,-43.067 51.978,-21.333 108.144,-32.519 166.025,-32.519 58.338,0 121.502,13.737 173.84,35.41 C 33.895,-33.277 13.278,-20.637 0,0 m -129.438,795.631 c -89.224,0 -174.36,-26.558 -246.396,-75.924 17.805,-1.157 48.649,-4.287 91.436,-12.821 0,-0.02 0,-0.02 0.02,0 47.373,21.155 99.81,32.918 154.94,32.918 59.375,0 115.621,-13.637 165.765,-37.962 10.407,5.642 37.743,13.957 81.767,19.699 -68.927,43.425 -164.072,74.09 -247.532,74.09" /></g></g></g></g></svg>