<svg id="_ÎÓÈ_1" data-name="—ÎÓÈ_1" xmlns="http://www.w3.org/2000/svg" viewBox="0 0 160 141.18"><defs><style>.cls-1{fill:#4bc0c8;}.cls-2{fill:#02819b;}</style></defs><title>rgb-logo-only</title><path class="cls-1" d="M121.42,141.18,12.1,64.44a28.32,28.32,0,0,1,0-46.39L38.58-.45,147.9,76.3a28.33,28.33,0,0,1,0,46.39ZM38.57,11.89,17.93,26.33a18.21,18.21,0,0,0,0,29.84l103.52,72.67,20.64-14.43a18.22,18.22,0,0,0,0-29.84Z"/><path class="cls-2" d="M38.47,128.77,17.86,114.3a18.22,18.22,0,0,1,0-29.84L71.21,47.16,62.41,41,12.09,76.18a28.32,28.32,0,0,0,0,46.39l26.41,18.54,32.67-22.86-8.8-6.18Z"/><path class="cls-2" d="M147.95,18.16,121.53-.38,88.83,22.5l8.8,6.18L121.52,12l20.62,14.47a18.22,18.22,0,0,1,0,29.84L88.78,93.58l8.8,6.18,50.33-35.21a28.32,28.32,0,0,0,0-46.39Z"/><rect class="cls-2" x="16.69" y="56.3" width="50.74" height="10.11" transform="translate(-27.57 35.19) rotate(-34.98)"/><path class="cls-2" d="M136.76,60,116.51,74.18l5.79,8.28,21-14.71C141.1,65.21,138.93,62.61,136.76,60Z"/></svg>