<?xml version="1.0" encoding="utf-8"?>
<!-- Generator: Adobe Illustrator 21.0.0, SVG Export Plug-In . SVG Version: 6.00 Build 0)  -->
<svg version="1.1" id="图层_1" xmlns="http://www.w3.org/2000/svg" xmlns:xlink="http://www.w3.org/1999/xlink" x="0px" y="0px"
	 viewBox="0 0 300 300" style="enable-background:new 0 0 300 300;" xml:space="preserve">
<style type="text/css">
	.st0{fill:#307DFB;}
</style>
<g>
	<g>
		<g>
			<path class="st0" d="M150.5,299.3c-82.2,0-148.8-66.6-148.8-148.8S68.3,1.7,150.5,1.7s148.8,66.6,148.8,148.8
				S232.3,299.3,150.5,299.3z M150.5,11.5c-76.7,0-139.1,62.4-139.1,139.1s62.4,139.1,139.1,139.1s139.1-62.4,139.1-139.1
				S227.1,11.5,150.5,11.5z"/>
		</g>
	</g>
</g>
<g>
	<g>
		<g>
			<g>
				<path class="st0" d="M150.1,34.3L81.9,142.8l68.2,54.6l68.9-54.6L150.1,34.3z M145.6,182.2l-51-40l51.3-85.1L145.6,182.2z
					 M155,57.1l51.3,85.1l-51,40L155,57.1z"/>
			</g>
		</g>
	</g>
	<g>
		<path class="st0" d="M120.5,259.1h-18.7v-45.4h6.9v38.6h11.8V259.1z"/>
		<path class="st0" d="M144.2,213.6c3.8,0,6.6,1.1,8.4,3.2c1.6,1.8,2.4,4.4,2.4,7.7v6.6c0,3.2-1.2,5.9-3.7,8.2l5.1,19.8h-7.4
			l-4.2-17.1c-0.2,0-0.4,0-0.6,0h-4v17.1h-6.9v-45.4H144.2z M148.3,224.6c0-2.6-1.3-4-3.9-4h-4.1v14.5h4.1c1.1,0,2-0.4,2.8-1.2
			c0.8-0.8,1.1-1.7,1.1-2.8V224.6z"/>
		<path class="st0" d="M180.1,259.7c-3,0-5.6-1.1-7.7-3.2c-2.1-2.1-3.2-4.7-3.2-7.7V224c0-3,1.1-5.6,3.2-7.7
			c2.1-2.1,4.7-3.2,7.7-3.2c3,0,5.6,1.1,7.7,3.2c2.1,2.1,3.2,4.7,3.2,7.7v5.2h-7.1v-5.3c0-1.1-0.4-2-1.2-2.8
			c-0.8-0.8-1.7-1.2-2.8-1.2c-1.1,0-2,0.4-2.8,1.2s-1.1,1.7-1.1,2.8v24.9c0,1.1,0.4,2,1.1,2.8s1.7,1.1,2.8,1.1c1.1,0,2-0.4,2.8-1.1
			c0.8-0.8,1.2-1.7,1.2-2.8v-6.3h7.1v6.3c0,3-1.1,5.6-3.2,7.7C185.7,258.6,183.1,259.7,180.1,259.7z"/>
	</g>
</g>
</svg>
