<svg clip-rule="evenodd" fill-rule="evenodd" stroke-linejoin="round" stroke-miterlimit="1.41421" viewBox="0 0 690 600" xmlns="http://www.w3.org/2000/svg" xmlns:xlink="http://www.w3.org/1999/xlink"><linearGradient id="a" gradientUnits="userSpaceOnUse" x1="162.365" x2="531.039" y1="300.001" y2="300.001"><stop offset="0" stop-color="#7cb7ff"/><stop offset="1" stop-color="#ba6df6"/></linearGradient><path d="m389.712 110.677-42.291 42.293 8.561 8.562c4.814 4.813 12.625 4.81 17.436 0l42.293-42.293-8.562-8.562c-2.407-2.408-5.563-3.61-8.718-3.61-3.157 0-6.311 1.204-8.719 3.61zm-106.98 0-8.563 8.562 42.295 42.293c4.811 4.81 12.62 4.813 17.435 0l8.562-8.562-42.293-42.293c-2.406-2.406-5.562-3.61-8.719-3.61-3.155 0-6.311 1.202-8.717 3.61zm146.807 55.333-79.913 79.913 16.179 16.178c9.094 9.094 23.853 9.091 32.944 0l79.913-79.913-16.18-16.178c-4.547-4.548-10.51-6.82-16.472-6.82s-11.926 2.274-16.471 6.82zm-202.14 0-16.179 16.178 79.913 79.913c9.089 9.091 23.849 9.094 32.943 0l16.178-16.178-79.911-79.913c-4.545-4.546-10.509-6.818-16.472-6.82-5.963 0-11.924 2.272-16.472 6.82zm108.824-1.844-8.563 8.563 17.28 17.28 17.28-17.28-8.562-8.563c-2.406-2.406-5.561-3.61-8.718-3.61-3.155 0-6.311 1.204-8.717 3.61zm149.312 79.649-132.809 132.807 26.889 26.887c15.115 15.115 39.642 15.108 54.75 0l132.807-132.807-26.887-26.887c-7.557-7.558-17.465-11.336-27.374-11.335-9.909 0-19.821 3.78-27.376 11.335zm-335.94 0-26.887 26.887 132.808 132.807c15.107 15.108 39.635 15.115 54.749 0l26.889-26.887-132.809-132.807c-7.555-7.555-17.467-11.335-27.376-11.335-9.909-.001-19.817 3.777-27.374 11.335zm178.873 23.264-16.178 16.178 32.65 32.652 32.65-32.652-16.177-16.178c-4.546-4.545-10.51-6.818-16.473-6.818-5.963-.002-11.924 2.272-16.472 6.818zm-10.903 144.705-26.887 26.889 54.262 54.26 54.262-54.26-26.886-26.889c-7.555-7.555-17.467-11.333-27.376-11.333-9.909-.001-19.817 3.776-27.375 11.333z" fill="url(#a)" fill-rule="nonzero"/></svg>