<?xml version="1.0" encoding="utf-8"?>
<!-- Generator: Adobe Illustrator 23.0.3, SVG Export Plug-In . SVG Version: 6.00 Build 0)  -->
<svg version="1.1" id="Layer_1" xmlns="http://www.w3.org/2000/svg" xmlns:xlink="http://www.w3.org/1999/xlink" x="0px" y="0px"
	 width="128px" height="128px" viewBox="0 0 128 128" style="enable-background:new 0 0 128 128;" xml:space="preserve">
<style type="text/css">
	.st0{display:none;opacity:0.49;}
	.st1{display:inline;fill:#0CE8AE;}
	.st2{fill:#FFFFFF;}
	.st3{fill:#F9D85E;}
	.st4{fill:#EF7730;}
</style>
<g class="st0">
	<circle class="st1" cx="64" cy="448" r="420"/>
</g>
<g>
	<g>
		<circle class="st2" cx="64" cy="64" r="64"/>
	</g>
	<g>
		<path class="st3" d="M69.31,78.76C43.21,67.1,26.93,43.43,25.98,19.61c-0.04-1-1.24-1.5-1.99-0.84
			C11.37,29.86,3.46,46.15,3.61,64.29c0.27,32.3,26.5,58.81,58.82,59.42c26.1,0.49,48.48-15.67,57.23-38.56
			c0.35-0.9-0.46-1.84-1.4-1.6C103.06,87.37,85.7,86.09,69.31,78.76z"/>
		<path class="st4" d="M122.51,52.96L122.51,52.96c-0.02-0.12-0.04-0.24-0.07-0.36c0,0,0,0,0,0c-0.33-1.73-0.73-3.43-1.2-5.1
			c-0.02-0.08-0.04-0.15-0.06-0.23c0,0,0,0,0,0c-0.23-0.8-0.48-1.6-0.74-2.39c-0.02-0.06-0.04-0.12-0.06-0.18c0,0,0,0,0,0
			c-0.55-1.65-1.17-3.26-1.86-4.84c-0.02-0.03-0.03-0.07-0.05-0.11c0,0,0,0,0,0c-0.33-0.76-0.68-1.52-1.05-2.26c0,0,0,0,0,0
			c-0.01-0.02-0.02-0.04-0.03-0.06c-0.38-0.77-0.77-1.53-1.18-2.28c0,0,0,0,0,0c-0.01-0.02-0.02-0.04-0.03-0.06c0,0,0,0,0,0
			c-0.42-0.77-0.86-1.52-1.31-2.27c-0.01-0.02-0.02-0.04-0.04-0.06c0,0,0,0,0,0c-0.42-0.69-0.85-1.36-1.29-2.03c0,0,0,0,0,0
			c-0.05-0.08-0.1-0.15-0.15-0.23c0,0,0,0,0,0c-0.93-1.4-1.93-2.75-2.97-4.06c-0.06-0.08-0.13-0.16-0.19-0.24c0,0,0,0,0,0
			c-0.55-0.69-1.12-1.36-1.71-2.02c0,0,0,0,0-0.01l0,0c-0.56-0.64-1.14-1.26-1.72-1.87c-0.02-0.02-0.05-0.05-0.07-0.07c0,0,0,0,0,0
			c-0.53-0.55-1.07-1.1-1.63-1.63c0,0,0,0,0,0c-0.08-0.08-0.16-0.15-0.24-0.23c0,0,0,0,0,0c-0.57-0.54-1.14-1.07-1.73-1.59
			c-0.07-0.06-0.14-0.12-0.21-0.18c0,0,0,0,0,0c-0.6-0.52-1.21-1.03-1.82-1.53l0,0c-0.06-0.05-0.11-0.09-0.17-0.14c0,0,0,0,0,0
			c-0.65-0.52-1.32-1.03-2-1.53c-0.01-0.01-0.03-0.02-0.04-0.03c0,0,0,0,0,0c-0.68-0.5-1.38-0.99-2.08-1.46
			c-0.01-0.01-0.02-0.01-0.03-0.02c0,0,0,0,0,0c-1.41-0.94-2.87-1.83-4.37-2.65c0,0,0,0,0,0c-0.06-0.03-0.11-0.06-0.17-0.09
			c-0.71-0.39-1.44-0.76-2.17-1.13h0c-0.1-0.05-0.19-0.1-0.29-0.14c0,0,0,0,0,0c-1.52-0.74-3.08-1.42-4.67-2.04
			c-0.09-0.04-0.18-0.07-0.27-0.11c0,0,0,0,0,0c-0.82-0.31-1.66-0.61-2.5-0.89c-0.02-0.01-0.03-0.01-0.05-0.02l0,0
			c-0.78-0.26-1.57-0.5-2.37-0.73c-0.07-0.02-0.14-0.04-0.22-0.06c0,0,0,0,0,0c-0.85-0.24-1.71-0.46-2.57-0.66
			c-0.02,0-0.03-0.01-0.05-0.01l0,0c-0.82-0.19-1.65-0.36-2.48-0.52c-0.05-0.01-0.11-0.02-0.16-0.03c0,0,0,0,0,0
			c-0.87-0.16-1.75-0.3-2.63-0.43c-0.01,0-0.01,0-0.02,0c0,0,0,0,0,0c-1.37-0.19-2.75-0.33-4.15-0.43C67.87,4,68.1,4.02,68.33,4.05
			c0,0,0,0,0,0c0.55,0.05,1.08,0.1,1.6,0.16c0,0,0,0,0.01,0c0.52,0.06,1.02,0.12,1.51,0.19c0.01,0,0.02,0,0.02,0
			c0.48,0.07,0.95,0.14,1.41,0.22c0.01,0,0.03,0,0.04,0.01c0.45,0.08,0.89,0.16,1.32,0.25c0.02,0,0.04,0.01,0.06,0.01
			c0.42,0.09,0.83,0.18,1.23,0.28c0.03,0.01,0.05,0.01,0.08,0.02c0.39,0.1,0.77,0.2,1.13,0.31c0.03,0.01,0.07,0.02,0.1,0.03
			c0.36,0.11,0.71,0.22,1.05,0.34c0.04,0.01,0.08,0.03,0.12,0.04c0.33,0.12,0.65,0.24,0.96,0.36c0.05,0.02,0.1,0.04,0.15,0.06
			c0.3,0.12,0.59,0.25,0.88,0.39c0.06,0.03,0.11,0.06,0.17,0.09c0.27,0.13,0.54,0.26,0.79,0.4c0.07,0.04,0.13,0.08,0.2,0.11
			c0.24,0.14,0.48,0.27,0.71,0.42c0.08,0.05,0.15,0.1,0.23,0.15c0.21,0.14,0.43,0.28,0.63,0.43c0.09,0.07,0.18,0.14,0.27,0.21
			c0.18,0.14,0.37,0.27,0.54,0.42c0.11,0.09,0.21,0.19,0.32,0.28c0.15,0.13,0.3,0.26,0.45,0.39c0.14,0.13,0.27,0.27,0.41,0.4
			c0.11,0.11,0.22,0.21,0.32,0.32c0.24,0.25,0.47,0.51,0.69,0.78c0.33,0.4,2.04,2.57,2.96,6.38c1.11,4.59,0.92,9.37,1.97,13.97
			c0.18,0.77,0.37,1.53,0.56,2.27c0.05,0.2,0.11,0.39,0.16,0.59c0.16,0.57,0.32,1.14,0.48,1.69c0.05,0.17,0.1,0.34,0.15,0.51
			c5.4,17.4,16.21,25.67,30.71,36.74c0.5-3.1,0.75-6.28,0.75-9.52C123.48,60.09,123.15,56.47,122.51,52.96z"/>
		<path class="st3" d="M122.91,55.48c-2.12-4.9-2.12-4.9-58.98-25.44C35.32,19.7,30.01,9.72,50.72,5.2
			c1.01-0.22,2.03-0.41,3.05-0.58c3.17-0.52,6.42-0.78,9.73-0.78C93.81,3.84,118.87,26.31,122.91,55.48"/>
	</g>
</g>
</svg>
