<?xml version="1.0" encoding="UTF-8"?>
<svg width="28px" height="28px" viewBox="0 0 28 28" version="1.1" xmlns="http://www.w3.org/2000/svg" xmlns:xlink="http://www.w3.org/1999/xlink">
    <title>mAAPL</title>
    <g id="Icons" stroke="none" stroke-width="1" fill="none" fill-rule="evenodd">
        <g id="AAPL" fill="#ADADAD" fill-rule="nonzero">
            <path d="M22.9171002,19.3178584 C22.5885309,20.0942409 22.1996118,20.8088965 21.749002,21.4659415 C21.1347777,22.3616607 20.6318653,22.9816698 20.2442872,23.3259671 C19.6434746,23.8911076 18.9997464,24.1805362 18.3104206,24.196997 C17.8155548,24.196997 17.218765,24.0529678 16.5240751,23.760797 C15.8271056,23.4699945 15.1865959,23.3259671 14.6009373,23.3259671 C13.9867133,23.3259671 13.3279647,23.4699945 12.6233507,23.760797 C11.9176631,24.0529678 11.349171,24.2052274 10.9145202,24.2203161 C10.2534918,24.2491216 9.59460976,23.9514626 8.93693369,23.3259671 C8.51716972,22.9514923 7.99212906,22.309536 7.36315262,21.4000983 C6.68831121,20.4289357 6.133498,19.3027696 5.69884736,18.018858 C5.23335147,16.6320687 5,15.2891739 5,13.9890766 C5,12.4998215 5.31462216,11.215361 5.94480516,10.1389875 C6.4400735,9.27440513 7.09895605,8.59239542 7.92359826,8.09172444 C8.7482412,7.59105422 9.63926828,7.33591797 10.5988258,7.31959438 C11.1238661,7.31959438 11.8123875,7.48570734 12.6680093,7.81217216 C13.5212173,8.13973424 14.0690569,8.3058472 14.3092476,8.3058472 C14.4888209,8.3058472 15.0974122,8.11161405 16.1291208,7.72438353 C17.1047717,7.36527226 17.928207,7.21657941 18.6027804,7.27515096 C20.4307004,7.42603815 21.8039871,8.16305302 22.7172765,9.49085905 C21.0824754,10.5039972 20.2737917,11.9230212 20.2898848,13.7434049 C20.3046369,15.1613314 20.8075493,16.341268 21.7959403,17.2781401 C22.2438675,17.7129685 22.7440983,18.0490352 23.3006536,18.2877114 C23.1799562,18.645725 23.0525517,18.9886502 22.9171002,19.3178584 Z M18.724821,2.44457097 C18.724821,3.5559358 18.3278547,4.59361399 17.5366061,5.55407816 C16.5817419,6.69588219 15.4267869,7.35566981 14.174333,7.25155796 C14.1583741,7.11822846 14.1491204,6.97790378 14.1491204,6.83044615 C14.1491204,5.76353709 14.6032171,4.62173362 15.4096211,3.68815419 C15.8122187,3.21546657 16.3242509,2.82243321 16.9451805,2.50890305 C17.5647688,2.20005095 18.1508298,2.02924909 18.7020215,2 C18.7181159,2.14857212 18.724821,2.29715358 18.724821,2.44455656 L18.724821,2.44457097 Z" id="path4"></path>
        </g>
    </g>
</svg>