<?xml version="1.0" encoding="utf-8"?>
<!-- Generator: Adobe Illustrator 24.3.0, SVG Export Plug-In . SVG Version: 6.00 Build 0)  -->
<svg version="1.1" id="Layer_1" xmlns="http://www.w3.org/2000/svg" xmlns:xlink="http://www.w3.org/1999/xlink" x="0px" y="0px"
	 viewBox="0 0 1024 768" style="enable-background:new 0 0 1024 768;" xml:space="preserve">
<style type="text/css">
	.st0{fill:#F43B4E;}
	.st1{fill:#F95921;}
	.st2{fill:#FFFFFF;}
	.st3{opacity:0.3;fill:url(#SVGID_1_);}
	.st4{opacity:0.3;fill:url(#SVGID_2_);}
	.st5{opacity:0.3;fill:url(#SVGID_3_);}
	.st6{opacity:0.4;fill:url(#SVGID_4_);}
	.st7{opacity:0.4;fill:url(#SVGID_5_);}
	.st8{opacity:0.4;fill:url(#SVGID_6_);}
	.st9{fill:#3F3F3F;}
	.st10{opacity:0.4;fill:url(#SVGID_7_);}
	.st11{opacity:0.4;fill:url(#SVGID_8_);}
	.st12{opacity:0.4;fill:url(#SVGID_9_);}
	.st13{opacity:0.6;fill:url(#SVGID_10_);}
	.st14{opacity:0.6;fill:url(#SVGID_11_);}
	.st15{opacity:0.6;fill:url(#SVGID_12_);}
	.st16{fill:url(#SVGID_13_);}
	.st17{opacity:0.4;fill:url(#SVGID_14_);}
	.st18{opacity:0.4;fill:url(#SVGID_15_);}
	.st19{opacity:0.4;fill:url(#SVGID_16_);}
	.st20{opacity:0.6;fill:url(#SVGID_17_);}
	.st21{opacity:0.6;fill:url(#SVGID_18_);}
	.st22{opacity:0.6;fill:url(#SVGID_19_);}
	.st23{fill:url(#SVGID_20_);}
	.st24{opacity:0.6;fill:url(#SVGID_21_);}
	.st25{opacity:0.6;fill:url(#SVGID_22_);}
	.st26{opacity:0.6;fill:url(#SVGID_23_);}
	.st27{fill:url(#SVGID_24_);}
	.st28{fill:url(#SVGID_25_);}
	.st29{fill:url(#SVGID_26_);}
	.st30{opacity:0.3;fill:url(#SVGID_27_);}
	.st31{opacity:0.4;fill:url(#SVGID_28_);}
	.st32{opacity:0.4;fill:url(#SVGID_29_);}
	.st33{opacity:0.4;fill:url(#SVGID_30_);}
	.st34{opacity:0.4;fill:url(#SVGID_31_);}
	.st35{opacity:0.6;fill:url(#SVGID_32_);}
	.st36{opacity:0.6;fill:url(#SVGID_33_);}
	.st37{opacity:0.6;fill:url(#SVGID_34_);}
	.st38{fill:#383838;}
	.st39{fill:url(#SVGID_35_);}
	.st40{opacity:0.4;fill:url(#SVGID_36_);}
	.st41{opacity:0.6;fill:url(#SVGID_37_);}
	.st42{opacity:0.6;fill:url(#SVGID_38_);}
	.st43{opacity:0.6;fill:url(#SVGID_39_);}
	.st44{fill:url(#SVGID_40_);}
	.st45{fill:url(#SVGID_41_);}
	.st46{fill:url(#SVGID_42_);}
	.st47{opacity:0.6;fill:url(#SVGID_43_);}
	.st48{fill:url(#SVGID_44_);}
	.st49{fill:url(#SVGID_45_);}
	.st50{fill:url(#SVGID_46_);}
	.st51{fill:url(#SVGID_47_);}
	.st52{fill:url(#SVGID_48_);}
	.st53{opacity:0.3;fill:url(#SVGID_49_);}
	.st54{opacity:0.3;fill:url(#SVGID_50_);}
	.st55{opacity:0.4;fill:url(#SVGID_51_);}
	.st56{opacity:0.4;fill:url(#SVGID_52_);}
	.st57{opacity:0.4;fill:url(#SVGID_53_);}
	.st58{opacity:0.4;fill:url(#SVGID_54_);}
	.st59{opacity:0.4;fill:url(#SVGID_55_);}
	.st60{opacity:0.4;fill:url(#SVGID_56_);}
	.st61{opacity:0.4;fill:url(#SVGID_57_);}
	.st62{opacity:0.6;fill:url(#SVGID_58_);}
	.st63{opacity:0.6;fill:url(#SVGID_59_);}
	.st64{opacity:0.6;fill:url(#SVGID_60_);}
	.st65{fill:url(#SVGID_61_);}
	.st66{opacity:0.4;fill:url(#SVGID_62_);}
	.st67{opacity:0.4;fill:url(#SVGID_63_);}
	.st68{opacity:0.4;fill:url(#SVGID_64_);}
	.st69{opacity:0.6;fill:url(#SVGID_65_);}
	.st70{opacity:0.6;fill:url(#SVGID_66_);}
	.st71{opacity:0.6;fill:url(#SVGID_67_);}
	.st72{fill:url(#SVGID_68_);}
	.st73{fill:url(#SVGID_69_);}
	.st74{opacity:0.6;fill:url(#SVGID_70_);}
	.st75{opacity:0.6;fill:url(#SVGID_71_);}
	.st76{opacity:0.6;fill:url(#SVGID_72_);}
	.st77{fill:url(#SVGID_73_);}
	.st78{fill:url(#SVGID_74_);}
	.st79{fill:url(#SVGID_75_);}
	.st80{opacity:0.3;fill:url(#SVGID_76_);}
	.st81{opacity:0.4;fill:url(#SVGID_77_);}
	.st82{opacity:0.4;fill:url(#SVGID_78_);}
	.st83{opacity:0.4;fill:url(#SVGID_79_);}
	.st84{opacity:0.4;fill:url(#SVGID_80_);}
	.st85{opacity:0.6;fill:url(#SVGID_81_);}
	.st86{opacity:0.6;fill:url(#SVGID_82_);}
	.st87{opacity:0.6;fill:url(#SVGID_83_);}
	.st88{fill:url(#SVGID_84_);}
	.st89{opacity:0.4;fill:url(#SVGID_85_);}
	.st90{opacity:0.6;fill:url(#SVGID_86_);}
	.st91{opacity:0.6;fill:url(#SVGID_87_);}
	.st92{opacity:0.6;fill:url(#SVGID_88_);}
	.st93{fill:url(#SVGID_89_);}
	.st94{fill:url(#SVGID_90_);}
	.st95{fill:url(#SVGID_91_);}
	.st96{fill:url(#SVGID_92_);}
	.st97{opacity:0.6;fill:url(#SVGID_93_);}
	.st98{fill:url(#SVGID_94_);}
	.st99{fill:url(#SVGID_95_);}
	.st100{fill:url(#SVGID_96_);}
	.st101{fill:url(#SVGID_97_);}
	.st102{fill:url(#SVGID_98_);}
	.st103{opacity:0.3;fill:url(#SVGID_99_);}
	.st104{opacity:0.3;fill:url(#SVGID_100_);}
	.st105{opacity:0.4;fill:url(#SVGID_101_);}
	.st106{opacity:0.4;fill:url(#SVGID_102_);}
	.st107{opacity:0.4;fill:url(#SVGID_103_);}
	.st108{opacity:0.4;fill:url(#SVGID_104_);}
	.st109{opacity:0.4;fill:url(#SVGID_105_);}
	.st110{opacity:0.4;fill:url(#SVGID_106_);}
	.st111{opacity:0.4;fill:url(#SVGID_107_);}
	.st112{opacity:0.6;fill:url(#SVGID_108_);}
	.st113{opacity:0.6;fill:url(#SVGID_109_);}
	.st114{opacity:0.6;fill:url(#SVGID_110_);}
	.st115{fill:url(#SVGID_111_);}
	.st116{opacity:0.4;fill:url(#SVGID_112_);}
	.st117{opacity:0.4;fill:url(#SVGID_113_);}
	.st118{opacity:0.4;fill:url(#SVGID_114_);}
	.st119{opacity:0.6;fill:url(#SVGID_115_);}
	.st120{opacity:0.6;fill:url(#SVGID_116_);}
	.st121{opacity:0.6;fill:url(#SVGID_117_);}
	.st122{fill:url(#SVGID_118_);}
	.st123{fill:url(#SVGID_119_);}
	.st124{opacity:0.6;fill:url(#SVGID_120_);}
	.st125{opacity:0.6;fill:url(#SVGID_121_);}
	.st126{opacity:0.6;fill:url(#SVGID_122_);}
	.st127{fill:url(#SVGID_123_);}
	.st128{fill:url(#SVGID_124_);}
	.st129{fill:url(#SVGID_125_);}
	.st130{fill:url(#SVGID_126_);}
	.st131{opacity:0.29;fill:url(#SVGID_127_);}
	.st132{opacity:0.4;fill:url(#SVGID_128_);}
	.st133{opacity:0.4;fill:url(#SVGID_129_);}
	.st134{opacity:0.4;fill:url(#SVGID_130_);}
	.st135{opacity:0.4;fill:#3F3F3F;}
	.st136{opacity:0.6;fill:#3F3F3F;}
	.st137{fill:url(#SVGID_131_);}
	.st138{opacity:0.4;fill:url(#SVGID_132_);}
	.st139{opacity:0.6;fill:url(#SVGID_133_);}
	.st140{opacity:0.6;fill:url(#SVGID_134_);}
	.st141{opacity:0.6;fill:url(#SVGID_135_);}
	.st142{fill:url(#SVGID_136_);}
	.st143{fill:url(#SVGID_137_);}
	.st144{fill:url(#SVGID_138_);}
	.st145{fill:url(#SVGID_139_);}
	.st146{opacity:0.6;fill:url(#SVGID_140_);}
	.st147{fill:url(#SVGID_141_);}
	.st148{fill:url(#SVGID_142_);}
	.st149{fill:url(#SVGID_143_);}
	.st150{fill:url(#SVGID_144_);}
	.st151{fill:url(#SVGID_145_);}
	.st152{fill:url(#SVGID_146_);}
</style>
<g>
	<rect x="-1.23" y="0.84" width="1024.59" height="768.44"/>
</g>
<g>
	<linearGradient id="SVGID_1_" gradientUnits="userSpaceOnUse" x1="400.5371" y1="495.5865" x2="621.5958" y2="274.5277">
		<stop  offset="0" style="stop-color:#FF8506"/>
		<stop  offset="0.5805" style="stop-color:#FD3947"/>
		<stop  offset="1" style="stop-color:#FB0078"/>
	</linearGradient>
	<path style="fill:url(#SVGID_1_);" d="M678.02,359.93l-77.15-105.6c-5.75-7.87-14.63-12.38-24.37-12.38s-18.63,4.51-24.37,12.38
		l-8.39,11.49l-8.39-11.49c-5.75-7.87-14.63-12.38-24.37-12.38c-9.74,0-18.63,4.51-24.37,12.38l-8.29,11.35l-8.29-11.35
		c-5.75-7.87-14.63-12.38-24.37-12.38c-9.74,0-18.63,4.51-24.37,12.38l-77.15,105.6c-10.98,15.03-10.98,35.22,0,50.25l77.15,105.6v0
		c5.75,7.87,14.63,12.38,24.37,12.38c9.74,0,18.63-4.51,24.37-12.38l41.06-56.2l8.47,11.6l0,0c0.03,0.04,0.06,0.08,0.09,0.12
		l32.5,44.48v0c5.75,7.87,14.63,12.38,24.37,12.38c9.74,0,18.63-4.51,24.37-12.38l77.15-105.6C689,395.15,689,374.96,678.02,359.93z
		 M498.9,263.32c2.84-3.89,7.24-6.13,12.06-6.13s9.22,2.23,12.06,6.13l11.26,15.41l-23.23,31.79l-23.32-31.93L498.9,263.32z
		 M457.7,506.79c-2.84,3.89-7.24,6.13-12.06,6.13c-4.82,0-9.22-2.23-12.06-6.13l-77.15-105.6c-7.05-9.65-7.05-22.61,0-32.26
		l77.15-105.6c2.84-3.89,7.24-6.13,12.06-6.13c4.82,0,9.22,2.23,12.06,6.13l11.16,15.28l-59.42,81.33
		c-10.98,15.03-10.98,35.22,0.02,50.28l4.52,6.13l0.01-0.01l39.83,54.85c5.07,6.94,12.59,11.27,20.98,12.19L457.7,506.79z
		 M490.27,462.2l-0.01-0.01c-2.84,3.89-7.24,6.13-12.06,6.13c-4.82,0-9.22-2.23-12.05-6.11l-40.95-56.4l-0.02,0.01l-3.42-4.64
		c-7.05-9.65-7.05-22.61,0-32.26l56.55-77.4l23.32,31.93l-26.65,36.48c-10.98,15.03-10.98,35.22,0,50.25l26.65,36.48L490.27,462.2z
		 M511.07,336.38l23.78,32.55c7.05,9.65,7.05,22.61,0,32.26l-23.78,32.55l-23.78-32.55c-7.05-9.65-7.05-22.61,0-32.26L511.07,336.38
		z M547.16,410.18c10.98-15.03,10.98-35.22,0-50.25l-26.65-36.48l23.23-31.79l56.45,77.27c7.05,9.65,7.05,22.61-0.03,32.31
		l-9.04,12.57l-35.14,48.39c-2.84,3.89-7.24,6.13-12.06,6.13c-4.77,0-9.12-2.19-11.97-6l-11.44-15.65L547.16,410.18z M665.71,401.19
		l-77.15,105.6c-2.84,3.89-7.24,6.13-12.06,6.13c-4.82,0-9.22-2.23-12.06-6.13l-17.11-23.42c8.38-0.93,15.89-5.25,20.97-12.2
		l30.19-41.58l0.03,0.02l4.95-6.88l5.78-7.96l-0.04-0.03l3.28-4.56c10.98-15.03,10.98-35.22,0-50.25l-59.32-81.19l11.26-15.41
		c2.84-3.89,7.24-6.13,12.06-6.13c4.82,0,9.22,2.23,12.06,6.13l77.15,105.6C672.76,378.57,672.76,391.54,665.71,401.19z"/>
	<linearGradient id="SVGID_2_" gradientUnits="userSpaceOnUse" x1="491.3569" y1="473.1161" x2="465.5337" y2="509.6611">
		<stop  offset="0" style="stop-color:#78005B"/>
		<stop  offset="0.3483" style="stop-color:#7A025A;stop-opacity:0.6517"/>
		<stop  offset="0.51" style="stop-color:#820955;stop-opacity:0.49"/>
		<stop  offset="0.6332" style="stop-color:#8E154E;stop-opacity:0.3668"/>
		<stop  offset="0.7369" style="stop-color:#A12643;stop-opacity:0.2631"/>
		<stop  offset="0.8283" style="stop-color:#B83C36;stop-opacity:0.1717"/>
		<stop  offset="0.9111" style="stop-color:#D65725;stop-opacity:0.0889"/>
		<stop  offset="0.9857" style="stop-color:#F87711;stop-opacity:0.0143"/>
		<stop  offset="1" style="stop-color:#FF7E0D;stop-opacity:0"/>
	</linearGradient>
	<path style="opacity:0.6;fill:url(#SVGID_2_);" d="M478.2,483.56c-1.17,0-2.32-0.07-3.46-0.2l-16.57,22.83l12.49,8.82l30.29-41.58
		C495.23,479.89,486.96,483.56,478.2,483.56z"/>
	
		<linearGradient id="SVGID_3_" gradientUnits="userSpaceOnUse" x1="9335.2754" y1="506.941" x2="9359.5811" y2="471.9828" gradientTransform="matrix(-1 0 0 1 9889.7275 0)">
		<stop  offset="0" style="stop-color:#FF7E0D;stop-opacity:0"/>
		<stop  offset="9.287427e-03" style="stop-color:#F97811;stop-opacity:0.0127"/>
		<stop  offset="0.0651" style="stop-color:#D65825;stop-opacity:0.0888"/>
		<stop  offset="0.1269" style="stop-color:#B93D36;stop-opacity:0.1729"/>
		<stop  offset="0.1949" style="stop-color:#A12643;stop-opacity:0.2657"/>
		<stop  offset="0.272" style="stop-color:#8F154E;stop-opacity:0.3707"/>
		<stop  offset="0.3632" style="stop-color:#820955;stop-opacity:0.495"/>
		<stop  offset="0.4822" style="stop-color:#7A025A;stop-opacity:0.6573"/>
		<stop  offset="0.7336" style="stop-color:#78005B"/>
	</linearGradient>
	<path style="opacity:0.6;fill:url(#SVGID_3_);" d="M543.84,483.56c1.17,0,2.32-0.07,3.46-0.2l16.57,22.83l-12.49,8.82l-30.14-41.54
		C526.96,479.93,535.08,483.56,543.84,483.56z"/>
	<linearGradient id="SVGID_4_" gradientUnits="userSpaceOnUse" x1="492.2006" y1="472.9296" x2="511.8545" y2="444.6617">
		<stop  offset="0" style="stop-color:#FF7E0D;stop-opacity:0"/>
		<stop  offset="0.0133" style="stop-color:#F97910;stop-opacity:0.0192"/>
		<stop  offset="0.1144" style="stop-color:#D25427;stop-opacity:0.1659"/>
		<stop  offset="0.219" style="stop-color:#B1363A;stop-opacity:0.3175"/>
		<stop  offset="0.3263" style="stop-color:#981E48;stop-opacity:0.4731"/>
		<stop  offset="0.4375" style="stop-color:#860D53;stop-opacity:0.6344"/>
		<stop  offset="0.5551" style="stop-color:#7B0359;stop-opacity:0.8048"/>
		<stop  offset="0.6897" style="stop-color:#78005B"/>
	</linearGradient>
	<polygon style="opacity:0.6;fill:url(#SVGID_4_);" points="501.5,446.56 511.14,459.71 496.49,479.36 486.86,466.59 	"/>
	<linearGradient id="SVGID_5_" gradientUnits="userSpaceOnUse" x1="433.951" y1="331.151" x2="477.6841" y2="287.4179">
		<stop  offset="0" style="stop-color:#FF4630;stop-opacity:0"/>
		<stop  offset="0.5722" style="stop-color:#B31F48;stop-opacity:0.5722"/>
		<stop  offset="1" style="stop-color:#78005B"/>
	</linearGradient>
	<polygon style="fill:url(#SVGID_5_);" points="468.86,278.59 478.33,291.62 444.04,338.72 432.05,329.25 	"/>
	<linearGradient id="SVGID_6_" gradientUnits="userSpaceOnUse" x1="480.2046" y1="360.2425" x2="509.3348" y2="331.1123">
		<stop  offset="0" style="stop-color:#FF4630;stop-opacity:0"/>
		<stop  offset="0.5722" style="stop-color:#B31F48;stop-opacity:0.5722"/>
		<stop  offset="1" style="stop-color:#78005B"/>
	</linearGradient>
	<polygon style="fill:url(#SVGID_6_);" points="501.64,323.42 511.02,336.45 489.15,366.67 477.16,357.2 	"/>
	<linearGradient id="SVGID_7_" gradientUnits="userSpaceOnUse" x1="512.8036" y1="315.682" x2="542.03" y2="286.4557">
		<stop  offset="0" style="stop-color:#FF4630;stop-opacity:0"/>
		<stop  offset="0.5722" style="stop-color:#B31F48;stop-opacity:0.5722"/>
		<stop  offset="1" style="stop-color:#78005B"/>
	</linearGradient>
	<polygon style="fill:url(#SVGID_7_);" points="534.3,278.72 543.73,291.68 520.54,323.42 511.08,310.48 	"/>
</g>
</svg>
