<svg xmlns="http://www.w3.org/2000/svg" xmlns:xlink="http://www.w3.org/1999/xlink" width="54.803" height="58.583" viewBox="0 0 14.5 15.5" xmlns:v="https://vecta.io/nano"><defs><linearGradient id="A" x1="23.87" x2="6.189" y1="17.637" y2="17.929" xlink:href="#B"/><linearGradient id="B" gradientUnits="userSpaceOnUse"><stop stop-color="#4297ff" offset="0"/><stop stop-color="#18e7d9" offset="1"/></linearGradient><linearGradient id="C" x1="24.771" x2="7.538" y1="17.187" y2="16.604" xlink:href="#B"/><linearGradient id="D" x1="24.347" x2="6.838" y1="14.669" y2="15.226" xlink:href="#B"/><linearGradient id="E" x1="24.161" x2="7.023" y1="18.697" y2="19.042" xlink:href="#B"/><linearGradient id="F" x1="24.956" x2="6.568" y1="22.487" y2="23.229" xlink:href="#B"/><linearGradient id="G" x1="23.711" x2="10.839" y1="19.095" y2="20.711" xlink:href="#B"/><linearGradient id="H" x1="22.73" x2="8.22" y1="18.167" y2="18.167" xlink:href="#B"/></defs><g transform="translate(-8.37 -10.6)"><g fill="none" stroke-linecap="round" stroke-linejoin="round" stroke-width=".372"><path d="m18.1 11.2c3.38 8.27-3.46 13.2-3.46 13.2" stroke="url(#A)"/><path d="m13.7 12.4c7.69 5.04 4.16 12.7 3.65 13.1" stroke="url(#C)"/><path d="m15 11.5c4.87 1.21 6.6 5.62 6.58 5.77" stroke="url(#D)"/><path d="M13.9 12.3c6.67-5.28 13.5 6.93.513 12.1" stroke="url(#E)"/><path d="M21.4 21l-.506 1.19c-3.18 6.71-6.99 1.05-6.49 2.21" stroke="url(#F)"/><path d="M21.7 17.5c2.02-1.69.527 4.5-.255 3.48" stroke="url(#G)"/></g><g fill="url(#H)"><ellipse cx="14.6" cy="16.5" rx="1.1" ry="1.11"/><circle cx="12.1" cy="20.2" r="1.1"/><ellipse cx="9.98" cy="15.4" rx=".695" ry=".706"/><ellipse cx="12.6" cy="14.5" rx=".532" ry=".529"/><ellipse cx="8.9" cy="18.5" rx=".532" ry=".529"/><ellipse cx="10.2" cy="22.4" rx=".532" ry=".529"/><ellipse cx="15.4" cy="20.3" rx=".686" ry=".682"/><ellipse cx="18.4" cy="19.1" rx=".837" ry=".82"/><ellipse cx="18.8" cy="13.4" rx=".587" ry=".577"/><ellipse cx="18.1" cy="11.2" rx=".587" ry=".577"/><ellipse cx="13.8" cy="12.4" rx=".587" ry=".577"/><ellipse cx="14.6" cy="24.3" rx=".686" ry=".699"/><ellipse cx="18.5" cy="22.3" rx=".706" ry=".685"/><ellipse cx="17.4" cy="25.6" rx=".546" ry=".532"/><ellipse cx="15.1" cy="11.6" rx=".429" ry=".404"/></g></g></svg>