<?xml version="1.0" encoding="UTF-8"?>
<svg width="28px" height="28px" viewBox="0 0 28 28" version="1.1" xmlns="http://www.w3.org/2000/svg" xmlns:xlink="http://www.w3.org/1999/xlink">
    <title>AMZN</title>
    <g id="AMZN" stroke="none" stroke-width="1" fill="none" fill-rule="evenodd">
        <circle id="Oval" fill="#FFFFFF" cx="14" cy="14" r="14"></circle>
        <g id="Group-9" transform="translate(5.000000, 5.000000)">
            <path d="M10.4463799,7.97221281 L10.4455849,7.97221281 C10.4455849,8.94562868 10.4686393,9.75470162 9.9757534,10.6206625 C9.57667484,11.3238607 8.94148804,11.756051 8.2379332,11.756051 C7.27283086,11.756051 6.70998699,11.0259891 6.70998699,9.9451182 C6.70998699,7.8181413 8.62985697,7.43098726 10.4463799,7.43098726 L10.4463799,7.97221281 Z M14.9189217,11.7441993 C14.4610149,11.1136913 13.9713089,10.6001196 13.9713089,9.42996629 L13.9713089,5.54025334 C13.9713089,3.89208328 14.0873756,2.37823197 12.8647006,1.24363359 C11.9019832,0.323945218 10.304079,-2.13162821e-14 9.08219901,-2.13162821e-14 C6.69249749,-2.13162821e-14 4.02455394,0.886503743 3.46488998,3.82255357 C3.40447171,4.13385703 3.63422013,4.29978019 3.84011923,4.34402636 L6.27354449,4.60713309 C6.50249793,4.59528144 6.66705822,4.37247034 6.70998699,4.1472889 C6.919066,3.13673784 7.77128157,2.64844969 8.72922912,2.64844969 C9.24675929,2.64844969 9.83424746,2.83886627 10.1403137,3.29634012 C10.4924886,3.81149203 10.44479,4.51390008 10.44479,5.10885312 L10.44479,5.43279834 C8.9883917,5.59398084 7.08442126,5.70222595 5.72103533,6.29796911 C4.14777541,6.9735134 3.0419621,8.35146575 3.0419621,10.3780986 C3.0419621,12.9728208 4.68835992,14.2693918 6.80299932,14.2693918 C8.58931313,14.2693918 9.56554516,13.8506334 10.9440357,12.4545085 C11.4019425,13.1103 11.5498083,13.4295046 12.3861243,14.1184807 C12.571354,14.2188247 12.8122321,14.2101335 12.9783824,14.0600126 L12.9847422,14.0655434 C13.4847828,13.6215014 14.3966217,12.8345515 14.910972,12.4071019 C15.1152811,12.2419688 15.0810971,11.9717511 14.9189217,11.7441993 L14.9189217,11.7441993 Z" id="Fill-1" fill="#000000"></path>
            <path d="M0.0791615026,14.7548356 C-0.103683258,14.5478267 0.0584920949,14.2657573 0.278700785,14.4261497 C2.78605893,16.2536748 5.88647009,17.3542984 9.08784335,17.3542984 C11.2485914,17.3542984 13.6231884,16.7941102 15.8077858,15.6310679 C16.1377013,15.4548733 16.4143534,15.904446 16.0907977,16.2023176 C14.1423085,18.0037691 11.3177544,18.962963 8.88432918,18.962963 C5.47387691,18.962963 2.40446987,17.3827424 0.0791615026,14.7548356 Z M14.4967888,14.7902325 C15.6320163,13.9977519 17.492263,14.2268839 17.7084968,14.4923609 C17.9263206,14.7594182 17.6512584,16.6130169 16.586784,17.4979405 C16.4230186,17.6346295 16.2679981,17.5611493 16.340341,17.3817943 C16.5796292,16.7884214 17.1154438,15.4578757 16.8618461,15.1339305 C16.6090433,14.8099853 15.1860341,14.9806491 14.5460774,15.0564997 C14.352103,15.080203 14.3218939,14.9119095 14.4967888,14.7902325 Z" id="Combined-Shape" fill="#F89500"></path>
        </g>
    </g>
</svg>