<svg xmlns="http://www.w3.org/2000/svg" viewBox="0 0 256 256"><defs><linearGradient id="b" x1=".854" x2=".146" y1=".146" y2=".854" gradientUnits="objectBoundingBox"><stop offset="0" stop-color="#ff2d55"/><stop offset="1" stop-color="#ffbc5b"/></linearGradient><linearGradient id="c" x1=".5" x2=".5" y2="1" gradientUnits="objectBoundingBox"><stop offset="0" stop-color="#a524b3"/><stop offset="1" stop-color="#ff2d55"/></linearGradient><clipPath id="a"><path d="M0 0h256v256H0z"/></clipPath></defs><g clip-path="url(#a)"><circle cx="128" cy="128" r="128" fill="url(#b)"/><path fill="url(#c)" fill-rule="evenodd" d="M125.7 0v95.913h79.927z" transform="translate(-35.095 83.124)"/><path fill="#fff" fill-rule="evenodd" d="M10.678 179.037h79.927V83.124z"/><path fill="#fc9965" fill-rule="evenodd" d="M25.577 204.614a130.973 130.973 0 0025.577 25.577h153.46a130.973 130.973 0 0025.577-25.577z"/><path fill="#ff2d55" fill-rule="evenodd" d="M51.153 230.19a127.884 127.884 0 00153.46 0z"/><path fill="url(#c)" fill-rule="evenodd" d="M252.3 0v70.336h58.635z" transform="translate(-80.744 134.278)"/><path fill="#ffbc5b" fill-rule="evenodd" d="M171.555 179.037H10.678a127.339 127.339 0 0014.9 25.577h146.041v-25.577z"/><path fill="#fff" fill-rule="evenodd" d="M112.985 204.614h58.571v-70.336z"/><circle cx="31.971" cy="31.971" r="31.971" fill="#ffc95b" transform="translate(139.585 51.153)"/><circle cx="15.985" cy="15.985" r="15.985" fill="#ffc95b" transform="translate(74.62 31.971)"/></g></svg>