<?xml version="1.0" encoding="utf-8"?>
<!-- Generator: Adobe Illustrator 25.0.0, SVG Export Plug-In . SVG Version: 6.00 Build 0)  -->
<svg version="1.1" id="Layer_1" xmlns="http://www.w3.org/2000/svg" xmlns:xlink="http://www.w3.org/1999/xlink" x="0px" y="0px"
	 viewBox="0 0 1440 1440" style="enable-background:new 0 0 1440 1440;" xml:space="preserve">
<style type="text/css">
	.st0{fill:#0FD297;}
</style>
<g>
	<g>
		<g>
			<g>
				<path class="st0" d="M792.069,839.592c17.41,23.695,34.286,47.037,53.658,69.213c34.91,39.963,74.819,72.725,126.701,88.406
					c28.483,8.609,57.766,12.459,87.256,15.18c2.322,0.214,4.065,0.456,5.4,3.004c15.406,29.414,23.929,60.245,19.926,93.758
					c-0.312,2.612-0.736,5.21-1.224,8.448c-0.101,0.669-0.923,0.936-1.405,0.462c-6.997-6.889-13.659-13.085-20.934-18.562
					c-24.329-18.318-51.094-30.781-81.941-32.02c-41.055-1.648-76.307,22.749-90.739,62.028
					c-11.749,31.978-11.258,64.412-3.42,97.093c0.382,1.592,0.78,3.182,1.074,4.791c0.138,0.752,0.037,1.702-0.568,1.546
					c-12.11-3.54-22.957-9.642-33.227-16.724c-18.925-13.049-33.574-30.111-45.779-49.467c-2.014-3.195-0.736-5.369,0.434-7.921
					c10.025-21.86,18.898-44.137,25.643-67.267c13.635-46.759,11.568-93.372-0.643-139.982
					c-9.562-36.497-24.381-71.019-39.515-105.425c-0.823-1.872-1.549-3.786-2.32-5.681
					C789.896,839.119,791.432,838.531,792.069,839.592z"/>
				<path class="st0" d="M721.916,1268.474c-0.727,2.043-3.618,2.07-4.358,0.031c-15.928-43.901-37.612-83.37-55.64-124.466
					c-11.886-27.095-23.054-54.466-27.19-84.087c-0.001-0.008-0.002-0.016-0.003-0.024c-0.248-1.798,1.593-3.141,3.253-2.408
					c54.382,24.014,108.391,23.999,162.712-0.284c1.663-0.743,3.477,0.654,3.23,2.459c-2.994,21.9-9.574,41.407-17.093,60.665
					c-14.126,36.182-32.129,70.609-47.935,106.031C732.886,1239.848,727.26,1253.464,721.916,1268.474z"/>
				<path class="st0" d="M716.189,767.203c0.992-2.406,4.414-2.372,5.363,0.051c2.206,5.636,4.343,11.161,6.691,16.594
					c15.618,36.147,31.464,72.198,46.939,108.406c4.669,10.923,8.246,22.308,12.658,33.348c1.571,3.93,0.851,5.576-3.142,7.095
					c-43.717,16.639-87.372,16.736-131.143,0.206c-4.133-1.561-4.352-3.286-3.042-7.149c13.398-39.506,31.35-77.114,47.735-115.376
					C704.382,796.053,710.195,781.59,716.189,767.203L716.189,767.203z"/>
			</g>
			<path class="st0" d="M1107.039,1016.616c-0.455-1.155,0.44-2.394,1.679-2.311c29.206,1.966,57.531,4.859,85.556,10.449
				c3.768,0.752,3.672,3.141,4.085,5.688c6.622,40.845,5.467,81.505-3.392,121.889c-10.631,48.464-30.757,92.427-64.486,129.236
				c-51.523,56.228-116.48,80.435-191.842,76.487c-68.919-3.61-129.71-29.171-183.373-72.233c-2.65-2.126-3.238-3.881-2.123-7.195
				c9.069-26.959,20.881-52.734,33.319-78.248c0.003-0.007,0.007-0.014,0.01-0.021c0.53-1.071,2.046-1.131,2.785-0.192
				c62.703,79.692,166.442,101.132,247.855,50.161C1111.502,1203.753,1143.995,1110.434,1107.039,1016.616z"/>
		</g>
		<g>
			<g>
				<path class="st0" d="M647.361,841.147c-11.816,26.925-23.592,53.212-33.111,81.076
					c-17.154,50.215-25.573,101.158-13.212,153.929c6.786,28.971,18.093,56.256,30.482,83.156c0.976,2.118,1.638,3.748,0.098,6.179
					c-17.77,28.049-40.209,50.846-71.234,64.136c-2.418,1.036-4.88,1.968-7.928,3.164c-0.63,0.247-1.272-0.331-1.102-0.986
					c2.468-9.504,4.502-18.372,5.608-27.411c3.7-30.229,1.11-59.64-13.241-86.973c-19.1-36.378-57.855-54.71-99.087-47.568
					c-33.568,5.814-61.411,22.457-85.795,45.584c-1.188,1.126-2.366,2.266-3.612,3.326c-0.583,0.495-1.456,0.883-1.623,0.282
					c-2.989-12.257-3.128-24.702-2.131-37.138c1.838-22.914,9.29-44.131,19.95-64.38c1.759-3.342,4.282-3.322,7.077-3.585
					c23.943-2.248,47.673-5.702,71.076-11.426c47.312-11.571,86.647-36.667,120.907-70.548
					c26.827-26.53,49.313-56.624,71.543-86.933c1.209-1.649,2.505-3.235,3.76-4.85C646.685,839.029,647.962,840.065,647.361,841.147
					z"/>
				<path class="st0" d="M240.862,994.834c-2.133,0.392-3.602-2.099-2.206-3.758c30.056-35.744,53.394-74.258,79.971-110.419
					c17.522-23.841,35.642-47.198,59.226-65.591c0.006-0.005,0.013-0.01,0.019-0.015c1.433-1.114,3.516-0.191,3.711,1.613
					c6.394,59.103,33.412,105.869,81.602,140.771c1.475,1.068,1.172,3.338-0.515,4.027c-20.463,8.357-40.647,12.412-61.084,15.529
					c-38.398,5.857-77.214,7.48-115.793,11.502C271.138,990.021,256.533,991.956,240.862,994.834z"/>
				<path class="st0" d="M672.112,739.239c2.58-0.343,4.262,2.637,2.637,4.67c-3.778,4.728-7.494,9.342-11.026,14.092
					c-23.495,31.599-46.793,63.347-70.412,94.853c-7.125,9.505-15.196,18.295-22.551,27.636c-2.618,3.325-4.403,3.525-7.716,0.827
					c-36.268-29.54-58.179-67.298-65.75-113.471c-0.715-4.359,0.669-5.412,4.67-6.209c40.912-8.15,82.458-11.408,123.786-16.349
					C641.224,743.439,656.656,741.241,672.112,739.239L672.112,739.239z"/>
			</g>
			<path class="st0" d="M651.539,1202.431c0.773-0.972,2.294-0.816,2.841,0.298c12.901,26.276,24.557,52.252,33.729,79.318
				c1.233,3.639-0.884,4.75-2.884,6.382c-32.062,26.158-67.852,45.487-107.255,58.007c-47.287,15.025-95.423,19.577-144.164,8.771
				c-74.456-16.506-127.898-60.657-162.161-127.897c-31.333-61.49-39.592-126.917-29.131-194.923
				c0.517-3.358,1.742-4.745,5.169-5.436c27.882-5.625,56.109-8.283,84.424-10.269c0.008-0.001,0.016-0.001,0.023-0.002
				c1.193-0.076,2.003,1.206,1.559,2.316c-37.664,94.148-4.362,194.709,80.487,239.729
				C491.705,1299.865,588.768,1281.345,651.539,1202.431z"/>
		</g>
	</g>
	<g>
		<g>
			<g>
				<path class="st0" d="M646.164,589.106c-17.41-23.695-34.286-47.037-53.658-69.213c-34.91-39.963-74.819-72.725-126.701-88.406
					c-28.483-8.609-57.766-12.459-87.256-15.18c-2.322-0.214-4.065-0.456-5.4-3.004c-15.406-29.414-23.929-60.245-19.926-93.758
					c0.312-2.612,0.736-5.21,1.224-8.448c0.101-0.669,0.923-0.936,1.405-0.462c6.997,6.889,13.659,13.085,20.935,18.562
					c24.329,18.318,51.094,30.781,81.941,32.02c41.055,1.648,76.307-22.749,90.739-62.028c11.749-31.978,11.258-64.412,3.42-97.093
					c-0.382-1.592-0.78-3.182-1.074-4.791c-0.138-0.752-0.037-1.702,0.568-1.546c12.11,3.54,22.957,9.642,33.227,16.724
					c18.925,13.049,33.574,30.111,45.779,49.467c2.014,3.195,0.736,5.369-0.434,7.921c-10.025,21.86-18.898,44.137-25.643,67.267
					c-13.635,46.759-11.568,93.372,0.643,139.982c9.562,36.497,24.381,71.019,39.515,105.425c0.823,1.872,1.549,3.786,2.32,5.681
					C648.337,589.579,646.801,590.167,646.164,589.106z"/>
				<path class="st0" d="M716.317,160.224c0.727-2.043,3.618-2.07,4.358-0.031c15.928,43.901,37.612,83.37,55.64,124.466
					c11.886,27.095,23.054,54.466,27.19,84.087c0.001,0.008,0.002,0.016,0.003,0.024c0.248,1.798-1.593,3.141-3.253,2.408
					c-54.382-24.014-108.391-23.999-162.712,0.284c-1.663,0.743-3.477-0.654-3.23-2.459c2.994-21.9,9.574-41.407,17.093-60.665
					c14.126-36.182,32.129-70.61,47.935-106.031C705.347,188.85,710.973,175.234,716.317,160.224z"/>
				<path class="st0" d="M722.044,661.494c-0.992,2.406-4.414,2.372-5.363-0.051c-2.206-5.636-4.343-11.161-6.691-16.594
					c-15.618-36.147-31.464-72.198-46.939-108.406c-4.669-10.923-8.246-22.308-12.658-33.348c-1.571-3.93-0.851-5.575,3.142-7.095
					c43.717-16.639,87.372-16.736,131.143-0.206c4.133,1.561,4.352,3.286,3.042,7.149c-13.398,39.506-31.35,77.114-47.735,115.376
					C733.851,632.645,728.038,647.108,722.044,661.494L722.044,661.494z"/>
			</g>
			<path class="st0" d="M331.194,412.082c0.455,1.155-0.44,2.394-1.679,2.311c-29.206-1.966-57.53-4.859-85.556-10.449
				c-3.768-0.752-3.672-3.141-4.085-5.689c-6.622-40.845-5.467-81.505,3.392-121.889c10.631-48.464,30.757-92.427,64.486-129.236
				c51.523-56.228,116.48-80.435,191.842-76.487c68.919,3.61,129.71,29.171,183.373,72.233c2.65,2.126,3.238,3.881,2.123,7.195
				c-9.069,26.959-20.881,52.734-33.319,78.248c-0.003,0.007-0.007,0.014-0.01,0.021c-0.53,1.071-2.046,1.131-2.785,0.192
				C586.273,148.84,482.534,127.4,401.121,178.371C326.731,224.945,294.238,318.264,331.194,412.082z"/>
		</g>
		<g>
			<g>
				<path class="st0" d="M790.872,587.55c11.816-26.925,23.592-53.212,33.111-81.076c17.154-50.215,25.573-101.158,13.212-153.929
					c-6.786-28.971-18.093-56.257-30.482-83.156c-0.976-2.118-1.638-3.748-0.098-6.179c17.77-28.049,40.209-50.846,71.234-64.136
					c2.418-1.036,4.88-1.968,7.928-3.164c0.63-0.247,1.272,0.331,1.102,0.986c-2.468,9.504-4.502,18.372-5.608,27.411
					c-3.7,30.229-1.11,59.64,13.241,86.973c19.1,36.378,57.855,54.71,99.087,47.568c33.568-5.814,61.411-22.457,85.795-45.584
					c1.188-1.126,2.366-2.266,3.612-3.326c0.583-0.495,1.456-0.883,1.623-0.282c2.99,12.257,3.128,24.702,2.131,37.138
					c-1.838,22.914-9.29,44.132-19.95,64.38c-1.759,3.342-4.282,3.322-7.077,3.585c-23.943,2.248-47.673,5.702-71.076,11.426
					c-47.312,11.571-86.647,36.667-120.906,70.548c-26.827,26.53-49.313,56.624-71.543,86.933c-1.209,1.649-2.505,3.235-3.76,4.85
					C791.548,589.669,790.271,588.633,790.872,587.55z"/>
				<path class="st0" d="M1197.371,433.864c2.133-0.392,3.602,2.099,2.206,3.758c-30.055,35.744-53.394,74.258-79.971,110.419
					c-17.522,23.841-35.642,47.198-59.226,65.591c-0.006,0.005-0.013,0.01-0.019,0.015c-1.433,1.114-3.516,0.191-3.712-1.613
					c-6.394-59.103-33.412-105.869-81.602-140.771c-1.475-1.068-1.172-3.338,0.515-4.027c20.463-8.357,40.647-12.412,61.084-15.529
					c38.398-5.857,77.214-7.48,115.793-11.502C1167.095,438.677,1181.7,436.741,1197.371,433.864z"/>
				<path class="st0" d="M766.121,689.459c-2.58,0.343-4.262-2.637-2.637-4.67c3.778-4.728,7.494-9.342,11.026-14.092
					c23.495-31.599,46.793-63.347,70.412-94.853c7.125-9.505,15.196-18.295,22.551-27.636c2.618-3.325,4.403-3.525,7.716-0.827
					c36.268,29.54,58.179,67.298,65.75,113.471c0.715,4.359-0.669,5.412-4.67,6.209c-40.912,8.15-82.458,11.408-123.786,16.349
					C797.009,685.259,781.577,687.456,766.121,689.459L766.121,689.459z"/>
			</g>
			<path class="st0" d="M786.694,226.267c-0.773,0.972-2.294,0.816-2.841-0.298c-12.901-26.276-24.557-52.252-33.729-79.318
				c-1.233-3.639,0.884-4.75,2.884-6.382c32.062-26.158,67.852-45.487,107.255-58.007c47.287-15.025,95.423-19.577,144.164-8.771
				c74.456,16.506,127.898,60.657,162.161,127.897c31.333,61.49,39.592,126.917,29.131,194.923
				c-0.517,3.358-1.742,4.744-5.169,5.436c-27.882,5.625-56.109,8.283-84.424,10.269c-0.008,0.001-0.016,0.001-0.023,0.002
				c-1.193,0.076-2.003-1.206-1.559-2.316c37.664-94.148,4.361-194.709-80.487-239.729
				C946.528,128.833,849.465,147.353,786.694,226.267z"/>
		</g>
	</g>
	<g>
		<g>
			<path class="st0" d="M865.108,712.794c29.226-3.23,57.879-6.174,86.769-11.863c52.065-10.252,100.392-28.432,139.912-65.523
				c21.697-20.362,39.673-43.797,56.775-67.976c1.347-1.904,2.427-3.293,5.302-3.174c33.176,1.365,64.138,9.399,91.16,29.623
				c2.106,1.576,4.144,3.242,6.704,5.284c0.529,0.422,0.349,1.268-0.303,1.448c-9.465,2.615-18.161,5.287-26.543,8.849
				c-28.029,11.91-52.205,28.858-68.701,54.953c-21.955,34.73-18.453,77.458,8.348,109.596
				c21.819,26.164,50.154,41.955,82.375,51.509c1.569,0.465,3.146,0.915,4.686,1.465c0.72,0.257,1.492,0.819,1.055,1.265
				c-9.12,8.718-19.829,15.06-31.097,20.414c-20.763,9.865-42.864,14.021-65.73,14.912c-3.774,0.147-5.018-2.047-6.643-4.336
				c-13.918-19.612-28.775-38.435-45.433-55.841c-33.677-35.188-75.078-56.705-121.549-69.434
				c-36.389-9.968-73.694-14.395-111.058-18.492c-2.033-0.223-4.054-0.552-6.08-0.831
				C863.612,714.439,863.87,712.816,865.108,712.794z"/>
			<path class="st0" d="M1201.454,987.99c1.406,1.651-0.017,4.168-2.152,3.79c-45.983-8.157-91.006-9.112-135.611-14.047
				c-29.408-3.254-58.696-7.268-86.416-18.496c-0.007-0.003-0.015-0.006-0.022-0.009c-1.681-0.684-1.924-2.95-0.459-4.021
				c47.988-35.089,74.979-81.87,81.11-141.055c0.188-1.812,2.305-2.684,3.745-1.568c17.469,13.543,31.072,28.995,43.991,45.135
				c24.271,30.325,45.085,63.129,67.858,94.529C1182.148,964.177,1191.127,975.857,1201.454,987.99z"/>
			<path class="st0" d="M764.478,742.314c-1.587-2.062,0.153-5.009,2.726-4.619c5.984,0.908,11.837,1.819,17.717,2.503
				c39.114,4.548,78.257,8.851,117.352,13.552c11.794,1.418,23.442,4.013,35.209,5.711c4.189,0.605,5.254,2.051,4.574,6.269
				c-7.448,46.18-29.192,84.034-65.393,113.676c-3.418,2.799-5.022,2.127-7.712-0.94c-27.514-31.356-51.108-65.707-76.051-99.028
				C783.559,766.964,773.94,754.698,764.478,742.314L764.478,742.314z"/>
		</g>
		<path class="st0" d="M1175.9,528.534c-1.228-0.183-1.854-1.578-1.162-2.609c16.305-24.31,32.973-47.393,51.827-68.869
			c2.535-2.887,4.556-1.61,6.969-0.693c38.684,14.687,73.319,36.018,103.863,63.882c36.655,33.439,64.665,72.85,79.678,120.464
			c22.933,72.734,11.419,141.092-29.681,204.384c-37.586,57.88-90.118,97.746-154.243,122.689c-3.167,1.232-4.98,0.864-7.292-1.759
			c-18.813-21.333-35.228-44.45-51.105-67.979c-0.004-0.006-0.009-0.013-0.013-0.019c-0.663-0.995,0.043-2.338,1.227-2.508
			c100.367-14.456,170.803-93.577,167.368-189.568C1340.197,618.238,1275.627,543.439,1175.9,528.534z"/>
	</g>
	<g>
		<g>
			<path class="st0" d="M574.981,715.045c-29.226,3.23-57.879,6.174-86.769,11.863c-52.065,10.252-100.391,28.432-139.912,65.523
				c-21.697,20.362-39.673,43.797-56.775,67.976c-1.347,1.904-2.427,3.293-5.302,3.174c-33.176-1.365-64.138-9.399-91.16-29.623
				c-2.106-1.576-4.144-3.242-6.704-5.284c-0.529-0.422-0.349-1.268,0.303-1.448c9.465-2.615,18.161-5.287,26.543-8.849
				c28.029-11.91,52.205-28.858,68.701-54.953c21.955-34.73,18.453-77.458-8.348-109.596
				c-21.819-26.164-50.154-41.955-82.375-51.509c-1.569-0.465-3.145-0.915-4.686-1.465c-0.72-0.257-1.492-0.819-1.055-1.265
				c9.12-8.718,19.829-15.06,31.097-20.414c20.763-9.865,42.864-14.021,65.73-14.912c3.774-0.147,5.018,2.047,6.643,4.336
				c13.918,19.612,28.775,38.435,45.433,55.841c33.677,35.188,75.078,56.705,121.549,69.434
				c36.389,9.968,73.694,14.395,111.058,18.492c2.033,0.223,4.054,0.552,6.08,0.831C576.477,713.4,576.219,715.024,574.981,715.045z
				"/>
			<path class="st0" d="M238.635,439.849c-1.405-1.651,0.017-4.168,2.152-3.79c45.983,8.157,91.006,9.112,135.611,14.047
				c29.408,3.254,58.696,7.268,86.416,18.496c0.007,0.003,0.015,0.006,0.022,0.009c1.681,0.684,1.924,2.95,0.459,4.021
				c-47.988,35.089-74.979,81.87-81.11,141.055c-0.188,1.812-2.305,2.684-3.744,1.568c-17.469-13.543-31.073-28.995-43.991-45.135
				c-24.271-30.325-45.085-63.129-67.858-94.528C257.941,463.663,248.962,451.983,238.635,439.849z"/>
			<path class="st0" d="M675.612,685.525c1.587,2.062-0.153,5.009-2.726,4.619c-5.984-0.908-11.837-1.819-17.717-2.503
				c-39.114-4.548-78.257-8.851-117.352-13.552c-11.794-1.418-23.443-4.013-35.209-5.711c-4.189-0.605-5.254-2.051-4.574-6.269
				c7.448-46.18,29.192-84.034,65.393-113.676c3.418-2.799,5.022-2.126,7.712,0.94c27.514,31.356,51.108,65.707,76.051,99.028
				C656.531,660.875,666.149,673.141,675.612,685.525L675.612,685.525z"/>
		</g>
		<path class="st0" d="M264.189,899.305c1.228,0.184,1.854,1.578,1.162,2.609c-16.305,24.31-32.973,47.393-51.827,68.869
			c-2.535,2.887-4.556,1.61-6.969,0.693c-38.684-14.687-73.319-36.018-103.863-63.882c-36.655-33.439-64.666-72.85-79.678-120.464
			C0.08,714.397,11.594,646.039,52.694,582.747c37.586-57.88,90.118-97.746,154.243-122.689c3.166-1.232,4.98-0.864,7.292,1.759
			c18.813,21.333,35.228,44.45,51.105,67.979c0.004,0.006,0.009,0.013,0.013,0.019c0.663,0.995-0.043,2.338-1.227,2.508
			C163.754,546.779,93.318,625.9,96.753,721.891C99.892,809.602,164.462,884.401,264.189,899.305z"/>
	</g>
</g>
</svg>
