<svg width="384" height="384" viewBox="0 0 384 384" fill="none" xmlns="http://www.w3.org/2000/svg">
<rect width="384" height="384" rx="190" fill="black"/>
<path d="M165.781 97.2792C138.187 100.23 114.901 119.41 106.806 145.926C103.975 155.217 102.978 165.625 104.214 173.52C104.414 174.836 104.453 174.796 106.607 170.928C116.017 153.822 132.446 141.859 151.865 138.031C158.364 136.715 169.649 136.755 175.749 138.031C202.745 143.733 222.802 163.99 228.623 191.304L229.301 194.494L230.657 191.503C238.353 174.636 239.15 155.975 232.89 139.068C231.096 134.203 227.228 127.145 223.998 122.879C213.591 108.963 198 99.8711 180.614 97.5982C176.507 97.04 169.29 96.8805 165.781 97.2792Z" fill="white"/>
<path d="M238.353 131.452C238.353 131.532 239.19 132.808 240.227 134.323C242.699 138.031 246.368 145.767 247.883 150.592C249.956 157.091 250.794 162.793 250.834 170.768C250.874 180.099 249.757 186.399 246.447 195.092C239.111 214.471 223.32 229.623 203.742 236.163C193.055 239.712 181.093 240.589 170.646 238.595C168.612 238.196 166.977 238.037 166.977 238.196C166.977 238.755 174.992 246.889 177.464 248.883C186.157 255.741 195.767 260.207 206.852 262.52C212.873 263.756 223.121 263.796 229.66 262.56C262.597 256.339 285.565 227.151 284.089 193.337C282.973 168.376 268.698 145.926 246.926 135.001C243.537 133.286 238.353 131.133 238.353 131.452Z" fill="white"/>
<path d="M152.423 153.184C136.553 156.015 122.357 164.628 112.269 177.587C105.809 185.881 101.383 195.77 99.1103 207.054C97.9141 213.115 97.8343 224.998 98.9508 231.179C103.895 258.453 123.075 279.427 149.033 285.966C168.572 290.871 190.184 285.887 205.855 272.848L208.527 270.655L202.386 270.415C181.292 269.578 162.711 259.25 150.389 241.506C139.942 226.513 135.915 206.297 139.703 187.914C140.779 182.651 142.614 177.507 145.485 171.765C148.555 165.505 152.184 160.162 156.57 155.536L159.481 152.426L157.965 152.466C157.088 152.466 154.616 152.825 152.423 153.184Z" fill="white"/>
</svg>
