<svg xmlns="http://www.w3.org/2000/svg" fill="none" viewBox="0 0 100 82" height="82" width="100">
<path fill="#FF8802" d="M97.2893 34.0848C96.3231 35.3351 94.0141 37.9239 88.0409 41.0558C86.6104 41.8135 85.0418 42.4702 83.3853 43.0763C82.1179 43.5941 81.754 44.8696 81.6787 45.8167V46.8649C81.6787 46.9027 81.6787 46.9154 81.6787 46.9154V46.928V57.0434C90.7514 53.9747 97.1638 49.5421 99.2595 44.4655C99.7363 43.291 99.9999 42.0913 99.9999 40.8663C99.9873 38.5048 99.0211 36.2064 97.2893 34.0848Z" clip-rule="evenodd" fill-rule="evenodd"></path>
<path fill="#FF8802" d="M71.2396 45.5884C66.3456 46.5482 60.9999 47.1796 55.378 47.4196V51.5743C55.378 53.9359 53.822 55.8428 51.8895 55.8428C49.9695 55.8428 48.4009 53.9359 48.4009 51.5743V47.5206C27.6955 47.2175 10.2654 41.6736 3.74002 34.0208C2.13378 36.0034 1.25537 38.1376 1.25537 40.3476C1.25537 41.5473 1.53144 42.7218 2.02084 43.871C6.08663 53.3423 26.2148 60.5279 50.4589 60.5279C59.0046 60.5279 67.0358 59.6313 74.038 58.0654V48.9729C73.9878 45.74 71.6663 45.5884 71.2396 45.5884Z" clip-rule="evenodd" fill-rule="evenodd"></path>
<path fill="#FF8802" d="M49.2789 0C22.0607 0 0 9.19353 0 20.5465C0 21.7715 0.276072 22.9712 0.765472 24.133C4.73087 33.5286 24.0183 40.7268 47.4969 41.0678V40.7142C47.4969 36.5847 47.2711 30.9777 44.8115 28.4393C43.2304 26.7976 37.1819 24.4992 34.3333 22.9081C33.3671 22.4534 32.5012 21.9609 31.7859 21.4432C31.4973 21.2411 31.2589 21.0517 31.0706 20.8622C29.8409 19.7762 29.1507 18.5765 29.1507 17.3136C29.1507 12.5275 38.9387 8.65051 50.998 8.65051C63.0574 8.65051 72.8454 12.5275 72.8454 17.3136C72.8454 19.7004 70.4109 21.8599 66.4706 23.4258C64.8769 24.3225 58.1759 26.0147 56.3563 29.3612C54.8128 32.2153 54.725 36.7236 54.725 40.9668C76.5221 39.9691 94.0276 33.0361 97.7922 24.133C98.2816 22.9712 98.5577 21.7715 98.5577 20.5465C98.5703 9.19353 76.497 0 49.2789 0Z" clip-rule="evenodd" fill-rule="evenodd"></path>
<path fill="#FF8802" d="M79.8225 63.268V70.2263C79.8225 72.1459 78.279 73.6992 76.359 73.6992C74.4516 73.6992 72.8956 72.1459 72.8956 70.2263V65.1623C65.8808 66.7409 57.8371 67.6375 49.2789 67.6375C27.9837 67.6375 9.85075 62.081 2.9615 54.2892C1.04154 56.4613 0 58.7976 0 61.2348C0 72.4363 22.0607 81.5288 49.2789 81.5288C76.497 81.5288 98.5577 72.4489 98.5577 61.2348C98.5577 58.7976 97.5036 56.4613 95.5962 54.2892C92.4465 57.8504 86.925 60.9444 79.8225 63.268Z" clip-rule="evenodd" fill-rule="evenodd"></path>
</svg>
