<svg width="300" height="300" viewBox="0 0 300 300" fill="none" xmlns="http://www.w3.org/2000/svg">
<path fill-rule="evenodd" clip-rule="evenodd" d="M124.556 134.882L150.085 191.475L188.081 169.567H188.129V125.75L124.556 134.882Z" fill="#2BBDF7"/>
<path fill-rule="evenodd" clip-rule="evenodd" d="M237.102 92.8861L213.443 83.9666L188.104 81.9082V125.725V217.996L226.124 239.905L256.171 178.604L237.244 119.148L237.102 92.8861Z" fill="#2891F9"/>
<path fill-rule="evenodd" clip-rule="evenodd" d="M234.973 81.9316L226.148 103.816V239.999L264.168 218.091V81.9316H234.973Z" fill="#2BBDF7"/>
<path fill-rule="evenodd" clip-rule="evenodd" d="M226.151 60.0234L188.13 81.9319L226.151 103.84L264.171 81.9319L226.151 60.0234Z" fill="#2B6DEF"/>
<path fill-rule="evenodd" clip-rule="evenodd" d="M150.109 147.634L112.065 105.094L36 81.9082V218.091L74.0204 239.999L84.9037 164.645L112.065 169.566V169.542L150.109 191.451V147.634Z" fill="#2891F9"/>
<path fill-rule="evenodd" clip-rule="evenodd" d="M74.0441 60L36 81.9085L150.085 147.658L167.333 137.721L188.129 125.749L74.0441 60Z" fill="#2B6DEF"/>
<path fill-rule="evenodd" clip-rule="evenodd" d="M74.0447 147.635H74.021V239.977L112.065 218.068V169.567V169.543L74.0447 147.635Z" fill="#2BBDF7"/>
</svg>
