<?xml version="1.0" encoding="UTF-8"?>
<svg width="28px" height="28px" viewBox="0 0 28 28" version="1.1" xmlns="http://www.w3.org/2000/svg" xmlns:xlink="http://www.w3.org/1999/xlink">
    <title>BABA</title>
    <g id="BABA" stroke="none" stroke-width="1" fill="none" fill-rule="evenodd">
        <circle id="Oval" fill="#FFFFFF" cx="14" cy="14" r="14"></circle>
        <g id="iconfinder_alibaba_294696" transform="translate(4.000000, 8.000000)">
            <g id="形状_4_3_" transform="translate(2.061605, 0.702820)" fill="#000000" fill-rule="nonzero">
                <g id="形状_4">
                    <path d="M13.3491748,1.69880954 L13.330105,1.47100217 C13.159554,0.863344035 11.9840174,0.369636443 9.80358872,0.0278785249 C10.0500443,0.198757484 10.2396651,0.388659436 10.3344521,0.559538395 L10.4482152,0.863344035 L6.16326247,1.88866464 L3.31927809,2.68617787 L3.71744902,3.61657093 L3.50885206,3.93939957 L2.78841475,4.52803471 L2.31438612,4.75584208 L1.85928677,4.47101258 L1.97319046,6.46477223 C1.02518004,6.67365033 0.418412148,7.07243037 0.172003471,7.66101866 L0.0580997831,8.00277657 C-0.0366872017,8.43946204 0.0960520607,8.76229067 0.494269848,8.99019176 C0.172003471,8.61043471 0.115075054,8.24956009 0.323625163,7.88882603 C0.437294577,7.71799393 0.570080694,7.54706811 0.778630803,7.39511844 C1.1578256,7.07238351 1.59394881,6.88252842 2.04890759,6.78755401 L2.23848156,6.78755401 L2.33326855,4.94565033 L3.60363905,5.28750195 L4.94982039,5.23047983 C5.36687375,5.11652928 5.74606855,4.96467332 6.08740477,4.75579523 C6.428741,4.56589328 6.75100738,4.31910976 7.03541518,4.01525727 C7.18713059,4.12920781 7.28196443,4.48994187 7.31982299,5.07857701 L7.39563384,4.527941 C7.39563384,4.01525727 7.14917831,3.65447636 6.69407896,3.42657527 L6.97848677,3.7684269 L6.7889128,3.92028286 C6.409718,4.2431115 5.99261779,4.48989501 5.55649458,4.67979696 L5.3859436,4.73672538 C4.85498655,4.92662733 4.30519393,4.98364946 3.75526074,4.94560347 L3.50880521,4.90769805 L3.4519705,4.88867505 C3.24342039,4.86969892 3.0727757,4.79374751 2.94003644,4.67979696 L4.05873839,3.92028286 C4.00180998,3.61647722 3.90697614,3.31262473 3.77433059,3.04681822 L3.73633145,2.98984295 L3.64154447,2.87589241 C3.75521388,2.87589241 4.34309935,2.7050603 5.46161388,2.3252564 C6.5613397,1.9455462 8.32466811,1.50872017 10.7135531,1.01510629 L10.4102629,0.293544469 C12.1736382,0.711488069 13.159554,1.18617267 13.3491748,1.69880954 Z" id="Path"></path>
                </g>
            </g>
            <g id="形状_4_1_" fill="#F08200">
                <path d="M21.1366542,7.20559132 C17.7238542,8.45881302 15.3348755,9.16130499 13.969718,9.27530239 C12.5288434,9.40822907 12.4150334,8.80057093 13.6284755,7.49042082 L15.08842,5.76251453 C15.4296625,5.36373449 15.7140703,4.98397744 15.9416434,4.56631497 C16.8137961,3.0661692 16.8137961,1.88899262 15.9416434,1.03455098 L15.8658325,0.939623427 C15.5624017,0.673770065 15.2211592,0.464891974 14.8228946,0.331918438 C13.969718,0.0091835141 12.8321336,-0.047791757 11.467023,0.142063341 C9.34356963,0.407869848 7.22002256,1.16738395 5.13442777,2.42060564 L4.9258308,2.53455618 C2.91604685,3.7498256 1.49405466,5.07895184 0.659807375,6.52207549 C-0.23127462,8.02212755 -0.212392191,9.19939783 0.678783514,10.0538395 L1.4371731,10.6044755 L1.56991236,10.6614039 C2.51792278,11.0222317 3.5227679,11.1551115 4.58444772,11.0222317 C5.91165293,10.870282 7.31476269,10.338669 8.83158872,9.40827592 L9.19180738,9.16135184 L8.83158872,9.27534924 C6.91659176,9.88300738 5.3050256,10.1488139 3.99679653,10.0538395 L2.85916529,9.82598525 L2.78326074,9.78803297 L2.5558282,9.69310542 C2.15761041,9.46520434 2.02487115,9.1423757 2.11965813,8.70569024 L2.23356182,8.36393232 C2.48001735,7.77529718 3.08673839,7.37656399 4.03474881,7.1676859 L3.92084512,5.17392625 L4.37594447,5.45875575 L4.8499731,5.23094837 L5.57041041,4.64231323 L5.77900738,4.3194846 L5.38083644,3.38909154 L8.22482082,2.59157831 L12.5097735,1.5662577 L12.3960104,1.26245206 C12.3012234,1.09161996 12.1116026,0.901718004 11.8651471,0.730792191 C14.0455757,1.07255011 15.2211124,1.5662577 15.3916633,2.17391584 L15.4107332,2.40172321 L15.4107332,2.64864729 L15.3348286,3.06630976 C15.1832069,3.50308894 14.879823,4.03470195 14.4057944,4.60436095 L12.3201996,6.93992538 C11.7324078,7.49056139 11.258426,8.25007549 10.9171835,9.21846768 C10.5379887,10.1678837 10.9360659,10.6614976 12.0736972,10.6805206 C13.1923991,10.6805206 14.7092252,10.3387627 16.5672469,9.65515315 C18.2546707,9.00958959 19.7714967,8.23105249 21.1366074,7.33861171 L21.5537544,7.03489978 L21.1366542,7.20559132 Z" id="Path"></path>
            </g>
        </g>
    </g>
</svg>