<?xml version="1.0" encoding="utf-8"?>
<!-- Generator: Adobe Illustrator 23.0.0, SVG Export Plug-In . SVG Version: 6.00 Build 0)  -->
<svg version="1.1" id="Layer_1" xmlns="http://www.w3.org/2000/svg" xmlns:xlink="http://www.w3.org/1999/xlink" x="0px" y="0px"
	 viewBox="0 0 444.1 450.9" style="enable-background:new 0 0 444.1 450.9;" xml:space="preserve">
<style type="text/css">
	.st0{display:none;fill:#FFFFFF;}
	.st1{fill:#080C0A;}
	.st2{fill:#FFFFFF;}
	.st3{fill:#6A5FA9;}
	.st4{clip-path:url(#SVGID_2_);}
</style>
<path class="st0" d="M208.3,441.8c57.8-18.7,118.6-69.1,162.4-141c43.7-71.8,58.7-164.2,48.2-235.5C373.4,26.1,297.2,0,211.6,0
	C124.3,0,47.3,26.8,2.2,67.4c0,0-17.8,137.6,49,235C97.5,369.7,152.1,421.9,208.3,441.8z"/>
<path class="st1" d="M221.4,431.7c53.9-17.4,110.7-64.5,151.7-131.7c40.8-67,54.8-153.3,45-219.9c-42.5-36.6-113.6-61-193.6-61
	c-81.6,0-153.4,25-195.6,62.9c0,0-16.7,128.5,45.8,219.4C117.9,364.3,168.9,413.1,221.4,431.7z"/>
<path class="st2" d="M40.2,89.6c0,0,43.5-32.1,83.3-43.5s93.7-14.5,93.7-14.5v387.8c-6.2-2.3-12.3-4.8-18.2-7.7
	c-7.4-3.8-17.5-11.4-17.5-11.4l0.2-332.6c0,0-6.9,0.9-14.1,2.2c-4.9,0.9-9.7,2.3-14.4,4L153,378l-20.4-19.5
	c-6.2-5.9-12.1-12.1-17.6-18.6V87.5c0,0-12.7,6.2-19.4,9.8C88.9,101,76,111.7,76,111.7s-1.3,43,1.8,61.1s10.6,35.3,10.6,35.3v94.2
	c0,0-32.3-46-42.1-100.4S40.2,89.6,40.2,89.6z"/>
<path class="st3" d="M408.7,89.6c0,0-43.5-32.1-83.3-43.5s-93.7-14.5-93.7-14.5v387.8c6-2.3,11.8-4.9,17.4-7.9
	c6.3-3.4,12.5-7.1,18.3-11.3l-0.1-332.6c0,0,6.9,0.9,14,2.2c4.9,0.9,9.7,2.3,14.4,4l0.2,304.1c0,0,15-13.2,21.7-20.1
	s16.4-17.9,16.4-17.9V87.5c0,0,12.7,6.2,19.4,9.8c6.7,3.6,19.6,14.4,19.6,14.4s1.3,43-1.8,61.1s-10.5,35.3-10.5,35.3v94.2
	c0,0,32.5-49.8,42.3-104.2S408.7,89.6,408.7,89.6z"/>
<g>
	<g>
		<defs>
			<path id="SVGID_1_" d="M408.7,89.6c0,0-43.5-32.1-83.3-43.5s-93.7-14.5-93.7-14.5v387.8c6-2.3,11.8-4.9,17.4-7.9
				c6.3-3.4,12.5-7.1,18.3-11.3l-0.1-332.6c0,0,6.9,0.9,14,2.2c4.9,0.9,9.7,2.3,14.4,4l0.2,304.1c0,0,15-13.2,21.7-20.1
				s16.4-17.9,16.4-17.9V87.5c0,0,12.7,6.2,19.4,9.8c6.7,3.6,19.6,14.4,19.6,14.4s1.3,43-1.8,61.1s-10.5,35.3-10.5,35.3v94.2
				c0,0,32.5-49.8,42.3-104.2S408.7,89.6,408.7,89.6z"/>
		</defs>
		<clipPath id="SVGID_2_">
			<use xlink:href="#SVGID_1_"  style="overflow:visible;"/>
		</clipPath>
	</g>
</g>
</svg>
