<?xml version="1.0" encoding="UTF-8"?>
<svg width="28px" height="28px" viewBox="0 0 28 28" version="1.1" xmlns="http://www.w3.org/2000/svg" xmlns:xlink="http://www.w3.org/1999/xlink">
    <title>mGOOGL</title>
    <g id="Icons" stroke="none" stroke-width="1" fill="none" fill-rule="evenodd">
        <g id="GOOGL" fill-rule="nonzero">
            <path d="M24.9803738,13.9671028 C24.9803738,13.2409346 24.9214953,12.5108411 24.7958879,11.7964486 L14.7198131,11.7964486 L14.7198131,15.9100935 L20.4899065,15.9100935 C20.2504673,17.2368224 19.4811215,18.4104673 18.3545794,19.1562617 L18.3545794,21.8254206 L21.7970093,21.8254206 C23.8185047,19.9648598 24.9803738,17.2171963 24.9803738,13.9671028 Z" id="Path" fill="#4285F4"></path>
            <path d="M14.7198131,24.4042991 C17.6009346,24.4042991 20.0306542,23.4583178 21.8009346,21.8254206 L18.3585047,19.1562617 C17.4007477,19.8078505 16.1642991,20.1768224 14.7237383,20.1768224 C11.9368224,20.1768224 9.57383178,18.2966355 8.72598131,15.768785 L5.17364486,15.768785 L5.17364486,18.5203738 C6.9871028,22.1276636 10.6807477,24.4042991 14.7198131,24.4042991 Z" id="Path" fill="#34A853"></path>
            <path d="M8.72205607,15.768785 C8.27457944,14.4420561 8.27457944,13.0054206 8.72205607,11.6786916 L8.72205607,8.9271028 L5.17364486,8.9271028 C3.65850467,11.9456075 3.65850467,15.5018692 5.17364486,18.5203738 L8.72205607,15.768785 L8.72205607,15.768785 Z" id="Path" fill="#FBBC04"></path>
            <path d="M14.7198131,7.26672897 C16.2428037,7.24317757 17.7147664,7.81626168 18.817757,8.8682243 L21.8676636,5.81831776 C19.9364486,4.00485981 17.373271,3.00785047 14.7198131,3.03925234 C10.6807477,3.03925234 6.9871028,5.31588785 5.17364486,8.9271028 L8.72205607,11.6786916 C9.56598131,9.14691589 11.9328972,7.26672897 14.7198131,7.26672897 Z" id="Path" fill="#EA4335"></path>
        </g>
    </g>
</svg>