<?xml version="1.0" encoding="UTF-8"?>
<svg width="401px" height="400px" viewBox="0 0 401 400" version="1.1" xmlns="http://www.w3.org/2000/svg" xmlns:xlink="http://www.w3.org/1999/xlink">
    <!-- Generator: Sketch 53 (72520) - https://sketchapp.com -->
    <title>Slice</title>
    <desc>Created with Sketch.</desc>
    <g id="Page-2" stroke="none" stroke-width="1" fill="none" fill-rule="evenodd">
        <g id="minds" transform="translate(49.000000, 0.000000)" fill-rule="nonzero">
            <g id="Group-5" transform="translate(101.000000, 289.000000)">
                <path d="M24.7524752,43 L22.7722772,72 L24.7524752,43 Z" id="Triangle-3" fill="#656565"></path>
                <polygon id="Triangle-3" fill="#656565" points="0 62 25 41 50 82"></polygon>
                <polygon id="Triangle-3" fill="#787778" points="0 0 0 62 25 41"></polygon>
                <polygon id="Triangle-3" fill="#5C5C5C" points="75 41 50 82 100 62"></polygon>
                <polygon id="Triangle-3" fill="#787778" points="100 62 75 41 100 0"></polygon>
                <polygon id="Triangle-3" fill="#4A4A4A" points="0 0 100 0 50 82"></polygon>
            </g>
            <g id="Group">
                <polygon id="Triangle-3" fill="#FED12F" points="111 100 217 144 141 205"></polygon>
                <polygon id="Triangle-3" fill="#FED12F" points="191 26 251 88 217 144"></polygon>
                <polygon id="Triangle-3" fill="#FED12F" points="101 289 211 257 201 289"></polygon>
                <polygon id="Triangle-3" fill="#FED12F" points="91 257 141 205 101 289"></polygon>
                <polygon id="Triangle-3" fill="#FED12F" points="51 88 111 26 111 100"></polygon>
                <polygon id="Triangle-3" fill="#FFF3CB" points="141 205 211 257 217 144"></polygon>
                <polygon id="Triangle-3" fill="#FFF3CB" transform="translate(91.982123, 202.376609) rotate(140.000000) translate(-91.982123, -202.376609) " points="56.118534 168.858891 118.731412 243.589257 127.845712 161.163961"></polygon>
                <polygon id="Triangle-3" fill="#FFDD63" transform="translate(187.648863, 90.616899) rotate(-53.000000) translate(-187.648863, -90.616899) " points="134.026748 35.0492864 241.270978 54.4058155 162.679178 146.184512"></polygon>
                <polygon id="Triangle-3" fill="#FFEDAC" transform="translate(112.700659, 170.148822) rotate(-53.000000) translate(-112.700659, -170.148822) " points="57.7008006 126.823779 167.700517 126.574001 101.898239 213.723643"></polygon>
                <polygon id="Triangle-3" fill="#FFDD63" transform="translate(148.569878, 267.401001) rotate(-53.000000) translate(-148.569878, -267.401001) " points="102.691884 242.40861 193.849867 223.801568 194.447872 311.000435"></polygon>
                <polygon id="Triangle-3" fill="#FFDD63" transform="translate(214.000000, 200.500000) rotate(-53.000000) translate(-214.000000, -200.500000) " points="167.071649 232.106642 260.928351 168.893358 249.86099 227.318639"></polygon>
                <polygon id="Triangle-3" fill="#FFDD63" transform="translate(55.981654, 127.407987) rotate(-53.000000) translate(-55.981654, -127.407987) " points="0.981796095 155.102831 84.4562372 99.7131425 110.981513 154.853053"></polygon>
                <polygon id="Triangle-3" fill="#FEE382" transform="translate(254.000000, 138.000000) rotate(-53.000000) translate(-254.000000, -138.000000) " points="226.941031 112.061376 292.12633 105.513342 215.87367 170.486658"></polygon>
                <polygon id="Triangle-3" fill="#FEF1C0" transform="translate(146.320889, 50.144248) rotate(160.000000) translate(-146.320889, -50.144248) " points="96.0784391 57.5512636 196.563339 15.3756211 171.253848 84.9128751"></polygon>
            </g>
        </g>
    </g>
</svg>