<?xml version="1.0" encoding="UTF-8"?>
<svg width="28px" height="28px" viewBox="0 0 28 28" version="1.1" xmlns="http://www.w3.org/2000/svg" xmlns:xlink="http://www.w3.org/1999/xlink">
    <title>MSFT</title>
    <defs>
        <polygon id="path-1" points="0 0.0281332174 9.55590725 0.0281332174 9.55590725 9.58434783 0 9.58434783"></polygon>
    </defs>
    <g id="MSFT" stroke="none" stroke-width="1" fill="none" fill-rule="evenodd">
        <g id="Group-12" transform="translate(4.000000, 4.000000)">
            <path d="M0,0 L9.55565217,0 C9.55507826,3.18521739 9.55565217,6.37043478 9.55507826,9.55565217 L0,9.55565217 L0,0 Z" id="Fill-1" fill="#F25022"></path>
            <path d="M20.0871,20.0869565 L20.0871,10.5313043 C16.9017391,10.5313043 13.7165217,10.5307304 10.5318783,10.5318783 C10.5307304,13.7165217 10.5318783,16.9017391 10.5313043,20.0869565 L9.55565217,20.0869565 C9.55565217,16.9017391 9.55622609,13.7170957 9.55565217,10.5318783 C6.37043478,10.5301565 3.18521739,10.5318783 0,10.5307304 L0,9.55565217 L9.55507826,9.55565217 C9.55565217,6.37043478 9.55507826,3.18521739 9.55565217,0 L10.5313043,0 C10.5313043,3.18521739 10.5307304,6.37043478 10.5318783,9.55565217 C13.7165217,9.55565217 16.9017391,9.55507826 20.0863826,9.55565217 C20.0875304,6.37043478 20.0871,3.18521739 20.0871,0" id="Fill-3" fill="#FEFEFE"></path>
            <path d="M10.5313043,0 L20.0869565,0 C20.0869565,3.18521739 20.0875304,6.37043478 20.0863826,9.55565217 C16.9017391,9.55507826 13.7165217,9.55565217 10.5318783,9.55565217 C10.5307304,6.37043478 10.5313043,3.18521739 10.5313043,0" id="Fill-5" fill="#80BA01"></path>
            <g id="Group-9" transform="translate(0.000000, 10.502609)">
                <mask id="mask-2" fill="white">
                    <use xlink:href="#path-1"></use>
                </mask>
                <g id="Clip-8"></g>
                <path d="M0,0.0281332174 C3.18521739,0.0292810435 6.37043478,0.0275593043 9.55565217,0.0292810435 C9.55622609,3.21449843 9.55565217,6.39914191 9.55565217,9.5843593 L0,9.5843593 L0,0.0281332174 Z" id="Fill-7" fill="#02A4EF" mask="url(#mask-2)"></path>
            </g>
            <path d="M10.5318668,10.5318668 C13.7165103,10.530719 16.9017277,10.5312929 20.086945,10.5312929 L20.086945,20.086945 L10.5312929,20.086945 C10.5318668,16.9017277 10.530719,13.7165103 10.5318668,10.5318668" id="Fill-10" fill="#FFB902"></path>
        </g>
    </g>
</svg>