<?xml version="1.0" encoding="utf-8"?>
<!-- Generator: Adobe Illustrator 24.2.3, SVG Export Plug-In . SVG Version: 6.00 Build 0)  -->
<svg version="1.1" id="Layer_1" xmlns="http://www.w3.org/2000/svg" xmlns:xlink="http://www.w3.org/1999/xlink" x="0px" y="0px"
	 viewBox="0 0 80 80" style="enable-background:new 0 0 80 80;" xml:space="preserve">
<style type="text/css">
	.st0{display:none;opacity:0.2;fill:#FF1749;enable-background:new    ;}
	.st1{display:none;fill:#0E3CA5;}
	.st2{fill:#0E3CA5;}
	.st3{fill:#5493F7;}
	.st4{display:none;opacity:0.3;fill:#FF1A82;enable-background:new    ;}
	.st5{opacity:0.3;}
	.st6{fill:url(#SVGID_1_);fill-opacity:0;}
	.st7{opacity:0.0625;fill:url(#SVGID_2_);enable-background:new    ;}
	.st8{opacity:0.125;fill:url(#SVGID_3_);enable-background:new    ;}
	.st9{opacity:0.1875;fill:url(#SVGID_4_);enable-background:new    ;}
	.st10{opacity:0.25;fill:url(#SVGID_5_);enable-background:new    ;}
	.st11{opacity:0.3125;fill:url(#SVGID_6_);enable-background:new    ;}
	.st12{opacity:0.375;fill:url(#SVGID_7_);enable-background:new    ;}
	.st13{opacity:0.4375;fill:url(#SVGID_8_);enable-background:new    ;}
	.st14{opacity:0.5;fill:url(#SVGID_9_);enable-background:new    ;}
	.st15{opacity:0.5625;fill:url(#SVGID_10_);enable-background:new    ;}
	.st16{opacity:0.625;fill:url(#SVGID_11_);enable-background:new    ;}
	.st17{opacity:0.6875;fill:url(#SVGID_12_);enable-background:new    ;}
	.st18{opacity:0.75;fill:url(#SVGID_13_);enable-background:new    ;}
	.st19{opacity:0.8125;fill:url(#SVGID_14_);enable-background:new    ;}
	.st20{opacity:0.875;fill:url(#SVGID_15_);enable-background:new    ;}
	.st21{opacity:0.9375;fill:url(#SVGID_16_);enable-background:new    ;}
	.st22{fill:url(#SVGID_17_);}
	.st23{fill:url(#SVGID_18_);}
	.st24{fill:none;}
	.st25{fill:url(#SVGID_19_);}
	.st26{fill:url(#SVGID_20_);}
	.st27{fill:url(#SVGID_21_);}
	.st28{fill:url(#SVGID_22_);}
	.st29{fill:url(#SVGID_23_);}
	.st30{fill:url(#SVGID_24_);}
	.st31{fill:url(#SVGID_25_);}
	.st32{fill:url(#SVGID_26_);}
	.st33{fill:url(#SVGID_27_);}
	.st34{fill:url(#SVGID_28_);}
	.st35{fill:url(#SVGID_29_);}
	.st36{fill:url(#SVGID_30_);}
	.st37{fill:url(#SVGID_31_);}
	.st38{fill:url(#SVGID_32_);}
	.st39{fill:url(#SVGID_33_);}
	.st40{fill:url(#SVGID_34_);}
	.st41{display:none;opacity:0.38;}
	.st42{display:inline;fill:url(#SVGID_35_);}
</style>
<g>
	<rect class="st0" width="80" height="80"/>
	<g>
		<g id="Symbol_4_">
			<g>
				<g>
					<path class="st1" d="M21.6,16.13C12.38,28.32,47.85,36.8,60.41,34.75c2.2-0.36,8.91-1.45,4.32-10.23
						c-0.65-1.1-1.54-2.54-2.26-3.59c-0.87-1.1-2.09-2.52-3.04-3.54c-0.3-0.3-0.61-0.6-0.93-0.89c-2.45-2.14-7.55-6.59-20.61-6.74
						C30.16,9.92,24.68,12.06,21.6,16.13"/>
					<g>
						<path class="st2" d="M33.66,55.69c1.67,6.17,7.65,10.87,10.67,10.68c0.11-0.01,11.45-2.12,17.67-12.5
							c4.83-8.08,3.19-15.88-3.39-16.05C56.24,38,30.48,43.95,33.66,55.69"/>
					</g>
					<g>
						<path class="st2" d="M57.99,16.09L57.99,16.09v-0.01c-5.04-4.29-11.57-6.88-18.7-6.88c-4.17,0-8.13,0.89-11.71,2.49
							c-0.64,0.27-1.25,0.57-1.83,0.9c-0.4,0.22-0.81,0.43-1.2,0.66l0.1,0.03c-1.19,0.82-2.21,1.78-3.05,2.88
							c-8.28,10.94,19.48,18.9,34.32,18.92C62.75,39.99,64.66,21.28,57.99,16.09z"/>
					</g>
					<path class="st1" d="M64.1,48.92c1.88-6.17-0.22-11.22-5.5-11.36c-2.37,0.17-28.12,6.12-24.94,17.87
						c1.67,6.17,7.65,10.87,10.67,10.68c0.09-0.01,9.03-1.68,15.39-9.3c2.65-1.73,4.67-3.06,4.7-3.11c0.66-1.17,1.25-2.39,1.75-3.66
						l0,0C65.98,49.84,65.22,49.44,64.1,48.92z"/>
				</g>
			</g>
			<g>
				<path class="st3" d="M29.25,16.31c-3.81,5.73-16.52,9.77-18.61,9.14c0-0.01-0.01-0.02-0.01-0.03c0.09-0.17,0.17-0.34,0.26-0.52
					c0.72-1.4,1.55-2.73,2.47-3.99s1.94-2.44,3.04-3.54s2.29-2.12,3.54-3.04c0.78-0.57,1.59-1.11,2.43-1.61
					c1.78-1.03,3.6-1.1,4.2-1.12C32.24,11.73,29.28,16.27,29.25,16.31"/>
				<path class="st3" d="M26.13,56.82c0.27,1.8-0.01,8.92-0.38,9.51c-0.32,0.02-0.98,0.06-2.89-1.01c-1.01-0.57-1.98-1.2-2.9-1.89
					c-1.26-0.92-2.44-1.94-3.54-3.04c-1.1-1.1-2.12-2.29-3.04-3.54c-0.92-1.26-1.75-2.59-2.47-3.99s-1.34-2.85-1.84-4.36
					c-0.5-1.51-0.89-3.07-1.15-4.68s-0.4-3.25-0.4-4.93s0.14-3.33,0.4-4.93c0.26-1.61,0.65-3.17,1.15-4.68
					c0.1-0.31,0.21-0.61,0.32-0.91l0,0c2.19,2.92,4.73,5.55,6.89,8.5c2.05,2.8,4.88,7.38,5.45,8.35
					C25.28,51.28,25.85,55.02,26.13,56.82"/>
				<path class="st3" d="M68.33,38.89c0,3.94-0.75,7.71-2.12,11.17c-3.58,3.85-27.74-5.63-27.97-5.73
					c-3.3-1.45-13.36-5.85-14.27-12.77c-1.3-9.95,18.89-16.89,27.77-17.15c1.06,0.01,4.3,0.05,6.19,1.58
					C64.3,21.56,68.33,29.76,68.33,38.89"/>
				<path class="st3" d="M51.98,65.87c-2.63,1.23-5.53,0.33-4.78-2.23c1.45-4.92,14.07-9.97,16.86-10.25
					c0.34-0.03,0.49,0.2,0.34,0.47C61.49,58.95,57.19,63.15,51.98,65.87"/>
			</g>
		</g>
		<circle class="st4" cx="37.91" cy="38.88" r="30.41"/>
	</g>
	<g>
		<g class="st5">
			
				<linearGradient id="SVGID_1_" gradientUnits="userSpaceOnUse" x1="20.96" y1="23.6777" x2="79.5" y2="23.6777" gradientTransform="matrix(1 0 0 -1 0 82)">
				<stop  offset="0.375" style="stop-color:#000000;stop-opacity:0"/>
				<stop  offset="1" style="stop-color:#000000;stop-opacity:0"/>
			</linearGradient>
			<path class="st6" d="M22.91,38.12c-1.08,0-1.95,0.74-1.95,1.66c0,9.39,0,21.41,0,30.9c0,1.25,0.87,2.26,1.95,2.26
				c28.73,0.36,56.62,8.56,56.59,4.42c0-10.33,0-24.48,0-34.81C79.53,38.32,51.64,38.13,22.91,38.12z"/>
			
				<linearGradient id="SVGID_2_" gradientUnits="userSpaceOnUse" x1="20.96" y1="23.8327" x2="79.11" y2="23.8327" gradientTransform="matrix(1 0 0 -1 0 82)">
				<stop  offset="0.375" style="stop-color:#000000;stop-opacity:0.0625"/>
				<stop  offset="1" style="stop-color:#000000;stop-opacity:0"/>
			</linearGradient>
			<path class="st7" d="M22.91,38.12c-1.08,0-1.95,0.74-1.95,1.66c0,9.39,0,21.41,0,30.9c0,1.25,0.87,2.25,1.95,2.26
				c28.54,0.17,56.21,8.16,56.2,4.15c-0.04-10.19-0.04-24.2,0-34.38C79.12,38.61,51.44,38.14,22.91,38.12z"/>
			
				<linearGradient id="SVGID_3_" gradientUnits="userSpaceOnUse" x1="20.95" y1="23.9785" x2="78.7" y2="23.9785" gradientTransform="matrix(1 0 0 -1 0 82)">
				<stop  offset="0.375" style="stop-color:#000000;stop-opacity:0.125"/>
				<stop  offset="1" style="stop-color:#000000;stop-opacity:0"/>
			</linearGradient>
			<path class="st8" d="M22.9,38.12c-1.08,0-1.95,0.74-1.95,1.66c0,9.39,0,21.41,0,30.9c0,1.25,0.87,2.25,1.95,2.26
				c28.34,0.17,55.82,7.76,55.8,3.88c-0.04-10.04-0.04-23.91,0-33.95C78.72,38.9,51.24,38.16,22.9,38.12z"/>
			
				<linearGradient id="SVGID_4_" gradientUnits="userSpaceOnUse" x1="20.95" y1="24.1246" x2="78.31" y2="24.1246" gradientTransform="matrix(1 0 0 -1 0 82)">
				<stop  offset="0.375" style="stop-color:#000000;stop-opacity:0.1875"/>
				<stop  offset="1" style="stop-color:#000000;stop-opacity:0"/>
			</linearGradient>
			<path class="st9" d="M22.9,38.12c-1.08,0-1.95,0.74-1.95,1.66c0,9.39,0,21.41,0,30.9c0,1.25,0.87,2.25,1.95,2.26
				c28.14,0.16,55.42,7.36,55.41,3.61c-0.04-9.9-0.04-23.62,0-33.52C78.33,39.2,51.04,38.17,22.9,38.12z"/>
			
				<linearGradient id="SVGID_5_" gradientUnits="userSpaceOnUse" x1="20.95" y1="24.2685" x2="77.91" y2="24.2685" gradientTransform="matrix(1 0 0 -1 0 82)">
				<stop  offset="0.375" style="stop-color:#000000;stop-opacity:0.25"/>
				<stop  offset="1" style="stop-color:#000000;stop-opacity:0"/>
			</linearGradient>
			<path class="st10" d="M22.9,38.12c-1.08,0-1.95,0.74-1.95,1.66c0,9.39,0,21.41,0,30.9c0,1.25,0.87,2.25,1.95,2.26
				c27.94,0.15,55.03,6.97,55.01,3.34c-0.04-9.76-0.04-23.34,0-33.09C77.93,39.49,50.84,38.19,22.9,38.12z"/>
			
				<linearGradient id="SVGID_6_" gradientUnits="userSpaceOnUse" x1="20.95" y1="24.4141" x2="77.52" y2="24.4141" gradientTransform="matrix(1 0 0 -1 0 82)">
				<stop  offset="0.375" style="stop-color:#000000;stop-opacity:0.3125"/>
				<stop  offset="1" style="stop-color:#000000;stop-opacity:0"/>
			</linearGradient>
			<path class="st11" d="M22.9,38.12c-1.08,0-1.95,0.74-1.95,1.66c0,9.39,0,21.41,0,30.9c0,1.25,0.87,2.25,1.95,2.26
				c27.73,0.14,54.63,6.57,54.62,3.07c-0.04-9.61-0.04-23.05,0-32.66C77.54,39.78,50.65,38.2,22.9,38.12z"/>
			
				<linearGradient id="SVGID_7_" gradientUnits="userSpaceOnUse" x1="20.95" y1="24.5571" x2="77.12" y2="24.5571" gradientTransform="matrix(1 0 0 -1 0 82)">
				<stop  offset="0.375" style="stop-color:#000000;stop-opacity:0.375"/>
				<stop  offset="1" style="stop-color:#000000;stop-opacity:0"/>
			</linearGradient>
			<path class="st12" d="M22.9,38.12c-1.08,0-1.95,0.74-1.95,1.66c0,9.39,0,21.41,0,30.9c0,1.25,0.87,2.25,1.95,2.26
				c27.53,0.13,54.23,6.17,54.22,2.81c-0.04-9.47-0.04-22.76,0-32.23C77.14,40.08,50.45,38.21,22.9,38.12z"/>
			
				<linearGradient id="SVGID_8_" gradientUnits="userSpaceOnUse" x1="20.95" y1="24.7015" x2="76.73" y2="24.7015" gradientTransform="matrix(1 0 0 -1 0 82)">
				<stop  offset="0.375" style="stop-color:#000000;stop-opacity:0.4375"/>
				<stop  offset="1" style="stop-color:#000000;stop-opacity:0"/>
			</linearGradient>
			<path class="st13" d="M22.9,38.12c-1.08,0-1.95,0.74-1.95,1.66c0,9.39,0,21.41,0,30.9c0,1.25,0.87,2.25,1.95,2.26
				c27.33,0.13,53.84,5.77,53.83,2.54c-0.04-9.33-0.04-22.47,0-31.8C76.74,40.37,50.25,38.17,22.9,38.12z"/>
			
				<linearGradient id="SVGID_9_" gradientUnits="userSpaceOnUse" x1="20.95" y1="24.836" x2="76.33" y2="24.836" gradientTransform="matrix(1 0 0 -1 0 82)">
				<stop  offset="0.375" style="stop-color:#000000;stop-opacity:0.5"/>
				<stop  offset="1" style="stop-color:#000000;stop-opacity:0"/>
			</linearGradient>
			<path class="st14" d="M22.9,38.13c-1.08,0-1.95,0.74-1.95,1.66c0,9.39,0,21.41,0,30.9c0,1.25,0.87,2.25,1.95,2.26
				c27.13,0.12,53.44,5.37,53.43,2.27c-0.04-9.18-0.04-22.19,0-31.37C76.35,40.67,50.05,38.17,22.9,38.13z"/>
			
				<linearGradient id="SVGID_10_" gradientUnits="userSpaceOnUse" x1="20.95" y1="24.98" x2="75.94" y2="24.98" gradientTransform="matrix(1 0 0 -1 0 82)">
				<stop  offset="0.375" style="stop-color:#000000;stop-opacity:0.5625"/>
				<stop  offset="1" style="stop-color:#000000;stop-opacity:0"/>
			</linearGradient>
			<path class="st15" d="M22.9,38.13c-1.08,0-1.95,0.74-1.95,1.66c0,9.39,0,21.41,0,30.9c0,1.25,0.87,2.25,1.95,2.26
				c26.93,0.11,53.05,4.97,53.04,2c-0.04-9.04-0.04-21.9,0-30.94C75.95,40.96,49.85,38.18,22.9,38.13z"/>
			
				<linearGradient id="SVGID_11_" gradientUnits="userSpaceOnUse" x1="20.95" y1="25.1234" x2="75.54" y2="25.1234" gradientTransform="matrix(1 0 0 -1 0 82)">
				<stop  offset="0.375" style="stop-color:#000000;stop-opacity:0.625"/>
				<stop  offset="1" style="stop-color:#000000;stop-opacity:0"/>
			</linearGradient>
			<path class="st16" d="M22.9,38.13c-1.08,0-1.95,0.74-1.95,1.66c0,9.39,0,21.41,0,30.9c0,1.25,0.87,2.25,1.95,2.26
				c26.73,0.1,52.65,4.57,52.64,1.73c-0.04-8.9-0.04-21.61,0-30.51C75.56,41.25,49.65,38.18,22.9,38.13z"/>
			
				<linearGradient id="SVGID_12_" gradientUnits="userSpaceOnUse" x1="20.95" y1="25.264" x2="75.14" y2="25.264" gradientTransform="matrix(1 0 0 -1 0 82)">
				<stop  offset="0.375" style="stop-color:#000000;stop-opacity:0.6875"/>
				<stop  offset="1" style="stop-color:#000000;stop-opacity:0"/>
			</linearGradient>
			<path class="st17" d="M22.9,38.13c-1.08,0-1.95,0.74-1.95,1.66c0,9.39,0,21.41,0,30.9c0,1.25,0.87,2.25,1.95,2.26
				c26.53,0.09,52.26,4.17,52.24,1.47c-0.04-8.75-0.04-21.33,0-30.08C75.16,41.55,49.45,38.19,22.9,38.13z"/>
			
				<linearGradient id="SVGID_13_" gradientUnits="userSpaceOnUse" x1="20.95" y1="25.4086" x2="74.75" y2="25.4086" gradientTransform="matrix(1 0 0 -1 0 82)">
				<stop  offset="0.375" style="stop-color:#000000;stop-opacity:0.75"/>
				<stop  offset="1" style="stop-color:#000000;stop-opacity:0"/>
			</linearGradient>
			<path class="st18" d="M22.9,38.13c-1.08,0-1.95,0.74-1.95,1.66c0,9.39,0,21.41,0,30.9c0,1.25,0.87,2.25,1.95,2.25
				c26.33,0.08,51.86,3.78,51.85,1.2c-0.04-8.61-0.04-21.04,0-29.65C74.77,41.84,49.25,38.2,22.9,38.13z"/>
			
				<linearGradient id="SVGID_14_" gradientUnits="userSpaceOnUse" x1="20.95" y1="25.5532" x2="74.35" y2="25.5532" gradientTransform="matrix(1 0 0 -1 0 82)">
				<stop  offset="0.375" style="stop-color:#000000;stop-opacity:0.8125"/>
				<stop  offset="1" style="stop-color:#000000;stop-opacity:0"/>
			</linearGradient>
			<path class="st19" d="M22.9,38.13c-1.08,0-1.95,0.74-1.95,1.65c0,9.39,0,21.41,0,30.9c0,1.25,0.87,2.25,1.95,2.25
				c26.13,0.08,51.46,3.38,51.45,0.93c-0.04-8.46-0.04-20.75,0-29.22C74.37,42.13,49.06,38.2,22.9,38.13z"/>
			
				<linearGradient id="SVGID_15_" gradientUnits="userSpaceOnUse" x1="20.95" y1="25.692" x2="73.96" y2="25.692" gradientTransform="matrix(1 0 0 -1 0 82)">
				<stop  offset="0.375" style="stop-color:#000000;stop-opacity:0.875"/>
				<stop  offset="1" style="stop-color:#000000;stop-opacity:0"/>
			</linearGradient>
			<path class="st20" d="M22.9,38.13c-1.08,0-1.95,0.74-1.95,1.65c0,9.39,0,21.41,0,30.9c0,1.24,0.87,2.25,1.95,2.25
				c25.93,0.07,51.07,2.98,51.06,0.66c-0.04-8.32-0.04-20.47,0-28.79C73.97,42.43,48.86,38.21,22.9,38.13z"/>
			
				<linearGradient id="SVGID_16_" gradientUnits="userSpaceOnUse" x1="20.95" y1="25.8285" x2="73.56" y2="25.8285" gradientTransform="matrix(1 0 0 -1 0 82)">
				<stop  offset="0.375" style="stop-color:#000000;stop-opacity:0.9375"/>
				<stop  offset="1" style="stop-color:#000000;stop-opacity:0"/>
			</linearGradient>
			<path class="st21" d="M22.9,38.13c-1.08,0-1.95,0.74-1.95,1.65c0,9.39,0,21.41,0,30.9c0,1.24,0.87,2.25,1.95,2.25
				c25.73,0.06,50.67,2.58,50.66,0.39c-0.04-8.18-0.04-20.18,0-28.36C73.58,42.72,48.66,38.21,22.9,38.13z"/>
			
				<linearGradient id="SVGID_17_" gradientUnits="userSpaceOnUse" x1="20.95" y1="25.9551" x2="73.17" y2="25.9551" gradientTransform="matrix(1 0 0 -1 0 82)">
				<stop  offset="0.375" style="stop-color:#000000"/>
				<stop  offset="1" style="stop-color:#000000;stop-opacity:0"/>
			</linearGradient>
			<path class="st22" d="M22.9,38.13c-1.08,0-1.95,0.74-1.95,1.65c0,9.39,0,21.41,0,30.9c0,1.24,0.87,2.25,1.95,2.25
				c25.53,0.1,50.29,2.18,50.27,0.13c0-8.03,0-19.89,0-27.93C73.19,43.02,48.46,38.36,22.9,38.13z"/>
		</g>
		<g>
			<g>
				
					<linearGradient id="SVGID_18_" gradientUnits="userSpaceOnUse" x1="20.95" y1="13.7406" x2="73.17" y2="13.7406" gradientTransform="matrix(1 0 0 -1 0 82)">
					<stop  offset="0" style="stop-color:#700000"/>
					<stop  offset="0.3275" style="stop-color:#730000"/>
					<stop  offset="0.5905" style="stop-color:#7D0000"/>
					<stop  offset="0.8302" style="stop-color:#8E0000"/>
					<stop  offset="1" style="stop-color:#9F0000"/>
				</linearGradient>
				<path class="st23" d="M20.95,70.69c0,1.24,0.87,2.25,1.94,2.26c25.58,0.18,50.28-1,50.28-4.83
					C73.17,56.51,20.95,70.69,20.95,70.69z"/>
				<g>
					<path class="st24" d="M21.16,71.63c-0.05-0.1-0.08-0.2-0.12-0.31C21.07,71.43,21.11,71.53,21.16,71.63z"/>
					
						<linearGradient id="SVGID_19_" gradientUnits="userSpaceOnUse" x1="21.16" y1="19.0339" x2="21.16" y2="8.9242" gradientTransform="matrix(1 0 0 -1 0 82)">
						<stop  offset="0.35" style="stop-color:#DFDFDF"/>
						<stop  offset="0.6454" style="stop-color:#DDDDDD"/>
						<stop  offset="0.7517" style="stop-color:#D6D6D6"/>
						<stop  offset="0.8276" style="stop-color:#CBCBCB"/>
						<stop  offset="0.8889" style="stop-color:#BABABA"/>
						<stop  offset="0.9414" style="stop-color:#A4A4A4"/>
						<stop  offset="0.987" style="stop-color:#898989"/>
						<stop  offset="1" style="stop-color:#808080"/>
					</linearGradient>
					<path class="st25" d="M21.16,71.64C21.16,71.64,21.16,71.63,21.16,71.64C21.16,71.63,21.16,71.63,21.16,71.64z"/>
					
						<linearGradient id="SVGID_20_" gradientUnits="userSpaceOnUse" x1="45.2" y1="18.4472" x2="45.2" y2="9.022" gradientTransform="matrix(1 0 0 -1 0 82)">
						<stop  offset="0.35" style="stop-color:#0050CF"/>
						<stop  offset="0.6454" style="stop-color:#004ECD"/>
						<stop  offset="0.7517" style="stop-color:#0049C6"/>
						<stop  offset="0.8276" style="stop-color:#003FBB"/>
						<stop  offset="0.8889" style="stop-color:#0031AA"/>
						<stop  offset="0.9414" style="stop-color:#001E94"/>
						<stop  offset="0.987" style="stop-color:#000879"/>
						<stop  offset="1" style="stop-color:#000070"/>
					</linearGradient>
					<path class="st26" d="M56.13,69.36l-4.92-4.92c-5.76,0.77-11.79,1.94-16.94,3.05l4.35,4.35
						C45.04,71.16,51.02,70.22,56.13,69.36z"/>
					
						<linearGradient id="SVGID_21_" gradientUnits="userSpaceOnUse" x1="47.06" y1="18.4461" x2="47.06" y2="9.0245" gradientTransform="matrix(1 0 0 -1 0 82)">
						<stop  offset="0.35" style="stop-color:#CF2000"/>
						<stop  offset="0.6454" style="stop-color:#CD1F00"/>
						<stop  offset="0.7517" style="stop-color:#C61D00"/>
						<stop  offset="0.8276" style="stop-color:#BB1900"/>
						<stop  offset="0.8889" style="stop-color:#AA1300"/>
						<stop  offset="0.9414" style="stop-color:#940C00"/>
						<stop  offset="0.987" style="stop-color:#790300"/>
						<stop  offset="1" style="stop-color:#700000"/>
					</linearGradient>
					<path class="st27" d="M51.21,64.44l4.92,4.92c9.99-1.66,16.64-2.95,16.64-1.14c0,3.54-24.31,4.75-49.87,4.58
						c-0.07,0-0.14,0-0.2-0.01c-0.68-0.08-1.25-0.53-1.54-1.16c0,0,0,0,0-0.01c-0.04-0.1-0.08-0.2-0.12-0.31
						c0.03,0.11,0.07,0.21,0.12,0.31l0,0c0.32,0.69,0.98,1.16,1.74,1.16c5.36-0.03,10.67-0.41,15.71-0.94l-4.35-4.35
						c-7.62,1.65-13.31,3.2-13.31,3.2c0,1.25,0.87,2.26,1.95,2.26c25.58,0.19,50.24-0.61,50.27-4.83
						C73.17,62.93,62.74,62.9,51.21,64.44z"/>
				</g>
			</g>
			
				<linearGradient id="SVGID_22_" gradientUnits="userSpaceOnUse" x1="20.96" y1="29.5942" x2="73.18" y2="29.5942" gradientTransform="matrix(1 0 0 -1 0 82)">
				<stop  offset="0" style="stop-color:#CF2000"/>
				<stop  offset="0.021" style="stop-color:#D12201"/>
				<stop  offset="0.2435" style="stop-color:#E23309"/>
				<stop  offset="0.4872" style="stop-color:#EC3D0E"/>
				<stop  offset="0.7911" style="stop-color:#EF4010"/>
				<stop  offset="0.8415" style="stop-color:#EC3D0F"/>
				<stop  offset="0.8819" style="stop-color:#E2330D"/>
				<stop  offset="0.919" style="stop-color:#D12208"/>
				<stop  offset="0.9537" style="stop-color:#B90A03"/>
				<stop  offset="0.966" style="stop-color:#AF0000"/>
				<stop  offset="1" style="stop-color:#EF4010"/>
			</linearGradient>
			<path class="st28" d="M22.91,37.83L22.91,37.83c-1.08,0-1.95,0.87-1.95,1.95c0,10.3,0,20.6,0,30.91c0,1.07,0.87,1.94,1.94,1.95
				c25.58-0.19,50.31-8.66,50.28-4.52c0-11.6,0-23.21,0-34.81C73.2,29.17,48.48,37.64,22.91,37.83z"/>
			<g>
				
					<linearGradient id="SVGID_23_" gradientUnits="userSpaceOnUse" x1="20.9528" y1="29.045" x2="73.172" y2="29.045" gradientTransform="matrix(1 0 0 -1 0 82)">
					<stop  offset="0" style="stop-color:#0050CF"/>
					<stop  offset="0.021" style="stop-color:#0252D1"/>
					<stop  offset="0.2435" style="stop-color:#1363E2"/>
					<stop  offset="0.4872" style="stop-color:#1D6DEC"/>
					<stop  offset="0.7911" style="stop-color:#2070EF"/>
					<stop  offset="0.8415" style="stop-color:#1E6DEC"/>
					<stop  offset="0.8819" style="stop-color:#1963E2"/>
					<stop  offset="0.919" style="stop-color:#1152D1"/>
					<stop  offset="0.9537" style="stop-color:#053AB9"/>
					<stop  offset="0.966" style="stop-color:#0030AF"/>
					<stop  offset="1" style="stop-color:#2070EF"/>
				</linearGradient>
				<path class="st29" d="M38.42,36.84c0,10.21,0,27.03,0,34.81c6.35-0.71,12.3-1.7,17.42-2.58c0-9.41,0-26.04,0-34.81
					C50.72,35.14,44.77,36.12,38.42,36.84z"/>
			</g>
			<g>
				
					<linearGradient id="SVGID_24_" gradientUnits="userSpaceOnUse" x1="20.9531" y1="27.975" x2="73.1707" y2="27.975" gradientTransform="matrix(1 0 0 -1 0 82)">
					<stop  offset="0" style="stop-color:#FBBF00"/>
					<stop  offset="0.021" style="stop-color:#FBC102"/>
					<stop  offset="0.2435" style="stop-color:#FDD213"/>
					<stop  offset="0.4872" style="stop-color:#FFDC1D"/>
					<stop  offset="0.7911" style="stop-color:#FFDF20"/>
					<stop  offset="0.8415" style="stop-color:#FDDC1E"/>
					<stop  offset="0.8819" style="stop-color:#F8D219"/>
					<stop  offset="0.919" style="stop-color:#EEC111"/>
					<stop  offset="0.9537" style="stop-color:#E1A905"/>
					<stop  offset="0.966" style="stop-color:#DB9F00"/>
					<stop  offset="1" style="stop-color:#FFDF20"/>
				</linearGradient>
				<path class="st30" d="M31.06,54.03c0.55-0.37,0.82-0.55,1.37-0.92c-1.1,0.09-1.65,0.12-2.74,0.19c-1.1,0.06-1.65,0.09-2.74,0.13
					c0.55,0.31,0.82,0.46,1.37,0.76c0.55,0.3,0.82,0.45,1.37,0.75C30.24,54.58,30.51,54.4,31.06,54.03z"/>
				
					<linearGradient id="SVGID_25_" gradientUnits="userSpaceOnUse" x1="20.9524" y1="30.8573" x2="73.1722" y2="30.8573" gradientTransform="matrix(1 0 0 -1 0 82)">
					<stop  offset="0" style="stop-color:#FBBF00"/>
					<stop  offset="0.021" style="stop-color:#FBC102"/>
					<stop  offset="0.2435" style="stop-color:#FDD213"/>
					<stop  offset="0.4872" style="stop-color:#FFDC1D"/>
					<stop  offset="0.7911" style="stop-color:#FFDF20"/>
					<stop  offset="0.8415" style="stop-color:#FDDC1E"/>
					<stop  offset="0.8819" style="stop-color:#F8D219"/>
					<stop  offset="0.919" style="stop-color:#EEC111"/>
					<stop  offset="0.9537" style="stop-color:#E1A905"/>
					<stop  offset="0.966" style="stop-color:#DB9F00"/>
					<stop  offset="1" style="stop-color:#FFDF20"/>
				</linearGradient>
				<path class="st31" d="M31.51,51.01c-0.52,0.37-1.15,0.61-1.82,0.65s-1.3-0.12-1.82-0.44c-0.52-0.31-0.94-0.78-1.19-1.33
					c0,0.02,0,0.03,0,0.05c0,0.82,0.34,1.54,0.88,2.05c0.55,0.51,1.3,0.81,2.13,0.76c0.83-0.05,1.59-0.43,2.14-1.01
					c0.55-0.58,0.88-1.34,0.88-2.16c0-0.02,0-0.03,0-0.05C32.45,50.12,32.03,50.63,31.51,51.01z"/>
				
					<linearGradient id="SVGID_26_" gradientUnits="userSpaceOnUse" x1="20.9524" y1="37.999" x2="73.174" y2="37.999" gradientTransform="matrix(1 0 0 -1 0 82)">
					<stop  offset="0" style="stop-color:#FBBF00"/>
					<stop  offset="0.021" style="stop-color:#FBC102"/>
					<stop  offset="0.2435" style="stop-color:#FDD213"/>
					<stop  offset="0.4872" style="stop-color:#FFDC1D"/>
					<stop  offset="0.7911" style="stop-color:#FFDF20"/>
					<stop  offset="0.8415" style="stop-color:#FDDC1E"/>
					<stop  offset="0.8819" style="stop-color:#F8D219"/>
					<stop  offset="0.919" style="stop-color:#EEC111"/>
					<stop  offset="0.9537" style="stop-color:#E1A905"/>
					<stop  offset="0.966" style="stop-color:#DB9F00"/>
					<stop  offset="1" style="stop-color:#FFDF20"/>
				</linearGradient>
				<path class="st32" d="M29.69,46.19c0.76-0.04,1.37-0.7,1.37-1.45c0-0.55-0.34-0.59-0.34-0.8c0-0.2,0.21-0.49-0.21-0.81
					c0.21,0.33-0.14,0.42-0.14,0.76s0.14,0.33,0.14,0.6c0,0.15-0.12,0.28-0.27,0.29c-0.15,0.01-0.27-0.11-0.27-0.26
					c0-0.27,0.27-0.56,0.27-0.97s-0.07-0.54-0.27-0.87c-0.21-0.33-0.55-0.58-0.28-0.87c-0.41,0.16-0.21,0.7-0.21,1.04
					s-0.27,0.56-0.27,0.97s0.21,0.47,0.21,0.74c0,0.15-0.12,0.28-0.27,0.29c-0.15,0.01-0.27-0.11-0.27-0.26
					c0-0.27,0.14-0.28,0.14-0.62s-0.34-0.39-0.14-0.74c-0.41,0.36-0.21,0.62-0.21,0.83c0,0.21-0.34,0.29-0.34,0.84
					C28.31,45.65,28.93,46.23,29.69,46.19z"/>
				
					<linearGradient id="SVGID_27_" gradientUnits="userSpaceOnUse" x1="20.9529" y1="33.076" x2="73.1697" y2="33.076" gradientTransform="matrix(1 0 0 -1 0 82)">
					<stop  offset="0" style="stop-color:#FBBF00"/>
					<stop  offset="0.021" style="stop-color:#FBC102"/>
					<stop  offset="0.2435" style="stop-color:#FDD213"/>
					<stop  offset="0.4872" style="stop-color:#FFDC1D"/>
					<stop  offset="0.7911" style="stop-color:#FFDF20"/>
					<stop  offset="0.8415" style="stop-color:#FDDC1E"/>
					<stop  offset="0.8819" style="stop-color:#F8D219"/>
					<stop  offset="0.919" style="stop-color:#EEC111"/>
					<stop  offset="0.9537" style="stop-color:#E1A905"/>
					<stop  offset="0.966" style="stop-color:#DB9F00"/>
					<stop  offset="1" style="stop-color:#FFDF20"/>
				</linearGradient>
				<path class="st33" d="M29.69,51.11c0.61-0.03,1.16-0.32,1.55-0.74c0.4-0.42,0.64-0.99,0.64-1.59s-0.25-1.13-0.64-1.5
					c-0.4-0.37-0.95-0.58-1.55-0.54c-0.61,0.04-1.15,0.31-1.55,0.72s-0.64,0.97-0.64,1.57s0.25,1.14,0.64,1.52
					S29.08,51.14,29.69,51.11z"/>
				
					<linearGradient id="SVGID_28_" gradientUnits="userSpaceOnUse" x1="20.9532" y1="22.2753" x2="73.1694" y2="22.2753" gradientTransform="matrix(1 0 0 -1 0 82)">
					<stop  offset="0" style="stop-color:#FBBF00"/>
					<stop  offset="0.021" style="stop-color:#FBC102"/>
					<stop  offset="0.2435" style="stop-color:#FDD213"/>
					<stop  offset="0.4872" style="stop-color:#FFDC1D"/>
					<stop  offset="0.7911" style="stop-color:#FFDF20"/>
					<stop  offset="0.8415" style="stop-color:#FDDC1E"/>
					<stop  offset="0.8819" style="stop-color:#F8D219"/>
					<stop  offset="0.919" style="stop-color:#EEC111"/>
					<stop  offset="0.9537" style="stop-color:#E1A905"/>
					<stop  offset="0.966" style="stop-color:#DB9F00"/>
					<stop  offset="1" style="stop-color:#FFDF20"/>
				</linearGradient>
				<path class="st34" d="M29.69,59.69c0.36-0.02,0.68-0.18,0.91-0.43s0.38-0.58,0.38-0.93s-0.15-0.67-0.38-0.89
					c-0.23-0.21-0.53-0.33-0.87-0.32c-0.01,0-0.03,0-0.04,0c-0.76,0.04-1.44,0.38-1.94,0.9s-0.8,1.21-0.8,1.97
					c0,0.52,0.14,1,0.4,1.4c0.25,0.4,0.61,0.73,1.04,0.94c-0.2-0.26-0.31-0.59-0.31-0.94c0-0.45,0.18-0.86,0.48-1.16
					C28.84,59.92,29.24,59.72,29.69,59.69z M29.69,57.86c0.3-0.02,0.55,0.22,0.55,0.52s-0.25,0.56-0.55,0.58s-0.55-0.21-0.55-0.51
					C29.14,58.14,29.38,57.88,29.69,57.86z"/>
				
					<linearGradient id="SVGID_29_" gradientUnits="userSpaceOnUse" x1="20.9518" y1="22.0147" x2="73.175" y2="22.0147" gradientTransform="matrix(1 0 0 -1 0 82)">
					<stop  offset="0" style="stop-color:#FBBF00"/>
					<stop  offset="0.021" style="stop-color:#FBC102"/>
					<stop  offset="0.2435" style="stop-color:#FDD213"/>
					<stop  offset="0.4872" style="stop-color:#FFDC1D"/>
					<stop  offset="0.7911" style="stop-color:#FFDF20"/>
					<stop  offset="0.8415" style="stop-color:#FDDC1E"/>
					<stop  offset="0.8819" style="stop-color:#F8D219"/>
					<stop  offset="0.919" style="stop-color:#EEC111"/>
					<stop  offset="0.9537" style="stop-color:#E1A905"/>
					<stop  offset="0.966" style="stop-color:#DB9F00"/>
					<stop  offset="1" style="stop-color:#FFDF20"/>
				</linearGradient>
				<path class="st35" d="M30.99,57.37c0.2,0.25,0.32,0.58,0.32,0.94c0,0.45-0.18,0.86-0.48,1.17c-0.29,0.31-0.7,0.52-1.14,0.54
					c-0.36,0.02-0.68,0.18-0.91,0.43c-0.23,0.24-0.38,0.57-0.38,0.93c0,0.35,0.15,0.67,0.38,0.89c0.23,0.21,0.53,0.34,0.87,0.33
					c0.01,0,0.03,0,0.04,0c0.76-0.04,1.44-0.4,1.94-0.93c0.5-0.53,0.8-1.24,0.8-1.99c0-0.52-0.15-0.99-0.4-1.39
					C31.78,57.89,31.42,57.57,30.99,57.37z M29.69,61.85c-0.3,0.02-0.55-0.21-0.55-0.51s0.24-0.56,0.55-0.58
					c0.3-0.02,0.55,0.21,0.55,0.51C30.24,61.58,29.99,61.84,29.69,61.85z"/>
				
					<linearGradient id="SVGID_30_" gradientUnits="userSpaceOnUse" x1="20.9531" y1="18.345" x2="73.1707" y2="18.345" gradientTransform="matrix(1 0 0 -1 0 82)">
					<stop  offset="0" style="stop-color:#FBBF00"/>
					<stop  offset="0.021" style="stop-color:#FBC102"/>
					<stop  offset="0.2435" style="stop-color:#FDD213"/>
					<stop  offset="0.4872" style="stop-color:#FFDC1D"/>
					<stop  offset="0.7911" style="stop-color:#FFDF20"/>
					<stop  offset="0.8415" style="stop-color:#FDDC1E"/>
					<stop  offset="0.8819" style="stop-color:#F8D219"/>
					<stop  offset="0.919" style="stop-color:#EEC111"/>
					<stop  offset="0.9537" style="stop-color:#E1A905"/>
					<stop  offset="0.966" style="stop-color:#DB9F00"/>
					<stop  offset="1" style="stop-color:#FFDF20"/>
				</linearGradient>
				<path class="st36" d="M26.94,63.27c0,0.44,0,0.66,0,1.09c1.1-0.04,1.92-0.09,2.74-0.13c0.82-0.05,1.65-0.1,2.74-0.19
					c0-0.44,0-0.66,0-1.09c-1.1,0.09-1.92,0.14-2.74,0.19C28.86,63.19,28.04,63.23,26.94,63.27z"/>
				
					<linearGradient id="SVGID_31_" gradientUnits="userSpaceOnUse" x1="20.9545" y1="22.495" x2="73.1671" y2="22.495" gradientTransform="matrix(1 0 0 -1 0 82)">
					<stop  offset="0" style="stop-color:#FBBF00"/>
					<stop  offset="0.021" style="stop-color:#FBC102"/>
					<stop  offset="0.2435" style="stop-color:#FDD213"/>
					<stop  offset="0.4872" style="stop-color:#FFDC1D"/>
					<stop  offset="0.7911" style="stop-color:#FFDF20"/>
					<stop  offset="0.8415" style="stop-color:#FDDC1E"/>
					<stop  offset="0.8819" style="stop-color:#F8D219"/>
					<stop  offset="0.919" style="stop-color:#EEC111"/>
					<stop  offset="0.9537" style="stop-color:#E1A905"/>
					<stop  offset="0.966" style="stop-color:#DB9F00"/>
					<stop  offset="1" style="stop-color:#FFDF20"/>
				</linearGradient>
				<path class="st37" d="M32.98,66.19c1.1-0.09,1.64-0.14,2.74-0.25c0-1.05,0-12.07,0-13.12c-1.1,0.1-1.65,0.16-2.74,0.25
					C32.98,54.12,32.98,65.14,32.98,66.19z"/>
				
					<linearGradient id="SVGID_32_" gradientUnits="userSpaceOnUse" x1="20.9525" y1="21.95" x2="73.173" y2="21.95" gradientTransform="matrix(1 0 0 -1 0 82)">
					<stop  offset="0" style="stop-color:#FBBF00"/>
					<stop  offset="0.021" style="stop-color:#FBC102"/>
					<stop  offset="0.2435" style="stop-color:#FDD213"/>
					<stop  offset="0.4872" style="stop-color:#FFDC1D"/>
					<stop  offset="0.7911" style="stop-color:#FFDF20"/>
					<stop  offset="0.8415" style="stop-color:#FDDC1E"/>
					<stop  offset="0.8819" style="stop-color:#F8D219"/>
					<stop  offset="0.919" style="stop-color:#EEC111"/>
					<stop  offset="0.9537" style="stop-color:#E1A905"/>
					<stop  offset="0.966" style="stop-color:#DB9F00"/>
					<stop  offset="1" style="stop-color:#FFDF20"/>
				</linearGradient>
				<path class="st38" d="M23.65,66.65c1.1-0.02,1.65-0.04,2.74-0.08c0-1.05,0-12.07,0-13.12c-1.1,0.04-1.65,0.06-2.74,0.08
					C23.65,54.58,23.65,65.6,23.65,66.65z"/>
				
					<linearGradient id="SVGID_33_" gradientUnits="userSpaceOnUse" x1="20.9531" y1="16.495" x2="73.1707" y2="16.495" gradientTransform="matrix(1 0 0 -1 0 82)">
					<stop  offset="0" style="stop-color:#FBBF00"/>
					<stop  offset="0.021" style="stop-color:#FBC102"/>
					<stop  offset="0.2435" style="stop-color:#FDD213"/>
					<stop  offset="0.4872" style="stop-color:#FFDC1D"/>
					<stop  offset="0.7911" style="stop-color:#FFDF20"/>
					<stop  offset="0.8415" style="stop-color:#FDDC1E"/>
					<stop  offset="0.8819" style="stop-color:#F8D219"/>
					<stop  offset="0.919" style="stop-color:#EEC111"/>
					<stop  offset="0.9537" style="stop-color:#E1A905"/>
					<stop  offset="0.966" style="stop-color:#DB9F00"/>
					<stop  offset="1" style="stop-color:#FFDF20"/>
				</linearGradient>
				<path class="st39" d="M26.94,64.91c0.55,0.31,0.82,0.46,1.37,0.76c0.55,0.3,0.82,0.45,1.37,0.75c0.55-0.36,0.82-0.54,1.37-0.91
					c0.55-0.37,0.82-0.55,1.37-0.92c-1.1,0.08-1.65,0.12-2.74,0.19C28.59,64.84,28.04,64.87,26.94,64.91z"/>
				
					<linearGradient id="SVGID_34_" gradientUnits="userSpaceOnUse" x1="20.9531" y1="25.995" x2="73.1703" y2="25.995" gradientTransform="matrix(1 0 0 -1 0 82)">
					<stop  offset="0" style="stop-color:#FBBF00"/>
					<stop  offset="0.021" style="stop-color:#FBC102"/>
					<stop  offset="0.2435" style="stop-color:#FDD213"/>
					<stop  offset="0.4872" style="stop-color:#FFDC1D"/>
					<stop  offset="0.7911" style="stop-color:#FFDF20"/>
					<stop  offset="0.8415" style="stop-color:#FDDC1E"/>
					<stop  offset="0.8819" style="stop-color:#F8D219"/>
					<stop  offset="0.919" style="stop-color:#EEC111"/>
					<stop  offset="0.9537" style="stop-color:#E1A905"/>
					<stop  offset="0.966" style="stop-color:#DB9F00"/>
					<stop  offset="1" style="stop-color:#FFDF20"/>
				</linearGradient>
				<path class="st40" d="M26.94,55.62c0,0.44,0,0.66,0,1.09c1.1-0.04,1.92-0.09,2.74-0.13c0.82-0.05,1.65-0.1,2.75-0.19
					c0-0.44,0-0.66,0-1.09c-1.1,0.09-1.92,0.14-2.74,0.19C28.86,55.53,28.04,55.57,26.94,55.62z"/>
			</g>
			<g class="st41">
				
					<linearGradient id="SVGID_35_" gradientUnits="userSpaceOnUse" x1="20.96" y1="29.5942" x2="73.18" y2="29.5942" gradientTransform="matrix(1 0 0 -1 0 82)">
					<stop  offset="0" style="stop-color:#404040"/>
					<stop  offset="0.7911" style="stop-color:#FFFFFF"/>
					<stop  offset="0.966" style="stop-color:#FFFFFF"/>
					<stop  offset="1" style="stop-color:#FFFFFF"/>
				</linearGradient>
				<path class="st42" d="M22.91,37.83L22.91,37.83c-1.08,0-1.95,0.87-1.95,1.95l0,0c0,10.3,0,20.6,0,30.91l0,0
					c0,1.07,0.87,1.94,1.94,1.95l0,0c25.58-0.19,50.31-8.66,50.28-4.52c0-11.6,0-23.21,0-34.81C73.2,29.17,48.48,37.64,22.91,37.83z
					"/>
			</g>
		</g>
	</g>
</g>
</svg>
