<?xml version="1.0" encoding="UTF-8"?>
<svg width="28px" height="28px" viewBox="0 0 28 28" version="1.1" xmlns="http://www.w3.org/2000/svg" xmlns:xlink="http://www.w3.org/1999/xlink">
    <title>QQQ</title>
    <g id="QQQ" stroke="none" stroke-width="1" fill="none" fill-rule="evenodd">
        <circle id="Oval" fill="#FFFFFF" cx="14" cy="14" r="14"></circle>
        <path d="M22,6 L22,17.1244635 L17.1483871,22 L6,22 L6,6 L22,6 Z M9.2,7.2360515 C7.85806452,7.2360515 7.06666667,8.26609442 7.06666667,9.74248927 C7.06666667,11.2188841 7.85806452,12.248927 9.2,12.248927 C9.47526882,12.248927 9.71612903,12.2145923 9.92258065,12.111588 L9.92258065,12.111588 L10.2666667,12.6266094 L11.0236559,12.1459227 L10.6451613,11.6309013 C11.0580645,11.1845494 11.2989247,10.5321888 11.3333333,9.74248927 C11.3333333,8.26609442 10.5419355,7.2360515 9.2,7.2360515 Z M13.8451613,7.2360515 C12.5032258,7.2360515 11.711828,8.26609442 11.711828,9.74248927 C11.711828,11.2188841 12.5032258,12.248927 13.8451613,12.248927 C14.1204301,12.248927 14.3612903,12.2145923 14.5677419,12.111588 L14.5677419,12.111588 L14.911828,12.6266094 L15.6688172,12.1459227 L15.2903226,11.6309013 C15.7032258,11.1845494 15.944086,10.5321888 15.9784946,9.74248927 C15.9784946,8.26609442 15.1870968,7.2360515 13.8451613,7.2360515 Z M18.455914,7.2360515 C17.1139785,7.2360515 16.3225806,8.26609442 16.3225806,9.74248927 C16.3225806,11.2188841 17.1139785,12.248927 18.455914,12.248927 C18.7311828,12.248927 18.972043,12.2145923 19.1784946,12.111588 L19.1784946,12.111588 L19.5225806,12.6266094 L20.2795699,12.1459227 L19.9010753,11.6309013 C20.3139785,11.1845494 20.5892473,10.5321888 20.5892473,9.74248927 C20.5892473,8.26609442 19.7978495,7.2360515 18.455914,7.2360515 Z M13.8107527,8.19742489 C14.6021505,8.19742489 14.9462366,8.88412017 14.9462366,9.77682403 C14.9462366,10.1888412 14.8774194,10.5665236 14.7397849,10.8412017 L14.7397849,10.8412017 L14.4301075,10.360515 L13.6731183,10.8412017 L14.0172043,11.3218884 L14.0172043,11.3218884 L13.8451613,11.3218884 C13.0537634,11.3218884 12.7096774,10.6351931 12.7096774,9.74248927 C12.7096774,8.88412017 13.0193548,8.19742489 13.8107527,8.19742489 Z M18.455914,8.19742489 C19.2473118,8.19742489 19.5569892,8.88412017 19.5913978,9.77682403 C19.5913978,10.1888412 19.5225806,10.5665236 19.3849462,10.8412017 L19.3849462,10.8412017 L19.0752688,10.360515 L18.3182796,10.8412017 L18.6623656,11.3218884 L18.6623656,11.3218884 L18.4903226,11.3218884 C17.6989247,11.3218884 17.3548387,10.6351931 17.3548387,9.74248927 C17.3548387,8.88412017 17.6645161,8.19742489 18.455914,8.19742489 Z M9.2,8.19742489 C9.99139785,8.19742489 10.3010753,8.88412017 10.3354839,9.77682403 C10.3354839,10.1888412 10.2666667,10.5665236 10.1290323,10.8412017 L10.1290323,10.8412017 L9.81935484,10.360515 L9.06236559,10.8412017 L9.40645161,11.3218884 L9.40645161,11.3218884 L9.2344086,11.3218884 C8.44301075,11.3218884 8.09892473,10.6351931 8.09892473,9.74248927 C8.09892473,8.88412017 8.40860215,8.19742489 9.2,8.19742489 Z" id="Combined-Shape" fill="#001A7A" fill-rule="nonzero"></path>
    </g>
</svg>