<svg xmlns="http://www.w3.org/2000/svg" viewBox="0 0 330 330">
    <circle fill="#000" cx="165" cy="165" r="165" />
    <path fill="#fff" d="M84.51,111.31c0-6.49-.4-12.77-1-19.26h29l1,13.18c3.25-4.46,11.15-15.41,31.63-15.41,23.52,0,30.21,14.39,32.23,19.26C185.88,92.66,199.66,90,210.21,90c20.67,0,29,12.37,31.21,16.42,5.48,8.92,5.07,21.29,5.07,30.21v56.08h-30.2V134.22c0-11-1.63-23.11-17.23-23.11-18.05,0-18.45,16.82-18.45,32v49.59H150.4V133.61c0-7.91-.2-22.5-16.83-22.5-18.85,0-18.85,16.21-18.85,23.11v58.51H84.51Z"/>
    <path fill="#fff" d="M83.5,215.24h163v24.94H83.5Z"/>
</svg>
