<?xml version="1.0" encoding="UTF-8"?>
<svg width="28px" height="28px" viewBox="0 0 28 28" version="1.1" xmlns="http://www.w3.org/2000/svg" xmlns:xlink="http://www.w3.org/1999/xlink">
    <title>mTSLA</title>
    <g id="Icons" stroke="none" stroke-width="1" fill="none" fill-rule="evenodd">
        <g id="TSLA" fill="#E31837" fill-rule="nonzero">
            <path d="M14.2112648,25.3243915 L17.3477949,7.68437175 C20.3374714,7.68437175 21.2804816,8.01220616 21.4166372,9.35033285 C21.4166372,9.35033285 23.4221916,8.60253797 24.4337217,7.08378406 C20.4864468,5.25470148 16.5203401,5.1722124 16.5203401,5.1722124 L14.2060485,7.9909871 L14.2112648,7.99063345 L11.8969732,5.17177033 C11.8969732,5.17177033 7.93077803,5.25434783 3.9840337,7.08343041 C4.99467963,8.60218431 7.00102975,9.3499792 7.00102975,9.3499792 C7.13798107,8.01176409 8.0798419,7.68392969 11.0494487,7.68180778 L14.2112648,25.3243915" id="path35"></path>
            <path d="M14.210027,4.35801955 C17.4008425,4.33361764 21.053084,4.85162783 24.7918816,6.48116289 C25.2915904,5.58174017 25.4200541,5.18423653 25.4200541,5.18423653 C21.3329988,3.56725608 17.5055232,3.0138808 14.209585,3 C10.9138236,3.0138808 7.08652486,3.5673445 3,5.18423653 C3,5.18423653 3.18230705,5.67386624 3.62773039,6.48116289 C7.36582068,4.85162783 11.0186811,4.33361764 14.209585,4.35801955 L14.210027,4.35801955" id="path37"></path>
        </g>
    </g>
</svg>