<?xml version="1.0" encoding="UTF-8"?>
<svg width="28px" height="28px" viewBox="0 0 28 28" version="1.1" xmlns="http://www.w3.org/2000/svg" xmlns:xlink="http://www.w3.org/1999/xlink">
    <title>TWTR</title>
    <g id="TWTR" stroke="none" stroke-width="1" fill="none" fill-rule="evenodd">
        <circle id="Oval" fill="#FFFFFF" cx="14" cy="14" r="14"></circle>
        <path d="M23,8.77561793 C22.3377783,9.07684506 21.6259673,9.28033968 20.8790559,9.37188938 C21.6414479,8.90325071 22.2270781,8.16116502 22.5027486,7.27686396 C21.7891377,7.71089289 20.9988461,8.02596328 20.1576156,8.19577369 C19.4840537,7.45977827 18.5242924,7 17.4621107,7 C15.4227077,7 13.769135,8.69541897 13.769135,10.7866615 C13.769135,11.083459 13.8018047,11.3725045 13.8648048,11.6496451 C10.7956191,11.4917408 8.07455509,9.98412638 6.25313209,7.69308167 C5.9352516,8.25234559 5.75309104,8.90279009 5.75309104,9.59679514 C5.75309104,10.910604 6.40505255,12.0696467 7.39595336,12.7487 C6.79061301,12.7290431 6.22118231,12.5586795 5.72330119,12.2750796 C5.72288138,12.29086 5.72288138,12.306733 5.72288138,12.3226996 C5.72288138,14.1573819 6.99584433,15.6877904 8.6852365,16.0359003 C8.37536602,16.1224661 8.04911554,16.1687021 7.71233407,16.1687021 C7.47437422,16.1687021 7.24307468,16.1448921 7.01753391,16.1007784 C7.48751433,17.605162 8.85128678,18.6999724 10.4673294,18.7304269 C9.2034575,19.7461469 7.61117516,20.3515553 5.88092165,20.3515553 C5.58284054,20.3515553 5.28890087,20.333559 5,20.2985812 C6.63431286,21.3730889 8.57543576,22 10.6609194,22 C17.4535004,22 21.1680765,16.2298899 21.1680765,11.2256744 C21.1680765,11.0614947 21.1644766,10.8982373 21.1573671,10.7357193 C21.8788074,10.2019259 22.5048487,9.53505314 23,8.77561793 L23,8.77561793 Z" id="Path" fill="#2AA9E0" fill-rule="nonzero"></path>
    </g>
</svg>