<svg xmlns="http://www.w3.org/2000/svg" viewBox="0 0 53.831 55.4">
    <circle fill="#000" cx="27" cy="27.5" r="27" />
    <g transform="matrix(0.60,0.00,0.00,0.60,11,9.5)">
        <path fill="#fff" d="M25.639 37.518c-6.402-.564-11.062-3.907-11.298-9.979h8.567c.188 1.93 1.13 3.106 2.73 3.625v-7.438c-5.037-1.318-11.345-2.73-11.345-10.121 0-5.884 4.943-9.368 11.345-9.792V0h3.013v3.813c6.449.518 10.592 3.813 11.015 9.792h-8.614c-.188-1.742-1.082-2.825-2.4-3.295v7.296c5.037 1.412 11.485 2.777 11.485 10.074 0 5.083-4.048 9.556-11.485 9.885v3.813h-3.013v-3.86zm0-20.901v-6.543c-1.742.283-2.825 1.318-2.825 3.154 0 1.647 1.13 2.636 2.825 3.389zm3.012 8.003v6.684c1.883-.329 3.06-1.6 3.06-3.342 0-1.695-1.224-2.636-3.06-3.342z"/>
        <path fill="#fff" fill-rule="evenodd" clip-rule="evenodd" d="M0 47.288h53.831V55.4H0z"/>
    </g>
</svg>