<svg id="Layer_1" data-name="Layer 1" xmlns="http://www.w3.org/2000/svg" xmlns:xlink="http://www.w3.org/1999/xlink" viewBox="0 0 691.69 362"><defs><style>.cls-1{fill:url(#linear-gradient);}</style><linearGradient id="linear-gradient" x1="450" y1="630.16" x2="450" y2="242.19" gradientUnits="userSpaceOnUse"><stop offset="0" stop-color="#272460"/><stop offset="0.21" stop-color="#3a2460"/><stop offset="0.62" stop-color="#6a2362"/><stop offset="1" stop-color="#9c2363"/></linearGradient></defs><path class="cls-1" d="M790.31,494,570,271.57a8.67,8.67,0,0,0-12.32,0L457.43,372.69a10.45,10.45,0,0,1-14.84,0L342.36,271.59a8.92,8.92,0,0,0-12.31,0L109.69,494a19.13,19.13,0,0,0,0,26.92L216.24,628.4a8.92,8.92,0,0,0,12.32,0l100.2-101.12a10.47,10.47,0,0,1,14.85,0L443.83,628.39a8.69,8.69,0,0,0,12.32,0L556.4,527.3a10.44,10.44,0,0,1,14.84,0l100.2,101.12a8.67,8.67,0,0,0,12.32,0L790.31,520.91A19.13,19.13,0,0,0,790.31,494ZM570,501.4l-26-26.81a10.46,10.46,0,0,1,3.84-17.06l41.75-15.66a10.45,10.45,0,0,1,14,11.37l-7.76,50.57a10.46,10.46,0,0,1-17.76,5.77L570,501.4Zm-285.92-101-61,19.44a5.82,5.82,0,0,1-5.9-9.65l68.09-68.71A6.91,6.91,0,0,1,297,347.2l-5.74,44.55A10.45,10.45,0,0,1,284.06,400.37Zm12.43,24.71,19.4,52.49a8.16,8.16,0,0,1-10.24,10.57l-55.12-18.4a10.44,10.44,0,0,1-7.14-9.66l-.5-20.5a10.46,10.46,0,0,1,7.28-10.21l33.35-10.62A10.44,10.44,0,0,1,296.49,425.08Zm-38.37,65.48L304.25,506a10.45,10.45,0,0,1,4.12,17.27L257,575a6.43,6.43,0,0,1-11-4.37l-1.68-69.94A10.45,10.45,0,0,1,258.12,490.56Zm77.35-60.72,57.66,24.05a10.46,10.46,0,0,1,5.32,14.33l-23.36,46.6a10.45,10.45,0,0,1-16.76,2.68l-13.07-13.19a10.48,10.48,0,0,1-2.38-3.73l-21.23-57.47A10.45,10.45,0,0,1,335.47,429.84Zm262.41-9.6-42.37,15.9a10.44,10.44,0,0,1-13.64-6.68l-3.7-11.87a10.46,10.46,0,0,1,2.7-10.6l42.6-41.35a6.3,6.3,0,0,1,10.47,2.91l10.38,39.24A10.44,10.44,0,0,1,597.88,420.24Zm-78.24,29.35-44.45,16.68a10.48,10.48,0,0,1-7.69-.14l-7.14-3A10.44,10.44,0,0,1,454,452.69l4.13-52.53a10.49,10.49,0,0,1,3-6.54L488,366.47a10.45,10.45,0,0,1,17.4,4.25l20.54,66A10.44,10.44,0,0,1,519.64,449.59Zm-96.42-1.93-14.28-6a10.44,10.44,0,0,1-6.12-7.16l-18.32-75a7.89,7.89,0,0,1,13.26-7.43l39.92,40.27a10.45,10.45,0,0,1,3,8.18l-3,38.27A10.46,10.46,0,0,1,423.22,447.66Zm5.29,21,29.84,12.45a10.43,10.43,0,0,1,6.23,7.66l5.68,29.31a8.34,8.34,0,0,1-11.48,9.25l-47.87-20.56a10.45,10.45,0,0,1-5.22-14.28l9.45-18.87A10.46,10.46,0,0,1,428.51,468.65Zm60.81,10.84,19.48-7.31A10.46,10.46,0,0,1,520,474.7l24.57,25.37a10.46,10.46,0,0,1-.08,14.63l-33.94,34.22a10.45,10.45,0,0,1-17.68-5.38l-10.12-52.28A10.46,10.46,0,0,1,489.32,479.49Zm144-49,17.9-.47a10.43,10.43,0,0,1,9.52,5.58l23.49,44.62a10.46,10.46,0,0,1-.93,11.21L637,552.15a10.44,10.44,0,0,1-15.73,1l-9.7-9.79a10.44,10.44,0,0,1-2.9-8.94l14.59-95.05A10.45,10.45,0,0,1,633.32,430.53Zm-11.68-25.09-13.1-49.52a7.83,7.83,0,0,1,13.13-7.51l45.82,46.25a10.46,10.46,0,0,1-7.15,17.81l-28.32.75A10.44,10.44,0,0,1,621.64,405.44ZM571.22,297.49l3.4,3.44a10.34,10.34,0,0,1,2.68,4.68L584.55,333a10.47,10.47,0,0,1-2.83,10.17l-39,37.89a10.46,10.46,0,0,1-17.26-4.4l-9.49-30.49a10.44,10.44,0,0,1,2.55-10.46l37.88-38.22A10.45,10.45,0,0,1,571.22,297.49Zm-227.59,0L352,306a10.54,10.54,0,0,1,2.73,4.88l24.53,100.45a10.44,10.44,0,0,1-14.17,12.12l-50-20.86a10.46,10.46,0,0,1-6.34-11l10.5-81.41a10.49,10.49,0,0,1,2.95-6l6.57-6.64A10.47,10.47,0,0,1,343.63,297.5ZM176.55,452.82l35.65-11.35a10.45,10.45,0,0,1,13.62,9.7l.84,34.9a10.43,10.43,0,0,1-5.2,9.28L157,532.84a10.46,10.46,0,0,1-12.68-1.68l-16.23-16.38a10.44,10.44,0,0,1,0-14.71l44.24-44.65A10.46,10.46,0,0,1,176.55,452.82ZM217.43,605l-45.32-45.74a10.45,10.45,0,0,1,2.17-16.39L212,520.91a10.45,10.45,0,0,1,15.7,8.78l1.68,70.18a7,7,0,0,1-2,5.1h0A7,7,0,0,1,217.43,605Zm225.14-2.49-55.83-56.32a10.45,10.45,0,0,1-1.92-12l3.71-7.39A10.43,10.43,0,0,1,402,521.81l70.16,30.13a10.47,10.47,0,0,1,6.14,7.62l2.49,12.87a10.45,10.45,0,0,1-2.84,9.35l-20.53,20.7A10.45,10.45,0,0,1,442.57,602.48Zm227.61,0L648.46,580.6a10.45,10.45,0,0,1-.89-13.69l38.75-50.81a10.45,10.45,0,0,1,17.55,1.47L723,553.84a10.47,10.47,0,0,1-1.83,12.23L685,602.52A10.45,10.45,0,0,1,670.18,602.52ZM732.7,535.1l-50.24-95.43a7.24,7.24,0,0,1,6.21-10.61l8.05-.21a10.44,10.44,0,0,1,7.7,3.09l67.52,68.16a10.44,10.44,0,0,1,0,14.71l-22.57,22.78A10.45,10.45,0,0,1,732.7,535.1Z" transform="translate(-104.16 -269)"/></svg>