<svg xmlns="http://www.w3.org/2000/svg" viewBox="0 0 45.21 44.43"><defs><clipPath id="a"><path d="M0 595.3h841.9V0H0z"/></clipPath><clipPath id="b"><path d="M38.26 150.3H803.9v239H38.26z"/></clipPath></defs><g clip-path="url(#a)" transform="matrix(.3527 0 0 -.3527 -166.83 84.247)"><path d="M584.7 148.4l-47.6-27.48v18.325l31.73 18.315v54.96l15.87-9.16zm-45.72 35.7h2.27l11.56-11.16v11.15h2.99v-16.44h-2.27l-11.57 11.29V167.7h-2.99v16.44zm-7.26-16.44l-1.72 3.59h-9.07l-1.66-3.59h-3.32l8.1 16.44h3.2l8.2-16.44zm-19.28 0h-2.27l-11.57 11.29v-11.24h-2.99v16.44h2.28l11.55-11.16v11.15h2.99V167.7zm24.66 72.3l-55.5-32.04v-64.081l55.5-32.039 55.506 32.039v64.081z" fill="#0c2342"/><path d="M522.4 174.2h6.266l-3.086 6.69z" fill="#0c2342"/></g></svg>