<svg xmlns="http://www.w3.org/2000/svg" xmlns:xlink="http://www.w3.org/1999/xlink" viewBox="0 0 567 567"><defs><style>.cls-1{fill:url(#a);}.cls-2{fill:#fff;}</style><linearGradient id="a" x1="87.63" y1="479.37" x2="488.56" y2="78.44" gradientUnits="userSpaceOnUse"><stop offset="0" stop-color="#2c1f9b"/><stop offset="1" stop-color="#5844f1"/></linearGradient></defs><g id="Layer_2" data-name="Layer 2"><g id="LOGO"><circle id="BG" class="cls-1" cx="283.5" cy="283.5" r="283.5"/><path id="Left" class="cls-2" d="M336.76,220,147.92,111a14.9,14.9,0,0,0-8.92-3c-.24,0-.48,0-.72,0A14.92,14.92,0,0,0,124,125.66V443a15.55,15.55,0,0,0,22.87,13.49l95.26-55a15,15,0,1,0-15-26L154,417.73V149.13L321.76,246a15,15,0,0,0,20.49-5.49h0A15,15,0,0,0,336.76,220Z"/><path id="Right" class="cls-2" d="M230.24,346.48l188.84,109a14.9,14.9,0,0,0,8.92,3c.24,0,.48,0,.72,0A14.92,14.92,0,0,0,443,440.83V123.49A15.55,15.55,0,0,0,420.13,110l-95.26,55a15,15,0,0,0,15,26L413,148.75v268.6L245.24,320.49a15,15,0,0,0-20.49,5.5h0A15,15,0,0,0,230.24,346.48Z"/></g></g></svg>