<svg width="288" height="288" viewBox="0 0 288 288" fill="none" xmlns="http://www.w3.org/2000/svg">
<circle cx="144" cy="144" r="144" fill="white"/>
<path d="M148.62 109C160.66 109 169.9 113 176.34 121C182.78 128.86 186 140.298 186 155.316V205H165.84V155.316C165.84 145.912 164.23 138.965 161.01 134.474C157.79 129.842 152.4 127.526 144.84 127.526C138.54 127.526 133.15 130.193 128.67 135.526C124.33 140.719 122.16 147.596 122.16 156.158V205H102V110.684H122.16V122.474C123.98 118.965 127.2 115.877 131.82 113.211C136.44 110.404 142.04 109 148.62 109Z" fill="#111111"/>
<rect x="102" y="75" width="84" height="20" fill="#FF001F"/>
</svg>
