<svg width="339" height="49" viewBox="0 0 339 49" fill="none" xmlns="http://www.w3.org/2000/svg">
<path d="M27.1301 26.6925L8.34773 0.258026H0V48.9531H11.1303V22.5186L29.9127 48.9531H38.2604V0.258026H27.1301V26.6925Z" fill="#111827"/>
<path d="M63.9938 29.6142H81.3849V19.0404H63.9938V10.971H83.1241V0.258026H52.8635V48.9531H83.4719V38.2402H63.9938V29.6142Z" fill="#111827"/>
<path d="M139.822 48.9531L123.265 0.258026H109.074L92.518 48.9531H104.692L107.127 41.301H125.213L127.648 48.9531H139.822ZM116.17 12.9883L121.874 30.8664H110.466L116.17 12.9883Z" fill="#111827"/>
<path d="M187.8 48.9531L177.434 31.0751C182.791 28.2925 186.408 22.8665 186.408 16.9535C186.408 12.2927 184.808 8.39707 181.539 5.12754C178.269 1.85801 174.374 0.258026 169.713 0.258026H150.235V48.9531H161.365V32.9533H166.652L175.834 48.9531H187.8ZM169.713 10.6927C172.774 10.6927 175.278 13.4057 175.278 16.9535C175.278 20.5013 172.774 23.2143 169.713 23.2143H161.365V10.6927H169.713Z" fill="#111827"/>
<path d="M200.685 0.258026V48.9531H205.555V30.8664H218.076C222.459 30.8664 226.076 29.4055 228.998 26.4838C231.92 23.5621 233.381 19.9448 233.381 15.5622C233.381 11.1796 231.92 7.56229 228.998 4.64059C226.076 1.71888 222.459 0.258026 218.076 0.258026H200.685ZM205.555 26.2751V4.84928H218.076C221.068 4.84928 223.572 5.89275 225.52 7.91011C227.537 9.92748 228.511 12.4318 228.511 15.5622C228.511 18.6926 227.537 21.2665 225.52 23.2839C223.572 25.3012 221.068 26.2751 218.076 26.2751H205.555Z" fill="#111827"/>
<path d="M280.652 48.9531L261.939 0.258026H256.93L238.217 48.9531H243.365L247.887 36.988H270.982L275.504 48.9531H280.652ZM259.435 6.31013L269.243 32.3968H249.626L259.435 6.31013Z" fill="#111827"/>
<path d="M314.419 44.908H296.59V4.09204H314.419C325.721 4.09204 334.782 13.2707 334.782 24.5C334.782 35.8269 325.721 44.908 314.419 44.908Z" fill="#C7D2FE"/>
<path fill-rule="evenodd" clip-rule="evenodd" d="M292.498 49V0H314.419C328.002 0 338.874 11.0321 338.874 24.5C338.874 38.0783 327.99 49 314.419 49H292.498ZM314.419 44.908C325.721 44.908 334.782 35.8269 334.782 24.5C334.782 13.2707 325.721 4.09202 314.419 4.09202H296.59V44.908H314.419Z" fill="#111827"/>
<path d="M306.138 44.908H296.59V4.09204H306.138C317.439 4.09204 326.5 13.2707 326.5 24.5C326.598 35.8269 317.439 44.908 306.138 44.908Z" fill="#818CF8"/>
<path d="M296.979 44.908H296.59V4.09204H296.979C308.281 4.09204 317.342 13.2707 317.342 24.5C317.342 35.8269 308.184 44.908 296.979 44.908Z" fill="#4F46E5"/>
</svg>
