<?xml version="1.0" encoding="UTF-8"?>
<svg width="30px" height="30px" viewBox="0 0 30 30" version="1.1" xmlns="http://www.w3.org/2000/svg" xmlns:xlink="http://www.w3.org/1999/xlink">
    <title>Neumark (NEU)</title>
    <g id="regstration_ledger_choose_wallet" stroke="none" stroke-width="1" fill="none" fill-rule="evenodd" transform="translate(-792.000000, -479.000000)">
        <g id="nEUR_icon" transform="translate(792.000000, 479.000000)">
            <circle id="Oval" fill="#D5E20F" cx="15" cy="15" r="15"></circle>
            <path d="M6.99793333,10.6747419 L6.99793333,20.6431658 L15.4125789,25.6277322 L23.8279333,20.6431658 L23.8279333,10.6747419 L15.4125789,5.68946667 L6.99793333,10.6747419 Z M11.4381102,8.99904295 L11.6082319,8.89767876 L15.4125789,6.64498366 L19.3835033,8.99549875 L19.3835033,21.5483551 L11.4381102,8.99904295 Z M20.0944704,9.41725884 L23.0219816,11.1510827 L23.0219816,20.1654073 L20.0944704,21.9006488 L20.0944704,9.41725884 Z M7.80388498,20.1654073 L7.80388498,11.1510827 L10.6420823,9.47042188 L10.6420823,21.8474858 L7.80388498,20.1654073 Z M11.3523405,22.2678282 L11.3523405,10.2019453 L19.1219412,22.4755185 L15.4125789,24.672924 L11.3523405,22.2678282 Z" id="Fill-6" fill="#1E3038"></path>
        </g>
    </g>
</svg>