<?xml version="1.0"?>
<svg width="331" height="283" xmlns="http://www.w3.org/2000/svg" xmlns:svg="http://www.w3.org/2000/svg">
 <g class="layer">
  <title>Layer 1</title>
  <path d="m331.4,91.7l-35.6,0c-19.6,-54.3 -72.3,-91.7 -141.8,-91.7l-114.3,0l0,91.7l-39.7,0l0,32.9l39.7,0l0,34.5l-39.7,0l0,32.9l39.7,0l0,90.6l114.3,0c68.7,0 121,-37 141.1,-90.6l36.3,0l0,-32.9l-28.3,0c0.7,-5.8 1,-11.8 1,-17.8l0,-0.8c0,-5.4 -0.3,-10.7 -0.8,-15.9l28.1,0l0,-32.9zm-259.7,-62.3l82.3,0c51,0 88.9,25.1 106.4,62.3l-188.7,0l0,-62.3zm82.3,223.7l-82.3,0l0,-61.1l188.5,0c-17.7,36.6 -55.4,61.1 -106.2,61.1zm117.1,-111c0,5.8 -0.4,11.5 -1.2,17l-198.2,0l0,-34.5l198.3,0c0.7,5.4 1.1,11 1.1,16.7l0,0.8z" fill="#f4b731" id="svg_1"/>
 </g>
</svg>
