<?xml version="1.0" encoding="UTF-8" standalone="no"?>
<svg
        xmlns="http://www.w3.org/2000/svg"
        id="svg18"
        version="1.1"
        fill="none"
        viewBox="0 0 64 64"
        height="64"
        width="64">
    <metadata
            id="metadata24">
    </metadata>
    <defs
            id="defs22" />
    <rect
            id="rect2"
            fill="none"
            height="64"
            width="64" />
    <path
            id="path4"
            fill="#2853C3"
            d="M42.1634 14.0009L52.1572 19.762C52.2774 19.8351 52.3773 19.9373 52.4478 20.0591C52.5182 20.1809 52.5569 20.3185 52.5604 20.4591L52.5523 43.9862L42.5654 49.7482C42.4377 49.8219 42.2928 49.8607 42.1454 49.8607C41.998 49.8607 41.8531 49.8219 41.7254 49.7482L31.7586 43.9942L21.3901 49.9838V50L11.4032 44.238C11.2794 44.1626 11.1772 44.0565 11.1065 43.9299C11.0359 43.8033 10.9992 43.6606 11 43.5157V19.9981L20.9869 14.2361C21.1067 14.1617 21.2449 14.1222 21.3859 14.1222C21.5269 14.1222 21.6651 14.1617 21.7848 14.2361L42.1618 25.9952L52.1572 19.762L42.1619 25.9938L31.773 19.9973L42.1619 14.0009V14L42.1626 14.0004L42.1634 14V14.0009Z"
            clip-rule="evenodd"
            fill-rule="evenodd" />
    <path
            id="path6"
            fill="#60BEFF"
            d="M11 19.9973V43.5156C10.9992 43.6606 11.0359 43.8033 11.1065 43.9299C11.1772 44.0565 11.2794 44.1626 11.4032 44.238L21.3901 50V25.9777L11 19.9973Z" />
    <path
            id="path8"
            fill="#1A4199"
            d="M42.1641 14L52.1594 19.762C52.2796 19.8351 52.3795 19.9373 52.45 20.0591C52.5204 20.1809 52.5591 20.3185 52.5625 20.4591V43.9775L42.1641 37.9887V14Z" />
    <path
            id="path10"
            fill="#3CA9E5"
            d="M21.3906 49.9839L31.7726 43.9866L21.3906 37.9893V49.9839Z" />
    <path
            id="path12"
            fill="#3CA9E5"
            d="M21.7848 14.2359L42.1618 25.9951V37.9894L11 19.9979L20.9869 14.2359C21.1067 14.1615 21.2449 14.1221 21.3859 14.1221C21.5269 14.1221 21.6651 14.1615 21.7848 14.2359V14.2359Z" />
    <path
            id="path14"
            fill="#2853C3"
            d="M42.1638 14L31.7734 19.9973L42.1638 25.9947V14Z" />
    <path
            id="path16"
            fill="#2853C3"
            d="M52.5548 43.9861L42.5679 49.7481C42.4402 49.8218 42.2954 49.8606 42.1479 49.8606C42.0005 49.8606 41.8556 49.8218 41.7279 49.7481L21.3594 37.9889V25.9778L52.5548 43.9861Z" />
</svg>
