<?xml version="1.0" encoding="utf-8"?>
<!-- Generator: Adobe Illustrator 25.0.0, SVG Export Plug-In . SVG Version: 6.00 Build 0)  -->
<svg version="1.1" id="Layer_1" xmlns="http://www.w3.org/2000/svg" xmlns:xlink="http://www.w3.org/1999/xlink" x="0px" y="0px"
	 viewBox="0 0 595.28 595.28" style="enable-background:new 0 0 595.28 595.28;" xml:space="preserve">
<style type="text/css">
	.st0{fill:#191919;}
	.st1{fill:#FFC209;}
</style>
<g>
	<ellipse class="st0" cx="297.64" cy="297.64" rx="232.04" ry="232.82"/>
	<g>
		<g>
			<g>
				<g>
					<polygon class="st1" points="371.72,203.3 398.2,156.4 426.54,203.48 398.9,187.77 					"/>
					<polygon class="st1" points="371.72,203.3 398.9,187.77 399.03,187.84 398.01,156.74 					"/>
					<polygon class="st1" points="398.2,156.4 398.01,156.74 399.03,187.84 426.54,203.48 					"/>
				</g>
			</g>
			<g>
				<path class="st1" d="M195.97,434.7V157.09v-0.35v-0.35l230.57,208.03v70.27L242.08,268.07V434.7H195.97z"/>
			</g>
			<g>
				<g>
					<path class="st1" d="M392,282.92c-1.82,0-3.29-1.48-3.29-3.3v-50.88c0-1.82,1.47-3.3,3.29-3.3s3.29,1.48,3.29,3.3v50.88
						C395.29,281.44,393.82,282.92,392,282.92z"/>
				</g>
				<g>
					<path class="st1" d="M406.26,282.92c-1.82,0-3.29-1.48-3.29-3.3v-50.88c0-1.82,1.47-3.3,3.29-3.3s3.29,1.48,3.29,3.3v50.88
						C409.55,281.44,408.08,282.92,406.26,282.92z"/>
				</g>
			</g>
		</g>
	</g>
</g>
</svg>
