<svg xmlns="http://www.w3.org/2000/svg" xmlns:xlink="http://www.w3.org/1999/xlink" viewBox="0 0 73.7 85.04"><defs><style>.cls-1{fill:none;}.cls-2{clip-path:url(#clip-path);}.cls-3{fill:url(#linear-gradient);}.cls-4{clip-path:url(#clip-path-2);}.cls-5{fill:url(#linear-gradient-2);}.cls-6{clip-path:url(#clip-path-3);}.cls-7{clip-path:url(#clip-path-4);}.cls-8{fill:url(#linear-gradient-4);}.cls-9{clip-path:url(#clip-path-5);}.cls-10{fill:url(#linear-gradient-5);}</style><clipPath id="clip-path" transform="translate(0 0)"><polygon class="cls-1" points="10.51 59.35 29.25 69.95 29.25 78.74 3.72 64.32 3.72 61.2 3.72 26.04 3.72 22.92 8.77 20.07 6.91 16.92 0 20.82 0 26.04 0 61.2 0 66.41 32.97 85.04 32.97 67.85 12.37 56.21 10.51 59.35"/></clipPath><linearGradient id="linear-gradient" x1="-28.35" y1="113.39" x2="-27.35" y2="113.39" gradientTransform="matrix(0, 118.71, 118.71, 0, -13443.01, 3359.25)" gradientUnits="userSpaceOnUse"><stop offset="0" stop-color="#35b7ea"/><stop offset="0.13" stop-color="#35b7ea"/><stop offset="1" stop-color="#304ba0"/></linearGradient><clipPath id="clip-path-2" transform="translate(0 0)"><polygon class="cls-1" points="36.86 4.2 58.23 16.28 60.09 13.13 36.86 0 13.63 13.12 15.49 16.27 36.86 4.2"/></clipPath><linearGradient id="linear-gradient-2" x1="-28.35" y1="113.39" x2="-27.35" y2="113.39" gradientTransform="matrix(0, 118.71, 118.71, 0, -13422.63, 3359.25)" xlink:href="#linear-gradient"/><clipPath id="clip-path-3" transform="translate(0 0)"><polygon class="cls-1" points="36.86 17.23 58.23 29.31 60.09 26.16 36.86 13.04 13.63 26.16 15.49 29.31 36.86 17.23"/></clipPath><clipPath id="clip-path-4" transform="translate(0 0)"><polygon class="cls-1" points="66.79 16.92 64.93 20.07 69.98 22.92 69.98 26.04 69.98 61.2 69.98 64.32 44.45 78.74 44.45 69.95 63.4 59.24 61.54 56.09 40.73 67.85 40.73 85.04 73.7 66.41 73.7 61.2 73.7 26.04 73.7 20.82 66.79 16.92"/></clipPath><linearGradient id="linear-gradient-4" x1="-28.35" y1="113.39" x2="-27.35" y2="113.39" gradientTransform="matrix(0, 118.71, 118.71, 0, -13402.28, 3359.25)" xlink:href="#linear-gradient"/><clipPath id="clip-path-5" transform="translate(0 0)"><path class="cls-1" d="M33.65,50.42a3.27,3.27,0,0,1-.44,0s-.09-.05-.09-.09a2,2,0,0,1-.06-.42c0-.7,0-1.4,0-2.09s0-1.3,0-2a2.83,2.83,0,0,1,0-.29.3.3,0,0,1,.19-.19h7a2.72,2.72,0,0,1,1,.15,2.33,2.33,0,0,1,1.58,2.07,3.12,3.12,0,0,1-.11,1.21,2.4,2.4,0,0,1-2.18,1.66H33.65m0-9.6a3.13,3.13,0,0,1-.43,0,.17.17,0,0,1-.1-.1,2.21,2.21,0,0,1,0-.35c0-.63,0-1.25,0-1.88s0-1.06,0-1.58a2,2,0,0,1,0-.43.17.17,0,0,1,.14-.15l.37,0h6.19a2.24,2.24,0,0,1,1.65.65A1.93,1.93,0,0,1,42,38.2q0,.36,0,.72a2.07,2.07,0,0,1-1.76,1.86c-.24,0-.49,0-.73,0h-5.9M30,29.32h-.29a.26.26,0,0,0-.22.25c0,.41,0,.82,0,1.23,0,.23,0,.48,0,.72a.26.26,0,0,1-.25.22l-.59,0H26.85a2.09,2.09,0,0,0-.43,0,.26.26,0,0,0-.16.13.49.49,0,0,0,0,.21V35.9a.49.49,0,0,0,0,.21.15.15,0,0,0,.09.11,1.55,1.55,0,0,0,.29,0h1.26a1.47,1.47,0,0,1,.36,0,.18.18,0,0,1,.13.15,3.64,3.64,0,0,1,0,.57v9.23c0,.22,0,.43,0,.65v.93c0,.12,0,.24,0,.36v1.65a2.71,2.71,0,0,1,0,.29.27.27,0,0,1-.27.28h-1l-.66,0a.23.23,0,0,0-.23.23c0,.12,0,.24,0,.36v3.25c0,.14,0,.29,0,.43a.26.26,0,0,0,.2.18,3.25,3.25,0,0,0,.44,0h1.7l.59,0a.25.25,0,0,1,.28.26c0,.29,0,.57,0,.86s0,.43,0,.65a.2.2,0,0,0,.19.18l.37,0h3.46c.13,0,.25,0,.37,0a.23.23,0,0,0,.19-.19c0-.12,0-.24,0-.36,0-.31,0-.62,0-.94a.89.89,0,0,1,0-.28.29.29,0,0,1,.14-.15.49.49,0,0,1,.21,0h.74c.51,0,.54.09.55.55s0,.67,0,1,0,.44.48.45H40c.23,0,.33-.09.33-.29s0-.58,0-.87,0-.38,0-.57a.28.28,0,0,1,.24-.24l.51,0a6.9,6.9,0,0,0,6.15-5.22,7.08,7.08,0,0,0-1-5.74l-.12-.18L45.61,43a2.15,2.15,0,0,1-.23-.28.15.15,0,0,1,0-.13c.09-.17.19-.34.29-.5a6.06,6.06,0,0,0,.84-2.06,7.67,7.67,0,0,0,.06-2.66,6.5,6.5,0,0,0-1.48-3.25A6.72,6.72,0,0,0,41,31.85c-.61-.1-.6-.08-.6-.74V29.75a1.35,1.35,0,0,0,0-.29.19.19,0,0,0-.1-.1,1.35,1.35,0,0,0-.29,0H36.24a.73.73,0,0,0-.29,0,.24.24,0,0,0-.14.14,1.34,1.34,0,0,0,0,.35c0,.46,0,.92,0,1.37a1.46,1.46,0,0,1,0,.36.29.29,0,0,1-.15.14.33.33,0,0,1-.14,0h-1a.3.3,0,0,1-.31-.33c0-.43,0-.87,0-1.3,0-.19,0-.38,0-.57a.26.26,0,0,0-.24-.23H30"/></clipPath><linearGradient id="linear-gradient-5" x1="-28.35" y1="113.39" x2="-27.35" y2="113.39" gradientTransform="matrix(0, 118.71, 118.71, 0, -13422.63, 3359.25)" xlink:href="#linear-gradient"/></defs><title>Asset 1</title><g id="Layer_2" data-name="Layer 2"><g id="Layer_1-2" data-name="Layer 1"><g class="cls-2"><rect class="cls-3" y="16.92" width="32.97" height="68.12"/></g><g class="cls-4"><rect class="cls-5" x="13.63" width="46.45" height="16.28"/></g><g class="cls-6"><rect class="cls-5" x="13.63" y="13.04" width="46.45" height="16.28"/></g><g class="cls-7"><rect class="cls-8" x="40.73" y="16.92" width="32.97" height="68.12"/></g><g class="cls-9"><rect class="cls-10" x="26.23" y="29.31" width="21.51" height="27.6"/></g></g></g></svg>