<?xml version="1.0" standalone="no"?>
<!DOCTYPE svg PUBLIC "-//W3C//DTD SVG 20010904//EN"
 "http://www.w3.org/TR/2001/REC-SVG-20010904/DTD/svg10.dtd">
<svg version="1.0" xmlns="http://www.w3.org/2000/svg"
 width="890.000000pt" height="676.000000pt" viewBox="0 0 890.000000 676.000000"
 preserveAspectRatio="xMidYMid meet">
<metadata>
Created by potrace 1.16, written by Peter Selinger 2001-2019
</metadata>
<g transform="translate(0.000000,676.000000) scale(0.100000,-0.100000)"
fill="#000000" stroke="none">
<path d="M4433 6743 c-180 -3 -213 -6 -213 -18 0 -20 -10 -19 -26 3 -13 16
-15 16 -28 -1 -10 -13 -15 -14 -18 -5 -7 20 -257 -12 -566 -73 -28 -6 -59 -17
-67 -25 -8 -9 -19 -13 -24 -10 -23 15 -530 -182 -618 -240 -12 -8 -46 -23 -75
-34 -29 -11 -76 -37 -104 -59 -28 -21 -73 -51 -100 -67 -201 -116 -379 -259
-587 -474 -112 -116 -171 -170 -176 -162 -8 14 -51 -35 -94 -108 -14 -25 -35
-50 -46 -57 -29 -18 -103 -147 -95 -167 4 -12 2 -15 -9 -10 -10 4 -26 -10 -48
-42 -38 -56 -189 -358 -189 -379 0 -8 -4 -15 -9 -15 -12 0 -47 -85 -65 -160
-8 -36 -30 -110 -48 -165 l-33 -100 -50 -6 c-35 -5 -57 -2 -72 7 -12 8 -47 14
-77 14 -31 0 -58 5 -62 12 -9 14 -314 3 -361 -14 -25 -9 -44 -9 -73 -1 -37 9
-42 8 -58 -13 -15 -21 -22 -22 -54 -15 -82 19 -142 -23 -95 -67 28 -25 91 -34
242 -37 66 -1 176 -5 244 -10 90 -5 122 -4 117 4 -4 6 -2 11 3 11 6 0 11 -5
11 -11 0 -7 16 -8 46 -3 31 4 49 3 53 -5 5 -8 16 -8 37 -1 19 7 40 7 55 2 26
-10 54 -9 83 3 13 6 23 3 32 -9 9 -13 24 -17 53 -15 22 2 43 0 47 -4 11 -11
96 -8 89 2 -10 17 82 24 136 11 33 -8 54 -9 58 -3 3 6 56 13 116 17 61 4 129
8 153 10 23 2 45 -1 48 -5 8 -14 82 -11 88 4 5 10 7 10 12 0 8 -18 44 -16 44
2 0 18 21 20 38 3 9 -9 12 -9 12 0 0 7 5 12 10 12 6 0 10 -7 10 -15 0 -12 16
-14 98 -11 53 3 105 8 115 12 10 4 42 1 71 -6 28 -7 77 -11 109 -9 31 2 58 1
60 -3 3 -10 47 2 47 13 0 5 -4 9 -10 9 -5 0 -10 5 -10 10 0 13 60 13 80 0 8
-5 11 -12 7 -16 -3 -4 -13 -1 -21 5 -16 14 -40 6 -31 -10 4 -5 36 -9 73 -9 37
0 85 -5 106 -11 33 -9 41 -8 48 5 12 21 37 20 89 -3 30 -14 47 -17 55 -10 8 7
26 6 55 -1 32 -9 44 -9 49 1 4 6 32 13 61 14 30 1 67 7 82 14 16 6 26 7 22 1
-3 -5 11 -12 32 -15 21 -3 45 -10 53 -14 8 -5 56 -5 105 0 139 12 148 11 141
-7 -5 -12 -1 -14 17 -7 12 4 37 6 55 5 87 -6 120 -6 152 2 32 8 34 7 20 -9
-14 -16 -12 -17 20 -10 19 4 40 11 46 16 13 10 191 5 218 -6 16 -7 18 -5 13 8
-5 14 0 17 26 17 18 0 38 -5 45 -12 9 -9 17 -9 36 1 19 11 28 11 47 0 36 -19
183 -22 227 -3 30 12 41 13 60 3 17 -10 25 -10 34 -1 7 7 27 12 46 12 28 0 33
-3 28 -16 -6 -15 0 -16 46 -10 130 16 180 19 186 9 4 -6 25 -13 47 -17 37 -7
39 -6 20 8 -25 20 -5 20 47 2 30 -11 43 -11 75 1 36 13 68 12 106 -2 13 -6 16
-3 11 10 -6 15 1 16 87 10 62 -4 89 -3 80 3 -9 7 8 8 52 5 71 -6 121 2 112 17
-4 6 6 5 22 -1 15 -6 54 -13 87 -14 32 -2 62 -8 65 -14 4 -7 21 -7 50 0 29 6
46 6 50 0 4 -6 23 -2 50 10 52 23 77 24 89 3 7 -13 15 -14 55 -3 30 7 95 9
184 6 84 -3 157 -1 187 6 42 10 49 9 58 -6 7 -14 17 -16 46 -11 20 4 42 11 49
16 7 6 43 7 87 3 60 -6 77 -4 81 6 7 18 71 18 68 1 -2 -7 8 -12 23 -12 14 0
23 4 19 10 -3 6 -1 10 4 10 6 0 11 -5 11 -11 0 -7 16 -9 48 -5 76 9 101 10
217 2 61 -4 120 -12 131 -18 15 -7 38 -7 77 2 60 12 131 5 120 -13 -4 -7 16
-8 63 -4 38 4 84 7 102 7 22 0 32 5 32 15 0 15 21 20 34 8 10 -10 48 -11 77
-1 16 5 36 5 54 -2 21 -8 30 -8 36 1 5 8 22 10 53 6 28 -4 46 -3 46 3 0 6 5
10 11 10 5 0 7 -5 3 -11 -5 -9 25 -10 112 -4 66 4 175 9 244 10 170 4 224 13
250 40 43 46 -18 85 -98 63 -29 -8 -35 -6 -53 16 -17 22 -24 24 -41 15 -11 -6
-36 -8 -57 -5 -129 23 -385 33 -396 16 -3 -5 -30 -10 -60 -10 -30 0 -57 -4
-60 -10 -8 -13 -119 -13 -166 0 -40 11 -43 18 -140 295 -22 61 -49 130 -62
155 -57 109 -160 286 -173 296 -8 6 -14 16 -14 21 0 18 -108 195 -157 260
-105 135 -298 356 -314 360 -10 3 -21 13 -24 23 -5 15 -61 71 -135 134 -53 46
-244 186 -328 240 -56 36 -105 73 -111 83 -21 40 -468 261 -537 266 -19 1 -34
7 -34 13 0 10 -132 50 -293 88 -37 8 -79 24 -95 35 -33 25 -146 51 -188 44
-18 -3 -44 2 -62 11 -61 32 -222 43 -539 39z m517 -52 c52 -10 99 -17 103 -14
4 3 13 1 20 -4 18 -14 95 -41 151 -53 27 -6 54 -17 60 -24 6 -8 32 -21 59 -31
26 -10 47 -22 47 -26 0 -12 -72 -11 -103 0 -22 9 -82 23 -212 51 -22 5 -48 12
-57 15 -14 6 -18 2 -19 -16 -2 -22 -2 -22 -6 -3 -6 32 -45 44 -188 60 -142 16
-212 28 -223 38 -31 31 221 36 368 7z m-512 -196 c266 -2 322 -6 422 -25 216
-41 489 -117 595 -165 28 -13 70 -30 95 -38 53 -18 144 -59 162 -74 7 -6 36
-18 63 -27 28 -9 70 -35 95 -57 25 -22 83 -60 130 -85 80 -41 219 -140 220
-156 0 -5 -7 -8 -17 -8 -9 0 -13 3 -10 7 21 20 -428 283 -455 267 -6 -4 -8 -3
-5 3 11 18 -372 172 -459 186 -10 1 -23 5 -29 9 -13 8 -274 65 -300 66 -11 0
-38 5 -60 10 -184 47 -757 42 -979 -8 -22 -5 -44 -7 -48 -4 -4 3 -8 2 -8 -3 0
-4 -15 -9 -33 -10 -52 -4 -189 -41 -197 -53 -4 -6 -13 -8 -22 -5 -8 3 -28 1
-44 -6 -16 -6 -54 -17 -84 -25 -106 -28 -374 -144 -450 -194 -8 -6 -26 -14
-40 -20 -14 -5 -32 -14 -40 -19 -8 -5 -44 -26 -80 -47 -89 -51 -323 -218 -373
-265 -22 -22 -43 -39 -47 -39 -14 0 -258 -252 -335 -345 -214 -261 -395 -572
-505 -870 l-42 -113 -47 -4 c-25 -3 -49 -3 -52 -1 -4 1 11 51 33 110 22 60 48
128 57 153 9 25 19 47 22 50 3 3 33 59 66 125 72 144 100 196 136 252 15 24
27 49 27 58 0 8 4 15 8 15 4 0 26 26 49 58 22 31 89 113 148 182 59 68 114
134 122 147 12 19 144 143 289 273 21 20 71 57 109 83 39 26 86 61 107 79 38
35 196 132 332 204 279 148 623 257 991 314 39 6 86 14 105 19 19 5 43 7 53 4
10 -3 157 -6 325 -8z m209 -106 c159 -13 333 -40 486 -78 96 -23 117 -25 117
-13 0 10 5 9 18 -6 14 -17 205 -92 234 -92 4 0 8 8 9 18 1 12 3 10 7 -6 5 -17
32 -34 107 -68 55 -25 152 -73 215 -107 63 -34 120 -61 127 -59 7 2 13 -3 13
-10 0 -7 39 -38 87 -68 78 -50 181 -128 307 -234 26 -21 50 -36 53 -32 4 4 1
11 -7 16 -11 7 -12 11 0 24 7 9 10 20 6 23 -4 4 -11 1 -15 -6 -6 -10 -10 -10
-16 -1 -4 6 -4 14 -1 17 3 3 1 12 -5 20 -21 25 7 13 34 -15 19 -19 25 -34 20
-50 -4 -18 -1 -22 16 -22 11 0 21 -4 21 -9 0 -5 -7 -8 -16 -7 -37 3 -20 -24
73 -115 196 -192 372 -433 515 -705 90 -172 138 -290 138 -343 0 -22 4 -42 9
-46 6 -3 9 -14 8 -24 -2 -29 -127 -37 -514 -33 l-171 2 -66 118 c-138 245
-164 284 -290 429 -155 180 -275 288 -309 279 -9 -2 -14 0 -11 5 9 15 -14 37
-96 92 -41 27 -88 62 -105 77 -79 73 -508 257 -577 247 -15 -2 -29 -1 -30 2
-8 17 -106 53 -156 57 l-57 5 85 -27 c47 -14 92 -30 100 -35 8 -5 32 -17 53
-26 20 -9 37 -19 37 -23 0 -9 -26 -4 -235 43 -88 19 -195 40 -238 45 -73 9
-96 16 -86 26 2 2 37 6 76 8 73 3 101 17 41 19 -96 4 -452 -4 -508 -11 -264
-36 -451 -82 -574 -141 -22 -11 -43 -19 -48 -19 -4 0 -59 -25 -122 -55 -62
-30 -116 -55 -118 -55 -10 0 -252 -163 -328 -221 -105 -79 -292 -273 -284
-294 5 -13 1 -15 -24 -10 -28 5 -34 1 -63 -42 -18 -27 -48 -66 -66 -87 -18
-22 -33 -45 -33 -52 0 -8 -15 -30 -32 -50 -18 -21 -62 -96 -98 -168 l-65 -131
-148 0 c-81 0 -147 -3 -147 -7 0 -8 -85 -5 -277 7 -133 9 -130 4 -81 134 72
193 248 512 376 684 156 210 387 447 569 585 50 39 60 51 56 70 -3 12 0 22 6
22 6 0 11 -4 11 -10 0 -18 17 -10 113 53 52 34 116 74 141 89 33 20 46 34 47
50 0 20 1 21 12 6 10 -15 20 -12 106 32 150 75 383 168 491 195 159 39 256 69
268 84 12 15 13 14 8 -2 -4 -14 -2 -17 12 -13 9 3 35 8 57 12 22 4 45 14 52
23 10 12 12 13 13 2 0 -11 11 -12 48 -7 26 4 88 9 137 12 50 3 92 8 94 10 8 8
262 4 388 -7z m2138 -809 c188 -209 361 -466 495 -735 72 -144 180 -422 180
-461 0 -11 -8 -14 -32 -12 -26 2 -37 10 -50 38 l-18 35 6 -38 c6 -36 5 -37
-17 -29 -15 6 -28 24 -37 52 -11 31 -17 39 -24 29 -6 -10 -7 -7 -3 9 11 39
-81 281 -187 492 -96 189 -204 363 -301 484 -49 61 -53 75 -18 57 23 -13 34
-1 24 26 -3 10 -32 47 -62 82 -82 94 -46 70 44 -29z m-2476 -56 c32 -5 42 -4
37 4 -4 7 -1 12 8 12 8 0 16 -4 18 -10 2 -6 26 -6 63 -1 64 8 221 6 247 -4 9
-4 19 -2 23 4 3 6 11 11 16 11 6 0 8 -4 5 -9 -4 -5 8 -12 25 -16 56 -12 26
-22 -163 -50 -21 -3 -38 -11 -38 -17 0 -13 58 -5 160 23 86 23 142 24 200 4
23 -8 44 -14 48 -13 8 2 72 -18 117 -37 17 -7 53 -21 80 -30 28 -10 75 -29
105 -43 52 -23 54 -25 30 -33 -21 -7 -19 -8 11 -5 20 3 41 0 46 -5 5 -5 23
-11 40 -12 17 -1 29 -5 27 -8 -4 -8 44 -53 74 -68 12 -7 20 -16 17 -22 -4 -5
6 -9 20 -9 31 0 62 -20 155 -100 36 -30 82 -66 103 -78 20 -13 37 -28 37 -33
0 -4 7 -6 15 -3 11 4 13 2 10 -9 -4 -9 9 -26 35 -47 22 -18 39 -34 37 -37 -8
-7 54 -63 63 -58 5 3 11 1 14 -4 4 -5 2 -12 -3 -16 -6 -3 -8 -12 -4 -20 4 -11
-2 -15 -23 -15 -16 0 -36 -5 -44 -11 -11 -7 -1 -8 36 -4 50 6 52 6 83 -32 46
-56 46 -56 -54 -69 -33 -4 -51 -9 -39 -11 11 -2 47 0 80 6 57 9 60 8 81 -17
12 -15 24 -37 28 -50 3 -13 19 -42 35 -64 47 -65 44 -69 -70 -82 -19 -2 0 -3
43 -1 76 2 78 2 92 -26 8 -15 15 -30 15 -32 0 -9 -195 5 -213 15 -12 6 -28 4
-50 -7 -23 -12 -84 -19 -222 -27 -251 -15 -274 -14 -314 7 -30 15 -51 16 -168
10 -90 -5 -133 -4 -133 3 0 6 12 13 28 15 39 7 -138 0 -230 -9 -43 -4 -78 -10
-78 -13 0 -6 -510 -7 -520 -2 -3 2 -102 4 -220 5 -128 2 -232 7 -257 15 -31 9
-47 9 -67 0 -19 -9 -29 -9 -39 0 -11 9 -21 8 -43 -4 -24 -13 -51 -15 -151 -9
-107 6 -128 4 -160 -12 -42 -20 -68 -21 -255 -9 -73 5 -125 12 -122 17 4 6
-22 7 -62 3 -53 -5 -76 -3 -98 9 -19 9 -35 12 -45 6 -9 -4 -54 -9 -101 -11
-47 -1 -96 -6 -109 -11 -15 -6 -27 -5 -31 1 -4 7 -18 7 -44 0 -21 -6 -40 -9
-42 -6 -3 2 0 17 6 32 6 16 8 35 5 43 -4 12 -3 12 9 3 10 -8 32 -9 77 -3 l64
10 -57 1 c-32 0 -58 6 -58 11 0 16 51 90 62 90 5 0 7 4 3 10 -5 7 22 57 55
102 3 4 53 13 110 19 100 11 241 37 210 38 -8 1 -63 -6 -122 -15 -58 -8 -121
-14 -138 -12 l-31 3 47 55 c32 37 54 54 67 52 16 -2 17 0 8 12 -10 11 1 27 56
83 149 151 186 181 236 188 26 4 50 12 54 18 4 6 -3 8 -21 3 -15 -4 -26 -2
-26 4 0 5 4 10 8 10 4 0 33 22 63 48 60 53 78 63 129 69 19 2 64 8 100 13 l65
8 -68 -1 c-37 -1 -67 1 -67 5 0 4 35 25 78 47 43 22 84 46 91 55 7 8 18 13 25
10 15 -6 46 21 46 40 0 20 27 40 35 26 3 -5 1 -10 -4 -10 -6 0 -11 -7 -11 -16
0 -18 29 -14 85 11 56 25 223 65 273 65 28 0 52 5 54 10 2 6 37 17 78 25 72
13 112 13 209 -1z m1871 -777 c52 -71 103 -136 113 -145 9 -9 17 -22 17 -30 0
-10 5 -10 20 -2 11 6 20 7 20 1 0 -5 -7 -12 -16 -15 -13 -5 -8 -20 30 -91 44
-80 46 -84 27 -95 -47 -25 -57 -15 -122 113 -64 127 -134 239 -200 319 -41 50
-54 84 -19 53 15 -14 20 -15 20 -4 0 22 -17 42 -29 35 -12 -8 -15 6 -5 17 13
12 51 -29 144 -156z"/>
<path d="M850 4133 c-14 -2 -29 -9 -34 -14 -6 -5 -20 -9 -32 -9 -12 0 -55 -17
-95 -37 -114 -57 -221 -169 -287 -304 -59 -119 -108 -299 -83 -307 11 -4 11
-6 1 -12 -15 -9 -19 -128 -7 -230 11 -101 35 -176 89 -288 90 -185 241 -309
423 -347 41 -8 93 -15 117 -14 57 0 121 12 119 22 -3 18 0 27 9 27 6 0 10 -7
10 -15 0 -8 6 -15 14 -15 20 0 29 17 14 24 -7 3 -1 3 13 0 17 -4 45 4 78 20
45 23 50 29 41 46 -13 24 -13 30 0 30 6 0 10 -9 10 -20 0 -30 10 -25 73 31
163 145 257 379 257 638 0 237 -90 465 -239 610 -64 61 -178 134 -198 126 -7
-2 -13 -1 -13 4 0 23 -206 49 -280 34z m82 -306 c16 -16 108 -38 108 -26 0 5
5 9 10 9 6 0 10 -7 10 -15 0 -8 5 -15 11 -15 5 0 34 -23 63 -50 182 -172 180
-588 -3 -752 -57 -51 -111 -70 -197 -70 -145 1 -255 99 -298 268 -51 200 -11
421 98 542 38 41 110 82 147 82 12 0 23 8 26 20 6 24 8 24 25 7z"/>
<path d="M3065 4122 c-194 -67 -316 -252 -302 -457 7 -110 17 -140 72 -220 50
-74 188 -186 233 -190 10 0 27 -9 37 -19 11 -9 48 -35 82 -57 81 -52 110 -105
95 -176 -9 -38 -8 -51 4 -64 8 -8 14 -21 14 -27 0 -20 -22 -13 -27 8 -7 26 -9
25 -50 -6 -31 -24 -41 -26 -106 -22 -89 4 -175 42 -264 117 l-63 52 -72 -147
-73 -146 29 -23 c16 -13 35 -21 43 -18 9 4 11 0 6 -12 -5 -15 -2 -17 15 -13
13 4 19 2 16 -6 -3 -7 7 -18 21 -24 35 -16 35 -16 36 16 l1 27 7 -25 c4 -14 3
-28 -3 -32 -12 -8 62 -41 137 -62 80 -22 135 -28 143 -15 4 8 9 7 15 -2 6 -10
24 -11 95 -1 203 27 334 142 379 333 19 83 19 192 0 257 -20 67 -96 178 -119
174 -9 -2 -16 1 -15 5 1 4 1 13 0 19 -2 17 -104 85 -216 143 -98 51 -163 101
-184 140 -24 43 -2 123 40 149 29 18 123 42 129 33 3 -4 30 -13 60 -20 30 -8
79 -29 109 -48 29 -19 57 -31 61 -26 12 13 60 131 60 148 0 8 4 15 8 15 4 0
15 21 25 47 16 44 16 47 0 65 -27 30 -180 102 -221 104 -20 1 -50 7 -65 13
-42 16 -135 13 -192 -7z"/>
<path d="M4198 4125 c-94 -24 -224 -97 -211 -118 4 -6 0 -8 -9 -4 -21 7 -111
-86 -166 -172 -87 -133 -135 -331 -128 -518 15 -378 221 -665 521 -728 88 -18
142 -18 230 0 190 40 345 173 440 377 33 73 78 224 74 250 -1 7 1 21 6 32 13
29 -2 265 -20 326 -35 116 -67 197 -95 245 -63 108 -191 232 -233 227 -16 -1
-18 0 -8 7 17 11 0 21 -97 58 -84 31 -220 40 -304 18z m209 -330 c111 -33 200
-155 228 -311 19 -103 18 -164 -1 -265 -16 -87 -46 -156 -88 -207 -15 -16 -26
-35 -26 -41 0 -6 -4 -11 -10 -11 -5 0 -36 -13 -69 -29 -55 -26 -64 -28 -137
-21 -122 10 -198 59 -248 158 -62 122 -79 313 -42 462 52 207 216 318 393 265z"/>
<path d="M1710 3355 l0 -755 82 0 c78 0 80 1 65 18 -18 19 -23 52 -9 52 5 0
15 -15 23 -32 l14 -33 184 -3 c209 -3 271 8 359 61 131 78 199 253 172 439
-20 141 -87 237 -190 275 -65 24 -66 28 -26 63 19 17 50 62 68 98 32 65 33 70
33 197 0 112 -3 137 -21 176 -33 71 -91 128 -164 163 -64 29 -69 30 -254 34
-151 3 -190 2 -198 -9 -7 -11 -11 -11 -15 -1 -3 8 -26 12 -64 12 l-59 0 0
-755z m426 470 c19 -8 43 -29 54 -47 18 -28 20 -44 16 -103 -3 -38 -6 -80 -7
-93 0 -13 -4 -21 -7 -18 -3 3 -20 -4 -39 -15 -19 -12 -58 -23 -93 -26 l-60 -6
0 168 0 168 52 -7 c28 -4 66 -13 84 -21z m91 -631 c50 -37 67 -70 71 -137 6
-87 -12 -125 -79 -170 -30 -20 -56 -32 -59 -27 -3 4 -39 7 -80 7 l-75 -2 -3
129 c-1 71 -7 135 -12 141 -5 6 -5 16 0 25 6 8 10 26 10 39 0 23 0 23 100 19
80 -3 105 -8 127 -24z"/>
<path d="M5090 4010 c0 -89 9 -123 23 -87 3 7 6 5 6 -6 1 -10 -6 -20 -14 -23
-8 -4 -15 -17 -15 -31 0 -18 4 -24 15 -19 8 3 15 1 15 -4 0 -6 -7 -10 -15 -10
-13 0 -15 -80 -15 -615 l0 -615 95 0 c64 0 95 4 95 11 0 8 4 8 13 0 9 -7 95
-10 266 -10 l252 1 -2 149 -1 149 -214 2 -215 3 1 372 0 372 -22 21 c-21 19
-21 21 -4 18 23 -4 28 25 16 90 -4 23 -4 45 1 48 5 3 9 68 9 145 l0 139 -46 0
c-27 0 -43 -4 -39 -10 3 -5 2 -10 -4 -10 -5 0 -12 4 -15 9 -3 5 -47 10 -96 10
l-90 1 0 -100z"/>
<path d="M5960 3895 c0 -161 3 -215 12 -215 9 0 9 -3 0 -12 -7 -7 -12 -39 -12
-73 0 -55 3 -63 29 -85 17 -13 28 -27 25 -31 -7 -12 -43 2 -47 20 -3 9 -5
-190 -6 -442 l-1 -458 115 2 c64 1 112 5 109 10 -3 5 0 9 5 9 6 0 11 -4 11
-10 0 -16 32 -12 52 7 16 15 18 15 18 0 0 -14 23 -16 205 -17 l205 0 1 23 c0
12 2 30 4 40 2 10 -3 17 -13 17 -12 0 -13 3 -4 12 17 17 15 48 -2 48 -17 0
-31 18 -22 27 3 3 12 0 21 -7 13 -11 15 -3 15 64 l0 76 -215 0 -215 0 0 155 0
155 210 0 211 0 -3 148 -3 147 -175 2 c-96 1 -190 2 -207 2 l-33 1 0 65 c0 45
-4 65 -12 65 -10 0 -9 3 0 9 9 5 13 23 12 47 -2 22 -2 56 -1 77 l1 37 65 0
c51 0 66 4 74 18 9 16 10 16 17 -1 5 -13 9 -15 14 -7 5 8 13 9 21 4 20 -12 39
-14 39 -4 0 5 -4 12 -10 15 -12 8 -13 25 -2 25 5 0 14 -11 20 -25 11 -24 15
-25 102 -25 l90 0 1 125 c1 69 2 132 2 140 0 8 -1 20 -2 25 -1 6 -52 10 -133
10 -103 0 -129 -3 -120 -12 16 -16 15 -28 -2 -28 -21 0 -40 27 -24 33 7 3 -6
6 -29 6 -36 1 -43 -2 -43 -18 0 -11 -5 -23 -10 -26 -7 -4 -9 2 -4 19 l6 26
-181 0 -181 0 0 -215z"/>
<path d="M6770 3960 l0 -150 150 0 150 0 0 -237 c1 -131 0 -403 0 -605 l-1
-368 146 0 145 0 0 605 0 605 150 0 150 0 0 150 0 150 -366 0 c-241 0 -363 -3
-359 -10 3 -5 1 -10 -4 -10 -6 0 -11 5 -11 10 0 6 -32 10 -75 10 l-75 0 0
-150z"/>
<path d="M7771 3626 l1 -484 20 6 c14 3 19 1 14 -6 -4 -7 -14 -12 -22 -12 -11
0 -14 -14 -14 -59 0 -63 12 -84 29 -54 9 16 10 16 11 -4 0 -30 10 -54 20 -48
5 3 11 1 15 -4 9 -15 -35 -35 -48 -22 -6 6 -15 11 -19 11 -5 0 -8 -79 -7 -175
l0 -175 360 0 359 0 0 150 0 150 -211 0 c-116 -1 -213 0 -214 2 -6 6 -9 297
-3 303 3 3 96 5 207 5 l201 0 0 151 0 151 -127 -2 c-71 -2 -163 -2 -205 -1
l-78 1 0 150 0 150 215 0 215 0 0 150 0 150 -74 0 c-69 0 -74 -1 -69 -20 3
-11 0 -20 -5 -20 -6 0 -16 9 -22 20 -10 19 -21 20 -280 20 l-269 0 0 -484z"/>
<path d="M515 2519 c-33 -6 -96 -11 -140 -13 -44 -1 -85 -5 -91 -8 -6 -4 -8
-24 -5 -50 l6 -42 55 2 c30 2 67 5 82 8 16 3 30 0 35 -8 14 -23 122 -38 267
-38 117 0 137 -2 133 -15 -5 -11 -1 -12 19 -5 33 13 245 5 273 -9 12 -7 43
-11 68 -10 43 3 46 1 64 -31 10 -19 18 -31 19 -27 0 4 -7 22 -16 38 -18 36
-19 34 26 46 40 11 60 7 60 -12 0 -7 7 -18 15 -25 12 -10 15 -10 15 3 0 10 6
13 21 10 14 -4 17 -8 9 -13 -7 -4 -13 -29 -13 -56 -3 -87 104 -308 290 -600
45 -73 83 -138 83 -146 0 -7 19 -36 43 -63 24 -28 60 -72 81 -100 21 -27 45
-50 54 -50 10 0 17 -8 17 -17 0 -9 36 -55 80 -103 85 -92 332 -312 347 -307 4
1 8 -4 8 -12 0 -21 57 -66 120 -93 30 -14 66 -33 81 -44 15 -10 34 -16 43 -13
11 4 16 1 16 -10 0 -17 2 -18 143 -101 54 -31 96 -59 93 -62 -3 -3 -21 4 -41
16 -46 27 -53 27 -29 -1 25 -28 290 -156 440 -212 66 -24 142 -54 169 -66 44
-19 184 -52 203 -48 4 1 20 -4 35 -10 15 -7 31 -11 35 -10 4 1 14 -1 22 -5 40
-15 120 -23 130 -13 7 7 10 7 10 -1 0 -6 33 -17 72 -23 93 -16 109 -24 79 -39
-23 -13 -73 -6 -231 30 -47 11 -107 21 -135 23 -29 1 -74 14 -108 30 -59 29
-148 52 -247 66 -53 7 -167 49 -298 111 -34 16 -65 29 -70 29 -9 -1 40 -39 51
-40 4 0 26 -9 50 -19 74 -34 371 -149 415 -160 23 -7 47 -9 52 -6 5 3 48 -8
95 -25 152 -52 469 -96 760 -106 163 -5 202 -9 212 -22 11 -13 28 -14 137 -4
68 7 137 17 153 23 16 6 52 8 86 4 40 -4 57 -3 57 6 0 6 8 9 20 6 27 -7 342
52 355 67 6 6 19 10 31 8 11 -2 83 22 159 53 160 64 161 65 145 75 -12 8 111
71 215 110 100 37 197 86 253 126 30 22 93 68 140 103 48 36 112 77 143 92 66
32 169 128 169 157 0 11 -7 22 -15 26 -19 7 -19 40 0 56 9 8 15 9 15 2 0 -6
-5 -14 -10 -17 -6 -3 -10 -11 -10 -16 0 -6 5 -7 10 -4 6 3 10 -1 10 -9 0 -8 5
-18 10 -21 12 -7 250 223 250 242 0 7 7 13 15 13 33 0 164 142 213 231 11 20
67 100 125 178 118 158 197 299 252 446 20 55 45 118 55 140 10 22 29 75 41
118 21 72 24 77 50 77 15 0 40 5 56 11 39 15 249 22 273 9 16 -9 20 -8 20 5 0
13 21 15 138 16 131 0 230 13 262 34 8 5 49 8 91 6 l77 -3 4 39 c7 50 -6 65
-47 57 -17 -3 -91 2 -164 11 -73 10 -161 15 -195 12 -112 -10 -221 -28 -224
-38 -5 -13 -59 -11 -147 6 -58 11 -89 12 -123 4 -66 -15 -254 -9 -248 8 7 17
-9 17 -23 -1 -9 -10 -51 -16 -154 -21 -312 -14 -573 -19 -588 -10 -4 3 -77 5
-163 6 -86 0 -158 4 -161 9 -7 11 -195 15 -260 6 -11 -2 -26 -4 -33 -5 -7 0
-10 -6 -7 -11 8 -13 -8 -13 -21 0 -13 13 -82 14 -289 3 -103 -6 -184 -6 -205
0 -38 10 -110 4 -119 -11 -3 -6 -13 -11 -21 -13 -18 -3 -100 30 -100 40 0 12
-119 11 -178 0 -57 -11 -268 -16 -278 -7 -3 4 -20 2 -37 -3 -18 -5 -90 -9
-162 -9 -71 1 -170 1 -220 0 -261 -1 -343 0 -475 4 -79 3 -167 10 -195 16 -79
16 -154 8 -202 -21 -37 -22 -48 -24 -105 -18 -35 4 -179 13 -321 19 -190 9
-262 9 -270 1 -14 -14 -47 -14 -47 0 0 7 -7 8 -17 4 -29 -11 -38 -11 -36 2 1
6 -10 14 -25 17 -34 6 -62 5 -62 -3 0 -3 -30 -5 -67 -4 -37 1 -73 -3 -79 -8
-6 -5 -27 -9 -45 -8 -19 0 -171 -1 -339 -3 -168 -2 -372 0 -455 4 -282 14
-559 17 -658 5 -73 -8 -100 -8 -105 0 -17 27 -291 49 -397 32z m1765 -150 c0
-7 24 -10 68 -9 37 1 72 1 77 0 6 -1 13 -2 17 -1 4 0 14 -9 21 -22 8 -12 44
-70 80 -128 37 -59 67 -110 67 -114 0 -17 154 -195 228 -265 183 -172 246
-226 292 -250 59 -31 240 -140 240 -145 0 -2 -9 -1 -20 2 -84 22 108 -77 290
-150 161 -63 186 -71 360 -102 176 -32 177 -32 163 -46 -8 -8 -39 -5 -110 10
-54 11 -111 21 -126 21 -15 0 -55 11 -89 25 -33 14 -89 30 -122 36 -75 13
-118 27 -223 73 -46 19 -83 33 -83 31 0 -17 321 -143 394 -155 28 -5 65 -14
81 -20 60 -24 321 -60 474 -66 86 -3 166 -10 178 -16 16 -8 51 -7 125 1 57 7
130 14 163 16 103 7 295 51 407 95 60 23 106 46 103 51 -6 9 89 59 150 79 66
21 125 54 228 129 54 39 115 80 135 90 50 26 396 371 441 440 20 31 65 93 100
139 35 46 83 119 108 163 31 56 50 79 64 79 10 0 19 5 19 10 0 14 64 12 131
-4 35 -8 62 -10 70 -5 18 12 249 7 249 -5 0 -4 14 -6 31 -2 17 3 55 3 84 0 52
-6 53 -7 45 -33 -4 -15 -44 -101 -88 -192 -119 -243 -257 -456 -419 -648 -35
-41 -63 -80 -63 -88 0 -7 -6 -13 -13 -13 -17 0 -189 -174 -181 -183 4 -4 0 -7
-10 -7 -9 0 -19 -7 -22 -15 -4 -8 -10 -15 -16 -15 -5 0 -40 -25 -76 -56 -37
-31 -77 -64 -89 -74 -11 -10 -83 -59 -158 -109 -201 -133 -478 -269 -685 -336
-30 -10 -57 -21 -60 -24 -3 -3 -14 -7 -25 -8 -11 0 -74 -15 -140 -33 -66 -17
-136 -34 -155 -36 -19 -3 -71 -11 -115 -19 -322 -56 -779 -41 -1099 34 -45 11
-103 23 -131 27 -27 4 -52 11 -55 15 -3 5 -21 10 -40 11 -19 2 -39 8 -45 14
-11 12 -69 34 -91 34 -8 0 -14 -7 -14 -15 0 -24 348 -121 500 -139 25 -3 94
-13 154 -21 126 -18 411 -24 570 -12 60 4 112 10 116 12 3 2 35 6 70 10 36 3
72 8 80 10 8 2 38 7 65 10 28 3 57 8 65 10 8 2 78 16 155 30 170 31 285 63
430 120 656 255 1217 776 1544 1433 37 76 82 174 100 220 l33 82 44 0 c24 0
44 -2 44 -4 0 -10 -54 -145 -94 -235 -25 -55 -46 -109 -46 -119 0 -42 -199
-345 -349 -532 -55 -69 -101 -131 -101 -137 0 -7 -5 -13 -11 -13 -6 0 -70 -57
-142 -126 -139 -133 -325 -279 -442 -347 -38 -22 -111 -64 -161 -94 -51 -29
-145 -78 -210 -109 -158 -73 -168 -78 -249 -104 -99 -33 -135 -49 -135 -59 0
-5 -21 -16 -47 -25 -82 -26 -336 -88 -378 -92 -93 -8 -131 -17 -142 -32 -8 -9
-13 -11 -13 -4 0 9 -19 11 -67 7 -215 -15 -458 -17 -584 -4 -74 8 -164 14
-202 14 -37 0 -67 4 -67 9 0 4 -7 6 -15 2 -8 -3 -15 -2 -15 3 0 5 -35 14 -77
21 -258 41 -698 206 -938 351 -188 114 -260 161 -332 220 -59 49 -72 56 -76
42 -3 -13 -5 -10 -6 7 -1 17 -18 38 -52 65 -27 22 -66 63 -87 90 -20 28 -63
74 -95 104 -95 88 -209 228 -299 366 -46 72 -92 136 -101 144 -15 12 -17 11
-17 -9 0 -22 -1 -23 -20 -5 -39 35 -130 198 -211 375 -26 58 -53 104 -60 102
-7 -2 -9 4 -5 14 3 9 -3 36 -14 61 -11 26 -19 47 -18 49 2 1 80 4 173 7 94 3
170 6 170 7 0 7 227 10 242 2 11 -6 36 -5 68 3 65 16 135 18 135 4z m575 1
c-3 -4 19 -11 48 -14 28 -4 68 -10 88 -13 22 -3 39 0 43 6 15 24 96 5 96 -23
0 -10 16 -10 88 2 137 22 230 24 240 5 8 -14 12 -14 36 2 26 17 29 17 62 2 19
-9 34 -12 34 -7 0 5 13 7 28 4 16 -3 51 1 79 9 28 8 55 12 59 7 5 -4 18 -11
29 -14 11 -3 4 -4 -15 -2 -19 2 -48 -3 -64 -11 -16 -8 -40 -13 -53 -10 -14 3
-37 -2 -52 -9 -14 -8 -37 -14 -50 -14 -13 0 -22 -3 -18 -6 3 -4 48 1 99 10
105 18 335 33 478 32 200 -2 261 -6 255 -16 -3 -5 3 -10 15 -10 12 0 18 5 15
10 -7 11 -11 11 170 15 72 2 150 6 174 9 25 4 49 2 56 -4 8 -6 16 -7 19 -2 3
5 29 5 63 0 32 -5 72 -7 88 -4 56 11 120 13 126 4 3 -5 23 -11 45 -15 37 -5
38 -4 19 10 -26 20 -15 30 19 17 29 -11 119 -8 149 5 10 4 27 1 43 -10 21 -14
28 -15 35 -4 11 18 179 25 190 8 5 -9 18 -9 50 -1 33 8 45 8 51 -1 5 -8 16 -7
43 6 39 19 95 23 95 7 0 -12 62 -13 76 -1 5 5 47 11 94 14 47 2 76 1 65 -3
-11 -4 32 -6 95 -4 63 2 128 1 143 -2 l28 -6 -26 -33 c-14 -19 -25 -37 -25
-40 0 -19 -165 -236 -178 -234 -4 1 -52 0 -107 -2 l-100 -3 102 -5 103 -6 -41
-47 -41 -48 -91 -2 -92 -2 75 -5 c43 -4 74 -10 71 -16 -7 -21 -82 -95 -96 -95
-8 0 -15 -4 -15 -10 0 -5 -23 -28 -51 -50 -45 -36 -57 -40 -105 -40 -30 0 -54
-4 -54 -9 0 -6 16 -7 35 -4 55 9 42 -11 -37 -60 -71 -43 -76 -44 -203 -56
-143 -14 -232 -28 -180 -29 17 -1 81 5 143 12 62 7 115 10 117 8 12 -12 -211
-126 -233 -120 -4 1 -37 -12 -73 -30 -37 -18 -75 -32 -84 -32 -14 0 -16 -6
-12 -30 4 -17 2 -30 -3 -30 -6 0 -10 7 -10 15 0 17 6 18 -145 -21 -148 -38
-427 -66 -606 -60 -146 6 -389 38 -421 56 -10 6 -27 10 -39 10 -12 0 -65 14
-118 30 -138 44 -128 39 -111 50 11 7 5 10 -21 10 -47 0 -179 59 -158 70 8 5
61 15 118 24 102 15 139 26 89 26 -14 0 -80 -9 -146 -20 l-120 -21 -36 22
c-20 11 -36 18 -36 14 0 -3 -8 1 -17 11 -10 9 -48 37 -86 61 -38 24 -74 48
-81 54 -6 5 -35 27 -65 50 -61 47 -58 53 30 63 32 4 70 11 85 17 25 8 23 8
-14 4 -23 -3 -75 -8 -115 -11 l-73 -7 -32 39 c-40 48 -40 54 -2 54 17 0 30 5
30 10 0 6 -15 8 -39 4 -35 -6 -43 -2 -80 31 -47 42 -48 57 -5 66 24 6 22 7
-17 8 -50 1 -66 14 -131 106 -48 69 -51 75 -36 75 7 0 25 -19 40 -43 15 -23
42 -55 60 -72 18 -16 25 -21 15 -9 -9 11 -17 25 -17 30 0 5 -14 22 -30 38 -34
33 -38 46 -13 46 18 0 9 14 -10 16 -46 3 -75 20 -101 57 -17 22 -32 35 -34 29
-5 -17 -19 -15 -26 5 -4 9 -1 20 6 25 9 5 7 8 -8 8 -24 0 -60 45 -44 55 5 3
64 4 132 2 68 -3 115 -2 106 0 -31 8 -19 18 22 19 22 1 38 -2 35 -6z"/>
<path d="M1613 2295 c-1 -19 2 -35 6 -35 4 0 7 -9 8 -21 3 -34 92 -209 106
-206 7 1 11 -7 9 -22 -4 -39 109 -228 242 -405 286 -381 635 -670 1069 -886
98 -49 195 -91 217 -95 22 -4 40 -10 40 -14 0 -6 58 -31 73 -31 15 0 6 31 -10
37 -10 3 -80 32 -156 65 -544 237 -1022 654 -1341 1170 -36 59 -66 110 -66
112 0 3 -15 31 -33 63 -19 32 -46 89 -62 126 -19 45 -33 66 -42 63 -7 -3 -13
-1 -13 3 0 5 6 12 13 14 7 3 5 6 -5 6 -13 1 -18 9 -18 30 0 64 -35 89 -37 26z"/>
<path d="M2719 1851 c17 -21 31 -43 31 -48 0 -5 33 -41 73 -79 88 -83 114
-104 121 -97 3 3 12 -1 20 -10 8 -8 13 -17 10 -20 -9 -9 73 -67 95 -67 39 0
22 27 -51 82 -40 30 -113 96 -163 147 -115 117 -204 178 -136 92z"/>
<path d="M1890 1243 c0 -8 52 -74 87 -111 7 -7 13 -22 13 -32 0 -21 203 -219
324 -316 97 -78 146 -101 176 -82 18 11 18 14 3 30 -9 10 -22 18 -29 18 -7 0
-14 3 -16 8 -1 4 -62 55 -134 114 -71 59 -137 119 -144 134 -8 14 -35 43 -60
64 -35 29 -53 38 -71 34 -18 -4 -20 -3 -10 4 21 15 7 37 -41 71 -24 16 -55 39
-70 51 -16 12 -28 17 -28 13z"/>
</g>
</svg>
