<svg width="1000" height="1000" viewBox="0 0 1000 1000" fill="none" xmlns="http://www.w3.org/2000/svg">
<path d="M0 500C0 223.858 223.858 0 500 0C776.142 0 1000 223.858 1000 500C1000 776.142 776.142 1000 500 1000C223.858 1000 0 776.142 0 500Z" fill="#708B96"/>
<path fill-rule="evenodd" clip-rule="evenodd" d="M280 720H452V698.904V637.669C389.33 617.943 344 560.629 344 493C344 409.053 413.844 341 500 341C586.156 341 656 409.053 656 493C656 560.629 610.67 617.943 548 637.669V698.904V720H720V658H636.372C686.727 619.25 719 559.515 719 492.5C719 375.692 620.95 281 500 281C379.05 281 281 375.692 281 492.5C281 559.515 313.273 619.25 363.628 658H280V720Z" fill="white"/>
</svg>
