<?xml version="1.0" encoding="utf-8"?>
<!-- Generator: Adobe Illustrator 23.1.1, SVG Export Plug-In . SVG Version: 6.00 Build 0)  -->
<svg version="1.1" id="Layer_1" xmlns="http://www.w3.org/2000/svg" xmlns:xlink="http://www.w3.org/1999/xlink" x="0px" y="0px"
	 viewBox="0 0 200 200" style="enable-background:new 0 0 200 200;" xml:space="preserve">
<style type="text/css">
	.st0{fill:#F3E6AC;}
</style>
<g>
	<path d="M193.4,100.4c0,51.5-41.7,93.2-93.2,93.2S7,151.9,7,100.4S48.7,7.1,100.2,7.1S193.4,48.9,193.4,100.4"/>
</g>
<g>
	<path class="st0" d="M68.2,75.2c6-6.6,14.6-10.6,25.1-10.6c13.8,0,24.4,7.1,29.9,17.8l36.1,4.8c-6.1-30.8-32.3-51.4-66-51.4
		c-27.2,0-49.6,13.3-60.4,34.7L68.2,75.2z"/>
	<path class="st0" d="M134.7,82.5c2.8,5.4,4.3,11.8,4.3,18.7c0,20.4-13.4,36.5-34.3,36.5c-21,0-34.4-16.1-34.4-36.5
		c0-10.3,3.4-19.4,9.3-26l-35.3-4.7c-4.6,8.9-7.1,19.3-7.1,30.6c0,38.4,29,65.3,67.6,65.3c38.6,0,67.4-26.9,67.4-65.3
		c0-4.8-0.5-9.5-1.3-13.9L134.7,82.5z"/>
</g>
</svg>
