<?xml version="1.0" encoding="utf-8"?>
<!-- Generator: Adobe Illustrator 26.0.1, SVG Export Plug-In . SVG Version: 6.00 Build 0)  -->
<svg version="1.1" id="Layer_1" xmlns="http://www.w3.org/2000/svg" xmlns:xlink="http://www.w3.org/1999/xlink" x="0px" y="0px"
	 viewBox="0 0 499.4 499.1" style="enable-background:new 0 0 499.4 499.1;" xml:space="preserve">
<style type="text/css">
	.st0{fill:#FFFFFF;}
	.st1{fill:url(#SVGID_00000154417396591439271010000015738910592602656938_);}
	.st2{clip-path:url(#SVGID_00000039114418551171000350000007136552832671638182_);}
	.st3{fill:url(#SVGID_00000104668296371873401540000005569783499492104360_);}
	.st4{fill:url(#SVGID_00000013907903073807755990000014853443901451002535_);}
	.st5{fill:url(#SVGID_00000135688613917438024590000010785155085569778063_);}
	.st6{fill:url(#SVGID_00000061461418120499487900000001673008231887219863_);}
	.st7{fill:url(#SVGID_00000037659320504592135180000007343243002019523241_);}
</style>
<g>
	<g>
		<g>
			<path class="st0" d="M249.8,485c130.3,0,235.8-105.5,235.8-235.7c0-130.2-105.7-235.7-235.8-235.7C119.5,13.6,14,119.1,14,249.3
				C14,379.5,119.5,485,249.8,485z"/>
			
				<linearGradient id="SVGID_00000044175487476652903160000009796168088340208038_" gradientUnits="userSpaceOnUse" x1="12.6197" y1="249.2682" x2="486.9721" y2="249.2682">
				<stop  offset="0" style="stop-color:#FFB544"/>
				<stop  offset="0.4343" style="stop-color:#FF6D88"/>
				<stop  offset="1" style="stop-color:#3E9EFF"/>
			</linearGradient>
			<path style="fill:url(#SVGID_00000044175487476652903160000009796168088340208038_);" d="M408.9,57.4
				C369,24.6,320.4,4.9,268.9,0.7c-51.6-4.1-104.4,8.5-148.6,35.4c-42.2,25.7-76.8,64.1-97.2,109.1C1.2,193.6-5,247.7,5.5,299.7
				c20.2,99.8,104,180.4,204.8,195.7c13.1,2,26.2,3.1,39.5,3.2c51.4-0.2,102.6-16,144.4-46.1c41.2-29.6,72.6-70.7,90.1-118.4
				C520.1,236.8,489,123.1,408.9,57.4z M467.8,292.5c-18.3,90.9-92.4,161.7-183.9,176.4c-11.3,1.8-22.7,2.5-34.1,2.5
				C158,471,72.7,412.9,41.2,326c-16-44.2-18-92.7-5.1-137.9c12.4-43.5,38.2-82.1,73.1-110.9c71.6-59.2,176.4-65.9,255.6-18
				C443.7,106.9,486.1,201.8,467.8,292.5z"/>
		</g>
	</g>
	<g>
		<defs>
			<rect id="SVGID_1_" x="-75.6" y="-10" width="650.8" height="518.5"/>
		</defs>
		<clipPath id="SVGID_00000036934002800639935170000005287928618521333127_">
			<use xlink:href="#SVGID_1_"  style="overflow:visible;"/>
		</clipPath>
		<g style="clip-path:url(#SVGID_00000036934002800639935170000005287928618521333127_);">
			
				<linearGradient id="SVGID_00000103944375721624696930000004772067158896599448_" gradientUnits="userSpaceOnUse" x1="674.1047" y1="-72.6292" x2="227.463" y2="287.7441" gradientTransform="matrix(1 0 0 -1 0 500)">
				<stop  offset="0" style="stop-color:#004CFF"/>
				<stop  offset="1" style="stop-color:#66D4FF"/>
			</linearGradient>
			<path style="fill:url(#SVGID_00000103944375721624696930000004772067158896599448_);" d="M301.5,383.6
				c61.6,0,111.6-50,111.6-111.6c0-61.6-50-111.6-111.6-111.6c-61.6,0-111.6,50-111.6,111.6C189.9,333.7,239.9,383.6,301.5,383.6z"
				/>
			
				<radialGradient id="SVGID_00000121984644971581361730000015074916002618954400_" cx="-462.3443" cy="497.6737" r="10.8898" gradientTransform="matrix(20.5167 4.9369 4.9369 -20.5167 7308.3691 12741.3545)" gradientUnits="userSpaceOnUse">
				<stop  offset="0.4804" style="stop-color:#004CFF;stop-opacity:0"/>
				<stop  offset="0.9926" style="stop-color:#0952FF"/>
				<stop  offset="1" style="stop-color:#004CFF"/>
			</radialGradient>
			<path style="fill:url(#SVGID_00000121984644971581361730000015074916002618954400_);" d="M301.5,383.6
				c61.6,0,111.6-50,111.6-111.6c0-61.6-50-111.6-111.6-111.6c-61.6,0-111.6,50-111.6,111.6C189.9,333.7,239.9,383.6,301.5,383.6z"
				/>
			
				<linearGradient id="SVGID_00000165924096288768134780000010679733280372644773_" gradientUnits="userSpaceOnUse" x1="107.7635" y1="348.6898" x2="390.2466" y2="141.9938" gradientTransform="matrix(1 0 0 -1 0 500)">
				<stop  offset="5.092920e-07" style="stop-color:#004CFF"/>
				<stop  offset="0.809" style="stop-color:#004CFF;stop-opacity:0"/>
			</linearGradient>
			<path style="fill:url(#SVGID_00000165924096288768134780000010679733280372644773_);" d="M413.1,272c0-3.6,0-7.2-0.5-10.3
				l-130.2-99.7c-52.7,8.8-92.5,54.8-92.5,110.1c0,61.5,50.1,111.6,111.6,111.6c22.2,0,43.4-6.7,61-18.1l45.5-59.4
				C411.1,295.3,413.1,283.9,413.1,272z"/>
			
				<radialGradient id="SVGID_00000135649522488448177140000003525997782048607410_" cx="-474.0005" cy="511.2881" r="10.8898" gradientTransform="matrix(18.5 13 13 -18.5 2255.0005 15753.9727)" gradientUnits="userSpaceOnUse">
				<stop  offset="0.4737" style="stop-color:#004CFF"/>
				<stop  offset="1" style="stop-color:#004CFF;stop-opacity:0"/>
			</radialGradient>
			<path style="fill:url(#SVGID_00000135649522488448177140000003525997782048607410_);" d="M301.5,383.6
				c61.6,0,111.6-50,111.6-111.6c0-61.6-50-111.6-111.6-111.6c-61.6,0-111.6,50-111.6,111.6C189.9,333.7,239.9,383.6,301.5,383.6z"
				/>
			
				<radialGradient id="SVGID_00000160887993297348604820000010607080812665962431_" cx="-483.0663" cy="496.0432" r="10.8898" gradientTransform="matrix(33.9885 0 0 -33.9885 16493.9727 16998.7871)" gradientUnits="userSpaceOnUse">
				<stop  offset="0" style="stop-color:#FFBE3B"/>
				<stop  offset="0.1344" style="stop-color:#FFB445"/>
				<stop  offset="0.3641" style="stop-color:#FF995E"/>
				<stop  offset="0.6595" style="stop-color:#FF6D88"/>
				<stop  offset="0.7129" style="stop-color:#FF6490"/>
			</radialGradient>
			<path style="fill:url(#SVGID_00000160887993297348604820000010607080812665962431_);" d="M189.9,338.2
				c61.6,0,111.6-50,111.6-111.6c0-61.6-50-111.6-111.6-111.6c-61.6,0-111.6,50-111.6,111.6C78.3,288.2,128.3,338.2,189.9,338.2z"/>
		</g>
	</g>
</g>
</svg>
