<?xml version="1.0" encoding="UTF-8"?>
<svg width="60px" height="60px" viewBox="0 0 60 60" version="1.1" xmlns="http://www.w3.org/2000/svg" xmlns:xlink="http://www.w3.org/1999/xlink">
    <!-- Generator: Sketch 52 (66869) - http://www.bohemiancoding.com/sketch -->
    <title>Opacity Logo</title>
    <desc>Created with Sketch.</desc>
    <g id="Symbols" stroke="none" stroke-width="1" fill="none" fill-rule="evenodd">
        <g id="Opacity-Logo">
            <path d="M22.9312028,22.8 C25.7664574,19.9591062 29.8814457,18.8171661 33.7713197,19.7917862 C37.6611937,20.7664063 40.7554535,23.7146461 41.9225307,27.5583365 C39.3537227,26.7781147 36.5929849,26.9270889 34.122661,27.9792311 C34.0879996,27.9411078 34.0525016,27.9038515 34.0153303,27.8665964 C32.3120399,26.1636293 29.5539357,26.1651381 27.8525021,27.8699678 C26.1510685,29.5747975 26.1495627,32.3384068 27.8491375,34.045097 C27.90491,34.1009808 27.9615275,34.1543186 28.019859,34.2059868 C27.0421959,36.6336018 26.9226017,39.3232516 27.6809331,41.8283653 C23.8451078,40.6590236 20.9028354,37.5588558 19.9299997,33.6614824 C18.957164,29.7641089 20.0964277,25.6410649 22.9312028,22.8 Z" id="Path" fill="#FFFFFF"></path>
            <path d="M8.87107291,8.76936647 C20.5400307,-2.92288263 39.4594912,-2.92288263 51.1284502,8.76936647 C57.6355041,15.2755208 60.7840929,24.4251843 59.6619024,33.5672108 C56.5936338,30.6520714 52.6164885,28.8854814 48.4003088,28.5649749 C48.0801116,24.3208271 46.3022213,20.3189425 43.369145,17.2402395 C43.263502,17.1293413 43.1561665,17.0184 43.0471386,16.9091545 C38.3822395,12.2324897 31.5813952,10.4052933 25.2072017,12.1160631 C18.8330081,13.8268329 13.8542105,18.8155673 12.1468475,25.2024834 C10.4394845,31.5893996 12.2630398,38.4038188 16.9303876,43.0780299 C17.0563135,43.2042072 17.1833677,43.3281242 17.3115502,43.4497808 C20.3783071,46.359566 24.3515371,48.1224218 28.5630108,48.4418659 C28.8810839,52.6422409 30.6260396,56.6065686 33.5071231,59.6742898 C24.4186588,60.7601693 15.3360182,57.6031507 8.87107291,51.1110898 C-2.79788845,39.4188407 -2.79788845,20.4616156 8.87107291,8.76936647 Z" id="Path" fill="#80B9FF"></path>
            <path d="M58.0082032,43.9589545 C57.757138,43.005524 57.3832728,42.0888982 56.8960315,41.232182 C56.8655665,41.1762778 56.8325928,41.1212515 56.8004952,41.0670431 C56.7607518,40.9984503 56.718557,40.9306754 56.6763048,40.8629593 C53.6332527,35.9480164 47.4079753,34.0817599 42.1709665,36.5144491 C41.9624355,36.1013659 41.6894127,35.7242972 41.3622096,35.3974838 C41.3368219,35.3720467 41.3106191,35.3458491 41.2844737,35.3212299 C39.5954986,33.7113012 36.9414761,33.7172988 35.2597655,35.3348446 C33.5780548,36.9523905 33.4635973,39.6092431 34.9999434,41.3659772 C35.0624534,41.4371437 35.1275187,41.5073737 35.1959761,41.5759677 C35.5594029,41.9411492 35.9846367,42.2387932 36.4518896,42.4550491 C35.5228759,44.6738427 35.3141277,47.1292777 35.8552135,49.4735509 C36.0754716,50.4347102 36.420396,51.3628307 36.8811896,52.2342407 C36.9234418,52.3172778 36.9691386,52.4001976 37.0156518,52.4823569 C37.1052347,52.643285 37.1990199,52.8033365 37.2978239,52.9599964 C37.3223343,52.9997569 37.3477219,53.0387641 37.3730498,53.0777102 C40.3380013,57.6944038 46.1572525,59.5508235 51.2402761,57.5015425 C51.245429,57.5103246 51.2510594,57.5188164 51.2571418,57.5269796 C53.9989369,56.4155916 56.2052656,54.2843839 57.4140968,51.5796563 C57.407678,51.5741162 57.4008928,51.5690172 57.3937876,51.564394 C58.4594572,49.1739605 58.6762836,46.490011 58.0082032,43.9589545 Z M48.4666494,47.9004084 L48.4666494,52.6429341 L45.3112183,52.6429341 L45.3112183,47.9004084 L40.9593478,47.9004084 L46.8864203,40.781618 L52.8185127,47.9004084 L48.4666494,47.9004084 Z" id="Shape" fill="#FFFFFF" fill-rule="nonzero"></path>
        </g>
    </g>
</svg>