<?xml version="1.0" encoding="utf-8"?>
<!-- Generator: Adobe Illustrator 24.2.1, SVG Export Plug-In . SVG Version: 6.00 Build 0)  -->
<svg version="1.1" id="Layer_1" xmlns="http://www.w3.org/2000/svg" xmlns:xlink="http://www.w3.org/1999/xlink" x="0px" y="0px"
	 viewBox="0 0 656.23 639.88" style="enable-background:new 0 0 656.23 639.88;" xml:space="preserve">
<style type="text/css">
	.st0{fill:#42456F;}
	.st1{fill:#565C93;}
	.st2{fill:#7FCCE2;}
</style>
<g>
	<path class="st0" d="M197.29,409.27c-1.83,7.1-7.7,8.82-13.06,3.81L80.02,315.84c-5.36-5-4.18-11.32,2.63-14.04l146.18-58.43
		c6.81-2.72,10.88,0.86,9.06,7.96L197.29,409.27z"/>
	<path class="st1" d="M111.18,501.69c-5.55,4.78-11.17,2.8-12.47-4.41L70.14,339.24c-1.3-7.21,2.02-9.02,7.38-4.02l99.18,92.55
		c5.36,5,5.2,13.01-0.35,17.79L111.18,501.69z"/>
	<path class="st1" d="M230.82,211.91c4.78,5.55,3.13,12.33-3.68,15.05L81.77,285.07c-6.81,2.72-10.29-0.68-7.73-7.55l59.69-160.43
		c2.56-6.87,8.56-7.95,13.35-2.4L230.82,211.91z"/>
	<path class="st1" d="M78.52,474.82c1.3,7.21-0.89,8.08-4.87,1.93l-56.37-87.06c-3.99-6.15-3.65-15.99,0.73-21.87l25.18-33.73
		c4.38-5.87,9.04-4.78,10.34,2.43L78.52,474.82z"/>
	<path class="st1" d="M60.78,267.67c-2.56,6.87-6.54,6.8-8.86-0.15l-19.25-57.78c-2.32-6.95,0.23-16.67,5.66-21.6l68.64-62.22
		c5.43-4.92,7.78-3.33,5.23,3.54L60.78,267.67z"/>
	<path class="st1" d="M42.66,289.95c2.32,6.96,0.63,17.45-3.76,23.33L19.19,339.7c-4.38,5.87-7.36,4.71-6.61-2.58l9.45-91.72
		c0.75-7.29,3.26-7.57,5.58-0.61L42.66,289.95z"/>
	<path class="st1" d="M120.13,83.4c2.44,2.83-0.01,9.18-5.44,14.1l-30.89,28c-5.44,4.92-6.3,4.13-1.93-1.75l25.87-34.81
		C112.11,83.06,117.69,80.57,120.13,83.4z"/>
	<path class="st1" d="M314.99,571.56c-3.7,6.33-10.13,6.57-14.27,0.52L219.99,454.6c-4.16-6.04-1.59-11.6,5.71-12.35l162.21-16.74
		c7.29-0.75,10.23,3.81,6.53,10.14L314.99,571.56z"/>
	<path class="st1" d="M281.18,571.67c4.15,6.04,1.87,9.05-5.07,6.7L124.05,526.7c-6.94-2.36-8.07-8.21-2.52-12.99l65.16-56.13
		c5.55-4.78,13.5-3.76,17.65,2.29L281.18,571.67z"/>
	<path class="st2" d="M391.28,398.21c4.79,5.56,2.73,10.72-4.56,11.47l-164.61,16.99c-7.29,0.75-11.77-4.44-9.94-11.54l41.2-160.28
		c1.82-7.1,7.23-8.37,12.02-2.81L391.28,398.21z"/>
	<path class="st1" d="M509.58,535.56c4.79,5.56,2.83,11.34-4.34,12.85l-167.51,35.26c-7.17,1.51-10.02-2.43-6.32-8.76l79.01-135.16
		c3.7-6.33,10.64-6.96,15.42-1.41L509.58,535.56z"/>
	<path class="st1" d="M240.12,625.7c-6.46,3.46-16.24,2.33-21.73-2.52l-77.75-68.65c-5.5-4.85-4.32-6.89,2.62-4.53l133.08,45.22
		c6.94,2.36,7.33,7.13,0.88,10.59L240.12,625.7z"/>
	<path class="st1" d="M420.82,632.23c-5.67,4.64-15.66,5.72-22.2,2.4l-54.28-27.6c-6.53-3.32-6.01-7.28,1.16-8.79l144.29-30.37
		c7.17-1.51,8.4,1.05,2.73,5.69L420.82,632.23z"/>
	<path class="st1" d="M269.67,635.61c-7.32-0.34-8.03-3.45-1.57-6.92l29.05-15.58c6.46-3.47,17.09-3.58,23.63-0.26l42.43,21.57
		c6.54,3.32,5.89,5.76-1.43,5.43L269.67,635.61z"/>
	<path class="st1" d="M536.53,566.85c2.44,2.83-0.85,7.98-7.32,11.43l-38.25,20.42c-6.47,3.45-7.12,2.48-1.44-2.16l32.26-26.39
		C527.45,565.49,534.09,564.02,536.53,566.85z"/>
	<path class="st0" d="M439.86,396.52c-6.81,2.72-10.88-0.86-9.06-7.96l40.6-157.94c1.82-7.1,7.71-8.82,13.07-3.82l104.22,97.25
		c5.36,5,4.18,11.32-2.63,14.04L439.86,396.52z"/>
	<path class="st1" d="M598.55,300.65c1.3,7.21-2.01,9.02-7.37,4.02l-99.19-92.55c-5.36-5-5.2-13.01,0.35-17.79l65.16-56.13
		c5.56-4.79,11.17-2.8,12.47,4.42L598.55,300.65z"/>
	<path class="st1" d="M534.95,522.81c-2.56,6.87-8.56,7.95-13.35,2.39l-83.74-97.22c-4.79-5.56-3.13-12.33,3.68-15.05l145.37-58.11
		c6.81-2.72,10.29,0.67,7.73,7.55L534.95,522.81z"/>
	<path class="st1" d="M651.42,250.2c3.98,6.16,3.66,16-0.73,21.87l-25.17,33.74c-4.39,5.88-9.04,4.78-10.34-2.44l-25-138.3
		c-1.3-7.22,0.89-8.08,4.87-1.93L651.42,250.2z"/>
	<path class="st1" d="M636.03,430.15c2.32,6.96-0.23,16.67-5.66,21.6l-68.65,62.23c-5.43,4.92-7.78,3.33-5.23-3.54l51.43-138.2
		c2.55-6.87,6.54-6.8,8.86,0.16L636.03,430.15z"/>
	<path class="st1" d="M646.66,394.48c-0.75,7.29-3.26,7.57-5.58,0.61l-15.05-45.16c-2.32-6.96-0.63-17.45,3.76-23.33l19.72-26.42
		c4.38-5.87,7.36-4.72,6.61,2.58L646.66,394.48z"/>
	<path class="st1" d="M560.94,550.94c-4.37,5.89-9.95,8.38-12.39,5.55c-2.44-2.83,0.01-9.18,5.44-14.1l30.88-28
		c5.43-4.92,6.3-4.14,1.93,1.75L560.94,550.94z"/>
	<path class="st0" d="M448.7,185.29c4.15,6.04,1.58,11.6-5.71,12.36l-162.21,16.74c-7.29,0.75-10.23-3.81-6.53-10.14l79.46-135.91
		c3.7-6.33,10.12-6.57,14.27-0.52L448.7,185.29z"/>
	<path class="st1" d="M481.99,182.3c-5.55,4.78-13.49,3.76-17.65-2.29l-76.82-111.8c-4.15-6.04-1.87-9.05,5.07-6.7l152.05,51.67
		c6.94,2.36,8.07,8.2,2.52,12.99L481.99,182.3z"/>
	<path class="st1" d="M415.32,385.04c-1.83,7.1-7.23,8.37-12.02,2.81l-125.9-146.17c-4.78-5.55-2.74-10.71,4.56-11.47l164.61-16.99
		c7.29-0.75,11.77,4.44,9.94,11.54L415.32,385.04z"/>
	<path class="st1" d="M258.27,200.15c-3.7,6.33-10.64,6.96-15.43,1.41l-83.74-97.22c-4.78-5.55-2.83-11.33,4.34-12.84l167.51-35.26
		c7.18-1.51,10.02,2.44,6.32,8.76L258.27,200.15z"/>
	<path class="st1" d="M392.35,44.68c-6.94-2.36-7.33-7.12-0.87-10.59l37.09-19.9c6.46-3.47,16.24-2.33,21.74,2.52l77.74,68.66
		c5.5,4.85,4.31,6.89-2.63,4.54L392.35,44.68z"/>
	<path class="st1" d="M178.89,72.03c-7.17,1.51-8.4-1.06-2.73-5.69l71.71-58.67c5.67-4.64,15.66-5.72,22.2-2.4l54.28,27.6
		c6.54,3.32,6.01,7.28-1.16,8.78L178.89,72.03z"/>
	<path class="st1" d="M371.54,26.78c-6.46,3.46-17.09,3.58-23.63,0.26L305.48,5.46c-6.54-3.32-5.89-5.77,1.43-5.43l92.11,4.25
		c7.32,0.34,8.03,3.45,1.57,6.92L371.54,26.78z"/>
	<path class="st1" d="M146.91,69.76c-5.68,4.64-12.31,6.12-14.75,3.29c-2.44-2.84,0.85-7.98,7.32-11.43l38.26-20.42
		c6.47-3.45,7.12-2.48,1.44,2.17L146.91,69.76z"/>
	<path class="st1" d="M97.8,534.16c2.83-2.44,9.18,0.01,14.1,5.44l28,30.89c4.92,5.43,4.14,6.3-1.75,1.93l-34.81-25.87
		C97.46,542.18,94.97,536.6,97.8,534.16z"/>
	<path class="st1" d="M581.25,117.76c2.83-2.44,7.98,0.85,11.43,7.32l20.42,38.25c3.45,6.47,2.48,7.12-2.16,1.44l-26.39-32.26
		C579.9,126.84,578.42,120.2,581.25,117.76z"/>
	<path class="st1" d="M565.35,93.35c5.88,4.37,8.38,9.95,5.55,12.39c-2.83,2.44-9.18-0.01-14.1-5.44l-28-30.89
		c-4.92-5.43-4.14-6.3,1.75-1.92L565.35,93.35z"/>
	<path class="st1" d="M84.16,507.38c4.64,5.67,6.12,12.31,3.29,14.75c-2.83,2.44-7.98-0.85-11.43-7.32l-20.43-38.26
		c-3.45-6.47-2.47-7.12,2.17-1.44L84.16,507.38z"/>
</g>
</svg>
