<?xml version="1.0" encoding="utf-8"?>
<!-- Generator: Adobe Illustrator 22.0.1, SVG Export Plug-In . SVG Version: 6.00 Build 0)  -->
<svg version="1.1" id="图层_1" xmlns="http://www.w3.org/2000/svg" xmlns:xlink="http://www.w3.org/1999/xlink" x="0px" y="0px"
	 viewBox="0 0 400 400" style="enable-background:new 0 0 400 400;" xml:space="preserve">
<style type="text/css">
	.st0{fill:url(#SVGID_1_);}
</style>
<linearGradient id="SVGID_1_" gradientUnits="userSpaceOnUse" x1="88.6067" y1="311.0579" x2="306.701" y2="92.9635" gradientTransform="matrix(1 0 0 -1 0 402)">
	<stop  offset="0" style="stop-color:#3791CF"/>
	<stop  offset="0.5025" style="stop-color:#478CCB"/>
	<stop  offset="1" style="stop-color:#5BC1D1"/>
</linearGradient>
<path class="st0" d="M197.7,354.2c-70.4,0-131.8-47.6-149.3-115.7c-0.9-3.3-0.1-6.9,2-9.6c2.1-2.7,5.4-4.3,8.8-4.3h43
	c4.7,0,8.8,2.9,10.5,7.2c13.3,35.3,47.5,59,85.1,59c34.8,0,66-19.4,81.5-50.5c1.2-2.5,1.4-5.3,0.5-7.9c-0.9-2.6-2.7-4.7-5.2-5.9
	c-5.1-2.5-11.3-0.4-13.8,4.6c-12,24.1-36.1,39.1-63,39.1c-38.8,0-70.3-31.5-70.3-70.3s31.5-70.3,70.3-70.3c26.9,0,51,15,63,39.1
	c2.5,5.1,8.7,7.2,13.8,4.6c2.5-1.2,4.3-3.3,5.2-5.9c0.9-2.6,0.7-5.4-0.5-7.9c-15.5-31.2-46.7-50.5-81.5-50.5
	c-37.6,0-71.8,23.7-85.1,59c-1.6,4.4-5.8,7.2-10.5,7.2h-43c-3.5,0-6.7-1.6-8.8-4.3s-2.8-6.3-2-9.6C65.9,93.4,127.3,45.8,197.7,45.8
	C282.8,45.8,352,115,352,200S282.8,354.2,197.7,354.2z M74.4,246.9c19.2,50.7,68,85,123.3,85c72.7,0,131.9-59.2,131.9-131.9
	S270.5,68.1,197.7,68.1c-55.3,0-104.1,34.3-123.3,85h20.3c18.3-39.9,58.7-66.3,103-66.3c43.3,0,82.2,24.1,101.5,62.9
	c3.9,7.8,4.5,16.7,1.7,24.9c-2.8,8.3-8.6,14.9-16.4,18.8c-16.1,8-35.7,1.4-43.7-14.7c-8.2-16.5-24.7-26.7-43-26.7
	c-26.4,0-48,21.5-48,48s21.5,48,48,48c18.4,0,34.8-10.2,43-26.7c8-16.1,27.6-22.7,43.7-14.7c7.8,3.9,13.6,10.6,16.4,18.8
	c2.8,8.3,2.2,17.1-1.7,24.9c-19.3,38.8-58.1,62.9-101.5,62.9c-44.3,0-84.7-26.3-103-66.3L74.4,246.9L74.4,246.9z"/>
</svg>
