<svg xmlns="http://www.w3.org/2000/svg" viewBox="0 0 220.79 319.27"><defs><style>.cls-1{fill:#34445b;}</style></defs><title>Asset 1</title><g id="Layer_2" data-name="Layer 2"><g id="logo"><g id="logo-2" data-name="logo"><path class="cls-1" d="M123,99.21l27.91-43.53A28.16,28.16,0,1,0,134.13,45L99.46,99a110.47,110.47,0,1,0,23.49.19ZM110.26,267.42a58.58,58.58,0,1,1,54.8-79.28,33.82,33.82,0,1,0-.05,41.54A58.6,58.6,0,0,1,110.26,267.42Z"/><path class="cls-1" d="M123,99.21l27.91-43.53A28.16,28.16,0,1,0,134.13,45L99.46,99a110.47,110.47,0,1,0,23.49.19ZM110.26,267.42a58.58,58.58,0,1,1,54.8-79.28,33.82,33.82,0,1,0-.05,41.54A58.6,58.6,0,0,1,110.26,267.42Z"/></g></g></g></svg>