<?xml version="1.0" encoding="utf-8"?>
<!-- Generator: Adobe Illustrator 21.1.0, SVG Export Plug-In . SVG Version: 6.00 Build 0)  -->
<svg version="1.1" id="Layer_1" xmlns="http://www.w3.org/2000/svg" xmlns:xlink="http://www.w3.org/1999/xlink" x="0px" y="0px"
	 viewBox="0 0 794 792" style="enable-background:new 0 0 794 792;" xml:space="preserve">
<style type="text/css">
	.st0{fill:#1E313F;}
	.st1{opacity:0.2;fill:#FFFFFF;}
	.st2{fill:#FAFBFC;}
	.st3{fill:url(#SVGID_1_);}
	.st4{fill:url(#SVGID_2_);}
</style>
<g>
	<g>
		
			<ellipse transform="matrix(1 -3.351000e-03 3.351000e-03 1 -1.3258 1.335)" class="st0" cx="397.7" cy="396.3" rx="391.3" ry="391.3"/>
		<path class="st1" d="M642.3,639.3c134.2-135.1,133.5-353.4-1.6-487.6s-353.4-133.5-487.6,1.6L642.3,639.3z"/>
	</g>
	<g>
		<path class="st2" d="M434.5,361.3c-3.8-0.8-7.5-1.5-11.1-2.2c-48.2-9.7-83-16.7-83-50.1c0-20.8,20.5-37.4,57.3-37.4
			c32.7,0,58.9,13.3,75.9,38.3l2.5,0.8l52.3-53.6l-0.2-2.1c-20.9-24.8-47.2-42-77.3-51.2l0,0c-4.1-1.2-8.3-2.3-12.5-3.3
			c-0.1,0-0.2-0.1-0.3-0.1c-1.5-0.3-3-0.6-4.5-0.9V152H362v47.6c-2.3,0.4-4.6,0.9-6.8,1.4c-0.1,0-0.3,0.1-0.4,0.1
			c-33.9,8-63.3,25.8-86.4,52.6c-9.6,16.2-14.5,35.6-14.5,58.1c0,76.7,57.9,101.1,114.5,114.8c10.4,2.5,20.8,4.4,30.7,6.2
			c35.4,6.4,66,11.9,66,43.9c0,19.8-21.8,44.5-67.4,44.5c-26.9,0-49-9-65.3-25.6c-1-1-2.2-1.9-3.1-2.9l-61.7,43l-0.1,2.1
			c8.8,10.4,18.5,19.5,29.1,27.2c3.5,2.6,7.1,5,10.8,7.3c0.1,0,0.1,0.1,0.2,0.1c3.6,2.2,7.4,4.3,11.2,6.2c0.1,0.1,0.2,0.1,0.3,0.2
			c3.8,1.9,7.6,3.6,11.5,5.2c0.2,0.1,0.4,0.1,0.6,0.2c3.9,1.6,7.8,3,11.9,4.2c0.2,0.1,0.5,0.1,0.7,0.2c1.8,0.6,3.7,1.1,5.5,1.6
			c0.2,0.1,0.4,0.1,0.6,0.2c2,0.5,4,1,6.1,1.5c0.3,0.1,0.6,0.1,0.9,0.2c1.7,0.4,3.5,0.7,5.2,1.1v47.6h71.5v-47.6
			c1.3-0.2,2.5-0.5,3.8-0.7c0.2,0,0.5-0.1,0.7-0.2c4.9-1.1,9.8-2.4,14.5-3.9c0,0,0,0,0,0c2.4-0.8,4.7-1.6,7.1-2.4
			c26.3-9.7,49.4-25.9,68.3-48.2c7-8.3,13.3-17.4,18.9-27c2.8-10.6,4.2-22.1,4.2-34.6C551,394.4,488.8,371.8,434.5,361.3z"/>
		<linearGradient id="SVGID_1_" gradientUnits="userSpaceOnUse" x1="281.7905" y1="484.0966" x2="222.1897" y2="245.6932">
			<stop  offset="5.809295e-04" style="stop-color:#FFFFFF"/>
			<stop  offset="1" style="stop-color:#1E313F"/>
		</linearGradient>
		<path class="st3" d="M267.6,537.5c-3.5-4.1-6.8-8.4-9.9-12.9c-1.3-1.8-2.5-3.7-3.8-5.6c-0.3-0.5-0.6-0.9-0.9-1.3
			c-1.1-1.8-2.2-3.6-3.3-5.4c-0.4-0.6-0.7-1.2-1.1-1.8c-1-1.8-2-3.5-3-5.3c-0.4-0.7-0.7-1.4-1.1-2.1c-0.9-1.8-1.8-3.6-2.7-5.4
			c-0.4-0.7-0.7-1.5-1-2.2c-0.8-1.8-1.7-3.7-2.5-5.5c-0.3-0.7-0.6-1.5-0.9-2.2c-0.8-1.9-1.6-3.9-2.4-5.8c-0.2-0.4-0.3-0.8-0.4-1.2
			c-1.7-4.4-3.2-9-4.6-13.6c-0.1-0.4-0.3-0.8-0.4-1.2c-0.5-1.6-0.9-3.3-1.4-5c-0.3-1.3-0.7-2.5-1-3.8c-0.4-1.5-0.7-3.1-1.1-4.6
			c-0.3-1.5-0.7-2.9-1-4.4c-0.3-1.5-0.6-3-0.9-4.4c-0.3-1.6-0.6-3.2-0.9-4.8c-0.2-1.4-0.5-2.9-0.7-4.3c-0.3-1.7-0.5-3.4-0.7-5.1
			c-0.2-1.4-0.3-2.7-0.5-4.1c-0.2-1.8-0.4-3.7-0.5-5.6c-0.1-1.3-0.2-2.6-0.3-3.8c-0.2-2.1-0.3-4.2-0.4-6.4c-0.1-1.1-0.1-2.1-0.2-3.2
			c-0.1-3.2-0.2-6.4-0.2-9.7c0-3.2,0.1-6.3,0.2-9.4c0-1,0.1-1.9,0.1-2.9c0.1-2.2,0.2-4.3,0.4-6.5c0.1-1.1,0.2-2.2,0.3-3.3
			c0.2-2.1,0.4-4.1,0.6-6.2c0.1-1,0.2-2.1,0.3-3.1c0.3-2.5,0.6-4.9,1-7.3c0.1-0.6,0.2-1.1,0.2-1.7c0.5-2.9,1-5.9,1.6-8.8
			c0.2-0.9,0.4-1.8,0.6-2.7c0.4-2,0.9-4,1.3-6c0.3-1.1,0.5-2.2,0.8-3.3c0.5-1.8,0.9-3.6,1.4-5.4c0.3-1.1,0.6-2.2,0.9-3.2
			c0.6-1.9,1.2-3.8,1.8-5.7c0.3-0.9,0.5-1.8,0.8-2.6c0.9-2.7,1.8-5.3,2.8-7.9c0.3-0.8,0.7-1.7,1-2.5c0.7-1.8,1.4-3.6,2.2-5.4
			c0.5-1.1,0.9-2.1,1.4-3.1c0.7-1.5,1.4-3.1,2.1-4.6c0.5-1.1,1-2.1,1.5-3.2c0.8-1.6,1.6-3.1,2.4-4.6c0.5-0.9,1-1.9,1.5-2.8
			c1.3-2.3,2.6-4.6,4-6.9c-2.8,10.7-4.3,22.3-4.3,34.6c0,42.2,17.9,74.4,53.2,96.1c1.9,38.1,13,67.8,31.9,87.1L267.6,537.5z"/>
		<linearGradient id="SVGID_2_" gradientUnits="userSpaceOnUse" x1="514.4191" y1="296.0935" x2="568.0599" y2="517.8087">
			<stop  offset="5.809295e-04" style="stop-color:#FFFFFF"/>
			<stop  offset="0.9967" style="stop-color:#4E5A64"/>
		</linearGradient>
		<path class="st4" d="M473.5,309.9c11.1,16.4,18.1,37.3,20.7,62.5c9,4.3,17.1,9.3,24,14.7c26.2,20.5,39.6,50.3,39.6,88.4
			c0,4.6-0.2,9.2-0.6,13.6c0-0.1,0.1-0.2,0.1-0.3c1.3-3.1,2.5-6.2,3.7-9.3c0.3-0.9,0.6-1.7,0.9-2.6c0.8-2.3,1.6-4.6,2.3-6.9
			c0.3-1.1,0.7-2.2,1-3.3c0.4-1.4,0.8-2.8,1.2-4.2c0.5-1.8,1-3.7,1.5-5.5c0.4-1.4,0.7-2.8,1-4.2c0.4-1.6,0.7-3.2,1.1-4.8
			c0.2-1.1,0.5-2.1,0.7-3.2c0.5-2.4,0.9-4.8,1.3-7.3c0.2-1,0.3-1.9,0.5-2.9c0.4-2.6,0.8-5.2,1.1-7.9c0.1-0.6,0.1-1.1,0.2-1.7
			c0.3-2.5,0.5-5,0.7-7.4c0.1-0.7,0.1-1.3,0.2-2c0.2-2.9,0.4-5.7,0.5-8.6c0-0.6,0-1.2,0.1-1.9c0.1-3,0.2-6.1,0.2-9.1
			c0-3.3-0.1-6.6-0.2-9.9c0-1.1-0.1-2.1-0.2-3.2c-0.1-2.2-0.2-4.4-0.4-6.6c-0.1-1.3-0.2-2.6-0.3-3.8c-0.2-1.9-0.3-3.9-0.6-5.8
			c-0.2-1.4-0.3-2.7-0.5-4.1c-0.2-1.8-0.5-3.6-0.7-5.4c-0.2-1.4-0.5-2.8-0.7-4.2c-0.3-1.7-0.6-3.4-0.9-5.1c-0.3-1.4-0.6-2.9-0.9-4.3
			c-0.3-1.6-0.7-3.3-1.1-4.9c-0.3-1.4-0.7-2.9-1.1-4.3c-0.4-1.6-0.8-3.2-1.3-4.7c-0.4-1.4-0.8-2.9-1.2-4.3c-0.5-1.5-0.9-3-1.4-4.5
			c-0.5-1.4-0.9-2.8-1.4-4.2c-0.5-1.5-1-2.9-1.6-4.4c-0.5-1.4-1-2.8-1.6-4.2c-0.6-1.4-1.1-2.8-1.7-4.2c-0.6-1.4-1.2-2.8-1.8-4.1
			c-0.6-1.4-1.2-2.7-1.9-4c-0.6-1.4-1.3-2.7-1.9-4.1c-0.6-1.3-1.3-2.6-2-3.8c-0.7-1.3-1.4-2.7-2.1-4c-0.7-1.2-1.4-2.5-2.1-3.7
			c-0.8-1.3-1.5-2.6-2.3-3.9c-0.7-1.2-1.5-2.3-2.3-3.5c-2.4-3.6-4.8-7.2-7.4-10.6l0,0c-1.8-2.4-3.7-4.8-5.7-7.2L473.5,309.9z"/>
	</g>
</g>
</svg>
