<svg xmlns="http://www.w3.org/2000/svg" xmlns:xlink="http://www.w3.org/1999/xlink" viewBox="0 0 120 120">
  <defs>
    <linearGradient id="linear-gradient" x1="70.25981" y1="36.43336" x2="103.44616" y2="36.43336" gradientUnits="userSpaceOnUse">
      <stop offset="0" stop-color="#6b32c1"/>
      <stop offset="0.99598" stop-color="#c81d5e"/>
    </linearGradient>
    <linearGradient id="linear-gradient-2" x1="19.46472" y1="36.43336" x2="59.99995" y2="36.43336" gradientUnits="userSpaceOnUse">
      <stop offset="0" stop-color="#ec663c"/>
      <stop offset="1" stop-color="#f9b426"/>
    </linearGradient>
    <linearGradient id="linear-gradient-3" x1="62.23646" y1="59.89537" x2="57.17465" y2="89.25389" gradientUnits="userSpaceOnUse">
      <stop offset="0" stop-color="#0081dd"/>
      <stop offset="0.18554" stop-color="#0589e0"/>
      <stop offset="0.47851" stop-color="#11a0e9"/>
      <stop offset="0.84034" stop-color="#25c5f8"/>
      <stop offset="0.99721" stop-color="#2fd7ff"/>
    </linearGradient>
    <linearGradient id="linear-gradient-4" x1="60" y1="68.57957" x2="60" y2="10.35527" gradientUnits="userSpaceOnUse">
      <stop offset="0" stop-color="#4e4d4c"/>
      <stop offset="0.12435" stop-color="#5a5858"/>
      <stop offset="0.46608" stop-color="#747273"/>
      <stop offset="0.76905" stop-color="#848183"/>
      <stop offset="1" stop-color="#8a8789"/>
    </linearGradient>
    <radialGradient id="radial-gradient" cx="54.40753" cy="38.95361" r="25.34453" gradientUnits="userSpaceOnUse">
      <stop offset="0" stop-color="#fff"/>
      <stop offset="0.21276" stop-color="#fefefe" stop-opacity="0.9895"/>
      <stop offset="0.38851" stop-color="#fcfcfb" stop-opacity="0.95672"/>
      <stop offset="0.55113" stop-color="#f9f9f6" stop-opacity="0.90149"/>
      <stop offset="0.70574" stop-color="#f4f4ee" stop-opacity="0.82378"/>
      <stop offset="0.85334" stop-color="#edeee5" stop-opacity="0.72455"/>
      <stop offset="0.99635" stop-color="#e5e6d9" stop-opacity="0.60343"/>
      <stop offset="1" stop-color="#e5e6d9" stop-opacity="0.6"/>
    </radialGradient>
    <linearGradient id="linear-gradient-5" x1="37.72739" y1="6.07439" x2="84.16675" y2="27.3141" gradientUnits="userSpaceOnUse">
      <stop offset="0" stop-color="#fff"/>
      <stop offset="0.13991" stop-color="#fff" stop-opacity="0.97028"/>
      <stop offset="0.35191" stop-color="#fff" stop-opacity="0.88831"/>
      <stop offset="0.60956" stop-color="#fff" stop-opacity="0.75427"/>
      <stop offset="0.90074" stop-color="#fff" stop-opacity="0.56961"/>
      <stop offset="0.99991" stop-color="#fff" stop-opacity="0.5"/>
    </linearGradient>
    <linearGradient id="linear-gradient-6" x1="75.05184" y1="29.58072" x2="85.54783" y2="82.34955" gradientUnits="userSpaceOnUse">
      <stop offset="0" stop-color="#fff"/>
      <stop offset="0.1216" stop-color="#fff" stop-opacity="0.97859"/>
      <stop offset="0.27524" stop-color="#fff" stop-opacity="0.91725"/>
      <stop offset="0.44615" stop-color="#fff" stop-opacity="0.81592"/>
      <stop offset="0.62953" stop-color="#fff" stop-opacity="0.67453"/>
      <stop offset="0.82073" stop-color="#fff" stop-opacity="0.49517"/>
      <stop offset="0.99991" stop-color="#fff" stop-opacity="0.3"/>
    </linearGradient>
  </defs>
  <title>OVRlogo</title>
  <g style="isolation: isolate">
    <g id="Livello_1" data-name="Livello 1">
      <g>
        <g>
          <path d="M98.74244,16.94345a9.47894,9.47894,0,0,0-4.03116-3.203L82.61715,8.67465,63.66672.73692A9.48859,9.48859,0,0,0,60,0V56.63231L98.75786,72.86673a9.48253,9.48253,0,0,0,1.77739-5.52932V22.49433A9.48248,9.48248,0,0,0,98.74244,16.94345Z" style="fill: url(#linear-gradient)"/>
          <path d="M56.33325.73692,26.326,13.306l-1.03714.43442a9.49184,9.49184,0,0,0-5.8241,8.75389V67.33741a9.48259,9.48259,0,0,0,1.77745,5.52932L60,56.63231V0A9.489,9.489,0,0,0,56.33325.73692Z" style="fill: url(#linear-gradient-2)"/>
          <path d="M60,56.63231,21.24217,72.86673a9.47878,9.47878,0,0,0,3.99477,3.20264L50.20771,86.70344,56.28144,89.29a9.49093,9.49093,0,0,0,7.43716,0l4.22765-1.80042L94.763,76.06937a9.479,9.479,0,0,0,3.99483-3.20264Z" style="fill: url(#linear-gradient-3)"/>
          <path d="M88.27676,23.39909a6.99631,6.99631,0,0,0-2.94222-2.46664l-8.827-3.90122L62.67622,10.91834a6.59391,6.59391,0,0,0-5.35244,0L35.42245,20.59788l-.75695.33455a6.99684,6.99684,0,0,0-2.9423,2.46666,7.57856,7.57856,0,0,0-1.30848,4.27475V62.20778A7.57951,7.57951,0,0,0,31.712,66.466a7.00131,7.00131,0,0,0,2.91568,2.46638L52.85294,77.1217l4.433,1.99192a6.59481,6.59481,0,0,0,5.4281,0L65.7997,77.7271l19.57265-8.79477A7.00106,7.00106,0,0,0,88.288,66.466a7.57912,7.57912,0,0,0,1.29725-4.25817V27.67385A7.578,7.578,0,0,0,88.27676,23.39909Z" style="opacity: 0.45;mix-blend-mode: color-burn;fill: url(#linear-gradient-4)"/>
          <circle cx="59.99999" cy="44.8956" r="19.11051" style="fill: url(#radial-gradient)"/>
          <path d="M94.71128,13.74047,82.61717,8.67466,63.66673.73693a9.49085,9.49085,0,0,0-7.33347,0L26.32592,13.306l-1.03713.43442a9.47954,9.47954,0,0,0-4.03126,3.203L60,33.44232,98.74245,16.94346A9.47932,9.47932,0,0,0,94.71128,13.74047Z" style="opacity: 0.76;mix-blend-mode: soft-light;fill: url(#linear-gradient-5)"/>
          <path d="M98.74245,16.94346,60,33.44232V90.04881A9.48883,9.48883,0,0,0,63.71856,89.29l4.22773-1.80042L94.76307,76.06937a9.492,9.492,0,0,0,5.77221-8.732v-44.843A9.48257,9.48257,0,0,0,98.74245,16.94346Z" style="mix-blend-mode: soft-light;fill: url(#linear-gradient-6)"/>
        </g>
        <g>
          <path d="M36.44587,99.87781a7.52176,7.52176,0,1,1-7.52176,7.52164,7.53022,7.53022,0,0,1,7.52176-7.52164m0-4.814a12.33569,12.33569,0,1,0,12.33574,12.33563A12.33563,12.33563,0,0,0,36.44587,95.06382"/>
          <path d="M68.87467,106.52932c-.19719.329-.72057,1.28212-1.62808,2.93837-.79154,1.44418-2.07781,3.47321-2.86715,4.86167l-5.2586-8.5617a20.60375,20.60375,0,0,0-11.22861-8.82473l12.54841,20.56575a4.98059,4.98059,0,0,0,4.11781,2.24439,4.33081,4.33081,0,0,0,2.3673-.68082c.70643-.44668.847-.10548,4.72924-7.18885.67594-1.23334,1.37492-2.50876,1.53272-2.77191a18.11921,18.11921,0,0,1,2.2395-2.99861V99.52009a22.19815,22.19815,0,0,0-6.55254,7.00923"/>
          <path d="M88.84542,95.09169a23.75041,23.75041,0,0,0-4.65132.459q-.131.02616-.26169.05378c-.08756.01853-.17487.0378-.26194.05719a23.52706,23.52706,0,0,0-4.54523,1.51357c-.0878.03951-.17474.08073-.26181.12133-.08743.04073-.17511.08073-.26193.12244V120h5.34675V100.65978a20.44678,20.44678,0,0,1,4.89717-.59264,18.45563,18.45563,0,0,1,4.60278.58l2.44156-4.488a23.64806,23.64806,0,0,0-7.04434-1.06738"/>
        </g>
      </g>
    </g>
  </g>
</svg>
