<svg id="Layer_1" data-name="Layer 1" xmlns="http://www.w3.org/2000/svg" viewBox="0 0 466.4 466.4"><defs><style>.cls-1{fill:#5f45ba;}.cls-2{fill:#fff;}</style></defs><title>Token_PurpleFLAT</title><g id="Layer_3" data-name="Layer 3"><circle class="cls-1" cx="233.2" cy="233.2" r="233.2"/></g><g id="Layer_4" data-name="Layer 4"><circle class="cls-2" cx="139.4" cy="130.7" r="15.2"/><circle class="cls-2" cx="91.4" cy="126.2" r="10.7"/><path class="cls-2" d="M512.1,615.8a118.38,118.38,0,0,0-6.5-235.7,115.94,115.94,0,0,0-22.9.8h0a97.73,97.73,0,0,0-28.9,7.3c-10.7,5.2-17.6,14-17.6,25.7a27.66,27.66,0,0,0,27.6,27.6c2.6,0,11.4-2.8,13.5-3.5a62.94,62.94,0,0,1,25-3.4A63.83,63.83,0,1,1,445,533.4h0c-12.7-16.7-9.8-43.3-9.8-43.7a27.64,27.64,0,0,0-54.3-6.3,56.67,56.67,0,0,0-.8,10A118.28,118.28,0,0,0,490.9,616.3a107.18,107.18,0,0,0,21.2-.5m-67.2-80.1Z" transform="translate(-267 -264)"/><circle class="cls-2" cx="119.7" cy="170.6" r="19.7"/></g></svg>