<?xml version="1.0" encoding="UTF-8"?>
<svg width="32px" height="32px" viewBox="0 0 32 32" version="1.1" xmlns="http://www.w3.org/2000/svg" xmlns:xlink="http://www.w3.org/1999/xlink">
    <title>PARSIQ Logo Copy</title>
    <g id="PARSIQ-Logo-Copy" stroke="none" stroke-width="1" fill="none" fill-rule="evenodd">
        <path d="M7.67778308,16.9241044 L7.67810939,21.5471044 L6.75410939,21.5475771 L6.75410939,25.2459453 L10.4524692,25.2459453 L10.4521094,24.3211044 L15.0747831,24.3211044 L15.075326,32.0000563 C6.9605955,31.5384285 0.461640425,25.0394587 1.37563886e-05,16.9247098 L7.67778308,16.9241044 Z M24.3210138,16.9239811 L32.0000163,16.9244938 C31.5384927,25.0393434 25.0394943,31.5384244 16.9246918,32.0000563 L16.9237831,24.3211044 L21.5471094,24.3211044 L21.5475486,25.2459453 L25.2459084,25.2459453 L25.2459084,21.5475771 L24.3211094,21.5471044 L24.3210138,16.9239811 Z M15.075419,16.9246169 L22.4720138,16.9239811 L22.4721094,21.5471044 L21.5475486,21.5475771 L21.5471094,22.4721044 L10.4521094,22.4721044 L10.4524692,21.5475771 L9.52710939,21.5471044 L9.52710939,10.4521044 L10.4524692,10.4524725 L10.4524692,6.75410436 L6.75410939,6.75410436 L6.75410939,10.4524725 L7.67810939,10.4521044 L7.67778308,15.0751044 L1.37563886e-05,15.0753399 C0.461644521,6.96051894 6.96071082,0.461505805 15.075542,-1.8876656e-05 L15.0750138,7.67798112 L21.5472223,7.67810436 L21.5475486,6.75410436 L25.2459084,6.75410436 L25.2459084,10.4524725 L21.5475486,10.4524725 L21.5472223,9.52710436 L15.0750138,9.52698112 L15.075419,16.9246169 Z" id="Combined-Shape" fill="#005CC7"></path>
    </g>
</svg>