<?xml version="1.0" encoding="utf-8"?>
<!-- Generator: Adobe Illustrator 23.0.1, SVG Export Plug-In . SVG Version: 6.00 Build 0)  -->
<svg version="1.1" id="Layer_1" xmlns="http://www.w3.org/2000/svg" xmlns:xlink="http://www.w3.org/1999/xlink" x="0px" y="0px"
	 viewBox="0 0 472.07 186.68" style="enable-background:new 0 0 472.07 186.68;" xml:space="preserve">
<style type="text/css">
	.st0{fill:#FFFFFF;}
	.st1{fill:#F0E914;}
	.st2{fill:#EDE80A;}
	.st3{fill:#EEE809;}
	.st4{fill:#DFC31C;}
	.st5{fill:#E6CB23;}
	.st6{fill:#CDA727;}
	.st7{fill:#CBB20F;}
	.st8{fill:#808285;}
</style>
<g>
	<path class="st1" d="M60.7,29.55c3.5-3.96,6.69-7.33,9.73-10.16c-51.47-1.66-36.49,35.55-53.26,73.36
		c-19.31,43.54,2.27,60.14,34.44,65.31c-4.46-5.26-8.1-11.28-10.87-17.78C19.89,114.02,28.28,66.19,60.7,29.55"/>
	<path class="st2" d="M184.55,75.93c-4.79,13.49-13.58,28.62-26,43.52c-9.68,11.61-20.45,20.75-31.57,27.37
		c-12.85,8.32-28.79,13.23-46.6,13.23c-9.97,0-19.78-0.55-28.76-2c5.31,6.26,11.76,11.45,19.26,15.08
		c46.53,22.5,49.47-19.3,98.7-40.51C197.23,120.71,197.33,97.43,184.55,75.93"/>
	<path class="st3" d="M126.97,32.43c6.86,1.25,13.38,3.51,19.21,6.8c15.63,8.84,29.86,22.37,38.38,36.7
		c8.38-23.61,4.48-42.17-13.86-45.53c-20.16-3.69-35.92-4.87-51.06-15.45c-18.65-13.03-35-8.73-49.19,4.44
		c1,0.03,2.02,0.08,3.08,0.14C93.2,20.69,111.98,24.52,126.97,32.43"/>
	<path class="st4" d="M60.7,29.55c-32.42,36.64-40.81,84.47-19.96,110.73C31.38,118.3,32.03,90.88,45.23,69
		c17.57-29.14,52.81-41.85,81.74-36.56c-14.99-7.92-33.77-11.74-53.45-12.91c-1.06-0.06-2.08-0.1-3.08-0.14
		C67.39,22.22,64.2,25.59,60.7,29.55"/>
	<path class="st5" d="M146.17,39.24c-5.83-3.3-12.34-5.55-19.21-6.8c19.74,10.42,32.87,27.92,32.72,55.8
		c-0.13,24.19-12.63,45.57-32.7,58.58c11.11-6.62,21.89-15.76,31.57-27.37c12.43-14.9,21.22-30.03,26-43.52
		C176.04,61.61,161.8,48.07,146.17,39.24"/>
	<path class="st6" d="M126.97,32.43C98.04,27.16,62.8,39.86,45.23,69c-13.2,21.89-13.85,49.3-4.48,71.28
		c2.77,6.5,6.41,12.52,10.87,17.78c8.98,1.44,18.79,1.99,28.76,1.99c17.82,0,33.76-4.91,46.6-13.23
		c20.08-13.01,32.58-34.39,32.7-58.58C159.84,60.35,146.7,42.85,126.97,32.43 M123.72,133.56c-22.28,14.32-51.99,7.93-66.37-14.27
		s-7.26-50.78,14.32-66.12c24.13-17.15,55.08-10.39,66.37,14.27C149.04,91.48,146,119.25,123.72,133.56"/>
</g>
<g>
	<g>
		<path class="st7" d="M271.92,132.71v25.84c-2.07,1.11-4.9,2.03-8.51,2.74c-3.61,0.71-7.24,1.07-10.89,1.07
			c-5.51,0-10.26-1.15-14.23-3.46s-7.01-5.63-9.11-9.98c-2.09-4.34-3.14-9.54-3.14-15.59c0-5.99,1.05-11.16,3.14-15.51
			c2.09-4.35,5.1-7.66,9.03-9.94c3.92-2.28,8.56-3.42,13.92-3.42c8,0,14.42,2.47,19.24,7.39l-2.07,3.9c-2.7-2.44-5.42-4.2-8.15-5.29
			c-2.73-1.09-5.76-1.63-9.11-1.63c-6.68,0-11.83,2.12-15.46,6.36c-3.63,4.24-5.45,10.29-5.45,18.13c0,8.01,1.84,14.13,5.53,18.37
			c3.68,4.24,9,6.36,15.94,6.36c5.35,0,10.31-0.88,14.87-2.62v-18.53h-14.95v-4.21H271.92z"/>
		<path class="st7" d="M305.12,158.87c-3.79-2.33-6.71-5.67-8.75-10.02c-2.04-4.34-3.06-9.49-3.06-15.43
			c0-5.94,1.01-11.08,3.02-15.43c2.01-4.35,4.92-7.69,8.71-10.02c3.79-2.33,8.28-3.5,13.48-3.5c5.2,0,9.7,1.17,13.52,3.5
			c3.82,2.33,6.73,5.66,8.75,9.98c2.01,4.32,3.02,9.45,3.02,15.39c0,5.94-1.02,11.09-3.06,15.47c-2.04,4.37-4.96,7.73-8.75,10.06
			c-3.79,2.33-8.28,3.5-13.48,3.5C313.38,162.37,308.91,161.2,305.12,158.87z M333.35,151.55c3.52-4.29,5.29-10.36,5.29-18.21
			c0-7.85-1.75-13.89-5.25-18.13c-3.5-4.24-8.46-6.36-14.87-6.36c-6.36,0-11.31,2.13-14.83,6.4c-3.53,4.27-5.29,10.3-5.29,18.09
			s1.76,13.85,5.29,18.17c3.52,4.32,8.47,6.48,14.83,6.48S329.83,155.85,333.35,151.55z"/>
		<path class="st7" d="M365.84,161.73v-56.62h4.93v52.32h29.26v4.29H365.84z"/>
		<path class="st7" d="M418.16,105.11h18.21c9.01,0,15.96,2.44,20.83,7.32c4.88,4.88,7.32,11.85,7.32,20.91
			c0,9.07-2.45,16.06-7.36,20.99c-4.9,4.93-11.83,7.39-20.79,7.39h-18.21V105.11z M436.13,157.44c7.69,0,13.47-2.03,17.34-6.08
			c3.87-4.06,5.8-10.06,5.8-18.01c0-15.96-7.71-23.94-23.14-23.94h-13.04v48.03H436.13z"/>
	</g>
	<g>
		<path class="st8" d="M227.48,31.82h23.54c5.94,0,10.56,1.45,13.88,4.34c3.31,2.89,4.97,6.83,4.97,11.81
			c0,4.98-1.68,8.92-5.05,11.81c-3.37,2.89-7.97,4.33-13.8,4.33h-15.35v24.33h-8.19V31.82z M250.06,57.59
			c3.92,0,6.88-0.82,8.87-2.47s2.98-4.03,2.98-7.16c0-3.07-0.99-5.43-2.98-7.08c-1.99-1.64-4.94-2.47-8.87-2.47h-14.39v19.17H250.06
			z"/>
		<path class="st8" d="M326.55,88.44l-6.04-14h-28.63l-6.04,14h-8.35l25.21-56.62h6.92l25.29,56.62H326.55z M294.67,67.92h23.06
			L306.2,40.97L294.67,67.92z"/>
		<path class="st8" d="M374.9,59.58l21.55,28.86h-9.7L370.21,65.7l-16.54,22.74h-9.7l21.55-28.94l-20.59-27.67h9.62l15.74,21.63
			l15.66-21.63h9.7L374.9,59.58z"/>
	</g>
</g>
</svg>
