<svg width="72" height="72" viewBox="0 0 72 72" fill="none" xmlns="http://www.w3.org/2000/svg">
<path fill-rule="evenodd" clip-rule="evenodd" d="M71.1456 32.5317L59.4854 12.3975C59.3904 12.1199 59.2158 11.8755 59.0015 11.6507C58.4446 10.8551 57.4956 10.3761 56.4589 10.3761C55.4165 10.3761 54.5657 10.8551 53.9081 11.6304L53.4381 12.4259L40.9051 34.1772L40.3344 35.179C40.2711 35.5054 40.1298 35.8658 40.1298 36.2571C40.1298 36.6549 40.2711 36.991 40.3344 37.3636L40.9051 38.3281L48.067 50.775C48.4283 51.297 48.5176 51.8466 48.5176 52.367C48.5176 53.4979 47.9639 54.5882 46.9224 55.1686C45.4018 56.0721 43.3917 55.538 42.5401 53.9988L38.8658 47.7639L38.6052 47.2549C38.0377 46.465 37.0668 45.9308 35.9903 45.9308C34.9374 45.9308 33.951 46.465 33.3973 47.2549L33.1327 47.7639L24.0021 63.4679L23.9688 63.584C23.6936 64.0865 23.4606 64.6653 23.4606 65.2994C23.4606 67.0724 24.9592 68.5183 26.7217 68.5183H50.3182C52.6311 68.5183 55.5992 66.8435 56.7195 64.805L71.1465 39.9842C72.2846 37.9368 72.2846 34.5742 71.1456 32.5317Z" fill="url(#paint0_linear)"/>
<path fill-rule="evenodd" clip-rule="evenodd" d="M31.6397 37.3644C31.7258 36.9918 31.867 36.6557 31.867 36.2579C31.867 35.8585 31.7258 35.5062 31.6397 35.1798L31.0958 34.1796L23.9282 21.7498C23.5661 21.2254 23.4598 20.6636 23.4598 20.1148C23.4598 19.0115 24.0305 17.9107 25.0542 17.318C26.5975 16.4348 28.5662 16.9771 29.4608 18.5228L33.1319 24.7349L33.3965 25.2536C33.951 26.0768 34.9366 26.628 35.9895 26.628C37.066 26.628 38.0361 26.076 38.6044 25.2536L38.865 24.7414L47.9802 9.02684L48.02 8.95539C48.3065 8.44151 48.5225 7.83586 48.5225 7.18235C48.5225 5.40608 47.0474 4 45.3531 4H21.6599C19.3568 4 16.3888 5.65046 15.2709 7.70436L0.877988 32.5316C-0.292667 34.5742 -0.292667 37.9368 0.877988 39.9842L12.5163 60.1386C12.643 60.3895 12.7826 60.6557 12.9653 60.8806C13.5506 61.6478 14.5045 62.1568 15.5388 62.1568C16.5527 62.1568 17.4417 61.6697 18.0822 60.8928L18.5636 60.0939L31.0966 38.3281L31.6397 37.3644Z" fill="url(#paint1_linear)"/>
<defs>
<linearGradient id="paint0_linear" x1="-3.22306" y1="22.5015" x2="38.5442" y2="76.0495" gradientUnits="userSpaceOnUse">
<stop stop-color="#17E2CF"/>
<stop offset="1" stop-color="#5181FD"/>
</linearGradient>
<linearGradient id="paint1_linear" x1="-9.69025" y1="26.0372" x2="32.1041" y2="79.5557" gradientUnits="userSpaceOnUse">
<stop stop-color="#17E2CF"/>
<stop offset="1" stop-color="#5181FD"/>
</linearGradient>
</defs>
</svg>
