<svg width="308" height="292" viewBox="0 0 308 292" fill="none" xmlns="http://www.w3.org/2000/svg">
<path d="M93.2926 129.73C88.6976 125.135 81.2475 125.135 76.6524 129.73C72.0574 134.325 72.0574 141.775 76.6524 146.37L145.467 215.185L162.107 198.545L93.2926 129.73Z" fill="#3CEAAA"/>
<path d="M145.987 93.6761C150.582 89.081 150.582 81.6309 145.987 77.0359C141.392 72.4408 133.942 72.4408 129.347 77.0359L76.653 129.73C72.058 134.325 72.058 141.775 76.653 146.37C81.2481 150.965 88.6982 150.965 93.2933 146.37L145.987 93.6761Z" fill="#3CEAAA"/>
<rect width="23.5328" height="70.5984" rx="11.7664" transform="matrix(0.707107 -0.707107 -0.707107 -0.707107 170.947 135.277)" fill="#3CEAAA"/>
<path d="M179.266 126.956C183.861 122.361 183.861 114.911 179.266 110.316C174.671 105.721 167.221 105.721 162.626 110.316L109.932 163.01C105.337 167.605 105.337 175.055 109.932 179.65C114.527 184.246 121.977 184.246 126.572 179.65L179.266 126.956Z" fill="#3CEAAA"/>
<path d="M214.823 129.73C219.418 125.135 226.868 125.135 231.463 129.73C236.058 134.325 236.058 141.775 231.463 146.37L162.498 215.335L145.858 198.695L214.823 129.73Z" fill="#1A5D73"/>
<path d="M162.127 93.6761C157.532 89.081 157.532 81.6309 162.127 77.0359C166.722 72.4408 174.172 72.4408 178.768 77.0359L231.462 129.73C236.057 134.325 236.057 141.775 231.462 146.37C226.867 150.965 219.416 150.965 214.821 146.37L162.127 93.6761Z" fill="#1A5D73"/>
<rect x="137.167" y="135.277" width="23.5328" height="70.5984" rx="11.7664" transform="rotate(-135 137.167 135.277)" fill="#1A5D73"/>
<path d="M128.848 126.957C124.253 122.362 124.253 114.911 128.848 110.316C133.443 105.721 140.893 105.721 145.488 110.316L198.182 163.01C202.777 167.605 202.777 175.056 198.182 179.651C193.587 184.246 186.137 184.246 181.542 179.651L128.848 126.957Z" fill="#1A5D73"/>
<rect x="135.85" y="100.64" width="23.5054" height="37.9173" transform="rotate(-45 135.85 100.64)" fill="#3CEAAA"/>
<circle cx="154.032" cy="207.224" r="11.7664" fill="#1A5D73"/>
</svg>
