<svg xmlns="http://www.w3.org/2000/svg" xmlns:xlink="http://www.w3.org/1999/xlink" viewBox="0 0 680.31 680.31"><defs><style>.cls-1{isolation:isolate;}.cls-2{fill:#656569;}.cls-3{fill:url(#linear-gradient);}.cls-4{fill:url(#linear-gradient-2);}.cls-5{fill:url(#linear-gradient-3);}.cls-6{fill:#757578;}.cls-7{fill:#6c6d70;}.cls-8{fill:#55565a;}.cls-9{fill:#202125;}.cls-10,.cls-11,.cls-12,.cls-13,.cls-14,.cls-15,.cls-9{opacity:0.7;mix-blend-mode:multiply;}.cls-10{fill:#2b2b31;}.cls-11{fill:#4d4b50;}.cls-12{fill:#3c3b41;}.cls-13{fill:#3f3e43;}.cls-14{fill:#434247;}.cls-15{fill:#4f4d52;}</style><linearGradient id="linear-gradient" x1="195.99" y1="349.39" x2="441.31" y2="349.39" gradientUnits="userSpaceOnUse"><stop offset="0" stop-color="#a3a2a5"/><stop offset="0.27" stop-color="#9f9ea1"/><stop offset="0.56" stop-color="#929194"/><stop offset="0.86" stop-color="#7c7c7f"/><stop offset="1" stop-color="#707073"/></linearGradient><linearGradient id="linear-gradient-2" x1="194.36" y1="320.66" x2="368.67" y2="148.04" gradientUnits="userSpaceOnUse"><stop offset="0" stop-color="#969598"/><stop offset="0.34" stop-color="#908f92"/><stop offset="0.79" stop-color="#7f7f82"/><stop offset="1" stop-color="#757578"/></linearGradient><linearGradient id="linear-gradient-3" x1="207.8" y1="318.23" x2="300.91" y2="502.88" gradientUnits="userSpaceOnUse"><stop offset="0" stop-color="#9e9ea0"/><stop offset="0.28" stop-color="#9b9b9d"/><stop offset="0.49" stop-color="#919193"/><stop offset="0.69" stop-color="#808183"/><stop offset="0.88" stop-color="#696a6d"/><stop offset="1" stop-color="#55565a"/></linearGradient></defs><title>Kleros symbol</title><g class="cls-1"><g id="Capa_1" data-name="Capa 1"><polygon class="cls-2" points="576.33 354.98 441.31 218.06 405.8 480.71 576.33 354.98"/><polygon class="cls-3" points="195.99 324.18 441.31 218.06 405.8 480.71 195.99 324.18"/><polygon class="cls-4" points="441.31 218.06 241.99 131.53 195.99 324.18 441.31 218.06"/><polygon class="cls-5" points="195.99 324.18 200.69 534.29 405.8 480.71 195.99 324.18"/><polygon class="cls-6" points="441.31 218.06 479 142.11 241.99 131.53 441.31 218.06"/><polygon class="cls-7" points="479 142.11 576.33 354.98 441.31 218.06 479 142.11"/><polygon class="cls-7" points="576.33 354.98 440.06 548.78 405.8 480.71 576.33 354.98"/><polygon class="cls-8" points="440.06 548.78 200.69 534.29 405.8 480.71 440.06 548.78"/><polygon class="cls-8" points="241.99 131.53 103.99 303.91 195.99 324.18 241.99 131.53"/><polygon class="cls-2" points="103.99 303.91 200.69 534.29 195.99 324.18 103.99 303.91"/><polygon class="cls-9" points="416.21 254.24 391.34 442.53 244.78 329.17 416.21 254.24"/><polygon class="cls-9" points="396.36 216.69 259.37 157.68 230.59 281.75 396.36 216.69"/><polygon class="cls-10" points="361.64 471.05 212.75 364.69 216.35 508.82 361.64 471.05"/><polygon class="cls-10" points="551.31 354.51 449.85 251.51 423.07 449.57 551.31 354.51"/><polygon class="cls-11" points="396.54 494.22 418.64 536.51 270.98 527.05 396.54 494.22"/><polygon class="cls-12" points="531.48 401.24 421.57 483.16 443.41 525.86 531.48 401.24"/><polygon class="cls-12" points="479.49 171.85 537.6 296.51 458.14 215.7 479.49 171.85"/><polygon class="cls-13" points="452.89 150.87 428.45 195.57 313.35 145.21 452.89 150.87"/><polygon class="cls-14" points="222.42 171.15 190.03 308.47 124.68 294.62 222.42 171.15"/><polygon class="cls-15" points="186.09 332.69 188.94 480.26 120.43 318.78 186.09 332.69"/></g></g></svg>