<?xml version="1.0" encoding="utf-8"?>
<!-- Generator: Adobe Illustrator 24.3.0, SVG Export Plug-In . SVG Version: 6.00 Build 0)  -->
<svg version="1.1" id="레이어_1" xmlns="http://www.w3.org/2000/svg" xmlns:xlink="http://www.w3.org/1999/xlink" x="0px"
	 y="0px" viewBox="0 0 512 512" style="enable-background:new 0 0 512 512;" xml:space="preserve">
<style type="text/css">
	.st0{fill:#04D6B4;}
	.st1{fill:#FFFFFF;}
</style>
<g id="레이어_2_1_">
	<g id="레이어_1-2">
		<rect x="0.2" y="0.5" class="st0" width="512" height="512"/>
		<path class="st1" d="M150,175.2c-4-2.5-7.5-5.5-10.6-9V379c-0.8,20.3,15,37.5,35.3,38.3c20.3,0.8,37.5-15,38.3-35.3c0-1,0-2,0-3
			V214.6L150,175.2z"/>
		<path class="st1" d="M403.9,236.6c-10.8-17.3-33.5-22.5-50.8-11.7c0,0,0,0,0,0l-127.6,79.7V379c0,4.7-0.7,9.3-2,13.8l168.6-105.4
			C409.5,276.6,414.7,253.9,403.9,236.6C403.9,236.6,403.9,236.6,403.9,236.6z"/>
		<path class="st1" d="M156.7,164.6l134.6,84.2l55.2-34.5c5.4-3.4,11.5-5.7,17.8-6.8L195.7,102.1c-17.3-10.8-40-5.5-50.8,11.7
			S139.4,153.8,156.7,164.6z"/>
	</g>
</g>
</svg>
