<?xml version="1.0" encoding="utf-8"?>
<!-- Generator: Adobe Illustrator 22.0.1, SVG Export Plug-In . SVG Version: 6.00 Build 0)  -->
<!DOCTYPE svg PUBLIC "-//W3C//DTD SVG 1.1//EN" "http://www.w3.org/Graphics/SVG/1.1/DTD/svg11.dtd">
<svg version="1.1" id="Layer_1" xmlns="http://www.w3.org/2000/svg" xmlns:xlink="http://www.w3.org/1999/xlink" x="0px" y="0px"
	 viewBox="0 0 123 123" style="enable-background:new 0 0 123 123;" xml:space="preserve">
<style type="text/css">
	.st0{fill-rule:evenodd;clip-rule:evenodd;fill:#F8B233;}
	.st1{fill-rule:evenodd;clip-rule:evenodd;fill:#FFD53D;}
	.st2{fill-rule:evenodd;clip-rule:evenodd;fill:#D7811C;}
	.st3{fill-rule:evenodd;clip-rule:evenodd;fill:#1D1D1B;}
</style>
<g>
	<polygon class="st0" points="14.5,71 60.4,117.9 60.4,99.1 14.5,52.5 	"/>
	<polygon class="st1" points="60.4,5.9 14.5,52.5 60.4,99.1 106.2,52.5 	"/>
	<polygon class="st2" points="60.4,99.1 60.4,117.9 106.1,70.9 106.2,52.5 	"/>
	<path class="st3" d="M24.7,52.1l35.7-36.3l35.7,36.3L60.4,88.3L24.7,52.1z M60.4,9.3L18.3,52.1l42.1,42.8l42.1-42.8L60.4,9.3z"/>
	<path class="st3" d="M61.1,28.6v46.2l22.8-23.1L61.1,28.6z M65.5,39.6l12,12.1l-12,12.1V39.6z"/>
</g>
</svg>
