<svg width="256" height="256" viewBox="0 0 256 256" fill="none" xmlns="http://www.w3.org/2000/svg">
<mask id="mask0" mask-type="alpha" maskUnits="userSpaceOnUse" x="18" y="0" width="221" height="256">
<path d="M239 191.484V64.5157L128.5 0L18 64.5157L18 191.484L128.5 256L239 191.484Z" fill="white"/>
</mask>
<g mask="url(#mask0)">
<path d="M71.7008 -8.70479L83.647 -29.394L71.8914 -51.5058L46.8623 -50.6295L34.9161 -29.9403L46.6717 -7.82849L71.7008 -8.70479Z" fill="#995BFC"/>
<path d="M60.4183 10.835L72.3645 -9.85427L60.6089 -31.966L35.5798 -31.0897L23.6336 -10.4005L35.3892 11.7113L60.4183 10.835Z" fill="#8840FA"/>
<path d="M49.1358 30.3748L61.082 9.68558L49.3264 -12.4262L24.2973 -11.5499L12.3511 9.13937L24.1067 31.2511L49.1358 30.3748Z" fill="#7927FB"/>
<path d="M37.8534 49.9147L49.7995 29.2254L38.044 7.11367L13.0148 7.98997L1.06866 28.6792L12.8242 50.791L37.8534 49.9147Z" fill="#6511E9"/>
<path d="M26.5709 69.4545L38.5171 48.7653L26.7615 26.6535L1.73237 27.5298L-10.2138 48.2191L1.54177 70.3308L26.5709 69.4545Z" fill="#5A0BD7"/>
<path d="M15.2887 88.9944L27.2348 68.3052L15.4793 46.1934L-9.54985 47.0697L-21.496 67.7589L-9.74046 89.8707L15.2887 88.9944Z" fill="#5107C5"/>
<path d="M4.00594 108.534L15.9521 87.845L4.19655 65.7332L-20.8326 66.6095L-32.7788 87.2988L-21.0232 109.411L4.00594 108.534Z" fill="#4706AF"/>
<path d="M71.7008 -8.70479L83.647 -29.394L71.8914 -51.5058L46.8623 -50.6295L34.9161 -29.9403L46.6717 -7.82849L71.7008 -8.70479Z" fill="#8335FF"/>
<path d="M60.4183 10.835L72.3645 -9.85427L60.6089 -31.966L35.5798 -31.0897L23.6336 -10.4005L35.3892 11.7113L60.4183 10.835Z" fill="#7926FD"/>
<path d="M49.1358 30.3748L61.082 9.68558L49.3264 -12.4262L24.2973 -11.5499L12.3511 9.13937L24.1067 31.2511L49.1358 30.3748Z" fill="#7019FB"/>
<path d="M37.8534 49.9147L49.7995 29.2254L38.044 7.11367L13.0148 7.98997L1.06866 28.6792L12.8242 50.791L37.8534 49.9147Z" fill="#6511E9"/>
<path d="M26.5709 69.4545L38.5171 48.7653L26.7615 26.6535L1.73237 27.5298L-10.2138 48.2191L1.54177 70.3308L26.5709 69.4545Z" fill="#5A0BD7"/>
<path d="M15.2887 88.9944L27.2348 68.3052L15.4793 46.1934L-9.54985 47.0697L-21.496 67.7589L-9.74046 89.8707L15.2887 88.9944Z" fill="#5107C5"/>
<path d="M4.00594 108.534L15.9521 87.845L4.19655 65.7332L-20.8326 66.6095L-32.7788 87.2988L-21.0232 109.411L4.00594 108.534Z" fill="#4706AF"/>
<path d="M108.486 12.5307L120.432 -8.15853L108.676 -30.2703L83.6472 -29.394L71.701 -8.70474L83.4566 13.407L108.486 12.5307Z" fill="#8335FF"/>
<path d="M97.2032 32.0705L109.149 11.3813L97.3938 -10.7305L72.3647 -9.85421L60.4185 10.835L72.1741 32.9468L97.2032 32.0705Z" fill="#7926FD"/>
<path d="M85.9207 51.6104L97.8669 30.9211L86.1113 8.80934L61.0822 9.68564L49.136 30.3749L60.8916 52.4867L85.9207 51.6104Z" fill="#7019FB"/>
<path d="M74.6383 71.1502L86.5845 50.461L74.8289 28.3492L49.7998 29.2255L37.8536 49.9148L49.6092 72.0265L74.6383 71.1502Z" fill="#6511E9"/>
<path d="M63.3556 90.6901L75.3017 70.0008L63.5462 47.8891L38.517 48.7654L26.5709 69.4546L38.3264 91.5664L63.3556 90.6901Z" fill="#5A0BD7"/>
<path d="M52.0733 110.23L64.0195 89.5407L52.2639 67.4289L27.2348 68.3052L15.2886 88.9945L27.0442 111.106L52.0733 110.23Z" fill="#5107C5"/>
<path d="M40.7906 129.77L52.7368 109.081L40.9812 86.9688L15.9521 87.8451L4.00592 108.534L15.7615 130.646L40.7906 129.77Z" fill="#4706AF"/>
<path d="M29.5081 149.31L41.4543 128.62L29.6987 106.509L4.66963 107.385L-7.27655 128.074L4.47903 150.186L29.5081 149.31Z" fill="#3A0492"/>
<path d="M18.2254 168.849L30.1716 148.16L18.416 126.048L-6.61309 126.925L-18.5593 147.614L-6.80369 169.726L18.2254 168.849Z" fill="#30017B"/>
<path d="M6.9432 188.389L18.8894 167.7L7.1338 145.588L-17.8953 146.465L-29.8415 167.154L-18.0859 189.266L6.9432 188.389Z" fill="#2A026C"/>
<path d="M145.27 33.7661L157.216 13.0769L145.461 -9.03488L120.432 -8.15858L108.485 12.5307L120.241 34.6424L145.27 33.7661Z" fill="#8335FF"/>
<path d="M133.988 53.3059L145.934 32.6167L134.178 10.5049L109.149 11.3812L97.2029 32.0705L108.959 54.1822L133.988 53.3059Z" fill="#7926FD"/>
<path d="M122.705 72.8458L134.652 52.1565L122.896 30.0448L97.8669 30.9211L85.9207 51.6103L97.6763 73.7221L122.705 72.8458Z" fill="#7019FB"/>
<path d="M111.423 92.3856L123.369 71.6964L111.614 49.5846L86.5844 50.4609L74.6382 71.1502L86.3938 93.2619L111.423 92.3856Z" fill="#6511E9"/>
<path d="M100.14 111.925L112.086 91.2362L100.331 69.1245L75.3017 70.0008L63.3555 90.69L75.1111 112.802L100.14 111.925Z" fill="#5A0BD7"/>
<path d="M88.8578 131.465L100.804 110.776L89.0484 88.6643L64.0192 89.5406L52.0731 110.23L63.8286 132.342L88.8578 131.465Z" fill="#5107C5"/>
<path d="M77.575 151.005L89.5212 130.316L77.7656 108.204L52.7365 109.08L40.7903 129.77L52.5459 151.882L77.575 151.005Z" fill="#4706AF"/>
<path d="M66.2928 170.545L78.239 149.856L66.4834 127.744L41.4543 128.62L29.5081 149.31L41.2637 171.421L66.2928 170.545Z" fill="#3A0492"/>
<path d="M55.0101 190.085L66.9563 169.396L55.2007 147.284L30.1716 148.16L18.2254 168.849L29.981 190.961L55.0101 190.085Z" fill="#30017B"/>
<path d="M43.7276 209.625L55.6738 188.935L43.9182 166.824L18.8891 167.7L6.94293 188.389L18.6985 210.501L43.7276 209.625Z" fill="#2A026C"/>
<path d="M182.055 55.0016L194.001 34.3124L182.246 12.2006L157.217 13.0769L145.27 33.7661L157.026 55.8779L182.055 55.0016Z" fill="#8335FF"/>
<path d="M170.773 74.5414L182.719 53.8521L170.963 31.7404L145.934 32.6167L133.988 53.3059L145.743 75.4177L170.773 74.5414Z" fill="#7926FD"/>
<path d="M159.49 94.0812L171.437 73.392L159.681 51.2802L134.652 52.1565L122.706 72.8458L134.461 94.9575L159.49 94.0812Z" fill="#7019FB"/>
<path d="M148.208 113.621L160.154 92.9318L148.398 70.8201L123.369 71.6964L111.423 92.3856L123.179 114.497L148.208 113.621Z" fill="#6511E9"/>
<path d="M136.925 133.161L148.871 112.472L137.116 90.3599L112.087 91.2362L100.14 111.925L111.896 134.037L136.925 133.161Z" fill="#5A0BD7"/>
<path d="M125.643 152.701L137.589 132.012L125.833 109.9L100.804 110.776L88.858 131.465L100.614 153.577L125.643 152.701Z" fill="#5107C5"/>
<path d="M114.36 172.241L126.306 151.551L114.551 129.44L89.5217 130.316L77.5755 151.005L89.3311 173.117L114.36 172.241Z" fill="#4706AF"/>
<path d="M103.078 191.781L115.024 171.091L103.268 148.979L78.2392 149.856L66.293 170.545L78.0486 192.657L103.078 191.781Z" fill="#3A0492"/>
<path d="M91.7953 211.32L103.741 190.631L91.9859 168.519L66.9567 169.396L55.0106 190.085L66.7661 212.197L91.7953 211.32Z" fill="#30017B"/>
<path d="M80.5125 230.86L92.4587 210.171L80.7031 188.059L55.674 188.935L43.7278 209.625L55.4834 231.737L80.5125 230.86Z" fill="#2A026C"/>
<path d="M218.84 76.2371L230.786 55.5478L219.03 33.436L194.001 34.3123L182.055 55.0016L193.811 77.1134L218.84 76.2371Z" fill="#8335FF"/>
<path d="M207.557 95.7768L219.503 75.0876L207.748 52.9758L182.718 53.8521L170.772 74.5414L182.528 96.6531L207.557 95.7768Z" fill="#7926FD"/>
<path d="M196.275 115.317L208.221 94.6274L196.465 72.5157L171.436 73.392L159.49 94.0812L171.246 116.193L196.275 115.317Z" fill="#7019FB"/>
<path d="M184.992 134.857L196.938 114.167L185.183 92.0555L160.154 92.9318L148.208 113.621L159.963 135.733L184.992 134.857Z" fill="#6511E9"/>
<path d="M173.71 154.396L185.656 133.707L173.9 111.595L148.871 112.472L136.925 133.161L148.681 155.273L173.71 154.396Z" fill="#5A0BD7"/>
<path d="M162.427 173.936L174.374 153.247L162.618 131.135L137.589 132.012L125.643 152.701L137.398 174.813L162.427 173.936Z" fill="#5107C5"/>
<path d="M151.145 193.476L163.091 172.787L151.335 150.675L126.306 151.551L114.36 172.241L126.116 194.352L151.145 193.476Z" fill="#4706AF"/>
<path d="M139.862 213.016L151.809 192.327L140.053 170.215L115.024 171.091L103.078 191.781L114.833 213.892L139.862 213.016Z" fill="#3A0492"/>
<path d="M128.58 232.556L140.526 211.867L128.77 189.755L103.741 190.631L91.795 211.32L103.551 233.432L128.58 232.556Z" fill="#30017B"/>
<path d="M117.297 252.096L129.243 231.406L117.488 209.295L92.4587 210.171L80.5125 230.86L92.2681 252.972L117.297 252.096Z" fill="#2A026C"/>
<path d="M255.624 97.4725L267.571 76.7833L255.815 54.6715L230.786 55.5478L218.84 76.2371L230.595 98.3488L255.624 97.4725Z" fill="#8335FF"/>
<path d="M244.342 117.012L256.288 96.3231L244.532 74.2113L219.503 75.0876L207.557 95.7768L219.313 117.889L244.342 117.012Z" fill="#7926FD"/>
<path d="M233.059 136.552L245.006 115.863L233.25 93.7511L208.221 94.6274L196.275 115.317L208.03 137.428L233.059 136.552Z" fill="#7019FB"/>
<path d="M221.777 156.092L233.723 135.403L221.968 113.291L196.938 114.167L184.992 134.857L196.748 156.968L221.777 156.092Z" fill="#6511E9"/>
<path d="M210.494 175.632L222.441 154.943L210.685 132.831L185.656 133.707L173.71 154.396L185.465 176.508L210.494 175.632Z" fill="#5A0BD7"/>
<path d="M199.212 195.172L211.158 174.482L199.403 152.371L174.373 153.247L162.427 173.936L174.183 196.048L199.212 195.172Z" fill="#5107C5"/>
<path d="M187.93 214.712L199.876 194.022L188.12 171.911L163.091 172.787L151.145 193.476L162.9 215.588L187.93 214.712Z" fill="#4706AF"/>
<path d="M176.647 234.251L188.593 213.562L176.838 191.45L151.809 192.327L139.862 213.016L151.618 235.128L176.647 234.251Z" fill="#3A0492"/>
<path d="M165.365 253.791L177.311 233.102L165.555 210.99L140.526 211.867L128.58 232.556L140.335 254.668L165.365 253.791Z" fill="#30017B"/>
<path d="M154.082 273.331L166.028 252.642L154.272 230.53L129.243 231.406L117.297 252.096L129.053 274.207L154.082 273.331Z" fill="#2A026C"/>
<path d="M281.127 138.248L293.073 117.559L281.317 95.4468L256.288 96.3231L244.342 117.012L256.097 139.124L281.127 138.248Z" fill="#7926FD"/>
<path d="M269.844 157.788L281.791 137.098L270.035 114.987L245.006 115.863L233.06 136.552L244.815 158.664L269.844 157.788Z" fill="#7019FB"/>
<path d="M258.562 177.328L270.508 156.638L258.752 134.526L233.723 135.403L221.777 156.092L233.533 178.204L258.562 177.328Z" fill="#6511E9"/>
<path d="M247.279 196.867L259.225 176.178L247.47 154.066L222.441 154.943L210.494 175.632L222.25 197.744L247.279 196.867Z" fill="#5A0BD7"/>
<path d="M235.997 216.407L247.943 195.718L236.187 173.606L211.158 174.482L199.212 195.172L210.968 217.284L235.997 216.407Z" fill="#5107C5"/>
<path d="M224.714 235.947L236.66 215.258L224.905 193.146L199.876 194.022L187.93 214.712L199.685 236.823L224.714 235.947Z" fill="#4706AF"/>
<path d="M213.432 255.487L225.378 234.798L213.622 212.686L188.593 213.562L176.647 234.251L188.403 256.363L213.432 255.487Z" fill="#3A0492"/>
<path d="M202.149 275.027L214.095 254.338L202.34 232.226L177.31 233.102L165.364 253.791L177.12 275.903L202.149 275.027Z" fill="#30017B"/>
<path d="M190.867 294.567L202.813 273.877L191.057 251.766L166.028 252.642L154.082 273.331L165.837 295.443L190.867 294.567Z" fill="#2A026C"/>
<path d="M272.781 237.643L284.728 216.953L272.972 194.842L247.943 195.718L235.997 216.407L247.752 238.519L272.781 237.643Z" fill="#5107C5"/>
<path d="M261.499 257.183L273.445 236.493L261.689 214.382L236.66 215.258L224.714 235.947L236.47 258.059L261.499 257.183Z" fill="#4706AF"/>
<path d="M250.216 276.722L262.163 256.033L250.407 233.921L225.378 234.798L213.432 255.487L225.187 277.599L250.216 276.722Z" fill="#3A0492"/>
<path d="M238.934 296.262L250.88 275.573L239.125 253.461L214.095 254.338L202.149 275.027L213.905 297.139L238.934 296.262Z" fill="#30017B"/>
<path fill-rule="evenodd" clip-rule="evenodd" d="M158.224 70.8795C175.311 70.8795 189.163 84.8084 189.163 101.991V119.879C189.163 137.062 175.311 150.991 158.224 150.991C155.54 150.991 152.936 150.647 150.453 150.001V151.898C150.453 164.713 140.064 175.102 127.249 175.102V106.657H127.285V101.991C127.285 84.8084 141.137 70.8795 158.224 70.8795ZM158.224 94.2125C153.952 94.2125 150.49 97.6948 150.49 101.99V119.879C150.49 124.175 153.952 127.657 158.224 127.657C162.496 127.657 165.959 124.175 165.959 119.879V101.99C165.959 97.6948 162.496 94.2125 158.224 94.2125Z" fill="white"/>
<path d="M116.408 175.486V163.419C116.408 151.771 110.763 139.643 95.2117 139.643C80.0202 139.643 74.376 151.951 74.376 162.878V175.486H116.408ZM82.422 165.76V163.839C82.422 155.073 87.0455 149.97 95.7521 149.97C104.939 149.97 108.362 156.214 108.362 165.22V165.76H82.422Z" fill="white"/>
<path d="M116.408 94.6125L74.376 110.283V118.028L116.408 135.499V124.752L109.022 122.11V108.241L116.408 105.78V94.6125ZM89.1471 114.966V114.906L101.276 110.883V119.289L89.1471 114.966Z" fill="white"/>
<path d="M116.408 77.9946H74.376V87.7209H116.408V77.9946Z" fill="white"/>
</g>
</svg>
