<?xml version="1.0" encoding="UTF-8"?>
<svg width="44px" height="44px" viewBox="0 0 44 44" version="1.1" xmlns="http://www.w3.org/2000/svg" xmlns:xlink="http://www.w3.org/1999/xlink">
    <title>plr_color</title>
    <g id="plr_color" stroke="none" stroke-width="1" fill="none" fill-rule="evenodd">
        <path d="M44,22 C44,34.15038 34.15038,44 22,44 C9.84984,44 0,34.15038 0,22 C0,9.84962 9.84984,0 22,0 C34.15038,0 44,9.84962 44,22" id="Fill-506" fill="#00BFFF"></path>
        <path d="M13.5672153,27.1277274 L13.4640106,27.1277274 L13.4640106,31.4065933 L11.0129006,31.4065933 L11.0129006,16.9191724 L13.4124083,16.9191724 L13.4124083,17.5857152 L13.5055792,17.5857152 C14.3426834,16.7963139 15.4091313,16.7751314 16.0054247,16.7751314 C18.5110039,16.7751314 20.1565444,19.1278015 20.1565444,22.269873 L20.1565444,22.6779893 C20.1565444,25.948568 18.2529923,27.8973584 15.9638562,27.8973584 C14.8916747,27.8973584 14.096139,27.6558778 13.5672153,27.1277274 Z M17.8803089,22.870044 L17.8803089,22.1568997 C17.8803089,20.1106697 17.0905068,18.7394556 15.6771766,18.7394556 C14.1506081,18.7394556 13.3350048,20.3323799 13.3350048,22.1540753 L13.3350048,22.8629831 C13.3350048,24.6027728 14.1405743,25.9330341 15.7187452,25.9330341 C16.9600676,25.9330341 17.8803089,24.9784093 17.8803089,22.870044 Z" id="Shape" fill="#FFFFFF" fill-rule="nonzero"></path>
        <polygon id="Shape" fill="#FFFFFF" fill-rule="nonzero" points="21.3820994 12.5739346 23.8332095 12.5739346 23.8332095 27.758966 21.3820994 27.758966"></polygon>
        <path d="M30.788055,19.2012342 C29.4062597,19.2012342 28.0359315,20.2801298 28.0359315,21.6428709 C28.0359315,22.5720767 28.0359315,27.767439 28.0359315,27.767439 L25.5848214,27.767439 L25.5848214,16.9092872 L27.85389,16.9092872 L27.85389,17.57583 L27.9470608,17.57583 C28.4989189,17.0053146 29.8477461,16.7370029 30.9557625,16.7511245 C31.0661342,16.7525367 30.9758301,16.7539489 31.0819015,16.7539489 L31.0933687,19.1969977 L30.788055,19.2012342 Z" id="Shape" fill="#FFFFFF" fill-rule="nonzero"></path>
        <polygon id="Rectangle-path" fill="#FFFFFF" fill-rule="nonzero" points="29.7545753 25.1577545 32.2056853 25.1577545 32.2056853 27.7575538 29.7545753 27.7575538"></polygon>
    </g>
</svg>