<?xml version="1.0" encoding="utf-8"?>
<!-- Generator: Adobe Illustrator 19.0.0, SVG Export Plug-In . SVG Version: 6.00 Build 0)  -->
<svg version="1.1" id="Слой_1" xmlns="http://www.w3.org/2000/svg" xmlns:xlink="http://www.w3.org/1999/xlink" x="0px" y="0px"
	 viewBox="0 0 360 360" enable-background="new 0 0 360 360" xml:space="preserve">
<g id="XMLID_763_">
	<circle id="XMLID_764_" fill="#213654" cx="221.712" cy="157.631" r="0.277"/>
	<path id="XMLID_784_" fill="#213654" d="M39.256,99.14V260.72l139.933,80.79l139.933-80.79V99.14L179.189,18.35L39.256,99.14z
		 M155.855,140.502c-0.079,0.001-8.082-0.021-11.608,0.374c-4.263,0.478-10.395,2.116-13.646,5.161
		c-3.45,3.231-3.771,7.202-2.987,17.493c0.722,9.469,0.453,13.43,0.395,14.099c0.009,0.974-0.088,8.354-4.943,13.006
		c-5.053,4.842-13.209,4.897-13.554,4.897h-4.989v-3h4.989c0.071,0,7.307-0.065,11.478-4.063c4.148-3.976,4.021-10.791,4.019-10.859
		l-0.002-0.098l0.01-0.098c0.003-0.033,0.36-3.762-0.394-13.657c-0.785-10.297-0.653-15.619,3.928-19.91
		c4.884-4.574,13.654-5.761,15.362-5.953c3.697-0.415,11.615-0.393,11.952-0.393L155.855,140.502z M153.711,121.445
		c0.255,1.762,1.307,3.329,3.125,4.656c6.204,4.527,11.775-2.783,12.009-3.096l10.591-15.062c0.266-0.336,5.274-6.496,11.7-6.286
		c6.213,0.21,12.114,5.354,12.362,5.573l-1.983,2.251c-0.053-0.046-5.353-4.652-10.48-4.826c-4.903-0.141-9.159,5.037-9.201,5.089
		l-10.56,15.021c-1.85,2.476-5.74,5.818-10.277,5.818c-1.897,0-3.907-0.584-5.929-2.06c-2.504-1.828-3.96-4.075-4.329-6.677
		c-0.633-4.476,2.272-8.288,2.396-8.448l1.186,0.918l1.189,0.915C155.486,115.261,153.246,118.236,153.711,121.445z
		 M214.431,264.375l-0.269,0.141c-0.385,0.157-9.559,4.092-7.158,17.788l-2.955,0.518c-2.643-15.075,7.365-20.334,8.826-21.015
		c2.237-1.5,7.715-5.99,7.715-9.788c0-5.075-5.184-10.884-7.136-13.07c-0.226-0.253-0.414-0.464-0.555-0.628
		c-0.219-0.256-0.481-0.537-0.772-0.849c-1.63-1.748-4.358-4.672-5.431-9.344c-1.555-6.769,9.251-13.901,10.488-14.692l1.617,2.527
		c-2.673,1.712-10.098,7.5-9.181,11.494c0.893,3.887,3.094,6.246,4.701,7.969c0.323,0.347,0.614,0.66,0.857,0.943
		c0.131,0.152,0.306,0.348,0.515,0.582c2.16,2.42,7.898,8.849,7.898,15.068C223.591,258.169,215.368,263.758,214.431,264.375z
		 M197.094,90.104c16.801-11.537,32.669-1.393,32.833-1.286c0.422,0.25,11.649,7.058,12.811,17.978
		c0.973,9.145-3.867,15.943-5.989,18.439c0.097,0.149,0.177,0.309,0.216,0.487l4.87,22.11c0.056,0.253,0.045,0.518-0.031,0.766
		l-0.585,1.894c-0.119,0.383-0.386,0.703-0.741,0.888l-1.782,0.927l0.188,1.3c0.848,1.262,4.34,6.492,7.672,11.932
		c8.081,13.191,7.413,14.704,6.973,15.706c-1.097,2.488-8.103,4.129-14.194,5.102l2.695,1.384c0.083,0.043,0.162,0.093,0.235,0.15
		c0.379,0.295,9.295,7.324,10.022,16.158c0.731,8.884-5.636,15.158-5.907,15.421c-3.386,3.706-12.724,14.346-14.48,18.24
		c-1.874,4.155,1.133,9.063,1.164,9.113l-2.541,1.595c-0.16-0.254-3.9-6.305-1.357-11.941c2.312-5.127,14.546-18.529,15.065-19.097
		c0.117-0.118,5.68-5.642,5.066-13.084c-0.581-7.054-7.826-13.182-8.773-13.956l-5.55-2.85
		c-3.716,6.073-11.208,12.757-26.242,12.923c-0.182,0.002-0.365,0.003-0.545,0.003c-5.427,0-9.816-0.914-13.387-2.362
		c-3.233,2.499-7.722,6.773-6.997,9.932c0.893,3.886,3.094,6.246,4.701,7.969c0.323,0.347,0.614,0.659,0.857,0.943
		c0.131,0.153,0.306,0.349,0.516,0.584c2.16,2.42,7.896,8.848,7.896,15.066c0,6.15-8.222,11.739-9.16,12.356l-0.269,0.141
		c-0.385,0.157-9.559,4.092-7.158,17.788l-2.955,0.518c-2.643-15.075,7.365-20.334,8.826-21.015c2.237-1.5,7.715-5.99,7.715-9.788
		c0-5.074-5.184-10.882-7.135-13.069c-0.226-0.253-0.415-0.465-0.556-0.63c-0.219-0.255-0.481-0.536-0.772-0.848
		c-1.63-1.748-4.358-4.672-5.431-9.344c-1.039-4.525,3.443-9.208,6.899-12.055c-11.378-6.432-12.25-18.768-12.259-18.937l2.995-0.17
		c0.038,0.622,0.857,11.8,11.868,17.133c0.62,0.334,0.827,0.478,1.162,0.542l0.774,0.284c3.287,1.251,7.343,2.018,12.38,1.96
		c14.579-0.161,21.275-6.777,24.334-12.355c0.054-0.16,0.13-0.304,0.23-0.434c1.929-3.707,2.273-6.859,2.302-7.177l2.988,0.266
		c-0.007,0.075-0.271,2.616-1.647,5.969c6.828-1.001,12.76-2.519,13.818-3.586c-0.195-2.534-7.593-14.849-14.518-25.083
		c-0.127-0.188-0.21-0.402-0.242-0.626l-0.39-2.693c-0.092-0.631,0.227-1.251,0.792-1.545l2.171-1.129l0.283-0.917l-4.597-20.865
		c-3.227-0.936-15.618-4.13-27.677-1.944c-14.363,2.602-29.824,7.273-31.767,29.816c-0.011,0.402-0.058,0.656-0.066,0.7
		c-0.154,0.779-0.894,1.3-1.674,1.196c-0.787-0.107-1.354-0.809-1.293-1.6c0.015-0.196,0.031-0.391,0.047-0.584
		c-0.016-0.874-0.419-2.902-3.543-4.431c-3.877-1.896-7.158,2.719-7.296,2.917c-0.247,0.367-5.846,9.108,9.478,20.616
		c1.009-0.753,1.784-1.261,2.064-1.441l1.617,2.527c-2.673,1.713-10.098,7.5-9.181,11.494c0.892,3.887,3.094,6.246,4.702,7.969
		c0.323,0.346,0.614,0.659,0.856,0.942c0.132,0.154,0.308,0.352,0.519,0.588c2.159,2.419,7.894,8.847,7.894,15.063
		c0,6.15-8.222,11.739-9.16,12.356l-0.269,0.14c-0.385,0.158-9.559,4.092-7.158,17.789l-2.955,0.518
		c-2.643-15.075,7.365-20.335,8.826-21.015c2.237-1.5,7.715-5.99,7.715-9.788c0-5.072-5.182-10.88-7.132-13.066
		c-0.228-0.255-0.417-0.468-0.559-0.633c-0.218-0.254-0.481-0.535-0.772-0.847c-1.63-1.748-4.359-4.672-5.432-9.345
		c-0.953-4.148,2.735-8.429,6.019-11.307c-16.992-13.124-9.858-23.811-9.536-24.273c1.658-2.406,6.113-6.33,11.078-3.898
		c1.247,0.61,2.2,1.302,2.928,2.019c3.731-19.25,18.206-24.6,33.515-27.374c11.613-2.103,23.158,0.41,27.821,1.666
		c0.929-0.983,6.9-7.692,5.922-16.882c-1.002-9.415-11.316-15.691-11.421-15.754c-0.667-0.433-15.31-9.71-30.933,2.226l-1.659,1.267
		l-0.672-1.976c-0.188-0.537-4.875-13.293-25.542-14.051c-12.464-0.458-21.466,4.573-24.756,6.758
		c-5.079,3.371-10.959,11.578-11.854,20.147c-0.678,6.499,1.42,12.368,6.237,17.453c0.17,0.017,0.277,0.028,0.312,0.032
		l-0.027,0.264c0.031,0.033,0.063,0.065,0.095,0.098l-0.117,0.115l-0.258,2.508l-0.741-0.069c-2.282-0.188-9.583-0.616-15.19,1.03
		c-6.886,2.021-9.557,3.316-11.804,7.003c-2.158,3.541-2.877,6.144-2.985,6.567c-0.085,0.732-0.736,7.018,0.962,14.868
		c1.705,7.879,2.21,10.648,2.299,11.15c0.833,3,0.295,9.198-7.621,11.763c-1.097,0.356-2.21,0.514-3.307,0.514
		c-3.799,0-7.408-1.902-9.548-4.108c-2.309-2.381-3.116-5.191-2.213-7.709l2.824,1.012c-0.713,1.989,0.842,3.886,1.543,4.609
		c2.199,2.267,6.265,3.965,9.777,2.829c7.248-2.349,5.71-7.917,5.641-8.153l-0.039-0.17c-0.004-0.025-0.44-2.566-2.288-11.101
		c-1.917-8.856-1.033-15.686-0.995-15.972l0.022-0.125c0.029-0.129,0.734-3.214,3.366-7.533c2.911-4.777,6.525-6.267,13.521-8.321
		c4.218-1.238,9.148-1.414,12.626-1.335c-3.99-5.187-5.738-11.182-5.076-17.527c1-9.584,7.387-18.491,13.178-22.335
		c3.533-2.345,13.189-7.75,26.526-7.256C187.939,76.499,194.931,86.029,197.094,90.104z M219.83,147.559l-19.181,7.987l-1.153-2.77
		l20.31-8.457l12.425,4.959l-1.111,2.786L219.83,147.559z M224.435,157.631c0,1.501-1.222,2.723-2.723,2.723
		s-2.723-1.222-2.723-2.723s1.221-2.723,2.723-2.723S224.435,156.13,224.435,157.631z"/>
	<polygon id="XMLID_790_" fill="#213654" points="180.189,0 180.189,0.507 335.074,89.93 335.074,269.93 334.577,270.217 
		180.189,359.352 180.189,359.93 178.189,359.93 178.189,359.353 23.304,269.93 23.304,89.93 23.801,89.643 178.189,0.507 
		178.189,0 0,0 0,360 360,360 360,0 	"/>
	<path id="XMLID_793_" fill="#213654" d="M333.087,91.077L179.189,2.225L25.292,91.077v177.706l153.898,88.853l153.898-88.853
		V91.077z M320.929,261.763l-0.452,0.261l-141.288,81.572l-0.452-0.26L37.449,261.763V98.097l0.452-0.261l141.288-81.573
		l141.74,81.834V261.763z"/>
</g>
</svg>
