<svg width="48" height="54" viewBox="0 0 48 54" fill="none" xmlns="http://www.w3.org/2000/svg">
<path fill-rule="evenodd" clip-rule="evenodd" d="M12.1354 40.6654C11.4779 40.4782 11.2294 40.2909 10.9135 39.7399C10.8151 39.5682 10.7101 39.3612 10.6048 39.1261C10.3723 38.6069 10.1383 37.9512 9.97029 37.2375C9.86242 36.7792 9.78159 36.2972 9.71589 35.8018C9.63295 35.176 9.57412 34.5288 9.51548 33.8816C9.40013 33.8468 9.46929 33.7689 9.66908 33.5806C9.98499 33.2832 10.6271 32.7101 10.9015 32.1428C11.176 31.5753 11.0828 31.0131 10.5184 29.735C9.95408 28.4569 8.91849 26.4626 8.38512 25.1126C7.85187 23.7631 7.8208 23.0578 8.00201 22.3416C8.18322 21.6253 8.57681 20.8984 9.61225 19.8238C10.648 18.7497 12.3254 17.3278 14.3964 15.8405L14.4806 15.7804L14.5347 15.9316C15.1431 17.6367 15.2363 17.8295 15.5573 17.9231C15.6894 17.9615 15.8601 17.9836 16.0516 17.9831C15.8955 17.8307 15.7533 17.5124 15.4506 16.7696C14.9967 15.6554 14.1816 13.5863 13.6874 11.668C13.2549 9.98948 13.068 8.42622 13.071 7.06357C5.88359 11.2369 1.00732 19.3519 1.00732 28.678C1.00732 39.8802 8.04237 49.3343 17.6679 52.3106C17.6985 50.8478 17.7291 49.385 17.9076 47.9898C18.0261 47.0636 18.2097 46.1671 18.4192 45.3165C18.5253 44.8856 18.638 44.4663 18.7525 44.0608C19.0609 42.967 19.3808 41.9739 19.7015 40.9903C18.3756 41.1839 16.6539 41.205 15.2626 41.1227C13.8596 41.0402 12.793 40.8528 12.1354 40.6654Z" fill="#FF3369"/>
<path fill-rule="evenodd" clip-rule="evenodd" d="M17.555 5.21103C18.6633 4.79509 20.7827 4.16382 23.4552 4.09313C26.1274 4.02285 29.353 4.51316 32.3961 5.76958C35.4393 7.02599 38.3 9.04851 39.8913 10.3147C41.483 11.5814 41.8047 12.0921 41.9196 12.3912C42.0348 12.6899 41.943 12.7769 41.1965 13.4613C40.4496 14.1457 39.0484 15.4274 38.0082 15.9835C36.968 16.5392 36.2883 16.3688 35.839 16.1277C35.3897 15.8867 35.1705 15.5745 34.5058 14.6172C33.8415 13.6603 32.731 12.0582 32.1051 10.6751C31.4791 9.29244 31.3378 8.12837 31.0479 7.61232C30.758 7.09586 30.3195 7.22784 28.3308 8.17495C26.3425 9.12247 22.8038 10.8859 20.9042 11.8735C19.0044 12.8611 18.7437 13.0731 18.3781 12.58C18.0123 12.0868 17.5415 10.8884 17.1698 9.67897C16.7978 8.46954 16.5251 7.24908 16.4372 6.53854C16.3495 5.828 16.4468 5.62739 17.555 5.21103Z" fill="#FF3369"/>
<path fill-rule="evenodd" clip-rule="evenodd" d="M42.5187 19.6527C42.622 20.2488 42.7844 21.3904 42.2726 22.6104C41.7607 23.8305 40.5745 25.1286 39.936 25.8154C39.2966 26.5023 39.2048 26.5779 39.3373 27.0727C39.4694 27.5675 39.8261 28.4819 39.6234 29.2558C39.421 30.03 38.6596 30.6633 38.309 31.0262C37.9588 31.3886 38.0187 31.4805 38.2076 31.7461C38.3961 32.0113 38.7133 32.4504 38.309 32.9484C37.9046 33.4464 36.7795 34.0029 35.6971 34.4626C34.6146 34.9221 33.5755 35.2847 32.9281 35.6109C32.2807 35.9373 32.0249 36.2272 31.523 37.2691C31.0215 38.3111 30.2739 40.1052 29.992 41.7899C29.7098 43.4744 29.8937 45.0497 30.0604 45.8761C30.2274 46.7025 30.3776 46.7801 31.1383 46.5554C31.8986 46.3307 33.2698 45.8036 34.1369 45.6268C35.0039 45.4498 35.3668 45.623 35.5987 45.712C35.8299 45.801 35.9301 45.8057 36.3391 45.6174C36.748 45.4291 37.4653 45.0476 37.9703 44.8466C38.4752 44.6457 38.7679 44.6252 39.0244 44.7247C39.2813 44.8243 39.5024 45.044 39.557 45.3767C39.6115 45.7098 39.499 46.1559 39.8795 45.9944C40.2601 45.8327 41.1329 45.0636 42.1005 43.9426C43.0686 42.8218 44.1311 41.3492 45.0012 38.9572C45.8721 36.5654 46.5503 33.2541 46.8767 30.5163C47.2031 27.7791 47.1773 25.6152 46.7269 23.4693C46.2769 21.3234 45.4021 19.195 44.9233 18.0506C44.4444 16.9061 44.3611 16.7455 44.0954 16.9846C43.8293 17.2236 43.3812 17.863 43.0563 18.2581C42.7311 18.6528 42.5295 18.8036 42.4507 18.9045C42.3716 19.0055 42.4158 19.0561 42.5187 19.6527Z" fill="#FF3369"/>
<path fill-rule="evenodd" clip-rule="evenodd" d="M35.879 20.1433C35.1697 20.4134 33.9993 20.4571 32.2337 20.7382C30.4685 21.0189 28.1073 21.537 25.7772 22.4902C23.4476 23.4435 21.1484 24.8319 19.6055 26.0768C18.0625 27.3218 17.2755 28.4238 16.6593 29.4927C16.0432 30.5615 15.5979 31.5969 15.044 32.33C14.4899 33.0628 13.8272 33.4923 13.4078 33.7073C12.9885 33.9221 12.8124 33.9221 12.1807 33.9221C11.549 33.9221 10.4617 33.9221 9.91298 33.9112C9.71139 33.9071 9.58252 33.9015 9.51562 33.8815C9.57457 34.5287 9.63324 35.1759 9.71619 35.8017C9.78189 36.2972 9.86272 36.7793 9.97058 37.2374C10.1387 37.9512 10.3726 38.6068 10.6051 39.126C10.7104 39.3611 10.8152 39.5681 10.9137 39.7398C11.2297 40.2908 11.4782 40.4782 12.1357 40.6654C12.7932 40.8528 13.8599 41.0401 15.2629 41.1227C16.3468 41.1867 17.6316 41.1881 18.7732 41.094C19.1096 41.0662 19.4338 41.0301 19.7365 40.9849C21.0672 40.7867 21.9888 40.4121 23.2886 39.7454C24.588 39.0789 26.2657 38.1202 28.0467 37.3324C29.3741 36.7452 30.7588 36.2529 32.1116 35.7915C32.5736 35.634 33.032 35.48 33.4832 35.3269C35.2542 34.7265 36.9112 34.1425 37.7444 33.5805C38.4986 33.0722 38.5792 32.582 38.2962 31.9671C38.2663 31.9021 38.2325 31.8355 38.1949 31.7677C37.8016 31.0571 37.0041 30.1758 36.4089 29.1564C36.271 28.921 36.1447 28.6787 36.0287 28.4299C35.6436 27.6025 35.3813 26.7106 35.2542 25.8125C35.1156 24.838 35.1363 23.8553 35.298 22.9564C35.3303 22.7783 35.3675 22.603 35.4109 22.4322C35.6712 21.3993 36.1293 20.5119 36.5878 19.6244C36.4419 19.8414 36.2108 20.017 35.879 20.1433ZM29.247 28.3339C29.004 29.127 28.4752 29.9736 27.7018 30.6216C27.3428 30.9219 26.9311 31.1797 26.5026 31.3906C26.0084 31.6341 25.4923 31.8151 25.01 31.9283C24.1099 32.1395 23.3281 32.1138 22.6536 31.9887C21.9791 31.8637 21.4126 31.6394 21.0859 31.4686C20.7596 31.2986 20.6738 31.1822 20.7394 30.8247C20.7512 30.7601 20.768 30.6878 20.7908 30.6077C20.8945 30.2445 21.1222 29.7243 21.576 29.0694C22.1298 28.2702 23.0202 27.2707 24.0078 26.6101C24.0282 26.5966 24.0489 26.5827 24.0696 26.5692C24.7988 26.0936 25.5776 25.7998 26.2922 25.6388C26.5287 25.5857 26.7584 25.5469 26.9768 25.5208C27.8731 25.4145 28.5816 25.524 28.9548 25.6499C29.3284 25.7765 29.3668 25.9199 29.4071 26.3612C29.4475 26.8021 29.4901 27.5412 29.247 28.3339Z" fill="#FFD27F"/>
<path fill-rule="evenodd" clip-rule="evenodd" d="M28.3965 37.2018C26.7454 37.9322 25.1902 38.8209 23.9852 39.4389C22.7806 40.0569 21.9261 40.4042 20.6925 40.5879C20.4118 40.6297 20.1114 40.6632 19.7995 40.6889C19.4458 41.772 19.0921 42.8552 18.7521 44.0607C18.412 45.2664 18.0857 46.5943 17.9072 47.9897C17.7287 49.385 17.6981 50.8478 17.6675 52.3106C19.7193 52.945 21.8887 53.2851 24.1327 53.2851C27.0096 53.2851 29.7636 52.7262 32.3045 51.7049C31.8337 51.1284 31.3629 50.552 30.9693 49.7735C30.5757 48.9949 30.2589 48.0143 30.1003 46.8141C30.0923 46.7516 30.0842 46.6885 30.0769 46.6249C29.9421 45.4662 29.9475 44.1218 30.0477 42.8097C30.1533 41.4256 30.3645 40.0773 30.7347 38.9106C31.1052 37.7438 31.6352 36.7586 32.1647 35.7735C30.9109 36.2011 29.6269 36.6574 28.3965 37.2018Z" fill="#FFE3BA"/>
<path fill-rule="evenodd" clip-rule="evenodd" d="M20.4781 11.9499C22.2415 10.9096 25.6269 8.92101 27.6363 7.94733C29.6457 6.97366 30.2789 7.01452 30.6303 7.16039C30.9817 7.30585 31.0508 7.55631 31.2389 8.255C31.4275 8.95369 31.7347 10.101 32.5211 11.4878C33.3079 12.8745 34.5735 14.5011 35.3523 15.6305C36.131 16.7598 36.4229 17.3919 36.5795 17.8806C36.7366 18.3692 36.7585 18.7141 36.6122 19.1329C36.4662 19.5525 36.1518 20.0457 34.8043 20.4097C33.4569 20.7738 31.0757 21.0087 28.503 21.7442C25.9302 22.4801 23.1656 23.7156 20.9385 25.4166C18.7115 27.1172 17.0217 29.2831 16.0088 30.7691C14.9962 32.2552 14.6602 33.0625 13.9114 33.5271C13.1626 33.9918 12.001 34.1146 11.2087 34.1184C10.4163 34.1224 9.9933 34.0077 9.77384 33.9223C9.55439 33.837 9.53895 33.7812 9.89442 33.4605C10.2501 33.1399 10.9767 32.5546 10.8697 31.1181C10.7626 29.6811 9.82184 27.3934 9.18914 25.9474C8.55658 24.5014 8.23245 23.8983 8.0067 23.2188C7.78126 22.5397 7.65435 21.7842 8.5605 20.6099C9.46665 19.4357 11.406 17.8422 12.601 16.8922C13.7962 15.9422 14.2474 15.6358 14.5594 15.6971C14.8714 15.7583 15.0442 16.1874 15.2842 16.7594C15.5242 17.3314 15.8315 18.0465 16.452 18.1788C17.0727 18.3112 18.0066 17.8605 18.7026 17.3858C19.3986 16.9106 19.8565 16.4113 19.9371 16.0358C20.0175 15.6603 19.7203 15.4082 19.4065 14.9522C19.0926 14.4962 18.762 13.8355 18.6675 13.4588C18.573 13.0825 18.7148 12.9902 20.4781 11.9499Z" fill="#FFE3BA"/>
<path fill-rule="evenodd" clip-rule="evenodd" d="M28.3967 37.2019C26.7455 37.9323 25.1903 38.821 23.9854 39.439C22.7807 40.0569 21.9262 40.4042 20.6926 40.5879C20.412 40.6297 20.1115 40.6633 19.7997 40.689C19.446 41.772 19.0923 42.8553 18.7523 44.0608C18.6378 44.4664 18.525 44.8857 18.4189 45.3166C19.5805 45.31 21.2041 45.1573 22.6577 44.6362C24.4531 43.9926 25.989 42.7873 27.8418 41.8475C28.6336 41.4457 29.4838 41.0926 30.3005 40.7294C30.4119 40.0913 30.5544 39.4793 30.7348 38.9106C31.1054 37.7439 31.6353 36.7587 32.1648 35.7736C30.9111 36.2012 29.627 36.6575 28.3967 37.2019Z" fill="#F0C87F"/>
<path fill-rule="evenodd" clip-rule="evenodd" d="M26.3607 53.1723C28.4339 52.9615 30.4276 52.4594 32.3045 51.7049C31.8338 51.1284 31.363 50.5521 30.9694 49.7735C30.5758 48.995 30.259 48.0143 30.1004 46.8141C30.0923 46.7517 30.0843 46.6885 30.077 46.625C29.9422 45.4662 29.9476 44.1219 30.0478 42.8098C30.1534 41.4257 30.3646 40.0773 30.7348 38.9106C31.1053 37.7439 31.6352 36.7586 32.1648 35.7736C31.3538 36.05 30.5305 36.3389 29.7168 36.6554C28.8997 38.5682 28.081 40.6814 27.4962 42.4194C26.4306 45.5861 26.1426 47.5063 26.1426 49.8967C26.1426 50.9504 26.1986 52.0953 26.3607 53.1723Z" fill="#F0C87F"/>
<path fill-rule="evenodd" clip-rule="evenodd" d="M36.1031 29.5585C36.6134 30.4321 37.2969 31.1872 37.6341 31.7964C37.6663 31.8548 37.6955 31.9112 37.7208 31.9672C38.2419 31.3972 38.763 30.8272 39.1343 30.2021C39.506 29.5773 39.728 28.8974 39.6996 28.2968C39.6708 27.6962 39.3924 27.1748 39.1136 26.653C38.9128 26.8153 38.7146 26.9693 38.5222 27.1143C37.4943 27.8907 36.6361 28.4132 35.7778 28.9358C35.8769 29.1487 35.9856 29.3567 36.1031 29.5585Z" fill="#70CC81"/>
<path fill-rule="evenodd" clip-rule="evenodd" d="M35.7776 28.9358C36.6358 28.4132 37.494 27.8906 38.522 27.1143C38.7144 26.9692 38.9125 26.8152 39.1134 26.653C39.9842 25.9498 40.8959 25.0979 41.5379 24.181C42.3278 23.0525 42.7095 21.8247 42.8262 20.9291C42.9429 20.0334 42.7951 19.4692 42.6469 18.9053C42.1158 19.4884 41.5187 20.0428 40.8813 20.5736C39.7185 21.5415 38.4229 22.4294 37.4457 23.0276C36.4688 23.6262 35.8099 23.9355 35.1509 24.2452C35.0123 25.0154 34.995 25.8571 35.1133 26.6926C35.2227 27.4624 35.4474 28.2265 35.7776 28.9358Z" fill="#91F7A4"/>
<path fill-rule="evenodd" clip-rule="evenodd" d="M35.7775 28.9358C36.6358 28.4132 37.494 27.8906 38.5219 27.1143C38.7143 26.9692 38.9125 26.8152 39.1133 26.653C39.9842 25.9498 40.8958 25.0979 41.5378 24.181C42.1795 23.2642 42.5516 22.2823 42.7313 21.4659C42.4587 21.9121 41.9207 22.6549 41.1857 23.3532C40.3601 24.1369 39.2865 24.8642 38.2209 25.1686C37.1557 25.473 36.0989 25.3545 35.0829 24.9962L35.0568 24.9868C35.0149 25.5416 35.0318 26.1186 35.1132 26.6926C35.2227 27.4624 35.4473 28.2265 35.7775 28.9358Z" fill="#83DE93"/>
<path fill-rule="evenodd" clip-rule="evenodd" d="M37.4456 23.0276C38.4229 22.4294 39.7185 21.5416 40.8812 20.5736C41.5187 20.0429 42.1158 19.4884 42.6468 18.9053C43.0262 18.489 43.3718 18.0583 43.674 17.6117C43.7201 17.5435 43.7654 17.4745 43.8099 17.4054C44.5464 16.2536 44.99 14.9976 45.2031 13.751C45.4162 12.5044 45.3981 11.2676 45.2876 10.5734C45.1766 9.87959 44.9723 9.72841 44.5065 10.1202C44.0403 10.5121 43.3127 11.4469 42.2432 12.4905C41.8673 12.8574 41.4491 13.2378 41.0045 13.6092C40.185 14.294 39.5196 14.8174 38.3776 15.4327C37.236 16.0485 36.9288 16.0926 35.5694 16.4342C35.9834 16.9878 36.2307 17.3041 36.7141 18.0244C37.1976 18.7448 36.3839 20.2108 36.4207 20.63C36.4584 21.0496 36.3989 21.1783 36.2564 21.3896C35.8636 22.15 35.4707 22.9103 35.2476 23.7958C35.2108 23.9424 35.1785 24.0924 35.1509 24.2452C35.8098 23.9355 36.4687 23.6262 37.4456 23.0276Z" fill="#C7FFD1"/>
<path fill-rule="evenodd" clip-rule="evenodd" d="M37.4462 23.0276C38.4234 22.4294 39.719 21.5416 40.8818 20.5736C41.5192 20.0429 42.1163 19.4884 42.6474 18.9054C43.0268 18.489 43.3723 18.0583 43.6745 17.6118C43.7206 17.5435 43.7659 17.4745 43.8105 17.4054C44.547 16.2536 44.9905 14.9976 45.2036 13.751C45.3265 13.0319 45.3726 12.3164 45.3683 11.706C45.3349 11.7424 45.3004 11.7877 45.2647 11.8441C44.954 12.3352 44.5654 13.6088 43.6523 14.8501C42.7391 16.0918 41.3015 17.3004 39.8216 17.8659C38.342 18.4318 37.5368 18.3554 36.9546 18.3525C36.3721 18.3497 36.6206 18.3529 36.477 18.3587L36.5426 18.4563C37.1858 19.4149 36.3844 20.2108 36.4213 20.63C36.4589 21.0496 36.3994 21.1783 36.2569 21.3896C35.8641 22.15 35.4713 22.9103 35.2482 23.7958C35.224 23.8914 35.2021 23.9886 35.1821 24.0871C35.2386 24.1087 35.2966 24.1292 35.3565 24.1484C35.9501 23.8685 36.5703 23.5641 37.4462 23.0276Z" fill="#91F7A4"/>
<path fill-rule="evenodd" clip-rule="evenodd" d="M31.0188 46.4973C31.7146 46.1426 33.178 45.7096 34.0113 45.5632C34.8449 45.417 35.0477 45.5573 35.1721 45.6972C35.2965 45.8371 35.3422 45.9763 35.7304 45.7961C36.1186 45.6159 36.8494 45.1162 37.4614 44.8643C38.0735 44.6125 38.567 44.6085 38.9245 44.7164C39.2816 44.8243 39.5028 45.0439 39.4621 45.5581C39.4214 46.0724 39.1188 46.8814 38.479 47.6499C37.8393 48.4186 36.8628 49.1469 35.7776 49.8158C34.6925 50.4849 33.4986 51.0948 32.8831 51.3769C32.2675 51.6589 32.2299 51.6128 31.9281 51.0955C31.6263 50.5782 31.0599 49.5896 30.7723 48.896C30.4847 48.2025 30.4758 47.8039 30.4355 47.4662C30.3952 47.1287 30.323 46.8522 31.0188 46.4973Z" fill="#FFD27F"/>
<path fill-rule="evenodd" clip-rule="evenodd" d="M27.7016 30.6217C28.475 29.9737 29.0038 29.1271 29.2468 28.334C29.4899 27.5413 29.4473 26.8022 29.407 26.3613C29.3666 25.92 29.3282 25.7766 28.9546 25.65C28.5814 25.5241 27.8729 25.4146 26.9767 25.5208C26.7582 25.547 26.5285 25.5858 26.292 25.6389C26.6902 26.2179 26.9809 26.8945 27.1253 27.6431C27.3848 28.9841 27.1291 30.3108 26.5024 31.3907C26.931 31.1798 27.3426 30.922 27.7016 30.6217Z" fill="white"/>
<path fill-rule="evenodd" clip-rule="evenodd" d="M24.2612 29.0321C24.2612 30.3919 23.4046 31.5392 22.2344 31.8959C22.368 31.9307 22.508 31.9617 22.6529 31.9887C23.3274 32.1137 24.1092 32.1395 25.0093 31.9282C25.4916 31.815 26.0077 31.634 26.5019 31.3905C27.1285 30.3106 27.3843 28.9839 27.1247 27.6429C26.9803 26.8944 26.6896 26.2178 26.2914 25.6388C25.5568 25.8047 24.7539 26.1103 24.007 26.61C23.8335 26.7261 23.663 26.8527 23.4971 26.9867C23.9706 27.5204 24.2612 28.2399 24.2612 29.0321Z" fill="#91F7A4"/>
<path d="M20.7393 30.8248C20.8048 30.4673 21.022 29.8687 21.5758 29.0695C22.1296 28.2703 23.02 27.2709 24.0076 26.6102C24.7544 26.1105 25.5574 25.8049 26.2919 25.639C26.6901 26.2175 26.9805 26.8946 27.1256 27.6431C27.3848 28.9841 27.1291 30.3108 26.5028 31.3907C26.0086 31.6338 25.4921 31.8152 25.0098 31.9284C24.1097 32.1396 23.3279 32.1139 22.6534 31.9889C21.9788 31.8639 21.4123 31.6395 21.0858 31.4687C20.7595 31.2988 20.6736 31.1823 20.7393 30.8248V30.8248Z" stroke="#0F172A" stroke-width="1.06563" stroke-miterlimit="22.9256" stroke-linecap="round"/>
<path d="M20.7392 30.8247C20.8049 30.4672 21.0223 29.8686 21.5759 29.0694C22.0325 28.4108 22.7177 27.6161 23.4977 26.9868C23.9712 27.5205 24.2619 28.24 24.2619 29.0322C24.2619 30.392 23.4052 31.5394 22.235 31.8961C21.7466 31.7698 21.3422 31.6027 21.0857 31.4687C20.7595 31.2987 20.6737 31.1822 20.7392 30.8247V30.8247Z" stroke="#0F172A" stroke-width="1.06563" stroke-miterlimit="22.9256" stroke-linecap="round"/>
<path fill-rule="evenodd" clip-rule="evenodd" d="M24.7168 27.6952C25.1518 27.6952 25.5047 28.0703 25.5047 28.5332C25.5047 28.9962 25.1518 29.3717 24.7168 29.3717C24.2817 29.3717 23.9292 28.9962 23.9292 28.5332C23.9292 28.0703 24.2817 27.6952 24.7168 27.6952Z" fill="white"/>
<path d="M13.5859 44.8262C13.5859 45.4418 13.5859 46.0572 13.5859 46.6729" stroke="white" stroke-width="0.799218" stroke-miterlimit="22.9256" stroke-linecap="round"/>
<path d="M12.9414 45.7495C13.3711 45.7495 13.8009 45.7495 14.2306 45.7495" stroke="white" stroke-width="0.799218" stroke-miterlimit="22.9256" stroke-linecap="round"/>
<path d="M5.98926 35.6689C5.98926 36.6489 5.98926 37.6288 5.98926 38.6086" stroke="white" stroke-width="0.799218" stroke-miterlimit="22.9256" stroke-linecap="round"/>
<path d="M4.96338 37.1388C5.64739 37.1388 6.33151 37.1388 7.01552 37.1388" stroke="white" stroke-width="0.799218" stroke-miterlimit="22.9256" stroke-linecap="round"/>
<path d="M35.1338 39.3145C35.1338 39.8046 35.1338 40.2946 35.1338 40.7849" stroke="white" stroke-width="0.799218" stroke-miterlimit="22.9256" stroke-linecap="round"/>
<path d="M34.6201 40.0496C34.9623 40.0496 35.3044 40.0496 35.6465 40.0496" stroke="white" stroke-width="0.799218" stroke-miterlimit="22.9256" stroke-linecap="round"/>
<path d="M41.2808 37.1654C41.2808 37.7811 41.2808 38.3968 41.2808 39.0122" stroke="white" stroke-width="0.799218" stroke-miterlimit="22.9256" stroke-linecap="round"/>
<path d="M40.6367 38.0888C41.0664 38.0888 41.4965 38.0888 41.9258 38.0888" stroke="white" stroke-width="0.799218" stroke-miterlimit="22.9256" stroke-linecap="round"/>
<path d="M43.5869 27.8464C43.5869 28.2665 43.5869 28.6865 43.5869 29.1061" stroke="white" stroke-width="0.799218" stroke-miterlimit="22.9256" stroke-linecap="round"/>
<path d="M43.147 28.4765C43.44 28.4765 43.7333 28.4765 44.0263 28.4765" stroke="white" stroke-width="0.799218" stroke-miterlimit="22.9256" stroke-linecap="round"/>
<path d="M4.54395 24.4977C4.54395 24.9876 4.54395 25.4779 4.54395 25.9682" stroke="white" stroke-width="0.799218" stroke-miterlimit="22.9256" stroke-linecap="round"/>
<path d="M4.03076 25.2328C4.3729 25.2328 4.71504 25.2328 5.05722 25.2328" stroke="white" stroke-width="0.799218" stroke-miterlimit="22.9256" stroke-linecap="round"/>
<path d="M9.79199 13.4085C9.79199 14.0802 9.79199 14.7524 9.79199 15.4241" stroke="white" stroke-width="0.799218" stroke-miterlimit="22.9256" stroke-linecap="round"/>
<path d="M9.08887 14.4162C9.55776 14.4162 10.0268 14.4162 10.4957 14.4162" stroke="white" stroke-width="0.799218" stroke-miterlimit="22.9256" stroke-linecap="round"/>
<path d="M20.271 7.03039C20.271 7.85248 20.271 8.67456 20.271 9.49664" stroke="white" stroke-width="0.799218" stroke-miterlimit="22.9256" stroke-linecap="round"/>
<path d="M19.4097 8.26352C19.9835 8.26352 20.5575 8.26352 21.1315 8.26352" stroke="white" stroke-width="0.799218" stroke-miterlimit="22.9256" stroke-linecap="round"/>
<path d="M7.08936 30.0749C7.08936 30.5648 7.08936 31.0551 7.08936 31.5454" stroke="white" stroke-width="0.799218" stroke-miterlimit="22.9256" stroke-linecap="round"/>
<path d="M6.57568 30.81C6.91798 30.81 7.26011 30.81 7.60225 30.81" stroke="white" stroke-width="0.799218" stroke-miterlimit="22.9256" stroke-linecap="round"/>
<path d="M36.6172 11.4211C36.6172 11.8411 36.6172 12.2612 36.6172 12.6812" stroke="white" stroke-width="0.799218" stroke-miterlimit="22.9256" stroke-linecap="round"/>
<path d="M36.1772 12.0511C36.4702 12.0511 36.7636 12.0511 37.0566 12.0511" stroke="white" stroke-width="0.799218" stroke-miterlimit="22.9256" stroke-linecap="round"/>
<path fill-rule="evenodd" clip-rule="evenodd" d="M17.7048 18.0428C18.2238 17.8928 18.7146 17.5978 19.0917 17.2934C19.4685 16.9894 19.732 16.6765 19.861 16.4905C19.9903 16.3042 19.9849 16.245 19.57 15.4401C19.3684 15.0486 19.0701 14.4815 18.7466 13.8261C18.4044 13.1332 18.0341 12.3413 17.7203 11.556C17.2106 10.2796 16.8504 9.01988 16.5795 7.77001C16.5263 7.52363 16.4764 7.27766 16.4294 7.0321C16.1445 5.54033 15.9706 4.06124 15.8686 3.02097C15.7662 1.9807 15.7362 1.37925 15.6591 1.03317C15.5821 0.687099 15.4583 0.596392 15.1329 0.895889C14.8076 1.19538 14.2807 1.88549 13.8658 2.83669C13.4512 3.7883 13.1487 5.00181 13.0841 6.49194C13.0453 7.39247 13.0931 8.39393 13.2463 9.46852C13.3466 10.1725 13.4918 10.9084 13.6876 11.668C14.1818 13.5863 14.9969 15.6554 15.451 16.7696C15.7447 17.4904 15.8873 17.8115 16.0381 17.9692C16.1202 18.055 16.205 18.0926 16.3181 18.1196C16.6382 18.1968 17.1858 18.1923 17.7048 18.0428Z" fill="white"/>
<path fill-rule="evenodd" clip-rule="evenodd" d="M18.2825 17.8148C18.5821 17.6661 18.8585 17.4814 19.0916 17.2935C19.4684 16.9895 19.732 16.6765 19.8609 16.4906C19.9902 16.3043 19.9849 16.245 19.5699 15.4401C19.3683 15.0487 19.07 14.4815 18.7465 13.8262C18.4043 13.1332 18.034 12.3413 17.7202 11.556C17.2105 10.2796 16.8503 9.01991 16.5794 7.77004C16.5262 7.52366 16.4763 7.27769 16.4293 7.03213C16.1444 5.54036 15.9705 4.06126 15.8685 3.021C15.7661 1.98072 15.7361 1.37928 15.659 1.0332C15.6121 0.822371 15.5478 0.706335 15.4312 0.715324C15.2158 1.58644 15.013 2.62098 14.9322 3.72377C14.79 5.66784 15.0273 7.82234 15.486 9.804C15.9447 11.7861 16.6248 13.5953 17.3129 15.371C17.6434 16.2238 17.9756 17.0687 18.2825 17.8148Z" fill="#DEDEDE"/>
<path d="M18.8565 12.8978C19.6513 12.4124 20.4487 11.9433 21.226 11.5045C23.5196 10.2101 25.6427 9.17429 27.0819 8.48949C28.5215 7.8051 29.2772 7.4721 29.8816 7.35892C30.4861 7.24615 30.9388 7.35361 31.12 7.80633C31.3013 8.25945 31.211 9.05866 31.4092 9.84356C31.6073 10.6285 32.0942 11.3999 32.9068 12.5129C33.7197 13.6259 34.859 15.08 35.6097 16.1984C36.3604 17.3167 36.7229 18.0991 36.7797 18.7382C36.8365 19.3776 36.5881 19.8732 35.8789 20.1433C35.1696 20.4134 33.9992 20.4571 32.2336 20.7382C30.468 21.0189 28.1072 21.537 25.7771 22.4902C23.4474 23.4435 21.1483 24.8319 19.6054 26.0768C18.0624 27.3218 17.2753 28.4238 16.6591 29.4927C16.0431 30.5615 15.5978 31.5969 15.0438 32.33C14.4897 33.0628 13.827 33.4923 13.4077 33.7073C12.9884 33.9221 12.8123 33.9221 12.1805 33.9221C11.5489 33.9221 10.4617 33.9221 9.91287 33.9112C9.36403 33.9002 9.35351 33.878 9.66926 33.5805C9.98518 33.2832 10.6273 32.71 10.9017 32.1428C11.1761 31.5752 11.083 31.013 10.5185 29.735C9.95426 28.4569 8.91867 26.4626 8.3853 25.1126C7.85205 23.763 7.82098 23.0578 8.00219 22.3415C8.1834 21.6253 8.57699 20.8984 9.61243 19.8238C10.6481 18.7496 12.3256 17.3277 14.3966 15.8404C14.4246 15.8204 14.4528 15.8004 14.4808 15.7804" stroke="#0F172A" stroke-width="1.06563" stroke-miterlimit="22.9256" stroke-linecap="round"/>
<path d="M9.51562 33.8815C9.62107 35.0411 9.7264 36.2005 9.97058 37.2374C10.2148 38.2745 10.598 39.1891 10.9137 39.7399C11.2297 40.2908 11.4782 40.4782 12.1357 40.6654C12.7932 40.8528 13.8599 41.0402 15.2629 41.1227C16.6662 41.2055 18.4059 41.1835 19.7365 40.985C21.0672 40.7867 21.9888 40.4121 23.2886 39.7455C24.588 39.0789 26.2657 38.1202 28.0467 37.3324C29.8276 36.5446 31.7126 35.9275 33.4832 35.3269C35.2542 34.7265 36.9112 34.1425 37.7444 33.5805C38.5781 33.0187 38.5884 32.4786 38.1948 31.7677C37.8016 31.0572 37.0041 30.1758 36.4089 29.1564C35.8133 28.1374 35.4197 26.9803 35.2542 25.8125C35.0883 24.6443 35.1505 23.4656 35.4109 22.4322C35.6712 21.3993 36.1293 20.5119 36.5878 19.6244" stroke="#0F172A" stroke-width="1.06563" stroke-miterlimit="22.9256" stroke-linecap="round"/>
<path d="M32.1652 35.7735C31.6357 36.7586 31.1057 37.7438 30.7352 38.9106C30.365 40.0773 30.1538 41.4256 30.0482 42.8097C29.9426 44.1938 29.9426 45.6139 30.1008 46.8141C30.2594 48.0143 30.5762 48.9949 30.9698 49.7735C31.3634 50.552 31.8342 51.1284 32.305 51.7049" stroke="#0F172A" stroke-width="1.06563" stroke-miterlimit="22.9256" stroke-linecap="round"/>
<path d="M19.8 40.6889C19.4463 41.772 19.0926 42.8552 18.7526 44.0607C18.4125 45.2664 18.0861 46.5943 17.9077 47.9897C17.7292 49.385 17.6986 50.8478 17.668 52.3106" stroke="#0F172A" stroke-width="1.06563" stroke-miterlimit="22.9256" stroke-linecap="round"/>
<path d="M30.0776 46.6248C31.1079 46.3321 32.1378 46.0391 32.9311 45.7855C33.7248 45.5319 34.2816 45.3174 34.6414 45.2765C35.0016 45.2356 35.1648 45.3684 35.2512 45.6978C35.3376 46.0273 35.3472 46.5533 35.2727 47.0258C35.1986 47.4982 35.04 47.917 34.8818 48.3358" stroke="#0F172A" stroke-width="1.06563" stroke-miterlimit="22.9256" stroke-linecap="round"/>
<path d="M35.3872 46.1155C36.548 45.5634 37.7092 45.0115 38.448 44.7609C39.1868 44.5103 39.5036 44.5614 39.6426 44.7607C39.782 44.9599 39.7436 45.3071 39.6265 45.7749C39.5102 46.2428 39.3147 46.8313 39.1196 47.4198" stroke="#0F172A" stroke-width="1.06563" stroke-miterlimit="22.9256" stroke-linecap="round"/>
<path d="M35.7837 16.4631C36.6396 16.2547 37.4959 16.0463 38.6295 15.366C39.763 14.6857 41.1742 13.5339 42.2432 12.4903C43.3127 11.4468 44.0403 10.5119 44.5065 10.1201C44.9723 9.72826 45.1766 9.87944 45.2876 10.5732C45.3981 11.2674 45.4162 12.5042 45.2031 13.7508C44.99 14.9974 44.5464 16.2534 43.8099 17.4053C43.0731 18.5575 42.0436 19.6055 40.8812 20.5735C39.7185 21.5414 38.4229 22.4293 37.4456 23.0275C36.4687 23.626 35.8098 23.9353 35.1509 24.2451" stroke="#0F172A" stroke-width="1.06563" stroke-miterlimit="22.9256" stroke-linecap="round"/>
<path d="M42.647 18.9052C42.7952 19.4691 42.943 20.0333 42.8263 20.9289C42.7096 21.8246 42.3279 23.0524 41.538 24.1809C40.7485 25.309 39.5501 26.3387 38.5851 27.0762C37.6197 27.8137 36.8874 28.2595 36.1548 28.7052" stroke="#0F172A" stroke-width="1.06563" stroke-miterlimit="22.9256" stroke-linecap="round"/>
<path d="M39.1131 26.653C39.3919 27.1748 39.6703 27.6961 39.6991 28.2968C39.7275 28.8974 39.5055 29.5773 39.1937 30.1362C38.8819 30.6956 38.4803 31.134 38.0786 31.5724" stroke="#0F172A" stroke-width="1.06563" stroke-miterlimit="22.9256" stroke-linecap="round"/>
<path d="M20.7393 30.8247C20.8048 30.4671 21.022 29.8686 21.5758 29.0694C22.1296 28.2702 23.02 27.2707 24.0076 26.61C24.9952 25.9494 26.08 25.6274 26.9766 25.5207C27.8732 25.4145 28.5813 25.524 28.9546 25.6503C29.3282 25.7765 29.3666 25.9199 29.4069 26.3612C29.4472 26.8021 29.4898 27.5412 29.2468 28.3339C29.0037 29.127 28.475 29.974 27.7016 30.6216C26.9282 31.2688 25.9099 31.717 25.0098 31.9283C24.1097 32.1395 23.3279 32.1138 22.6534 31.9887C21.9788 31.8637 21.4123 31.6394 21.0858 31.4686C20.7595 31.2986 20.6736 31.1822 20.7393 30.8247Z" stroke="#0F172A" stroke-width="1.06563" stroke-miterlimit="22.9256" stroke-linecap="round"/>
<path fill-rule="evenodd" clip-rule="evenodd" d="M22.235 31.8959C23.4052 31.5392 24.2619 30.3919 24.2619 29.0321C24.2619 28.2399 23.9712 27.5203 23.4977 26.9867C22.7177 27.616 22.0325 28.4107 21.5759 29.0693C21.0223 29.8685 20.8049 30.4671 20.7392 30.8246C20.6737 31.1821 20.7595 31.2986 21.0857 31.4685C21.3422 31.6026 21.7466 31.7697 22.235 31.8959Z" fill="#0F172A"/>
<path d="M10.6045 39.1261C11.6525 39.0745 12.7004 39.0231 13.8458 39.2617C14.9912 39.5007 16.2338 40.0296 17.5663 40.2773C18.8988 40.5252 20.3212 40.4918 21.564 40.2114C22.807 39.9311 23.8705 39.4036 24.609 38.6544C25.3478 37.9052 25.7613 36.9345 26.1749 35.9636" stroke="#0F172A" stroke-width="1.06563" stroke-miterlimit="22.9256" stroke-linecap="round"/>
<path d="M13.272 36.861C13.4067 36.6406 13.5412 36.4201 13.6422 36.186C13.7431 35.9519 13.8105 35.7038 13.8778 35.4559" stroke="#0F172A" stroke-width="1.06563" stroke-miterlimit="22.9256" stroke-linecap="round"/>
<path d="M10.659 36.7077C10.4313 36.545 10.2035 36.382 10.0461 36.231C9.88908 36.08 9.80237 35.9408 9.71582 35.8018" stroke="#0F172A" stroke-width="1.06563" stroke-miterlimit="22.9256" stroke-linecap="round"/>
<path d="M16.3177 18.1196C16.6378 18.1968 17.1854 18.1924 17.7044 18.0428C18.2234 17.8929 18.7142 17.5979 19.0911 17.2935C19.4681 16.9895 19.7316 16.6765 19.8606 16.4902C19.9899 16.3043 19.9845 16.245 19.5696 15.4401C19.1547 14.6352 18.3302 13.0838 17.7198 11.556C17.1097 10.0279 16.7139 8.52389 16.4289 7.03213C16.1441 5.54036 15.9701 4.06126 15.8681 3.02099C15.7659 1.98072 15.7358 1.37928 15.6587 1.0332C15.5816 0.687126 15.4579 0.59642 15.1325 0.895916C14.807 1.19541 14.2802 1.88552 13.8653 2.83672C13.4507 3.78833 13.1482 5.00184 13.0837 6.49197C13.0192 7.98209 13.1929 9.74925 13.6872 11.668C14.1815 13.5863 14.9965 15.6554 15.4505 16.7696C15.9046 17.8839 15.9974 18.0428 16.3177 18.1196V18.1196Z" stroke="#0F172A" stroke-width="1.06563" stroke-miterlimit="22.9256" stroke-linecap="round"/>
<path d="M13.071 7.06352C5.88359 11.2369 1.00732 19.3519 1.00732 28.6779C1.00732 42.2682 11.3612 53.2851 24.1331 53.2851C36.9051 53.2851 47.2591 42.2682 47.2591 28.6779C47.2591 24.2827 46.1755 20.156 44.2778 16.5845M41.8513 12.8635C37.6093 7.48805 31.2462 4.07101 24.1331 4.07101C21.3387 4.07101 18.6601 4.59809 16.1805 5.56481" stroke="#0F172A" stroke-width="1.06563" stroke-miterlimit="22.9256" stroke-linecap="round"/>
</svg>
