<?xml version="1.0" standalone="no"?>
<!DOCTYPE svg PUBLIC "-//W3C//DTD SVG 20010904//EN"
 "http://www.w3.org/TR/2001/REC-SVG-20010904/DTD/svg10.dtd">
<svg version="1.0" xmlns="http://www.w3.org/2000/svg"
 width="1000.000000pt" height="1126.000000pt" viewBox="0 0 1000.000000 1126.000000"
 preserveAspectRatio="xMidYMid meet">

<g transform="translate(0.000000,1126.000000) scale(0.100000,-0.100000)"
fill="#000000" stroke="none">
<path d="M4610 10613 c-653 -49 -1266 -232 -1824 -543 l-108 -61 -65 58 c-185
164 -303 229 -506 275 -74 17 -125 21 -262 22 -200 0 -273 -16 -420 -88 -253
-125 -439 -389 -500 -711 -51 -269 -39 -582 46 -1144 16 -107 29 -207 29 -222
0 -14 -16 -62 -36 -105 -363 -795 -476 -1695 -323 -2564 122 -686 425 -1361
858 -1909 303 -383 668 -713 1077 -975 59 -38 106 -77 134 -112 70 -88 222
-204 330 -251 39 -17 50 -29 77 -84 39 -79 204 -283 258 -321 90 -62 228 -88
323 -59 l32 10 0 -43 c0 -99 49 -213 122 -283 18 -17 91 -67 161 -111 194
-121 289 -138 440 -78 l66 27 81 -25 c45 -15 88 -26 96 -26 10 0 14 -12 14
-40 l0 -40 -150 0 -150 0 0 -405 0 -405 205 0 205 0 0 104 0 104 158 4 c175 4
224 17 290 81 63 60 77 99 77 217 0 90 -3 111 -22 147 -49 91 -130 139 -253
150 l-60 6 0 36 0 36 75 18 c41 10 95 27 121 39 l48 21 55 -31 c125 -67 236
-68 366 -2 44 23 125 71 180 108 147 99 205 194 205 334 0 32 2 58 4 58 3 0
17 -5 32 -11 16 -5 61 -10 102 -10 156 0 245 61 412 282 60 80 66 85 136 112
144 56 270 169 346 312 32 60 39 66 207 179 259 173 411 297 629 510 445 435
780 940 1007 1521 419 1068 390 2289 -80 3335 l-44 97 20 134 c31 213 79 650
87 793 26 486 -68 970 -234 1202 -57 80 -108 116 -226 155 -79 27 -112 33
-218 37 -225 8 -399 -35 -676 -169 -152 -74 -257 -142 -356 -230 -42 -38 -79
-69 -82 -69 -3 0 -45 23 -93 52 -114 67 -376 193 -528 253 -529 210 -1054 308
-1625 303 -124 -1 -245 -3 -270 -5z m3777 -264 c96 -24 164 -60 200 -106 99
-125 169 -344 209 -649 21 -153 23 -460 5 -639 -35 -350 -103 -856 -137 -1015
-41 -196 -118 -397 -176 -461 l-31 -33 6 -101 c3 -55 22 -206 42 -335 41 -262
56 -492 36 -553 -21 -64 -121 -160 -297 -287 -39 -28 -102 -92 -167 -170 -129
-156 -194 -216 -285 -263 -63 -33 -78 -37 -146 -37 -42 0 -76 -3 -76 -7 -2
-85 -24 -329 -36 -392 -8 -47 -38 -146 -66 -220 -61 -166 -72 -224 -56 -311
13 -79 5 -323 -16 -462 -9 -53 -42 -191 -76 -307 -67 -234 -131 -488 -150
-598 -7 -40 -16 -73 -19 -73 -3 0 -24 33 -46 72 -58 104 -223 353 -312 471
-99 132 -281 343 -372 432 -39 38 -71 72 -71 76 0 3 26 9 58 12 124 14 278 70
385 141 223 148 347 376 379 697 10 100 9 128 -5 199 -38 192 -152 334 -344
425 -174 83 -378 144 -572 171 -285 40 -731 -6 -921 -94 -60 -28 -129 -87
-160 -137 l-20 -33 -69 35 c-117 60 -245 58 -372 -7 l-57 -28 -31 48 c-59 91
-145 141 -316 184 -408 103 -842 82 -1202 -57 -203 -79 -305 -146 -380 -252
-89 -127 -120 -257 -102 -442 34 -360 194 -605 487 -746 97 -46 185 -70 345
-93 l38 -5 -107 -102 c-367 -350 -538 -561 -662 -819 -55 -112 -72 -137 -72
-102 0 30 -58 189 -145 397 -59 141 -91 234 -100 286 -19 106 -34 326 -45 651
-8 259 -10 281 -39 385 -16 61 -46 155 -66 210 -21 55 -52 151 -70 214 -33
113 -44 131 -78 131 -50 0 -110 56 -127 119 -7 27 -42 69 -137 163 -143 142
-205 194 -313 264 -165 106 -268 241 -291 384 -12 76 -7 119 36 280 59 223 78
334 73 441 -4 96 -4 99 -65 221 -92 183 -104 233 -192 828 -70 470 -84 610
-84 855 -1 233 12 328 65 490 46 136 104 238 192 334 82 89 252 186 359 206
l37 7 0 -51 c0 -97 62 -238 165 -376 71 -95 141 -165 261 -262 107 -86 201
-186 276 -294 81 -114 222 -391 383 -750 69 -153 121 -242 199 -338 145 -178
335 -280 525 -281 54 0 78 7 162 45 214 96 505 170 787 199 332 35 848 10
1242 -60 205 -36 242 -47 438 -125 96 -38 176 -68 179 -66 2 3 13 38 24 78 26
90 77 204 125 276 61 92 101 196 209 544 84 270 148 433 255 648 157 316 336
547 514 665 101 68 343 186 451 221 75 23 193 49 275 58 58 7 181 -4 257 -24z
m-4501 -4453 c6 -6 124 -194 263 -419 282 -457 263 -405 189 -505 -22 -29 -44
-52 -49 -50 -6 2 -146 224 -313 493 l-302 490 60 6 c74 6 137 0 152 -15z
m2032 -23 c27 -39 753 -1215 759 -1229 4 -11 -107 -66 -169 -82 l-38 -10 -94
151 c-294 475 -716 1159 -716 1162 0 4 122 24 175 28 22 2 45 4 52 5 6 1 20
-10 31 -25z m-2143 -539 c186 -301 340 -554 342 -563 3 -12 -18 -30 -74 -63
-112 -68 -189 -100 -201 -85 -5 7 -164 262 -352 567 -189 305 -349 565 -357
577 -14 20 -12 22 79 52 92 30 193 58 214 60 6 1 163 -245 349 -545z m1241
334 c76 -35 91 -60 97 -168 10 -153 56 -328 119 -454 16 -32 28 -60 26 -62 -3
-2 -31 1 -64 6 -115 19 -467 5 -648 -26 -22 -4 -37 -3 -35 2 2 5 21 42 42 82
71 136 119 311 133 474 l7 88 46 29 c92 60 190 70 277 29z m279 -820 c56 -13
67 -20 150 -104 177 -176 424 -307 654 -346 l74 -12 130 -131 c296 -297 549
-618 762 -970 73 -121 76 -135 55 -305 -48 -387 -221 -635 -490 -701 -36 -9
-113 -14 -225 -13 -140 0 -183 4 -246 21 -114 32 -228 80 -314 132 -72 43 -79
50 -100 104 -47 119 -76 138 -210 145 l-90 4 -101 68 c-134 90 -245 130 -356
130 l-39 0 7 48 c5 43 3 49 -25 76 -37 35 -38 58 -10 123 27 61 29 126 4 153
-14 16 -31 20 -77 20 -81 0 -115 -17 -181 -93 -68 -77 -79 -108 -72 -202 6
-65 4 -74 -28 -135 -32 -61 -37 -66 -118 -108 -98 -52 -213 -130 -400 -271
-206 -155 -308 -197 -501 -208 -160 -9 -284 20 -453 104 -199 99 -328 223
-393 376 -22 52 -26 77 -26 152 1 266 136 579 380 886 70 88 334 355 515 521
l106 98 94 24 c211 55 401 160 554 308 l70 67 125 21 c69 11 166 25 215 29
129 13 487 6 560 -11z m-335 -2088 c10 -5 34 -32 54 -59 49 -67 72 -79 184
-101 53 -10 110 -23 126 -30 16 -6 69 -48 117 -95 115 -109 195 -150 274 -142
30 3 55 2 55 -3 0 -19 -188 -163 -257 -197 -59 -29 -94 -38 -192 -51 -117 -15
-122 -15 -223 7 -144 33 -199 36 -314 17 -197 -31 -319 -17 -470 53 -87 41
-274 158 -274 171 0 11 121 100 135 100 20 0 43 -33 50 -73 10 -50 36 -81 90
-107 61 -29 84 -22 160 50 58 56 67 61 154 84 52 13 105 33 120 43 43 32 70
93 82 184 10 83 19 110 47 142 17 19 53 22 82 7z m52 -792 l247 -2 -43 -46
c-23 -25 -52 -66 -64 -91 -25 -51 -46 -151 -39 -186 5 -29 -5 -37 -78 -59 -64
-20 -246 -23 -315 -7 l-35 9 -6 84 c-4 47 -14 104 -23 128 -20 55 -67 124
-108 157 l-33 27 125 -6 c69 -3 236 -7 372 -8z m-779 -256 c-9 -15 -18 -29
-19 -31 -2 -1 -7 0 -13 4 -17 10 16 66 34 59 12 -5 12 -10 -2 -32z m1359 8
l16 -29 -34 -20 c-45 -27 -48 -27 -61 9 -10 27 -9 31 20 49 41 25 39 26 59 -9z"/>
<path d="M6093 6860 c-162 -18 -331 -69 -488 -148 -104 -52 -164 -92 -295
-197 -202 -161 -359 -198 -555 -132 -39 14 -152 65 -251 115 -100 50 -226 106
-281 125 -176 62 -399 87 -593 68 -151 -15 -211 -33 -244 -72 -46 -55 -15 -62
117 -28 68 17 100 20 187 16 185 -10 327 -65 611 -240 193 -118 254 -149 372
-189 80 -27 106 -32 197 -32 170 -1 250 36 497 232 337 267 495 338 848 383
166 21 201 33 176 63 -28 33 -168 50 -298 36z"/>
<path d="M4568 4575 c-162 -27 -291 -88 -384 -180 -239 -237 -128 -518 316
-799 87 -55 325 -176 346 -176 9 0 14 -10 14 -27 0 -16 4 -33 8 -39 13 -20
145 -99 212 -127 104 -43 131 -37 164 37 13 28 30 57 39 64 8 7 18 32 22 55 3
23 13 79 22 123 15 80 16 82 57 105 256 142 366 300 366 528 0 266 -193 413
-577 441 -124 9 -135 8 -180 -12 -60 -27 -115 -26 -173 1 -53 24 -132 26 -252
6z"/>
<path d="M5856 3807 c-28 -20 -18 -61 16 -65 36 -4 53 26 32 56 -18 26 -24 27
-48 9z"/>
<path d="M3651 3747 c-17 -21 -3 -49 23 -45 15 2 21 10 21 28 0 28 -26 38 -44
17z"/>
<path d="M5986 3707 c-28 -20 -18 -61 16 -65 37 -4 57 31 32 59 -20 23 -25 23
-48 6z"/>
<path d="M3531 3627 c-14 -17 -60 -46 -107 -67 -71 -33 -86 -44 -109 -85 -15
-25 -25 -48 -23 -50 3 -3 30 13 61 35 31 22 80 53 109 68 39 20 59 38 76 70
29 53 25 69 -7 29z"/>
<path d="M3925 3614 c-18 -19 -16 -33 7 -48 12 -7 21 -6 32 3 22 18 20 38 -3
51 -15 7 -24 6 -36 -6z"/>
<path d="M6205 3483 c81 -90 114 -137 150 -209 76 -152 162 -213 364 -259 l56
-13 -29 22 c-313 231 -381 293 -439 402 -55 103 -90 138 -161 159 l-46 14 105
-116z"/>
<path d="M6593 3530 c41 -38 92 -96 114 -127 40 -59 71 -76 98 -53 29 24 -10
126 -68 177 -37 32 -101 57 -175 67 l-42 6 73 -70z"/>
<path d="M3810 3526 c-27 -33 18 -72 48 -42 13 13 14 20 6 34 -15 23 -38 26
-54 8z"/>
<path d="M3711 3386 c-25 -30 -138 -95 -186 -107 -103 -25 -202 -79 -277 -153
-35 -34 -81 -105 -61 -93 4 2 54 32 110 65 56 34 130 73 165 86 35 14 89 35
121 47 61 23 87 49 126 127 22 43 23 53 2 28z"/>
<path d="M4003 3298 c-136 -194 -230 -266 -503 -386 -20 -9 -8 -11 70 -11 114
-1 137 8 271 104 168 121 239 204 239 279 0 47 -9 86 -19 86 -4 0 -30 -33 -58
-72z"/>
<path d="M5990 3298 c0 -12 69 -204 107 -295 64 -154 124 -219 237 -262 47
-17 196 -45 203 -37 2 2 -23 17 -56 35 -179 95 -345 275 -453 491 -21 41 -38
72 -38 68z"/>
</g>
</svg>
