<?xml version="1.0" encoding="utf-8"?>
<!-- Generator: Adobe Illustrator 22.0.1, SVG Export Plug-In . SVG Version: 6.00 Build 0)  -->
<svg version="1.1" id="Untitled-Page_x25_201" xmlns="http://www.w3.org/2000/svg" xmlns:xlink="http://www.w3.org/1999/xlink"
	 x="0px" y="0px" viewBox="0 0 104.8 104.7" style="enable-background:new 0 0 104.8 104.7;" xml:space="preserve">
<style type="text/css">
	.st0{fill:none;}
	.st1{fill:#2DFF6C;stroke:#8400FF;stroke-width:2;}
	.st2{clip-path:url(#SVGID_2_);}
	.st3{fill:none;stroke:#8400FF;stroke-width:2;}
</style>
<g>
	<rect class="st0" width="104.8" height="104.8"/>
	<path class="st1" d="M56,6h-7C23.1,6,2,27,2,53c0,26,21,47,47,47h7c25.9,0,47-21,47-47C103,27,81.9,6,56,6z M62.2,76H43.8
		L30.2,52.5L43.8,29h18.4l13.6,23.5L62.2,76z"/>
	<path class="st0" d="M56,6h-7C23.1,6,2,27,2,53c0,26,21,47,47,47h7c25.9,0,47-21,47-47C103,27,81.9,6,56,6z M62.2,76H43.8
		L30.2,52.5L43.8,29h18.4l13.6,23.5L62.2,76z"/>
	<g>
		<defs>
			<path id="SVGID_1_" d="M56,6h-7C23.1,6,2,27,2,53c0,26,21,47,47,47h7c25.9,0,47-21,47-47C103,27,81.9,6,56,6z M62.2,76H43.8
				L30.2,52.5L43.8,29h18.4l13.6,23.5L62.2,76z"/>
		</defs>
		<clipPath id="SVGID_2_">
			<use xlink:href="#SVGID_1_"  style="overflow:visible;"/>
		</clipPath>
		<g class="st2">
			<g>
				<g>
					<path class="st3" d="M19,6h100l0,0"/>
					<path class="st3" d="M19,10h100l0,0"/>
					<path class="st3" d="M19,14h100l0,0"/>
					<path class="st3" d="M19,17h100l0,0"/>
					<path class="st3" d="M19,21h100l0,0"/>
					<path class="st3" d="M19,25h100l0,0"/>
					<path class="st3" d="M19,29h100l0,0"/>
					<path class="st3" d="M19,33h100l0,0"/>
					<path class="st3" d="M19,37h100l0,0"/>
					<path class="st3" d="M19,41h100l0,0"/>
					<path class="st3" d="M19,45h100l0,0"/>
					<path class="st3" d="M19,49h100l0,0"/>
					<path class="st3" d="M19,53h100l0,0"/>
					<path class="st3" d="M19,57h100l0,0"/>
					<path class="st3" d="M19,61h100l0,0"/>
					<path class="st3" d="M19,65h100l0,0"/>
					<path class="st3" d="M19,68h100l0,0"/>
					<path class="st3" d="M19,72h100l0,0"/>
					<path class="st3" d="M19,76h100l0,0"/>
					<path class="st3" d="M19,80h100l0,0"/>
					<path class="st3" d="M19,84h100l0,0"/>
					<path class="st3" d="M19,88h100l0,0"/>
					<path class="st3" d="M19,92h100l0,0"/>
					<path class="st3" d="M19,96h100l0,0"/>
					<path class="st3" d="M19,100h100l0,0"/>
				</g>
			</g>
		</g>
	</g>
	<path class="st1" d="M49,5.7C23,5.7,1.9,26.7,1.9,52.8c0,26,21.1,47.1,47.1,47.1c26,0,47.1-21.1,47.1-47.1C96.1,26.7,75,5.7,49,5.7
		z M62.6,76H35.4L21.9,52.5L35.4,29h27.1l13.6,23.5L62.6,76z"/>
	<g>
		<path class="st3" d="M49,11.8c-22.6,0-40.9,18.3-40.9,40.9c0,22.6,18.3,40.9,40.9,40.9c22.6,0,40.9-18.3,40.9-40.9
			C89.9,30.2,71.6,11.8,49,11.8z"/>
	</g>
</g>
</svg>
