<svg id="Layer_1" data-name="Layer 1" xmlns="http://www.w3.org/2000/svg" viewBox="0 0 562.2 347.5"><polygon points="508.94 11.32 454.86 38.6 478 55.32 508.94 11.32" style="fill:#0000cf"/><polygon points="340.51 0 415.86 90.52 407.78 34.65 340.51 0" style="fill:#0000ab"/><polygon points="340.51 0 340.62 0.23 340.68 0.22 405.22 138.04 415.86 90.52 340.51 0" style="fill:#0014bf"/><polygon points="340.62 0.23 302.08 7.84 405.22 138.04 340.68 0.22 340.62 0.23" style="fill:#0000cf"/><polygon points="302.08 7.84 302.08 7.84 293.38 94.22 405.22 138.04 302.08 7.84" style="fill:#0000e3"/><polygon points="302.08 7.84 302.08 7.84 178.09 110.47 293.38 94.22 302.08 7.84" style="fill:#0000cf"/><polygon points="405.22 138.04 281.9 171.48 349.58 163.87 405.22 138.04" style="fill:#0014bf"/><polygon points="281.9 171.48 213.77 183.13 283.07 194.77 281.9 171.48" style="fill:#001cd1"/><polygon points="349.58 163.87 281.9 171.48 283.07 194.77 349.58 163.87" style="fill:#0000ab"/><polygon points="293.38 94.22 178.09 110.47 281.9 171.48 293.38 94.22" style="fill:#0000ab"/><polygon points="178.09 110.47 178.09 110.47 213.77 183.13 281.9 171.48 178.09 110.47" style="fill:#0000cf"/><polygon points="178.09 110.47 179.39 208.18 213.77 183.13 178.09 110.47" style="fill:#0000ab"/><polygon points="119.67 130.05 119.67 130.05 95.52 155.76 133.37 212.84 119.67 130.05" style="fill:#001cd1"/><polygon points="95.52 155.76 95.52 155.76 51.83 156.33 95.61 182.43 95.52 155.76" style="fill:#0000ab"/><polygon points="51.83 156.34 55.33 174.39 95.61 182.48 95.61 182.43 51.83 156.34" style="fill:#0000e3"/><polygon points="51.83 156.34 51.83 156.34 30.29 196.52 55.33 174.39 51.83 156.34" style="fill:#0000cf"/><polygon points="0 205.26 28.53 209.93 30.28 196.52 0 205.26" style="fill:#0000ab"/><polygon points="55.32 174.39 55.32 174.39 30.29 196.52 28.54 209.93 55.32 174.39" style="fill:#0000e3"/><path d="M95.75,220.28l-.14-37.79Z" style="fill:#404a80"/><polygon points="95.52 155.76 95.52 155.76 95.61 182.43 95.61 182.48 95.75 220.28 133.37 212.84 95.52 155.76" style="fill:#0014bf"/><polygon points="106.44 263.14 75.13 275.75 79.17 319.45 106.44 263.14" style="fill:#0000cf"/><polygon points="75.13 275.75 75.13 275.75 63.44 327.03 79.17 319.45 75.13 275.75" style="fill:#0000ab"/><polygon points="50.73 347.5 83.39 340.79 79.17 319.45 50.73 347.5" style="fill:#0000cf"/><polygon points="63.43 327.03 50.74 347.5 79.17 319.45 63.43 327.03" style="fill:#0000e3"/><polygon points="133.37 212.84 95.75 220.28 75.13 275.75 133.37 212.84" style="fill:#0000ab"/><polygon points="133.37 212.84 133.37 212.84 75.13 275.75 106.44 263.14 159 241.96 133.37 212.84" style="fill:#0000e3"/><polygon points="178.09 110.47 119.67 130.05 133.37 212.84 178.09 110.47" style="fill:#0000cf"/><polygon points="178.09 110.47 178.09 110.47 133.37 212.84 179.39 208.18 178.09 110.47" style="fill:#0000e3"/><polygon points="179.39 208.18 179.39 208.18 133.37 212.84 159.01 241.96 179.39 208.18" style="fill:#0000ab"/><polygon points="403.76 163.51 349.58 163.87 369.21 216.35 403.76 163.51" style="fill:#0000cf"/><polygon points="405.22 138.04 405.22 138.04 349.58 163.87 403.76 163.51 405.22 138.04" style="fill:#0000e3"/><polygon points="349.58 163.87 349.58 163.87 338.99 210.69 369.21 216.35 349.58 163.87" style="fill:#0014bf"/><polygon points="338.99 210.69 338.99 210.69 325.92 235.2 369.21 216.35 338.99 210.69" style="fill:#0000cf"/><polygon points="338.99 210.69 307.86 212.49 299.71 252.68 338.99 210.69" style="fill:#0000cf"/><polygon points="338.99 210.69 338.99 210.69 299.71 252.68 325.92 235.2 338.99 210.69" style="fill:#0000ab"/><polygon points="506.38 2.42 506.38 2.42 454.86 38.6 508.93 11.32 506.38 2.42" style="fill:#0014bf"/><polygon points="506.38 2.42 508.93 11.32 548.61 0.33 506.38 2.42" style="fill:#0000bf"/><polygon points="455.86 68.42 479.29 84.93 496.69 79.82 535.26 68.48 455.86 68.42" style="fill:#0000bf"/><polygon points="524.16 59.59 524.16 59.59 487.81 64.29 455.86 68.42 535.26 68.48 524.16 59.59" style="fill:#00009e"/><polygon points="555.48 32.12 524.16 59.59 535.27 68.48 555.48 32.12" style="fill:#0014bf"/><polygon points="535.27 68.48 562.21 35.24 555.48 32.12 535.27 68.48" style="fill:#0000e3"/><polygon points="555.48 32.12 562.2 35.24 561.07 16.38 555.48 32.12" style="fill:#000f91"/><polygon points="415.86 90.52 415.86 90.52 405.22 138.04 423.51 156.91 415.86 90.52" style="fill:#0000ab"/><polygon points="479.29 84.93 415.86 90.52 423.51 156.91 479.29 84.93" style="fill:#0000cf"/><polygon points="407.78 34.65 415.86 90.52 479.29 84.93 407.78 34.65" style="fill:#0000e3"/><polygon points="478.01 55.32 478.01 55.32 455.86 68.42 487.81 64.29 478.01 55.32" style="fill:#0000ab"/><polygon points="407.78 34.65 455.86 68.42 478 55.32 407.78 34.65" style="fill:#0000cf"/><polygon points="407.78 34.65 478 55.32 454.86 38.6 407.78 34.65" style="fill:#0000ab"/><polygon points="479.29 84.93 479.29 84.93 476.38 190.06 504.67 105.53 479.29 84.93" style="fill:#0014bf"/><polygon points="479.29 84.93 423.51 156.91 476.38 190.06 479.29 84.93" style="fill:#0000e3"/><polygon points="496.69 79.81 479.29 84.93 504.67 105.53 496.69 79.81" style="fill:#0000ab"/><polygon points="504.67 105.53 504.67 105.53 476.38 190.06 508.03 175.53 504.67 105.53" style="fill:#0000ab"/><polygon points="293.38 94.22 293.38 94.22 281.9 171.48 405.22 138.04 293.38 94.22" style="fill:#0000cf"/><polygon points="91.37 323.29 94.04 323.29 94.04 330.75 95.58 330.75 95.58 323.29 98.25 323.29 98.25 321.95 91.37 321.95 91.37 323.29" style="fill:#170087"/><polygon points="108.68 321.95 107.43 321.95 107.1 321.95 104.37 328.41 101.64 321.95 101.31 321.95 100.07 321.95 99.78 321.95 99.78 330.75 101.31 330.75 101.31 324.76 103.97 330.75 104.78 330.75 107.43 324.76 107.43 330.75 108.96 330.75 108.96 321.95 108.68 321.95" style="fill:#170087"/></svg>