<?xml version="1.0" encoding="UTF-8"?>
<svg width="140px" height="136px" viewBox="0 0 140 136" version="1.1" xmlns="http://www.w3.org/2000/svg" xmlns:xlink="http://www.w3.org/1999/xlink">
    <title>Symbol</title>
    <defs>
        <linearGradient x1="-2.22044605e-14%" y1="50%" x2="100%" y2="50%" id="linearGradient-1">
            <stop stop-color="#0BBDDA" offset="0%"></stop>
            <stop stop-color="#7D58F2" offset="38.6651967%"></stop>
            <stop stop-color="#FB71AE" offset="100%"></stop>
        </linearGradient>
    </defs>
    <g id="Social-Media" stroke="none" stroke-width="1" fill="none" fill-rule="evenodd">
        <g id="01_Avatar" transform="translate(-30.000000, -34.000000)" fill="url(#linearGradient-1)">
            <path d="M68.5942829,34 L30,82.5378827 L43.7739375,143.063035 L99.5458914,170 L155.316972,143.063035 L169.090909,82.5378827 L130.495753,34 L68.5942829,34 Z M79.7691171,42.7619833 L119.321792,42.7619833 L99.5458914,67.6328729 L79.7691171,42.7619833 Z M41.7479474,81.8150191 L70.6980278,45.4072261 L93.9580375,74.6599835 L76.6379619,96.4413978 L41.7479474,81.8150191 Z M130.632915,48.2250799 L156.526101,80.789867 L121.549595,88.1359138 L130.632915,48.2250799 Z M105.131998,74.6599835 L119.874811,56.1196268 L113.314587,84.9491805 L105.131998,74.6599835 Z M99.5458914,81.6862179 L107.088096,91.1728172 L88.9782427,94.9763942 L99.5458914,81.6862179 Z M122.763966,96.8330584 L158.58791,89.3091434 L149.285304,130.186424 L122.763966,96.8330584 Z M40.8742992,90.9458819 L70.9749743,103.564014 L49.8056047,130.186424 L40.8742992,90.9458819 Z M54.3948787,138.468251 L80.4313424,105.723843 L109.999092,99.5133491 L96.5055956,158.806566 L54.3948787,138.468251 Z M117.794655,104.636481 L144.695157,138.468251 L105.82218,157.242552 L117.794655,104.636481 Z" id="Symbol"></path>
        </g>
    </g>
</svg>