<?xml version="1.0" encoding="UTF-8"?>
<svg width="200px" height="200px" viewBox="0 0 200 200" version="1.1" xmlns="http://www.w3.org/2000/svg" xmlns:xlink="http://www.w3.org/1999/xlink">
    <title>Group</title>
    <defs>
        <linearGradient x1="4.06794258%" y1="97.0816901%" x2="97.2239234%" y2="127.412676%" id="linearGradient-1">
            <stop stop-color="#7543E3" offset="0%"></stop>
            <stop stop-color="#582ACB" offset="100%"></stop>
        </linearGradient>
    </defs>
    <g id="Page-1" stroke="none" stroke-width="1" fill="none" fill-rule="evenodd">
        <g id="Group">
            <rect id="Rectangle" fill="url(#linearGradient-1)" fill-rule="nonzero" x="0" y="0" width="200" height="200" rx="100"></rect>
            <path d="M100.006814,25 C109.643212,25 117.956596,35.05 123.431823,51.38 C121.220827,52 118.961052,52.69 116.681367,53.46 C112.131951,39.95 105.890193,32 100.006814,32 C93.3758172,32 86.301825,42.082 81.694671,58.84 C83.4935317,59.425 85.3123023,60.044 87.1649197,60.73 C91.3440106,62.276 95.6555023,64.093 100.050616,66.156 C100.301481,66.04 100.552346,65.914 100.80321,65.8 C103.620463,64.5 106.417806,63.3 109.185284,62.2 C109.523753,62.07 109.852266,61.94 110.18078,61.81 C118.473259,58.59 126.486999,56.28 133.823802,55.06 C149.622318,52.42 160.73205,55.15 165.092321,62.75 C169.462547,70.35 166.267006,81.38 156.09304,93.8 C155.505698,94.51 154.909396,95.23 154.281238,95.94 C152.768085,94.25 151.155382,92.56 149.43417,90.87 C158.412545,80.41 161.946555,71.27 159.060613,66.25 C156.331959,61.5 147.332678,59.9 134.968622,61.96 C132.327572,62.402 129.581995,63 126.76076,63.737 C127.16294,65.598 127.540233,67.495 127.870738,69.46 C128.633288,73.86 129.223617,78.515 129.64272,83.363 C131.815887,84.898 133.938284,86.455 135.974073,88.04 C143.958944,94.25 150.816913,100.76 156.09304,107.2 C166.267006,119.62 169.462547,130.65 165.092321,138.25 C161.81714,143.96 154.729211,146.92 144.705565,146.92 C141.390565,146.92 137.75601,146.6 133.823802,145.94 C132.808396,145.77 131.773081,145.58 130.728806,145.37 C131.354973,143.2 131.933356,140.93 132.459973,138.58 C133.306144,138.75 134.142361,138.9 134.968622,139.04 C147.323719,141.1 156.331959,139.5 159.060613,134.75 C162.375614,128.979 157.198041,117.755 145.022133,105.345 C143.805637,106.459 142.555295,107.568 141.26115,108.67 C141.071011,108.83 140.871911,109 140.683763,109.15 C137.238352,112.049 133.537099,114.896 129.627788,117.658 C129.438644,119.854 129.224612,122.024 128.965783,124.13 C125.16299,154.89 113.974614,176 100.006814,176 C90.3903257,176 82.0878918,165.98 76.6126656,149.69 C78.812711,149.09 81.0625312,148.39 83.3631217,147.61 C87.9115415,161.08 94.1333895,169 100.006814,169 C106.638806,169 113.729722,158.885 118.343844,142.08 C116.534033,141.502 114.710285,140.885 112.868618,140.2 C108.662649,138.661 104.369076,136.862 100.045638,134.85 C99.9530572,134.893 99.8604761,134.937 99.767895,134.98 C97.3289306,136.12 94.929786,137.18 92.5605063,138.16 C92.1921729,138.31 91.8337944,138.46 91.475416,138.59 C77.8371252,144.11 65.3834743,146.97 55.4782924,146.97 C45.6129302,146.97 38.296037,144.13 34.9113517,138.25 C30.0732427,129.83 34.6525228,117.5 46.1106781,104.5 L46.1106781,104.5 L50.9786519,109.66 C41.7105872,120.32 38.0272532,129.66 40.9540105,134.75 C44.2650291,140.514 56.493698,141.628 73.2449037,137.259 C72.8506874,135.404 72.476381,133.511 72.14289,131.55 C71.3873088,127.156 70.7989708,122.513 70.3788716,117.676 C68.1957496,116.142 66.0723573,114.593 64.0594651,113.04 C44.6472994,98.04 33,82.11 33,70.25 C33,67.51 33.6271623,64.99 34.9113517,62.75 C39.7295508,54.38 52.5216702,52.17 69.3156823,55.55 C68.6795605,57.75 68.0912226,60.05 67.5636099,62.43 C53.7560848,59.69 43.8708128,61.16 40.9540105,66.25 C37.6429918,72.013 42.7996594,83.212 54.9387337,95.605 C56.4956889,94.185 58.1113784,92.777 59.8086986,91.38 C63.0798973,88.662 66.61988,85.966 70.3868356,83.314 C70.5769753,81.113 70.7929978,78.939 71.0577997,76.83 C74.8605932,46.1 86.0499646,25 100.006814,25 Z M122.057043,122.728 C120.380628,123.795 118.683308,124.85 116.95015,125.88 C116.362808,126.23 115.775465,126.57 115.188123,126.91 C113.127447,128.1 111.066771,129.25 109.026005,130.33 C108.72437,130.493 108.42373,130.642 108.122095,130.803 C110.239514,131.702 112.342001,132.544 114.421591,133.32 C116.300092,134.023 118.153705,134.666 119.99139,135.269 C120.399543,133.353 120.778827,131.376 121.121277,129.33 C121.476669,127.207 121.7793,124.987 122.057043,122.728 Z M77.9346838,122.719 C78.2273595,125.09 78.5638371,127.395 78.9421254,129.62 C79.270639,131.566 79.6399679,133.437 80.0321932,135.262 C81.1580988,134.896 82.2959504,134.512 83.4517209,134.1 C83.8001443,133.98 84.1585228,133.85 84.5069463,133.72 C86.8861809,132.86 89.3251453,131.91 91.8138845,130.84 C91.8367809,130.831 91.8606728,130.82 91.8825737,130.811 C89.527231,129.571 87.1718882,128.27 84.8255049,126.91 C84.7060454,126.84 84.576631,126.77 84.4571715,126.69 C82.2163107,125.387 80.0530986,124.059 77.9346838,122.719 Z M100.0098,73.91 C97.6275793,75.076 95.2383897,76.297 92.8492,77.6 C91.3360466,78.42 89.8228932,79.27 88.3097398,80.15 C84.3446805,82.449 80.6095807,84.811 77.087517,87.201 C76.9441656,89.24 76.8197287,91.305 76.74208,93.43 C76.6524854,95.74 76.6126656,98.1 76.6126656,100.5 C76.6126656,105.103 76.7809043,109.533 77.0805485,113.793 C79.1143462,115.175 81.2058826,116.545 83.3919911,117.89 C84.9947392,118.89 86.6273521,119.88 88.3097398,120.85 C92.2051143,123.109 96.1194033,125.187 100.013782,127.089 C100.265643,126.967 100.51153,126.854 100.763391,126.73 C103.351679,125.45 105.969833,124.07 108.627806,122.59 C109.653167,122.03 110.678528,121.45 111.703888,120.85 C115.669943,118.552 119.405043,116.191 122.926111,113.803 C123.069462,111.761 123.193899,109.692 123.271548,107.57 C123.361143,105.26 123.400962,102.9 123.400962,100.5 C123.400962,95.9 123.232724,91.469 122.933079,87.208 C120.905255,85.832 118.816705,84.463 116.631592,83.11 C115.028844,82.11 113.386276,81.13 111.703888,80.15 C107.738829,77.85 103.833499,75.78 100.0098,73.91 Z M100.007013,91.5 C104.955622,91.5 108.966474,95.529 108.966474,100.5 C108.966474,105.471 104.955622,109.5 100.007013,109.5 C95.058404,109.5 91.047552,105.471 91.047552,100.5 C91.047552,95.529 95.058404,91.5 100.007013,91.5 Z M130.213139,92.435 C130.315675,95.077 130.369432,97.767 130.369432,100.5 C130.369432,101.16 130.369432,101.82 130.359477,102.48 C130.339567,104.547 130.277846,106.58 130.198207,108.594 C131.99209,107.231 133.714298,105.865 135.356865,104.5 C135.565919,104.33 135.765019,104.17 135.964118,104 C137.357812,102.828 138.688789,101.663 139.970988,100.499 C138.797298,99.436 137.580803,98.369 136.312541,97.3 C134.391235,95.67 132.345491,94.05 130.213139,92.435 Z M69.8154211,92.417 C68.2037136,93.64 66.6447674,94.865 65.1545103,96.09 C63.3576406,97.555 61.6563385,99.029 60.0366671,100.504 C61.2123475,101.569 62.4308342,102.639 63.7020821,103.71 C65.6233888,105.331 67.6691324,106.951 69.8024796,108.566 C69.6989481,105.924 69.6441958,103.233 69.6441958,100.5 C69.6441958,99.84 69.6441958,99.18 69.6641057,98.53 C69.6780427,96.465 69.7367769,94.433 69.8154211,92.417 Z M119.981435,65.734 C119.052637,66.037 118.119858,66.35 117.179114,66.68 C114.411636,67.64 111.604339,68.73 108.757221,69.93 C108.556131,70.014 108.35305,70.107 108.15196,70.192 C110.48341,71.425 112.829794,72.723 115.188123,74.09 C115.307582,74.16 115.436997,74.23 115.556456,74.31 C117.782385,75.598 119.947588,76.934 122.07994,78.289 C121.787264,75.914 121.450786,73.607 121.071502,71.38 C120.739007,69.436 120.368682,67.562 119.981435,65.734 Z M80.0262202,65.735 C79.6210535,67.646 79.2437606,69.619 78.9023056,71.66 C78.5409407,73.786 78.2353235,75.998 77.9545937,78.255 C80.079977,76.907 82.263099,75.577 84.5069463,74.27 C84.6164508,74.21 84.7160004,74.15 84.8255049,74.09 C87.1758702,72.727 89.5351949,71.43 91.8935242,70.191 C89.758186,69.284 87.6576901,68.446 85.602987,67.68 C83.6995993,66.96 81.8479773,66.324 80.0262202,65.735 Z" id="Combined-Shape" fill="#FFFFFF"></path>
        </g>
    </g>
</svg>