<svg xmlns="http://www.w3.org/2000/svg" viewBox="0 0 146.59 146.52"><defs><style>.cls-1{fill:#dab679;}</style></defs><title>lightAsset 2</title><g id="Layer_2" data-name="Layer 2"><g id="Layer_1-2" data-name="Layer 1"><path class="cls-1" d="M104,100.87a2.67,2.67,0,0,1-1.11-.24,2.75,2.75,0,0,1-1.47-1.54h0A2.77,2.77,0,0,1,103,95.5a2.78,2.78,0,0,1,2,5.18A3,3,0,0,1,104,100.87Zm-1.51-2.19a1.63,1.63,0,0,0,2.1.93,1.6,1.6,0,0,0,.9-.87,1.57,1.57,0,0,0,0-1.24,1.65,1.65,0,0,0-.86-.9,1.69,1.69,0,0,0-1.25,0,1.64,1.64,0,0,0-.92,2.11Z"/><path class="cls-1" d="M40.75,100.87a2.79,2.79,0,0,1-2.59-1.78h0a2.77,2.77,0,0,1,3.71-3.54,2.71,2.71,0,0,1,1.46,1.53,2.77,2.77,0,0,1-1.58,3.6A2.86,2.86,0,0,1,40.75,100.87Zm0-4.41a1.71,1.71,0,0,0-.59.11,1.65,1.65,0,0,0-.9.86,1.69,1.69,0,0,0,0,1.25h0a1.63,1.63,0,0,0,2.11.93,1.67,1.67,0,0,0,.9-.87,1.64,1.64,0,0,0-.84-2.14A1.65,1.65,0,0,0,40.75,96.46Z"/><path class="cls-1" d="M72.43,90.75A2.78,2.78,0,0,1,69.85,89h0a2.81,2.81,0,0,1,0-2.13,2.78,2.78,0,1,1,2.54,3.9Zm0-4.4a1.54,1.54,0,0,0-.59.11,1.63,1.63,0,0,0-.92,2.1h0a1.59,1.59,0,0,0,.86.9,1.62,1.62,0,0,0,2.14-.83,1.6,1.6,0,0,0,0-1.25,1.59,1.59,0,0,0-1.52-1Z"/><rect class="cls-1" x="71.86" y="47.05" width="1.15" height="38.73"/><path class="cls-1" d="M103.75,96.84,72.43,48.11,41.16,96.77l7.31-51.16H95.8ZM49.47,46.76,43,91.71,71.93,46.76Zm23.46,0,28.85,44.89-7-44.89Z"/><rect class="cls-1" x="60.13" y="42.97" width="1.15" height="46.02" transform="translate(-25.16 40.18) rotate(-30.66)"/><rect class="cls-1" x="61.01" y="65.4" width="45.72" height="1.15" transform="translate(-15.21 105.61) rotate(-60)"/><path class="cls-1" d="M28.59,22l.59,1.64-1.2,1-2.49-6.91,1.22-1,6.39,3.62-1.17,1-1.52-.85Zm.64-2.21-2.11-1.36,1,2.29Z"/><path class="cls-1" d="M36.73,14.93l-2.41-3.71,1.23-.8L38,14.13A2.67,2.67,0,0,1,33.49,17l-2.41-3.71,1.24-.81,2.42,3.71a1.19,1.19,0,0,0,2-1.3Z"/><path class="cls-1" d="M46.73,10.8a3.39,3.39,0,0,1-1.95,2.62,3.46,3.46,0,0,1-4.65-1.67A3.46,3.46,0,0,1,41.7,7.06a3.42,3.42,0,0,1,3.22.06l-.71,1.26a2,2,0,0,0-2.76,2.73,2,2,0,0,0,3.86-.53Z"/><path class="cls-1" d="M47,4.8,52,3.11l.43,1.25L50.63,5l1.81,5.27-1.4.48L49.23,5.45l-1.76.6Z"/><path class="cls-1" d="M56.56,1.93,58.2,8.62,56.78,9,55.14,2.28Z"/><path class="cls-1" d="M63.44.59a3.49,3.49,0,0,1,3.94,3,3.49,3.49,0,1,1-6.92.94A3.49,3.49,0,0,1,63.44.59Zm.75,5.56a2.05,2.05,0,0,0,1.75-2.33,2,2,0,1,0-4,.55A2,2,0,0,0,64.19,6.15Z"/><path class="cls-1" d="M75.75,6.88H74.44L72,2.73V6.89H70.58V0h1.34l2.36,4.11V0h1.47Z"/><path class="cls-1" d="M89.5,1.75,88.23,8.52l-1.46-.27.52-2.72-2.41-.45L84.37,7.8l-1.44-.27L84.2.76,85.64,1l-.52,2.76,2.41.45.52-2.76Z"/><path class="cls-1" d="M96.42,3.64A3.53,3.53,0,1,1,92,5.9,3.5,3.5,0,0,1,96.42,3.64ZM94.65,9a2,2,0,0,0,2.59-1.33,2,2,0,1,0-3.86-1.28A2,2,0,0,0,94.65,9Z"/><path class="cls-1" d="M104.56,11.89l1.94-4,1.32.65-1.94,4a2.68,2.68,0,0,1-4.81-2.34l1.94-4,1.34.65-1.94,4a1.19,1.19,0,0,0,2.15,1Z"/><path class="cls-1" d="M109.5,15.19a.91.91,0,0,0,.41,1.26c.5.32,1,.31,1.25-.07s.2-.55-.28-1.1l-.57-.64c-1-1.22-.76-2.11-.42-2.64a2.17,2.17,0,0,1,3.11-.44,2.11,2.11,0,0,1,.81,3l-1.23-.79a.91.91,0,0,0-1.44-1.05c-.1.16-.22.47.24,1l.55.67c1.14,1.31.83,2.23.46,2.77a2.21,2.21,0,0,1-3.18.35,2.22,2.22,0,0,1-.95-3.14Z"/><path class="cls-1" d="M117.92,15.09l3.38,2.75-.81,1L118.24,17l-1,1.22,2,1.6-.8,1-2-1.6-.93,1.14,2.32,1.88-.82,1-3.45-2.81Z"/><path class="cls-1" d="M127.16,23.54,130,26.78l-1,.85-1.87-2.13-1.18,1,1.48,1.69-1,.85L125,27.38,123,29.19l-1-1.1Z"/><path class="cls-1" d="M133.94,32a3.54,3.54,0,1,1-4.89-.88A3.5,3.5,0,0,1,133.94,32Zm-4.64,3.17a2.08,2.08,0,1,0,.57-2.85A2.05,2.05,0,0,0,129.3,35.12Z"/><path class="cls-1" d="M133.8,45.72l-.8-1.57,1.43-2.45-.15-.3-2.13,1.08-.66-1.31,6.15-3.12,1.27,2.52a2.16,2.16,0,0,1-1,3.06,2.12,2.12,0,0,1-2.73-.54ZM137.15,40l-1.73.87.56,1.11a1,1,0,0,0,1.75-.84Z"/><path class="cls-1" d="M136.31,52.12l6.62-1.92.75,2.59c.55,1.9-.57,3.41-2.45,4s-3.61-.13-4.16-2Zm1.69,1,.34,1.19c.31,1.06,1.39,1.31,2.48,1s1.89-1.12,1.59-2.18L142.06,52Z"/><path class="cls-1" d="M145.51,60.65l-6.78,1.25-.27-1.44,6.79-1.24Z"/><path class="cls-1" d="M144.52,69.31a2,2,0,0,0,.58-1.56,2.19,2.19,0,0,0-4.36.34c.06.74.59,1.62,1.32,1.57l-.15-1.84,1.19-.1.27,3.53c-2.57.2-3.81-1.08-4-3.06a3.54,3.54,0,0,1,7-.55,3.38,3.38,0,0,1-.92,2.67Z"/><path class="cls-1" d="M146.55,75.82l-6.89-.17,0-1.46,6.89.17Z"/><path class="cls-1" d="M146.41,79.07l-.59,5.17-1.31-.15.21-1.85-5.53-.63.16-1.47,5.54.63.21-1.85Z"/><path class="cls-1" d="M139.92,87.16l-1.46-1,.35-1.52,6.15,4-.35,1.55-7.28,1,.34-1.5,1.72-.24Zm.82,2.14,2.5-.18-2.19-1.21Z"/><path class="cls-1" d="M143.11,95.7l-.48,1.39-5.29-1.83-.85,2.43-1.22-.42,1.33-3.83Z"/><path class="cls-1" d="M133.62,104.79l-1.14-1.32.75-1.37,4.83,5.55-.77,1.39L130,108l.74-1.35,1.72.25Zm.2,2.28,2.46.51-1.77-1.76Z"/><path class="cls-1" d="M125.76,114.08l.76-1.07,4.79.49-3.39-2.44.85-1.18,5.6,4-.78,1.09-4.73-.49,3.35,2.41-.86,1.19Z"/><path class="cls-1" d="M123.75,116.53l5,4.7-1.84,2c-1.35,1.45-3.22,1.25-4.65-.08s-1.74-3.17-.39-4.62Zm0,2-.85.91c-.75.8-.41,1.87.41,2.64s1.94,1,2.69.24l.84-.9Z"/><path class="cls-1" d="M118.72,130.84l-2.27,1.68a2.26,2.26,0,1,1-2.69-3.62l1.09-.81-1.41-1.91,1.18-.88Zm-2-.17-1.15-1.55-1,.77a1,1,0,0,0,1.12,1.58Z"/><path class="cls-1" d="M107.06,138.4l-3.4-6,1.29-.73,1.36,2.41,2.14-1.21-1.37-2.41,1.27-.72,3.4,6-1.27.72L109.09,134,107,135.22l1.38,2.45Z"/><path class="cls-1" d="M99.24,134.41l1.19,2.89,3.89,2.47-1.61.67-2.52-1.76-.57,3-1.61.67,1-4.53L97.86,135Z"/><path class="cls-1" d="M92.94,138.82a.92.92,0,0,0-1.22-.51c-.57.16-.89.54-.78,1s.29.53,1,.53h.86c1.59,0,2.08.83,2.25,1.43a2.16,2.16,0,0,1-1.72,2.62,2.11,2.11,0,0,1-2.82-1.39l1.41-.4a.78.78,0,0,0,1.07.51c.49-.14.78-.51.66-.91,0-.17-.2-.47-.9-.47l-.86,0c-1.74,0-2.22-.85-2.38-1.49a2.2,2.2,0,0,1,1.83-2.61,2.23,2.23,0,0,1,3,1.36Z"/><path class="cls-1" d="M86.1,145.44l-1.26-6.78,1.43-.27,1.27,6.78Z"/><path class="cls-1" d="M75.87,141.1a3.41,3.41,0,0,1,2.76-1.75,3.53,3.53,0,1,1-2.38,5.83l1.12-.92a2,2,0,0,0,1.75.75,2.16,2.16,0,0,0-.37-4.29,2.06,2.06,0,0,0-1.63,1.09Z"/><path class="cls-1" d="M71.8,141.28l.68-1.6,1.55.06-2.82,6.78-1.59-.06-2.28-7,1.54.06.54,1.65Zm-2,1.2.64,2.42.79-2.37Z"/><path class="cls-1" d="M64,146l-1.45-.22.84-5.54-2.55-.38.19-1.27,4,.6Z"/><path class="cls-1" d="M53.36,138.32,54.45,137l1.48.48-4.57,5.76-1.51-.5-.29-7.34,1.47.48.07,1.74Zm-2.21.61,0,2.51,1.41-2.07Z"/><path class="cls-1" d="M42.81,132.31l1.59.74.39,2.81.3.14,1-2.16,1.33.62-2.92,6.25L42,139.52a2.16,2.16,0,0,1-1.12-3,2.13,2.13,0,0,1,2.48-1.26Zm.92,6.61.82-1.76-1.13-.52a1,1,0,0,0-.85,1.74Z"/><path class="cls-1" d="M37.18,137.09l-4.44-2.72.7-1.13,1.58,1,2.92-4.74,1.26.77L36.28,135l1.59,1Z"/><path class="cls-1" d="M30.15,126.28a1.72,1.72,0,0,1-2,.56,1.38,1.38,0,0,1-.26,1.6,2,2,0,0,1-2.78.1,2.27,2.27,0,0,1-.88-2l1.36.25a.72.72,0,0,0,.24.56.67.67,0,0,0,1,0,.76.76,0,0,0-.08-1.12l-.85-.75-.51.58-1-.86.52-.58-.6-.53.75-.84.59.53.68-.76c.53-.59.49-.79-.09-1.3l.81-.9c.79.72,1.2,1.2.87,1.93a2,2,0,0,1,1.82.47A2.12,2.12,0,0,1,30.15,126.28Zm-2.66-.86a.9.9,0,0,0,1.45-.07.92.92,0,0,0-.27-1.25,1.16,1.16,0,0,0-1.7.13l-.36.41Z"/><path class="cls-1" d="M17.54,112a3.42,3.42,0,0,1,3,1.38,3.54,3.54,0,1,1-6.2,1.15l1.38.44a2.08,2.08,0,1,0,3.73-.75,2.08,2.08,0,0,0-1.81-.78Z"/><path class="cls-1" d="M9.67,109.77A3.53,3.53,0,1,1,14.48,111,3.5,3.5,0,0,1,9.67,109.77Zm4.87-2.8a2.09,2.09,0,1,0-.79,2.8A2.05,2.05,0,0,0,14.54,107Z"/><path class="cls-1" d="M6.5,103.43l-.57-1.35,5.15-2.18-1-2.38,1.18-.5,1.58,3.73Z"/><path class="cls-1" d="M3.81,96.57l-.43-1.41,5.35-1.65L8,91.05l1.23-.38,1.19,3.87Z"/><path class="cls-1" d="M1.81,89.45,1,85.17l1.27-.25.56,2.85,1.54-.3L3.85,85l1.25-.25.49,2.5L7,86.94,6.46,84l1.26-.25.86,4.37Z"/><path class="cls-1" d="M5.48,75.21A3.41,3.41,0,0,1,7.2,78,3.47,3.47,0,0,1,4,81.71a3.49,3.49,0,0,1-2.56-6.16l.91,1.13a2,2,0,0,0-.77,1.74,2,2,0,0,0,2.3,1.82,2,2,0,0,0,2-2.15,2.09,2.09,0,0,0-1.08-1.64Z"/><path class="cls-1" d="M0,72.76l.22-5.19,1.32.05-.08,1.86L7,69.72,7,71.2,1.4,71l-.08,1.86Z"/><path class="cls-1" d="M.79,62.85l6.82.91-.19,1.45L.6,64.3Z"/><path class="cls-1" d="M5.39,56a1.69,1.69,0,0,1,1.83-.92A2.09,2.09,0,0,1,8.78,57.7l-.67,2.89L1.4,59,2,56.34a1.84,1.84,0,0,1,2.33-1.55A1.35,1.35,0,0,1,5.39,56Zm-.75,1.09a.65.65,0,0,0-.55-.78.63.63,0,0,0-.85.47L3,57.89l1.4.32Zm.92,1.4,1.62.37.32-1.37a.78.78,0,0,0-.66-.91.76.76,0,0,0-1,.56Z"/><path class="cls-1" d="M3.59,50.63l.49-1.39L9.37,51.1l.85-2.44,1.22.43L10.1,52.91Z"/><path class="cls-1" d="M6.21,43.73,8.08,39.8l1.17.55L8,43l1.42.67,1.09-2.29,1.15.54-1.09,2.29,1.33.63,1.28-2.7,1.16.56-1.9,4Z"/><path class="cls-1" d="M14.54,38.23a.92.92,0,0,0,1.25-.44c.31-.5.29-1-.09-1.24s-.56-.2-1.1.29l-.63.59c-1.2,1-2.09.8-2.62.47a2.17,2.17,0,0,1-.51-3.1,2.11,2.11,0,0,1,3-.87l-.77,1.24a.91.91,0,0,0-1,1.47c.15.09.47.21,1-.26l.65-.56c1.28-1.17,2.21-.88,2.76-.52a2.21,2.21,0,0,1,.42,3.17,2.23,2.23,0,0,1-3.13,1Z"/><path class="cls-1" d="M21.44,29.37a.84.84,0,1,1,1.28,1.08.84.84,0,1,1-1.28-1.08Z"/></g></g></svg>