<svg version="1.1" id="Layer_1" xmlns="http://www.w3.org/2000/svg" xmlns:xlink="http://www.w3.org/1999/xlink" x="0px"
    y="0px" viewBox="0 0 29.84 29.84" style="enable-background:new 0 0 29.84 29.84;" xml:space="preserve">
    <rect fill="#FAEE00" width="29.84" height="29.84" />
    <path fill="#090502" d="M22.84,7.12c0.05-0.09,0.1-0.17,0.14-0.25c0.09-0.21,0.07-0.29-0.09-0.45c-0.08-0.08-0.19-0.15-0.24-0.25
	C22.41,5.73,22,5.55,21.54,5.5c-0.29-0.03-0.58-0.02-0.86-0.1c-0.03-0.01-0.06-0.01-0.09-0.01c-0.37,0.05-0.72-0.04-1.08-0.07
	c-1.45-0.11-2.9-0.05-4.34,0.09c-1.38,0.13-2.77,0.23-4.16,0.22c-0.21,0-0.28,0.07-0.3,0.28c-0.01,0.07,0,0.15-0.01,0.22
	c0,0.05,0,0.11-0.05,0.12c-0.13,0.04-0.22,0.15-0.36,0.19c-0.27,0.06-0.33,0.17-0.3,0.44c0.05,0.37,0.2,0.71,0.33,1.05
	c0.15,0.37,0.15,0.37-0.22,0.53C9.99,8.51,9.91,8.58,9.94,8.71c0.05,0.25,0.08,0.52,0.28,0.7c0.18,0.17,0.3,0.37,0.39,0.6
	c0.44,1,0.76,2.05,1.11,3.08c0.04,0.11-0.03,0.13-0.09,0.17c-0.45,0.33-0.92,0.63-1.39,0.93l-0.52,0.33c0,0-1.79,1.21-2.3,1.55
	l-0.81,0.55l-0.03,0.03c-0.11,0.07-0.21,0.14-0.32,0.22c-0.1,0.07-0.16,0.16-0.2,0.25l-0.01,0.01l0.01,0.01
	c-0.04,0.13-0.02,0.26,0.08,0.4c0.47,0.68,0.85,1.41,1.4,2.04c0.1,0.12,0.21,0.19,0.36,0.2c0.15,0.01,0.28-0.04,0.41-0.11
	c0.72-0.4,1.41-0.84,2.1-1.3c0.26-0.18,0.53-0.32,0.86-0.3c0.1,0,0.19-0.03,0.29-0.04c0.16-0.03,0.26-0.12,0.24-0.29
	c-0.01-0.14,0.05-0.23,0.17-0.3c0.27-0.16,0.54-0.33,0.8-0.51c0.12-0.08,0.15-0.07,0.19,0.07c0.21,0.82,0.44,1.63,0.65,2.45
	c0.16,0.59,0.4,1.15,0.57,1.73c0.15,0.53,0.3,1.06,0.46,1.59c0.11,0.34,0.23,0.67,0.37,0.99l0.02,0.05l0.02,0.03
	c0.21,0.45,0.48,0.86,0.87,1.21c0.11,0.1,0.29,0.13,0.4,0.04c0.22-0.18,0.45-0.34,0.64-0.55c0.06-0.06,0.09-0.1,0.15,0
	c0.08,0.11,0.2,0.18,0.31,0.24c0.14,0.08,0.3,0.06,0.42-0.07c0.08-0.08,0.15-0.17,0.23-0.26c0.06-0.07,0.1-0.14,0.21-0.15
	c0.08-0.01,0.16-0.08,0.16-0.18c0.03-0.4-0.01-0.79-0.23-1.15c-0.03-0.05-0.07-0.11-0.09-0.16c-0.31-0.91-0.66-1.81-0.82-2.77
	c-0.01-0.04-0.02-0.08-0.04-0.11c-0.1-0.2-0.17-0.41-0.21-0.64c-0.04-0.18-0.06-0.37-0.11-0.54c-0.42-1.25-0.78-2.53-1.25-3.77
	c-0.03-0.09-0.02-0.14,0.06-0.2c0.35-0.26,2.77-2.2,3.62-2.92c0.93-0.78,1.85-1.57,2.56-2.57c0.37-0.53,0.74-1.06,1.1-1.61
	C23.23,7.37,23.16,7.18,22.84,7.12z M18.23,6.87L18.23,6.87C18.22,6.88,18.22,6.87,18.23,6.87L18.23,6.87z M12.59,7.92
	c0.05-0.16,0.14-0.18,0.28-0.14c0.34,0.09,0.65,0.23,0.97,0.35c0.61,0.22,1.22,0.45,1.83,0.68c0.11,0.04,0.16,0.02,0.22-0.08
	c0.41-0.65,0.84-1.28,1.29-1.9c0.07-0.1,0.11-0.13,0.22-0.04c0.17,0.12,0.34,0.25,0.56,0.31c-0.32,0.55-0.64,1.1-1.02,1.62
	C16.85,8.83,16.85,8.89,17,8.91c0.03,0.01,0.06,0.03,0.1,0.03c0.11,0.03,0.13,0.07,0.06,0.18c-0.12,0.16-0.11,0.17,0.07,0.24
	c0.5,0.18,1,0.38,1.5,0.55c0.12,0.04,0.11,0.11,0.09,0.2c-0.02,0.1-0.06,0.16-0.18,0.12c-0.01,0-0.02,0-0.03-0.01
	c-0.2-0.04-0.2-0.04-0.2,0.17c0,0.23,0,0.23-0.22,0.23c-0.11,0-0.22-0.02-0.32-0.06c-0.53-0.23-1.08-0.42-1.63-0.63
	c-0.1-0.04-0.14-0.01-0.2,0.07c-0.13,0.2-0.28,0.38-0.4,0.59c-0.33,0.55-0.77,1.01-1.19,1.48c-0.15,0.17-0.18,0.18-0.32,0
	c-0.07-0.1-0.16-0.16-0.26-0.21c-0.11-0.06-0.11-0.12-0.04-0.22c0.33-0.43,0.68-0.86,0.98-1.31c0.04-0.06,0.08-0.11,0.12-0.17
	c0.16-0.25,0.16-0.25-0.11-0.37c-0.07-0.03-0.11-0.06-0.05-0.13c0.05-0.06,0.08-0.12,0.12-0.19c-0.54-0.22-1.07-0.42-1.6-0.64
	c-0.27-0.11-0.54-0.23-0.81-0.34l-0.04-0.28C12.52,8.1,12.56,8.01,12.59,7.92z M17.19,24.08l0.08-0.02
	C17.25,24.08,17.22,24.09,17.19,24.08z" />
    <path fill='#D93978'
        d="M22.3,6.92c-0.11-0.03-0.25-0.06-0.28-0.17c-0.04-0.13,0.1-0.18,0.18-0.24c0.03-0.02,0.06-0.05,0.07-0.07
	c0.02-0.09,0.19-0.17,0.06-0.28c-0.3-0.25-0.63-0.44-1.05-0.43c-0.23,0.01-0.47,0.08-0.68-0.08c-0.03-0.03-0.11-0.02-0.15-0.01
	c-0.07,0.03-0.15,0.03-0.22,0.02c-0.39-0.04-0.78-0.07-1.17-0.11c-0.47-0.05-0.94-0.04-1.42-0.04c-0.52,0-1.05,0.03-1.57,0.07
	c-0.77,0.06-1.53,0.14-2.3,0.2c-0.52,0.04-1.04-0.01-1.55,0.07c-0.37,0.05-0.73,0.07-1.1,0.03c-0.15-0.02-0.19,0.03-0.19,0.17
	c0,0.35-0.2,0.57-0.54,0.64c-0.18,0.04-0.21,0.08-0.16,0.26c0.06,0.19,0.12,0.38,0.19,0.57c0.11,0.29,0.22,0.57,0.3,0.86
	c0.02,0.09,0.04,0.15-0.1,0.17c-0.13,0.02-0.26,0.09-0.39,0.14c-0.04,0.02-0.06,0.03-0.04,0.09c0.08,0.24,0.15,0.47,0.37,0.63
	c0.08,0.05,0.12,0.14,0.15,0.23c0.16,0.38,0.32,0.76,0.49,1.14c0.02,0.06,0.04,0.11,0.06,0.17c0.04,0.12,0.5,1.44,0.68,1.99
	c0.02,0.06,0.03,0.12,0.05,0.17c0,0.09,0.04,0.18,0.01,0.27h0c-0.09,0.03-0.16,0.08-0.23,0.15c-0.09,0.05-0.18,0.1-0.25,0.17
	c-0.02,0.02-0.04,0.04-0.06,0.07c-0.24,0.09-0.43,0.28-0.65,0.41c-0.12,0.08-0.24,0.16-0.37,0.24c-0.02,0.01-0.03,0.02-0.05,0.03
	c-0.1,0.05-0.2,0.11-0.29,0.19c-0.16,0.09-0.31,0.19-0.47,0.28c-0.11,0.07-0.21,0.15-0.32,0.22c-0.24,0.17-0.48,0.33-0.72,0.5
	c-0.04,0.01-0.08,0.03-0.1,0.07l0,0c-0.27,0.17-0.54,0.34-0.8,0.52c-0.03,0.02-0.07,0.05-0.1,0.07c-0.05,0.03-0.09,0.06-0.14,0.09
	c-0.06,0.04-0.64,0.44-0.87,0.59c-0.06,0.03-0.12,0.06-0.17,0.12c-0.17,0.14-0.17,0.19-0.03,0.33c0,0,0,0,0,0c0,0,0,0,0,0h0
	l0.02,0.03l0.04,0.07c0,0,0.48,0.74,0.58,0.9c0-0.01,0-0.01,0.01-0.02l0,0c0,0.01,0,0.01-0.01,0.02c0.03,0.04,0.05,0.08,0.08,0.12
	c0.03,0.05,0.06,0.11,0.1,0.16l0.12,0.21c0.11,0.2,0.2,0.22,0.41,0.11l0.23-0.13c0.05-0.02,0.09-0.05,0.14-0.08l0.35-0.2l0.64-0.41
	c0,0,0.01,0,0.01-0.01c0.02-0.01,0.07-0.05,0.14-0.09l0.75-0.48c0.05-0.02,0.09-0.04,0.11-0.09c0.08-0.01,0.14-0.05,0.19-0.11
	c0.08-0.01,0.16-0.02,0.23-0.03c0.12,0.01,0.25-0.01,0.36-0.04h0.03c0.11,0,0.26,0.03,0.25-0.12c-0.01-0.25,0.11-0.39,0.31-0.49
	c0.06-0.03,0.1-0.07,0.15-0.11c0.09-0.06,0.18-0.11,0.27-0.17c0.09-0.06,0.18-0.12,0.28-0.18c0.11-0.05,0.21-0.12,0.31-0.2
	c0.06-0.02,0.11-0.05,0.15-0.1c0.24-0.15,0.24-0.15,0.33,0.03c0.03,0.11,0.06,0.21,0.09,0.32l0.36,1.39l0.01-0.02
	c0.04,0.15,0.07,0.3,0.12,0.44c0.02,0.14,0.06,0.28,0.11,0.41c0.03,0.11,0.06,0.21,0.09,0.32c0.08,0.37,0.18,0.73,0.31,1.09
	c0.06,0.28,0.2,0.54,0.3,0.81c0.02,0.12,0.04,0.23,0.1,0.34c0.18,0.73,0.39,1.44,0.66,2.14c0.13,0.35,0.23,0.73,0.49,1.02
	c0.09,0.1,0.18,0.23,0.29,0.02c0.01-0.02,0.04-0.03,0.07-0.04c0.19-0.1,0.35-0.23,0.47-0.42c0.08-0.13,0.24-0.1,0.36-0.12
	c0.1-0.02,0.08,0.09,0.11,0.14c0.08,0.12,0.18,0.22,0.3,0.25c0.11,0.03,0.14-0.13,0.22-0.19c0.04-0.03,0.12-0.07,0.08-0.13
	c-0.09-0.16,0.01-0.14,0.11-0.14c0.24-0.01,0.24-0.01,0.23-0.25c0-0.05-0.01-0.09-0.01-0.14c-0.02-0.28-0.2-0.51-0.3-0.77
	c-0.15-0.38-0.29-0.78-0.41-1.17c-0.25-0.86-0.48-1.73-0.72-2.59c-0.05-0.18-0.12-0.36-0.17-0.54c0-0.02,0.01-0.04,0.01-0.05
	c-0.16-0.5-0.32-1.01-0.47-1.51h0c-0.03-0.18-0.18-0.54-0.19-0.56c0-0.04-0.01-0.08-0.03-0.1c-0.08-0.24-0.17-0.47-0.25-0.71
	c0-0.09-0.04-0.16-0.08-0.23c-0.09-0.09-0.03-0.23-0.11-0.32c-0.01-0.04-0.09-0.35-0.09-0.35c0.02-0.03,0.04-0.06,0.06-0.09v0
	c0.08-0.06,0.16-0.12,0.23-0.18c0.14-0.09,0.27-0.19,0.39-0.31v0c0.04-0.02,0.08-0.04,0.1-0.08c0.08-0.05,0.16-0.11,0.22-0.17
	c0.14-0.08,0.27-0.17,0.36-0.31c0.1-0.02,0.17-0.1,0.24-0.16c0.28-0.21,0.56-0.43,0.82-0.67c0.16-0.12,0.31-0.23,0.45-0.37
	c0.47-0.37,0.92-0.75,1.36-1.15c1.41-1.02,2.33-2.46,3.29-3.89C22.42,6.94,22.36,6.93,22.3,6.92z M18.95,10.27
	c-0.04,0.12-0.14,0.13-0.25,0.12c-0.1-0.01-0.15,0.02-0.13,0.13c0.04,0.17-0.06,0.22-0.2,0.25c-0.24,0.04-0.47-0.03-0.7-0.1
	c-0.14-0.08-0.29-0.16-0.46-0.17c-0.03-0.05-0.08-0.07-0.14-0.07l0,0c-0.06-0.02-0.12-0.04-0.18-0.06c-0.1-0.06-0.21-0.09-0.32-0.12
	c0,0,0,0,0,0c-0.34-0.13-0.4-0.14-0.53,0.06l0-0.01c0,0-0.76,1.11-1.1,1.47c-0.02,0.03-0.03,0.04-0.04,0.06l-0.17,0.21
	c-0.1,0.1-0.2,0.21-0.32,0.28c-0.06,0.01-0.11,0.03-0.17,0.04c-0.07-0.03-0.14-0.08-0.21-0.13c-0.01-0.01-0.02-0.02-0.03-0.03
	c-0.05-0.08-0.13-0.14-0.21-0.18c-0.05-0.06-0.11-0.1-0.17-0.14c-0.18-0.18-0.31-0.34-0.31-0.34c-0.01-0.06,0-0.12,0-0.17
	c0.37-0.59,0.86-1.09,1.23-1.68c0.08-0.13,0.07-0.18-0.07-0.23c-0.72-0.28-1.45-0.56-2.15-0.88c-0.38-0.17-0.43-0.31-0.31-0.7
	c0.07-0.21,0.22-0.37,0.28-0.59c0.03-0.12,0.17-0.13,0.28-0.12c0.11,0.01,0.23,0.03,0.34,0.07c0.82,0.31,1.64,0.61,2.46,0.92
	c0.12,0.05,0.19,0.02,0.25-0.08c0.07-0.12,0.15-0.24,0.23-0.36c0.33-0.47,0.66-0.94,0.99-1.41C17,6.08,17.07,6.07,17.3,6.21
	c0.01,0.01,0.02,0.01,0.03,0.02c0.21,0.18,0.46,0.28,0.74,0.29c0.07,0,0.14,0.02,0.15,0.11c0.02,0.2,0.02,0.4-0.1,0.57
	c-0.12,0.16-0.56,0.91-0.69,1.11c-0.08,0.12-0.14,0.25-0.22,0.36c-0.08,0.11-0.02,0.13,0.07,0.16c0.4,0.13,0.79,0.27,1.17,0.44
	c0.08,0.04,0.17,0.07,0.2,0.17c0.01,0.05,0.05,0.06,0.09,0.05c0.16-0.03,0.2,0.08,0.23,0.19C19.02,9.89,19,10.08,18.95,10.27z" />
</svg>