<svg xmlns="http://www.w3.org/2000/svg" width="72.27585338695712" height="71"><rect id="backgroundrect" width="100%" height="100%" x="0" y="0" fill="none" stroke="none" class="" style=""/>
    
<g class="currentLayer" style=""><title>Layer 1</title><g fill="none" fill-rule="evenodd" id="svg_1" class="">
        <path fill="#052892" fill-rule="nonzero" d="M63.84706912994385,37.852212158203116 a28.073,28.073 0 0 0 -4.562,-15.355 L70.35806912994384,11.423212158203114 L62.042069129943854,3.1052121582031305 L50.97606912994385,14.179212158203114 a28.113,28.113 0 0 0 -30.713,0 L9.180069129943845,3.1052121582031305 L0.8620691299438477,11.423212158203114 L11.936069129943846,22.49621215820312 a28.113,28.113 0 0 0 0,30.713 L0.8620691299438477,64.28421215820313 l8.318,8.318 l11.074,-11.074 a28.113,28.113 0 0 0 30.713,0 l11.074,11.074 l8.317,-8.318 l-11.073,-11.065 a28.073,28.073 0 0 0 4.562,-15.367 zm-44.709,0 a16.473,16.473 0 1 1 31.499,6.722 L39.77106912994385,33.693212158203124 l-8.321,8.32 l10.870000000000001,10.867 a16.44,16.44 0 0 1 -23.182,-15.028 z" id="svg_2"/>
        <path fill="#1E2837" d="M123.66406912994387,38.18621215820312 c0,6.793 -3.444,12.926 -9.577,15.756 l3.255,4.246 L110.64306912994385,61.586212158203125 l-4.482,-5.944 h-0.14100000000000001 c-11.087,0 -17.644,-8.067 -17.644,-17.455 c0,-9.389 6.557,-17.456 17.644,-17.456 c11.086,0 17.644,8.067 17.644,17.456 zm-17.644,10.614 c6.274,0 9.67,-4.859 9.67,-10.614 c0,-5.756 -3.396,-10.615 -9.67,-10.615 c-6.322,0 -9.719,4.859 -9.671,10.615 c-0.048000000000000015,5.755 3.35,10.614 9.67,10.614 zm30.004,6.51 c-5.473,0 -8.397,-3.396 -8.397,-9.293 V31.95821215820314 h7.312 v12.455 c0,3.113 1.038,4.812 3.774,4.812 c3.066,0 4.3870000000000005,-1.982 4.3870000000000005,-5.048 V31.95821215820314 h7.171 v22.74 h-7.17 v-3.2560000000000002 c-1.274,2.406 -3.633,3.869 -7.077,3.869 zm29.296,0 c-6.793,0 -10.709,-5.142 -10.709,-11.982 c0,-6.7940000000000005 4.2,-11.983 10.804,-11.983 c3.302,0 5.897,1.557 7.123,3.8680000000000003 v-3.255 h7.171 v22.74 h-7.17 v-3.209 c-1.227,2.265 -4.058,3.822 -7.219,3.822 zm2.076,-5.99 c3.5860000000000003,0 5.426,-2.6900000000000004 5.426,-5.992 c0,-3.255 -1.84,-5.944 -5.426,-5.944 c-3.35,0 -5.425,2.5 -5.425,5.944 s2.076,5.991 5.425,5.991 zm18.305,-17.362 h7.218 v3.303 c1.32,-2.548 3.915,-3.916 7.36,-3.916 c5.519,0 8.302,3.114 8.302,9.294 V54.69621215820314 h-7.265 v-11.7 c0,-3.8200000000000003 -1.085,-5.566 -4.01,-5.566 c-2.878,0 -4.3870000000000005,1.887 -4.3870000000000005,5.378 V54.69621215820314 h-7.218 V31.95821215820314 zm40.571,17.125 c0.8970000000000002,0 1.84,-0.047000000000000014 2.5,-0.14100000000000001 v5.755 c-1.037,0.18900000000000006 -2.736,0.3780000000000001 -4.811,0.3780000000000001 c-3.3970000000000002,0 -8.067,-0.7550000000000002 -8.067,-8.35 V37.66621215820311 h-3.5860000000000003 v-5.709 h3.5860000000000003 v-6.746 h7.218 v6.746 h5.142 v5.709 h-5.142 v7.548 c0,3.35 1.368,3.8680000000000003 3.16,3.8680000000000003 zm15.757,6.322 c-6.652,0 -10.756,-3.255 -10.756,-7.548 h7.17 c0,1.557 1.51,2.689 3.728,2.689 c1.557,0 2.6420000000000003,-0.802 2.6420000000000003,-2.123 c0,-0.8970000000000002 -0.4250000000000001,-1.6510000000000002 -1.6520000000000001,-1.9340000000000002 l-5.566,-1.416 c-3.774,-0.9430000000000002 -5.709,-3.302 -5.709,-6.557 c0,-4.246 3.7270000000000003,-7.218 9.719,-7.218 c6.652,0 10.143,2.783 10.143,7.076 h-7.124 c0,-1.604 -1.18,-2.5 -3.114,-2.5 c-1.557,0 -2.5940000000000003,0.7550000000000002 -2.5940000000000003,1.887 c0,1.038 0.7070000000000002,1.6980000000000004 1.9340000000000002,2.029 l5.378,1.462 c3.491,0.9440000000000002 5.755,3.066 5.755,6.322 c0,4.67 -3.726,7.83 -9.954,7.83 zm26.372,-6.322 c0.8960000000000002,0 1.84,-0.047000000000000014 2.5,-0.14100000000000001 v5.755 c-1.038,0.18900000000000006 -2.736,0.3780000000000001 -4.812,0.3780000000000001 c-3.396,0 -8.067,-0.7550000000000002 -8.067,-8.35 V37.66621215820311 h-3.585 v-5.709 h3.585 v-6.746 h7.218 v6.746 h5.142 v5.709 h-5.142 v7.548 c0,3.35 1.368,3.8680000000000003 3.16,3.8680000000000003 zm15.71,6.228 c-6.7940000000000005,0 -10.71,-5.143 -10.71,-11.983 c0,-6.7940000000000005 4.2,-11.983 10.804,-11.983 c3.302,0 5.897,1.557 7.124,3.8680000000000003 v-3.255 h7.17 v22.74 h-7.17 v-3.209 c-1.227,2.265 -4.058,3.822 -7.218,3.822 zm2.075,-5.992 c3.5860000000000003,0 5.426,-2.689 5.426,-5.991 c0,-3.255 -1.84,-5.944 -5.426,-5.944 c-3.35,0 -5.425,2.5 -5.425,5.944 s2.076,5.991 5.425,5.991 zm18.305,-17.36 h7.218 v3.302 c0.99,-2.265 3.35,-3.916 6.51,-3.916 c4.057,0 6.133,1.7930000000000001 7.124,4.199 c1.226,-2.453 3.915,-4.199 7.265,-4.199 c6.51,0 8.067,4.482 8.067,9.247 V54.69621215820314 h-7.265 V41.91221215820312 c0,-3.16 -1.18,-4.481 -3.3970000000000002,-4.481 c-2.2640000000000002,0 -3.821,1.2730000000000001 -3.821,5.567 v11.7 h-7.265 V41.86421215820312 c0,-3.16 -1.1320000000000001,-4.434 -3.35,-4.434 c-2.311,0 -3.8680000000000003,1.2730000000000001 -3.8680000000000003,5.567 v11.7 h-7.218 v-22.74 zm41.892,0 h7.218 v3.254 c1.18,-2.17 4.01,-3.8680000000000003 7.407,-3.8680000000000003 c6.227,0 10.473,4.812 10.473,11.983 c0,7.123 -4.3870000000000005,11.983 -10.662,11.983 c-3.35,0 -6.085,-1.6990000000000005 -7.218,-3.822 v12.644 h-7.218 V31.95821215820314 zm12.36,17.36 c3.161,0 5.3790000000000004,-2.453 5.3790000000000004,-5.991 c0,-3.491 -2.218,-5.944 -5.378,-5.944 c-3.2560000000000002,0 -5.473,2.406 -5.473,5.944 c0,3.585 2.265,5.991 5.473,5.991 zM369.11606912994387,32.38121215820314 c-0.405,0 -0.7590000000000002,-0.09000000000000004 -1.06,-0.27 a1.8290000000000002,1.8290000000000002 0 0 1 -0.6970000000000004,-0.7340000000000002 a2.192,2.192 0 0 1 -0.24300000000000005,-1.034 c0,-0.3750000000000001 0.08100000000000003,-0.7170000000000002 0.24300000000000005,-1.027 c0.16300000000000006,-0.3090000000000001 0.3950000000000002,-0.553 0.6960000000000004,-0.7330000000000002 c0.3020000000000001,-0.18000000000000005 0.6560000000000002,-0.27 1.061,-0.27 c0.4,0 0.7530000000000002,0.09000000000000004 1.057,0.27 c0.3040000000000001,0.18000000000000005 0.538,0.4240000000000001 0.7000000000000002,0.7330000000000002 c0.16200000000000006,0.3100000000000001 0.24300000000000005,0.6520000000000002 0.24300000000000005,1.027 c0,0.3800000000000001 -0.08100000000000003,0.7250000000000002 -0.24300000000000005,1.034 c-0.16200000000000006,0.3100000000000001 -0.3960000000000002,0.554 -0.7000000000000002,0.7340000000000002 c-0.3040000000000001,0.18000000000000005 -0.6560000000000002,0.27 -1.057,0.27 zm0,-0.3340000000000002 c0.3250000000000001,0 0.6090000000000002,-0.07700000000000003 0.8520000000000002,-0.22900000000000006 c0.24300000000000005,-0.15200000000000005 0.4300000000000001,-0.3570000000000001 0.559,-0.6160000000000002 c0.13,-0.258 0.19400000000000006,-0.545 0.19400000000000006,-0.8590000000000002 c0,-0.3100000000000001 -0.06500000000000003,-0.5930000000000002 -0.19400000000000006,-0.8520000000000002 a1.5070000000000001,1.5070000000000001 0 0 0 -0.56,-0.6160000000000002 a1.573,1.573 0 0 0 -0.8500000000000002,-0.22800000000000006 c-0.3250000000000001,0 -0.6100000000000002,0.07600000000000003 -0.8530000000000002,0.22800000000000006 c-0.24300000000000005,0.15300000000000005 -0.4300000000000001,0.3580000000000001 -0.562,0.6160000000000002 a1.848,1.848 0 0 0 -0.19800000000000006,0.8520000000000002 c0,0.3140000000000001 0.06600000000000003,0.6000000000000002 0.19800000000000006,0.8600000000000002 c0.132,0.258 0.3200000000000001,0.463 0.562,0.6150000000000002 c0.24400000000000005,0.15200000000000005 0.528,0.22900000000000006 0.8520000000000002,0.22900000000000006 zm-0.7220000000000002,-2.807 h0.8360000000000002 c0.21300000000000005,0 0.3880000000000001,0.07300000000000002 0.525,0.21700000000000005 a0.7300000000000002,0.7300000000000002 0 0 1 0.20500000000000004,0.521 a0.7380000000000002,0.7380000000000002 0 0 1 -0.125,0.4220000000000001 a0.6660000000000003,0.6660000000000003 0 0 1 -0.3540000000000001,0.262 l0.464,0.7300000000000002 h-0.3730000000000001 l-0.4250000000000001,-0.6910000000000004 h-0.4190000000000001 v0.6920000000000004 h-0.3340000000000002 v-2.153 zm0.8130000000000002,1.172 a0.3910000000000001,0.3910000000000001 0 0 0 0.3050000000000001,-0.126 a0.4410000000000001,0.4410000000000001 0 0 0 0.11400000000000003,-0.3080000000000001 a0.451,0.451 0 0 0 -0.11400000000000003,-0.3160000000000001 a0.3910000000000001,0.3910000000000001 0 0 0 -0.3050000000000001,-0.125 h-0.4710000000000001 v0.8750000000000002 h0.4710000000000001 z" id="svg_3"/>
    </g></g></svg>