<?xml version="1.0" encoding="UTF-8" standalone="no"?>
<!DOCTYPE svg PUBLIC "-//W3C//DTD SVG 1.1//EN" "http://www.w3.org/Graphics/SVG/1.1/DTD/svg11.dtd">
<svg width="100%" height="100%" viewBox="0 0 189 219" version="1.1" xmlns="http://www.w3.org/2000/svg" xmlns:xlink="http://www.w3.org/1999/xlink" xml:space="preserve" xmlns:serif="http://www.serif.com/" style="fill-rule:evenodd;clip-rule:evenodd;stroke-linejoin:round;stroke-miterlimit:1.41421;">
    <g transform="matrix(1,0,0,1,-94.4511,-94.4512)">
        <g transform="matrix(0,1,1,0,273.375,166.269)">
            <path d="M9.98,-37.246L64.512,-37.246L37.246,9.98L-17.286,9.98L9.98,-37.246Z" style="fill:rgb(147,145,187);fill-rule:nonzero;"/>
        </g>
        <g transform="matrix(1,0,0,1,283.354,285.312)">
            <path d="M0,-27.266L-47.225,-54.532L-47.225,0L-47.226,0.001L0.001,27.266L0.001,-27.266L0,-27.266Z" style="fill:rgb(162,238,227);fill-rule:nonzero;"/>
        </g>
        <g transform="matrix(0,-1,-1,-0,155.31,88.1242)">
            <path d="M-60.859,-33.593L-6.327,-33.593L-60.859,60.859L-88.125,13.633L-60.859,-33.593Z" style="fill:rgb(70,221,200);fill-rule:nonzero;"/>
        </g>
        <g transform="matrix(1,0,0,1,188.903,285.312)">
            <path d="M0,-27.266L-47.226,-54.532L-94.452,-27.266L-47.226,0L-47.226,0.001L0,27.266L0,-27.266Z" style="fill:rgb(38,34,120);fill-rule:nonzero;"/>
        </g>
        <g transform="matrix(0,1,1,0,172.596,179.902)">
            <path d="M-30.918,-78.145L78.145,-78.145L50.879,-30.919L-3.654,-30.919L-30.918,-78.145Z" style="fill:rgb(147,145,187);fill-rule:nonzero;"/>
        </g>
        <g transform="matrix(-0.866033,0.499987,0.499987,0.866033,212.515,318.906)">
            <path d="M-64.511,-64.512L-9.98,-64.512L17.285,-17.285L-37.247,-17.287L-64.511,-64.512Z" style="fill:rgb(70,221,200);fill-rule:nonzero;"/>
        </g>
        <g transform="matrix(1,0,0,1,236.129,94.4518)">
            <path d="M0,81.797L47.226,54.531L0,27.265L-47.226,0L-47.226,54.531L0,81.797Z" style="fill:rgb(38,34,120);fill-rule:nonzero;"/>
        </g>
    </g>
</svg>
