<?xml version="1.0" standalone="no"?>
<!DOCTYPE svg PUBLIC "-//W3C//DTD SVG 20010904//EN"
 "http://www.w3.org/TR/2001/REC-SVG-20010904/DTD/svg10.dtd">
<svg version="1.0" xmlns="http://www.w3.org/2000/svg"
 width="256.000000pt" height="256.000000pt" viewBox="0 0 256.000000 256.000000"
 preserveAspectRatio="xMidYMid meet">
<metadata>
Created by potrace 1.16, written by Peter Selinger 2001-2019
</metadata>
<g transform="translate(0.000000,256.000000) scale(0.100000,-0.100000)"
fill="#000000" stroke="none">
<path d="M1190 2547 c-3 -3 -35 -7 -70 -8 -36 -1 -72 -6 -80 -10 -17 -9 -91
-23 -104 -20 -4 1 -13 -2 -20 -7 -6 -5 -29 -15 -51 -21 -74 -22 -248 -105
-266 -127 -6 -8 -18 -14 -25 -14 -8 0 -14 -4 -14 -9 0 -5 -8 -12 -17 -15 -10
-3 -31 -18 -48 -33 -16 -16 -48 -41 -70 -58 -43 -32 -95 -83 -95 -94 0 -4 -18
-27 -40 -51 -22 -24 -43 -52 -46 -62 -3 -10 -10 -18 -15 -18 -5 0 -9 -6 -9
-13 0 -7 -8 -22 -18 -33 -10 -10 -25 -34 -32 -51 -8 -18 -19 -33 -23 -33 -5 0
-6 -4 -3 -8 3 -5 -4 -21 -15 -38 -10 -16 -19 -37 -19 -46 0 -10 -4 -18 -10
-18 -5 0 -10 -11 -10 -24 0 -14 -4 -28 -10 -31 -5 -3 -10 -17 -10 -31 0 -13
-4 -24 -8 -24 -4 0 -13 -30 -19 -67 -7 -38 -15 -84 -20 -103 -15 -69 -8 -370
10 -455 9 -44 18 -90 20 -102 2 -12 6 -26 10 -29 4 -4 7 -18 7 -31 0 -13 5
-23 10 -23 6 0 10 -9 10 -19 0 -11 5 -23 10 -26 6 -3 10 -17 10 -31 0 -13 4
-24 9 -24 5 0 12 -14 16 -30 4 -17 11 -30 16 -30 5 0 9 -7 9 -15 0 -9 9 -25
20 -37 11 -12 20 -28 20 -35 0 -7 4 -13 8 -13 4 0 16 -15 27 -32 10 -18 24
-38 29 -44 6 -6 24 -28 41 -49 49 -63 174 -185 189 -185 8 0 23 -11 34 -25 11
-14 26 -25 34 -25 7 0 20 -9 28 -20 8 -11 20 -20 26 -20 7 0 40 -16 74 -35 34
-19 68 -35 76 -35 8 0 14 -4 14 -10 0 -5 10 -10 23 -10 13 0 27 -4 32 -9 10
-9 159 -50 210 -57 17 -3 41 -7 55 -11 37 -9 343 -12 355 -3 6 4 30 10 55 13
25 4 63 10 85 16 22 5 50 12 62 14 12 3 30 10 40 15 10 5 24 7 31 5 6 -3 12 0
12 6 0 6 9 11 19 11 11 0 23 5 26 10 3 6 15 10 26 10 10 0 19 4 19 9 0 8 21
17 58 26 8 2 22 11 31 19 10 9 23 16 29 16 7 0 12 5 12 10 0 6 8 10 18 10 10
0 24 9 32 20 8 11 20 20 27 20 8 0 32 20 55 45 23 25 48 45 55 45 7 0 13 5 13
11 0 5 3 8 8 6 9 -4 52 40 44 47 -3 3 0 6 6 6 7 0 12 5 12 11 0 7 20 32 45 57
25 24 45 51 45 58 0 8 5 14 10 14 6 0 10 7 10 16 0 8 5 12 10 9 6 -3 10 3 10
14 0 12 5 21 10 21 6 0 10 5 10 11 0 6 9 22 20 36 11 14 18 29 15 33 -3 4 2
13 10 20 8 7 12 16 9 21 -3 5 0 9 5 9 6 0 11 9 11 19 0 11 5 23 10 26 6 3 10
15 10 26 0 10 5 19 10 19 6 0 10 11 10 25 0 14 5 25 11 25 5 0 8 4 5 9 -4 5 1
36 10 68 9 32 19 76 21 98 2 22 7 47 10 55 10 23 12 286 3 328 -5 20 -11 55
-14 77 -8 63 -42 198 -55 223 -25 46 -81 173 -81 182 0 5 -4 10 -10 10 -5 0
-10 8 -10 18 0 10 -9 24 -20 32 -11 8 -20 19 -20 25 0 7 -11 22 -25 35 -14 13
-25 29 -25 35 0 6 -10 20 -22 32 -13 11 -37 35 -54 54 -37 41 -122 119 -130
119 -3 0 -16 11 -30 25 -14 14 -28 25 -33 25 -4 0 -17 9 -29 20 -12 12 -22 18
-22 15 0 -3 -15 5 -33 19 -19 15 -39 26 -46 26 -7 0 -19 7 -27 15 -9 8 -24 15
-35 15 -11 0 -17 5 -14 10 3 6 -2 10 -11 10 -24 0 -84 22 -84 31 0 4 -8 8 -17
8 -10 0 -36 4 -58 10 -97 27 -199 42 -320 47 -71 4 -132 4 -135 1z m247 -777
c98 -34 190 -114 236 -207 67 -131 62 -323 -11 -457 -32 -58 -110 -139 -152
-156 -37 -15 -37 -27 -2 -65 99 -108 152 -113 247 -24 21 19 35 25 44 20 20
-12 -2 -63 -48 -114 -97 -108 -202 -88 -296 54 l-50 76 -90 -5 c-144 -8 -248
31 -344 129 -51 52 -94 130 -110 200 -15 65 -13 187 4 254 63 243 328 379 572
295z"/>
<path d="M1194 1736 c-66 -21 -111 -62 -144 -130 -40 -82 -54 -175 -47 -310 7
-139 32 -217 90 -283 l20 -22 45 39 c76 68 150 64 236 -11 l47 -42 25 24 c133
125 139 537 11 677 -56 61 -191 89 -283 58z"/>
</g>
</svg>
