<svg id="Layer_1" data-name="Layer 1" xmlns="http://www.w3.org/2000/svg" viewBox="0 0 500 500">
  <defs>
    <style>
      .cls-1 {
        fill: #252836;
      }
    </style>
  </defs>
  <title>RAE Logo</title>
  <g>
    <path class="cls-1" d="M495.7,155.87,316,52.47A8.09,8.09,0,0,0,304.54,62.8L378.2,227.24a8.1,8.1,0,0,0,11.43,3.7l106.07-61A8.09,8.09,0,0,0,495.7,155.87Z"/>
    <path class="cls-1" d="M121.8,227.24,195.46,62.8A8.09,8.09,0,0,0,184,52.47L4.3,155.87a8.09,8.09,0,0,0,0,14l106.07,61A8.1,8.1,0,0,0,121.8,227.24Z"/>
    <path class="cls-1" d="M243.21,447.22,156.32,253.39a8.1,8.1,0,0,1,0-6.61l86.87-194a8.1,8.1,0,0,1,14.8,0L343.7,247.37a8.09,8.09,0,0,1,0,6.54L258,447.19A8.1,8.1,0,0,1,243.21,447.22Z"/>
  </g>
</svg>
