<svg xmlns="http://www.w3.org/2000/svg" width="2000" height="2000" viewBox="0 0 2000 2000"><g fill="#cc1e46"><path d="M898.41,5.15C1094.85-15,1297,24.41,1470.92,118c104.78,55.52,199,130.49,277.67,219.19,133.43,149.81,219.63,341,243.8,540.1,23.13,184.78-6.75,375.87-85.77,544.52-57.48,124.35-141.35,236.25-243.92,327-149.81,133.37-341,219.44-540.06,243.67C939.39,2015.31,750,1986,582.4,1908.5a993.63,993.63,0,0,1-328.22-242.63C101.11,1495.88,10.07,1271.48,1,1043c-8.1-179.19,33.56-360.29,119.08-518,61.59-114.84,146.56-216.8,247.3-299.37C517.74,102.26,704.91,24.72,898.41,5.15M738.53,577.83c-43.8-58.16-111.41-100.12-185.21-103.06-77-4.54-152.88,32.08-203.19,89.32-38.16,44-56.32,102.27-57,159.93q-.46,165.36-.12,330.78c-1.29,14.6,11.9,24.85,25.71,23.31,312,.86,624.11-1,936.07,1-1,68.22-.12,136.44,4.85,204.47-89,64.78-193.25,110.49-302.27,127.48-14.17,3.25-38.1-.55-41.23,18.89-1.35,36.62-.12,73.37-.55,110-2.09,12.88,8,26.07,21.41,25.89,131.78-10.18,259.81-59,365.27-138.46,39,50.67,94.66,90.61,159,100.24,90.92,16.2,186.5-27.67,240.86-100.79,34.42-46.5,46.56-105.39,46.32-162.32-.31-104.72.92-209.44-.61-314.1,1.17-16.63-14.48-25.09-29.26-23.8-311-.61-622,.37-932.88-.49-1.84-61.59,2.7-123.43-4-184.84C781,732.73,779,721.07,788,716c95.28-65.15,204.91-112.33,320.24-125.09,12.52-.31,18.28-14.42,17.42-25.27,0-35,.86-70.12-.43-105.09.49-14.6-13.93-23-27.18-20.37C968.35,450.78,842.58,499.79,738.53,577.83Z"/><path d="m418.78 743c1.47-58.89 55.34-110.67 114.54-108.28 60.61-1.17 115.21 52.21 116.38 112.63 1.29 63 .49 126 .37 189-77.07 1.71-154.07.54-231.17.65-.36-64.71-.24-129.37-.12-194"/><path d="m1400.55 1073.76c77-.12 154-.43 231 .18.61 61.59.25 123.18.25 184.78.49 46.93-28.9 93.62-73.44 110.12-48.28 18.65-107.3.18-136.87-42.15a115.29 115.29 0 0 1 -21.29 -68.59c.23-61.41-.2-122.87.35-184.34"/></g></svg>