<?xml version="1.0" encoding="UTF-8"?>
<svg width="767px" height="740px" viewBox="0 0 767 740" version="1.1" xmlns="http://www.w3.org/2000/svg" xmlns:xlink="http://www.w3.org/1999/xlink">
    <!-- Generator: Sketch 52.5 (67469) - http://www.bohemiancoding.com/sketch -->
    <title>logo</title>
    <desc>Created with Sketch.</desc>
    <defs>
        <linearGradient x1="9.39779518%" y1="88.3248351%" x2="106.181899%" y2="34.5692976%" id="linearGradient-1">
            <stop stop-color="#FF3A54" offset="0%"></stop>
            <stop stop-color="#FFB700" offset="41.7289233%"></stop>
            <stop stop-color="#32C065" offset="72.4180405%"></stop>
            <stop stop-color="#1239FF" offset="100%"></stop>
        </linearGradient>
    </defs>
    <g id="Page-1" stroke="none" stroke-width="1" fill="none" fill-rule="evenodd">
        <g id="Group-3" transform="translate(-173.000000, -185.000000)" fill="url(#linearGradient-1)">
            <g id="logo" transform="translate(173.000000, 185.000000)">
                <path d="M0,382.958264 C0.162615447,505.481578 59.0299986,620.529641 158.365566,692.457315 C160.216426,684.109766 161.141363,674.50701 161.141363,663.572287 L161.141363,293.353076 C161.141363,263.971034 154.832031,244.23244 142.221006,234.1586 C133.813738,227.442772 117.429542,222.412888 93.0485587,219.054827 L93.0485587,188.822038 L331.399144,188.822038 L331.399144,288.318469 C355.780127,255.578513 376.794626,231.648332 394.449884,216.537671 C428.079004,187.995058 462.958983,173.718265 499.110319,173.718265 C536.943049,173.718265 565.106517,186.318512 583.602545,211.503063 C597.054095,229.13221 603.796033,249.277233 603.796033,271.943299 C603.796033,292.930458 598.326241,310.966969 587.396758,326.077779 C573.104388,346.225361 551.657431,356.310567 523.07269,356.310567 C496.169344,356.310567 470.524543,339.518783 446.143511,305.939398 C434.373356,289.989307 422.619511,282.012465 410.849306,282.012465 C389.831063,282.012465 371.335231,295.45101 355.361516,322.314567 C342.750491,344.141057 336.441061,370.586228 336.441159,401.647129 L336.441159,639.645109 C336.441159,679.101237 342.318032,705.546212 354.088237,718.977572 C365.858392,732.409425 390.252089,743.226056 428.496384,739.116002 C587.616634,734.446492 766.754352,553.234574 767,359.31101 C767.01296,147.813606 595.31071,0.00113170418 383.500049,0 C171.689241,0.00113170418 -0.0129599583,171.46086 0,382.958264 Z" id="path10"></path>
            </g>
        </g>
    </g>
</svg>