<svg width="261" height="260" viewBox="0 0 261 260" fill="none" xmlns="http://www.w3.org/2000/svg">
<path d="M130.523 256.829C200.568 256.829 257.351 200.046 257.351 130.001C257.351 59.9559 200.568 3.1731 130.523 3.1731C60.4781 3.1731 3.69531 59.9559 3.69531 130.001C3.69531 200.046 60.4781 256.829 130.523 256.829Z" fill="white"/>
<path d="M162.348 203.113V144.561H98.6998V203.113H69.6318V56.8892H98.6998V115.441H162.348V56.8892H191.416V203.113H162.348Z" fill="#4D2176"/>
<circle r="130" transform="matrix(1 0 0 -1 130 130)" fill="url(#paint0_linear)"/>
<path d="M121.001 130.114C120.58 130.114 120.159 130.079 119.737 130.009C121.563 126.146 123.319 122.389 125.004 118.737C126.69 115.014 128.165 111.608 129.429 108.518C130.693 105.428 131.712 102.689 132.484 100.301C133.257 97.9135 133.643 96.0525 133.643 94.7181C133.643 93.3837 133.432 92.2952 133.011 91.4524C132.589 90.5394 132.098 89.8721 131.536 89.4509C130.974 88.9592 130.342 88.6432 129.64 88.5028C128.937 88.2921 128.341 88.1866 127.849 88.1866C126.023 88.1866 123.951 89.2402 121.633 91.3471C119.386 93.3837 116.963 96.1226 114.365 99.5639C111.836 103.005 109.203 106.973 106.464 111.468C103.795 115.892 101.126 120.492 98.4577 125.268L67.3809 182.154C66.6084 183.629 66.0114 185.209 65.59 186.895C65.1686 188.58 64.958 190.231 64.958 191.846C64.958 192.97 65.0984 194.164 65.3793 195.428C65.7305 196.692 66.2923 197.851 67.0648 198.904C67.8374 199.958 68.9259 200.835 70.3305 201.538C71.7351 202.24 73.5611 202.591 75.8085 202.591C78.5474 202.591 81.0757 201.608 83.3934 199.641C85.7108 197.675 87.8881 195.112 89.9247 191.951C91.9613 188.721 93.8224 185.104 95.5079 181.101C97.1934 177.027 98.8088 172.919 100.354 168.776C101.899 164.632 103.339 160.629 104.673 156.766C106.007 152.833 107.307 149.427 108.571 146.548C110.818 153.852 113.382 160.804 116.261 167.406C119.14 173.937 122.336 179.661 125.847 184.577C129.359 189.493 133.257 193.391 137.541 196.27C141.825 199.15 146.495 200.59 151.551 200.59C157.732 200.59 164.263 199.045 171.146 195.954C178.098 192.794 185.192 187.808 192.425 180.995C194.883 178.678 196.604 176.466 197.587 174.359C198.641 172.182 199.167 170.285 199.167 168.67C199.167 166.985 198.676 165.65 197.693 164.667C196.709 163.684 195.515 163.192 194.111 163.192C191.863 163.192 189.651 164.421 187.474 166.879C185.156 169.969 182.417 172.673 179.257 174.991C176.588 177.027 173.253 178.889 169.249 180.574C165.246 182.26 160.681 183.102 155.555 183.102H154.08C153.588 183.102 153.061 183.067 152.5 182.997C149.69 182.786 147.022 181.382 144.493 178.783C141.965 176.185 139.648 173.059 137.541 169.407C135.504 165.685 133.748 161.788 132.273 157.714C130.869 153.571 129.85 149.849 129.218 146.548C133.713 145.775 138.348 144.511 143.124 142.755C147.97 141 152.675 138.858 157.24 136.329C161.805 133.801 166.089 130.922 170.092 127.691C174.165 124.39 177.712 120.809 180.732 116.946C183.752 113.013 186.14 108.834 187.895 104.41C189.721 99.915 190.634 95.2096 190.634 90.2935C190.634 82.9897 189.124 76.5988 186.105 71.1209C183.155 65.6429 179.152 61.113 174.095 57.5313C169.039 53.8793 163.21 51.1404 156.608 49.3144C150.077 47.4884 143.229 46.5754 136.066 46.5754C128.762 46.5754 121.844 47.348 115.313 48.893C108.781 50.3678 102.742 52.3694 97.1934 54.8977C91.7154 57.3557 86.7644 60.2352 82.3398 63.536C77.9154 66.7665 74.1581 70.1376 71.068 73.649C68.0481 77.1606 65.6954 80.6721 64.0098 84.1835C62.3946 87.6951 61.5869 90.9608 61.5869 93.9807C61.5869 97.2113 62.4648 99.7395 64.2205 101.565C65.9763 103.321 68.6099 104.199 72.1214 104.199C74.7199 104.199 76.897 103.602 78.6528 102.408C80.4085 101.214 81.9887 99.6694 83.3934 97.7731C84.8682 95.8769 86.2727 93.6997 87.6071 91.2416C88.9414 88.7836 90.4162 86.2552 92.0316 83.6568C93.7171 81.0583 95.6834 78.53 97.931 76.0719C100.248 73.6139 103.058 71.4368 106.358 69.5406C109.729 67.6444 113.697 66.0994 118.262 64.9054C122.898 63.7115 128.411 63.1146 134.802 63.1146C140.49 63.1146 145.371 63.7818 149.445 65.1161C153.588 66.4505 156.959 68.2414 159.558 70.4887C162.226 72.7361 164.158 75.3697 165.352 78.3896C166.616 81.4094 167.248 84.6049 167.248 87.9759C167.248 92.6813 166.054 97.5273 163.666 102.513C161.349 107.5 158.153 112.03 154.08 116.103C150.006 120.176 145.231 123.547 139.753 126.216C134.345 128.815 128.586 130.114 122.476 130.114H121.001Z" fill="white"/>
<defs>
<linearGradient id="paint0_linear" x1="320.33" y1="-50.1818" x2="320.33" y2="432.086" gradientUnits="userSpaceOnUse">
<stop stop-color="#9E00F6"/>
<stop offset="1" stop-color="#FA7564"/>
</linearGradient>
</defs>
</svg>
