<?xml version="1.0" encoding="utf-8"?>
<!-- Generator: Adobe Illustrator 23.0.1, SVG Export Plug-In . SVG Version: 6.00 Build 0)  -->
<svg version="1.1" id="레이어_1" xmlns="http://www.w3.org/2000/svg" xmlns:xlink="http://www.w3.org/1999/xlink" x="0px"
	 y="0px" viewBox="0 0 300 300" style="enable-background:new 0 0 300 300;" xml:space="preserve">
<style type="text/css">
	.st0{fill:url(#SVGID_1_);}
	.st1{fill:#FFFFFF;}
</style>
<linearGradient id="SVGID_1_" gradientUnits="userSpaceOnUse" x1="31.4494" y1="75.2452" x2="276.762" y2="229.9326">
	<stop  offset="0" style="stop-color:#21A9D7"/>
	<stop  offset="1" style="stop-color:#004E83"/>
</linearGradient>
<circle class="st0" cx="150" cy="150" r="150"/>
<g>
	<g>
		<path class="st1" d="M149.37,134.67c-4.09,0-6.72,0.3-7.97,0.6v21.4h7.66c8.71,0,14.17-4.42,14.17-11.15
			C163.22,138.09,157.76,134.67,149.37,134.67z"/>
		<path class="st1" d="M149.88,95.02c-35.58,0-64.42,28.84-64.42,64.42c0,35.58,28.84,64.42,64.42,64.42
			c35.58,0,64.42-28.84,64.42-64.42C214.3,123.86,185.45,95.02,149.88,95.02z M188.73,143.19c0,0.11-0.09,0.19-0.19,0.19h-12.56
			c0.01,0.31,0.05,0.62,0.05,0.93c0,1.98-0.33,3.81-0.9,5.49h13.41c0.11,0,0.19,0.09,0.19,0.19v6.96c0,0.11-0.09,0.19-0.19,0.19
			h-18.29c-2.07,1.87-4.52,3.27-7.02,4.15v0.3c5.04,1.81,8.08,6.53,9.86,13.06c2.2,8.44,4.09,16.28,5.56,18.89h-13.33
			c-1.05-2.01-2.73-7.54-4.72-15.98c-1.99-8.84-5.35-11.66-12.7-11.86h-6.51v27.83h-12.8v-36.4h-14.35c-0.11,0-0.19-0.09-0.19-0.19
			V150c0-0.11,0.09-0.19,0.19-0.19h14.35v-6.42h-14.35c-0.11,0-0.19-0.09-0.19-0.19v-6.96c0-0.11,0.09-0.19,0.19-0.19h14.35v-9.31
			c4.83-0.8,12.07-1.41,19.52-1.41c10.18,0,17.1,1.61,21.82,5.43c1.79,1.44,3.2,3.23,4.23,5.29h14.37c0.11,0,0.19,0.09,0.19,0.19
			V143.19z"/>
	</g>
	<path class="st1" d="M290.1,110.06c-0.13-0.71-0.34-1.41-0.61-2.06c-0.28-0.66-0.62-1.25-1-1.78c-0.39-0.52-0.83-0.97-1.3-1.34
		c-0.24-0.18-0.48-0.35-0.74-0.49c-0.76-0.43-1.59-0.66-2.44-0.66h-87.22h0c-0.61,0-1.22,0.03-1.83,0.08
		c-0.19,0.02-0.39,0.04-0.58,0.06c-0.41,0.04-0.83,0.1-1.24,0.17c-2.19-1.72-4.44-3.36-6.83-4.82c0,0,0,0,0,0
		c-10.63-6.47-23.11-10.19-36.44-10.19c-13.28,0-25.7,3.7-36.31,10.12c0,0,0,0,0,0c-2.42,1.46-4.7,3.12-6.92,4.86
		c-0.35-0.05-0.7-0.11-1.05-0.14c-0.19-0.02-0.37-0.04-0.56-0.06c-0.61-0.05-1.22-0.08-1.83-0.08H15.99c-2.27,0-4.37,1.63-5.48,4.26
		c-1.11,2.63-1.05,5.85,0.14,8.42l2.07,4.44c5.39,11.58,14.68,18.56,24.92,18.76l2.43,6.9c4.19,11.89,11.93,19.27,20.19,19.27h2.84
		l1.44,6.03c2.97,12.45,11.66,18.72,18.05,18.72h4.29c11.51,23.18,35.4,39.18,62.99,39.18c27.14,0,50.72-15.46,62.44-38.02h6.65
		c2,0,5.47-0.73,7.25-2.1c0.71-0.55,1.41-1.21,2.07-1.96c1-1.13,1.95-2.49,2.82-4.05c0.88-1.57,1.69-3.34,2.41-5.3
		s1.38-4.12,1.93-6.46l1.44-6.03h2.84c2.07,0,4.1-0.46,6.05-1.34c1.46-0.66,2.88-1.55,4.24-2.66c0.9-0.74,1.78-1.57,2.62-2.5
		c0.84-0.92,1.64-1.94,2.41-3.04c1.91-2.75,3.57-6.02,4.88-9.74l2.43-6.9c1.92-0.04,3.81-0.31,5.64-0.81
		c1.22-0.33,2.42-0.77,3.59-1.29c1.75-0.79,3.44-1.8,5.05-3.01c2.67-2.01,5.11-4.58,7.22-7.63c0.84-1.22,1.64-2.52,2.37-3.9
		c0.37-0.69,0.72-1.39,1.06-2.12l1.03-2.22l1.03-2.22c0.3-0.64,0.53-1.32,0.68-2.03c0.08-0.35,0.14-0.71,0.18-1.07
		C290.33,112.24,290.3,111.13,290.1,110.06z M81.04,181.72c-2.81,0-7.48-5.19-9.32-12.91l-0.72-3.03h0.44
		c2.08,0,3.76-2.23,3.76-4.99c0-2.75-1.68-4.99-3.76-4.99h-5.56c-0.04,0-0.08,0.01-0.12,0.01h-5.49c-5.39,0-10.39-5.05-13.37-13.52
		l-0.85-2.41h30.33c2.08,0,3.76-2.23,3.76-4.99c0-2.75-1.66-4.48-3.73-4.48H40.34l-1.97,0.05c-0.12-0.02-0.24-0.02-0.36-0.02
		c-7.79,0-14.79-6.04-18.88-14.82l-0.89-2.78h78.99c-10.99,12.41-17.69,28.7-17.69,46.54c0,6.06,0.77,11.95,2.22,17.57
		c0.42,1.62,0.91,3.21,1.44,4.78H81.04z M209.26,176.94c-1.07,3.61-2.46,7.08-4.14,10.38c-10.23,20.15-31.15,33.99-55.25,33.99
		s-45.01-13.84-55.25-33.99c-1.68-3.3-3.07-6.77-4.14-10.38c-1.65-5.57-2.55-11.47-2.55-17.57c0-20.13,9.65-38.04,24.57-49.36
		c2.57-1.95,5.29-3.7,8.15-5.24c8.71-4.68,18.66-7.34,29.22-7.34c10.63,0,20.64,2.69,29.39,7.43c2.84,1.54,5.54,3.3,8.09,5.24
		c14.85,11.33,24.45,29.19,24.45,49.26C211.81,165.48,210.91,171.37,209.26,176.94z M280.88,115.61c-0.26,0.55-0.52,1.08-0.8,1.61
		c-1.39,2.6-3.06,4.85-4.94,6.69c-0.38,0.37-0.76,0.72-1.15,1.05c-0.78,0.67-1.6,1.27-2.44,1.81c-1.68,1.07-3.47,1.85-5.34,2.33
		c-0.93,0.24-1.91,0.95-2.87,1.08c-0.56,0.08-1.13,0.12-1.61,0.12c-0.12,0-0.24,0.01-0.36,0.02l-1.64,0.08h-36.06
		c-0.26,0-0.51,0.03-0.76,0.1c-0.49,0.13-0.94,0.39-1.35,0.75c-0.4,0.36-0.75,0.82-1.02,1.35c-0.41,0.8-0.67,1.25-0.67,2.28
		c0,1.03,0.24,1.99,0.64,2.79c0.27,0.53,0.62,0.99,1.02,1.35c0.4,0.36,0.86,0.62,1.35,0.75c0.24,0.07,0.5,0.1,0.76,0.1h30.33
		l-0.85,2.41c-0.75,2.12-1.62,4.02-2.59,5.68c-0.73,1.25-1.52,2.36-2.35,3.33c-0.55,0.65-1.13,1.23-1.72,1.74
		c-0.59,0.51-1.2,0.96-1.83,1.33c-0.62,0.37-1.26,0.68-1.91,0.91c-0.32,0.11-0.65,0.21-0.98,0.29c-0.66,0.15-1.33,0.23-2,0.23h-5.49
		c-0.02,0-0.04,0-0.06,0c-0.02,0-0.04,0-0.06,0h-5.56c-0.26,0-0.51,0.03-0.76,0.1c-0.49,0.13-0.94,0.39-1.35,0.75
		c-0.4,0.36-0.75,0.82-1.02,1.35c-0.41,0.8-0.64,1.76-0.64,2.79c0,1.03,0.24,1.99,0.64,2.79c0.27,0.53,0.62,0.99,1.02,1.35
		c0.4,0.36,0.86,0.62,1.35,0.75c0.24,0.07,0.5,0.1,0.76,0.1h0.44l-0.72,3.03c-0.23,0.97-0.48,1.89-0.75,2.77
		c-0.4,1.32-0.84,2.54-1.31,3.65c-0.31,0.74-0.63,1.42-0.97,2.04c-0.33,0.62-0.67,1.19-1.02,1.7c-0.35,0.5-0.7,0.95-1.06,1.32
		c-0.89,0.93-3.35,1.44-4.23,1.44h-2.41c0.53-1.57,1.02-3.16,1.44-4.78c1.45-5.62,2.22-11.51,2.22-17.57
		c0-16.85-6.72-33.92-17.84-46.64h79.39L280.88,115.61z"/>
</g>
</svg>
