<svg xmlns="http://www.w3.org/2000/svg" width="255.999" height="255.999" viewBox="0 0 255.999 255.999"><defs><style>.prefix__cls-2{fill:#fff}</style></defs><g id="prefix__Group_28181" data-name="Group 28181" transform="translate(2174 18304)"><circle id="prefix__XMLID_5_" cx="128" cy="128" r="128" fill="#0e3158" transform="translate(-2174 -18304)"/><g id="prefix__Group_28180" data-name="Group 28180" transform="translate(-498 -23.001)"><path id="prefix__Path_10315" d="M23.217 35.712l12.494-7.18 1.676 2.9 46.04-26.568-3.365-1.935L76.683.967 75.007 0 0 43.328v1.935L21.541 32.81z" class="prefix__cls-2" data-name="Path 10315" transform="translate(-1623 -18238)"/><path id="prefix__Path_10316" d="M23.217 59.361L59.3 38.514l1.69 2.929 46.04-26.569-3.365-1.962-3.379-1.935-1.69-.967L0 66.936v1.935l21.541-12.454z" class="prefix__cls-2" data-name="Path 10316" transform="translate(-1623 -18234.371)"/><path id="prefix__Path_10317" d="M23.217 71.19L71.1 43.531l1.69 2.9 46.04-26.6-3.379-1.894-3.365-1.976-1.694-.961L0 78.739v1.976l21.541-12.454z" class="prefix__cls-2" data-name="Path 10317" transform="translate(-1623 -18232.563)"/><path id="prefix__Path_10318" d="M23.217 82.989L83.236 48.34l1.69 2.9 45.7-26.378-3.38-1.962-3.365-1.935-1.69-.965L0 90.565V92.5l21.541-12.454z" class="prefix__cls-2" data-name="Path 10318" transform="translate(-1623 -18230.75)"/><path id="prefix__Path_10319" d="M23.217 94.778L95.036 53.33l1.69 2.943 45.7-26.406-3.379-1.948-3.365-1.962-1.69-.967L0 102.368v1.932l21.541-12.424z" class="prefix__cls-2" data-name="Path 10319" transform="translate(-1623 -18228.939)"/><path id="prefix__Path_10320" d="M147.479 30.985l-1.69-.995L0 114.194v1.935L21.541 103.7l1.676 2.9 71.819-41.443 1.69 2.9L150 37.32v-4.864z" class="prefix__cls-2" data-name="Path 10320" transform="translate(-1623 -18227.129)"/><path id="prefix__Path_10321" d="M7.219 121.419l12.081-6.962 1.676 2.9 71.7-41.38 1.69 2.929 53.615-30.956v-9.74L5.57 120.452z" class="prefix__cls-2" data-name="Path 10321" transform="translate(-1620.981 -18224.148)"/><path id="prefix__Path_10322" d="M89.537 85.989l1.69 2.929 53.615-30.956V48.22L14.23 123.622l1.676.981 12.263-7.085 1.69 2.929" class="prefix__cls-2" data-name="Path 10322" transform="translate(-1617.841 -18220.518)"/><path id="prefix__Path_10323" d="M24.577 127.808l12.262-7.108 1.69 2.929 47.879-27.65 1.69 2.929 53.615-30.956V58.21L22.86 126.813z" class="prefix__cls-2" data-name="Path 10323" transform="translate(-1614.713 -18216.896)"/><path id="prefix__Path_10324" d="M33.23 130.991l12.263-7.085 1.69 2.9 36.08-20.819 1.69 2.9 53.615-30.97v-9.7L31.54 130.024z" class="prefix__cls-2" data-name="Path 10324" transform="translate(-1611.566 -18213.268)"/><path id="prefix__Path_10325" d="M40.2 133.2l1.69.967 12.3-7.085 1.649 2.929 24.28-14.048 1.69 2.943 53.615-30.97V78.21z" class="prefix__cls-2" data-name="Path 10325" transform="translate(-1608.427 -18209.646)"/><path id="prefix__Path_10326" d="M50.55 137.38l12.263-7.126L64.5 133.2l12.481-7.249 1.69 2.943 53.615-30.943V88.22L48.86 136.412z" class="prefix__cls-2" data-name="Path 10326" transform="translate(-1605.287 -18206.018)"/><path id="prefix__Path_10327" d="M95.227 9.868l-3.366-1.935L88.482 6l-1.676-1.01L0 55.117v1.935l21.541-12.413 1.676 2.9 24.294-14.02 1.717 2.943z" class="prefix__cls-2" data-name="Path 10327" transform="translate(-1623 -18236.189)"/></g></g></svg>