<svg xmlns="http://www.w3.org/2000/svg" viewBox="0 0 71 71">
    <defs>
        <style>
            .renBCH {
                fill: #87888c;
                fill-rule: evenodd;
            }
        </style>
    </defs>
    <title>renBCH</title>
    <path id="Fill-1-Copy-3" class="renBCH"
        d="M39.69,27.41c1.12,4.38-5.91,5.63-8.1,6.19l-2-7.76c2.2-.56,8.91-3,10.08,1.57M44.58,39c1.23,4.83-7.17,6.38-9.81,7.06l-2.15-8.56c2.63-.67,10.7-3.54,12,1.5m1.93-15.2c-1.62-4.49-6-5-11.12-4.19l-1.63-6.39-3.89,1,1.59,6.23c-1,.26-2.06.54-3.09.83L26.76,15l-3.89,1L24.5,22.4c-.84.24-1.66.46-2.47.67h0l-5.36,1.36,1.06,4.16s2.87-.79,2.82-.72A2.07,2.07,0,0,1,23.22,29l1.87,7.24a3.07,3.07,0,0,1,.42-.07l-.41.1,2.58,10.2a1.44,1.44,0,0,1-1.15,1.66c.06,0-2.83.72-2.83.72l.41,4.84,5.06-1.29L32,51.69l1.65,6.46,3.88-1L35.85,50.8c1-.23,2.08-.49,3.11-.76l1.62,6.37,3.89-1L42.83,49c6.46-2,10.6-4.86,9.6-11.14-.81-5.06-3.67-6.67-7.6-6.62,2-1.72,2.87-4.11,1.67-7.39m20.25-5.15A35.49,35.49,0,1,1,18.67,4.25l0,0a35.48,35.48,0,0,1,48,14.44" />
</svg>