<svg xmlns="http://www.w3.org/2000/svg" viewBox="0 0 71 71">
    <defs>
        <style>
            .renZEC {
                fill: #87888c;
            }
        </style>
    </defs>
    <title>renZEC</title>
    <path class="renZEC"
        d="M35.5,0A35.5,35.5,0,1,0,71,35.5,35.53,35.53,0,0,0,35.5,0Zm0,65.14A29.64,29.64,0,1,1,65.14,35.5,29.67,29.67,0,0,1,35.5,65.14Z" />
    <path class="renZEC"
        d="M35.5,7.53a28,28,0,1,0,28,28A28,28,0,0,0,35.5,7.53ZM48.16,24.41l-15,20.38h15V52H38.48V57.9h-6V52H22.84V46.54l15-20.36h-15V19h9.68V13.07h6V19h9.68Z" />
</svg>