<svg xmlns="http://www.w3.org/2000/svg" viewBox="0 0 2000 2000" width="2000" height="2000"><circle cx="1000" cy="1000" r="1000" fill="#5f2652"/><path d="m1568.6 1259l-523.2-938.4a51.82 51.82 0 0 0 -91.2 0l-523 938.4c-13.6 24.2-5.8 55.6 18.6 70l523.8 313.2a55 55 0 0 0 54.4 0l523-312.6c23.2-15 31.8-46.4 17.6-70.6m-395.4-378.2l-12.8-10.8-.8-.8a127.55 127.55 0 0 0 -12.8 -9.2l-.8-.8c-4.2-2.8-8.6-5.8-13.6-8.6-.8 0-.8-.8-1.4-.8-4.2-2.8-9.2-5-13.6-7.2-.8 0-.8-.8-1.4-.8-4.2-2.2-9.2-4.2-14.2-6.4-.8 0-.8-.8-1.4-.8-4.2-1.4-8.6-3.6-12.8-5a218.71 218.71 0 0 0 -35.6 -10c-9.2 17.8-22.2 33.6-36.4 47 22.2 1.4 43.6 7.2 62.8 15a242.23 242.23 0 0 1 32.8 17.2 2 2 0 0 1 1.4 .8c2.8 1.4 5 3.6 7.8 5.8a14.68 14.68 0 0 1 3.6 2.8 45.78 45.78 0 0 1 7.2 5.8c1.4 1.4 2.8 2.2 4.2 3.6 2.2 2.2 4.2 3.6 6.4 5.8l4.2 4.2 5.8 5.8 4.2 4.2a49.87 49.87 0 0 0 5 5.8c1.4 1.6 2.8 3.6 4.2 5l4.2 6.4c1.4 2.2 2.8 3.6 3.6 5.8l4.2 6.4c1.4 2.2 2.2 4.2 3.6 5.8 1.4 2.2 2.2 4.2 3.6 6.4s2.2 4.2 3.6 6.4c.8 2.2 2.2 4.2 2.8 6.4 1.4 2.8 2.2 5.8 3.6 7.8a184.25 184.25 0 0 1 12.2 45.6l6.4 25c2.8 10.8 28.6 102 88.4 132.8 68.6 35.6 159.2 80 194.8 97l-470 281.2v-192.6c0-30.6 60.6-66.4 88.4-78.4l1.4-.8c5.8-2.8 11.4-5.8 17.2-9.2l2.2-1.4a220.41 220.41 0 0 0 34.2 -25c.8-.8 2.2-1.4 2.8-2.8 1.4-.8 2.2-2.2 3.6-2.8 3.6-2.8 6.4-6.4 10-9.2l1.4-1.4a77.06 77.06 0 0 0 10 -11.4c.8-1.4 2.2-2.2 2.8-3.6 2.8-2.8 5-6.4 7.8-10 .8-.8 1.4-2.2 2.2-2.8l8.6-12.8c0-.8.8-.8.8-1.4 3.6-5.8 7.2-12.2 10.8-17.8-14.2-17.2-25-35.6-33.6-52.8a194 194 0 0 1 -13.6 30.6c-2.2 4.2-5 8.6-7.2 12.8-.8.8-.8 1.4-1.4 1.4a108.21 108.21 0 0 1 -7.2 10c-.8.8-1.4 2.2-2.2 2.8a49.9 49.9 0 0 1 -7.8 9.2c-.8.8-.8 1.4-1.4 1.4-17.2 19.2-37.8 35.6-61.4 47l-4.2 2.2c-12.2 5-117 52.8-117 124.8v192.6l-471-280.4c30.6-18.6 119.2-71.4 192-94.2 28.6-9.2 89.2 29.2 123.4 57l2.2 2.2a119.82 119.82 0 0 0 14.2 12.2l1.4 1.4c10.8 8.6 22.2 17.2 35 23.6l8.6 4.2a2 2 0 0 1 1.4 .8c7.8 4.2 15.6 7.8 24.2 11.4a26.7 26.7 0 0 0 3.6 1.4c.8 0 1.4.8 2.8.8 12.2 4.2 24.2 7.8 36.4 10.8 9.2-17.8 22.8-33.6 37.2-47a204.43 204.43 0 0 1 -58.6 -12.8c-.8-.8-2.2-.8-2.8-1.4a29.68 29.68 0 0 1 -6.4 -2.8c-.8-.8-2.2-.8-2.8-1.4-2.2-.8-4.2-2.2-5.8-2.8-14.2-7.2-27.2-15-39.2-25l-18.6-17.2a352.15 352.15 0 0 0 -55.6 -40c-46.4-26.4-85.6-35-115.6-25.6-62 20-132.8 57.8-175.6 82.8l470.2-844.8v370.4c0 12.8-19.2 47-84.2 76.4l-4.2 2.2c-6.4 2.8-12.2 6.4-18.6 10l-1.4.8a273.83 273.83 0 0 0 -35 25 154.48 154.48 0 0 0 -19.2 18.6l-.8.8a146.8 146.8 0 0 0 -17.2 20l-.8.8c-2.8 3.6-5 7.2-7.8 10.8 0 .8-.8.8-.8 1.4-2.2 3.6-4.2 6.4-6.4 10 0 .8-.8.8-.8 1.4l-6.4 10.8c-.8.8-.8 1.4-1.4 2.8-2.2 3.6-3.6 7.2-5 10a2 2 0 0 1 -.8 1.4c-1.4 3.6-2.8 6.4-4.2 10a26.72 26.72 0 0 0 -1.4 3.6l-4.2 10.8a26.72 26.72 0 0 0 -1.4 3.6 40.63 40.63 0 0 1 -2.8 7.8c-.8 1.4-.8 2.8-1.4 4.2-.8 3.6-2.2 7.2-2.8 10-.8 1.4-.8 3.6-1.4 5-.8 2.2-.8 5-1.4 7.2-.8 2.2-.8 4.2-1.4 6.4-.8 2.8-.8 5.8-1.4 8.6 0 2.2-.8 3.6-.8 5.8 0 2.8-.8 5-.8 7.8a25.9 25.9 0 0 1 -.8 7.8v10.8a245.32 245.32 0 0 0 2.8 38.6c18.6 4.2 37.8 12.2 58.6 22.2-5.8-18.6-8.6-37.8-9.2-57.8v-3.6a84.57 84.57 0 0 1 .8 -14.2v-3.6c0-4.2.8-7.8 1.4-12.2v-1.4c.8-4.2 1.4-8.6 2.2-13.6 0-1.4.8-2.2.8-3.6.8-3.6 2.2-7.2 2.8-10.8 0-.8.8-1.4.8-2.2l4.2-12.8c.8-.8.8-2.2 1.4-2.8 1.4-3.6 2.8-7.2 4.2-10 .8-.8.8-1.4 1.4-2.8 2.2-4.2 3.6-7.8 6.4-11.4a13.46 13.46 0 0 0 1.4 -2.2c2.2-3.6 3.6-6.4 5.8-10a13.46 13.46 0 0 0 1.4 -2.2 121.67 121.67 0 0 1 7.8 -10.8 .78 .78 0 0 1 .8 -.8c2.8-3.6 5-6.4 7.8-10a13.46 13.46 0 0 0 1.4 -2.2 223.32 223.32 0 0 1 43.6 -37.2l22.2-10.8c12.2-5 116.4-54.2 116.4-126.4v-369l474.6 852c-42.2-20.6-117-57.8-174.8-87.8-33.6-17.2-55.6-77.8-62-100l-6.4-25.6c0-13.6-3.6-27.2-7.8-40.6a263 263 0 0 0 -74.6 -109.8" fill="#fff"/></svg>