<svg width="96" height="96" viewBox="0 0 96 96" fill="none" xmlns="http://www.w3.org/2000/svg">
<circle cx="48" cy="48.0005" r="48" fill="#0E0E21"/>
<path d="M74.7933 59.1554L69.0824 49.4704C68.8703 49.1104 68.4018 49.0004 68.0565 49.2254L64.338 51.6404C64.0026 51.8554 63.8991 52.3054 64.1013 52.6504L67.3661 58.1854C67.4697 58.3604 67.4154 58.5804 67.2477 58.6904L48.1964 71.0654C48.0731 71.1454 47.9202 71.1454 47.8018 71.0654L28.7554 58.6904C28.5877 58.5804 28.5384 58.3554 28.637 58.1854L31.9019 52.6504C32.1041 52.3054 32.0005 51.8554 31.6651 51.6404L27.9466 49.2254C27.5964 49.0004 27.1329 49.1104 26.9208 49.4704L21.2098 59.1554C20.8005 59.8454 21.0076 60.7404 21.6783 61.1754L47.21 77.7654C47.6933 78.0804 48.3147 78.0804 48.7981 77.7654L74.3297 61.1754C74.9906 60.7404 75.1977 59.8454 74.7933 59.1554Z" fill="white"/>
<path d="M30.9303 44.0705L34.6489 46.4855C34.999 46.7105 35.4626 46.6005 35.6747 46.2405L47.6835 25.8805C47.8265 25.6405 48.1717 25.6405 48.3147 25.8805L60.3236 46.2405C60.5356 46.6005 61.0041 46.7105 61.3494 46.4855L65.0679 44.0705C65.4033 43.8555 65.5068 43.4055 65.3046 43.0605L50.9532 18.7255C50.6869 18.2755 50.2085 18.0005 49.6907 18.0005H46.3075C45.7897 18.0005 45.3113 18.2755 45.045 18.7255L30.6936 43.0605C30.4914 43.4055 30.595 43.8555 30.9303 44.0705Z" fill="#2AE7A8"/>
</svg>
