<svg id="Layer_1" data-name="Layer 1" xmlns="http://www.w3.org/2000/svg" viewBox="0 0 600 600"><defs><style>.cls-1{fill:#008c62;}.cls-2{fill:#00e6a0;}</style></defs><title>Metamask</title><path class="cls-1" d="M380.31,330.75,505.05,206.48a49.46,49.46,0,0,0,14.6-35.08l.21-100.52A20.15,20.15,0,0,0,514.27,57L275,295.59a49.67,49.67,0,0,0-.1,70.23l.1.1L443.72,534.11a49.65,49.65,0,0,0,70.09-70.33Z"/><path class="cls-2" d="M500.33,51.41H124.56c-30.54,0-53,23-53,54.33V497.91c0,27.93,21.63,50.56,50.57,50.56h0c27.92,0,50.56-21.32,50.56-50.56V148.18h250.1L514.27,57A19.27,19.27,0,0,0,500.33,51.41Z"/></svg>