<svg xmlns="http://www.w3.org/2000/svg" xmlns:xlink="http://www.w3.org/1999/xlink" width="100" height="100" viewBox="0 0 100 100">
  <defs>
    <clipPath id="clip-icon-revv-100">
      <rect width="100" height="100"/>
    </clipPath>
  </defs>
  <g id="icon-revv-100" clip-path="url(#clip-icon-revv-100)">
    <g id="Group_2180" data-name="Group 2180" transform="translate(-44.109 -39.521)">
      <g id="Group_2178" data-name="Group 2178" transform="translate(46.926 41.521)">
        <path id="Path_2818" data-name="Path 2818" d="M70.911,333.16a5.141,5.141,0,0,1-.347.667,8.812,8.812,0,0,0-1.209,3.793A48.4,48.4,0,0,0,73.15,344a9.611,9.611,0,0,1,.521-2.32,4.632,4.632,0,0,0-.033-2.936A45.349,45.349,0,0,1,70.911,333.16Z" transform="translate(-64.285 -267.241)"/>
        <path id="Path_2819" data-name="Path 2819" d="M53.8,177.853a4.4,4.4,0,0,0,2.07-1.958,45.6,45.6,0,0,1,2.243-5.9,4.89,4.89,0,0,1-.74.19,8.209,8.209,0,0,0-3.541,1.611,48.941,48.941,0,0,0-2.133,7.264A9.1,9.1,0,0,1,53.8,177.853Z" transform="translate(-50.617 -140.959)"/>
        <path id="Path_2820" data-name="Path 2820" d="M195.205,46.682a4.228,4.228,0,0,0,2.718.863,42.98,42.98,0,0,1,6.048-.921,5.056,5.056,0,0,1-.593-.623,8.239,8.239,0,0,0-2.823-2.213,45.982,45.982,0,0,0-7.262,1.7A9.094,9.094,0,0,1,195.205,46.682Z" transform="translate(-160.21 -43.276)"/>
        <path id="Path_2821" data-name="Path 2821" d="M155.283,58.9a4.2,4.2,0,0,0,2.79.271,42.63,42.63,0,0,1,5.76-2.222,4.974,4.974,0,0,1-.686-.47,8.145,8.145,0,0,0-3.267-1.57,46.119,46.119,0,0,0-6.748,3.221A8.963,8.963,0,0,1,155.283,58.9Z" transform="translate(-129.127 -51.885)"/>
        <path id="Path_2822" data-name="Path 2822" d="M67.791,140.966A4.316,4.316,0,0,0,70.2,139.5a45.2,45.2,0,0,1,3.414-5.3,4.886,4.886,0,0,1-.8.031,8.1,8.1,0,0,0-3.712.785A48.379,48.379,0,0,0,65.5,141.7,9,9,0,0,1,67.791,140.966Z" transform="translate(-61.3 -113.253)"/>
        <path id="Path_2823" data-name="Path 2823" d="M119.835,79.806a4.223,4.223,0,0,0,2.834-.358,43.638,43.638,0,0,1,5.143-3.386,4.94,4.94,0,0,1-.761-.311,8.03,8.03,0,0,0-3.552-.839,47.579,47.579,0,0,0-5.935,4.6A8.88,8.88,0,0,1,119.835,79.806Z" transform="translate(-101.598 -67.365)"/>
        <path id="Path_2824" data-name="Path 2824" d="M90.173,107.829a4.259,4.259,0,0,0,2.744-.992q.872-1.009,1.806-1.975,1.221-1.257,2.521-2.4a4.909,4.909,0,0,1-.815-.144,8.016,8.016,0,0,0-3.68-.053c-.127.128-.255.253-.38.383a48.808,48.808,0,0,0-4.534,5.4A8.888,8.888,0,0,1,90.173,107.829Z" transform="translate(-78.589 -88.387)"/>
        <path id="Path_2825" data-name="Path 2825" d="M48.722,218.149A4.528,4.528,0,0,0,50.38,215.7a46.494,46.494,0,0,1,.986-6.158,4.961,4.961,0,0,1-.682.341,8.356,8.356,0,0,0-3.151,2.348,50.365,50.365,0,0,0-.607,7.532A9.244,9.244,0,0,1,48.722,218.149Z" transform="translate(-46.926 -171.567)"/>
        <path id="Path_2826" data-name="Path 2826" d="M357.08,415.047a4.223,4.223,0,0,0-2.834.357,43.656,43.656,0,0,1-5.141,3.385,4.948,4.948,0,0,1,.759.312,8.038,8.038,0,0,0,3.552.839,47.533,47.533,0,0,0,5.935-4.6A8.906,8.906,0,0,1,357.08,415.047Z" transform="translate(-280.803 -330.531)"/>
        <path id="Path_2827" data-name="Path 2827" d="M448.071,258.85a4.523,4.523,0,0,0-1.657,2.443,46.55,46.55,0,0,1-.986,6.159,4.924,4.924,0,0,1,.681-.341,8.384,8.384,0,0,0,3.153-2.354,50.286,50.286,0,0,0,.606-7.527A9.236,9.236,0,0,1,448.071,258.85Z" transform="translate(-355.354 -208.474)"/>
        <path id="Path_2828" data-name="Path 2828" d="M280.229,452.446a4.237,4.237,0,0,0-2.716-.864,42.971,42.971,0,0,1-6.05.922,5.1,5.1,0,0,1,.593.622,8.243,8.243,0,0,0,2.823,2.214,46,46,0,0,0,7.263-1.7A9.08,9.08,0,0,1,280.229,452.446Z" transform="translate(-220.711 -358.894)"/>
        <path id="Path_2829" data-name="Path 2829" d="M199.356,448.621a4.374,4.374,0,0,0-2.158-1.94,42.7,42.7,0,0,1-5.84-1.651,5.294,5.294,0,0,1,.274.771,8.575,8.575,0,0,0,1.74,3.249,46.1,46.1,0,0,0,7.223,1.421A9.371,9.371,0,0,1,199.356,448.621Z" transform="translate(-158.711 -353.824)"/>
        <path id="Path_2830" data-name="Path 2830" d="M151.125,119.327h0s.1-.014.111-.028c.871-2.865,1.852-5.856,1.852-8.939h0c0-1.354.08-2.695.08-4.082a43.412,43.412,0,0,0-.393-5h.087v-.064a53.456,53.456,0,0,0-1.98-8.926h-.012s-.021-.016-.023-.03C145.171,74.979,129.271,62.51,110.6,62.51c-18.991,0-35.114,12.906-40.527,30.65h0s-.007.009-.013.022a44.629,44.629,0,0,0-1.933,13.033,41.038,41.038,0,0,0,.282,5h.14v.064a53.326,53.326,0,0,0,1.866,8.926h-.044s-.008.014-.006.027c5.678,17.276,21.564,29.745,40.231,29.745C129.593,149.978,145.713,137.071,151.125,119.327ZM74.879,106.245c0-20.367,16.023-36.936,35.718-36.936s35.718,16.57,35.718,36.936-16.023,36.936-35.718,36.936S74.879,126.612,74.879,106.245Z" transform="translate(-63.34 -57.766)"/>
        <path id="Path_2831" data-name="Path 2831" d="M161.7,432.292a4.469,4.469,0,0,0-1.685-2.339,43.094,43.094,0,0,1-5.411-2.894,5.245,5.245,0,0,1,.111.8,8.71,8.71,0,0,0,1.072,3.6,45.99,45.99,0,0,0,6.769,2.938A9.531,9.531,0,0,1,161.7,432.292Z" transform="translate(-130.266 -339.915)"/>
        <path id="Path_2832" data-name="Path 2832" d="M127.7,408.222a4.556,4.556,0,0,0-1.223-2.7,44.75,44.75,0,0,1-4.658-3.955,5.209,5.209,0,0,1-.054.814,8.794,8.794,0,0,0,.335,3.8,47.213,47.213,0,0,0,6.019,4.315A9.635,9.635,0,0,1,127.7,408.222Z" transform="translate(-104.79 -320.182)"/>
        <path id="Path_2833" data-name="Path 2833" d="M323.061,54.553a4.458,4.458,0,0,0,1.684,2.339,43.122,43.122,0,0,1,5.411,2.894,5.32,5.32,0,0,1-.111-.8,8.7,8.7,0,0,0-1.073-3.6A45.99,45.99,0,0,0,322.2,52.44,9.525,9.525,0,0,1,323.061,54.553Z" transform="translate(-259.982 -49.972)"/>
        <path id="Path_2834" data-name="Path 2834" d="M436.236,303.105a4.39,4.39,0,0,0-2.069,1.956,45.5,45.5,0,0,1-2.244,5.9,4.917,4.917,0,0,1,.74-.189,8.245,8.245,0,0,0,3.545-1.618,48.979,48.979,0,0,0,2.131-7.258A9.116,9.116,0,0,1,436.236,303.105Z" transform="translate(-344.902 -243.041)"/>
        <path id="Path_2835" data-name="Path 2835" d="M389.607,383.732a4.24,4.24,0,0,0-2.743.991q-.873,1.01-1.807,1.976-1.221,1.257-2.521,2.4a4.9,4.9,0,0,1,.814.143,8,8,0,0,0,3.68.053c.127-.127.255-.253.381-.382a48.841,48.841,0,0,0,4.535-5.4A8.927,8.927,0,0,1,389.607,383.732Z" transform="translate(-306.678 -306.216)"/>
        <path id="Path_2836" data-name="Path 2836" d="M396.561,99.855a4.634,4.634,0,0,0,.677,2.951,45.44,45.44,0,0,1,3.735,4.809,5.248,5.248,0,0,1,.211-.754,8.852,8.852,0,0,0,.429-3.866,48.872,48.872,0,0,0-3.376-3.865q-.8-.822-1.629-1.6A9.59,9.59,0,0,1,396.561,99.855Z" transform="translate(-317.503 -84.87)"/>
        <path id="Path_2837" data-name="Path 2837" d="M416.4,345.366a4.316,4.316,0,0,0-2.413,1.467,45.247,45.247,0,0,1-3.414,5.3,4.9,4.9,0,0,1,.8-.03,8.1,8.1,0,0,0,3.71-.782,48.374,48.374,0,0,0,3.609-6.684A9,9,0,0,1,416.4,345.366Z" transform="translate(-328.378 -276.122)"/>
        <path id="Path_2838" data-name="Path 2838" d="M237.784,43.284a4.321,4.321,0,0,0,2.586,1.447c.1,0,.2,0,.3,0a43.511,43.511,0,0,1,5.684.374,5.176,5.176,0,0,1-.445-.724,8.4,8.4,0,0,0-2.3-2.761c-.974-.061-1.953-.1-2.937-.1q-2.257,0-4.477.215A9.206,9.206,0,0,1,237.784,43.284Z" transform="translate(-193.414 -41.521)"/>
        <path id="Path_2839" data-name="Path 2839" d="M239.42,456.455a4.314,4.314,0,0,0-2.587-1.446c-.1,0-.2,0-.3,0a43.436,43.436,0,0,1-5.685-.374,5.153,5.153,0,0,1,.446.725,8.392,8.392,0,0,0,2.3,2.761c.974.061,1.954.1,2.938.1q2.256,0,4.476-.215A9.189,9.189,0,0,1,239.42,456.455Z" transform="translate(-189.276 -361.261)"/>
        <path id="Path_2840" data-name="Path 2840" d="M49.507,260.07a4.59,4.59,0,0,0,1.131-2.754,47.262,47.262,0,0,1-.28-5.118q0-.556.013-1.11a5.04,5.04,0,0,1-.6.485,8.552,8.552,0,0,0-2.611,2.98,49.92,49.92,0,0,0,.917,7.491A9.4,9.4,0,0,1,49.507,260.07Z" transform="translate(-47.104 -203.719)"/>
        <path id="Path_2841" data-name="Path 2841" d="M97.82,377.613a4.635,4.635,0,0,0-.678-2.952,45.411,45.411,0,0,1-3.735-4.808,5.264,5.264,0,0,1-.21.755,8.809,8.809,0,0,0-.432,3.86,48.914,48.914,0,0,0,3.38,3.871q.8.822,1.628,1.6A9.628,9.628,0,0,1,97.82,377.613Z" transform="translate(-82.365 -295.64)"/>
        <path id="Path_2842" data-name="Path 2842" d="M362.262,73.209a4.568,4.568,0,0,0,1.223,2.7,44.739,44.739,0,0,1,4.658,3.956,5.259,5.259,0,0,1,.054-.814,8.784,8.784,0,0,0-.335-3.8,47.2,47.2,0,0,0-6.019-4.315A9.589,9.589,0,0,1,362.262,73.209Z" transform="translate(-290.663 -64.29)"/>
        <path id="Path_2843" data-name="Path 2843" d="M281.011,44.748a4.38,4.38,0,0,0,2.157,1.94,42.631,42.631,0,0,1,5.842,1.651,5.244,5.244,0,0,1-.274-.771,8.579,8.579,0,0,0-1.74-3.25,46.12,46.12,0,0,0-7.223-1.421A9.326,9.326,0,0,1,281.011,44.748Z" transform="translate(-227.142 -42.587)"/>
        <path id="Path_2844" data-name="Path 2844" d="M57.224,301.873a4.616,4.616,0,0,0,.563-2.849,45.989,45.989,0,0,1-1.535-6.1,5.065,5.065,0,0,1-.483.59,8.687,8.687,0,0,0-1.959,3.481,48.842,48.842,0,0,0,2.415,7.1A9.525,9.525,0,0,1,57.224,301.873Z" transform="translate(-52.254 -236.097)"/>
        <path id="Path_2845" data-name="Path 2845" d="M450.31,222.908a8.559,8.559,0,0,0,2.613-2.981,49.978,49.978,0,0,0-.918-7.492,9.392,9.392,0,0,1-1.434,1.974,4.582,4.582,0,0,0-1.13,2.755,47.442,47.442,0,0,1,.279,5.118q0,.556-.013,1.11A5.069,5.069,0,0,1,450.31,222.908Z" transform="translate(-358.459 -173.803)"/>
        <path id="Path_2846" data-name="Path 2846" d="M425.524,141.706a5.156,5.156,0,0,1,.347-.666,8.781,8.781,0,0,0,1.211-3.789,48.4,48.4,0,0,0-3.8-6.389,9.627,9.627,0,0,1-.521,2.321,4.622,4.622,0,0,0,.032,2.935A45.293,45.293,0,0,1,425.524,141.706Z" transform="translate(-337.636 -110.667)"/>
        <path id="Path_2847" data-name="Path 2847" d="M441.044,171.857a4.613,4.613,0,0,0-.563,2.848,46.023,46.023,0,0,1,1.535,6.1,5.06,5.06,0,0,1,.483-.589,8.689,8.689,0,0,0,1.96-3.482,48.777,48.777,0,0,0-2.415-7.1A9.533,9.533,0,0,1,441.044,171.857Z" transform="translate(-351.5 -140.675)"/>
        <path id="Path_2848" data-name="Path 2848" d="M320.078,438.082a4.2,4.2,0,0,0-2.79-.271,42.669,42.669,0,0,1-5.759,2.221,5.051,5.051,0,0,1,.684.471,8.138,8.138,0,0,0,3.267,1.57,46.109,46.109,0,0,0,6.749-3.221A8.967,8.967,0,0,1,320.078,438.082Z" transform="translate(-251.72 -348.142)"/>
      </g>
      <g id="Group_2179" data-name="Group 2179" transform="translate(75.408 67.17)">
        <path id="Path_2849" data-name="Path 2849" d="M209.564,192.854l-8.323-11.286a12.781,12.781,0,0,0,3.741-2.29c2.018-1.787,4.425-5.153,4.425-11.045a12.547,12.547,0,0,0-3.892-9.576C201.4,154.88,195.977,155,194.237,155H177.7a4.8,4.8,0,0,0-4.765,4.813c0,.1.015.253.015.356v4.324h23.3a3.941,3.941,0,0,1,3.819,3.917v.908a3.808,3.808,0,0,1-3.819,3.764h-3.676a4.771,4.771,0,0,0-3.838,7.6l13.148,17.83a4.767,4.767,0,1,0,7.675-5.657Z" transform="translate(-172.935 -154.998)" fill="red"/>
        <path id="Path_2850" data-name="Path 2850" d="M173,235v22.377h.057a5.655,5.655,0,0,0,5.678,5.055,5.719,5.719,0,0,0,5.678-5.03l.062-22.4Z" transform="translate(-172.985 -216.917)"/>
      </g>
    </g>
  </g>
</svg>
