<?xml version="1.0" encoding="UTF-8"?>
<svg width="170px" height="170px" viewBox="0 0 170 170" version="1.1" xmlns="http://www.w3.org/2000/svg" xmlns:xlink="http://www.w3.org/1999/xlink">
    <title>矩形</title>
    <defs>
        <linearGradient x1="-2.22044605e-14%" y1="50%" x2="100%" y2="50%" id="linearGradient-1">
            <stop stop-color="#929297" offset="0%"></stop>
            <stop stop-color="#88878D" offset="78.0357361%"></stop>
            <stop stop-color="#BAB9C6" offset="100%"></stop>
        </linearGradient>
        <linearGradient x1="-1.11022302e-14%" y1="50%" x2="100%" y2="50%" id="linearGradient-2">
            <stop stop-color="#919FB7" offset="0%"></stop>
            <stop stop-color="#F8FAFE" offset="100%"></stop>
        </linearGradient>
    </defs>
    <g id="矩形" stroke="none" stroke-width="1" fill="none" fill-rule="evenodd">
        <g id="ring" fill-rule="nonzero">
            <path d="M83.1086514,39.2187499 C54.3466532,39.1007689 28.9191258,53.5330766 13.5290854,75.4430339 C7.29694981,84.3125667 2.71015544,94.4308107 0.214506763,105.34856 C0.0723119843,103.344678 0,101.321429 0,99.2812499 C0,52.734001 37.6410919,15 84.0736023,15 C134.522244,15 170,49.9147939 170,92.984375 C170,126.518544 148.492498,155.109079 118.312133,166.125 C110.977229,168.633159 103.482823,170 95.669961,170 C59.3778387,170 28.0245341,140.506758 28.0245341,104.125 C28.0245341,97.8745938 28.8928951,91.8275051 32.4480028,86.0983574 C31.1139196,89.6321923 30.9236238,92.2547557 30.9236238,94.9218749 C30.9236238,125.150836 56.3350263,148.6875 86.4895104,148.6875 C116.643995,148.6875 141.089034,124.182086 141.089034,93.953125 C141.089034,68.3532095 123.557441,46.8581302 99.8734999,40.8752362 C95.0457512,39.907515 90.1100695,39.2416917 83.1086514,39.2187499 Z" id="Combined-Shape-Copy-34" fill="url(#linearGradient-1)" transform="translate(85.000000, 92.500000) rotate(180.000000) translate(-85.000000, -92.500000) "></path>
            <path d="M83.1086514,24.21875 C54.3466532,24.1007689 28.9191258,38.5330767 13.5290854,60.443034 C7.29694981,69.3125664 2.71015544,79.4308108 0.214506763,90.3485602 C0.0723119843,88.3446779 0,86.3214295 0,84.28125 C0,37.7340008 37.6410919,0 84.0736023,0 C134.522244,0 170,34.9147941 170,77.9843748 C170,111.518545 148.492498,140.109078 118.312133,151.125 C110.977229,153.633159 103.482823,155 95.669961,155 C59.3778387,155 28.0245341,125.506758 28.0245341,89.1249999 C28.0245341,82.8745939 28.8928951,76.8275052 32.4480028,71.0983571 C31.1139196,74.6321921 30.9236238,77.2547558 30.9236238,79.921875 C30.9236238,110.150835 56.3350263,133.6875 86.4895104,133.6875 C116.643995,133.6875 141.089034,109.182085 141.089034,78.9531251 C141.089034,53.3532093 123.557441,31.8581302 99.8734999,25.8752363 C95.0457512,24.907515 90.1100695,24.2416916 83.1086514,24.21875 Z" id="Combined-Shape-Copy-41" fill="url(#linearGradient-2)"></path>
        </g>
    </g>
</svg>