<svg id="sonm_logo" xmlns="http://www.w3.org/2000/svg" xmlns:xlink="http://www.w3.org/1999/xlink" viewBox="0 0 500 500"><defs><style>.cls-1{fill:url(#linear-gradient);}.cls-2{fill:url(#linear-gradient-2);}.cls-3{fill:url(#linear-gradient-3);}.cls-4{fill:url(#linear-gradient-4);}</style><linearGradient id="linear-gradient" x1="122.22" y1="410.45" x2="292.79" y2="239.89" gradientUnits="userSpaceOnUse"><stop offset="0" stop-color="#f9c300"/><stop offset="1" stop-color="#f2e900"/></linearGradient><linearGradient id="linear-gradient-2" x1="95.66" y1="383.89" x2="266.22" y2="213.32" xlink:href="#linear-gradient"/><linearGradient id="linear-gradient-3" x1="68.89" y1="357.11" x2="239.45" y2="186.55" xlink:href="#linear-gradient"/><linearGradient id="linear-gradient-4" x1="105.89" y1="394.11" x2="276.45" y2="223.55" xlink:href="#linear-gradient"/></defs><title>iExec-RLC-logo</title><path class="cls-1" d="M220.58,314.91a18,18,0,1,1,9.6-33.26,6.53,6.53,0,0,0,3.46,1,7.09,7.09,0,0,0,3.62-1,6.86,6.86,0,0,0,3.36-6.26,18,18,0,0,1,16-19.19,19,19,0,0,1,2-.11,17.85,17.85,0,0,1,9.58,2.78,6.51,6.51,0,0,0,3.48,1,7,7,0,0,0,3.61-1l.08,0a6.87,6.87,0,0,0,3.28-6.22,18,18,0,0,1,16.22-19.21c.58,0,1.17-.08,1.75-.08a18,18,0,1,1,0,36h0a17.82,17.82,0,0,1-9.6-2.77,6.53,6.53,0,0,0-3.46-1,7,7,0,0,0-3.62,1,6.85,6.85,0,0,0-3.35,6.27,19.23,19.23,0,0,1,0,2.84,18,18,0,0,1-16,16.34,19.34,19.34,0,0,1-2,.11,17.91,17.91,0,0,1-9.59-2.78,6.54,6.54,0,0,0-3.47-1,7.08,7.08,0,0,0-3.62,1l-.08,0a6.84,6.84,0,0,0-3.27,6.22,18.47,18.47,0,0,1,0,2.88,18,18,0,0,1-16.18,16.32A17.29,17.29,0,0,1,220.58,314.91Z"/><path class="cls-2" d="M220.58,269.3a18,18,0,0,1-2.07-35.9,18.48,18.48,0,0,1,2.1-.12,17.91,17.91,0,0,1,9.59,2.78,6.53,6.53,0,0,0,3.46,1,7.09,7.09,0,0,0,3.62-1,6.83,6.83,0,0,0,3.36-6.26,18,18,0,0,1,16.23-19.21,17,17,0,0,1,1.74-.08,18,18,0,0,1,2.1,35.91,18.48,18.48,0,0,1-2.1.12,18,18,0,0,1-9.59-2.77,6.36,6.36,0,0,0-3.47-1,7,7,0,0,0-3.62,1,6.85,6.85,0,0,0-3.35,6.26,18.46,18.46,0,0,1,0,2.88,18,18,0,0,1-16.18,16.33c-.59,0-1.18.09-1.77.09h0Z"/><path class="cls-3" d="M233.33,216.42l-.74-3.71h0a2.49,2.49,0,0,0,1.35-3.23v0l2.83-1.89a2.79,2.79,0,0,0,.42.35l-3.58,8.55a1.69,1.69,0,0,0-.33,0m.09-13.52,2.87,1.9a2.5,2.5,0,0,0,0,1.92v0l-2.84,1.88a2.5,2.5,0,0,0-3.3-.21l-1.5-1.35a2.41,2.41,0,0,0,0-2.58l1.48-1.34a2.5,2.5,0,0,0,1.51.51,2.46,2.46,0,0,0,1.78-.75m-7.28-6.18a3.17,3.17,0,0,0,.41-.21l3.07,3.2a2.5,2.5,0,0,0-.28,2.38v0a2.16,2.16,0,0,0,.17.34L228,203.79a2.46,2.46,0,0,0-2.9-.08l-2.57-2.56a2.45,2.45,0,0,0-.1-2.93l1.46-1.66a2.45,2.45,0,0,0,2.21.16m7.8,5.4a2.49,2.49,0,0,0-1.33-3.26l-.06,0,.73-3.85a2.5,2.5,0,0,0,.47-.05l3.48,8.73a2.38,2.38,0,0,0-.43.34v0Zm-25.26-6.86c.3-.12,1.22-.62,1.37-1.34l3.41.65a2.38,2.38,0,0,0,.4,1.42l-3.06,3.07a2.48,2.48,0,0,0-1.44-.43Zm18.52.59a2.48,2.48,0,0,0,.47-1.56l3.35-.79a2.38,2.38,0,0,0,.51.75,2.54,2.54,0,0,0,.85.55l-.73,3.85a2.42,2.42,0,0,0-1,.19,3.17,3.17,0,0,0-.41.21Zm-5.81-6,2,2.8a2.49,2.49,0,0,0-.16,3.24l-1.45,1.65a2.44,2.44,0,0,0-2.55,0l-1.31-1.45a2.49,2.49,0,0,0-.27-3.32l1.91-2.87a1.58,1.58,0,0,0,.78.16,2.43,2.43,0,0,0,1-.21M210.22,193a2.32,2.32,0,0,0,0-.46l8.11-3.51a3.1,3.1,0,0,0,.46.5l-1.88,2.83a2.48,2.48,0,0,0-3.24,1.35Zm11.92-3.65a3.28,3.28,0,0,0,.32-.44h0l8.38,3.15a2.45,2.45,0,0,0,0,.54l-3.36.79a2.48,2.48,0,0,0-3.23-1.29l-.09,0Zm-1.85-4.26a2.48,2.48,0,0,0-2.37,3.06l-8.08,3.5a1.75,1.75,0,0,0-.35-.46,2.49,2.49,0,0,0-3.52,3.52l.25.16a17.9,17.9,0,0,0-3.54,9c-.06.61-.09,1.23-.09,1.85a18,18,0,0,0,18,18,16.21,16.21,0,0,0,1.84-.1,17.48,17.48,0,0,0,9.22-3.75s.06.11.1.15a2.13,2.13,0,0,0,3-3,1.68,1.68,0,0,0-.29-.24l3.57-8.6a2.48,2.48,0,1,0,1.08-4.85,2,2,0,0,0-.6-.06,2.38,2.38,0,0,0-.46,0l-3.5-8.73a2.49,2.49,0,1,0-2.62-4.24,2.41,2.41,0,0,0-.83.85L222.79,188a2.5,2.5,0,0,0-2-2.9l-.41,0Z"/><path class="cls-4" d="M250,395a144.55,144.55,0,1,1,56.45-11.4A144.23,144.23,0,0,1,250,395Zm0-247a102.05,102.05,0,1,0,72.14,29.89A101.36,101.36,0,0,0,250,148Z"/></svg>