<svg id="RNDR" xmlns="http://www.w3.org/2000/svg" viewBox="0 0 75.92 100.87"><title>rndr</title><path d="M319.5,344.5a39.38,39.38,0,0,0-14-3.17,38.93,38.93,0,0,0-12.87,2.42C279,349,267.12,371,267.25,393c0,2.17.46,25,15.81,39.94a32.47,32.47,0,0,0,11.23,7.46c12,4.44,23.3-.62,25-1.4,18.06-8.08,23.85-32.26,23.84-47.5C343.14,370.51,332.07,350.14,319.5,344.5Z" transform="translate(-267.25 -341.33)" style="fill:#163448"/><path d="M335,366.3a45.45,45.45,0,0,0-4.07-6.85c-.15-.21-1.85-2.69-2.19-2.5-.09.05,1.5,2.63,1.59,2.78a58.4,58.4,0,0,1,3.63,7.41A57.81,57.81,0,0,1,338,388.93c0,1,0,2.05,0,3.08,0,.21-.12,1.2.11,1.35s.67-1.54.7-1.69a31.31,31.31,0,0,0,.63-5.19A41.81,41.81,0,0,0,335,366.3Z" transform="translate(-267.25 -341.33)" style="fill:#698597"/><path d="M327,356.75c-6.15-9-14.65-14.58-24-14.58s-17.89,5.57-24,14.58S269,378.21,269,392s3.81,26.2,10,35.21,14.65,14.58,24,14.58,17.89-5.57,24-14.58,10-21.46,10-35.21S333.19,365.76,327,356.75Z" transform="translate(-267.25 -341.33)" style="fill:#d3e5ef"/><path d="M309.9,373.43a16.44,16.44,0,0,0-11-1.26,14.49,14.49,0,0,0-2.95,1.08c-.18,12.79,1,25.05.81,37.85,1.28.42,7.8,2.43,13.64-1.1a17.23,17.23,0,0,0,6.37-7.62,23.18,23.18,0,0,0,2.38-10.13C319.13,391,319,378,309.9,373.43Z" transform="translate(-267.25 -341.33)" style="fill:#163448"/><path d="M316.45,385.24a10.26,10.26,0,0,0-.93-2.75c-.37-.72-1.23-2.49-2.08-2.78-.62-.21-.34.34-.19.79.4,1.21.85,2.41,1.17,3.65a35.83,35.83,0,0,1,.82,4.1c.07.5,0,1.75.35,2.18s.67-.75.75-1.09A10.3,10.3,0,0,0,316.45,385.24Z" transform="translate(-267.25 -341.33)" style="fill:#698597"/><path d="M314.57,388.28a23.76,23.76,0,0,0-3-8.92c-2.62-4.39-6.57-7.19-11-7.19-7.87,0-14.25,8.88-14.25,19.83s6.38,19.83,14.25,19.83S314.83,403,314.83,392A26.71,26.71,0,0,0,314.57,388.28Z" transform="translate(-267.25 -341.33)" style="fill:#cd2536"/><path d="M290,398.63c-2.12-7.68.63-14-1.25-14.63a1.41,1.41,0,0,0-1.24.28,26.67,26.67,0,0,0-1.18,7.89,23.91,23.91,0,0,0,4.51,14.44,1.25,1.25,0,0,0,1-.15C292.92,405.6,291,402.25,290,398.63Z" transform="translate(-267.25 -341.33)" style="fill:#f53e3f"/></svg>