<svg width="144" height="144" viewBox="0 0 144 144" fill="none" xmlns="http://www.w3.org/2000/svg">
<circle cx="72" cy="72" r="72" fill="white"/>
<mask id="mask0" mask-type="alpha" maskUnits="userSpaceOnUse" x="0" y="0" width="144" height="144">
<path d="M144 72C144 111.765 111.765 144 72 144C32.2355 144 0 111.765 0 72C0 32.2355 32.2355 0 72 0C111.765 0 144 32.2355 144 72ZM28.8 72C28.8 95.8587 48.1413 115.2 72 115.2C95.8587 115.2 115.2 95.8587 115.2 72C115.2 48.1413 95.8587 28.8 72 28.8C48.1413 28.8 28.8 48.1413 28.8 72Z" fill="#C4C4C4"/>
</mask>
<g mask="url(#mask0)">
<circle cx="72" cy="72" r="72" fill="#FFF500"/>
<path fill-rule="evenodd" clip-rule="evenodd" d="M115.2 71.5084C104.937 53.7268 85.7252 41.7596 63.7187 41.7596C30.913 41.7596 4.31873 68.3539 4.31873 101.16C4.31873 101.204 4.31877 101.248 4.31887 101.291C-0.717751 92.5655 -3.59961 82.4394 -3.59961 71.6402C-3.59961 38.8345 22.9947 12.2402 55.8004 12.2402C88.5621 12.2402 115.129 38.7633 115.2 71.5084Z" fill="url(#paint0_linear)"/>
<path fill-rule="evenodd" clip-rule="evenodd" d="M109.471 50.6029C91.6932 40.3405 69.0767 39.5846 50.0219 50.5859C21.6113 66.9887 11.8772 103.317 28.28 131.728C28.3029 131.767 28.3258 131.807 28.3488 131.847C19.6199 126.808 12.0576 119.477 6.65605 110.122C-9.7468 81.711 -0.0126201 45.3825 28.398 28.9797C56.7689 12.5997 93.0357 22.2839 109.471 50.6029Z" fill="url(#paint1_linear)"/>
<path fill-rule="evenodd" clip-rule="evenodd" d="M92.7249 33.9519C72.1955 33.9513 52.2281 44.6051 41.2258 63.6619C24.8229 92.0724 34.5571 128.401 62.9677 144.804C63.0066 144.826 63.0456 144.849 63.0847 144.871C53.0079 144.871 42.7958 142.304 33.4419 136.903C5.03133 120.5 -4.70286 84.1718 11.7 55.7612C28.0803 27.3896 64.3317 17.6432 92.7249 33.9519Z" fill="url(#paint2_linear)"/>
<path fill-rule="evenodd" clip-rule="evenodd" d="M70.0657 28.8007C52.2866 39.065 40.3215 58.275 40.3215 80.2796C40.3215 113.085 66.9158 139.68 99.7215 139.68C99.7652 139.68 99.8089 139.68 99.8526 139.679C91.1257 144.718 80.9979 147.601 70.1969 147.601C37.3912 147.601 10.7969 121.006 10.7969 88.2006C10.7969 55.4386 37.3203 28.8715 70.0657 28.8007Z" fill="url(#paint3_linear)"/>
<path fill-rule="evenodd" clip-rule="evenodd" d="M49.1909 35.1487C38.9251 52.9276 38.1677 75.5472 49.1703 94.6043C65.5732 123.015 101.902 132.749 130.312 116.346C130.351 116.324 130.39 116.301 130.429 116.279C125.39 125.005 118.061 132.565 108.708 137.965C80.297 154.368 43.9685 144.634 27.5656 116.223C11.1852 87.8515 20.8704 51.5836 49.1909 35.1487Z" fill="url(#paint4_linear)"/>
<path fill-rule="evenodd" clip-rule="evenodd" d="M34.6787 50.9882C34.6744 71.5213 45.3286 91.4937 64.3886 102.498C92.7992 118.901 129.128 109.167 145.531 80.756C145.551 80.7205 145.571 80.6851 145.592 80.6496C145.59 90.7229 143.022 100.931 137.624 110.282C121.221 138.692 84.8925 148.426 56.4819 132.024C28.1068 115.641 18.3615 79.383 34.6787 50.9882Z" fill="url(#paint5_linear)"/>
<path fill-rule="evenodd" clip-rule="evenodd" d="M28.7998 71.5442C39.0632 89.3263 58.2749 101.294 80.2818 101.294C113.088 101.294 139.682 74.6997 139.682 41.894C139.682 41.8507 139.682 41.8074 139.682 41.7642C144.718 50.4899 147.6 60.6156 147.6 71.4145C147.6 104.22 121.005 130.814 88.1996 130.814C55.4372 130.814 28.8698 104.29 28.7998 71.5442Z" fill="url(#paint6_linear)"/>
<mask id="mask1" mask-type="alpha" maskUnits="userSpaceOnUse" x="4" y="0" width="140" height="144">
<path d="M71.9983 144C111.763 144 143.998 111.765 143.998 72C143.998 32.2355 111.763 0 71.9983 0C48.0305 0 26.798 11.7111 13.7109 29.7232C24.4669 18.9238 39.352 12.24 55.7983 12.24C88.5593 12.24 115.126 38.7618 115.198 71.5059C104.934 53.7259 85.7236 41.76 63.7183 41.76C32.3075 41.76 6.59109 66.1408 4.46094 97.0105C14.6247 124.446 41.0279 144 71.9983 144Z" fill="black"/>
</mask>
<g mask="url(#mask1)">
<path fill-rule="evenodd" clip-rule="evenodd" d="M34.3253 93.11C52.1059 103.382 74.7312 104.142 93.7924 93.1373C122.203 76.7344 131.937 40.4059 115.534 11.9954C115.514 11.9593 115.493 11.9234 115.472 11.8874C124.193 16.9258 131.749 24.2527 137.147 33.602C153.55 62.0126 143.815 98.3411 115.405 114.744C87.0302 131.126 50.7578 121.437 34.3253 93.11Z" fill="url(#paint7_linear)"/>
<path fill-rule="evenodd" clip-rule="evenodd" d="M50.2779 109.138C70.8082 109.139 90.7766 98.4854 101.779 79.4279C118.182 51.0173 108.448 14.6889 80.0375 -1.71397C79.9986 -1.73646 79.9596 -1.7589 79.9206 -1.78129C89.9966 -1.78058 100.208 0.786686 109.561 6.18672C137.972 22.5896 147.706 58.918 131.303 87.3286C114.923 115.7 78.6712 125.447 50.2779 109.138Z" fill="url(#paint8_linear)"/>
<path fill-rule="evenodd" clip-rule="evenodd" d="M72.2643 115.2C90.0443 104.936 102.01 85.7257 102.01 63.7204C102.01 30.9147 75.416 4.32037 42.6103 4.32037C42.5675 4.32037 42.5248 4.32042 42.4821 4.32051C51.2086 -0.717126 61.3358 -3.59961 72.1361 -3.59961C104.942 -3.59961 131.536 22.9947 131.536 55.8004C131.536 88.5634 105.011 115.131 72.2643 115.2Z" fill="url(#paint9_linear)"/>
<path fill-rule="evenodd" clip-rule="evenodd" d="M94.5594 108.756C104.825 90.9776 105.582 68.3581 94.5798 49.3012C78.1769 20.8906 41.8484 11.1565 13.4379 27.5593C13.3989 27.5818 13.3599 27.6044 13.321 27.627C18.3596 18.9007 25.6888 11.3406 35.0425 5.94023C63.453 -10.4626 99.7815 -0.72844 116.184 27.6821C132.565 56.0537 122.88 92.3215 94.5594 108.756Z" fill="url(#paint10_linear)"/>
<path fill-rule="evenodd" clip-rule="evenodd" d="M109.856 92.7288C109.858 72.198 99.2044 52.2289 80.1464 41.2258C51.7359 24.8229 15.4074 34.5571 -0.995467 62.9677C-1.01722 63.0053 -1.03892 63.043 -1.06058 63.0807C-1.05961 53.0053 1.50767 42.7946 6.90742 33.4419C23.3103 5.03133 59.6387 -4.70286 88.0493 11.7C116.422 28.0811 126.168 64.335 109.856 92.7288Z" fill="url(#paint11_linear)"/>
</g>
</g>
<path d="M68.8394 58.367V46.7998H56.1611V97.1998H68.8394V72.4129L95.0411 56.7146L89.1246 46.7998L68.8394 58.367Z" fill="black"/>
<defs>
<linearGradient id="paint0_linear" x1="-3.59961" y1="12.2402" x2="115.2" y2="12.2402" gradientUnits="userSpaceOnUse">
<stop stop-color="#B6E82F"/>
<stop offset="1" stop-color="#97CF00"/>
</linearGradient>
<linearGradient id="paint1_linear" x1="65.5161" y1="10.4399" x2="-1.80477" y2="67.6792" gradientUnits="userSpaceOnUse">
<stop stop-color="#B6E82F"/>
<stop offset="1" stop-color="#97CF00"/>
</linearGradient>
<linearGradient id="paint2_linear" x1="12.2401" y1="71.2795" x2="100.44" y2="21.2388" gradientUnits="userSpaceOnUse">
<stop stop-color="#B6E82F"/>
<stop offset="1" stop-color="#FFF500"/>
</linearGradient>
<linearGradient id="paint3_linear" x1="43.5575" y1="37.0808" x2="35.2776" y2="137.881" gradientUnits="userSpaceOnUse">
<stop stop-color="#B6E82F"/>
<stop offset="1" stop-color="#97CF00"/>
</linearGradient>
<linearGradient id="paint4_linear" x1="60.1202" y1="143.28" x2="46.0801" y2="41.3998" gradientUnits="userSpaceOnUse">
<stop stop-color="#50E0ED"/>
<stop offset="1" stop-color="#00C7D9"/>
</linearGradient>
<linearGradient id="paint5_linear" x1="47.1595" y1="111.962" x2="106.92" y2="134.641" gradientUnits="userSpaceOnUse">
<stop stop-color="#50E0ED"/>
<stop offset="1" stop-color="#00C5D7"/>
</linearGradient>
<linearGradient id="paint6_linear" x1="127.909" y1="116.15" x2="32.6591" y2="77.3682" gradientUnits="userSpaceOnUse">
<stop stop-color="#50E0ED"/>
<stop offset="1" stop-color="#78F4FF"/>
</linearGradient>
<linearGradient id="paint7_linear" x1="93.3696" y1="112.787" x2="142.89" y2="72.3722" gradientUnits="userSpaceOnUse">
<stop stop-color="#50E0ED"/>
<stop offset="1" stop-color="#00C5D7"/>
</linearGradient>
<linearGradient id="paint8_linear" x1="79.2002" y1="111.24" x2="118.44" y2="20.5198" gradientUnits="userSpaceOnUse">
<stop stop-color="#F7DF00"/>
<stop offset="1" stop-color="#FFF500"/>
</linearGradient>
<linearGradient id="paint9_linear" x1="89.642" y1="3.24039" x2="124.922" y2="63.3604" gradientUnits="userSpaceOnUse">
<stop stop-color="#F7DF00"/>
<stop offset="1" stop-color="#FFF500"/>
</linearGradient>
<linearGradient id="paint10_linear" x1="110.84" y1="84.7603" x2="51.8945" y2="5.41738" gradientUnits="userSpaceOnUse">
<stop stop-color="#FFFB8F"/>
<stop offset="1" stop-color="#FFF500"/>
</linearGradient>
<linearGradient id="paint11_linear" x1="28.9738" y1="16.8217" x2="102.241" y2="48.5991" gradientUnits="userSpaceOnUse">
<stop stop-color="#F1D900"/>
<stop offset="1" stop-color="#FFF500"/>
</linearGradient>
</defs>
</svg>
