<svg xmlns="http://www.w3.org/2000/svg" xmlns:xlink="http://www.w3.org/1999/xlink" viewBox="0 0 947.53 947.53"><defs><style>.cls-1{fill:#3e3e5e;}.cls-2{fill:#282841;stroke:#323250;stroke-miterlimit:10;stroke-width:2px;}.cls-3{fill:url(#linear-gradient);}.cls-4{fill:url(#linear-gradient-2);}</style><linearGradient id="linear-gradient" x1="313.54" y1="307.16" x2="633.99" y2="307.16" gradientUnits="userSpaceOnUse"><stop offset="0" stop-color="#ff8b65"/><stop offset="1" stop-color="#ff3d56"/></linearGradient><linearGradient id="linear-gradient-2" x1="318.38" y1="622.02" x2="601.46" y2="622.02" xlink:href="#linear-gradient"/></defs><g id="Layer_2" data-name="Layer 2"><g id="Layer_1-2" data-name="Layer 1"><circle class="cls-1" cx="473.76" cy="473.76" r="473.76"/><circle class="cls-2" cx="473.76" cy="473.76" r="423.95"/><path class="cls-3" d="M634,343.06a103.94,103.94,0,0,1-32.06,75.43h0l-87.87,84.66c36.33-44.64,34.73-110.53-6-153.23a112.34,112.34,0,0,0-9.56-8.89L318.63,167.73a16.61,16.61,0,0,1-.44-23.5,108,108,0,0,1,152.74-2.83l131,126.23A103.89,103.89,0,0,1,634,343.06Z"/><path class="cls-4" d="M443.81,556.89C403,514.08,401.44,448,438,403.33l-87.1,83.92h0a106.35,106.35,0,0,0-1.4,151.79l196.79,196.8a16.62,16.62,0,0,0,23.5,0,108,108,0,0,0,0-152.75l-119-119,.29-.28C448.62,561.61,446.15,559.34,443.81,556.89Z"/></g></g></svg>