<svg xmlns="http://www.w3.org/2000/svg" viewBox="0 0 3000 3000"><defs><style>.cls-1{fill:#fff;}</style></defs><g id="Layer_2" data-name="Layer 2"><g id="Layer_1-2" data-name="Layer 1"><circle cx="1500" cy="1500" r="1500"/><path class="cls-1" d="M1895.85,1679.9c0,33.06,1.14,34.22,33.36,34.24,76.65.06,153.31.77,229.94-.42,23.45-.37,32.72,6.23,32.14,30.87-1.4,59.12-1.23,118.31-.07,177.43.45,22.79-7.51,31.06-30.3,30.81-78.3-.86-156.63.28-234.93-.71-21.72-.28-29.19,6.7-28.86,28.67,1.44,94.94,1.57,189.89,2,284.84.14,32.49-1.85,34.33-33.49,34.36q-88.74.08-177.46,0c-33.74,0-34-.17-34-32.93.18-95-.15-189.95,1.28-284.9.35-23.28-7.14-30.37-30-30.07-82.47,1.07-165,1.27-247.43-.09-25.4-.42-31.15,10-30.84,32.65,1.29,94.93.65,189.9,2.48,284.82.48,24.94-8.22,31.53-31.84,31-59.12-1.36-118.3-.44-177.45-.46-35.31,0-35.44,0-35.37-34.32.21-95,0-189.94,1.23-284.9.3-22.24-7.58-28.85-29-28.61-78.3.89-156.62.43-234.94.3-31.76,0-32.4-.77-32.3-32.22.18-59.14,1.12-118.29.51-177.42-.23-21.61,7.74-29.27,29.44-29,78.3.91,156.63-.24,234.93.73,22.33.28,30.85-6.17,30.55-29.79q-2-158.68-.87-317.39c.15-23.11-7.62-30.55-30.42-30.24-76.63,1-153.29.47-229.93.34-30.5,0-33.31-2.81-33.37-32.16-.11-59.16.58-118.32-.35-177.45-.34-21.74,7.72-29.27,29.35-29,78.3.88,156.63-.4,234.93.78,24.37.37,31.8-8.21,31.42-32.07-1.53-97.44-1.33-194.91-2.12-292.37-.14-16.51,5.83-24.57,23.3-24.46q97.47.6,194.94,0c17.61-.12,23,7.76,22.92,24.4-.22,83.3.26,166.6.63,249.9.06,12.48.53,25,1.31,37.42,2.3,36.75,2.4,36.76,38.2,36.77q118.71,0,237.44,0c30.52,0,32.19-1.71,32.13-33-.19-95,.24-189.94-1.32-284.88-.41-24.77,8.15-31.42,31.67-30.91q91.18,2,182.43,0c23.32-.48,30.2,8.23,30.13,30.65-.34,94.94.74,189.89,1.28,284.84.18,32.32,1,33.22,34.24,33.24,75,0,150,.68,224.93-.39,23-.33,32.87,5.38,32.22,30.7-1.47,57.43.07,114.93.26,172.41.11,34.21-1.17,35.57-34.61,35.61-77.47.09-155,.7-232.43-.38-23.09-.32-30.64,7.47-30,30.45C1895.11,1420.82,1895.79,1629.09,1895.85,1679.9Zm-543.65,3.93c-.4,22.35,7.18,31,30.4,30.74q122.34-1.58,244.73,0c22.73.29,30.86-6.87,30.55-30q-2.16-159.78-1.72-319.58c0-20.55-7.17-27.91-27.71-27.73-83.24.74-166.5.91-249.73-.1-22.62-.27-28.61,8.72-28.21,29.66C1351.51,1419.17,1353.17,1630.57,1352.2,1683.83Z"/></g></g></svg>