<svg xmlns="http://www.w3.org/2000/svg" viewBox="0 0 3000 3000"><defs><style>.cls-1{fill:#fff;}</style></defs><g id="Layer_2" data-name="Layer 2"><g id="Layer_1-2" data-name="Layer 1"><circle cx="1500" cy="1500" r="1500"/><path class="cls-1" d="M2047.88,2104.09c-84.27,0-160.23,1.65-236-1.75-11.53-.52-25.7-22.76-32.37-37.74-54-121.12-107.5-242.47-158.62-364.8-13-31.2-30.24-42.78-63.59-41-47.87,2.6-96,.66-149,.66-1.27,23.67-3.15,42.94-3.21,62.22-.29,112.87-1.27,225.76.49,338.61.54,35-11.24,46.35-46,45-61.18-2.38-122.53-.66-190.06-.66V1654.48c-65.72,0-125.24-1.9-184.57.67-40.19,1.73-58.74-10.06-55.65-53.06,3-41.28,1.58-83,.36-124.43-.87-30,11.78-41.63,41.62-41.09,63.13,1.15,126.3.35,193.2.35V1325.58c-59.49,0-118.89-2-178.06.69-42.52,2-61.9-11.18-58.76-56.09,2.89-41.3,1.57-83,.34-124.44-.83-28,11-38.46,38.55-38,63.13,1,126.29.31,198.4.31,0-53.32,1.62-103.87-.56-154.27-1.49-34.51,10.52-46,45.71-45.77,186.51,1.43,373-.56,559.56,1.09,133.2,1.18,240,108.78,244.59,246.5,3,91.19,2.43,182.61,0,273.84-2.47,93.31-41.8,166.79-130.06,206.91-30.75,14-26.06,30.84-15.07,55.15,52.58,116.29,104,233.07,155.52,349.86C2032.43,2058.85,2038.06,2077.28,2047.88,2104.09Zm-638.06-969.23V1440c101,0,197.3,1,293.54-.45,45-.68,71.52-27.92,73.89-71.62a1502.8,1502.8,0,0,0-.13-163.86c-2.12-38.42-23.79-67.72-65.24-68.55C1612.43,1133.53,1512.92,1134.86,1409.82,1134.86Z"/></g></g></svg>