<svg width="512" height="512" viewBox="0 0 512 512" fill="none" xmlns="http://www.w3.org/2000/svg">
<rect width="512" height="512" fill="white"/>
<path d="M156.668 415.589L138.838 388.722H127.68V415.589H111V331.085H136.652C147.158 331.085 155.287 333.649 161.039 338.778C166.867 343.83 169.781 350.757 169.781 359.559C169.781 364.764 168.669 369.663 166.445 374.256C164.298 378.772 160.962 382.331 156.438 384.933L176.108 415.589H156.668ZM127.68 372.648H139.528C144.052 372.648 147.35 371.347 149.421 368.744C151.491 366.065 152.527 363.195 152.527 360.133C152.527 357.072 151.645 354.163 149.881 351.407C148.117 348.575 144.704 347.159 139.643 347.159H127.68V372.648Z" fill="#4AA956"/>
<path d="M237.828 365.415V415.589H223.219L222.069 407.552C220.305 410.767 217.812 413.331 214.592 415.244C211.447 417.081 207.728 418 203.433 418C198.832 418 194.998 416.584 191.93 413.752C188.863 410.92 187.291 407.322 187.214 402.959V365.415H203.318V396.989C203.549 401.888 205.811 404.337 210.105 404.337C213.633 404.337 216.432 402.615 218.503 399.17C220.65 395.726 221.724 391.286 221.724 385.852V365.415H237.828Z" fill="#4AA956"/>
<path d="M289.591 362.889C293.962 362.889 297.95 363.96 301.554 366.104C305.235 368.17 308.149 371.194 310.296 375.174C312.444 379.154 313.517 383.9 313.517 389.411C313.517 394.922 312.328 399.783 309.951 403.993C307.574 408.126 304.391 411.341 300.404 413.637C296.416 415.857 292.083 416.967 287.405 416.967C280.58 416.967 274.943 414.823 270.495 410.537V415.589H254.391V325H270.38V368.859C272.527 367.099 275.25 365.683 278.547 364.611C281.845 363.463 285.526 362.889 289.591 362.889ZM283.839 403.419C286.216 403.419 288.402 402.806 290.396 401.581C292.466 400.357 294.115 398.673 295.342 396.53C296.569 394.31 297.183 391.899 297.183 389.296C297.183 385.316 295.879 382.025 293.272 379.422C290.664 376.82 287.52 375.519 283.839 375.519C280.695 375.519 277.934 376.246 275.557 377.7C273.179 379.154 271.492 381.106 270.495 383.556V395.841C273.256 400.893 277.704 403.419 283.839 403.419Z" fill="#4AA956"/>
<path d="M342.278 365.415V415.589H326.173V365.415H342.278ZM325.828 347.619C325.828 345.322 326.71 343.409 328.474 341.878C330.315 340.27 332.385 339.467 334.686 339.467C336.91 339.467 338.904 340.27 340.667 341.878C342.431 343.409 343.313 345.322 343.313 347.619C343.313 349.915 342.431 351.828 340.667 353.359C338.904 354.89 336.91 355.656 334.686 355.656C332.385 355.656 330.315 354.89 328.474 353.359C326.71 351.828 325.828 349.915 325.828 347.619Z" fill="#4AA956"/>
<path d="M401.54 411.111C399.316 412.872 396.517 414.288 393.143 415.359C389.845 416.431 386.586 416.967 383.365 416.967C374.622 416.967 367.682 414.632 362.544 409.963C357.483 405.217 354.952 398.711 354.952 390.444C354.952 385.086 356.179 380.417 358.633 376.437C361.164 372.38 364.461 369.319 368.526 367.252C372.59 365.109 376.961 364.037 381.639 364.037C389.998 364.037 396.785 366.257 402 370.696L394.178 381.03C390.88 378.427 387.199 377.126 383.135 377.126C379.761 377.126 376.885 378.389 374.507 380.915C372.207 383.441 371.056 386.617 371.056 390.444C371.056 394.272 372.322 397.486 374.853 400.089C377.383 402.615 380.681 403.878 384.745 403.878C388.273 403.878 391.187 402.921 393.488 401.007L401.54 411.111Z" fill="#4AA956"/>
<path d="M362 123.157L255.282 61L151.221 122.039L151 245.01L255.946 307.167L362 246.352V123.157ZM255.504 79.7811L334.324 125.84L255.946 171.898L177.126 125.84L255.504 79.7811ZM246.426 281.678L167.163 235.843V144.173L246.205 190.232V281.678H246.426ZM266.795 191.573L345.837 145.515V236.961L266.795 283.243V191.573Z" fill="#4AA956"/>
</svg>
