<?xml version="1.0" encoding="utf-8"?>
<!-- Generator: Adobe Illustrator 22.0.1, SVG Export Plug-In . SVG Version: 6.00 Build 0)  -->
<svg version="1.1" id="Layer_1" xmlns="http://www.w3.org/2000/svg" xmlns:xlink="http://www.w3.org/1999/xlink" x="0px" y="0px"
	 viewBox="0 0 404 404" style="enable-background:new 0 0 404 404;" xml:space="preserve">
<style type="text/css">
	.st0{fill:#FFFFFF;stroke:#231F20;stroke-width:4.6684;stroke-miterlimit:10;}
	.st1{stroke:#231F20;stroke-width:4.6684;stroke-miterlimit:10;}
</style>
<circle class="st0" cx="202.2" cy="202.8" r="194.8"/>
<path class="st1" d="M163.8,259.8c4.5,2.7,9.8,5,16,6.9c6.2,1.9,12.5,2.9,19,2.9c7.4,0,13.7-1.9,18.8-5.6c5.2-3.7,7.7-9.7,7.7-18.1
	c0-7-1.6-12.7-4.7-17.2c-3.1-4.5-7.1-8.6-11.9-12.2c-4.8-3.6-10-6.9-15.6-9.9c-5.6-3-10.8-6.6-15.6-10.9c-4.8-4.2-8.8-9.3-11.9-15.1
	c-3.1-5.8-4.7-13.2-4.7-22.1c0-14.3,3.9-25.1,11.6-32.3c7.7-7.3,18.7-10.9,32.8-10.9c9.2,0,17.1,0.8,23.9,2.5
	c6.7,1.7,12.5,4,17.5,6.9l-6.4,20.2c-4.3-2.2-9.2-4.1-14.8-5.5c-5.6-1.5-11.3-2.2-17.1-2.2c-8.1,0-13.9,1.7-17.6,5
	c-3.7,3.4-5.5,8.6-5.5,15.8c0,5.6,1.6,10.4,4.7,14.3c3.1,3.9,7.1,7.5,11.9,10.8c4.8,3.3,10,6.6,15.6,9.9c5.6,3.4,10.8,7.3,15.6,11.9
	c4.8,4.6,8.8,10.1,11.9,16.5c3.1,6.4,4.7,14.4,4.7,24c0,6.3-1,12.2-3,17.8c-2,5.6-5.1,10.5-9.2,14.6c-4.1,4.1-9.3,7.5-15.5,9.9
	c-6.2,2.5-13.4,3.7-21.7,3.7c-9.9,0-18.4-1-25.5-2.9c-7.2-1.9-13.2-4.4-18.2-7.6L163.8,259.8z"/>
<circle cx="92.9" cy="200.3" r="20.7"/>
<circle cx="315.4" cy="200.3" r="20.7"/>
</svg>