<svg width="33" height="33" viewBox="0 0 33 33" fill="none" xmlns="http://www.w3.org/2000/svg">
<path d="M9.51288 12.6936H9.4452C10.8302 9.97122 13.6583 8.10575 16.9222 8.10575C19.0276 8.10575 20.9513 8.88159 22.4235 10.1631H22.475H25.8166C23.8382 7.38641 20.5916 5.5752 16.9222 5.5752C11.3224 5.5752 6.70824 9.79223 6.0812 15.2242L13.1269 15.2236V17.7536H6.08008L6.08288 17.7732C6.18524 18.6458 6.39052 19.4865 6.68587 20.2842H13.1258V26.7241C13.9285 27.0217 14.777 27.2281 15.6558 27.3299V20.2847H18.1858V27.3305C19.0651 27.2287 19.9131 27.0228 20.7158 26.7247V20.2842H27.1557C27.5943 19.1023 27.8337 17.8236 27.8337 16.4889C27.8337 15.1543 27.5943 13.8756 27.1557 12.6936H25.6572H9.51288ZM18.1864 17.7542H15.6564V15.2242H18.1864V17.7542ZM25.2097 17.7542H20.7169V15.2242H25.2097C25.2724 15.637 25.3048 16.0593 25.3048 16.4895C25.3048 16.9191 25.2724 17.3414 25.2097 17.7542Z" fill="#14142A"/>
<path d="M16.9131 0.48877C8.07628 0.48877 0.913086 7.65252 0.913086 16.4888C0.913086 25.325 8.07628 32.4888 16.9131 32.4888C25.7499 32.4888 32.9131 25.325 32.9131 16.4888C32.9131 7.65252 25.7499 0.48877 16.9131 0.48877ZM16.9131 29.9543C9.47636 29.9543 3.44756 23.9255 3.44756 16.4888C3.44756 9.05205 9.47636 3.02324 16.9131 3.02324C24.3498 3.02324 30.3786 9.05205 30.3786 16.4888C30.3786 23.9255 24.3498 29.9543 16.9131 29.9543Z" fill="#14142A"/>
</svg>
