<?xml version="1.0" encoding="utf-8"?>
<!-- Generator: Adobe Illustrator 24.2.3, SVG Export Plug-In . SVG Version: 6.00 Build 0)  -->
<svg version="1.1" id="Layer_1" xmlns="http://www.w3.org/2000/svg" xmlns:xlink="http://www.w3.org/1999/xlink" x="0px" y="0px"
	 viewBox="0 0 80 80" style="enable-background:new 0 0 80 80;" xml:space="preserve">
<style type="text/css">
	.st0{display:none;opacity:0.2;fill:#FF1749;enable-background:new    ;}
	.st1{display:none;fill:#0E3CA5;}
	.st2{fill:#0E3CA5;}
	.st3{fill:#5493F7;}
	.st4{display:none;opacity:0.3;fill:#FF1A82;enable-background:new    ;}
	.st5{opacity:0.3;}
	.st6{fill:url(#SVGID_1_);fill-opacity:0;}
	.st7{opacity:0.0625;fill:url(#SVGID_2_);enable-background:new    ;}
	.st8{opacity:0.125;fill:url(#SVGID_3_);enable-background:new    ;}
	.st9{opacity:0.1875;fill:url(#SVGID_4_);enable-background:new    ;}
	.st10{opacity:0.25;fill:url(#SVGID_5_);enable-background:new    ;}
	.st11{opacity:0.3125;fill:url(#SVGID_6_);enable-background:new    ;}
	.st12{opacity:0.375;fill:url(#SVGID_7_);enable-background:new    ;}
	.st13{opacity:0.4375;fill:url(#SVGID_8_);enable-background:new    ;}
	.st14{opacity:0.5;fill:url(#SVGID_9_);enable-background:new    ;}
	.st15{opacity:0.5625;fill:url(#SVGID_10_);enable-background:new    ;}
	.st16{opacity:0.625;fill:url(#SVGID_11_);enable-background:new    ;}
	.st17{opacity:0.6875;fill:url(#SVGID_12_);enable-background:new    ;}
	.st18{opacity:0.75;fill:url(#SVGID_13_);enable-background:new    ;}
	.st19{opacity:0.8125;fill:url(#SVGID_14_);enable-background:new    ;}
	.st20{opacity:0.875;fill:url(#SVGID_15_);enable-background:new    ;}
	.st21{opacity:0.9375;fill:url(#SVGID_16_);enable-background:new    ;}
	.st22{fill:url(#SVGID_17_);}
	.st23{fill:url(#SVGID_18_);}
	.st24{fill:url(#SVGID_19_);}
	.st25{fill:url(#SVGID_20_);}
	.st26{fill:#FFFFFF;}
</style>
<g>
	<rect class="st0" width="80" height="80"/>
	<g>
		<g id="Symbol_5_">
			<g>
				<g>
					<path class="st1" d="M21.6,16.13C12.38,28.32,47.85,36.8,60.41,34.75c2.2-0.36,8.91-1.45,4.32-10.23
						c-0.65-1.1-1.54-2.54-2.26-3.59c-0.87-1.1-2.09-2.52-3.04-3.54c-0.3-0.3-0.61-0.6-0.93-0.89c-2.45-2.14-7.55-6.59-20.61-6.74
						C30.16,9.92,24.68,12.06,21.6,16.13"/>
					<g>
						<path class="st2" d="M33.66,55.69c1.67,6.17,7.65,10.87,10.67,10.68c0.11-0.01,11.45-2.12,17.67-12.5
							c4.83-8.08,3.19-15.88-3.39-16.05C56.24,38,30.48,43.95,33.66,55.69"/>
					</g>
					<g>
						<path class="st2" d="M57.99,16.09L57.99,16.09v-0.01c-5.04-4.29-11.57-6.88-18.7-6.88c-4.17,0-8.13,0.89-11.71,2.49
							c-0.64,0.27-1.25,0.57-1.83,0.9c-0.4,0.22-0.81,0.43-1.2,0.66l0.1,0.03c-1.19,0.82-2.21,1.78-3.05,2.88
							c-8.28,10.94,19.48,18.9,34.32,18.92C62.75,39.99,64.66,21.28,57.99,16.09z"/>
					</g>
					<path class="st1" d="M64.1,48.92c1.88-6.17-0.22-11.22-5.5-11.36c-2.37,0.17-28.12,6.12-24.94,17.87
						c1.67,6.17,7.65,10.87,10.67,10.68c0.09-0.01,9.03-1.68,15.39-9.3c2.65-1.73,4.67-3.06,4.7-3.11c0.66-1.17,1.25-2.39,1.75-3.66
						l0,0C65.98,49.84,65.22,49.44,64.1,48.92z"/>
				</g>
			</g>
			<g>
				<path class="st3" d="M29.25,16.31c-3.81,5.73-16.52,9.77-18.61,9.14c0-0.01-0.01-0.02-0.01-0.03c0.09-0.17,0.17-0.34,0.26-0.52
					c0.72-1.4,1.55-2.73,2.47-3.99s1.94-2.44,3.04-3.54s2.29-2.12,3.54-3.04c0.78-0.57,1.59-1.11,2.43-1.61
					c1.78-1.03,3.6-1.1,4.2-1.12C32.24,11.73,29.28,16.27,29.25,16.31"/>
				<path class="st3" d="M26.13,56.82c0.27,1.8-0.01,8.92-0.38,9.51c-0.32,0.02-0.98,0.06-2.89-1.01c-1.01-0.57-1.98-1.2-2.9-1.89
					c-1.26-0.92-2.44-1.94-3.54-3.04c-1.1-1.1-2.12-2.29-3.04-3.54c-0.92-1.26-1.75-2.59-2.47-3.99s-1.34-2.85-1.84-4.36
					c-0.5-1.51-0.89-3.07-1.15-4.68s-0.4-3.25-0.4-4.93s0.14-3.33,0.4-4.93c0.26-1.61,0.65-3.17,1.15-4.68
					c0.1-0.31,0.21-0.61,0.32-0.91l0,0c2.19,2.92,4.73,5.55,6.89,8.5c2.05,2.8,4.88,7.38,5.45,8.35
					C25.28,51.28,25.85,55.02,26.13,56.82"/>
				<path class="st3" d="M68.33,38.89c0,3.94-0.75,7.71-2.12,11.17c-3.58,3.85-27.74-5.63-27.97-5.73
					c-3.3-1.45-13.36-5.85-14.27-12.77c-1.3-9.95,18.89-16.89,27.77-17.15c1.06,0.01,4.3,0.05,6.19,1.58
					C64.3,21.56,68.33,29.76,68.33,38.89"/>
				<path class="st3" d="M51.98,65.87c-2.63,1.23-5.53,0.33-4.78-2.23c1.45-4.92,14.07-9.97,16.86-10.25
					c0.34-0.03,0.49,0.2,0.34,0.47C61.49,58.95,57.19,63.15,51.98,65.87"/>
			</g>
		</g>
		<circle class="st4" cx="37.91" cy="38.88" r="30.41"/>
	</g>
	<g>
		<g class="st5">
			
				<linearGradient id="SVGID_1_" gradientUnits="userSpaceOnUse" x1="20.96" y1="23.6777" x2="79.5" y2="23.6777" gradientTransform="matrix(1 0 0 -1 0 82)">
				<stop  offset="0.375" style="stop-color:#000000;stop-opacity:0"/>
				<stop  offset="1" style="stop-color:#000000;stop-opacity:0"/>
			</linearGradient>
			<path class="st6" d="M22.91,38.12c-1.08,0-1.95,0.74-1.95,1.66c0,9.39,0,21.41,0,30.9c0,1.25,0.87,2.26,1.95,2.26
				c28.73,0.36,56.62,8.56,56.59,4.42c0-10.33,0-24.48,0-34.81C79.53,38.32,51.64,38.13,22.91,38.12z"/>
			
				<linearGradient id="SVGID_2_" gradientUnits="userSpaceOnUse" x1="20.96" y1="23.8327" x2="79.11" y2="23.8327" gradientTransform="matrix(1 0 0 -1 0 82)">
				<stop  offset="0.375" style="stop-color:#000000;stop-opacity:0.0625"/>
				<stop  offset="1" style="stop-color:#000000;stop-opacity:0"/>
			</linearGradient>
			<path class="st7" d="M22.91,38.12c-1.08,0-1.95,0.74-1.95,1.66c0,9.39,0,21.41,0,30.9c0,1.25,0.87,2.25,1.95,2.26
				c28.54,0.17,56.21,8.16,56.2,4.15c-0.04-10.19-0.04-24.2,0-34.38C79.12,38.61,51.44,38.14,22.91,38.12z"/>
			
				<linearGradient id="SVGID_3_" gradientUnits="userSpaceOnUse" x1="20.95" y1="23.9785" x2="78.7" y2="23.9785" gradientTransform="matrix(1 0 0 -1 0 82)">
				<stop  offset="0.375" style="stop-color:#000000;stop-opacity:0.125"/>
				<stop  offset="1" style="stop-color:#000000;stop-opacity:0"/>
			</linearGradient>
			<path class="st8" d="M22.9,38.12c-1.08,0-1.95,0.74-1.95,1.66c0,9.39,0,21.41,0,30.9c0,1.25,0.87,2.25,1.95,2.26
				c28.34,0.17,55.82,7.76,55.8,3.88c-0.04-10.04-0.04-23.91,0-33.95C78.72,38.9,51.24,38.16,22.9,38.12z"/>
			
				<linearGradient id="SVGID_4_" gradientUnits="userSpaceOnUse" x1="20.95" y1="24.1246" x2="78.31" y2="24.1246" gradientTransform="matrix(1 0 0 -1 0 82)">
				<stop  offset="0.375" style="stop-color:#000000;stop-opacity:0.1875"/>
				<stop  offset="1" style="stop-color:#000000;stop-opacity:0"/>
			</linearGradient>
			<path class="st9" d="M22.9,38.12c-1.08,0-1.95,0.74-1.95,1.66c0,9.39,0,21.41,0,30.9c0,1.25,0.87,2.25,1.95,2.26
				c28.14,0.16,55.42,7.36,55.41,3.61c-0.04-9.9-0.04-23.62,0-33.52C78.33,39.2,51.04,38.17,22.9,38.12z"/>
			
				<linearGradient id="SVGID_5_" gradientUnits="userSpaceOnUse" x1="20.95" y1="24.2685" x2="77.91" y2="24.2685" gradientTransform="matrix(1 0 0 -1 0 82)">
				<stop  offset="0.375" style="stop-color:#000000;stop-opacity:0.25"/>
				<stop  offset="1" style="stop-color:#000000;stop-opacity:0"/>
			</linearGradient>
			<path class="st10" d="M22.9,38.12c-1.08,0-1.95,0.74-1.95,1.66c0,9.39,0,21.41,0,30.9c0,1.25,0.87,2.25,1.95,2.26
				c27.94,0.15,55.03,6.97,55.01,3.34c-0.04-9.76-0.04-23.34,0-33.09C77.93,39.49,50.84,38.19,22.9,38.12z"/>
			
				<linearGradient id="SVGID_6_" gradientUnits="userSpaceOnUse" x1="20.95" y1="24.4141" x2="77.52" y2="24.4141" gradientTransform="matrix(1 0 0 -1 0 82)">
				<stop  offset="0.375" style="stop-color:#000000;stop-opacity:0.3125"/>
				<stop  offset="1" style="stop-color:#000000;stop-opacity:0"/>
			</linearGradient>
			<path class="st11" d="M22.9,38.12c-1.08,0-1.95,0.74-1.95,1.66c0,9.39,0,21.41,0,30.9c0,1.25,0.87,2.25,1.95,2.26
				c27.73,0.14,54.63,6.57,54.62,3.07c-0.04-9.61-0.04-23.05,0-32.66C77.54,39.78,50.65,38.2,22.9,38.12z"/>
			
				<linearGradient id="SVGID_7_" gradientUnits="userSpaceOnUse" x1="20.95" y1="24.5571" x2="77.12" y2="24.5571" gradientTransform="matrix(1 0 0 -1 0 82)">
				<stop  offset="0.375" style="stop-color:#000000;stop-opacity:0.375"/>
				<stop  offset="1" style="stop-color:#000000;stop-opacity:0"/>
			</linearGradient>
			<path class="st12" d="M22.9,38.12c-1.08,0-1.95,0.74-1.95,1.66c0,9.39,0,21.41,0,30.9c0,1.25,0.87,2.25,1.95,2.26
				c27.53,0.13,54.23,6.17,54.22,2.81c-0.04-9.47-0.04-22.76,0-32.23C77.14,40.08,50.45,38.21,22.9,38.12z"/>
			
				<linearGradient id="SVGID_8_" gradientUnits="userSpaceOnUse" x1="20.95" y1="24.7015" x2="76.73" y2="24.7015" gradientTransform="matrix(1 0 0 -1 0 82)">
				<stop  offset="0.375" style="stop-color:#000000;stop-opacity:0.4375"/>
				<stop  offset="1" style="stop-color:#000000;stop-opacity:0"/>
			</linearGradient>
			<path class="st13" d="M22.9,38.12c-1.08,0-1.95,0.74-1.95,1.66c0,9.39,0,21.41,0,30.9c0,1.25,0.87,2.25,1.95,2.26
				c27.33,0.13,53.84,5.77,53.83,2.54c-0.04-9.33-0.04-22.47,0-31.8C76.74,40.37,50.25,38.17,22.9,38.12z"/>
			
				<linearGradient id="SVGID_9_" gradientUnits="userSpaceOnUse" x1="20.95" y1="24.836" x2="76.33" y2="24.836" gradientTransform="matrix(1 0 0 -1 0 82)">
				<stop  offset="0.375" style="stop-color:#000000;stop-opacity:0.5"/>
				<stop  offset="1" style="stop-color:#000000;stop-opacity:0"/>
			</linearGradient>
			<path class="st14" d="M22.9,38.13c-1.08,0-1.95,0.74-1.95,1.66c0,9.39,0,21.41,0,30.9c0,1.25,0.87,2.25,1.95,2.26
				c27.13,0.12,53.44,5.37,53.43,2.27c-0.04-9.18-0.04-22.19,0-31.37C76.35,40.67,50.05,38.17,22.9,38.13z"/>
			
				<linearGradient id="SVGID_10_" gradientUnits="userSpaceOnUse" x1="20.95" y1="24.98" x2="75.94" y2="24.98" gradientTransform="matrix(1 0 0 -1 0 82)">
				<stop  offset="0.375" style="stop-color:#000000;stop-opacity:0.5625"/>
				<stop  offset="1" style="stop-color:#000000;stop-opacity:0"/>
			</linearGradient>
			<path class="st15" d="M22.9,38.13c-1.08,0-1.95,0.74-1.95,1.66c0,9.39,0,21.41,0,30.9c0,1.25,0.87,2.25,1.95,2.26
				c26.93,0.11,53.05,4.97,53.04,2c-0.04-9.04-0.04-21.9,0-30.94C75.95,40.96,49.85,38.18,22.9,38.13z"/>
			
				<linearGradient id="SVGID_11_" gradientUnits="userSpaceOnUse" x1="20.95" y1="25.1234" x2="75.54" y2="25.1234" gradientTransform="matrix(1 0 0 -1 0 82)">
				<stop  offset="0.375" style="stop-color:#000000;stop-opacity:0.625"/>
				<stop  offset="1" style="stop-color:#000000;stop-opacity:0"/>
			</linearGradient>
			<path class="st16" d="M22.9,38.13c-1.08,0-1.95,0.74-1.95,1.66c0,9.39,0,21.41,0,30.9c0,1.25,0.87,2.25,1.95,2.26
				c26.73,0.1,52.65,4.57,52.64,1.73c-0.04-8.9-0.04-21.61,0-30.51C75.56,41.25,49.65,38.18,22.9,38.13z"/>
			
				<linearGradient id="SVGID_12_" gradientUnits="userSpaceOnUse" x1="20.95" y1="25.264" x2="75.14" y2="25.264" gradientTransform="matrix(1 0 0 -1 0 82)">
				<stop  offset="0.375" style="stop-color:#000000;stop-opacity:0.6875"/>
				<stop  offset="1" style="stop-color:#000000;stop-opacity:0"/>
			</linearGradient>
			<path class="st17" d="M22.9,38.13c-1.08,0-1.95,0.74-1.95,1.66c0,9.39,0,21.41,0,30.9c0,1.25,0.87,2.25,1.95,2.26
				c26.53,0.09,52.26,4.17,52.24,1.47c-0.04-8.75-0.04-21.33,0-30.08C75.16,41.55,49.45,38.19,22.9,38.13z"/>
			
				<linearGradient id="SVGID_13_" gradientUnits="userSpaceOnUse" x1="20.95" y1="25.4086" x2="74.75" y2="25.4086" gradientTransform="matrix(1 0 0 -1 0 82)">
				<stop  offset="0.375" style="stop-color:#000000;stop-opacity:0.75"/>
				<stop  offset="1" style="stop-color:#000000;stop-opacity:0"/>
			</linearGradient>
			<path class="st18" d="M22.9,38.13c-1.08,0-1.95,0.74-1.95,1.66c0,9.39,0,21.41,0,30.9c0,1.25,0.87,2.25,1.95,2.25
				c26.33,0.08,51.86,3.78,51.85,1.2c-0.04-8.61-0.04-21.04,0-29.65C74.77,41.84,49.25,38.2,22.9,38.13z"/>
			
				<linearGradient id="SVGID_14_" gradientUnits="userSpaceOnUse" x1="20.95" y1="25.5532" x2="74.35" y2="25.5532" gradientTransform="matrix(1 0 0 -1 0 82)">
				<stop  offset="0.375" style="stop-color:#000000;stop-opacity:0.8125"/>
				<stop  offset="1" style="stop-color:#000000;stop-opacity:0"/>
			</linearGradient>
			<path class="st19" d="M22.9,38.13c-1.08,0-1.95,0.74-1.95,1.65c0,9.39,0,21.41,0,30.9c0,1.25,0.87,2.25,1.95,2.25
				c26.13,0.08,51.46,3.38,51.45,0.93c-0.04-8.46-0.04-20.75,0-29.22C74.37,42.13,49.06,38.2,22.9,38.13z"/>
			
				<linearGradient id="SVGID_15_" gradientUnits="userSpaceOnUse" x1="20.95" y1="25.692" x2="73.96" y2="25.692" gradientTransform="matrix(1 0 0 -1 0 82)">
				<stop  offset="0.375" style="stop-color:#000000;stop-opacity:0.875"/>
				<stop  offset="1" style="stop-color:#000000;stop-opacity:0"/>
			</linearGradient>
			<path class="st20" d="M22.9,38.13c-1.08,0-1.95,0.74-1.95,1.65c0,9.39,0,21.41,0,30.9c0,1.24,0.87,2.25,1.95,2.25
				c25.93,0.07,51.07,2.98,51.06,0.66c-0.04-8.32-0.04-20.47,0-28.79C73.97,42.43,48.86,38.21,22.9,38.13z"/>
			
				<linearGradient id="SVGID_16_" gradientUnits="userSpaceOnUse" x1="20.95" y1="25.8285" x2="73.56" y2="25.8285" gradientTransform="matrix(1 0 0 -1 0 82)">
				<stop  offset="0.375" style="stop-color:#000000;stop-opacity:0.9375"/>
				<stop  offset="1" style="stop-color:#000000;stop-opacity:0"/>
			</linearGradient>
			<path class="st21" d="M22.9,38.13c-1.08,0-1.95,0.74-1.95,1.65c0,9.39,0,21.41,0,30.9c0,1.24,0.87,2.25,1.95,2.25
				c25.73,0.06,50.67,2.58,50.66,0.39c-0.04-8.18-0.04-20.18,0-28.36C73.58,42.72,48.66,38.21,22.9,38.13z"/>
			
				<linearGradient id="SVGID_17_" gradientUnits="userSpaceOnUse" x1="20.95" y1="25.9551" x2="73.17" y2="25.9551" gradientTransform="matrix(1 0 0 -1 0 82)">
				<stop  offset="0.375" style="stop-color:#000000"/>
				<stop  offset="1" style="stop-color:#000000;stop-opacity:0"/>
			</linearGradient>
			<path class="st22" d="M22.9,38.13c-1.08,0-1.95,0.74-1.95,1.65c0,9.39,0,21.41,0,30.9c0,1.24,0.87,2.25,1.95,2.25
				c25.53,0.1,50.29,2.18,50.27,0.13c0-8.03,0-19.89,0-27.93C73.19,43.02,48.46,38.36,22.9,38.13z"/>
		</g>
		<g>
			<g>
				
					<linearGradient id="SVGID_18_" gradientUnits="userSpaceOnUse" x1="20.95" y1="13.7406" x2="73.17" y2="13.7406" gradientTransform="matrix(1 0 0 -1 0 82)">
					<stop  offset="0" style="stop-color:#004080"/>
					<stop  offset="0.3246" style="stop-color:#004383"/>
					<stop  offset="0.5853" style="stop-color:#004D8D"/>
					<stop  offset="0.823" style="stop-color:#005E9D"/>
					<stop  offset="1" style="stop-color:#0070AF"/>
				</linearGradient>
				<path class="st23" d="M20.95,70.69c0,1.24,0.87,2.25,1.94,2.26c25.58,0.18,50.28-1,50.28-4.83
					C73.17,56.51,20.95,70.69,20.95,70.69z"/>
				
					<linearGradient id="SVGID_19_" gradientUnits="userSpaceOnUse" x1="47.06" y1="18.4487" x2="47.06" y2="9.0245" gradientTransform="matrix(1 0 0 -1 0 82)">
					<stop  offset="0.35" style="stop-color:#009FDF"/>
					<stop  offset="0.6454" style="stop-color:#009DDD"/>
					<stop  offset="0.7517" style="stop-color:#0096D6"/>
					<stop  offset="0.8276" style="stop-color:#008BCB"/>
					<stop  offset="0.8889" style="stop-color:#007ABA"/>
					<stop  offset="0.9414" style="stop-color:#0064A4"/>
					<stop  offset="0.987" style="stop-color:#004989"/>
					<stop  offset="1" style="stop-color:#004080"/>
				</linearGradient>
				<path class="st24" d="M20.95,70.69L20.95,70.69c0,1.25,0.87,2.26,1.95,2.26c25.58,0.19,50.24-0.61,50.27-4.83
					C73.17,56.51,20.95,70.69,20.95,70.69z M22.9,72.8c-0.07,0-0.14,0-0.2-0.01c-0.78-0.09-1.43-0.68-1.66-1.47
					c0.25,0.85,0.99,1.47,1.86,1.47c25.56-0.16,49.87-8.03,49.87-4.57C72.77,71.76,48.46,72.98,22.9,72.8z"/>
			</g>
			<g>
				
					<linearGradient id="SVGID_20_" gradientUnits="userSpaceOnUse" x1="20.96" y1="29.5942" x2="73.18" y2="29.5942" gradientTransform="matrix(1 0 0 -1 0 82)">
					<stop  offset="0" style="stop-color:#009FDF"/>
					<stop  offset="0.021" style="stop-color:#02A1E1"/>
					<stop  offset="0.2435" style="stop-color:#13B2F2"/>
					<stop  offset="0.4872" style="stop-color:#1DBCFC"/>
					<stop  offset="0.7911" style="stop-color:#20BFFF"/>
					<stop  offset="0.8415" style="stop-color:#1EBCFC"/>
					<stop  offset="0.8819" style="stop-color:#19B2F2"/>
					<stop  offset="0.919" style="stop-color:#11A1E1"/>
					<stop  offset="0.9537" style="stop-color:#0589C9"/>
					<stop  offset="0.966" style="stop-color:#007FBF"/>
					<stop  offset="1" style="stop-color:#20BFFF"/>
				</linearGradient>
				<path class="st25" d="M22.91,37.83L22.91,37.83c-1.08,0-1.95,0.87-1.95,1.95c0,10.3,0,20.6,0,30.91c0,1.07,0.87,1.94,1.94,1.95
					c25.58-0.19,50.31-8.66,50.28-4.52c0-11.6,0-23.21,0-34.81C73.2,29.17,48.48,37.64,22.91,37.83z"/>
			</g>
			<g>
				<path class="st26" d="M45.79,49.05c-0.07,0.04-0.14,0.07-0.17,0.13c-0.02,0-0.03,0.01-0.05,0.02c1.28,0.74,2.04,1.91,2.06,3.23
					c0.02,1.35-0.74,2.71-2.03,3.74c0.04,0.02,0.08,0.05,0.14,0.07c0.1,0.04,0.21,0.11,0.31,0.15c0.97,0.38,2.13,0.51,3.21,0.34
					c1.2-0.19,2.27-0.75,2.97-1.55c1.03-1.19,1.92-2.95,1.73-4.42c-0.19-1.44-1.16-2.53-2.5-2.97
					C49.93,47.3,47.54,47.78,45.79,49.05z M49.31,48.35c0.03,0.02,0,0.08,0,0.14c-0.06-0.02-0.1-0.01-0.1-0.07
					C49.22,48.39,49.25,48.33,49.31,48.35z M49.13,48.73c0.03-0.03,0.06-0.04,0.13-0.02c0.03,0.02,0.03,0.02,0.03,0.08
					c-0.03,0,0,0.05,0,0.05c0,0.03,0.03,0.02,0.06,0.02c0.03,0,0.03,0.02,0.06,0.05c0,0.03,0.03,0.02,0.06,0.05
					c0,0.03-0.03,0.03-0.03,0.06c-0.06,0.04-0.13,0.02-0.19,0c-0.03,0-0.1,0.01-0.16-0.03c0,0,0.03-0.09,0.03-0.11
					C49.13,48.81,49.06,48.77,49.13,48.73z M49.38,48.75c-0.03,0-0.1-0.04-0.13-0.06c-0.03-0.02,0.03-0.06,0.03-0.06
					c0.03,0,0-0.05,0-0.08c0.01,0,0.02,0,0.03,0c0.06-0.04,0.1,0.01,0.1,0.07C49.44,48.66,49.41,48.69,49.38,48.75z M49.12,48.51
					c0.03-0.03,0.13-0.05,0.1,0.01c0,0.03-0.03,0.09-0.06,0.12c-0.03,0.06-0.1,0.01-0.1-0.04C49.06,48.58,49.09,48.54,49.12,48.51z
					 M48.84,48.74c0.03-0.03,0.03-0.06,0.06-0.04c0.03,0,0.03,0,0.06,0.02C49,48.75,49.03,48.8,49,48.86s-0.06,0.06-0.13,0.02
					C48.8,48.86,48.84,48.77,48.84,48.74z M46.38,49.03c0,0.03-0.03,0.03-0.07,0.06c-0.03,0-0.17,0.02-0.21,0.03
					c-0.07,0.01-0.14,0.02-0.21,0.03c0.07-0.12,0.24-0.14,0.31-0.25c0.14-0.02,0.21-0.05,0.27-0.14c0.03-0.03,0.07-0.06,0.1-0.07
					c0.07-0.01,0.1-0.04,0.17-0.08c0.03,0,0.1-0.04,0.14-0.04c0.07-0.04,0.07-0.06,0.14-0.1c0.1-0.01,0.21,0,0.31,0.02
					c0.07,0.02,0.24,0,0.24,0.08c0.03,0.02,0,0.05,0.04,0.1c0.03,0.02,0.07,0.07,0.07,0.1s-0.03,0.03-0.03,0.06
					c0,0.03,0,0.03,0,0.05c-0.03,0.06-0.07,0.09-0.1,0.12s-0.07,0.06-0.13,0.07c-0.03,0-0.04-0.13-0.04-0.16
					c-0.03,0-0.07,0.01-0.07,0.04c-0.03,0-0.07-0.02-0.07-0.05c-0.03,0.03-0.07,0.06-0.14,0.1c-0.07,0.01-0.1,0.01-0.17-0.01
					c-0.1,0.01-0.21,0.03-0.34,0.04c-0.03,0-0.1,0.01-0.14-0.01C46.41,49.03,46.38,49.01,46.38,49.03z M46.7,49.92
					c-0.03-0.02-0.1,0.01-0.14-0.04s0.03-0.03,0.1-0.07c0.03,0.02,0.07,0.02,0.1,0.04C46.81,49.88,46.74,49.91,46.7,49.92z
					 M46.87,49.79c-0.03,0-0.1-0.01-0.1-0.04c0.03-0.03,0.1-0.04,0.14-0.04c0.03,0,0.1,0.01,0.1,0.04
					C47.01,49.8,46.91,49.78,46.87,49.79z M48.44,50.35c-0.07,0.04-0.1-0.04-0.1-0.07c-0.03-0.02-0.07-0.05-0.03-0.08
					c0.07,0.02,0.07,0.02,0.1,0.04C48.43,50.26,48.47,50.31,48.44,50.35z M51.38,48.08c0.03,0,0.05-0.01,0.05-0.04
					c0.05-0.06,0.08-0.07,0.13-0.05c0.05,0.04,0.11,0.03,0.13,0.06c0.05,0.04,0.08,0.07,0.13,0.08c0,0.03,0.03,0.05,0,0.08
					c-0.03,0.01-0.05,0.01-0.08,0.01c-0.05,0.01-0.08-0.01-0.13-0.03c-0.03-0.02-0.03-0.05-0.05-0.04
					c-0.03-0.02-0.05,0.01-0.08,0.01c-0.05,0.04-0.08,0.04-0.11-0.01C51.36,48.14,51.36,48.08,51.38,48.08z M51.43,51.39
					c0.05-0.01,0.13-0.05,0.16,0.02c0,0.05-0.05,0.01-0.05,0.01c-0.03,0.01-0.08,0.02-0.11,0.02c-0.03,0.01-0.05,0.01-0.08-0.01
					c-0.03,0.01-0.03-0.02-0.05-0.04c-0.03-0.02,0.05-0.04,0.05-0.04C51.41,51.34,51.41,51.34,51.43,51.39z M51.37,49.7
					c0.03-0.03,0.05-0.09,0.08-0.1c0.05-0.01,0.05,0.04,0,0.08c0,0.03-0.03,0.06-0.05,0.09C51.34,49.78,51.37,49.73,51.37,49.7z
					 M51.42,49.5c-0.03-0.05,0.03-0.14,0.05-0.17c0.03-0.01,0.05-0.06,0.08-0.04c0.03,0.02-0.03,0.06-0.03,0.09
					c0.03,0.02,0.13-0.03,0.13,0.03c0.03,0.02,0,0.08-0.03,0.09s-0.05-0.02-0.05-0.04C51.55,49.42,51.45,49.55,51.42,49.5z
					 M51.67,51.42c0.03-0.03,0.03-0.03,0.08-0.02c0,0,0.03,0.02,0.03,0.05s-0.08-0.01-0.1-0.01C51.67,51.42,51.67,51.42,51.67,51.42
					z M51.39,49.24c0.03,0.02,0.08,0.04,0.05,0.1c0,0.08-0.11,0.13-0.19,0.14c-0.05,0.01-0.08,0.04-0.14,0.05
					c-0.03,0-0.06,0.06-0.08,0.1c0.03,0,0.08-0.04,0.11-0.02c0.06-0.01,0.03,0,0.06,0.04c0.03,0.02,0.05-0.01,0.08-0.04
					c0-0.05-0.03-0.05-0.06-0.07c0.03-0.01,0.08-0.04,0.11-0.05c0.03,0.02,0.05,0.02,0.03,0.05c0,0-0.03,0.01-0.05,0.01
					c-0.03,0.06,0.05,0.04,0.05,0.07c0,0.05,0,0.05-0.03,0.09c-0.05,0.09-0.11,0.15-0.13,0.21c-0.05,0.06,0,0.13-0.08,0.2
					c-0.08,0.04-0.08,0.15-0.11,0.21c0,0.05,0,0.16-0.03,0.22c-0.06,0.06-0.11,0.13-0.17,0.22c-0.03,0.03-0.03,0.06-0.03,0.11
					c0,0.03,0.03,0.05,0.03,0.08c0.06,0.07,0.06,0.15-0.03,0.25c-0.03,0.06-0.09-0.01-0.09-0.04c0-0.05,0.03-0.09,0-0.11
					c-0.03-0.05-0.06-0.07-0.12-0.09c-0.06,0.01-0.09,0.04-0.15,0.05c-0.06,0.04-0.09,0.04-0.15,0.08c-0.03,0-0.09,0.04-0.12,0.05
					c-0.06,0.01-0.09-0.01-0.12,0.02c-0.06,0.06-0.06,0.12-0.06,0.14c-0.03,0.06-0.06,0.06-0.06,0.12c0.03,0.08,0.03,0.08,0.06,0.13
					c0.03,0.02,0.06,0.07,0.09,0.09s0.09,0.01,0.12-0.02c0.09-0.04,0.18-0.14,0.26-0.1c0.12,0.03-0.06,0.15-0.03,0.22
					c0.06,0.07,0.17-0.03,0.26-0.05c0.11-0.02,0.09,0.09,0.09,0.17c-0.03,0.03-0.03,0.11,0,0.14c0.03,0.02,0.06,0.02,0.11,0.03
					c0.03-0.01,0.08-0.07,0.11-0.07s0.08-0.02,0.11,0.01c0.03-0.01,0.05-0.04,0.05-0.06c0.03-0.01,0.03-0.01,0.03-0.01
					c0.03-0.03,0.03-0.01,0.03-0.01c0.03-0.03,0.05-0.09,0.08-0.1c0.08-0.04,0.19-0.06,0.26-0.13c0.03-0.01,0.03,0.02,0.05,0.02
					c0,0.03,0,0.03-0.03,0.06c-0.03,0.03-0.05,0.06-0.08,0.1c0.08-0.02,0.13-0.08,0.15-0.11c0.03-0.06,0.05-0.01,0.1-0.02
					c0.03,0.02,0.05,0.02,0.08,0.01c0.05,0.02,0.1,0.09,0.15,0.1c0.05,0.02,0.1,0.06,0.14,0.07c0.02,0.02,0.05,0.04,0.07,0.06
					c0,0.03,0.02,0.05,0.05,0.07c0.05,0.02,0.1,0.03,0.18,0.01c0.05,0.01,0.08,0.06,0.13,0.1c0.03,0.05,0.03,0.1,0,0.19
					c0.05-0.01,0.08-0.02,0.13-0.03c0.03-0.01,0.05,0.01,0.08,0.01c0.08,0.01,0.14,0.02,0.22,0.03c0.03-0.01,0.06-0.01,0.11,0
					c0,0.03,0.09,0.03,0.09,0.06c0.03,0.05,0.06,0.12,0.12,0.16c0.03,0.05,0.06,0.07,0.03,0.1c-0.03,0.03-0.06,0.09-0.06,0.12
					c-0.06,0.09-0.09,0.16-0.15,0.22c-0.06,0.09-0.12,0.16-0.14,0.25C53,53.28,53,53.33,53,53.36c-0.06,0.04-0.06,0.07-0.08,0.13
					c-0.03,0.09-0.11,0.16-0.16,0.23s-0.11,0.11-0.19,0.15c-0.05,0.04-0.1,0.13-0.15,0.2c-0.08,0.07-0.12,0.11-0.19,0.18
					c-0.02,0.03-0.05,0.06-0.09,0.08c-0.05,0.04-0.07,0.04-0.12,0.08c-0.05,0.06-0.15,0.11-0.2,0.18c-0.08,0.1-0.13,0.16-0.18,0.22
					c-0.08,0.07-0.18,0.12-0.26,0.16c-0.05,0.04-0.11,0.1-0.19,0.17c-0.08,0.1-0.14,0.16-0.19,0.28c-0.06,0.06-0.08,0.15-0.14,0.24
					c-0.03,0.06-0.03,0.08-0.09,0.1c-0.03,0.03-0.03,0.01-0.06,0.04c-0.03,0.03-0.03,0.03-0.03,0.06c0.03,0.05,0.06-0.06,0.09,0.01
					c0,0,0,0.03,0,0.05c0,0.03,0,0.03,0,0.05c0.03,0.02,0.03,0.02,0,0.05c0,0-0.06,0.01-0.06-0.02c-0.03,0.01-0.03,0.01-0.06-0.02
					c-0.03,0.01-0.03,0.03-0.09,0.04c0-0.03,0.03-0.08,0-0.11c0-0.03-0.06-0.04-0.06-0.04c-0.09-0.06-0.03-0.13,0.03-0.19
					c-0.09-0.01-0.03-0.1,0-0.13c0.06-0.04,0-0.13,0.03-0.19c0-0.05,0.09-0.1,0.12-0.13c0.03-0.03,0.09-0.04,0.09-0.07
					c0.03-0.03,0-0.05-0.03-0.05c0.03-0.06,0.09-0.12,0.09-0.17c0.03-0.06,0.06-0.12,0.11-0.18c0.03-0.06,0.06-0.12,0.08-0.18
					c0.03-0.03,0.03-0.01,0.03-0.06c0-0.03,0-0.05,0-0.08c0-0.03,0.03-0.06,0.06-0.09c0-0.03,0.03-0.06,0.03-0.11
					c0.02-0.01,0.03-0.02,0.05-0.04c0-0.03,0.03-0.06,0.03-0.09c0.03-0.06,0.05-0.12,0.05-0.2c0-0.03,0.03-0.06,0.03-0.09
					c0.03-0.03,0.03-0.06,0.03-0.09s0-0.11,0-0.13c-0.05-0.02-0.08-0.04-0.11-0.09c-0.03-0.02-0.05-0.07-0.08-0.09
					c0-0.03,0.03-0.09,0.03-0.14c-0.03-0.07,0-0.16-0.05-0.23c0-0.05-0.03-0.07-0.03-0.13c0-0.05,0-0.11-0.03-0.13
					c0-0.05-0.03-0.18,0-0.24s0.03-0.11,0.05-0.15c0.03-0.06,0.05-0.09,0.08-0.12c0.03-0.09-0.03-0.18-0.08-0.23
					c-0.06-0.02-0.08-0.01-0.11,0.05c-0.03,0.03-0.03,0.11-0.05,0.09c-0.03-0.02-0.03-0.05-0.06-0.07c0,0-0.03,0.01-0.06,0.01
					c-0.03,0.01-0.09-0.01-0.11-0.03c-0.03-0.02-0.03-0.08-0.09-0.09c-0.03-0.02-0.09,0.02-0.12,0.02c-0.09-0.01-0.18-0.05-0.24-0.1
					c-0.06-0.02-0.09-0.04-0.15-0.03c-0.03-0.02-0.09,0.01-0.15,0.02c-0.18,0.03-0.34-0.11-0.44-0.26c-0.03-0.02-0.03-0.08-0.06-0.1
					c-0.03-0.05-0.09-0.01-0.13-0.04c-0.03-0.02-0.06-0.07-0.06-0.1c-0.03-0.05-0.06-0.05-0.1-0.07c-0.03-0.05-0.07-0.07-0.1-0.12
					c0-0.03-0.03-0.05-0.07-0.1c0-0.03-0.03-0.08-0.07-0.07c-0.06-0.02-0.1,0.01-0.06,0.06c0.03,0.05,0.1,0.07,0.13,0.09
					c0.03,0.05,0.07,0.05,0.03,0.1c0,0.05,0.03,0.08,0.07,0.1c0,0.03,0.07,0.13,0,0.11c-0.1-0.04-0.13-0.12-0.2-0.19
					s-0.1-0.12-0.13-0.23c-0.03-0.02-0.07-0.05-0.1-0.1c-0.03-0.02-0.07-0.07-0.1-0.12c0-0.03-0.07-0.07-0.07-0.1
					c-0.03-0.02-0.03-0.08-0.03-0.1c0-0.11,0-0.19,0.03-0.3c0-0.05,0-0.11,0-0.14s-0.03-0.05-0.03-0.08c0,0-0.03,0-0.03-0.02
					c-0.1-0.15-0.17-0.3-0.27-0.45c-0.03-0.05-0.1-0.15-0.2-0.14c-0.13-0.01-0.24,0-0.37,0.05c-0.03,0-0.1,0.04-0.14,0.02
					c-0.07-0.02-0.07,0.01-0.14,0.04c-0.07,0.01-0.14,0.02-0.17-0.01c-0.03,0-0.07,0.01-0.07,0.01s-0.03-0.02-0.07-0.05
					c0.07-0.06,0.17-0.05,0.24-0.06c0.07,0.02,0.07,0.02,0.1-0.04c0.03-0.03,0.03-0.03,0-0.08c-0.03-0.05-0.04-0.13,0.03-0.19
					c0,0,0.03-0.03,0.07-0.06c0-0.05-0.03-0.02,0.07-0.06c0.03,0,0.07-0.01,0.07-0.04c0-0.03,0.03-0.09,0.07-0.12
					c0.03-0.03,0.13-0.04,0.2-0.08c0.1-0.04,0.2-0.11,0.27-0.09c0.03,0,0.07,0.02,0.07,0.05c0.03,0,0.07,0.02,0.1,0.04
					c0.1,0.01,0.2,0.05,0.3,0.07c0.1,0.04,0.2,0,0.29,0.01c0.06-0.01,0.1,0.01,0.13,0.04c0.06,0.02,0.1,0.04,0.16,0.06
					c0.1,0.01,0.16,0,0.29-0.01c0.06-0.04,0.09-0.01,0.16-0.08c0.03-0.06-0.03-0.08-0.06-0.13c0-0.03-0.03-0.08-0.03-0.1
					c0.03-0.06,0.06-0.06,0.09-0.04c0.06-0.01,0.06,0.05,0.13,0.06c0.03,0.02,0.06,0.04,0.12,0.06c0.06,0.02,0.18,0.05,0.22,0.1
					c-0.06,0.04-0.12,0.07-0.15,0.1c-0.03,0,0.03,0.1,0.03,0.13c-0.03,0.06-0.09,0.1-0.12,0.15c-0.06,0.04-0.06,0.06,0,0.11
					c0,0,0.03,0.02,0.06,0.04c0,0.03,0.06-0.01,0.06,0.02c0.06-0.01,0.12,0.01,0.18,0.03c0.06,0.04,0.09,0.01,0.18,0.03
					c0.06-0.01,0.09,0.04,0.15,0.06c0-0.08-0.03-0.16-0.03-0.24c0-0.03-0.06-0.04-0.09-0.07c-0.03-0.02,0-0.05-0.03-0.08
					c-0.06-0.02-0.09-0.01-0.06-0.1c0-0.05,0.03-0.06,0.09-0.07c0.09-0.04,0.18-0.03,0.27-0.02c0.06,0.02,0.09,0.01,0.12-0.02
					c0.06-0.04,0.09,0.01,0.09,0.04c0.09,0.07,0.12,0.09,0.23,0.1c0.08,0.01,0.19,0.05,0.25,0.04c0.03,0,0.05-0.04,0.08-0.04
					C51.37,49.19,51.39,49.21,51.39,49.24z M51.17,51.44c0,0.03-0.08,0.04-0.11,0.05c-0.08-0.01-0.14-0.03-0.22-0.07
					c-0.03,0.01-0.06-0.02-0.06-0.07c0-0.03,0.09,0.01,0.09,0.01c0.08,0.01,0.17,0.05,0.25,0.04
					C51.14,51.39,51.17,51.41,51.17,51.44z M50.16,49.09c0,0.05,0,0.08-0.06,0.06c-0.06,0.01-0.09-0.01-0.12-0.04
					c0-0.03,0-0.05,0-0.05c0.02,0,0.04-0.01,0.06-0.01C50.1,49.08,50.13,49.07,50.16,49.09z M49.71,47.97
					c0.03-0.06,0.06-0.09,0.09-0.12c0.06-0.04,0.09-0.04,0.15-0.05c0.12-0.02,0.21-0.06,0.3-0.02c0.03,0.02,0.03,0.02,0.09-0.01
					c0.06-0.01,0.09-0.01,0.15,0c0.06,0.02,0.09,0.04,0.15,0.06c0.03,0.02,0.06,0.04,0.12,0.06c0.03,0.02,0.06-0.01,0.12,0.01
					c0.06-0.01,0.09,0.01,0.14,0.03c0.03,0.02,0.03,0.02,0.03,0.1c0,0.05,0.03,0.08,0.06,0.13c0.03,0.02,0,0.05,0.03,0.1
					c0.03,0.02,0.06,0.07,0.06,0.13c0.03,0.02,0.03,0.05,0.06,0.07c0.06,0.02,0.08,0.07,0.08,0.09c0,0.11-0.08,0.15-0.16,0.16
					c-0.08,0.01-0.17,0-0.25-0.01c-0.11-0.03-0.17-0.05-0.26-0.12c-0.03-0.02-0.06-0.07-0.09-0.07c-0.06-0.02-0.09-0.04-0.09-0.07
					s0.03-0.11-0.03-0.1c-0.06,0.01-0.09-0.01-0.15,0c-0.09,0.01-0.18,0-0.27,0.01c-0.03,0-0.09,0.01-0.15,0.05
					c0,0,0.03,0.02,0,0.05c-0.02,0-0.04,0.01-0.06,0.01c0,0.14,0.15,0.03,0.25,0.07c0.12,0.01,0.21-0.01,0.3,0.01
					c0.06,0.02,0.06,0.02,0.09,0.07c0.03,0.02,0.06,0.04,0.12,0.06c0.06,0.02,0.09,0.01,0.15,0.03c0.06-0.01,0.06,0.04,0,0.08
					c-0.03,0-0.09,0.01-0.09,0.04c-0.03,0.06,0,0.08,0,0.14c0,0.03,0,0.08-0.06,0.09c-0.03-0.02-0.09-0.01-0.15-0.03
					s-0.27,0.1-0.27-0.01c0-0.05,0.06-0.09,0.06-0.12c0.03-0.06-0.03-0.05-0.06-0.07c-0.06-0.02-0.09-0.01-0.15-0.03
					c-0.06,0.01-0.12-0.01-0.15-0.06c-0.03,0-0.06,0.01-0.06-0.02c-0.03-0.02-0.03-0.05-0.06-0.07c-0.03-0.05-0.06-0.07-0.13-0.06
					c-0.09,0.01-0.09-0.04-0.13-0.09c0-0.03,0-0.05,0-0.08c-0.03-0.05-0.03-0.02-0.06-0.02c-0.03-0.02-0.03-0.02-0.03-0.05
					s-0.06-0.05-0.06-0.07c0.03-0.06,0.13-0.02,0.13,0.01c0.03,0,0.06-0.06,0.06-0.09s0-0.05,0.03-0.09
					c0.06-0.04,0.09-0.04,0.16-0.05C49.72,48.05,49.71,47.97,49.71,47.97z M49.59,48.01c0,0-0.06,0.01-0.09,0.01
					c-0.03,0.03-0.06,0.06-0.06,0.09c-0.03,0-0.06,0.04-0.06,0.06c-0.03,0-0.09,0.04-0.06-0.02s0.06-0.12,0.12-0.15
					C49.46,47.98,49.62,47.93,49.59,48.01z M52.16,44.25c-0.05-0.04-0.1-0.09-0.1-0.2c0.03-0.11,0-0.19,0.1-0.34
					c0.08-0.15,0.41-0.71,0.41-0.71s0.16-0.24,0.27-0.26c0.08-0.01,0.17-0.03,0.23-0.01c0.06-0.01,0.15,0.05,0.15,0.05
					s0.24,0.07,0.18,0.29c-0.06,0.19-0.14,0.37-0.64,1.05c0,0-0.19,0.3-0.42,0.24C52.33,44.35,52.18,44.27,52.16,44.25z
					 M54.23,47.98c0.82,1.06,1.34,2.29,1.34,3.82c0.02,4.84-3.78,9.52-9.86,10.62c0.43-0.14,0.86-0.3,1.28-0.47
					c1.01-0.42,2.01-0.91,2.87-1.48c1.07-0.66,1.87-1.46,2.52-2.4c0.74-1.05,1.35-2.34,1.62-3.58c0.18-0.85,0.15-1.68,0.19-2.51
					c0-1.06,0.02-2.16,0.04-3.24C54.23,48.49,54.23,48.23,54.23,47.98z M50.47,50.02c-0.03,0.03-0.12,0.21-0.18,0.19
					c0-0.03,0.03-0.03,0.03-0.06c0-0.03,0.03-0.06,0.03-0.09C50.35,50.01,50.44,49.97,50.47,50.02z M39.3,44.57
					c-0.15-0.24-0.23-0.36-0.37-0.6c0.16-0.1,0.24-0.16,0.4-0.26c0,0,0.11-0.05,0.16,0c0.06,0.04,0.28,0.44,0.28,0.44
					s-0.03,0.11-0.09,0.15C39.66,44.35,39.3,44.57,39.3,44.57z M50.7,50.06c-0.03,0-0.09-0.01-0.12-0.01
					c-0.03-0.02-0.15-0.06-0.06-0.07c0.06-0.01,0.06-0.01,0.12,0.01C50.67,50.01,50.76,50.02,50.7,50.06z M50.41,49.81
					c0.03,0.02,0.03,0.08,0.06,0.13c-0.06,0.01-0.12,0.02-0.18,0.03c-0.03,0-0.15,0.02-0.12-0.04c0.03,0,0.09-0.01,0.15-0.05
					c0.03-0.03-0.09-0.04-0.06-0.1C50.29,49.75,50.38,49.82,50.41,49.81z M50.96,49.94c0.03,0.02-0.14,0.05-0.17,0.06
					c0.01-0.01,0.02-0.02,0.03-0.03c0.03-0.03,0.06-0.01,0.08-0.04C50.93,49.89,50.96,49.91,50.96,49.94z M45.84,42.73
					c-0.32,0.04-0.47,0.06-0.79,0.1c0.18-0.31,0.27-0.47,0.44-0.78C45.64,42.32,45.71,42.46,45.84,42.73z M40.73,51.84
					c0.06-0.01,0.03-0.08,0.03-0.11c0-0.05,0-0.08,0-0.11c0-0.05,0.03-0.08,0.09-0.09c0.03-0.03,0.12-0.04,0.09,0.04
					c-0.03,0.03-0.06,0.06-0.03,0.11c0,0.05,0.03,0.05-0.03,0.14c0,0.03,0,0.08-0.09,0.09c-0.03,0-0.06,0.04-0.09-0.01
					C40.67,51.88,40.7,51.85,40.73,51.84z M40.04,50.73c-0.03,0.03-0.12-0.01-0.12-0.01c-0.07-0.02-0.06-0.09-0.05-0.15
					c0.01,0.07,0.23-0.01,0.26-0.04c0,0,0-0.03,0.03-0.06c0-0.03,0.03-0.03,0.06-0.04c0.03-0.03,0.06-0.09,0.09-0.12
					c0.03-0.06,0.15-0.16,0.21-0.19c0.03,0,0.12-0.02,0.12,0.01s0,0.08-0.06,0.12c-0.03,0.03-0.09-0.01-0.12,0.02
					s-0.09,0.04-0.12,0.1c0,0.03-0.03,0.03,0,0.05c0.01,0.01,0.02,0.01,0.03,0.02c0.03,0,0.09,0.01,0.12-0.02
					c0.06-0.01,0.12-0.04,0.15-0.05c0.06-0.01,0.12-0.02,0.06,0.05c-0.03,0.08-0.18,0.05-0.24,0.09s-0.12,0.04-0.18,0.08
					c-0.03,0-0.09-0.01-0.12,0.04C40.13,50.67,40.07,50.7,40.04,50.73z M40.22,50.73c-0.03,0-0.06-0.02,0-0.05
					C40.25,50.68,40.25,50.7,40.22,50.73z M46.69,60.73c0.24-0.04,0.45-0.13,0.68-0.22c0.13-0.05,0.27-0.1,0.4-0.15
					c0.1-0.04,0.2-0.14,0.33-0.19c0.13-0.08,0.26-0.15,0.43-0.23c0.07-0.01,0.13-0.02,0.16-0.03c0.06-0.01,0.1-0.04,0.13-0.05
					c0.03-0.09,0-0.08-0.1-0.09c-0.03-0.02-0.06-0.04-0.13-0.03c-0.07,0.01-0.13,0.02-0.2,0.03c-0.07-0.02-0.13,0.05-0.23,0.06
					c-0.07,0.01-0.17,0.03-0.23,0.04c-0.23,0.04-0.47,0.02-0.67,0c-0.1-0.01-0.17-0.03-0.27-0.04c-0.14,0.02-0.24,0.01-0.38,0
					c-0.21-0.05-0.38-0.1-0.58-0.13c-0.14-0.01-0.24-0.02-0.35-0.06c-0.14-0.01-0.24,0.01-0.38,0c-0.21,0.03-0.45,0.04-0.66,0.1
					c-0.1,0.04-0.14,0.05-0.17,0.08c-0.07,0.04-0.1,0.04-0.14,0.05c-0.14,0.02-0.28,0.04-0.38,0.03c0,0-0.17-0.03-0.1-0.07
					c0.03,0,0.07-0.04,0.14-0.07c0.1-0.04,0.17-0.11,0.31-0.1c0.07-0.01,0.1-0.01,0.17-0.02c0.03,0,0.1-0.01,0.14-0.02
					c0.14-0.02,0.24-0.03,0.35-0.05c0.24-0.06,0.48-0.1,0.69-0.18c0.14-0.02,0.24-0.06,0.38-0.08c0.03-0.03,0.1-0.04,0.17-0.08
					c0.03-0.01,0.1-0.02,0.17-0.03c0.07-0.04,0.1-0.07,0.17-0.08c0.03-0.01,0.1,0.01,0.17-0.03c0.1-0.04,0.24-0.09,0.34-0.13
					c0.24-0.06,0.44-0.18,0.64-0.26c0.13-0.05,0.23-0.09,0.33-0.16c0.1-0.04,0.17-0.11,0.27-0.18c0.1-0.07,0.2-0.14,0.3-0.15
					c0.13-0.05,0.23-0.09,0.32-0.16c0.13-0.07-0.13-0.09-0.16-0.11c-0.1-0.01-0.23,0.01-0.33,0.02c-0.1,0.02-0.2,0.06-0.33,0.08
					c-0.1,0.02-0.2,0.03-0.33,0.05s-0.23,0.04-0.34,0.02c-0.14-0.01-0.27,0.01-0.41,0.01c-0.24,0.01-0.44,0.07-0.69,0.1
					c-0.1,0.04-0.24,0.06-0.35,0.08c-0.1,0.01-0.24,0.03-0.35,0.08c-0.24,0.12-0.45,0.23-0.69,0.37c-0.17,0.13-0.38,0.27-0.55,0.4
					c-0.07,0.06-0.14,0.16-0.24,0.25c-0.03,0.03-0.07,0.06-0.1,0.12c-0.03,0.03-0.1,0.04-0.14,0.07c-0.1,0.04-0.21,0.11-0.31,0.12
					c-0.07,0.01-0.1,0.07-0.14,0.07c-0.07,0.01-0.14,0.02-0.2,0.03c-0.07,0.01-0.14-0.01-0.24,0c-0.03,0-0.1-0.01-0.14-0.01
					c-0.1-0.01-0.2,0.05-0.3,0.01c0-0.03,0.07-0.06,0.07-0.09c0.03-0.03,0-0.05,0-0.08c0.01-0.01,0.02-0.02,0.03-0.03
					c0.03-0.03,0.1-0.07,0.13-0.13c0,0,0-0.03,0-0.05c0.01-0.01,0.02-0.02,0.03-0.03c0.03,0.02,0.1,0.1,0.07,0.13
					c-0.03,0.06-0.13,0.1-0.1,0.15c0,0.03,0.13,0.01,0.17,0.03c0.07-0.01,0.14-0.02,0.2-0.03c0.14-0.02,0.27-0.06,0.41-0.14
					c0.07-0.04,0.14-0.07,0.21-0.11c0.03-0.03,0.03-0.09,0.07-0.15c0.1-0.1,0.14-0.18,0.17-0.3c0.03-0.09,0-0.16-0.07-0.24
					c-0.03,0-0.14,0.02-0.17,0.02c-0.07,0.01-0.1-0.01-0.17-0.03s-0.24,0.03-0.34,0.05c-0.1,0.01-0.2,0.05-0.31,0.09
					c-0.1,0.04-0.2,0.11-0.27,0.17c-0.03,0.06-0.07,0.09-0.1,0.12c-0.03,0.06-0.07,0.09-0.1,0.15c0,0.03,0.03,0.11,0.07,0.13
					c0.01,0.01,0.02,0.01,0.03,0.02c-0.03,0.03-0.03,0.06-0.07,0.06c0,0.05-0.03,0.09-0.07,0.15c-0.03,0.03-0.07,0.04-0.13,0.02
					c-0.1-0.04-0.23-0.05-0.33-0.04c-0.23,0-0.39-0.12-0.59-0.15c-0.23-0.05-0.42-0.11-0.57-0.21c-0.19-0.09-0.34-0.21-0.52-0.27
					c-0.09-0.04-0.21-0.09-0.3-0.13c-0.06-0.02-0.18-0.01-0.23-0.03c-0.06-0.08-0.06-0.08-0.14-0.07c-0.06,0.01-0.03,0.06-0.03,0.11
					c0.03,0.05,0.14,0.12,0.2,0.14c0.18,0.06,0.33,0.21,0.45,0.33c0.12,0.15,0.12,0.34,0.31,0.43c0.03,0.05,0.09,0.04,0.15,0.04
					c0.03,0,0.09-0.04,0.12-0.04c0.06-0.03,0.16-0.02,0.19-0.02c0.06-0.01,0.09-0.01,0.13,0.01c0.22,0.03,0.45,0.06,0.68,0.11
					c0.2,0.03,0.39,0.09,0.59,0.12c0.13,0.01,0.23,0.02,0.34,0.04c0.13,0.01,0.24,0.05,0.37,0.03c-0.03-0.08-0.1-0.1-0.03-0.16
					c0.07-0.09,0.1,0.04,0.1,0.07s0.1,0.07,0.14,0.09c0.07,0.05,0.1,0.07,0.17,0.11c0.03,0.02,0.03,0.05,0.03,0.08
					c0,0.03,0,0.05,0.03,0.08c0.03,0.02,0.14,0.06,0.07,0.13c-0.07,0.06-0.1,0.04-0.14-0.01c-0.03-0.05-0.07-0.1-0.1-0.15
					c-0.1,0.1-0.14,0.18-0.2,0.33c0,0.03,0.03,0.1,0.03,0.16c0,0.03,0,0.08,0,0.11c0.03,0.08,0.07,0.13,0.1,0.18
					c0.03,0.02,0.14,0.06,0.17,0.06c0.1,0.07,0.2,0.11,0.34,0.12c0.1,0.01,0.24,0.02,0.34-0.02c0.07-0.01,0.14-0.05,0.21-0.09
					c0.03-0.01,0.07-0.09,0.07-0.12s0.03-0.09,0.07-0.15c0-0.03,0-0.08,0-0.14c0-0.08-0.03-0.21-0.07-0.29
					c-0.1-0.18-0.24-0.37-0.52-0.36c-0.07,0.01-0.17,0.05-0.24,0.06c-0.07,0.01-0.03-0.05-0.07-0.1c-0.07-0.07-0.14-0.12-0.21-0.19
					c0.03-0.03,0.03,0,0.1,0.01c0.03,0,0.07,0.02,0.1,0.04s0.07,0.02,0.1,0.04c0,0.03,0.03,0.08,0.07,0.07
					c0.1-0.01,0.21-0.03,0.31-0.04c0.07-0.01,0.14,0.06,0.21,0.08c0.07,0.04,0.1,0.09,0.17,0.11c0.07,0.1,0.17,0.17,0.28,0.2
					c0.24,0.07,0.52,0.14,0.76,0.21c0.14,0.01,0.24,0.04,0.34,0.05C46.14,60.79,46.45,60.77,46.69,60.73z M45.22,59.06
					c0.24-0.12,0.55-0.22,0.8-0.3c0.21-0.08,0.45-0.12,0.65-0.18c0.24-0.06,0.48-0.1,0.72-0.16c0.1-0.02,0.2-0.06,0.3-0.07
					c0.07-0.01,0.13-0.02,0.2-0.03c0.03-0.01,0.03-0.01,0.03,0.02s-0.03,0.03-0.07,0.04c-0.07,0.04-0.2,0.03-0.3,0.07
					c-0.13,0.05-0.24,0.06-0.37,0.14c-0.07,0.04-0.17,0.11-0.27,0.15c-0.1,0.02-0.24,0.06-0.34,0.08c-0.24,0.04-0.48,0.1-0.72,0.19
					c-0.21,0.06-0.45,0.12-0.69,0.21c-0.21,0.08-0.42,0.17-0.66,0.26c0,0-0.03,0-0.07-0.02C44.69,59.32,44.94,59.18,45.22,59.06z
					 M40.61,59.74c0-0.03-0.03-0.05-0.03-0.08c0-0.03-0.03-0.08-0.03-0.11s0.03-0.03,0.06-0.01c0.03-0.09-0.12-0.21-0.15-0.23
					c-0.03-0.02-0.18-0.09-0.15-0.15c0.06,0.02,0.12,0.1,0.18,0.12c0.06,0.05,0.15,0.09,0.18,0.14c0.06,0.08,0.09,0.18,0.09,0.26
					C40.73,59.75,40.67,59.79,40.61,59.74z M45.46,60.19c-0.1-0.01-0.21-0.05-0.28-0.07c-0.07,0.01-0.31,0.02-0.35-0.03
					c0.24-0.04,0.48-0.07,0.69-0.02c0.28,0.04,0.55,0.11,0.83,0.12c0.17,0,0.31,0.03,0.48,0.03c0.14,0.01,0.27,0.01,0.44-0.02
					c0.1-0.02,0.2-0.03,0.34-0.05c0,0,0,0.05-0.03,0.06c-0.1,0.02-0.24,0.04-0.34,0.11c-0.14,0.05-0.34,0.05-0.48,0.08
					c-0.1,0.02-0.2,0.01-0.34,0.03c-0.1-0.01-0.24-0.04-0.34-0.05C45.87,60.32,45.66,60.24,45.46,60.19z M41.74,57.65
					c1.15-0.14,2.34-0.61,3.32-1.31c-0.01-0.01-0.02-0.01-0.02-0.03c-0.07,0.04-0.14-0.01-0.14-0.06c0-0.03,0.07-0.09,0.1-0.12
					c0.01,0,0.02,0,0.03,0c0.03,0,0.07-0.01,0.1,0.01c0,0.01,0,0.02,0,0.03c0.03,0,0.04-0.01,0.07-0.01
					c0.03-0.03,0.07-0.06,0.1-0.07c0.04,0.01,0.05,0.03,0.05,0.04c0.03-0.02,0.06-0.04,0.09-0.06c0.1-0.09,0.2-0.18,0.3-0.27
					c-0.05,0.04-0.1,0.07-0.16,0.11c-0.07,0.01-0.1,0.01-0.14,0.02c-0.07,0.01-0.14,0.04-0.17,0.05c-0.07,0.01-0.1,0.01-0.14-0.01
					c-0.03-0.02-0.03-0.08-0.07-0.13c0-0.08,0-0.16,0.04-0.28c-0.07,0.04-0.1,0.09-0.14,0.07c-0.07-0.02-0.03-0.05-0.07-0.1
					c-0.07-0.07-0.1-0.15-0.24-0.16c-0.24,0-0.45,0.08-0.66,0.13c-0.03,0-0.1-0.04-0.14-0.04c-0.03-0.02-0.07-0.07-0.03-0.11
					c0.03-0.03,0.07-0.09,0.07-0.12c0.03-0.06,0.03-0.11,0.03-0.14c0-0.05,0.03-0.09,0.07-0.12c0.03-0.06,0.03-0.09,0.07-0.14
					c0.03-0.06,0.1-0.15,0.21-0.19c0.1-0.04,0.21-0.08,0.31-0.15c0,0,0.03,0,0.07-0.01c0.03,0,0.03-0.03,0.07-0.04
					c0.04-0.06,0.07-0.06,0.1-0.09c0.1-0.09,0.21-0.13,0.31-0.15c0.1-0.04,0.18-0.13,0.28-0.17c0.07-0.01,0.1-0.01,0.17-0.02
					c0.03,0,0.1-0.01,0.17-0.02c0.07-0.01,0.03,0.02,0.03,0.08c0,0.05-0.04,0.06-0.07,0.12c-0.1,0.07,0.03,0.13,0.1,0.18
					c0.03,0.05,0.07,0.05,0.1-0.01c0.04-0.06,0.07-0.06,0.07-0.12c0.03-0.06,0.07-0.09,0.07-0.12c0.03-0.06,0.04-0.11,0.07-0.14
					c0.14-0.1,0.1,0.15,0.1,0.2s0,0.08,0.03,0.13s0.03,0.08,0.03,0.13c-0.03,0.09,0,0.19,0.03,0.27c0,0.08,0,0.16,0,0.24
					c0,0.05,0,0.11-0.04,0.14c0,0.05-0.07,0.09-0.07,0.12c-0.03,0.06-0.07,0.09-0.1,0.15c0,0.03-0.07,0.06-0.1,0.09
					c0,0.02-0.01,0.04-0.02,0.05c0.53-0.55,0.92-1.16,1.14-1.8c0,0.01-0.01,0.02-0.01,0.02c-0.07,0.04-0.03-0.05-0.07-0.07
					c0-0.03-0.03,0,0-0.05c0.01-0.01,0.02-0.02,0.03-0.03c0.03-0.03,0.07-0.04,0.1-0.07c0,0.02,0,0.03,0,0.04
					c0.11-0.36,0.16-0.72,0.16-1.09c-0.02-1.27-0.76-2.4-1.98-3.1c-1.05-0.6-2.42-0.82-3.71-0.64c-2.94,0.4-4.57,2.74-4.57,5.16
					C37.13,56.32,38.78,58.02,41.74,57.65z M40.53,55.03c0,0.03-0.06,0.09-0.06,0.12c-0.03,0.03-0.06,0.06-0.06,0.12
					c0,0.03-0.03,0.09-0.03,0.14c0,0.03,0.06,0.07,0.03,0.11c0,0-0.06,0.06-0.09,0.07c-0.03-0.02-0.09-0.04-0.12-0.09
					c-0.06-0.05-0.03-0.16-0.03-0.21s0-0.11,0-0.14c-0.03-0.05,0-0.08,0-0.14c0.03-0.03,0.03-0.09,0.06-0.12
					c0.06-0.01,0.06-0.06,0.12-0.1c0-0.05,0-0.05,0.06-0.09c0.03,0,0.09,0.04,0.09,0.07C40.56,54.84,40.53,54.92,40.53,55.03z
					 M42.52,53.31c0,0.03-0.03,0.11-0.1,0.12c-0.07-0.02-0.03-0.1-0.03-0.13c0-0.03,0.1-0.12,0.1-0.12
					C42.56,53.2,42.52,53.28,42.52,53.31z M44.04,53.81c-0.03,0.06-0.14-0.12-0.17-0.12c-0.04-0.08-0.11-0.12-0.14-0.17
					c-0.03-0.02-0.17-0.12-0.21-0.11c-0.03,0-0.1,0.01-0.14-0.01c0,0-0.03-0.05,0-0.08c0.1-0.01,0.17-0.02,0.28,0.02
					c0.07,0.02,0.14,0.07,0.21,0.11c0.07,0.05,0.14,0.09,0.18,0.14C44.1,53.61,44.04,53.75,44.04,53.81z M44.49,53.95
					c-0.03-0.02-0.07-0.05-0.14-0.04s-0.1-0.02-0.17-0.01c-0.03-0.02-0.1-0.04-0.07-0.1c0.03-0.03,0-0.08,0.03-0.11
					c0.04,0.02,0.04,0.08,0.07,0.13c0,0.03,0.14,0.01,0.17,0.01s0.14-0.02,0.14,0.01C44.59,53.88,44.56,53.94,44.49,53.95z
					 M44.56,53.56c-0.04-0.02-0.07-0.02-0.14-0.01c-0.03,0-0.1,0.04-0.14,0.02c0,0-0.04-0.08-0.04-0.1
					c-0.04-0.02-0.07-0.05-0.04-0.1c0-0.05,0-0.05,0.07-0.09c0.1-0.01,0.17-0.05,0.24-0.11c0.03-0.03,0.1-0.07,0.14-0.1
					c0.03-0.03,0.07-0.09,0.1-0.07c0.03,0,0.14,0.01,0.14,0.04c-0.03,0.06-0.03,0.03-0.1,0.09c-0.03,0-0.03,0.06,0,0.08
					c0.07,0.05,0.04,0.05,0,0.11c-0.03,0.03-0.1,0.09-0.1,0.12c0,0.05-0.03,0.06-0.03,0.11C44.63,53.58,44.59,53.58,44.56,53.56z
					 M45.28,52.88c0,0.05,0.07,0.1,0,0.14c-0.1,0.01-0.11-0.01-0.14-0.04c-0.04-0.02-0.07-0.02-0.11-0.02c0,0,0,0.03-0.03,0.03
					c-0.07,0.01-0.07-0.05-0.04-0.08c0.07-0.01,0.1-0.04,0.17-0.02c0-0.03,0.03-0.06,0.03-0.09s-0.04-0.02-0.07-0.05
					c0-0.03,0.07-0.09,0.1-0.09s0.07,0.07,0.04,0.1C45.21,52.83,45.28,52.83,45.28,52.88z M45.19,53.51c-0.04,0-0.21,0.02-0.1,0.07
					c0.04,0,0.07,0.02,0.07,0.05c0.04,0-0.04,0.03-0.07,0.04c-0.04,0-0.07-0.02-0.07-0.05c-0.04-0.02-0.04-0.05-0.07-0.05
					c-0.03,0.06,0.14,0.15,0.04,0.19c-0.04,0-0.1-0.04-0.14-0.07c0-0.03,0-0.08,0-0.11c0-0.08,0.03-0.17,0.1-0.2
					c0.1-0.07,0.21-0.08,0.31-0.09c0.07,0.05-0.03,0.09-0.07,0.09c-0.07,0.01-0.14,0.04-0.14,0.1
					C45.08,53.47,45.29,53.42,45.19,53.51z M45,52.61c0.03,0,0.14,0.07,0.07,0.07C45,52.7,44.93,52.65,45,52.61z M45.14,50.1
					c-0.04-0.02-0.04-0.13-0.07-0.15c-0.11-0.1-0.28-0.13-0.35-0.23c0.03,0,0.03-0.03,0.03-0.03c0.14,0.04,0.28,0.13,0.39,0.17
					c0.04,0.05,0.04,0.05,0.07,0.07c0,0.05,0,0.05,0.04,0.08c0.04,0.02,0.21,0.08,0.14,0.12C45.35,50.16,45.18,50.13,45.14,50.1z
					 M45.11,52.6c-0.07,0.01-0.04-0.13,0.03-0.09c0,0,0.04,0.05,0.04,0.08C45.18,52.62,45.14,52.6,45.11,52.6z M44.96,51.97
					c0-0.03,0-0.14,0.03-0.17c0-0.03,0-0.05,0.03-0.09c0.03-0.03,0.07,0.02,0.07,0.02c0,0.05,0.04,0.13,0.04,0.16
					C45.1,51.98,45.03,51.99,44.96,51.97z M45.03,52.26c0.04,0.02,0,0.05-0.03,0.09c-0.03,0,0.04,0.08,0.04,0.1
					c0.03,0,0.04,0.08,0,0.08s-0.11-0.01-0.14-0.04c-0.04-0.02-0.04-0.05,0-0.08c0-0.05-0.11-0.18,0.03-0.19
					C44.96,52.21,45,52.21,45.03,52.26z M44.8,53.99c-0.07,0.01-0.07-0.02-0.14-0.01c-0.03,0-0.1-0.02-0.03-0.05
					c0.07-0.01,0.07-0.01,0.14,0.01c0.03,0,0.1-0.01,0.1-0.01c0.07-0.01,0.1-0.01,0.14,0.01c0.07-0.01,0.1,0.02,0.03,0.05
					C45.01,54.02,44.84,53.99,44.8,53.99z M45.29,54.05c-0.04,0-0.04,0-0.1,0.01c-0.03-0.02-0.04,0-0.07,0.01
					c-0.04,0.03-0.1,0.04-0.1,0.01c-0.03,0-0.07-0.05-0.03-0.05c0.07-0.01,0.21-0.02,0.24-0.06c0.03,0,0.1-0.01,0.1-0.01
					C45.36,54.01,45.36,54.04,45.29,54.05z M45.29,53.26c-0.04-0.08,0.03-0.11,0.03-0.17c0.03,0,0.14-0.02,0.14,0.01
					s-0.03,0.06-0.03,0.09s0.03,0,0.07,0.02s-0.03,0.09-0.03,0.09C45.43,53.32,45.29,53.29,45.29,53.26z M45.54,51.11
					c0,0.05-0.1,0.09-0.17,0.1C45.3,51.2,45.47,51.1,45.54,51.11z M47.13,53.53c-0.07,0.04-0.1-0.15-0.03-0.18
					C47.2,53.3,47.2,53.49,47.13,53.53z M46.89,53.18c0.1-0.01,0.24,0.05,0.21,0.11c0,0.03-0.03,0.06-0.07,0.06
					C47,53.33,47,53.33,47,53.3c-0.03-0.02-0.04-0.05-0.04-0.08c-0.03,0-0.07,0.01-0.07-0.02C46.89,53.18,46.89,53.18,46.89,53.18z
					 M46.86,53.37c0.01-0.01,0.02-0.02,0.03-0.03c0.03,0,0.03,0.02,0.04,0.05c0,0.03,0,0.05,0,0.05c-0.03,0.03-0.03,0.03-0.07,0.04
					c-0.03,0.06-0.1,0.04-0.07-0.02C46.83,53.43,46.9,53.42,46.86,53.37z M45.85,53.17c0,0.03,0,0.03-0.03,0.06
					c0,0.03,0.04,0.05,0.07,0.05c0.07,0.05,0.17-0.1,0.28-0.06c0.11,0.04,0.14,0.15,0.25,0.19c0.03,0,0.1,0.01,0.14,0.04
					c0.04,0.02,0.03,0.02,0.03,0.05c0.03,0,0.07-0.01,0.07,0.02c0.07,0.07,0.14,0.15,0.17,0.22c0.03,0.05,0.17,0.19,0.07,0.23
					c-0.07,0.04-0.1-0.07-0.1-0.1c-0.03-0.05-0.1,0.01-0.14-0.01c-0.07-0.02-0.1-0.1-0.17-0.09c-0.07-0.02-0.1,0.09-0.17,0.05
					c-0.1-0.01-0.1-0.07-0.21-0.08c-0.07-0.02-0.17-0.03-0.14-0.09c0.03-0.03,0.04-0.06,0.04-0.09c0-0.05,0-0.05-0.04-0.08
					c-0.07-0.05-0.14-0.07-0.21-0.06c-0.03,0-0.1,0.01-0.14-0.01c0,0-0.04-0.05-0.07-0.07c-0.03,0-0.07-0.02,0-0.05
					c0.04,0,0.07-0.04,0.1-0.04c0,0,0,0-0.04-0.02c-0.11-0.1,0.03-0.11,0.17-0.1C45.81,53.12,45.81,53.14,45.85,53.17z M45.74,50.76
					c-0.01,0.01-0.02,0.02-0.03,0.03c0,0.03,0.04,0.05,0,0.05c0,0.03-0.03,0.03-0.03,0.03c0,0.03,0,0.05-0.03,0.09
					c0,0.03-0.03,0.03-0.07,0.04c-0.07,0.04-0.14,0.1-0.21,0.11c0,0.02-0.02,0.08-0.07,0.09c0,0.02,0.03,0.02,0.03,0.05
					c0.04,0.02-0.03,0.06-0.03,0.06c-0.03,0.03-0.03,0.09-0.07,0.06c-0.07-0.02,0.03-0.14,0.07-0.17c-0.01,0-0.02,0.01-0.03,0
					c-0.04-0.02,0-0.11,0.03-0.11c0.03-0.06,0.07-0.09,0.1-0.15c0.03-0.03,0.07-0.04,0.14-0.04c-0.04-0.05-0.11-0.07-0.11-0.1
					s0.1-0.09,0.1-0.15c0.03-0.03-0.04-0.1,0-0.16c0.03-0.03,0.03-0.14,0.1-0.15c0.04,0.02,0,0.08,0,0.11
					c0.04,0.02,0.07,0.02,0.11,0.04c0,0.05-0.03,0.11-0.03,0.14C45.74,50.66,45.74,50.74,45.74,50.76z M45.67,50.26
					c-0.03,0.03-0.14,0.07-0.14,0.1c0,0-0.03,0.09-0.07,0.09c-0.07-0.02-0.04-0.1-0.07-0.13c0-0.03-0.18-0.11-0.04-0.16
					c0.04,0.02,0.11,0.04,0.11,0.04c0.03,0,0.17-0.05,0.17-0.02C45.67,50.23,45.74,50.22,45.67,50.26z M45.52,49.76
					c0.03,0,0.07-0.01,0.1-0.01c0.04,0.02,0.04,0.02,0,0.05s-0.07,0.01-0.1,0.01C45.49,49.82,45.49,49.77,45.52,49.76z M45.62,49.69
					c-0.03,0-0.1,0.04-0.17-0.01c0.03,0,0.07-0.04,0.1-0.07C45.55,49.62,45.73,49.65,45.62,49.69z M39.63,49.59
					c0.03,0,0.06-0.01,0.11,0.01c0.06-0.01,0.06-0.01,0.09-0.04c0.06,0.02,0.03,0.08,0,0.11c-0.06,0.04-0.09,0.07-0.17,0.08
					c-0.06,0.01-0.11,0.02-0.11-0.04C39.55,49.66,39.61,49.62,39.63,49.59z M39.33,50.39c0.05-0.06,0.08-0.09,0.17-0.13
					c0.03,0,0.06,0.02,0.06,0.02c-0.03,0.06-0.06,0.06-0.06,0.09c-0.03,0.09-0.06,0.14-0.11,0.23c-0.03,0.03,0.03,0.02-0.03,0.06
					c-0.03,0-0.05,0.04-0.08,0.04c-0.03,0.03-0.05,0.04-0.08,0.04c-0.03,0-0.05-0.02-0.08-0.01c-0.03,0-0.08,0.04-0.08-0.01
					c0-0.03,0.03-0.06,0.05-0.09c0.05-0.06,0.11-0.02,0.19-0.06C39.33,50.52,39.3,50.45,39.33,50.39z M39.01,50.47
					c0.03,0,0.05-0.06,0.05-0.09c0.03,0,0.05-0.04,0.05-0.04c0.03,0.02,0.05,0.02,0.08,0.01c0.03,0,0.05,0.02,0.05,0.07
					c0,0.03,0.03,0.05-0.03,0.09c-0.03,0-0.05,0.04-0.08,0.04c-0.03,0-0.08,0.01-0.11,0.02c-0.05,0.04-0.08,0.07-0.11,0.02
					C38.9,50.52,38.95,50.51,39.01,50.47z M38.98,50.77c-0.03,0-0.05-0.02-0.03-0.02C38.98,50.72,39.01,50.74,38.98,50.77z
					 M38.27,54.31c0-0.03,0.03-0.14,0-0.16c0-0.03-0.07-0.04-0.13-0.03c-0.03-0.02-0.05-0.07-0.08-0.09
					c-0.03-0.02-0.2,0.04-0.25,0.05s-0.08,0.01-0.1-0.01c-0.05-0.04-0.05-0.04-0.13,0c-0.05,0.01-0.08,0.04-0.1-0.01
					c-0.05-0.02-0.05-0.02-0.05-0.1c0-0.03,0-0.08,0-0.11c-0.03-0.05-0.05-0.1-0.08-0.15c-0.03-0.08-0.05-0.18-0.08-0.25
					c-0.03-0.02-0.05-0.07-0.03-0.1c0-0.05,0.03-0.09,0.03-0.14c0.03-0.11,0.03-0.19,0.05-0.3c0-0.05,0-0.16,0.05-0.22
					c0.05-0.09,0.13-0.21,0.2-0.31c0.1-0.15,0.25-0.26,0.38-0.39c0.1-0.07,0.2-0.17,0.28-0.27c0.03,0,0.05-0.04,0.07-0.07
					c0,0,0.05,0.04,0.07,0.04c0.05,0.02,0.07,0.04,0.12,0.06c0.02,0,0.07-0.01,0.1-0.02c0.08-0.01,0.13-0.02,0.18-0.03
					c0.03,0,0.08-0.01,0.1,0.01c0.03,0,0.03,0.02,0.05,0.02c0.03,0.02,0.03,0,0.03,0.05c0.03,0,0.03,0.02,0.05,0.02
					c0.03,0.02,0,0,0.03,0c0.05-0.01,0.03,0,0.05,0.02c0.03,0.02,0.03,0.02,0.05,0.04c0,0.03,0.03,0.05-0.03,0.09
					c-0.03-0.02-0.03-0.05-0.05-0.1c-0.02,0-0.03,0.01-0.05,0.01c0,0.03,0,0.05,0,0.08c0,0.08,0.16,0.05,0.19,0.1
					c0.05,0.02,0.05,0.04,0.08,0.09c0.04-0.01,0.07-0.01,0.11-0.02c0.06-0.01,0.08-0.01,0.14-0.02c0.06,0.02,0.06,0.04,0.08,0.07
					c0.06,0.02,0.11,0.04,0.14,0.03c0.03,0.02,0.12,0.01,0.14,0c0.03,0,0.06-0.06,0.06-0.12c0.03,0-0.03-0.08-0.06-0.07
					c-0.03,0-0.06,0.04-0.06-0.02c0-0.03,0-0.03-0.03-0.05s-0.09-0.01-0.11-0.04c0-0.02,0-0.03,0-0.05c-0.03-0.02,0-0.03,0-0.05
					c0-0.05,0-0.08,0.03-0.14c-0.03,0-0.09,0.01-0.09,0.04c0,0.03,0.03,0.08,0.03,0.1c-0.03,0.06-0.14,0.08-0.2,0.09
					c0-0.08,0-0.16,0-0.24s0.03-0.19-0.08-0.17c-0.03,0-0.03,0-0.03,0.03s0,0.05,0,0.08c0,0.03,0.06,0.04,0.06,0.07
					c0,0.11,0,0.16-0.08,0.25c0-0.03,0-0.05,0-0.08c-0.06,0.06-0.08,0.09-0.16,0.11c0-0.03,0-0.05,0-0.08
					c0.05-0.04,0.05-0.04,0.05-0.09c0-0.03-0.03-0.05-0.03-0.08c-0.03-0.02-0.03-0.02-0.05-0.07c0-0.03,0.03-0.09,0-0.11
					c-0.03-0.05-0.03-0.08-0.08-0.09c-0.03-0.02-0.08-0.01-0.11,0.02c-0.03,0-0.1,0.02-0.1-0.01c-0.03-0.02-0.1-0.01-0.13,0
					c-0.03,0.03,0,0.03-0.03,0.06c0,0.03-0.03,0.03-0.03,0.06c-0.05,0.06-0.03,0.06-0.1,0.07c-0.05,0.01-0.12,0-0.17,0.01
					c-0.02,0-0.1,0.05-0.1-0.01c0-0.05,0-0.08-0.02-0.13s0.02-0.09,0.05-0.12c0.02-0.03,0.05-0.04,0.05-0.09s0.02-0.09,0.07-0.12
					c0.02-0.06,0.05-0.04,0.07-0.01c0.02,0.05,0.1-0.02,0.13,0c0.03,0,0.05,0.07,0.08,0.04c0.05-0.04,0.05-0.09,0.08-0.12
					c0.03-0.03,0.05-0.09,0.08-0.12c0.03-0.06,0.03-0.09,0.08-0.09c0.05-0.01,0.08-0.01,0.13-0.02c0.03,0,0.11,0.01,0.11-0.02
					c0.05-0.01,0.08-0.04,0.14-0.05c0.08-0.04,0.17-0.11,0.22-0.17c0.06-0.04,0.08-0.04,0.14-0.05c0.03,0,0.11-0.04,0.11-0.02
					c0.03,0.01,0.03,0.04,0.03,0.07c0.01-0.03,0.05-0.06,0.05-0.11c0,0,0-0.03,0-0.05c0-0.03,0-0.03-0.03-0.02
					c-0.03,0-0.12,0.04-0.12-0.01s0-0.08,0.03-0.11c0.06-0.04,0.06-0.09,0.12-0.1c0.06-0.01,0.09-0.01,0.15-0.02
					c0.06-0.04,0.09-0.04,0.15-0.05s0.06-0.06,0.12-0.07c0.03,0,0.06-0.01,0.06-0.04c0.03,0,0.03-0.03,0.06-0.04
					c0.03-0.03,0.06-0.06,0.09-0.09s0.12-0.02,0.15,0c0.03,0.02,0.06,0.02,0.12,0.01c0.12-0.02,0.19,0,0.25,0.07
					c0,0.05,0.03,0.08,0.06,0.1c0.03,0.02,0.03,0.08,0.03,0.1c0.06-0.01,0.06-0.01,0.13-0.04c0.03-0.03,0.13,0.01,0.19,0
					c0.1-0.01,0.16-0.05,0.26-0.06c0.06,0.02,0.07,0.02,0.1-0.04c0.03-0.03,0.06-0.04,0.1-0.04C41.97,49.93,42,50,42,50
					c0.03,0.05,0.07,0.05,0.1,0.07c0.03-0.09-0.07-0.07,0.03-0.11c0.03-0.03,0.1-0.07,0.13-0.1c0.13-0.04,0.23-0.11,0.33-0.18
					c0.07-0.04,0.1-0.07,0.13-0.1c0.03-0.06,0.07-0.06,0.13-0.07c0.07,0.02,0.14,0.01,0.17,0.01c0.07-0.01,0.14-0.02,0.2-0.05
					c0.03,0,0.1-0.04,0.14-0.04c0.07-0.01,0.14-0.02,0.17-0.05c0.07-0.01,0.14-0.02,0.21-0.03c0.03,0,0.07-0.04,0.1-0.09
					c0.03-0.03,0.03-0.09,0.07-0.12c0,0,0-0.05,0.03-0.06c0.03,0,0.04-0.01,0.07-0.01c0.07-0.06,0.1-0.07,0.17-0.08
					c0.07-0.01,0.1-0.01,0.14-0.02c0.14,0.01,0.21,0.03,0.31,0.1c0.07,0.02,0.1,0.01,0.14,0.04c0.07,0.02,0.1,0.04,0.14,0.06
					c0.1,0.04,0.18,0.11,0.28,0.16c0.1,0.01,0.17,0.06,0.28,0.1c0,0.05,0.04,0.05,0.04,0.1s0,0.03-0.07,0.04
					c-0.1,0.01-0.17-0.03-0.28-0.02c-0.07,0.01-0.04-0.02-0.1-0.04c0,0-0.03,0.03-0.03,0c-0.03,0-0.04-0.02-0.07-0.05
					c-0.04-0.05-0.07-0.1-0.11-0.15c-0.07,0.04-0.07,0.09-0.1,0.12s-0.07,0.04-0.14,0.07c-0.07,0.01-0.1,0.04-0.1,0.07
					c-0.03,0.03-0.07,0.14-0.03,0.14c0.03,0,0.1-0.07,0.14-0.04c0.03,0,0.07,0.02,0.07,0.05c0,0-0.03,0.03,0,0.05
					c0,0.03,0.1,0.04,0.14,0.06s0.07,0.05,0.11,0.1c0.07,0.05,0.14,0.15,0.18,0.2c0.04,0.1-0.03,0.17-0.03,0.27
					c0,0.03,0,0.03,0,0.05c-0.03,0.03,0,0.03,0.04,0.02c0.04,0.08,0.04,0.08-0.03,0.11c-0.07,0.06-0.07,0.17-0.07,0.25
					s0.04,0.08,0.11,0.12c0.04,0.02,0,0.08,0,0.14c0,0.03-0.07,0.06-0.07,0.09c-0.03,0.03-0.03,0.03-0.07,0.04
					c-0.04-0.02-0.04-0.02-0.04-0.05c-0.04-0.05,0-0.11-0.07-0.13c-0.04-0.02-0.07-0.05-0.11-0.07s-0.04-0.02-0.07,0.01
					c-0.03,0-0.03,0.03-0.07,0.04c-0.03,0.03,0.04,0.1,0.04,0.1c0.03-0.03,0.07-0.09,0.14-0.04c0.04,0.02-0.03,0.06-0.07,0.09
					c0.14,0.06,0.14,0.2,0.18,0.33c0.04,0.05,0,0.14,0,0.19s-0.03,0.14-0.07,0.17c-0.03,0.03-0.1,0.12-0.17,0.16
					c-0.07,0.01-0.14,0.07-0.14,0.12c0,0.03,0.04,0.08,0,0.08c0,0.03-0.07,0.06-0.1,0.04c0-0.03-0.04-0.02,0-0.05
					c0.03-0.03,0-0.05-0.04-0.08c0,0.03-0.1,0.09-0.1,0.12c0,0.08,0,0.11,0.04,0.16c0.04,0.1,0.11,0.2,0.07,0.29
					c-0.03,0.06-0.03,0.06-0.07,0.09c-0.03,0-0.03,0-0.07,0.04c-0.03,0.03-0.07,0.09-0.14,0.1c-0.1-0.02-0.18-0.12-0.24-0.16
					c-0.1,0.07-0.14,0.12-0.1,0.2c0.03,0.02,0.04,0.08,0.07,0.07c0.03,0.02,0.1,0.04,0.14,0.07c0.04,0.05,0.07,0.13,0.11,0.2
					c0,0.03,0,0.05,0,0.08c0,0.03,0.04,0.02,0.04,0.02c0.04,0.05,0,0.05-0.03,0.06c-0.1-0.02-0.17-0.09-0.25-0.16
					c-0.04-0.05-0.07-0.13-0.11-0.2c-0.04-0.08-0.04-0.16-0.07-0.21c-0.07-0.05-0.07-0.15-0.11-0.2c-0.07,0.09-0.14,0.1-0.21,0
					c0-0.03-0.04-0.08-0.04-0.1c-0.03,0-0.07,0.01-0.07-0.02c-0.03,0-0.03-0.02-0.03-0.02c-0.03-0.02,0-0.08-0.04-0.1
					c-0.03-0.02-0.07-0.05-0.1-0.04c-0.1,0.01-0.17,0.05-0.24,0.11c-0.07,0.06-0.17,0.13-0.24,0.19c-0.07,0.06-0.1,0.09-0.1,0.2
					c0,0.05,0,0.08-0.03,0.11s-0.07,0.04-0.07,0.09s-0.07,0.14-0.1,0.2c-0.1-0.04-0.13-0.12-0.17-0.17c-0.1-0.07-0.13-0.12-0.2-0.19
					s-0.07-0.18-0.07-0.26c0-0.05,0-0.05-0.07-0.05s-0.07,0.01-0.1-0.04s-0.07-0.07-0.1-0.1c-0.03-0.05-0.07-0.05-0.13-0.04
					s-0.16,0.05-0.26,0.06c-0.03-0.02-0.1-0.01-0.16-0.01c-0.03,0-0.06-0.05-0.09-0.07c-0.06-0.02-0.06-0.05-0.13-0.04
					c-0.03,0-0.09,0.04-0.12,0.04c0-0.05,0-0.08-0.03-0.13c0-0.03-0.06-0.02-0.09-0.04c0,0.05,0,0.05,0.03,0.08
					c0,0.05,0.03,0.1,0.06,0.13c0.03,0.05,0.03,0.05,0.12,0.04c0.06-0.01,0.19-0.03,0.22,0c0.03,0.02,0.06,0.05,0.06,0.1
					c0.03,0,0.04-0.01,0.06-0.01c0.03,0,0,0.08,0,0.11c-0.03,0.03-0.06,0.06-0.09,0.09c0,0.03-0.06,0.12-0.09,0.12
					c-0.06,0.01-0.09,0.01-0.16,0.05c-0.06,0.06-0.15,0.13-0.25,0.17c-0.06,0.04-0.09,0.04-0.15,0.07c-0.03,0-0.09,0.04-0.15,0.05
					s-0.09,0.01-0.12-0.06c-0.03-0.05-0.03-0.1-0.03-0.18c-0.03-0.02,0-0.08-0.06-0.1c-0.03-0.02-0.09-0.01-0.09-0.07
					c-0.06-0.07-0.09-0.15-0.12-0.25c-0.03-0.05-0.03-0.18-0.09-0.23c0-0.03-0.09,0.04-0.09,0.07c0,0.05,0,0.08,0,0.13
					c0,0.03,0,0.08,0.03,0.13c0.03,0.02,0.03,0.05,0.06,0.1c0.03,0.08,0.09,0.15,0.09,0.23c0,0.03-0.03,0.08,0,0.08
					c0,0.03,0.03,0,0.06-0.01c0.03,0.02,0.06,0.07,0.09,0.09c0.06,0.04,0.06,0.15,0.15,0.19c0.03,0,0.12,0.01,0.15,0.01
					c0.09-0.07,0.24-0.17,0.33-0.15c0.06,0.02-0.03,0.11-0.03,0.11c-0.03,0.06-0.06,0.09-0.06,0.14c-0.03,0.08-0.06,0.2-0.12,0.26
					c-0.15,0.18-0.3,0.34-0.45,0.49c-0.06,0.06-0.12,0.13-0.2,0.22c-0.03,0.03,0.12,0.15,0.12,0.17c0,0.11,0,0.22,0,0.36
					c0,0.08,0,0.14-0.09,0.23c-0.06,0.06-0.12,0.07-0.11,0.18c0,0.03,0,0.08,0,0.11s0.03,0.05,0.03,0.05c0.06,0.07,0,0.16-0.09,0.2
					c-0.03,0.03-0.06,0.04-0.06,0.06c-0.03,0.09-0.03,0.22-0.11,0.26c-0.08,0.07-0.19,0.11-0.28,0.18c-0.03,0.03-0.08,0.09-0.11,0.1
					c-0.03,0-0.08-0.02-0.11-0.04c-0.03-0.08-0.08-0.15-0.11-0.23c-0.11-0.17-0.16-0.35-0.23-0.53c-0.03-0.05-0.05-0.13-0.08-0.18
					c-0.05-0.05-0.07-0.09-0.1-0.14c-0.02-0.05-0.02-0.05-0.02-0.1c0.02-0.03,0.05-0.09,0.05-0.14s0-0.08,0-0.13
					c0-0.08-0.07-0.15-0.1-0.22c-0.02-0.08-0.05-0.18-0.1-0.25C38.27,54.36,38.27,54.36,38.27,54.31z M48.08,59.19
					c0.2-0.09,0.46-0.13,0.62-0.26c-0.1,0.02-0.16,0.03-0.26,0.07c-0.03,0.03-0.07,0.01-0.13,0.02c-0.03,0.01-0.07,0.04-0.13,0.05
					c-0.07,0.01-0.1-0.01-0.17,0c-0.03,0.01-0.07,0.04-0.13,0.05c-0.1,0.04-0.23,0.06-0.34,0.11c-0.2,0.06-0.37,0.09-0.54,0.11
					c-0.1,0.02-0.2,0.03-0.31,0.05c-0.07,0.01-0.21,0.06-0.27,0.01c0.1-0.04,0.17-0.08,0.27-0.1c0.14-0.05,0.24-0.06,0.34-0.11
					c0.24-0.09,0.48-0.18,0.68-0.29c0.2-0.09,0.43-0.2,0.66-0.29c0.1-0.02,0.2-0.03,0.29-0.05c0.13-0.02,0.29-0.05,0.45-0.07
					c0.22-0.04,0.41-0.17,0.63-0.26c0.15-0.05,0.25-0.09,0.39-0.12c0.06-0.01,0.12-0.02,0.18-0.03c0.03-0.01,0.03-0.01,0.06,0.02
					c0.03-0.01,0.09,0.06,0.06,0.1c-0.03,0.03-0.03,0.06-0.06,0.06c-0.03,0.01-0.09,0.02-0.12,0.02c0,0-0.06,0.06-0.09,0.07
					c-0.09,0.1-0.18,0.19-0.27,0.29c-0.15,0.11-0.28,0.26-0.43,0.37c-0.09,0.07-0.19,0.14-0.25,0.2c-0.1,0.04-0.22,0.14-0.32,0.19
					c-0.23,0.09-0.45,0.18-0.68,0.25c-0.2,0.03-0.43,0.07-0.67,0.08c-0.17,0.03-0.34,0-0.51,0c-0.17-0.03-0.34-0.03-0.51-0.06
					c-0.21-0.02-0.38-0.08-0.55-0.11c0.24-0.01,0.45-0.01,0.69-0.05c0.24-0.04,0.51-0.08,0.75-0.12c0.1-0.02,0.24-0.06,0.34-0.08
					C47.85,59.28,47.95,59.24,48.08,59.19z M43.01,46.47c-1.23,0.16-2.37,0.32-3.38,0.49c1.44-1.13,3.48-1.94,5.75-2.23
					c2.26-0.29,4.32-0.01,5.77,0.66c-0.07,0.01-0.14,0.02-0.21,0.03c-1.12,0.18-2.36,0.34-3.65,0.51
					C45.86,46.11,44.42,46.29,43.01,46.47z M44.38,62.48c0.17,0.03,0.35,0.05,0.53,0.06c-5.97,0.71-9.14-3-9.12-7.54
					c0-1.49,0.39-3.05,1.06-4.42c0,0.58,0,1.17,0,1.75c0,0.97,0,1.97,0,2.94c0,0.24,0,0.45,0,0.68c0,0.6,0.08,1.17,0.23,1.72
					c0.28,1.03,0.88,1.96,1.68,2.7c0.73,0.68,1.72,1.21,2.84,1.56C42.47,62.21,43.39,62.38,44.38,62.48z M40.46,51.56
					c0,0.05,0,0.05-0.03,0.11s-0.18-0.03-0.24,0.01c-0.03,0-0.12-0.01-0.09-0.04c0-0.03,0.03-0.11,0.06-0.12
					c0.03-0.03,0.09-0.07,0.12-0.04c0,0,0,0,0.03,0.02c0,0.03,0.03,0.02,0.06,0.02C40.43,51.51,40.43,51.51,40.46,51.56z
					 M58.42,46.14c-0.78,0.75-1.16,1.13-1.9,1.88c0.02,0.07,0.02,0.11,0.04,0.18c-0.08,0.04-0.11,0.05-0.19,0.09
					c-0.33-0.47-0.5-0.71-0.81-1.19c0.07-0.04,0.11-0.05,0.18-0.09c0.1,0.12,0.15,0.18,0.26,0.29c0.16-0.16,0.25-0.24,0.42-0.4
					c-0.21-0.23-0.32-0.35-0.52-0.59c-0.24,0.07-0.35,0.1-0.58,0.17c0.04,0.07,0.06,0.1,0.11,0.16c-0.06,0.04-0.09,0.06-0.14,0.11
					c-0.19-0.18-0.28-0.26-0.46-0.44c0.06-0.04,0.08-0.06,0.14-0.11c0.07,0.06,0.11,0.09,0.18,0.15c1.04-0.3,1.61-0.46,2.77-0.77
					C58.11,45.81,58.21,45.92,58.42,46.14z M55.95,51.72C55.73,57,50.89,61.9,45.48,62.71c-6.33,0.95-9.94-2.87-9.92-7.68
					c0.01-1.67,0.49-3.41,1.29-4.93c0-0.36,0-0.72,0-1.08c0-0.51,0-1.02,0-1.55c0.21-0.04,0.41-0.07,0.64-0.12
					c0.56-0.1,1.09-0.21,1.7-0.32c1.47-1.3,3.69-2.22,6.19-2.54c2.48-0.32,4.74,0.03,6.22,0.83c0.54-0.09,1.02-0.19,1.61-0.3
					c0.01,0,0.02,0,0.03-0.01c0.04-0.01,0.08-0.02,0.12-0.02c0.07-0.01,0.14-0.03,0.21-0.04c0.11-0.02,0.23-0.04,0.35-0.07
					c0.12-0.02,0.24-0.05,0.36-0.07c0,0.29,0,0.59,0,0.87c-0.01,0.6-0.03,1.2-0.03,1.8C55.25,48.62,56.01,50.07,55.95,51.72z
					 M54.82,43.36c0.35,0.21,0.53,0.31,0.89,0.52c-0.09,0.56-0.13,0.83-0.22,1.39c0.36-0.27,0.55-0.41,0.93-0.68
					c-0.08-0.06-0.11-0.09-0.19-0.15c0.08-0.06,0.11-0.08,0.19-0.14c0.24,0.19,0.37,0.28,0.61,0.46c-0.08,0.06-0.12,0.09-0.19,0.14
					c-0.08-0.06-0.12-0.09-0.19-0.15c-0.85,0.57-1.26,0.86-2.01,1.42c-0.11-0.08-0.16-0.13-0.27-0.21c0-0.07,0-0.11,0-0.19
					c0.08-0.62,0.12-0.93,0.21-1.55c-0.23,0.22-0.35,0.34-0.57,0.56c-0.14,0.03-0.21,0.04-0.35,0.07c0.46-0.48,0.71-0.73,1.23-1.22
					c-0.08-0.06-0.13-0.09-0.21-0.15C54.74,43.44,54.76,43.41,54.82,43.36z M52.86,42.44c0.35,0.17,0.53,0.26,0.93,0.42
					c0,0,0.61,0.43,0.13,1.17c-0.31,0.48-1.02,0.75-1.48,0.57c-0.13-0.03-0.67-0.45-0.67-0.45s-0.42-0.24-0.28-0.84
					C51.59,42.87,51.91,42.29,52.86,42.44z M50.7,41.65c0,0,1.21,0.33,1.21,0.35c0.03,0.02-0.05,0.17-0.05,0.17
					c-0.09-0.03-0.13-0.04-0.22-0.07c-0.28,0.63-0.43,0.95-0.72,1.59c0.09,0.04,0.14,0.06,0.23,0.1c-0.03,0.06-0.05,0.09-0.08,0.15
					c0,0-1.17-0.37-1.29-0.35c0.01-0.06,0.02-0.08,0.03-0.14c0.11,0.02,0.17,0.03,0.28,0.04c0.31-0.65,0.46-0.97,0.77-1.62
					c-0.09-0.04-0.14-0.06-0.24-0.1C50.65,41.73,50.67,41.7,50.7,41.65z M47.77,41.38c0-0.03,1.69-0.01,2.6,0.21
					c-0.06,0.19-0.09,0.29-0.15,0.48c-0.09-0.01-0.13-0.01-0.21-0.02c0.02-0.08,0.04-0.12,0.06-0.2c0,0-0.47-0.18-0.53-0.17
					c0,0-0.46,1.59-0.46,1.62c0.1,0.02,0.16,0.03,0.26,0.05c-0.01,0.07-0.02,0.1-0.03,0.17c0,0-1.38-0.17-1.55-0.15
					c0.01-0.06,0.02-0.08,0.03-0.14c0.12,0,0.18-0.01,0.3-0.01c0.19-0.64,0.29-0.96,0.48-1.59c-0.26,0.02-0.39,0.04-0.66,0.06
					c-0.03,0.07-0.04,0.1-0.07,0.17c-0.08,0-0.12,0-0.2,0C47.64,41.85,47.74,41.44,47.77,41.38z M44.4,43.51
					c0.42-0.8,0.64-1.19,1.06-1.99c0.33-0.03,0.49-0.05,0.82-0.08c0.39,0.71,0.58,1.07,0.96,1.78c0.09,0,0.14,0,0.24,0
					c0,0.07,0,0.1,0,0.16c0,0-1.37,0.04-1.57,0.09c-0.01-0.06-0.02-0.09-0.04-0.16c0.11-0.02,0.16-0.04,0.27-0.06
					c-0.1-0.16-0.15-0.24-0.24-0.4c-0.38,0.06-0.58,0.09-0.96,0.15c-0.08,0.17-0.12,0.26-0.21,0.43c0.08-0.01,0.12-0.02,0.21-0.03
					c0.01,0.07,0.02,0.11,0.04,0.18c0,0-0.69,0.09-0.79,0.13c-0.01-0.06-0.02-0.09-0.04-0.16C44.26,43.54,44.31,43.53,44.4,43.51z
					 M42.07,42.27c0.54,0.34,0.82,0.51,1.38,0.85c-0.05-0.42-0.08-0.63-0.13-1.05c-0.12,0.03-0.18,0.04-0.3,0.07
					c-0.01-0.05-0.02-0.08-0.03-0.13c0.35-0.09,0.52-0.14,0.87-0.22c0.01,0.06,0.02,0.09,0.03,0.16c-0.12,0.04-0.18,0.06-0.3,0.09
					c0.11,0.7,0.15,1.05,0.27,1.76c-0.31,0.07-0.47,0.11-0.77,0.19c-0.55-0.35-0.82-0.52-1.34-0.86c0.14,0.41,0.2,0.61,0.35,1.02
					c0.09-0.03,0.14-0.05,0.23-0.09c0.01,0.06,0.02,0.09,0.03,0.16c-0.29,0.1-0.43,0.16-0.71,0.26c-0.03-0.05-0.04-0.08-0.06-0.13
					c0.1-0.04,0.15-0.05,0.26-0.09c-0.22-0.61-0.32-0.92-0.53-1.53c-0.09,0.03-0.13,0.05-0.22,0.09c-0.02-0.06-0.04-0.09-0.06-0.15
					C41.43,42.5,41.64,42.43,42.07,42.27z M39.83,43.25c0.45-0.13,0.96,0.41,0.4,0.93c0,0,0.09,0.01,0.24-0.04s0.3,0.09,0.33,0.08
					c0.03,0.02,0.15,0.22,0.15,0.25c0.03,0.02,0.12,0.06,0.16,0.06c0.06-0.01,0.16-0.05,0.16-0.05c0.01-0.01,0.02-0.02,0.03-0.03
					c0.03,0.06,0.04,0.09,0.06,0.15c-0.24,0.11-0.36,0.17-0.59,0.28c0,0-0.3,0.13-0.33,0.1c-0.03,0-0.15,0.02-0.18-0.03
					c-0.06-0.07-0.32-0.49-0.32-0.49s-0.06-0.04-0.09-0.04c-0.06,0.04-0.17,0.08-0.17,0.08c-0.12,0.07-0.19,0.11-0.31,0.19
					c0.14,0.23,0.22,0.35,0.36,0.58c0,0,0,0.03,0.06-0.01c0.06-0.01,0.14-0.1,0.14-0.1c0.03,0.06,0.05,0.09,0.09,0.15
					c-0.45,0.31-0.67,0.46-1.08,0.77c-0.04-0.04-0.06-0.05-0.1-0.09c0.07-0.07,0.11-0.1,0.18-0.17c-0.32-0.52-0.46-0.78-0.76-1.3
					c-0.07,0.06-0.1,0.08-0.18,0.14c-0.04-0.04-0.06-0.05-0.1-0.09C38,44.58,39.43,43.37,39.83,43.25z M37.67,44.85
					c0.1,0.13,0.15,0.2,0.25,0.33c-0.04,0.05-0.06,0.08-0.1,0.13c-0.05-0.05-0.08-0.08-0.13-0.14c0,0-0.35,0.17-0.74,0.62
					c0.18,0.18,0.28,0.27,0.46,0.45c0,0,0.25-0.18,0.23-0.26c-0.04-0.04-0.06-0.05-0.1-0.09c0.04-0.05,0.06-0.08,0.1-0.13
					c0.13,0.15,0.2,0.22,0.33,0.37c-0.04,0.04-0.06,0.06-0.1,0.1c-0.05-0.04-0.08-0.07-0.13-0.11c-0.08,0.09-0.12,0.14-0.2,0.23
					c0,0,0,0.03,0,0.05c0.03,0,0.45,0.42,0.45,0.42s0,0,0.03-0.03c0.05-0.04,0.4-0.48,0.42-0.62c0,0-0.02-0.05-0.07-0.09
					s-0.02-0.05-0.02-0.05c0.05-0.05,0.07-0.08,0.12-0.13c0.11,0.15,0.16,0.23,0.28,0.38c-0.36,0.37-0.52,0.55-0.87,0.92
					c-0.24,0.05-0.36,0.07-0.61,0.11c-0.36-0.35-0.54-0.53-0.9-0.89c-0.06,0.09-0.09,0.13-0.16,0.21c-0.04-0.04-0.06-0.05-0.1-0.09
					C36.13,46.47,37.52,44.94,37.67,44.85z M35.95,46.74c0.13,0.11,0.2,0.16,0.34,0.27c-0.05,0.06-0.08,0.09-0.13,0.16
					c-0.05-0.03-0.08-0.05-0.13-0.09c0,0-0.26,0.18-0.44,0.42c0.47,0.31,0.7,0.46,1.16,0.77c0,0.15,0,0.23,0,0.38
					c-0.15,0.25-0.23,0.38-0.39,0.63c-0.05-0.02-0.08-0.04-0.13-0.06c0.05-0.08,0.08-0.13,0.13-0.21c-0.5-0.32-0.75-0.49-1.25-0.82
					c0,0-0.18,0.35-0.24,0.57c0.05,0.05,0.08,0.07,0.13,0.11c-0.03,0.05-0.05,0.07-0.08,0.12c-0.16-0.07-0.24-0.11-0.39-0.18
					C34.59,48.64,35.79,46.87,35.95,46.74z M33.77,50.39c0.61-0.17,0.92-0.26,1.53-0.44c-0.39-0.16-0.58-0.25-0.97-0.42
					c-0.05,0.09-0.08,0.14-0.13,0.23c-0.05-0.02-0.08-0.04-0.13-0.06c0.14-0.27,0.21-0.4,0.34-0.67c0.05,0.02,0.08,0.04,0.13,0.06
					c-0.05,0.09-0.08,0.14-0.13,0.23c0.63,0.26,0.95,0.39,1.57,0.64c-0.13,0.28-0.2,0.42-0.34,0.7c-0.57,0.17-0.86,0.25-1.44,0.41
					c0.41,0.1,0.62,0.15,1.02,0.25c0.04-0.09,0.06-0.14,0.1-0.23c0.05,0.02,0.08,0.04,0.13,0.06c-0.09,0.26-0.14,0.39-0.24,0.65
					c-0.05-0.01-0.08-0.02-0.13-0.03c0.03-0.09,0.05-0.14,0.08-0.23c-0.61-0.15-0.91-0.23-1.53-0.4c-0.04,0.1-0.06,0.15-0.11,0.26
					c-0.05-0.03-0.08-0.04-0.13-0.06C33.55,50.97,33.63,50.77,33.77,50.39z M33.27,51.82c0.05,0,0.08,0.01,0.13,0.01
					c-0.02,0.09-0.03,0.13-0.05,0.22c0.64,0.08,0.95,0.11,1.58,0.18c0.03-0.09,0.05-0.14,0.08-0.23c0.05,0.01,0.08,0.02,0.13,0.03
					c-0.12,0.51-0.17,0.77-0.29,1.28c-0.06,0-0.09,0-0.16,0c0.02-0.1,0.03-0.15,0.05-0.25c-0.63-0.08-0.95-0.12-1.58-0.21
					c-0.02,0.1-0.03,0.15-0.05,0.25c-0.06,0-0.1,0-0.16-0.01C33.08,52.59,33.14,52.33,33.27,51.82z M33.54,54.98
					c0.08-0.25,0.13-0.37,0.21-0.62c0.06,0.23,0.1,0.34,0.16,0.57c0.24-0.03,0.36-0.05,0.61-0.09c-0.2,0.18-0.3,0.27-0.5,0.45
					c0.07,0.22,0.11,0.33,0.18,0.54c-0.19-0.12-0.28-0.18-0.47-0.3c-0.21,0.18-0.32,0.28-0.53,0.46c0.09-0.25,0.13-0.38,0.21-0.63
					c-0.19-0.12-0.29-0.19-0.48-0.31C33.17,55.03,33.29,55.01,33.54,54.98z M33.58,59.71c-0.17-0.45-0.25-0.68-0.42-1.14
					c0.05-0.03,0.08-0.04,0.13-0.07c0.04,0.09,0.06,0.13,0.11,0.22c0.41-0.21,0.62-0.32,1.03-0.54c-0.54,0.03-0.81,0.04-1.35,0.06
					c-0.04-0.15-0.06-0.23-0.1-0.38c0.47-0.35,0.7-0.53,1.17-0.89c-0.44,0.14-0.67,0.2-1.11,0.33c0.02,0.08,0.03,0.12,0.05,0.2
					c-0.05,0.03-0.08,0.04-0.13,0.07c-0.05-0.26-0.08-0.4-0.13-0.66c0.05-0.02,0.08-0.03,0.13-0.04c0.02,0.09,0.03,0.14,0.05,0.23
					c0.65-0.19,0.97-0.29,1.61-0.48c-0.01-0.1-0.02-0.15-0.03-0.26c0.06-0.02,0.09-0.03,0.16-0.05c0,0,0.13,0.91,0.15,0.96
					c0.05,0.02-0.84,0.72-0.84,0.72c0.41-0.01,0.62-0.01,1.03-0.02c0.14,0.32,0.2,0.48,0.34,0.81c-0.05,0.04-0.08,0.06-0.13,0.1
					c-0.05-0.1-0.08-0.14-0.13-0.24c-0.61,0.31-0.91,0.46-1.53,0.77c0.03,0.09,0.05,0.13,0.08,0.22
					C33.65,59.67,33.63,59.68,33.58,59.71z M34.41,61.17c-0.08-0.09-0.39-0.67-0.39-0.67s-0.21-0.37,0.13-0.88
					c0.23-0.35,0.79-0.79,1.47-0.32c0.18,0.3,0.26,0.45,0.44,0.74c0,0,0.16,0.63-0.34,1.09C35.36,61.45,34.73,61.54,34.41,61.17z
					 M35.85,62.92c0.14-0.63,0.21-0.95,0.34-1.58c-0.35,0.32-0.53,0.47-0.89,0.79c0.06,0.07,0.09,0.11,0.16,0.19
					c-0.04,0.04-0.06,0.06-0.1,0.09c-0.18-0.2-0.27-0.31-0.44-0.51c0.05-0.04,0.08-0.06,0.13-0.1c0.06,0.07,0.09,0.11,0.16,0.19
					c0.51-0.48,0.77-0.71,1.28-1.18c-0.05-0.05-0.08-0.07-0.13-0.11c0.05-0.05,0.08-0.07,0.13-0.12c0.2,0.22,0.29,0.32,0.49,0.54
					c-0.14,0.63-0.2,0.95-0.34,1.58c0.31-0.35,0.47-0.52,0.77-0.86c-0.05-0.06-0.08-0.09-0.13-0.15c0.04-0.05,0.06-0.07,0.1-0.12
					c0.15,0.14,0.23,0.22,0.38,0.36c-0.03,0.06-0.05,0.08-0.08,0.14c-0.05-0.05-0.08-0.07-0.13-0.12c-0.48,0.56-0.72,0.84-1.21,1.4
					C36.15,63.18,36.05,63.09,35.85,62.92z M38.55,62.75c-0.17,0.24-0.26,0.36-0.43,0.6c0.08,0.06,0.12,0.09,0.2,0.15
					c0.04-0.04,0.06-0.07,0.1-0.11c0.05,0.03,0.08,0.05,0.13,0.08c-0.1,0.17-0.15,0.26-0.25,0.43c-0.05-0.02-0.08-0.03-0.13-0.05
					c0.04-0.08,0.06-0.11,0.1-0.19c-0.09-0.06-0.14-0.09-0.23-0.15c-0.19,0.23-0.29,0.35-0.49,0.58c0,0,0.33,0.27,0.64,0.35
					c0.05-0.09,0.08-0.13,0.13-0.22c0.06,0.04,0.09,0.06,0.15,0.11c-0.1,0.16-0.15,0.24-0.25,0.4c0,0-1.33-0.92-1.49-1.08
					c0.03-0.04,0.05-0.07,0.08-0.11c0.06,0.05,0.09,0.07,0.15,0.12c0.4-0.55,0.6-0.82,1-1.37c-0.05-0.05-0.08-0.08-0.13-0.12
					c0.03-0.06,0.05-0.08,0.08-0.14c0,0,0.72,0.66,1.39,1c-0.11,0.18-0.17,0.27-0.27,0.45c-0.05-0.03-0.08-0.04-0.14-0.07
					c0.04-0.09,0.06-0.13,0.11-0.22C39,63.19,38.75,62.82,38.55,62.75z M40.26,65.58c-0.53-0.16-0.78-0.24-1.26-0.43
					c0.02-0.05,0.03-0.08,0.05-0.14c0.1,0.04,0.15,0.06,0.25,0.1c0.27-0.62,0.41-0.94,0.69-1.59c0,0-0.38-0.08-0.49-0.02
					c-0.05,0.05-0.07,0.07-0.11,0.12c-0.06-0.03-0.08-0.04-0.14-0.07c0.09-0.18,0.13-0.27,0.22-0.45c0,0,1.36,0.57,2.17,0.66
					c-0.06,0.19-0.1,0.29-0.16,0.49c-0.09-0.01-0.13-0.02-0.22-0.03c0.03-0.08,0.04-0.12,0.06-0.2c0,0-0.44-0.23-0.47-0.25
					c-0.31,0.66-0.46,0.98-0.76,1.61c0.1,0.02,0.14,0.04,0.24,0.06C40.3,65.5,40.29,65.53,40.26,65.58z M43.69,65.82
					c0,0-1.54,0.02-1.67,0.01c0-0.04,0-0.06,0-0.11c0.16-0.01,0.24-0.02,0.39-0.03c-0.03-0.17-0.04-0.25-0.06-0.42
					c-0.42-0.03-0.63-0.04-1.04-0.08c-0.13,0.15-0.19,0.23-0.32,0.38c0.09,0.02,0.13,0.03,0.22,0.05c-0.04,0.05-0.06,0.07-0.09,0.12
					c-0.26-0.05-0.39-0.08-0.65-0.14c0.02-0.05,0.04-0.07,0.06-0.11c0.09,0,0.13,0,0.22,0c0.55-0.67,0.83-1,1.41-1.7
					c0.36,0.03,0.54,0.04,0.9,0.07c0.19,0.75,0.28,1.09,0.47,1.81c0.07-0.01,0.1-0.02,0.17-0.03
					C43.69,65.73,43.69,65.76,43.69,65.82z M46.16,65.46c-0.07-0.01-0.24-0.09-0.24-0.11c0-0.03-0.03-0.57-0.03-0.57
					s-0.1-0.14-0.14-0.11c-0.03,0.01-0.48,0.08-0.48,0.08c-0.02,0.3-0.02,0.45-0.04,0.74c0.08-0.01,0.12-0.02,0.21-0.04
					c0.01,0.06,0.02,0.09,0.03,0.15c0,0-1.47,0.2-1.51,0.2c-0.03,0.01,0-0.16,0-0.16c0.1-0.02,0.14-0.02,0.24-0.04
					c0.04-0.65,0.07-0.98,0.11-1.63c-0.1,0-0.14,0.01-0.24,0.01c-0.01-0.06-0.02-0.09-0.03-0.16c0,0,1.58-0.15,2.2-0.31
					c0,0,0.2-0.04,0.31-0.03c0.1-0.02,0.47,0.1,0.47,0.41s-0.51,0.61-0.51,0.61s0.37,0.14,0.37,0.41c0.03,0.1,0,0.13,0,0.13
					s0.03-0.01,0.03,0.02c0.07,0.04,0.27,0,0.27,0c0.01-0.01,0.02-0.02,0.03-0.03c0.03,0.06,0.04,0.09,0.07,0.15
					C47.28,65.2,46.22,65.45,46.16,65.46z M49.97,62.36c-0.21,0.47-0.32,0.71-0.53,1.18c0.09,0.27,0.13,0.4,0.21,0.67
					c0.1-0.03,0.15-0.04,0.25-0.07c0.02,0.05,0.04,0.07,0.06,0.12c-0.56,0.21-0.85,0.32-1.45,0.54c-0.03-0.04-0.04-0.06-0.06-0.09
					c0.12-0.05,0.18-0.08,0.29-0.13c-0.09-0.27-0.13-0.4-0.22-0.67c-0.48-0.21-0.72-0.31-1.22-0.51c-0.08,0.02-0.12,0.04-0.2,0.06
					c-0.01-0.06-0.02-0.09-0.03-0.15c0.65-0.2,0.97-0.3,1.59-0.5c0,0,0.06,0.1,0.06,0.12c0,0.03-0.23,0.04-0.19,0.09
					c0,0.03,0.73,0.34,0.73,0.34s0.44-0.76,0.41-0.87c-0.07,0.03-0.11,0.05-0.19,0.09c-0.02-0.05-0.04-0.07-0.06-0.12
					c0.28-0.13,0.41-0.2,0.68-0.33c0.04,0.04,0.05,0.05,0.09,0.09C50.1,62.27,50.05,62.3,49.97,62.36z M52.26,62.94
					c-0.04-0.05-0.06-0.07-0.1-0.12c0.07-0.06,0.1-0.09,0.17-0.16c-0.32-0.52-0.47-0.78-0.81-1.29c-0.1,0.06-0.15,0.09-0.24,0.15
					c-0.02-0.04-0.03-0.06-0.05-0.1c0,0,1.26-0.96,1.51-1.35c0.13,0.14,0.2,0.21,0.34,0.34c-0.06,0.06-0.09,0.1-0.14,0.16
					c-0.07-0.05-0.1-0.08-0.17-0.13c0,0-0.42,0.18-0.59,0.4c0.15,0.23,0.22,0.35,0.38,0.58c0.1-0.09,0.14-0.14,0.24-0.23
					c-0.03-0.06-0.05-0.09-0.08-0.15c0.07-0.05,0.1-0.08,0.17-0.14c0.13,0.14,0.2,0.21,0.35,0.35c-0.07,0.07-0.11,0.1-0.17,0.17
					c-0.05-0.05-0.07-0.07-0.11-0.12c-0.11,0.09-0.17,0.14-0.28,0.23c0.15,0.22,0.23,0.33,0.39,0.56c0.08-0.07,0.12-0.1,0.2-0.17
					c0.05,0.05,0.07,0.07,0.12,0.11C52.88,62.42,52.65,62.6,52.26,62.94z M56.01,59.63c-0.07,0.07-0.8,0.78-0.8,0.78
					s-0.35,0.23-0.53,0.26c-0.14,0.03-0.41-0.01-0.47-0.08c-0.1-0.04-1.06-0.73-1.06-0.73c-0.06,0.06-0.09,0.1-0.14,0.16
					c-0.03-0.04-0.05-0.06-0.09-0.09c0.34-0.41,0.52-0.61,0.9-1.03c0.06,0.04,0.1,0.06,0.16,0.11c-0.06,0.07-0.1,0.1-0.16,0.17
					c0.42,0.29,0.64,0.43,1.11,0.72c0,0,0.28,0.08,0.53-0.1c0.25-0.16,0.44-0.31,0.36-0.53c-0.07-0.2-0.15-0.19-0.22-0.23
					c-0.11-0.03-1.16-0.57-1.16-0.57c-0.07,0.09-0.1,0.13-0.17,0.22c-0.07-0.04-0.1-0.06-0.16-0.1c0.18-0.23,0.28-0.35,0.47-0.58
					c0.07,0.03,0.1,0.05,0.17,0.08c-0.06,0.08-0.08,0.11-0.14,0.19c0.47,0.23,0.71,0.34,1.21,0.56c0,0,0.3,0.27,0.3,0.46
					C56.08,59.48,56.05,59.59,56.01,59.63z M58.18,56.93c-0.95,0.28-1.41,0.43-2.29,0.7c0.48,0.17,0.72,0.26,1.22,0.42
					c0.08-0.11,0.12-0.17,0.19-0.28c0.08,0.02,0.12,0.03,0.2,0.05c-0.24,0.28-0.35,0.43-0.59,0.71c-0.06-0.02-0.09-0.03-0.16-0.05
					c0.08-0.1,0.12-0.15,0.19-0.25c-0.79-0.22-1.18-0.33-1.9-0.56c-0.07,0.08-0.11,0.12-0.17,0.2c-0.06-0.02-0.08-0.03-0.14-0.05
					c0.19-0.3,0.29-0.45,0.49-0.75c0.86-0.3,1.32-0.45,2.27-0.76c-0.57-0.09-0.85-0.14-1.39-0.23c-0.06,0.09-0.09,0.13-0.15,0.22
					c-0.07-0.02-0.11-0.03-0.19-0.05c0.15-0.25,0.22-0.37,0.37-0.62c0.08,0.01,0.11,0.01,0.19,0.02c-0.05,0.09-0.07,0.13-0.11,0.21
					c0.92,0.14,1.41,0.21,2.4,0.34C58.45,56.49,58.36,56.63,58.18,56.93z M58.99,55.61c-0.1,0-0.15-0.01-0.24-0.01
					c0.05-0.12,0.07-0.18,0.12-0.29c-0.94-0.05-1.41-0.07-2.3-0.12c-0.05,0.1-0.07,0.14-0.11,0.24c-0.08-0.01-0.11-0.01-0.19-0.02
					c0.25-0.66,0.38-0.99,0.65-1.65c0,0,0.46-0.77,1.55-0.8c0.93-0.03,1.31,0.45,1.27,0.79C59.72,54.06,58.99,55.61,58.99,55.61z
					 M59.09,51.33c0.13,0.22,0.2,0.33,0.33,0.54c-0.31-0.1-0.47-0.15-0.78-0.25c-0.32,0.22-0.49,0.33-0.8,0.55
					c0.13-0.27,0.19-0.41,0.32-0.69c-0.29-0.1-0.43-0.15-0.72-0.25c0.36-0.07,0.55-0.1,0.92-0.17c0.13-0.26,0.2-0.38,0.33-0.64
					c0.1,0.22,0.15,0.32,0.24,0.54c0.37-0.06,0.56-0.1,0.94-0.16C59.56,51.03,59.4,51.13,59.09,51.33z M59.63,48.73
					c-0.05-0.1-0.07-0.15-0.12-0.24c-0.97,0.32-1.45,0.49-2.37,0.82c0,0,0.12,0.53,0.31,0.55c0.14-0.03,0.21-0.04,0.36-0.07
					c0,0.07,0,0.11,0,0.18c-0.29,0.08-0.43,0.13-0.71,0.21c0,0-0.42-1.64-0.57-1.71c0.06-0.03,0.09-0.05,0.15-0.08
					c0.06,0.08,0.09,0.13,0.15,0.21c0.93-0.33,1.42-0.5,2.4-0.83c-0.03-0.1-0.05-0.15-0.08-0.25c0.08-0.02,0.12-0.04,0.2-0.06
					c0.21,0.47,0.32,0.71,0.53,1.18C59.78,48.67,59.73,48.69,59.63,48.73z M45.86,63.75c0,0,0.07,0.04,0.1,0.06
					c0,0.05-0.04,0.56-0.04,0.56s0,0.08-0.07,0.12c-0.07,0.01-0.55,0.09-0.55,0.09c0.03-0.3,0.04-0.45,0.07-0.75
					C45.57,63.8,45.67,63.79,45.86,63.75z M56.56,46.72c-0.16-0.18-0.24-0.27-0.4-0.45c0.47-0.13,0.72-0.2,1.21-0.33
					C57.05,46.25,56.89,46.41,56.56,46.72z M35.75,60.15c-0.03,0.03-0.37,0.34-0.92,0.7c0,0-0.24,0.16-0.39,0.03
					c0,0-0.13-0.11-0.13-0.16c-0.03-0.05-0.05-0.1,0-0.21c0.05-0.09,0.05-0.16,0.19-0.26c0.13-0.1,0.66-0.48,0.66-0.48
					s0.24-0.16,0.31-0.12c0.1,0.01,0.16,0.03,0.18,0.05c0.05,0.04,0.08,0.12,0.08,0.12S35.88,59.97,35.75,60.15z M42.09,64.34
					c0.09,0.32,0.14,0.48,0.23,0.79c-0.36-0.04-0.53-0.06-0.88-0.1C41.7,64.75,41.83,64.62,42.09,64.34z M59.27,53.9
					c0.25-0.02,0.16,0.14,0.16,0.14c-0.06,0.17-0.1,0.26-0.16,0.44c0,0-2.36-0.09-2.36-0.12c0,0,0.04-0.2,0.08-0.34
					c0.08-0.15,0.27-0.13,0.27-0.13S59.02,53.88,59.27,53.9z"/>
			</g>
		</g>
	</g>
</g>
</svg>
