<!DOCTYPE svg PUBLIC "-//W3C//DTD SVG 20010904//EN" "http://www.w3.org/TR/2001/REC-SVG-20010904/DTD/svg10.dtd">
<svg version="1.0" xmlns="http://www.w3.org/2000/svg" width="1006px" height="1024px" viewBox="0 0 10060 10240" preserveAspectRatio="xMidYMid meet">
<g id="layer101" fill="#ff0546" stroke="none">
 <path d="M4470 10219 c-147 -9 -200 -18 -380 -61 -83 -19 -245 -69 -285 -88 -162 -73 -293 -143 -393 -209 -347 -230 -650 -669 -745 -1082 -8 -35 -21 -89 -27 -119 -8 -33 -14 -149 -16 -285 -4 -212 -5 -230 -21 -228 -10 1 -52 7 -93 13 -241 35 -539 37 -689 5 -225 -48 -430 -158 -603 -323 -179 -171 -298 -387 -369 -669 -32 -124 -33 -135 -33 -338 0 -183 3 -224 23 -314 49 -223 161 -474 285 -641 173 -232 570 -526 881 -651 120 -49 151 -59 350 -118 134 -40 521 -139 613 -156 87 -17 111 -32 82 -50 -23 -14 -250 -330 -250 -348 0 -5 15 1 34 12 48 30 106 28 145 -5 28 -23 31 -31 31 -82 -1 -154 -139 -256 -232 -173 -31 27 -33 34 -32 88 1 32 7 69 13 82 7 12 11 25 9 27 -3 2 -37 -46 -77 -107 -41 -60 -71 -112 -69 -115 3 -2 18 0 34 6 44 17 110 4 134 -27 40 -52 15 -143 -57 -202 -47 -39 -115 -43 -158 -9 -25 20 -27 25 -22 77 2 31 7 64 11 73 6 14 -1 18 -40 24 -148 22 -365 -31 -449 -110 l-32 -31 -134 4 c-140 3 -251 -8 -379 -41 -93 -23 -180 -57 -180 -70 0 -6 -27 -46 -61 -90 -59 -79 -119 -187 -161 -291 -20 -50 -26 -72 -49 -162 -85 -333 -29 -765 155 -1206 20 -47 56 -120 80 -162 44 -77 47 -96 9 -55 -42 46 -153 219 -196 305 -125 250 -202 615 -181 861 5 54 8 103 7 111 -4 43 90 340 120 379 5 6 7 12 4 12 -13 0 115 181 142 201 17 12 32 28 35 36 8 21 -11 7 -75 -54 -87 -84 -179 -254 -219 -408 -7 -27 -16 -54 -20 -58 -4 -5 -5 -28 -3 -51 4 -35 1 -47 -18 -68 -53 -58 -129 -54 -215 11 -90 68 -121 140 -88 208 15 29 29 42 63 54 25 9 40 18 35 20 -5 2 -19 16 -30 31 l-21 27 -21 -29 c-44 -59 -126 -52 -202 17 -82 74 -111 154 -82 226 12 29 36 42 93 52 l37 6 -21 52 -20 53 -23 -23 c-33 -33 -93 -31 -133 3 -42 35 -65 116 -59 204 7 96 46 143 118 143 l30 0 0 84 c0 46 0 86 0 91 0 4 -6 7 -13 8 -60 2 -91 47 -92 129 0 126 81 213 151 160 10 -8 22 -15 26 -15 4 0 26 36 49 80 101 195 322 312 533 281 166 -24 280 -129 328 -300 30 -107 20 -200 -33 -306 -32 -63 -116 -141 -168 -155 -56 -15 -137 -16 -187 -2 -65 19 -145 81 -181 142 -61 101 -40 228 49 304 82 71 167 54 226 -44 40 -67 42 -113 7 -135 -84 -51 -78 -45 -60 -65 25 -28 98 -43 146 -30 60 16 81 56 77 145 -6 127 -80 241 -190 290 -81 37 -158 32 -253 -15 -119 -59 -191 -141 -221 -252 -35 -132 6 -280 116 -415 94 -116 193 -163 343 -163 133 0 219 27 360 112 78 47 134 106 183 195 35 61 41 77 71 183 24 87 22 279 -5 358 -62 183 -194 332 -366 411 -254 117 -591 64 -848 -133 -311 -241 -457 -631 -412 -1105 19 -210 39 -310 86 -446 76 -218 162 -360 308 -506 116 -117 215 -188 354 -255 50 -25 107 -52 126 -62 29 -14 36 -24 42 -62 35 -200 75 -324 159 -499 102 -210 188 -329 354 -496 305 -305 711 -514 1149 -591 206 -36 518 -37 696 -3 254 49 422 104 648 214 299 145 453 254 682 484 143 144 267 303 334 432 26 49 51 89 56 89 8 0 60 -101 60 -115 0 -3 18 -42 40 -87 22 -46 40 -88 40 -94 0 -6 -75 -69 -167 -140 -486 -372 -604 -480 -718 -649 -68 -102 -117 -205 -151 -320 -23 -77 -27 -109 -27 -225 0 -137 8 -188 49 -290 113 -282 415 -487 796 -540 225 -31 530 66 685 218 219 214 229 483 33 873 -42 81 -61 99 -110 99 -128 0 -187 -127 -121 -258 33 -67 67 -161 77 -214 7 -43 5 -42 39 -26 77 35 143 -112 79 -176 -30 -29 -59 -33 -91 -11 -19 13 -21 13 -27 -8 -8 -32 -8 -37 8 -37 25 0 66 -41 66 -66 0 -57 -60 -124 -110 -124 -15 0 -39 9 -54 21 l-26 21 -37 -22 c-199 -117 -502 -47 -716 167 l-59 58 -20 -27 c-27 -38 -75 -38 -112 -2 -22 22 -26 36 -26 80 0 60 22 94 61 94 15 0 19 4 15 16 -3 9 -9 27 -12 40 -3 13 -12 24 -19 24 -21 0 -44 34 -51 76 -8 51 16 101 51 110 29 7 43 47 25 69 -13 15 -10 85 5 118 6 16 4 18 -16 17 -41 -4 -49 -1 -74 26 -62 67 -2 214 85 214 40 0 80 -50 80 -98 0 -35 -5 -46 -38 -100 -11 -20 -10 -20 25 -15 51 7 68 24 54 51 -39 73 55 195 126 163 33 -15 43 -6 31 27 -14 36 -5 72 28 111 l26 31 -28 10 c-38 15 -53 38 -54 82 0 64 71 128 145 128 50 0 75 -28 75 -85 0 -38 -5 -49 -37 -80 -30 -29 -33 -35 -16 -35 10 0 28 -7 39 -15 25 -19 34 -19 34 1 0 67 86 131 161 121 35 -5 40 -3 45 19 9 33 2 37 -32 19 -38 -19 -104 -19 -132 1 -17 12 -22 25 -22 58 0 72 61 126 142 126 65 0 99 -50 79 -117 l-9 -31 41 19 c55 24 98 24 131 -2 14 -11 31 -17 37 -13 8 4 45 -28 98 -83 336 -351 734 -575 1156 -649 152 -27 457 -25 589 3 104 23 210 68 304 130 70 46 217 186 283 270 48 59 53 62 137 88 95 30 187 73 242 114 272 200 430 429 460 664 22 179 -36 351 -187 550 -36 49 -158 179 -270 290 -237 235 -264 274 -246 360 23 115 -61 217 -180 217 -35 0 -46 -6 -82 -44 -56 -58 -79 -140 -73 -260 6 -120 52 -212 158 -316 75 -73 102 -95 320 -259 99 -74 198 -169 247 -236 l21 -30 17 23 c35 47 107 20 134 -51 36 -95 -14 -150 -101 -112 -15 6 -18 2 -18 -24 0 -42 -37 -137 -74 -191 -34 -50 -197 -223 -203 -216 -3 2 -21 -7 -40 -20 -49 -33 -85 -31 -116 6 -69 82 -26 220 69 220 50 0 90 -56 95 -130 0 -8 5 -1 10 15 5 17 10 102 11 190 0 133 -3 173 -21 240 -84 319 -317 494 -655 495 -175 0 -315 -34 -444 -107 -42 -24 -97 -63 -120 -86 -88 -85 -173 -234 -219 -384 -23 -77 -27 -105 -27 -233 -1 -96 4 -162 13 -195 51 -181 165 -318 331 -399 53 -25 103 -46 112 -46 42 0 24 -23 -44 -55 -59 -27 -69 -35 -53 -41 11 -4 34 -20 52 -37 l32 -30 9 24 c35 91 195 110 237 28 22 -42 18 -68 -16 -100 -34 -31 -29 -35 19 -18 62 22 142 -29 142 -91 0 -41 -34 -76 -91 -95 -58 -20 -86 -15 -128 21 -37 31 -42 78 -12 115 l19 25 -58 -1 c-48 0 -63 4 -84 24 -14 14 -26 32 -26 40 -1 9 -8 0 -16 -19 -8 -19 -25 -43 -37 -52 -22 -17 -22 -18 18 -18 78 0 138 -65 118 -127 -14 -42 -84 -76 -147 -70 -94 8 -138 98 -79 159 l27 28 -43 0 c-84 0 -146 105 -91 155 28 26 25 32 -18 37 l-38 3 4 -51 c4 -48 2 -53 -24 -70 -36 -24 -108 -22 -143 4 -63 46 -66 130 -6 159 l34 16 -55 34 c-30 18 -57 33 -60 33 -2 0 3 -14 11 -31 49 -94 -59 -151 -141 -74 -34 32 -36 38 -31 77 6 48 27 68 71 69 28 0 29 1 12 12 -10 7 -41 27 -69 45 -49 32 -66 31 -67 -4 0 -19 -45 -54 -69 -54 -31 0 -78 35 -97 72 -21 41 -5 104 31 120 l24 11 -58 71 c-72 87 -161 215 -161 232 0 6 6 14 13 17 52 20 353 273 457 384 305 324 466 657 486 1003 15 259 -46 550 -168 800 -43 90 -117 213 -138 230 -3 3 -21 25 -40 50 -34 42 -180 189 -217 215 -10 7 -15 16 -12 19 11 11 157 -13 235 -40 197 -65 325 -158 589 -426 387 -392 484 -476 650 -557 283 -139 732 -161 1095 -52 78 23 143 46 188 66 17 8 49 23 70 32 150 68 325 194 457 327 164 165 263 335 316 541 19 77 23 116 23 270 1 252 -30 398 -127 595 -57 116 -103 178 -216 291 -324 322 -838 430 -1237 259 -63 -27 -169 -98 -231 -154 -172 -155 -279 -414 -271 -652 3 -95 5 -106 33 -146 45 -65 122 -100 222 -102 89 -1 135 14 152 50 20 44 14 64 -18 64 -87 0 -99 175 -15 215 l35 16 -31 35 c-23 26 -30 44 -30 75 0 84 62 164 126 162 34 -1 35 0 29 28 -10 45 12 93 62 139 43 40 48 42 93 37 29 -4 66 0 95 9 27 8 65 14 85 14 69 0 212 -30 300 -64 114 -42 183 -84 282 -171 195 -170 297 -385 298 -622 0 -112 -14 -185 -60 -313 -55 -152 -126 -257 -238 -352 l-43 -36 26 -37 c55 -82 16 -159 -103 -205 -78 -30 -165 -27 -209 6 -27 21 -33 32 -33 64 0 31 -3 37 -17 35 -10 -2 -35 -7 -56 -10 l-37 -6 25 -37 c67 -98 -7 -192 -150 -192 -77 0 -144 20 -177 53 -38 39 -40 106 -3 142 13 14 29 25 35 25 6 0 8 5 5 10 -10 16 -53 12 -82 -7 -16 -11 -55 -20 -93 -23 l-65 -5 40 -21 c52 -26 88 -92 82 -147 -6 -48 -21 -65 -75 -89 -39 -17 -49 -18 -95 -7 -67 15 -114 39 -154 78 -37 35 -46 61 -41 116 5 62 39 80 149 79 l89 -2 -43 28 c-36 23 -46 36 -57 76 -7 27 -14 50 -15 52 -1 1 -15 -4 -31 -13 -40 -21 -71 -19 -130 9 -57 27 -89 61 -105 117 -16 51 10 125 50 142 14 6 28 12 29 13 2 1 -7 17 -20 36 -12 18 -24 34 -24 36 -1 2 -17 -6 -35 -17 -44 -27 -88 -26 -145 1 -65 30 -104 87 -104 150 0 79 40 128 105 128 14 0 25 4 25 8 0 17 -86 142 -93 136 -4 -4 -7 -22 -7 -39 0 -41 -31 -80 -75 -95 -30 -10 -41 -8 -87 15 -69 34 -94 59 -114 110 -19 50 -7 112 28 145 24 22 95 27 130 9 47 -25 24 8 -80 113 -61 62 -114 110 -117 107 -3 -3 0 -20 6 -37 21 -60 -37 -152 -94 -152 -27 0 -83 33 -119 71 -72 74 -36 209 55 209 l32 0 -25 20 c-14 10 -44 29 -67 41 -24 12 -43 26 -43 30 0 5 46 30 103 57 214 102 439 254 630 427 263 237 430 481 550 805 79 212 108 374 108 605 0 146 -4 190 -26 293 -48 225 -124 408 -256 612 -34 52 -64 97 -68 100 -3 3 -24 27 -46 55 -101 125 -295 297 -465 412 -226 152 -424 250 -685 338 -141 48 -353 94 -434 96 -25 0 -53 3 -62 7 -9 4 -64 52 -121 107 -57 55 -132 122 -168 148 -36 26 -73 54 -82 62 -9 7 -27 19 -40 26 -13 6 -25 15 -28 18 -3 3 -18 13 -35 21 -16 8 -41 22 -55 31 -42 28 -303 159 -317 159 -7 0 -21 4 -31 9 -49 26 -239 85 -387 120 -207 48 -554 69 -845 50z m1105 -201 c98 -19 115 -23 205 -52 249 -81 434 -190 601 -357 227 -226 346 -491 378 -841 12 -129 -6 -324 -39 -412 -18 -48 -74 -115 -87 -103 -2 2 6 25 17 51 30 71 60 233 60 325 0 317 -132 668 -335 890 -75 82 -141 143 -195 181 -19 13 -37 27 -40 30 -13 15 -135 83 -220 122 -91 43 -170 73 -255 96 -108 30 -186 56 -191 63 -3 5 -13 9 -23 9 -9 0 -26 7 -37 15 -17 13 -16 14 21 9 22 -3 85 -15 140 -26z m-734 -344 c26 -13 60 -39 75 -57 23 -27 39 -35 77 -40 39 -6 47 -4 47 9 0 9 16 32 35 51 l36 36 77 -5 c51 -3 91 -12 118 -26 55 -28 104 -85 104 -121 0 -25 6 -31 53 -49 28 -11 60 -23 70 -27 12 -5 17 -2 17 8 0 8 14 27 31 41 26 22 40 26 93 26 127 0 203 -43 225 -127 18 -68 -8 -109 -89 -138 -65 -23 -196 -152 -274 -270 -125 -188 -163 -319 -173 -593 l-6 -182 -25 16 c-24 16 -25 16 -18 -7 35 -115 32 -154 -15 -193 -17 -14 -36 -26 -42 -26 -31 1 -87 53 -117 109 -28 53 -30 83 -11 127 23 50 51 68 97 61 l34 -6 -23 42 c-13 23 -27 55 -31 70 l-7 29 -39 -36 c-65 -58 -111 -46 -135 37 -19 64 -7 148 26 183 33 35 76 49 110 37 31 -12 33 -11 43 30 6 25 4 27 -27 27 -43 0 -63 22 -76 82 -15 65 1 144 36 180 35 36 104 40 140 7 20 -20 23 -20 29 -5 7 19 -34 78 -71 102 -34 22 -96 29 -138 15 -107 -36 -234 -220 -273 -396 -17 -77 -17 -224 0 -295 36 -150 130 -314 246 -431 84 -84 228 -178 319 -209 39 -14 71 -30 71 -36 0 -16 106 -219 143 -274 39 -59 139 -162 204 -211 102 -76 322 -176 453 -204 144 -31 246 -37 364 -19 258 38 422 123 562 292 103 125 199 354 234 555 30 180 -109 447 -301 578 -53 36 -64 39 -124 39 -60 0 -68 -3 -101 -33 -29 -26 -37 -42 -41 -80 -6 -51 -3 -54 30 -33 53 35 129 -29 143 -120 7 -48 -8 -99 -32 -108 -23 -9 -16 -26 11 -26 100 0 114 -211 17 -255 -27 -12 -33 -36 -16 -60 20 -28 17 -85 -7 -125 -28 -45 -47 -59 -81 -60 -15 0 -52 -17 -82 -39 -31 -21 -69 -44 -86 -50 -16 -6 -43 -16 -59 -22 l-30 -11 20 -31 c25 -42 24 -60 -4 -93 -33 -38 -116 -45 -176 -15 -56 29 -70 65 -47 121 5 12 -5 19 -39 29 -25 7 -84 33 -131 56 -47 24 -106 46 -132 50 -186 27 -322 252 -322 531 0 57 4 105 9 108 5 3 14 -33 21 -82 19 -132 55 -265 92 -334 37 -69 108 -147 157 -173 36 -18 35 -14 -6 41 -30 40 -29 52 5 60 154 34 258 82 378 172 80 61 143 136 202 242 98 175 155 459 133 655 -6 50 -11 105 -11 122 l0 33 50 -20 c28 -11 55 -20 60 -20 6 0 10 17 10 39 0 57 37 91 101 91 147 0 284 -195 198 -281 -24 -24 -20 -31 43 -76 l44 -31 -4 61 c-4 79 19 120 77 138 36 11 45 9 96 -16 65 -31 129 -104 145 -166 15 -54 -2 -104 -44 -130 -36 -23 -65 -20 -134 13 -26 12 -51 24 -57 27 -5 2 15 -25 44 -60 29 -35 56 -69 58 -76 3 -8 15 -10 33 -6 93 18 209 -109 210 -230 0 -48 -20 -102 -41 -109 -8 -3 -8 -15 0 -46 7 -23 14 -42 17 -42 3 0 19 7 35 16 56 29 120 -10 155 -95 22 -52 18 -179 -6 -219 -22 -35 -79 -66 -104 -56 -13 5 -16 -2 -16 -40 0 -50 3 -52 40 -31 40 23 113 19 137 -7 36 -40 47 -91 33 -163 -17 -88 -58 -151 -115 -176 -41 -18 -47 -18 -74 -5 -16 9 -37 29 -48 46 l-20 31 -21 -59 c-12 -32 -22 -61 -22 -64 0 -2 24 -3 54 0 48 4 56 1 87 -26 31 -27 34 -35 33 -80 -2 -59 -22 -99 -77 -160 -46 -50 -89 -72 -139 -72 -52 0 -78 24 -78 70 0 21 -4 41 -9 45 -8 5 -101 -84 -109 -104 -1 -3 21 -17 49 -29 56 -26 74 -56 65 -110 -10 -66 -85 -137 -177 -167 -94 -32 -169 6 -169 85 0 22 -5 40 -10 40 -6 0 -34 -12 -62 -26 -77 -39 -219 -92 -315 -118 l-85 -22 26 -17 c86 -57 60 -151 -51 -183 -142 -41 -258 53 -173 141 l29 30 -219 -3 -219 -4 -33 25 c-137 105 -447 243 -703 315 -143 40 -197 47 -370 46 -179 -1 -251 -13 -383 -66 l-52 -20 -23 28 c-21 27 -186 212 -280 315 -103 111 -294 316 -317 339 -59 59 -120 130 -120 138 0 5 55 12 123 16 205 12 344 57 476 155 83 62 118 100 169 179 75 117 108 275 83 405 -19 104 -81 213 -178 313 -130 135 -256 197 -455 224 -235 32 -458 -88 -458 -246 0 -93 34 -144 109 -163 69 -18 131 -24 131 -12 0 6 -7 11 -15 11 -28 0 -102 83 -114 127 -14 52 5 107 41 119 29 10 75 7 100 -7 10 -6 49 -11 86 -12 52 -2 75 -8 99 -25 l32 -23 16 30 c44 86 154 62 201 -45 30 -69 32 -126 3 -155 -18 -18 -29 -21 -70 -16 -53 7 -54 5 -38 -42 12 -35 21 -38 39 -16 23 28 91 14 128 -26 50 -53 47 -198 -5 -239 -38 -29 -70 -25 -109 14 l-35 35 -24 -52 c-31 -63 -31 -67 -1 -67 14 0 37 -11 52 -23 23 -20 27 -32 27 -71 0 -37 -5 -52 -28 -76 -66 -69 -190 -96 -228 -49 -23 29 -18 80 14 122 11 16 18 31 15 34 -8 8 -116 -7 -116 -16 0 -5 7 -14 15 -21 18 -15 19 -67 1 -98 -7 -13 -26 -32 -42 -43 -39 -25 -144 -26 -194 -1 -31 15 -35 22 -38 60 -3 37 1 47 28 72 l30 28 -100 7 c-55 4 -100 11 -100 14 0 4 -6 15 -13 26 -13 17 -15 17 -45 -5 -28 -21 -34 -22 -62 -10 -43 18 -79 68 -86 121 -5 36 -1 50 18 79 13 20 34 36 47 38 21 3 22 7 16 35 -4 18 -13 64 -19 104 -9 58 -16 75 -37 92 l-27 20 -4 -83 c-5 -97 -19 -126 -78 -156 -51 -26 -88 -25 -123 3 -51 42 -54 164 -6 263 34 71 105 101 151 64 34 -26 38 -26 38 10 0 62 49 120 100 120 20 0 28 8 43 43 9 23 17 46 17 50 0 5 -8 7 -17 6 -79 -8 -113 18 -113 86 0 81 57 168 130 199 69 29 120 -4 120 -77 0 -21 4 -37 8 -35 4 2 27 24 51 50 l43 47 -36 34 c-32 31 -36 40 -36 86 0 46 4 55 40 91 52 52 107 79 180 87 63 6 99 -7 128 -49 12 -16 16 -17 40 -3 55 29 57 32 43 49 -9 11 -12 32 -8 64 4 39 12 53 46 84 102 90 279 92 320 2 9 -20 17 -25 34 -21 12 3 50 11 85 18 l62 12 0 37 c0 46 30 86 73 99 46 14 134 3 188 -25z m-1621 -83 c-5 -17 -29 -60 -53 -94 -96 -135 -227 -385 -279 -536 -55 -157 -71 -216 -104 -391 -23 -122 -23 -451 0 -585 46 -271 113 -462 228 -652 46 -77 88 -158 100 -198 14 -43 26 -125 18 -125 -7 0 -120 165 -120 174 0 2 -18 33 -39 68 -54 89 -142 274 -185 389 -82 222 -114 380 -123 602 -6 143 -4 170 29 352 56 312 231 670 471 965 33 39 61 70 63 68 2 -3 -1 -19 -6 -37z m2919 -346 c58 -20 129 -71 152 -108 38 -64 18 -163 -39 -186 l-30 -12 35 -52 c19 -29 36 -54 38 -56 2 -2 16 6 31 18 15 11 36 21 48 21 41 0 101 -56 136 -126 51 -103 -5 -214 -101 -201 -38 5 -39 4 -39 -26 0 -18 -3 -49 -6 -69 l-6 -36 40 5 c35 5 44 1 67 -22 24 -23 27 -33 22 -70 -6 -57 -45 -134 -80 -159 -39 -29 -103 -28 -127 2 l-19 23 -33 -31 c-31 -28 -32 -31 -14 -41 36 -22 56 -49 56 -78 0 -59 -136 -139 -210 -125 -15 4 -41 19 -56 35 -24 25 -26 33 -21 74 l7 45 -39 0 -38 0 -13 75 c-19 109 -9 310 20 400 52 163 140 295 239 355 22 14 41 28 41 31 0 4 -12 9 -27 12 -16 3 -49 20 -75 37 -104 69 -141 188 -79 251 33 33 59 36 120 14z m1738 -681 c61 -38 112 -138 112 -222 1 -48 -3 -58 -33 -88 -19 -19 -44 -34 -57 -34 -59 0 -163 97 -190 177 -16 48 -6 107 25 148 35 46 88 53 143 19z m-2389 -206 c94 -674 272 -1008 627 -1173 50 -23 101 -47 115 -54 44 -20 -117 -6 -187 17 -105 35 -157 68 -262 167 -130 123 -242 327 -301 552 -27 105 -50 284 -50 396 0 96 18 257 29 257 4 0 17 -73 29 -162z m1661 36 c31 -22 61 -90 61 -140 0 -45 -26 -88 -60 -99 -32 -10 -78 25 -105 79 -29 58 -31 85 -10 126 26 50 71 64 114 34z m-3846 -342 c62 -65 86 -205 47 -269 -43 -71 -132 -91 -176 -40 -41 48 -58 165 -34 246 25 87 109 119 163 63z m4826 9 c101 -52 112 -274 17 -345 -75 -56 -149 0 -181 137 -24 102 6 181 79 213 40 17 40 17 85 -5z m-874 3 c45 -18 61 -142 25 -201 -36 -59 -88 -69 -122 -22 -25 33 -35 128 -18 169 19 45 72 70 115 54z m-3665 -200 c70 -64 71 -152 1 -189 -27 -13 -35 -14 -64 -2 -18 8 -47 31 -66 52 -30 35 -33 43 -29 87 6 62 29 88 80 88 30 0 47 -8 78 -36z m3602 -141 c40 -46 27 -123 -33 -185 -28 -30 -43 -38 -70 -38 -47 0 -59 15 -59 76 0 63 20 115 56 143 33 26 85 27 106 4z m-4728 -21 c18 -10 63 -19 111 -22 l80 -5 -3 -31 c-4 -43 19 -64 72 -64 40 0 43 -2 55 -37 66 -186 245 -483 430 -718 269 -339 537 -725 504 -725 -25 -1 -33 -17 -22 -48 24 -69 -66 -162 -157 -162 -55 0 -104 42 -104 90 l0 31 -47 -7 c-27 -3 -50 -8 -52 -10 -2 -1 7 -17 19 -34 33 -47 37 -99 9 -134 -50 -64 -178 -87 -246 -45 -62 38 -80 107 -43 167 l20 32 -90 0 -91 0 22 -29 c12 -16 24 -49 26 -74 5 -40 2 -49 -21 -72 -15 -15 -26 -28 -24 -30 2 -2 26 2 55 8 146 30 252 -102 161 -200 -60 -64 -233 -60 -300 7 -21 22 -28 38 -28 67 1 41 11 59 50 86 24 17 24 17 -35 17 -101 1 -161 46 -172 128 -7 50 12 84 60 108 l32 17 -70 17 c-38 10 -78 21 -87 25 -16 6 -18 1 -18 -35 0 -33 -6 -48 -30 -72 -29 -29 -34 -30 -99 -26 -75 4 -126 30 -155 79 -23 39 -21 120 4 152 l20 25 -25 16 c-30 20 -35 20 -35 1 0 -8 -13 -29 -28 -47 -24 -26 -36 -31 -74 -31 -51 0 -123 36 -157 79 -41 53 -39 146 5 187 l24 23 -39 38 c-38 38 -39 38 -65 21 -41 -27 -91 -14 -143 37 -53 52 -70 96 -54 147 6 21 22 47 35 60 l24 23 -29 65 c-57 128 -74 233 -60 376 l7 75 -36 6 c-55 9 -75 37 -75 105 1 58 14 89 64 145 69 76 146 96 200 50 29 -24 31 -24 56 -8 14 9 25 17 25 19 0 1 -5 16 -11 33 -14 39 9 85 53 108 46 24 151 16 203 -16 47 -29 90 -28 125 5 14 13 34 25 45 28 31 8 94 -2 129 -21z m1292 -72 c41 -20 85 -73 99 -118 19 -64 -36 -152 -95 -152 -35 0 -108 45 -133 83 -41 63 -28 154 27 188 39 24 50 24 102 -1z m-2172 -57 c-63 -96 -237 -422 -257 -483 -8 -25 -27 -102 -41 -171 -14 -69 -35 -152 -46 -185 -32 -93 -30 -121 13 -158 33 -27 107 -163 107 -195 0 -17 97 -203 142 -271 109 -165 177 -238 306 -323 193 -129 425 -226 697 -291 176 -43 185 -44 302 -57 61 -7 110 -16 108 -20 -3 -3 -41 -12 -84 -19 -64 -10 -101 -10 -183 0 -394 47 -735 186 -947 386 -142 134 -314 368 -398 544 -30 63 -60 117 -67 119 -6 2 -25 18 -42 35 -24 24 -34 46 -43 97 -12 64 -12 68 39 265 94 369 145 468 364 711 44 49 57 56 30 16z m1853 6 c37 -13 88 -63 124 -118 53 -82 30 -185 -47 -217 -45 -19 -88 -7 -132 39 -65 67 -92 189 -57 257 25 48 58 60 112 39z m3537 -60 c35 -27 36 -86 3 -117 -83 -78 -230 -64 -213 21 8 39 21 54 75 89 53 33 98 36 135 7z m1263 -19 c9 0 43 -85 43 -108 0 -62 -37 -146 -86 -195 -65 -65 -141 -60 -171 10 -32 79 3 240 61 278 36 24 85 33 121 23 16 -4 31 -8 32 -8z m-4181 -173 c106 -62 141 -149 93 -231 -31 -53 -80 -65 -142 -36 -63 30 -115 83 -123 126 -18 94 23 154 104 154 26 -1 56 -6 68 -13z m-2460 -173 c19 -19 34 -41 34 -47 0 -7 6 -23 13 -37 21 -41 16 -143 -9 -177 -29 -40 -82 -73 -115 -73 -36 0 -94 56 -103 100 -20 102 5 205 59 248 42 33 81 29 121 -14z m2159 -19 c127 -74 168 -183 99 -265 -22 -25 -33 -30 -71 -30 -66 0 -110 29 -165 108 -38 55 -49 138 -24 177 33 50 86 53 161 10z m4500 -177 c-36 -178 -160 -453 -271 -601 -161 -215 -379 -321 -754 -366 -238 -29 -370 -35 -508 -22 -170 15 -254 30 -245 44 4 6 38 7 94 3 102 -8 407 9 555 30 127 18 265 52 369 93 147 56 323 182 425 302 100 117 236 352 315 542 15 37 30 65 33 63 2 -3 -4 -42 -13 -88z m-3951 68 c52 -22 114 -89 122 -131 15 -83 -35 -155 -108 -155 -77 0 -170 74 -184 146 -21 111 67 183 170 140z m3766 -51 c37 -19 50 -43 50 -95 0 -104 -114 -222 -217 -224 -86 -2 -115 66 -73 176 48 128 151 189 240 143z m-4037 -213 c98 -53 142 -132 118 -211 -15 -50 -41 -72 -93 -78 -37 -4 -51 0 -93 29 -27 18 -65 55 -82 82 -27 40 -33 58 -33 103 0 47 4 59 30 85 27 26 35 29 68 23 20 -4 59 -18 85 -33z m-2506 -3 c37 -13 88 -63 124 -118 52 -80 30 -183 -44 -219 -87 -42 -207 84 -207 216 0 59 11 88 44 114 25 20 44 22 83 7z m3817 -93 c54 -14 101 -28 104 -31 12 -12 -7 -14 -44 -3 -22 6 -113 12 -209 12 -144 0 -183 -3 -253 -22 -176 -46 -337 -141 -469 -274 -158 -161 -252 -339 -311 -590 -18 -76 -26 -304 -13 -405 22 -178 53 -274 214 -663 78 -189 101 -252 183 -495 67 -200 68 -205 57 -205 -8 0 -33 48 -33 62 0 9 -121 253 -339 683 -188 371 -228 499 -238 752 -13 317 80 602 276 843 164 201 393 326 666 364 17 3 93 3 170 1 107 -3 163 -10 239 -29z m2373 -11 c51 -21 72 -42 78 -79 13 -67 -41 -137 -142 -183 -82 -38 -113 -39 -162 -9 -39 25 -41 29 -41 73 0 34 7 57 25 84 44 63 138 128 188 129 10 0 34 -7 54 -15z m-489 -125 c62 -38 82 -126 41 -177 -36 -43 -137 -69 -226 -58 -46 6 -61 13 -94 46 -42 42 -47 64 -24 109 41 79 224 128 303 80z m-1507 -26 c103 -31 170 -73 259 -163 264 -269 360 -691 258 -1131 -51 -217 -148 -421 -334 -700 -71 -107 -170 -262 -218 -345 -120 -203 -115 -195 -126 -195 -18 0 -10 31 18 73 59 86 193 322 246 430 214 441 307 817 271 1102 -41 330 -138 566 -288 705 -152 141 -187 179 -187 203 0 40 22 44 101 21z m-386 -60 c126 -13 316 -84 403 -151 43 -32 116 -125 148 -185 26 -51 28 -58 16 -58 -4 0 -13 12 -20 28 -14 31 -73 95 -136 147 -53 43 -151 88 -251 115 -97 26 -303 40 -410 28 -125 -14 -342 -55 -432 -82 -46 -13 -83 -21 -83 -17 0 3 19 18 43 32 146 91 294 137 482 149 110 7 127 7 240 -6z m-3583 -57 c66 -30 132 -93 148 -142 32 -96 -43 -189 -133 -164 -75 21 -167 140 -167 216 0 60 38 112 82 113 10 0 41 -11 70 -23z m3476 -123 c76 -15 198 -68 237 -101 29 -26 65 -78 65 -96 0 -22 -18 -25 -85 -16 -147 18 -478 3 -570 -27 -206 -68 -331 -224 -371 -463 -18 -113 -18 -378 1 -517 23 -175 59 -358 121 -614 14 -58 32 -132 39 -165 8 -33 20 -86 28 -117 8 -32 10 -58 6 -58 -5 0 -9 7 -9 15 0 8 -4 23 -9 33 -5 9 -19 44 -31 77 -12 33 -26 69 -31 80 -20 47 -69 185 -89 250 -62 204 -87 283 -131 415 -150 458 -155 783 -15 990 46 69 115 138 179 182 176 120 455 175 665 132z m-3171 -173 c23 -11 62 -38 86 -60 54 -50 71 -99 56 -156 -14 -50 -32 -71 -75 -85 -65 -22 -164 43 -210 136 -21 42 -25 64 -21 95 11 83 74 110 164 70z m6450 -43 c41 -45 37 -96 -10 -146 -29 -31 -90 -62 -121 -62 -29 0 -56 33 -56 68 0 30 32 91 62 118 54 49 94 56 125 22z m-2752 -72 c61 -29 158 -128 186 -191 46 -104 33 -194 -34 -235 -70 -43 -139 -7 -152 78 -23 142 -60 213 -132 254 -63 35 -67 41 -53 68 28 52 107 63 185 26z m-3170 -111 c70 -35 107 -125 75 -186 -43 -79 -228 -56 -311 39 -26 29 -30 41 -27 80 3 40 8 49 38 70 31 21 44 23 110 20 49 -2 89 -10 115 -23z m992 -2 c71 -33 90 -108 40 -161 -63 -68 -169 -86 -231 -38 -32 24 -36 32 -36 73 0 40 5 51 38 83 61 57 128 72 189 43z m3798 -23 c-16 -26 -418 -244 -552 -299 -88 -36 -174 -55 -214 -46 -39 9 -69 42 -69 76 0 97 201 174 645 249 39 7 86 16 105 20 50 11 92 12 85 0z m880 -46 c21 -8 45 -56 45 -89 0 -36 -34 -98 -70 -129 -78 -65 -142 5 -110 119 22 80 78 121 135 99z m1614 -292 c49 -97 76 -254 75 -432 -1 -176 -28 -335 -67 -381 -16 -20 -18 -21 -11 -4 4 11 9 81 12 156 6 194 -12 305 -92 568 -30 97 -32 124 -10 145 14 14 18 14 45 1 16 -9 37 -32 48 -53z m-2768 -10 c52 -34 117 -123 126 -174 6 -43 -24 -115 -58 -137 -33 -20 -94 -16 -129 9 -60 43 -109 164 -95 236 8 44 54 94 87 94 13 0 44 -13 69 -28z m1120 -51 c25 -26 29 -37 29 -88 0 -101 -55 -165 -113 -134 -67 36 -78 192 -18 238 28 22 71 15 102 -16z m-4715 -249 c81 -17 194 -60 228 -86 43 -32 65 -116 40 -153 -18 -28 -30 -28 -139 0 -33 8 -105 25 -160 37 -372 79 -409 90 -426 122 -27 50 27 88 141 97 86 7 242 -1 316 -17z m3905 -144 c35 -24 74 -58 86 -77 39 -59 25 -163 -26 -191 -11 -5 -39 -10 -63 -10 -76 0 -155 76 -184 177 -17 58 -12 86 19 121 35 37 93 30 168 -20z m-741 -44 c81 -17 139 -46 201 -101 51 -46 109 -129 109 -156 0 -17 -35 -24 -42 -9 -4 12 -116 85 -160 106 -81 37 -196 66 -285 72 -79 6 -93 10 -93 24 0 25 37 68 63 73 41 9 142 4 207 -9z m-3446 -120 c52 -52 30 -182 -40 -244 -30 -26 -42 -30 -92 -30 -87 0 -122 42 -109 128 11 65 13 71 36 103 53 72 154 93 205 43z m306 -83 c37 -37 46 -72 30 -124 -38 -128 -182 -226 -253 -173 -64 49 -17 243 72 303 50 34 114 32 151 -6z m4131 -23 c100 -33 189 -126 189 -197 0 -43 -23 -95 -51 -115 -35 -24 -102 -20 -148 8 -104 66 -157 187 -116 266 26 49 62 60 126 38z m-4409 -283 c37 -9 58 -45 58 -100 0 -54 -17 -91 -67 -146 -98 -108 -223 -105 -223 6 0 124 110 268 190 249 8 -1 27 -6 42 -9z m4703 -70 c53 -31 120 -102 133 -142 20 -60 -11 -137 -64 -159 -48 -20 -102 -3 -166 54 -82 74 -113 159 -81 222 33 65 95 73 178 25z m-494 -63 c24 -16 85 -71 134 -121 132 -136 252 -230 355 -278 92 -43 255 -83 422 -103 92 -12 405 -8 583 6 39 3 68 3 65 0 -8 -7 -174 -44 -329 -72 -160 -29 -353 -32 -474 -9 -98 19 -222 60 -258 85 -15 11 -30 20 -33 20 -9 0 -126 72 -156 95 -61 48 -278 276 -351 369 -36 45 -21 48 42 8z m-3381 -20 c54 -26 83 -50 99 -81 20 -37 2 -45 -74 -32 -109 19 -244 -10 -428 -92 -37 -16 -70 -27 -73 -24 -4 3 -3 22 0 42 13 69 107 146 233 191 85 30 176 28 243 -4z m2042 -96 c29 -13 73 -41 98 -63 93 -83 225 -299 264 -433 41 -139 42 -234 2 -293 -36 -53 -50 -47 -86 40 -81 197 -112 237 -306 388 -169 132 -219 180 -234 230 -36 122 115 197 262 131z m-6011 -240 c18 -174 108 -398 234 -586 102 -153 228 -263 452 -397 87 -52 113 -76 93 -88 -20 -12 -207 87 -311 164 -135 102 -264 256 -350 421 -19 36 -37 67 -40 70 -9 8 -75 181 -92 240 -29 105 -40 196 -35 296 8 136 21 162 30 59 4 -44 13 -124 19 -179z m2924 148 c31 -20 46 -73 34 -117 -5 -18 -25 -52 -45 -76 -100 -116 -274 -124 -274 -12 1 71 78 187 145 218 36 16 105 10 140 -13z m1031 -79 c43 -8 111 -30 151 -49 60 -29 73 -39 73 -58 0 -54 -34 -312 -50 -383 -5 -22 -19 -85 -30 -140 -12 -55 -26 -113 -31 -130 -51 -167 -68 -217 -111 -325 -74 -187 -170 -359 -272 -484 -26 -32 -46 -59 -44 -60 2 -1 21 -9 43 -17 81 -30 82 -115 2 -190 -72 -67 -144 -72 -196 -14 l-29 33 -58 -50 c-44 -37 -156 -117 -201 -143 -1 -1 7 -20 18 -43 18 -36 19 -46 9 -77 -6 -19 -28 -49 -48 -66 -33 -28 -34 -31 -12 -25 69 19 105 18 149 -6 51 -27 87 -84 77 -122 -23 -92 -182 -165 -265 -121 -43 22 -81 72 -81 106 0 37 23 83 52 103 31 22 20 27 -32 15 -54 -12 -115 7 -144 46 -10 13 -24 31 -30 40 -9 12 -17 13 -48 3 -42 -13 -50 -28 -15 -28 63 0 125 -80 113 -145 -12 -61 -103 -116 -190 -115 -76 2 -146 69 -146 141 0 31 7 45 38 75 l37 37 -34 -7 c-18 -3 -56 -6 -83 -6 l-50 0 31 -35 c25 -29 31 -44 31 -83 0 -40 -5 -53 -27 -74 -36 -35 -73 -48 -132 -48 -102 0 -171 56 -171 140 0 37 6 55 25 78 l25 30 -23 6 c-55 15 -64 9 -63 -38 2 -82 -70 -128 -157 -102 -103 31 -150 100 -127 186 6 21 16 42 22 46 6 4 -3 14 -23 25 -42 22 -49 23 -49 4 0 -30 -23 -63 -58 -83 l-37 -21 27 -10 c43 -16 96 -70 113 -115 13 -35 15 -51 6 -84 -31 -115 -166 -122 -263 -14 -34 38 -38 47 -38 98 0 86 29 124 105 136 17 3 14 7 -17 26 -61 38 -81 74 -76 138 3 32 12 62 22 73 18 19 17 21 -1 44 -17 22 -21 23 -38 11 -30 -22 -88 -17 -129 11 -43 29 -46 30 -46 11 0 -7 -11 -30 -25 -50 l-24 -36 24 0 c82 0 185 -105 185 -190 0 -72 -55 -140 -113 -140 -44 0 -109 42 -142 92 -40 60 -40 141 -1 192 l27 36 -51 0 c-47 0 -54 3 -104 52 -89 87 -97 170 -25 253 30 34 30 35 9 35 -13 0 -40 18 -65 43 -89 89 -86 223 6 284 52 34 95 26 143 -27 76 -84 80 -196 11 -263 l-35 -34 43 -17 c24 -9 60 -34 81 -55 l39 -40 23 35 24 35 -20 39 c-36 71 -109 276 -110 311 0 4 53 10 119 14 l118 7 44 -44 c48 -47 175 -117 254 -139 71 -20 262 -17 345 5 147 40 287 123 388 230 123 131 172 259 172 447 l1 114 76 65 c120 102 106 98 166 51 29 -22 92 -74 142 -115 49 -42 93 -76 97 -76 4 0 8 11 8 24 0 35 46 86 77 86 25 0 25 1 -8 23 -19 12 -42 40 -53 61 -16 32 -17 44 -7 76 6 21 18 44 27 51 22 18 81 14 107 -8 32 -27 -55 75 -102 122 -23 21 -41 42 -41 46 0 11 198 143 265 177 76 37 143 61 220 77 81 17 101 17 191 0z m-1513 -46 c12 -7 25 -17 29 -23 14 -21 8 -77 -12 -117 -62 -120 -219 -95 -191 30 8 39 52 105 74 115 23 9 78 6 100 -5z m1037 -47 c0 -4 -15 -13 -32 -20 -66 -24 -257 -156 -508 -353 -36 -28 -81 -63 -100 -77 -20 -15 -89 -70 -155 -123 -266 -213 -467 -357 -560 -400 -86 -40 -64 -13 56 70 67 47 149 105 183 130 182 135 655 515 776 623 78 70 147 113 215 136 62 21 125 28 125 14z m2107 -30 c113 -91 242 -252 298 -375 l25 -55 38 20 c40 20 75 17 106 -10 48 -43 61 -152 26 -210 -26 -42 -100 -78 -129 -62 -32 17 -41 12 -41 -24 l0 -34 58 5 c48 4 61 2 84 -16 85 -68 -1 -261 -116 -261 -36 0 -72 19 -83 43 -9 19 -13 16 -47 -37 -20 -32 -36 -60 -34 -62 2 -2 23 4 47 12 77 26 151 -11 151 -78 0 -87 -82 -168 -170 -168 -33 0 -48 6 -72 30 -25 26 -29 37 -26 70 l3 39 -22 -21 c-13 -12 -25 -20 -27 -17 -12 13 -58 183 -63 237 l-6 63 -18 -41 c-19 -43 -38 -50 -63 -24 -18 17 -20 42 -7 63 5 8 5 26 -1 44 l-11 30 -18 -24 c-14 -19 -21 -21 -30 -12 -16 16 -4 41 22 45 22 3 22 4 -10 40 l-32 37 16 55 c9 31 18 56 19 56 6 0 86 -118 86 -127 0 -4 8 -17 16 -28 14 -19 15 -17 9 20 -8 45 -37 152 -65 235 -18 56 -39 180 -39 236 0 34 30 74 54 74 8 0 15 -4 15 -8 0 -10 60 -32 88 -32 11 0 24 4 27 10 7 12 -30 136 -51 167 -21 33 -32 28 -45 -19 -15 -53 -24 -65 -52 -71 -12 -2 -30 -8 -39 -12 -15 -6 -18 -2 -18 25 0 32 77 210 91 210 4 0 29 -17 56 -38z m-3746 -71 c34 -35 38 -77 10 -112 -17 -21 -28 -24 -90 -24 -75 0 -93 11 -107 63 -17 61 26 101 109 102 41 0 53 -5 78 -29z m239 14 c62 -32 77 -89 35 -131 -29 -29 -30 -30 -9 -38 9 -3 29 5 48 19 25 19 45 25 83 25 64 0 93 -25 93 -80 0 -75 -104 -170 -187 -170 -47 0 -87 40 -81 81 5 30 4 29 -48 -22 -51 -50 -59 -69 -29 -69 21 0 45 -40 45 -75 0 -16 -9 -43 -20 -60 -11 -16 -20 -33 -20 -36 0 -3 18 -11 39 -18 44 -13 81 -52 81 -85 0 -55 -56 -104 -154 -136 -69 -22 -146 17 -146 76 0 12 11 38 25 58 l24 36 -31 0 c-17 0 -40 7 -50 17 -17 15 -18 14 -18 -28 0 -101 57 -232 141 -323 46 -51 48 -55 23 -46 -85 33 -161 109 -194 196 -27 70 -39 244 -21 310 16 59 84 148 141 185 28 18 50 35 50 39 0 3 29 28 65 55 l65 49 -44 13 c-35 10 -47 20 -61 50 -23 48 -11 82 35 105 43 22 82 23 120 3z m3020 -20 c43 -9 60 -22 60 -47 0 -15 -4 -18 -17 -13 -59 24 -130 35 -230 35 -112 0 -140 9 -90 30 23 10 218 7 277 -5z m-2489 -44 c37 -37 37 -65 0 -123 -74 -116 -241 -137 -241 -31 0 46 30 102 79 146 35 31 48 37 87 37 37 0 51 -5 75 -29z m-1063 -37 c48 -19 67 -50 58 -98 -19 -100 -140 -157 -223 -106 -27 16 -33 26 -33 55 0 76 73 155 152 164 4 1 25 -6 46 -15z m4055 -11 c25 -29 26 -73 2 -73 -16 0 -35 38 -35 71 0 24 12 24 33 2z m-485 -20 c15 -11 28 -27 30 -36 3 -14 -3 -13 -50 3 -80 27 -188 43 -256 38 -58 -4 -79 3 -49 16 6 3 76 4 155 3 125 -3 145 -6 170 -24z m-789 -11 c6 -12 31 -23 68 -31 87 -20 103 -29 103 -65 0 -17 -9 -46 -21 -65 l-20 -34 -29 35 c-16 19 -43 41 -61 48 -27 11 -35 11 -60 -4 l-29 -17 0 69 c0 38 3 72 7 75 12 13 32 7 42 -11z m-1161 -56 c35 -18 66 -53 81 -93 11 -28 11 -37 -5 -70 -26 -52 -69 -64 -119 -33 -71 44 -86 139 -30 187 31 27 37 28 73 9z m1955 -3 c34 -17 58 -43 51 -55 -2 -3 -26 2 -53 12 -68 24 -206 44 -274 38 -32 -3 -57 -1 -57 3 0 13 32 17 168 18 106 1 140 -2 165 -16z m-2779 -185 c47 -43 35 -108 -32 -170 -26 -24 -66 -50 -89 -57 -38 -12 -45 -12 -75 6 -26 15 -34 26 -36 55 -4 47 25 104 77 151 34 31 48 37 85 37 32 0 52 -6 70 -22z m5397 -6 c27 -24 33 -37 37 -85 6 -73 -2 -100 -32 -117 -59 -31 -126 43 -126 139 0 88 59 119 121 63z m-6353 -9 c7 -10 16 -31 19 -47 6 -28 7 -28 14 -8 10 26 33 30 25 4 -3 -10 -10 -53 -16 -95 -5 -43 -12 -83 -15 -88 -8 -12 -62 -12 -67 1 -2 6 -17 6 -40 -2 -79 -24 -130 41 -109 138 14 62 34 92 75 110 38 17 96 11 114 -13z m102 -75 c0 -50 33 -230 61 -338 42 -157 122 -279 245 -376 41 -31 72 -59 70 -62 -8 -7 -79 30 -141 74 -154 107 -234 259 -266 502 -11 85 -8 210 6 232 14 22 25 7 25 -32z m2974 -145 c6 -44 4 -49 -29 -83 -38 -39 -43 -50 -21 -50 7 0 19 -7 26 -15 10 -13 10 -19 -5 -35 -25 -28 -55 -26 -55 3 -1 22 -1 22 -15 -3 -8 -14 -12 -37 -9 -52 5 -23 1 -30 -20 -39 -39 -18 -56 2 -56 65 0 56 6 68 79 156 80 95 84 100 91 100 4 0 10 -21 14 -47z m2252 -27 c-43 -162 -158 -392 -267 -531 -80 -102 -238 -257 -320 -314 -63 -44 -62 -43 56 80 66 68 149 160 184 203 119 149 242 357 301 506 50 128 71 154 46 56z m-1611 -38 c60 -37 144 -112 172 -155 17 -26 43 -157 43 -221 0 -24 -5 -52 -11 -64 -35 -66 -320 -98 -559 -64 -110 16 -140 26 -170 58 -19 20 -21 30 -16 87 18 173 117 316 263 377 48 20 72 24 138 22 72 -3 86 -7 140 -40z m-3798 -10 c29 -24 53 -91 53 -150 0 -120 -64 -198 -165 -198 -41 0 -56 5 -73 23 -48 51 -58 182 -19 257 38 77 149 114 204 68z m6613 -3 c38 -20 90 -109 90 -154 0 -47 -24 -71 -72 -71 -52 0 -92 22 -128 72 -40 55 -42 117 -4 147 32 25 74 27 114 6z m-5343 -1 c72 -19 5 -174 -76 -174 -54 0 -67 50 -31 121 26 49 58 66 107 53z m-242 -140 c-22 -19 -58 -44 -80 -56 -53 -27 -52 -25 -22 -49 32 -24 36 -72 10 -101 -32 -35 -150 -16 -167 27 -19 51 -9 63 92 114 53 28 115 61 137 75 59 36 76 30 30 -10z m119 -45 c35 -28 33 -61 -5 -93 -57 -48 -169 -30 -169 28 0 31 11 43 56 66 51 25 85 25 118 -1z m5760 -53 c58 -24 119 -140 102 -194 -4 -11 -23 -28 -42 -37 -34 -16 -37 -16 -82 7 -112 55 -150 191 -64 225 38 15 48 15 86 -1z m-850 -67 c41 -32 36 -78 -14 -123 -45 -40 -98 -48 -138 -20 -33 23 -30 82 6 116 57 53 102 62 146 27z m293 -10 c48 -18 73 -49 73 -90 0 -48 -27 -69 -91 -69 -65 0 -109 36 -109 88 0 45 8 58 40 71 33 13 53 13 87 0z m-3319 -64 c1 -30 8 -67 16 -83 19 -37 92 -109 129 -128 39 -21 29 -26 -32 -18 -103 13 -170 81 -185 186 -7 44 -5 50 20 73 41 38 50 32 52 -30z m3579 -107 c84 -51 72 -178 -16 -178 -59 0 -129 85 -116 138 16 63 69 80 132 40z m-801 -14 c22 -33 22 -105 0 -139 -20 -30 -70 -55 -98 -47 -31 8 -48 43 -48 100 0 46 4 58 29 83 39 39 93 41 117 3z m-1606 -3 c0 -12 -83 -73 -137 -100 -110 -55 -247 -95 -363 -105 l-75 -7 40 23 c24 14 41 32 43 46 3 20 -1 22 -39 22 -52 0 -169 21 -169 31 0 3 98 9 218 11 l217 5 125 41 c138 45 140 46 140 33z m127 -128 c112 -232 250 -455 379 -614 30 -36 54 -69 54 -73 0 -28 -134 92 -211 189 -90 113 -199 314 -242 446 -27 79 -41 149 -32 149 3 0 27 -44 52 -97z m1864 76 c101 -33 173 -100 209 -197 30 -80 38 -217 16 -302 -17 -70 -81 -209 -117 -254 -22 -29 -23 -29 -108 -23 -95 7 -232 42 -299 76 -54 27 -128 95 -148 134 -9 16 -19 47 -22 70 -8 42 -8 42 -51 42 -61 0 -85 31 -79 102 7 85 76 136 133 99 23 -15 24 -14 53 37 91 160 281 259 413 216z m-3119 -145 c42 -22 78 -75 78 -118 0 -98 -150 -335 -320 -507 -151 -152 -297 -238 -403 -239 l-29 0 47 53 c129 142 333 491 411 701 35 93 58 122 104 129 34 5 80 -3 112 -19z m3623 -38 c53 -53 39 -158 -26 -191 -38 -20 -65 -12 -90 28 -35 59 -19 144 32 173 35 19 57 17 84 -10z m-2700 -318 c99 -102 157 -191 268 -413 97 -196 97 -203 -1 -136 -151 102 -327 325 -401 504 -12 30 -15 119 -4 130 20 21 54 0 138 -85z m-1783 6 c30 -16 58 -61 58 -94 0 -31 -34 -91 -72 -127 -70 -67 -157 -78 -217 -27 -56 47 -48 123 22 199 65 71 134 87 209 49z m3218 -121 c0 -54 32 -130 75 -181 68 -80 228 -170 416 -233 166 -56 246 -69 422 -70 151 -1 152 -1 97 -15 -35 -9 -112 -14 -210 -15 -134 -1 -168 2 -255 24 -276 70 -389 121 -496 227 -79 78 -117 142 -126 210 -5 34 -1 43 25 70 42 41 52 38 52 -17z m1390 -22 c0 -16 -64 -72 -115 -101 -84 -47 -219 -89 -309 -96 -92 -7 -216 3 -216 17 0 5 30 9 68 9 185 0 344 45 508 144 66 40 64 39 64 27z m-5933 -320 c154 -78 124 -275 -39 -257 -59 6 -118 36 -152 76 -45 55 -34 164 21 195 36 20 116 14 170 -14z m829 -47 c70 -34 98 -117 57 -173 -52 -69 -180 -98 -253 -56 -73 43 -88 135 -31 193 51 50 160 68 227 36z m-423 -25 c60 -31 103 -101 92 -150 -19 -86 -158 -128 -261 -78 -101 48 -107 183 -11 224 39 17 150 19 180 4z m3596 -4 c68 -35 105 -116 81 -176 -29 -69 -91 -78 -151 -21 -67 62 -70 152 -8 196 29 20 42 20 78 1z m-1609 -15 c46 -46 38 -105 -24 -167 -50 -50 -92 -57 -125 -22 -41 44 -34 115 19 170 30 31 44 39 73 39 24 0 44 -7 57 -20z m3014 -131 c56 -44 24 -134 -63 -173 -80 -37 -160 9 -146 84 17 90 140 143 209 89z m-1143 -59 c79 -41 101 -119 49 -172 -28 -27 -35 -30 -72 -24 -87 14 -147 81 -133 147 15 69 78 88 156 49z m255 -101 c83 -21 130 -108 89 -166 -37 -53 -140 -49 -197 7 -23 24 -28 37 -28 79 0 47 3 53 33 71 37 23 43 24 103 9z m-2457 -159 c18 0 59 -52 65 -81 3 -18 1 -50 -5 -72 -23 -86 -94 -113 -150 -58 -24 24 -29 38 -29 78 0 79 54 154 98 138 8 -3 17 -5 21 -5z m1169 -36 c29 -20 52 -66 52 -104 0 -38 -39 -80 -73 -80 -45 0 -107 68 -107 117 0 10 9 33 20 51 16 26 26 32 53 32 18 0 43 -7 55 -16z m128 -191 c27 -27 46 -82 39 -114 -7 -29 -56 -79 -79 -79 -45 0 -96 90 -82 144 15 59 84 87 122 49z m-1325 -73 c26 -14 49 -62 49 -103 0 -93 -103 -119 -145 -37 -45 86 20 180 96 140z m886 -753 c-9 -29 -100 -51 -207 -51 -131 -1 -262 27 -246 53 2 3 106 7 231 8 168 1 225 -2 222 -10z"/>
 <path d="M4672 9614 c-30 -21 -29 -64 3 -94 50 -47 175 -34 175 19 0 23 -51 73 -82 83 -40 11 -73 8 -96 -8z"/>
 <path d="M5140 9587 c-36 -18 -39 -69 -6 -102 21 -21 34 -25 84 -25 45 0 63 4 76 19 16 17 16 22 3 48 -15 28 -28 37 -90 62 -35 14 -36 14 -67 -2z"/>
 <path d="M4165 9514 c-36 -19 -45 -31 -45 -66 0 -38 38 -62 85 -54 42 8 105 60 105 86 0 45 -86 65 -145 34z"/>
 <path d="M5650 9419 c-23 -41 41 -101 110 -103 71 -1 92 54 38 104 -32 29 -132 29 -148 -1z"/>
 <path d="M3755 9308 c-81 -45 -87 -115 -12 -142 38 -13 137 59 137 100 0 43 -77 69 -125 42z"/>
 <path d="M3422 9028 c-35 -38 -45 -77 -27 -104 36 -56 115 2 115 84 0 47 -52 58 -88 20z"/>
 <path d="M7010 8964 c-47 -55 32 -152 115 -142 53 6 58 57 13 109 -43 49 -103 64 -128 33z"/>
 <path d="M5166 8918 c-34 -49 -5 -138 41 -124 37 12 61 98 38 135 -12 20 -63 12 -79 -11z"/>
 <path d="M7389 8756 c-17 -38 -3 -73 43 -107 101 -73 161 7 73 96 -45 44 -99 49 -116 11z"/>
 <path d="M3366 8668 c-18 -26 -21 -80 -6 -109 15 -27 66 -26 81 2 13 25 6 93 -11 114 -18 22 -47 18 -64 -7z"/>
 <path d="M3798 8669 c-42 -24 3 -122 58 -127 43 -4 57 16 42 59 -11 34 -54 79 -73 79 -5 0 -18 -5 -27 -11z"/>
 <path d="M4151 8658 c-24 -65 69 -151 110 -102 10 13 10 22 0 52 -19 51 -39 72 -73 72 -21 0 -31 -6 -37 -22z"/>
 <path d="M5098 8579 c-24 -13 -33 -72 -18 -109 26 -63 90 -18 90 62 0 52 -30 72 -72 47z"/>
 <path d="M3154 8494 c-23 -34 -30 -114 -12 -138 22 -28 67 -24 96 10 20 23 23 35 18 71 -3 23 -11 52 -18 63 -19 29 -63 26 -84 -6z"/>
 <path d="M7537 8353 c-43 -48 -18 -118 55 -158 36 -19 37 -19 57 -1 29 26 27 73 -5 119 -22 33 -57 57 -83 57 -4 0 -15 -8 -24 -17z"/>
 <path d="M4257 8353 c-13 -13 -7 -89 9 -111 22 -32 65 -26 78 9 11 31 2 71 -20 93 -16 16 -55 22 -67 9z"/>
 <path d="M6891 8268 c-10 -28 -4 -51 20 -77 23 -24 57 -28 65 -6 14 36 -27 105 -61 105 -9 0 -19 -10 -24 -22z"/>
 <path d="M5179 8216 c-7 -14 -9 -36 -5 -50 7 -27 53 -76 71 -76 20 0 35 23 35 52 0 78 -75 132 -101 74z"/>
 <path d="M3382 8218 c-6 -6 -12 -32 -12 -55 0 -33 6 -50 25 -68 63 -64 115 17 62 96 -24 36 -55 47 -75 27z"/>
 <path d="M4120 8003 c-37 -26 -50 -45 -47 -73 2 -23 6 -25 45 -24 30 0 50 8 67 24 30 28 32 51 7 73 -24 21 -41 21 -72 0z"/>
 <path d="M6969 7996 c-13 -28 -6 -68 17 -90 38 -38 82 41 50 89 -21 32 -53 32 -67 1z"/>
 <path d="M3768 7958 c-23 -19 -28 -44 -13 -65 20 -28 102 -24 127 7 22 27 22 34 2 54 -19 19 -94 21 -116 4z"/>
 <path d="M7751 7934 c-24 -31 -26 -62 -7 -107 19 -46 50 -71 79 -63 51 12 60 105 17 166 -27 38 -61 39 -89 4z"/>
 <path d="M6916 7718 c-20 -28 -20 -62 -2 -77 19 -16 44 -4 62 30 28 55 -26 97 -60 47z"/>
 <path d="M7827 7508 c-24 -18 -37 -79 -27 -124 14 -60 46 -70 89 -26 56 55 47 154 -14 160 -17 2 -38 -3 -48 -10z"/>
 <path d="M6558 7423 c-39 -6 -51 -25 -32 -51 22 -31 81 -40 105 -15 20 19 20 20 -1 46 -12 15 -27 26 -33 26 -7 -1 -24 -4 -39 -6z"/>
 <path d="M7694 7096 c-33 -23 -59 -92 -48 -124 11 -32 53 -41 91 -21 30 16 63 69 63 101 0 50 -62 75 -106 44z"/>
 <path d="M7385 6760 c-40 -27 -65 -60 -65 -90 0 -53 51 -65 120 -30 65 33 79 84 34 119 -33 26 -51 26 -89 1z"/>
 <path d="M6652 6446 c-57 -20 -65 -62 -16 -85 32 -14 56 -14 88 1 39 17 44 47 12 75 -30 26 -37 27 -84 9z"/>
 <path d="M6082 9158 c-46 -46 51 -162 121 -144 32 8 42 47 22 85 -27 54 -113 89 -143 59z"/>
 <path d="M6350 8745 c-13 -34 -2 -80 26 -110 29 -32 59 -32 80 0 20 30 13 63 -22 104 -33 39 -70 42 -84 6z"/>
 <path d="M6340 8321 c-34 -33 -41 -89 -14 -111 24 -21 66 -1 86 40 27 56 22 81 -20 94 -17 6 -29 0 -52 -23z"/>
 <path d="M6084 8070 c-12 -5 -29 -19 -38 -31 -13 -19 -14 -26 -3 -43 22 -33 51 -37 99 -13 51 26 61 57 26 81 -25 18 -51 19 -84 6z"/>
 <path d="M7791 8491 c-26 -26 -27 -65 -1 -106 42 -68 104 -82 128 -29 10 21 9 33 -6 67 -33 73 -86 103 -121 68z"/>
 <path d="M7078 8326 c-15 -34 17 -91 53 -91 20 0 25 6 27 33 7 66 -55 111 -80 58z"/>
 <path d="M3199 7964 c-7 -8 -14 -39 -17 -67 -3 -42 0 -57 18 -79 27 -35 53 -35 85 -3 31 30 31 61 4 120 -18 37 -26 45 -49 45 -15 0 -33 -7 -41 -16z"/>
 <path d="M8046 7974 c-24 -23 -29 -59 -16 -101 16 -49 37 -73 66 -73 32 0 54 36 54 91 0 79 -61 127 -104 83z"/>
 <path d="M7192 7998 c-18 -18 -15 -73 6 -97 16 -20 18 -21 40 -6 39 28 26 115 -18 115 -9 0 -21 -5 -28 -12z"/>
 <path d="M3480 7845 c-17 -20 -5 -64 28 -97 31 -33 65 -36 86 -7 38 55 -71 155 -114 104z"/>
 <path d="M7100 7670 c-25 -25 -28 -98 -5 -106 22 -9 60 20 75 55 11 28 10 34 -5 51 -23 25 -40 25 -65 0z"/>
 <path d="M1985 7657 c-16 -13 -18 -20 -10 -43 14 -40 54 -52 107 -34 49 18 55 29 30 59 -23 29 -98 39 -127 18z"/>
 <path d="M2352 7657 c-18 -21 1 -65 31 -72 13 -4 39 -5 58 -3 38 3 50 30 26 62 -18 24 -98 34 -115 13z"/>
 <path d="M1666 7450 c-41 -45 -47 -87 -18 -113 23 -21 51 -22 80 -1 49 34 70 124 33 144 -35 18 -58 11 -95 -30z"/>
 <path d="M1772 6668 c-31 -31 7 -141 54 -158 35 -14 41 -13 64 10 31 31 25 70 -16 118 -37 44 -77 55 -102 30z"/>
 <path d="M2026 6345 c-30 -30 -17 -82 34 -132 72 -71 156 -30 120 58 -24 57 -123 105 -154 74z"/>
 <path d="M2321 6108 c-16 -43 12 -89 70 -119 48 -24 81 -24 102 -1 55 61 -22 142 -135 142 -21 0 -31 -6 -37 -22z"/>
 <path d="M3540 6052 c-19 -9 -41 -30 -50 -45 -14 -27 -14 -29 9 -48 55 -45 178 28 133 79 -25 30 -53 34 -92 14z"/>
 <path d="M2713 5945 c-43 -30 -19 -84 51 -116 57 -26 92 -24 122 6 29 29 26 56 -12 94 -30 32 -127 41 -161 16z"/>
 <path d="M3153 5949 c-43 -13 -65 -44 -51 -74 15 -33 54 -50 113 -50 91 0 125 58 64 109 -32 28 -68 32 -126 15z"/>
 <path d="M2920 5707 c-17 -9 -26 -22 -28 -44 -4 -43 26 -63 95 -63 87 0 118 53 61 103 -24 20 -91 23 -128 4z"/>
 <path d="M3670 7575 c-17 -20 -7 -77 20 -115 23 -33 65 -48 88 -33 44 27 39 78 -13 130 -36 36 -74 43 -95 18z"/>
 <path d="M3387 7473 c-12 -11 -8 -73 7 -101 34 -65 87 -80 115 -31 18 33 9 68 -28 108 -28 30 -76 42 -94 24z"/>
 <path d="M6856 7469 c-31 -24 -34 -54 -6 -69 25 -13 62 -4 89 21 25 24 26 33 5 53 -21 22 -56 20 -88 -5z"/>
 <path d="M8115 7417 c-44 -37 -47 -144 -5 -167 28 -15 63 5 89 50 53 94 -9 182 -84 117z"/>
 <path d="M3941 7263 c-20 -49 17 -115 81 -149 57 -30 112 20 91 82 -13 39 -73 85 -120 91 -37 5 -41 3 -52 -24z"/>
 <path d="M1491 7076 c-39 -47 -30 -148 14 -168 31 -14 72 10 81 48 7 27 -10 99 -28 122 -14 16 -53 15 -67 -2z"/>
 <path d="M3660 7051 c-28 -54 42 -145 108 -139 29 2 37 8 42 28 3 14 4 35 2 48 -6 30 -61 71 -105 79 -29 4 -37 2 -47 -16z"/>
 <path d="M4200 6959 c-23 -41 13 -115 70 -144 38 -20 63 -19 83 3 28 30 21 74 -15 109 -61 57 -118 70 -138 32z"/>
 <path d="M7937 6892 c-19 -20 -47 -84 -47 -106 0 -22 29 -46 55 -46 49 0 115 81 106 130 -7 40 -85 55 -114 22z"/>
 <path d="M3937 6693 c-4 -3 -7 -22 -7 -41 0 -27 9 -43 39 -73 46 -47 82 -51 107 -14 14 21 14 30 4 56 -22 52 -116 100 -143 72z"/>
 <path d="M1477 6653 c-11 -10 -8 -72 4 -96 33 -64 80 -84 112 -49 31 35 13 95 -43 139 -16 13 -62 17 -73 6z"/>
 <path d="M7597 6572 c-89 -60 -71 -146 27 -128 43 8 106 60 106 87 0 27 -40 59 -74 59 -17 0 -43 -8 -59 -18z"/>
 <path d="M7080 6469 c-61 -25 -76 -63 -37 -99 31 -31 131 -25 158 9 25 31 24 37 -10 72 -31 31 -65 36 -111 18z"/>
 <path d="M1696 6308 c-10 -6 -16 -22 -16 -48 0 -32 7 -46 35 -75 55 -55 118 -44 118 21 0 50 -98 124 -137 102z"/>
 <path d="M1979 5997 c-23 -51 41 -137 102 -137 35 0 55 34 45 74 -8 31 -62 74 -104 82 -27 5 -33 3 -43 -19z"/>
 <path d="M8405 5996 c-28 -28 -34 -83 -11 -92 22 -8 69 18 82 45 29 56 -26 92 -71 47z"/>
 <path d="M2434 5813 c-33 -24 -19 -74 28 -103 37 -22 107 -27 126 -8 19 19 14 54 -11 84 -19 22 -34 28 -78 31 -30 2 -59 0 -65 -4z"/>
 <path d="M3445 5802 c-62 -38 -69 -78 -19 -100 35 -17 74 -15 113 6 48 24 58 56 26 88 -29 29 -77 32 -120 6z"/>
 <path d="M8177 5732 c-34 -37 -14 -122 25 -107 18 7 48 58 48 82 0 42 -45 57 -73 25z"/>
 <path d="M7024 5395 c-15 -22 -15 -32 -5 -67 26 -84 100 -116 129 -56 15 33 -1 80 -39 114 -40 36 -65 39 -85 9z"/>
 <path d="M8126 5394 c-19 -48 2 -104 39 -104 25 0 40 30 37 73 -3 42 -62 66 -76 31z"/>
 <path d="M7304 4985 c-13 -20 -14 -30 -4 -59 24 -74 117 -115 141 -62 18 38 3 72 -48 111 -54 42 -67 43 -89 10z"/>
 <path d="M3073 4828 c-40 -45 -55 -125 -27 -152 24 -25 60 -19 99 15 75 66 67 159 -13 159 -27 0 -45 -7 -59 -22z"/>
 <path d="M3391 4724 c-28 -35 -43 -92 -31 -115 23 -42 68 -33 114 22 45 54 30 119 -29 119 -24 0 -39 -7 -54 -26z"/>
 <path d="M7611 4668 c-12 -34 5 -79 44 -115 55 -52 115 -37 115 26 0 75 -136 151 -159 89z"/>
 <path d="M3142 4407 c-11 -12 -28 -40 -37 -61 -15 -34 -15 -40 0 -62 17 -27 60 -32 87 -11 22 17 58 78 58 100 0 24 -36 57 -63 57 -13 0 -33 -10 -45 -23z"/>
 <path d="M7863 4349 c-43 -43 25 -159 93 -159 75 0 81 91 9 138 -45 29 -86 37 -102 21z"/>
 <path d="M2879 4069 c-55 -59 -50 -112 12 -117 27 -2 42 4 71 30 47 43 55 71 29 97 -32 32 -77 27 -112 -10z"/>
 <path d="M3445 3621 c-12 -14 -15 -28 -11 -46 14 -56 88 -98 102 -60 8 20 -3 76 -19 96 -21 27 -52 31 -72 10z"/>
 <path d="M3580 3511 c-13 -27 -32 -47 -49 -54 l-28 -10 38 -38 c46 -46 58 -93 34 -139 -9 -17 -14 -35 -10 -38 10 -11 59 22 72 48 17 34 16 114 -2 184 -24 92 -29 96 -55 47z"/>
 <path d="M3442 3388 c-33 -33 18 -122 67 -116 16 2 27 10 29 21 12 64 -58 133 -96 95z"/>
 <path d="M1281 2724 c-35 -44 -24 -110 28 -166 31 -34 45 -35 76 -3 18 17 25 35 25 64 0 106 -78 169 -129 105z"/>
 <path d="M1340 2369 c-24 -40 -20 -68 18 -124 49 -71 108 -82 132 -24 26 61 -31 163 -97 175 -28 6 -34 3 -53 -27z"/>
 <path d="M3668 2368 c-67 -39 -77 -104 -19 -128 35 -14 75 3 115 50 31 37 33 61 8 83 -25 23 -59 21 -104 -5z"/>
 <path d="M1598 2355 c-14 -30 4 -77 40 -105 70 -55 108 21 51 102 -27 37 -74 39 -91 3z"/>
 <path d="M1802 2095 c-15 -32 -3 -64 38 -98 35 -30 71 -35 90 -12 18 22 4 63 -35 102 -40 40 -77 44 -93 8z"/>
 <path d="M1512 2067 c-30 -35 -33 -69 -11 -113 37 -77 111 -109 143 -62 21 30 20 61 -4 107 -34 67 -100 102 -128 68z"/>
 <path d="M3132 2036 c-70 -18 -90 -61 -51 -110 26 -33 84 -35 146 -5 71 34 68 98 -5 119 -20 5 -39 9 -42 9 -3 -1 -25 -6 -48 -13z"/>
 <path d="M2106 1934 c-20 -20 -20 -63 -1 -91 19 -28 97 -57 129 -49 62 15 28 108 -53 142 -43 18 -56 18 -75 -2z"/>
 <path d="M1823 1842 c-17 -11 -31 -54 -24 -77 10 -34 25 -52 65 -79 65 -44 116 -31 116 28 0 72 -107 160 -157 128z"/>
 <path d="M2840 1829 c-93 -20 -70 -139 27 -139 56 0 110 18 127 42 13 18 13 24 0 49 -8 16 -22 32 -32 37 -27 14 -84 20 -122 11z"/>
 <path d="M2436 1814 c-42 -41 2 -123 66 -125 92 -3 138 15 138 53 0 11 -16 36 -36 54 -32 31 -41 34 -94 34 -40 0 -64 -5 -74 -16z"/>
 <path d="M3291 1790 c-38 -9 -56 -25 -66 -58 -9 -31 42 -82 82 -82 37 0 112 39 130 66 12 19 11 25 -9 48 -26 29 -82 40 -137 26z"/>
 <path d="M2436 3956 c-40 -53 -31 -96 20 -96 26 0 80 43 89 70 10 33 -12 60 -49 60 -27 0 -39 -7 -60 -34z"/>
 <path d="M6061 3474 c-32 -40 -29 -116 4 -142 51 -40 101 5 92 84 -8 79 -57 108 -96 58z"/>
 <path d="M6036 3119 c-53 -62 -44 -129 17 -129 40 0 69 28 86 82 17 51 2 78 -43 78 -26 0 -41 -8 -60 -31z"/>
 <path d="M5945 2838 c-46 -25 -75 -62 -75 -95 0 -37 21 -53 69 -53 38 0 91 60 91 104 0 46 -42 68 -85 44z"/>
 <path d="M1802 3853 c-33 -57 79 -108 135 -61 19 15 16 26 -13 53 -33 31 -107 35 -122 8z"/>
 <path d="M2076 3854 c-50 -50 45 -111 115 -74 29 16 23 48 -13 70 -40 24 -81 26 -102 4z"/>
 <path d="M2297 3709 c-21 -12 -47 -61 -47 -88 0 -14 9 -23 25 -27 38 -10 85 14 103 54 16 33 16 35 -7 53 -26 21 -47 23 -74 8z"/>
 <path d="M1968 3448 c-23 -19 -48 -60 -48 -80 0 -9 9 -22 20 -28 36 -20 120 34 120 77 0 35 -60 56 -92 31z"/>
 <path d="M2049 3247 c-43 -29 -52 -72 -17 -87 31 -14 95 7 115 37 14 20 13 24 -11 48 -31 31 -44 31 -87 2z"/>
 <path d="M2588 3773 c-35 -38 -43 -67 -23 -87 20 -20 28 -20 65 -1 30 16 60 51 60 72 0 19 -30 43 -54 43 -12 0 -34 -12 -48 -27z"/>
 <path d="M1547 3719 c-58 -47 -45 -102 24 -102 34 0 86 44 95 80 15 58 -59 72 -119 22z"/>
 <path d="M3226 3654 c-9 -8 -16 -26 -16 -39 0 -33 46 -85 76 -85 45 0 41 74 -7 119 -27 25 -33 26 -53 5z"/>
 <path d="M2331 3449 c-27 -25 -43 -63 -35 -84 4 -9 19 -15 41 -15 60 0 115 74 81 108 -19 19 -62 14 -87 -9z"/>
 <path d="M7777 3451 c-2 -10 2 -33 9 -50 11 -25 19 -32 36 -29 29 4 35 40 14 74 -19 28 -52 32 -59 5z"/>
 <path d="M1388 3453 c-40 -46 -50 -109 -22 -137 56 -57 144 58 104 135 -13 24 -61 25 -82 2z"/>
 <path d="M1290 3125 c-28 -30 -51 -114 -41 -151 4 -15 19 -36 33 -47 88 -66 178 98 111 200 -21 32 -72 31 -103 -2z"/>
 <path d="M7963 3152 c-11 -7 -16 -26 -14 -49 0 -6 13 -25 27 -42 28 -34 64 -40 84 -16 16 20 -3 68 -38 95 -26 21 -40 24 -59 12z"/>
 <path d="M2613 3152 c-15 -10 -35 -61 -27 -73 3 -5 16 -9 28 -9 31 0 63 47 49 69 -12 19 -33 24 -50 13z"/>
 <path d="M2237 2934 c-30 -30 32 -76 73 -54 19 10 20 13 7 33 -14 22 -66 35 -80 21z"/>
 <path d="M2458 2994 c-33 -17 -36 -39 -9 -54 28 -15 46 -13 72 9 23 19 24 19 5 40 -22 25 -32 25 -68 5z"/>
 <path d="M8257 2903 c-29 -28 26 -113 73 -113 45 0 48 34 8 93 -19 26 -64 38 -81 20z"/>
 <path d="M7382 2853 c-35 -17 -47 -40 -31 -59 15 -18 49 -18 77 2 49 34 10 84 -46 57z"/>
 <path d="M7684 2825 c-12 -31 49 -72 87 -60 23 8 25 38 3 59 -20 21 -83 21 -90 1z"/>
 <path d="M7934 2675 c-16 -40 51 -114 90 -99 38 14 24 74 -23 99 -38 19 -60 19 -67 0z"/>
 <path d="M7134 2644 c-22 -32 -9 -79 21 -79 28 0 51 50 36 81 -14 31 -36 30 -57 -2z"/>
 <path d="M7072 2328 c-18 -18 -15 -85 3 -92 19 -7 55 28 55 53 0 47 -30 67 -58 39z"/>
 <path d="M8030 2411 c-23 -44 -3 -111 34 -111 19 0 46 34 46 58 0 12 -5 33 -12 47 -14 30 -53 34 -68 6z"/>
 <path d="M3485 2088 c-46 -25 -75 -62 -75 -94 0 -58 65 -81 124 -45 36 23 76 77 76 103 0 40 -78 63 -125 36z"/>
 <path d="M2166 1634 c-21 -20 -20 -73 0 -103 36 -50 153 -70 174 -30 38 70 -119 189 -174 133z"/>
 <path d="M2955 1565 c-29 -28 -30 -36 -10 -74 20 -40 63 -53 127 -40 89 19 107 63 46 114 -42 36 -128 36 -163 0z"/>
 <path d="M2560 1557 c-26 -13 -36 -43 -26 -83 17 -67 195 -73 204 -7 5 34 -16 63 -61 84 -49 22 -82 24 -117 6z"/>
 <path d="M6246 1554 c-47 -47 28 -163 87 -132 30 16 22 71 -17 112 -37 40 -48 43 -70 20z"/>
 <path d="M4602 1545 c-38 -32 -48 -69 -27 -101 20 -32 40 -30 76 5 33 33 39 80 13 105 -21 21 -27 20 -62 -9z"/>
 <path d="M7569 1402 c-38 -34 -34 -68 9 -79 41 -11 64 -4 100 30 37 35 38 40 16 61 -26 27 -89 20 -125 -12z"/>
 <path d="M6472 1368 c-17 -17 -15 -64 5 -84 29 -29 81 -46 103 -34 36 19 18 79 -32 110 -38 23 -59 25 -76 8z"/>
 <path d="M6738 1235 c-15 -33 9 -69 57 -85 50 -17 85 -6 85 25 0 64 -117 114 -142 60z"/>
 <path d="M4311 1086 c-23 -27 -26 -94 -6 -116 37 -41 85 -16 85 44 0 28 -19 76 -31 76 -4 0 -14 2 -22 5 -7 3 -19 -1 -26 -9z"/>
 <path d="M5470 1027 c0 -33 23 -60 46 -55 36 7 12 78 -27 78 -13 0 -19 -7 -19 -23z"/>
 <path d="M5597 853 c-10 -9 -8 -55 2 -71 13 -20 46 -10 49 15 6 41 -29 79 -51 56z"/>
 <path d="M4277 803 c-4 -3 -7 -23 -7 -44 0 -47 40 -85 71 -68 30 16 20 88 -15 111 -14 10 -41 10 -49 1z"/>
 <path d="M8542 5857 c-26 -27 -28 -59 -6 -78 13 -11 22 -10 52 6 32 17 37 25 37 55 0 32 -3 35 -30 38 -22 2 -37 -4 -53 -21z"/>
 <path d="M8376 5644 c-22 -33 -18 -88 7 -92 26 -5 67 36 67 68 0 52 -46 67 -74 24z"/>
 <path d="M7300 5500 c-28 -53 33 -150 94 -150 67 0 73 75 11 137 -39 39 -88 45 -105 13z"/>
 <path d="M8331 5376 c-17 -21 -9 -77 12 -90 38 -23 64 55 29 87 -23 21 -26 21 -41 3z"/>
 <path d="M7579 5199 c-17 -33 -2 -83 38 -123 45 -45 75 -54 108 -32 38 25 35 84 -7 126 -53 53 -118 67 -139 29z"/>
 <path d="M7840 4895 c-38 -46 42 -165 111 -165 36 0 58 22 59 58 0 35 -16 58 -64 92 -49 33 -87 38 -106 15z"/>
 <path d="M346 4728 c-31 -44 -13 -128 28 -128 21 0 47 35 53 74 10 64 -48 102 -81 54z"/>
 <path d="M8089 4569 c-31 -31 -20 -83 28 -130 49 -49 84 -58 112 -30 33 33 28 86 -11 123 -25 24 -87 58 -104 58 -2 0 -14 -10 -25 -21z"/>
 <path d="M2833 4503 c-46 -67 -54 -120 -25 -146 69 -62 188 68 142 154 -8 14 -21 19 -55 19 -36 0 -47 -5 -62 -27z"/>
 <path d="M8373 4410 c-77 -31 2 -140 102 -140 52 0 75 15 75 50 0 67 -103 120 -177 90z"/>
 <path d="M9157 4299 c-41 -34 -48 -66 -19 -92 39 -35 142 -8 171 45 15 25 14 29 -8 52 -36 38 -94 36 -144 -5z"/>
 <path d="M321 4241 c-15 -15 -21 -34 -21 -66 0 -125 108 -159 126 -40 9 66 -11 108 -58 120 -19 5 -32 1 -47 -14z"/>
 <path d="M2656 4235 c-55 -42 -76 -128 -34 -144 35 -13 66 -1 103 40 40 45 44 70 13 99 -25 23 -55 25 -82 5z"/>
 <path d="M8737 4190 c-62 -19 -76 -63 -31 -99 36 -28 133 -30 157 -3 25 28 21 67 -9 91 -28 22 -68 25 -117 11z"/>
 <path d="M8278 4130 c-48 -30 7 -112 82 -125 44 -7 90 13 90 40 0 24 -20 60 -41 74 -28 17 -110 24 -131 11z"/>
 <path d="M467 3823 c-52 -14 -30 -126 32 -157 54 -29 101 -16 101 27 0 32 -50 114 -76 126 -26 11 -28 12 -57 4z"/>
 <path d="M700 3470 c-32 -59 79 -162 140 -130 38 20 18 91 -40 137 -25 21 -88 16 -100 -7z"/>
 <path d="M8434 2546 c-10 -26 19 -71 46 -71 31 0 38 27 16 60 -18 27 -53 33 -62 11z"/>
 <path d="M8016 2135 c-23 -35 -21 -100 4 -125 25 -25 31 -25 65 2 24 19 27 26 22 65 -8 75 -59 108 -91 58z"/>
 <path d="M5077 1828 c-48 -17 -48 -89 1 -96 29 -5 81 25 94 53 21 47 -26 68 -95 43z"/>
 <path d="M6239 1769 c-14 -27 0 -61 35 -85 55 -35 77 20 30 75 -30 36 -49 39 -65 10z"/>
 <path d="M5280 1736 c-66 -24 -76 -106 -12 -106 36 0 88 33 97 61 6 17 2 27 -15 41 -25 21 -24 21 -70 4z"/>
 <path d="M4829 1714 c-42 -17 -64 -56 -49 -83 14 -27 38 -33 70 -16 55 29 77 85 41 105 -23 12 -18 12 -62 -6z"/>
 <path d="M5075 1620 c-32 -12 -47 -36 -43 -67 3 -24 8 -28 41 -31 30 -3 43 2 67 27 34 34 36 43 14 65 -17 17 -47 20 -79 6z"/>
 <path d="M6467 1583 c-12 -11 -8 -48 8 -70 17 -25 72 -40 87 -25 14 14 -8 68 -36 87 -22 16 -48 19 -59 8z"/>
 <path d="M4828 1504 c-32 -17 -44 -53 -28 -83 31 -59 151 21 126 84 -7 19 -62 19 -98 -1z"/>
 <path d="M6672 1453 c-23 -43 28 -87 92 -81 44 4 46 37 6 72 -37 30 -85 35 -98 9z"/>
 <path d="M7200 1430 c-24 -24 -24 -29 -4 -58 22 -32 93 -31 130 2 27 23 28 24 11 50 -15 22 -25 26 -67 26 -37 0 -55 -5 -70 -20z"/>
 <path d="M6938 1409 c-23 -13 -23 -51 0 -72 25 -23 94 -22 123 2 22 18 22 20 7 43 -22 34 -93 49 -130 27z"/>
 <path d="M4655 1324 c-29 -31 -35 -91 -10 -100 46 -18 90 31 83 92 -4 40 -40 44 -73 8z"/>
 <path d="M4430 1298 c-11 -18 -20 -41 -20 -51 0 -81 89 -72 106 10 14 71 -49 101 -86 41z"/>
 <path d="M7353 1280 c-32 -13 -44 -41 -30 -71 16 -30 81 -38 126 -14 77 39 -12 119 -96 85z"/>
 <path d="M7038 1219 c-23 -13 -23 -51 0 -72 36 -33 142 -12 142 28 0 40 -97 71 -142 44z"/>
 <path d="M4519 1114 c-27 -33 -11 -103 23 -104 16 0 48 46 48 70 0 46 -43 67 -71 34z"/>
 <path d="M4444 873 c-3 -16 -7 -33 -9 -39 -6 -19 25 -54 46 -54 38 0 46 79 10 107 -25 20 -40 15 -47 -14z"/>
 <path d="M5537 633 c-15 -14 -7 -81 9 -87 21 -8 44 11 44 36 0 41 -32 72 -53 51z"/>
 <path d="M4447 609 c-8 -29 2 -76 19 -90 7 -6 23 -9 36 -7 29 4 36 44 13 87 -19 38 -59 43 -68 10z"/>
 <path d="M5447 392 c-26 -29 -22 -62 8 -62 28 0 61 41 51 65 -8 21 -39 19 -59 -3z"/>
 </g>

</svg>