<svg width="26" height="26" viewBox="0 0 26 26" fill="none" xmlns="http://www.w3.org/2000/svg">
<path d="M20 0H6C2.68629 0 0 2.68629 0 6V20C0 23.3137 2.68629 26 6 26H20C23.3137 26 26 23.3137 26 20V6C26 2.68629 23.3137 0 20 0Z" fill="#C44536"/>
<path d="M11.9432 17.9453C11.9668 12.8906 11.9668 12.8906 11.7009 12.8484C10.5865 12.6714 9.8754 12.4051 9.0851 11.869C8.0234 11.1487 7.36419 10.1658 7.0992 8.90809C6.91725 8.04454 6.98088 7.29596 7.32922 6.20179C7.6863 5.08018 7.6969 4.69957 7.38839 4.0781L7.15305 3.60402L8.09819 3.26413C9.17146 2.87817 9.15331 2.87459 9.43151 3.52654C9.70628 4.17046 9.67799 5.13855 9.35415 6.17441C9.02884 7.21495 8.95956 7.70603 9.04655 8.35466C9.21518 9.61204 9.99641 10.4243 11.3773 10.778C12.1233 10.9691 14.0011 10.9671 14.6642 10.7744C15.3327 10.5802 15.9778 10.2056 16.3079 9.81979C17.0449 8.9583 17.1779 7.84817 16.7233 6.35215C16.3103 4.99337 16.3325 3.8257 16.7833 3.19466C16.918 3.00611 16.918 3.00611 17.6716 3.21917C19.0423 3.6067 18.9448 3.52985 18.6665 4.00289C18.3429 4.55292 18.3528 4.99996 18.7173 6.2993C19.1334 7.78255 19.0955 8.69962 18.5681 9.91484C18.2004 10.762 17.3297 11.6623 16.4634 12.0909C15.7849 12.4267 14.621 12.8107 14.282 12.8107C13.8878 12.8107 13.8477 12.8611 13.9124 13.2755C13.9448 13.4832 13.9733 15.7562 13.9758 18.3266L13.9803 23H12.9499H11.9196L11.9432 17.9453ZM7.14204 20.4326V19.4699H9.00357H10.8651V20.4326V21.3954H9.00357H7.14204V20.4326ZM15.0441 20.4326V19.4699H16.9056H18.7671V20.4326V21.3954H16.9056H15.0441V20.4326ZM7.14204 17.3036V16.3409H9.00357H10.8651V17.3036V18.2664H9.00357H7.14204V17.3036ZM15.0441 17.3036V16.3409H16.9056H18.7671V17.3036V18.2664H16.9056H15.0441V17.3036ZM7.14204 14.1746V13.2119H9.00357H10.8651V14.1746V15.1374H9.00357H7.14204V14.1746ZM15.0441 14.1746V13.2119H16.9056H18.7671V14.1746V15.1374H16.9056H15.0441V14.1746ZM13.7625 9.74189C13.5473 9.28959 13.2579 8.58377 13.1194 8.17341L12.8676 7.42729L12.7381 7.93272C12.5831 8.53798 11.7061 10.486 11.5916 10.4794C11.5472 10.4768 11.1444 10.2872 10.6964 10.0581L9.88194 9.6416L10.9624 7.49738L12.0428 5.35316L12.8819 5.35121L13.721 5.34925L14.8058 7.48306C15.4024 8.65666 15.8796 9.62694 15.8662 9.63924C15.8108 9.69015 14.2302 10.5642 14.1936 10.5642C14.1717 10.5642 13.9777 10.1942 13.7625 9.74188V9.74189Z" fill="white"/>
</svg>
