<svg width="350" height="350" viewBox="0 0 204 261" fill="none" xmlns="http://www.w3.org/2000/svg">
<g filter="url(#filter0_d)">
<path d="M76.5867 29.2029C57.6878 29.2029 40.0775 54.9742 40.0775 69.2915H5C5 29.2029 45.3272 3.19311 63.7011 2H163.207L177.524 29.2029H76.5867Z" fill="url(#paint0_linear)"/>
<path d="M199 69.2915H67.9963C67.9963 53.5424 80.8819 43.5203 89.4723 43.5203H185.398L199 69.2915Z" fill="url(#paint1_linear)"/>
<path d="M127.413 225.351C146.312 225.351 163.922 199.579 163.922 185.262H199C199 225.351 158.673 251.36 140.299 252.553H40.7933L26.476 225.351H127.413Z" fill="url(#paint2_linear)"/>
<path d="M4.99995 185.262H136.004C136.004 201.011 123.118 211.033 114.528 211.033H18.6014L4.99995 185.262Z" fill="url(#paint3_linear)"/>
<path fill-rule="evenodd" clip-rule="evenodd" d="M67.3715 163.758C67.8195 163.777 68.2664 163.786 68.7122 163.786H97.6788L164.388 101.886C158.194 97.0157 151.671 93.354 145.275 91.4711L67.3715 163.758ZM144.855 163.786H114.518L172.937 109.578C177.701 114.432 182.094 119.924 185.864 125.734L144.855 163.786ZM161.694 163.786H199C199 154.966 196.25 145.305 191.677 135.965L161.694 163.786ZM129.965 90.0516H99.6282L35.7331 149.34C41.4794 154.238 47.6431 158.154 53.8646 160.666L129.965 90.0516ZM54.037 90.0516H82.7889L27.5072 141.348C23.1279 136.525 19.1649 131.163 15.8281 125.506L54.037 90.0516ZM37.1978 90.0516H5C5 98.1644 7.00613 106.652 10.4604 114.861L37.1978 90.0516Z" fill="#E20050"/>
</g>
<defs>
<filter id="filter0_d" x="-6.10352e-05" y="0" width="204" height="260.553" filterUnits="userSpaceOnUse" color-interpolation-filters="sRGB">
<feFlood flood-opacity="0" result="BackgroundImageFix"/>
<feColorMatrix in="SourceAlpha" type="matrix" values="0 0 0 0 0 0 0 0 0 0 0 0 0 0 0 0 0 0 127 0"/>
<feOffset dy="3"/>
<feGaussianBlur stdDeviation="2.5"/>
<feColorMatrix type="matrix" values="0 0 0 0 0 0 0 0 0 0 0 0 0 0 0 0 0 0 0.4 0"/>
<feBlend mode="normal" in2="BackgroundImageFix" result="effect1_dropShadow"/>
<feBlend mode="normal" in="SourceGraphic" in2="effect1_dropShadow" result="shape"/>
</filter>
<linearGradient id="paint0_linear" x1="102" y1="2" x2="102" y2="69.2915" gradientUnits="userSpaceOnUse">
<stop stop-color="#E48CAB"/>
<stop offset="1" stop-color="#E20050"/>
</linearGradient>
<linearGradient id="paint1_linear" x1="102" y1="2" x2="102" y2="69.2915" gradientUnits="userSpaceOnUse">
<stop stop-color="#E48CAB"/>
<stop offset="1" stop-color="#E20050"/>
</linearGradient>
<linearGradient id="paint2_linear" x1="102" y1="252.553" x2="102" y2="185.262" gradientUnits="userSpaceOnUse">
<stop stop-color="#8D123D"/>
<stop offset="1" stop-color="#E20050"/>
</linearGradient>
<linearGradient id="paint3_linear" x1="102" y1="252.553" x2="102" y2="185.262" gradientUnits="userSpaceOnUse">
<stop stop-color="#8D123D"/>
<stop offset="1" stop-color="#E20050"/>
</linearGradient>
</defs>
</svg>
