<svg id="Layer_1" xmlns="http://www.w3.org/2000/svg" viewBox="0 0 378.6 208.4" width="2500" height="1376"><style>.st0{fill:#aa0e20}.st1{fill:#141225}</style><path class="st0" d="M212.3 74.6l-20.9 40.3-26.8-51v-.2l-5.4-9.9-6.1 10.1 38.4 69.4 38.3-69.4-6-10.1z"/><path class="st0" d="M191.5 0l-4.7 7.5-21.7 36.4 5.5 10.4L191.5 21 212 54.3l5.6-10.9-18.2-30.5z"/><path class="st0" d="M191.5 19.8C127.2 19.8 75 67.7 75 67.8c0 0 52.2 48 116.5 48s116.5-48 116.5-48c0 .1-52.2-48-116.5-48zm0 85.4c-50.1 0-106.7-37.3-106.7-37.4 0 0 56.6-37.4 106.7-37.4s106.7 36.5 106.7 37.4c-.1.9-56.7 37.4-106.7 37.4z"/><path class="st1" d="M24.8 164.6c-2.9-1.5-5.9-2.6-9.8-2.6-5.5 0-8.7 3.3-8.7 7.4 0 4.8 4.9 7.9 9.7 10.4 8.8 4.7 12.7 9.9 12.5 16.2-.2 8.4-6.5 12.5-14.6 12.4-7.1-.1-11.3-2.2-13.9-4.4l2.1-4.2c2.7 1.9 6.5 4 11.5 4 6.2 0 9.7-4.1 9.7-7.6 0-5.4-4.1-8.3-10.4-12-7.2-4.3-11.9-8-11.9-14.8 0-5.5 4.2-12 13.7-12 4.6 0 9.3 1.5 11.8 3.2l-1.7 4zM138.8 186h13.4v15.4c-6.3 5.7-12.7 7-18.8 7-15.8 0-26.3-11.6-26.3-25.6 0-14.8 11.7-25.6 25.6-25.6 8.9 0 14.8 3.7 18.6 7-1.1 1.3-2.1 2.7-3.2 3.9-3.6-3.2-8.5-6.3-15.3-6.3-11 0-19.9 9-19.9 20.9 0 12 8.5 21.1 20.6 21.1 5.3 0 10.6-2.1 13.4-4.5v-9h-8.2V186h.1zM175.9 158.3h5.3v31.9c0 7.4 4.5 13.7 11.9 13.7s11.9-6.4 11.9-13.7v-31.9h5.3v32.2c0 9-5.3 17.9-17.3 17.9-11.9 0-17.2-9-17.2-17.9v-32.2h.1zM261.1 207.5h-24.9v-49.1h5.3V203h19.7v4.5h-.1zM55.5 207.5v-46.7l-4.2-3.1-.8.5v49.3h5.1zM79.4 158.3v20.3l-18.6-13.9v6.5l18.6 13.7v22.6h5.1v-49.2zM285.5 207.4l14.5-33.7 2.2-5.2 16.6 39h5.8l-21.8-49.8h-1l-22 49.8h5.7zM364.4 188.1c6-3.1 8.5-9.2 8.5-14.4 0-11.8-9.8-18.7-27.8-15.1v48.9h5.2v-44.7c11.1-2.1 17.2 3.6 17.2 11 0 4.9-2.5 8.7-6.8 10.6 0 0-.1 0-.1.1-3.5 1.6-2.7 3.5-2.7 3.5l1.5 2 12.5 17.4h6.7l-14.2-19.3z"/></svg>