<svg version="1.1" id="Layer_1"  xmlns="http://www.w3.org/2000/svg" viewBox="0 0 240 240"><g><path display="none" fill-rule="evenodd" clip-rule="evenodd" fill="#FEFEFE" d="M121.79,5.059 c41.025,0,82.051,0.016,123.076-0.052c1.86-0.003,2.227,0.365,2.225,2.226c-0.06,76.073-0.06,152.146,0,228.22 c0.002,1.859-0.364,2.227-2.225,2.225c-82.051-0.06-164.101-0.06-246.151,0c-1.86,0.002-2.227-0.364-2.226-2.225 c0.061-76.073,0.061-152.146,0-228.22c-0.001-1.86,0.364-2.229,2.225-2.226C39.74,5.075,80.765,5.059,121.79,5.059z M121.197,9.646 c-25.816-0.029-48.905,8.09-69.591,23.328c-8.877,6.539-16.226,14.705-22.637,23.508C16.353,73.807,9.866,93.523,9.203,114.904 c-0.813,26.195,6.048,50.101,22.749,70.77c6.609,8.18,13.68,15.801,22.493,21.744c7.433,5.012,14.997,9.609,23.353,13.008 c21.854,8.891,44.293,10.679,67.285,6.061c16.43-3.3,31.239-10.396,44.757-20.199c8.915-6.466,16.342-14.536,22.922-23.24 c13.292-17.586,18.942-38.018,20.976-59.646c0.381-4.046-0.281-8.005-0.654-12.021c-2.069-22.293-9.084-42.523-23.676-59.851 c-6.777-8.048-13.942-15.583-22.837-21.394c-7.271-4.75-14.644-9.159-22.776-12.367C150.074,12.355,135.909,9.674,121.197,9.646z" /> <path fill-rule="evenodd" clip-rule="evenodd" fill="#010101" d="M121.197,9.646c14.712,0.028,28.877,2.709,42.597,8.121 c8.133,3.208,15.505,7.617,22.776,12.367c8.895,5.811,16.06,13.345,22.837,21.394c14.592,17.328,21.606,37.558,23.676,59.851 c0.373,4.017,1.035,7.975,0.654,12.021c-2.033,21.629-7.684,42.061-20.976,59.646c-6.58,8.704-14.007,16.774-22.922,23.24 c-13.518,9.803-28.327,16.899-44.757,20.199c-22.992,4.618-45.432,2.83-67.285-6.061c-8.356-3.398-15.92-7.996-23.353-13.008 c-8.813-5.943-15.884-13.564-22.493-21.744C15.25,165.005,8.39,141.1,9.203,114.904c0.664-21.381,7.15-41.098,19.767-58.422 c6.411-8.803,13.76-16.969,22.637-23.508C72.292,17.736,95.381,9.617,121.197,9.646z M56.765,119.24 c0,21.096,0.042,42.192-0.058,63.288c-0.012,2.422,0.536,3.093,3.042,3.087c37.394-0.091,74.787-0.063,112.181-0.063 c0.452,0,0.912-0.052,1.356,0.009c1.22,0.166,1.531-0.374,1.507-1.533c-0.068-3.258-0.227-6.535,0.041-9.772 c0.209-2.535-0.725-2.891-2.996-2.886c-32.143,0.075-64.285,0.037-96.427,0.088c-1.962,0.004-2.772-0.267-2.766-2.572 c0.088-33.048,0.081-66.095,0.012-99.143c-0.004-2.115,0.499-2.71,2.669-2.7c18.832,0.092,37.665,0.053,56.497,0.053 c13.581,0,27.163-0.032,40.743,0.04c1.736,0.009,2.342-0.382,2.246-2.203c-0.159-3.07-0.205-6.166,0.01-9.229 c0.161-2.29-0.559-2.797-2.808-2.792c-37.484,0.077-74.968,0.076-112.452,0.002c-2.213-0.004-2.864,0.468-2.854,2.769 C56.804,76.867,56.765,98.053,56.765,119.24z M139.552,134.929c0.9,9.296,5.554,16.222,13.245,20.417 c13.153,7.176,27.025,6.857,40.469,0.882c9.392-4.174,14.101-14.03,12.761-23.946c-1.421-10.511-7.448-16.85-18.457-19.163 c-7.334-1.541-14.721-2.835-22.064-4.336c-3.829-0.783-6.317-3.332-6.706-6.54c-0.427-3.523,1.151-6.409,4.512-8.227 c2.275-1.23,4.814-1.739,7.299-1.811c6.777-0.195,13.471,0.108,16.214,8.108c0.259,0.753,0.824,0.842,1.504,0.84 c4.619-0.011,9.238-0.046,13.855,0.02c1.36,0.019,1.458-0.547,1.234-1.642c-1.3-6.359-4.124-11.927-9.646-15.466 c-11.21-7.187-23.334-7.389-35.669-3.532c-8.184,2.559-13.401,8.56-15.707,16.505c-2.954,10.18,3.218,20.464,12.643,24.3 c4.667,1.898,9.633,2.343,14.506,3.27c4.606,0.877,9.368,1.146,13.749,2.939c2.851,1.168,5.271,3.016,6.191,6.222 c1.37,4.775-1.146,8.407-6.093,10.9c-4.186,2.11-8.779,2.059-13.299,1.479c-6.549-0.84-12.123-3.159-13.83-10.463 c-0.177-0.76-0.679-0.749-1.207-0.75C149.909,134.925,144.764,134.929,139.552,134.929z"/> <path fill-rule="evenodd" clip-rule="evenodd" fill="#FCFCFC" d="M56.765,119.24c0-21.187,0.039-42.374-0.055-63.56 c-0.01-2.3,0.641-2.773,2.854-2.769c37.483,0.074,74.967,0.075,112.452-0.002c2.249-0.005,2.969,0.503,2.808,2.792 c-0.215,3.063-0.169,6.16-0.01,9.229c0.096,1.821-0.51,2.212-2.246,2.203c-13.58-0.072-27.162-0.04-40.743-0.04 c-18.833,0-37.665,0.039-56.497-0.053c-2.17-0.01-2.673,0.585-2.669,2.7c0.068,33.047,0.076,66.095-0.012,99.143 c-0.006,2.306,0.804,2.576,2.766,2.572c32.142-0.051,64.284-0.013,96.427-0.088c2.271-0.005,3.205,0.351,2.996,2.886 c-0.268,3.237-0.109,6.515-0.041,9.772c0.024,1.159-0.287,1.699-1.507,1.533c-0.444-0.061-0.904-0.009-1.356-0.009 c-37.394,0-74.787-0.028-112.181,0.063c-2.507,0.006-3.054-0.665-3.042-3.087C56.807,161.433,56.765,140.336,56.765,119.24z"/> <path fill-rule="evenodd" clip-rule="evenodd" fill="#FCFCFC" d="M139.552,134.929c5.212,0,10.357-0.004,15.503,0.006 c0.528,0.001,1.03-0.01,1.207,0.75c1.707,7.304,7.281,9.623,13.83,10.463c4.52,0.58,9.113,0.632,13.299-1.479 c4.946-2.493,7.463-6.125,6.093-10.9c-0.921-3.206-3.341-5.054-6.191-6.222c-4.381-1.793-9.143-2.063-13.749-2.939 c-4.873-0.927-9.839-1.371-14.506-3.27c-9.425-3.835-15.597-14.12-12.643-24.3c2.306-7.946,7.523-13.947,15.707-16.505 c12.335-3.857,24.459-3.655,35.669,3.532c5.522,3.54,8.347,9.107,9.646,15.466c0.224,1.095,0.126,1.661-1.234,1.642 c-4.617-0.066-9.236-0.031-13.855-0.02c-0.68,0.001-1.245-0.087-1.504-0.84c-2.743-8-9.437-8.304-16.214-8.108 c-2.484,0.072-5.023,0.581-7.299,1.811c-3.36,1.817-4.938,4.703-4.512,8.227c0.389,3.208,2.877,5.757,6.706,6.54 c7.344,1.501,14.73,2.795,22.064,4.336c11.009,2.313,17.036,8.652,18.457,19.163c1.34,9.916-3.369,19.772-12.761,23.946 c-13.443,5.976-27.315,6.294-40.469-0.882C145.105,151.15,140.452,144.225,139.552,134.929z"/> </g> </svg> 