<svg width="100" height="100" viewBox="0 0 100 100" fill="none" xmlns="http://www.w3.org/2000/svg">
<mask id="mask0" mask-type="alpha" maskUnits="userSpaceOnUse" x="14" y="20" width="68" height="72">
<path d="M34.2239 25.0625C28.9222 26.8275 24.828 33.5804 21.8867 37.9916C19.4203 41.689 16.9455 45.4623 15.6117 49.6907C14.5649 53.0115 14.0087 56.8994 14.0177 60.8851C14.038 68.6873 16.2266 76.866 21.1515 81.908C22.1925 82.974 23.467 83.6009 24.7831 84.2414C27.1454 85.3898 28.8656 87.3408 31.3229 88.3836C37.7644 91.1147 45.9065 92.1009 52.8529 91.1456C61.3893 89.9709 70.927 84.0155 76.0465 77.1937C81.1614 70.3776 82.7027 59.3197 79.978 51.3115C77.9117 45.237 74.1637 39.9227 71.3798 34.1765C69.4898 30.2732 65.5635 27.5529 61.835 25.3193C58.5313 23.3387 54.8606 22.3616 51.3481 20.8592C50.1334 20.3397 48.9389 20.1228 47.762 20.1228C43.0537 20.1228 38.6238 23.5974 34.2239 25.0625Z" fill="white"/>
</mask>
<g mask="url(#mask0)">
<path fill-rule="evenodd" clip-rule="evenodd" d="M34.2239 25.0625C28.9222 26.8275 24.828 33.5804 21.8867 37.9916C19.4203 41.689 16.9455 45.4623 15.6117 49.6907C14.5649 53.0115 14.0087 56.8994 14.0177 60.8851C14.038 68.6873 15.9097 74.1247 20.8347 79.1667C21.8756 80.2326 23.467 83.6009 24.7831 84.2414C27.1454 85.3898 28.8656 87.3408 31.3229 88.3836C37.7644 91.1147 45.9065 92.1009 52.8529 91.1456C61.3893 89.9709 70.927 84.0155 76.0465 77.1936C81.1614 70.3776 82.7027 59.3197 79.978 51.3115C77.9117 45.237 74.1637 39.9227 71.3798 34.1765C69.4898 30.2732 65.5635 27.5529 61.835 25.3193C58.5313 23.3387 54.8606 22.3616 51.3481 20.8592C50.1334 20.3397 48.9389 20.1228 47.762 20.1228C43.0537 20.1228 38.6238 23.5974 34.2239 25.0625Z" fill="url(#paint0_radial)"/>
</g>
<path fill-rule="evenodd" clip-rule="evenodd" d="M35.2928 11.465C35.0625 11.6089 34.8249 11.9102 34.8635 12.1967C35.1803 14.5439 35.5723 16.8821 36.0742 19.1984C36.2535 20.0268 36.3216 21.7198 36.8994 22.3689C37.4923 23.0361 38.9726 22.1805 39.6375 21.9263C42.8572 20.6946 46.2759 19.9701 49.7247 19.7888C50.5211 19.7468 51.3339 19.7352 52.1009 19.9507C52.9163 20.1798 53.6394 20.654 54.4391 20.9308C54.7441 21.0359 55.0582 21.1121 55.3717 21.1882C55.515 21.223 55.6721 21.2566 55.8062 21.1953C56.246 20.994 56.1989 18.8564 56.248 18.4022C56.3664 17.2963 56.4665 16.1885 56.528 15.0788C56.5954 13.8677 57.0359 11.8108 56.1145 10.8237C55.6092 10.2824 54.5288 9.95331 53.8482 9.66943C52.915 9.28101 51.8483 9.11262 50.8575 8.91067C48.7097 8.47193 46.5128 8.20675 44.3186 8.39451C41.106 8.66936 38.0106 9.76685 35.2928 11.465Z" fill="#004531"/>
<path fill-rule="evenodd" clip-rule="evenodd" d="M24.3539 47.1963C21.5634 51.7734 20.6394 57.4731 21.3959 62.7263C22.1832 68.1854 24.812 73.4076 28.8327 77.2511C30.8529 79.1822 33.1146 80.3977 35.6629 81.4965C51.1477 88.1711 73.2357 79.9261 74.7068 61.8643C75.1119 56.9001 74.2094 51.7966 72.5034 47.2125C71.419 44.2981 69.8497 45.2678 67.3551 45.2336C65.7858 45.2117 64.223 45.0994 62.6491 45.1149C55.1763 45.1917 47.7081 45.6614 40.2857 46.5221C35.9613 47.0234 31.5957 47.6583 27.2726 47.1492" fill="#FFAFBC"/>
<path fill-rule="evenodd" clip-rule="evenodd" d="M65.8849 43.1897C67.5484 43.4658 69.1707 43.8691 70.6883 44.482C71.1713 44.6775 71.7072 44.9653 71.7969 45.4724C71.9232 46.1834 71.1097 46.6725 70.4265 46.9332C65.0924 48.9675 59.9833 49.5907 54.3213 50.1237C48.3249 50.6876 42.259 50.6037 36.279 49.9043C32.6293 49.4778 28.9102 49.4882 25.4006 48.2281C25.0937 48.1177 24.7782 47.9926 24.5544 47.7577C23.2515 46.3893 30.67 44.3311 31.5907 44.1581C35.1252 43.4955 38.7141 43.1897 42.2859 42.7955C47.158 42.2567 52.0734 42.1909 56.9664 42.4548C59.8439 42.6097 62.9308 42.6993 65.8849 43.1897Z" fill="#FFD3DA"/>
<path fill-rule="evenodd" clip-rule="evenodd" d="M49.3682 59.8067C44.7297 62.5753 40.6913 66.4613 38.3969 70.6984C36.5933 74.0283 36.5213 77.1272 40.0964 79.297C45.0477 82.3017 49.4631 81.5836 54.7344 80.3867C59.9816 79.1957 67.6285 75.8826 70.1571 70.8145C72.1662 66.7885 73.5555 59.3209 68.5702 56.7356C62.6163 53.6483 54.5924 56.6891 49.3682 59.8067Z" fill="#FF93A1"/>
<path fill-rule="evenodd" clip-rule="evenodd" d="M27.2026 61.7104C28.6148 60.5697 32.0446 56.2094 29.4479 54.5706C29.0153 54.2977 28.463 54.2648 27.9598 54.3654C24.6026 55.0332 24.4534 58.4734 25.0999 61.1291C25.2367 61.6878 25.5809 62.3504 26.1627 62.313C26.3911 62.2975 26.594 62.1698 26.7785 62.0356C26.9199 61.933 27.0619 61.8239 27.2026 61.7104Z" fill="#FF93A1"/>
<path fill-rule="evenodd" clip-rule="evenodd" d="M68.59 82.3416C58.83 88.6613 45.8509 90.3937 34.7886 86.636C20.559 81.8022 13.4022 67.5781 16.4427 53.2404C18.2076 44.9154 22.7002 37.1601 28.429 30.859C31.8051 27.1452 35.9646 23.9747 40.7144 22.1798C48.8815 19.0944 56.3583 22.403 62.8776 27.4414C68.768 31.9939 73.5983 37.9724 76.8239 44.6283C83.2935 57.9781 81.8904 73.7288 68.59 82.3416ZM83.3864 54.7179C80.5973 39.1105 67.6967 22.7263 52.0064 18.275C44.0218 16.0097 35.3717 20.2622 29.5507 25.3942C24.0503 30.2422 19.5937 36.2948 16.6416 42.9617C13.8257 49.3221 11.7642 57.6045 12.7498 64.5714C13.3728 68.9704 15.7038 74.0327 18.1972 77.7155C20.72 81.4415 24.1013 84.583 28.0455 86.8115C33.7232 90.0188 40.3093 91.5602 46.8267 91.6621C53.5979 91.7679 59.2207 89.9627 65.3585 87.4561C72.7096 84.4546 78.0908 79.1839 81.3629 71.9809C83.817 66.578 84.425 60.5299 83.3864 54.7179Z" fill="#004531"/>
<path fill-rule="evenodd" clip-rule="evenodd" d="M40.8769 29.3986C40.9463 29.7399 41.0209 30.0909 41.2185 30.3799C41.5405 30.8496 42.1216 31.0651 42.672 31.2277C43.7328 31.5413 44.8708 31.8948 45.9866 31.9271C47.2961 31.9658 48.6364 31.6097 49.8562 31.1974C50.6081 30.9432 51.273 30.6606 51.9922 30.2973C52.095 30.2457 52.199 30.1928 52.2841 30.116C52.7036 29.7367 52.6447 28.4682 52.6663 27.9301C52.7841 24.9183 53.0131 21.9555 53.0687 18.9347C52.3135 19.3018 52.0001 19.4831 51.1245 19.3244C50.4687 19.205 49.8483 18.9069 49.2103 18.7127C47.8288 18.2927 46.3832 18.0333 44.933 18.1204C43.863 18.1843 42.7754 18.4747 41.8023 18.9121C41.2814 19.1457 40.8671 19.4838 40.3855 19.7683C39.8652 20.0748 39.6852 19.9709 39.1152 19.8535C39.3037 21.6407 39.8024 23.3685 40.1073 25.1293C40.3534 26.5539 40.587 27.9811 40.8769 29.3986Z" fill="#8CB973"/>
<path fill-rule="evenodd" clip-rule="evenodd" d="M38.3322 13.4074C38.1686 13.5093 38.0004 13.7236 38.0273 13.9268C38.1935 15.1578 38.3885 16.385 38.6228 17.6051C38.8571 18.8252 39.0252 20.0575 39.2916 21.2711C39.3354 21.4685 39.3826 21.6686 39.4788 21.8473C39.6083 22.0867 39.8151 22.2673 39.874 22.537C39.9257 22.7725 39.9192 22.9835 40.0213 23.2183C40.2209 23.6764 40.5579 23.9977 41.0147 24.2113C43.1952 25.2314 45.6767 25.3688 48.0196 24.8933C49.1962 24.6546 50.3408 24.2661 51.4284 23.7648C52.2641 23.3796 52.9166 22.5409 53.1404 21.6408C53.2006 21.3982 53.2196 21.1479 53.2346 20.8988C53.3878 18.4277 53.4925 15.9818 53.3406 13.5126C53.3092 13.0029 53.1319 12.8893 52.6803 12.6286C52.3145 12.4177 51.9009 12.2944 51.5115 12.1318C50.8493 11.8563 50.0915 11.737 49.388 11.5931C47.8625 11.2815 46.3017 11.0931 44.7429 11.2266C42.4616 11.4215 40.2627 12.2015 38.3322 13.4074Z" fill="#DE8845"/>
<path fill-rule="evenodd" clip-rule="evenodd" d="M38.3196 13.397C38.2253 13.4919 38.1586 13.5919 38.1304 13.697C37.9649 14.328 38.8634 14.9126 39.3372 15.0971C41.8999 16.0972 44.7898 16.1411 47.4749 15.6662C48.6509 15.4578 53.0865 14.9023 53.122 13.257C53.1363 12.5595 52.0604 12.3608 51.5107 12.1318C50.8484 11.8556 50.0899 11.7363 49.3864 11.593C47.861 11.2814 46.3009 11.093 44.742 11.2259C43.0922 11.3672 41.4765 11.8169 39.9805 12.5124C39.597 12.6905 38.7175 12.9951 38.3196 13.397Z" fill="#EBB749"/>
<path fill-rule="evenodd" clip-rule="evenodd" d="M54.8085 21.3245C54.764 21.2755 54.7175 21.2284 54.6678 21.1845C54.5532 21.0813 53.8484 20.7341 53.8484 20.5954C53.5814 20.3586 53.389 20.0199 53.1705 19.7328C53.4322 20.0773 52.6934 21.5574 52.516 21.8839C52.0095 22.8168 51.2903 23.4885 50.4127 24.0685C50.2943 24.1473 50.1673 24.2131 50.0371 24.2705C50.0482 24.3357 50.1372 24.3492 50.204 24.3421C50.6189 24.2976 51.0475 24.2492 51.4605 24.1724C52.1195 24.0498 52.8642 23.9427 53.41 23.5601C54.067 23.1007 54.6782 22.5517 55.2797 22.0245C55.2901 22.0149 55.3019 22.0039 55.3032 21.9897C55.3045 21.9755 55.296 21.9632 55.2875 21.9516C55.1298 21.7426 54.9852 21.5181 54.8085 21.3245Z" fill="#004531"/>
<path fill-rule="evenodd" clip-rule="evenodd" d="M37.7065 21.7479C37.9224 21.5105 38.2732 21.4215 38.4322 21.1357C38.495 21.0227 38.5225 20.8879 38.5755 20.7705C38.6344 20.6388 38.8373 20.4027 38.8373 20.2627C39.031 20.7595 39.264 21.2363 39.5238 21.7028C40.1474 22.8216 41.0165 23.7745 42.1022 24.492C42.2206 24.5707 42.3469 24.6365 42.4772 24.6939C42.4667 24.7591 42.3777 24.7727 42.3109 24.7656C41.896 24.721 41.4667 24.6726 41.0545 24.5959C40.3955 24.4733 39.6507 24.3662 39.1043 23.9836C38.4479 23.5242 37.8367 22.9751 37.2353 22.448C37.2241 22.4383 37.213 22.4273 37.2111 22.4132C37.2098 22.399 37.2189 22.3867 37.2274 22.3751C37.3845 22.166 37.5298 21.9415 37.7065 21.7479Z" fill="#004531"/>
<path fill-rule="evenodd" clip-rule="evenodd" d="M32.7854 45.6562C33.629 44.8174 34.3659 43.9464 34.8835 43.2928C36.7807 40.9011 38.0548 37.7338 37.5967 34.6633C37.4344 33.5742 36.5974 32.4057 35.4869 32.5238C31.6441 32.9322 28.5762 36.3214 26.8427 39.4797C25.6195 41.7088 23.1432 48.6977 28.2372 48.4215C29.7064 48.3415 31.3915 47.0427 32.7854 45.6562Z" fill="white"/>
<path fill-rule="evenodd" clip-rule="evenodd" d="M65.9698 79.2491C68.2557 78.5555 71.3386 76.7148 71.336 74.0985C71.3334 71.6764 68.7039 72.0996 67.096 72.8223C65.3376 73.612 63.9358 75.2082 63.2847 76.9896C62.4876 79.1704 63.8167 79.8459 65.7996 79.2981C65.8566 79.2827 65.9135 79.2659 65.9698 79.2491Z" fill="white"/>
<mask id="mask1" mask-type="alpha" maskUnits="userSpaceOnUse" x="17" y="49" width="63" height="19">
<path d="M68.1202 57.9077C68.0171 58.035 67.908 58.1673 67.7555 58.2335C67.532 58.3315 67.2724 58.2672 67.0365 58.2023C64.7665 57.5743 63.0301 56.8834 60.9257 55.8081C58.9015 54.7723 56.939 53.7696 54.9996 52.5862C54.7913 52.4596 54.5619 52.3273 54.3167 52.3476C54.1248 52.3642 53.9566 52.4711 53.7975 52.5779C51.1661 54.3435 48.8198 56.4679 46.3171 58.4046C44.5735 59.7535 43.0941 61.3059 41.2697 62.5745C41.2066 62.6178 41.1402 62.663 41.0634 62.6732C40.9681 62.6852 40.8747 62.6388 40.79 62.5943C36.5503 60.3706 33.0913 57.0291 29.3446 54.1119C29.0435 53.8771 28.7149 53.6322 28.3292 53.6125C27.8776 53.5889 27.4794 53.8797 27.1265 54.1552C24.4345 56.2618 21.7419 58.3671 19.0486 60.4724C18.5616 58.4371 18.0746 56.4011 17.587 54.3651C17.5397 57.9421 17.8656 61.5235 18.5603 65.0368L27.3197 57.0685C28.3436 56.1377 34.0022 60.7212 34.7751 61.3561C36.9623 63.1516 38.8439 65.2321 41.0463 67.0301C41.319 67.2528 41.6805 67.485 42.0058 67.3425C42.1432 67.2827 42.2431 67.165 42.3377 67.0518C44.1621 64.8675 45.8242 62.5542 47.7531 60.4527C48.7455 59.3723 49.8063 58.3467 50.9774 57.4477C51.8561 56.7739 53.486 55.343 54.6723 55.331C56.454 55.3125 58.5939 56.6072 60.0634 57.5024C62.8533 59.1999 65.7247 60.6779 68.531 62.3487C68.8846 62.5593 73.8334 53.2333 74.4242 52.5321C74.511 52.4291 78.7323 56.8974 79.0786 57.2638C77.569 54.8207 76.2165 52.0015 74.2862 49.8434C72.3218 52.6708 70.2752 55.2533 68.1202 57.9077ZM17.587 54.3651C17.5883 54.2901 17.5896 54.2144 17.5909 54.1386L17.4766 53.9026C17.5134 54.0572 17.5502 54.2112 17.587 54.3651Z" fill="white"/>
</mask>
<g mask="url(#mask1)">
<path fill-rule="evenodd" clip-rule="evenodd" d="M68.1202 57.9077C68.0171 58.035 67.908 58.1673 67.7555 58.2335C67.532 58.3315 67.2724 58.2672 67.0365 58.2023C64.7665 57.5743 63.0301 56.8834 60.9257 55.8081C58.9015 54.7723 56.939 53.7696 54.9996 52.5862C54.7913 52.4596 54.5619 52.3273 54.3167 52.3476C54.1248 52.3642 53.9566 52.4711 53.7975 52.5779C51.1661 54.3435 48.8198 56.4679 46.3171 58.4046C44.5735 59.7535 43.0941 61.3059 41.2697 62.5745C41.2066 62.6178 41.1402 62.663 41.0634 62.6732C40.9681 62.6852 40.8747 62.6388 40.79 62.5943C36.5503 60.3706 33.0913 57.0291 29.3446 54.1119C29.0435 53.8771 28.7149 53.6322 28.3292 53.6125C27.8776 53.5889 27.4794 53.8797 27.1265 54.1552C24.4345 56.2618 21.7419 58.3671 19.0486 60.4724C18.5616 58.4371 18.0746 56.4011 17.587 54.3651C17.5397 57.9421 17.8656 61.5235 18.5603 65.0368L27.3197 57.0685C28.3436 56.1377 34.0022 60.7212 34.7751 61.3561C36.9623 63.1516 38.8439 65.2321 41.0463 67.0301C41.319 67.2528 41.6805 67.485 42.0058 67.3425C42.1432 67.2827 42.2431 67.165 42.3377 67.0518C44.1621 64.8675 45.8242 62.5542 47.7531 60.4527C48.7455 59.3723 49.8063 58.3467 50.9774 57.4477C51.8561 56.7739 53.486 55.343 54.6723 55.331C56.454 55.3125 58.5939 56.6072 60.0634 57.5024C62.8533 59.1999 65.7247 60.6779 68.531 62.3487C68.8846 62.5593 73.8334 53.2333 74.4242 52.5321C74.511 52.4291 78.7323 56.8974 79.0786 57.2638C77.569 54.8207 76.2165 52.0015 74.2862 49.8434C72.3218 52.6708 70.2752 55.2533 68.1202 57.9077ZM17.587 54.3651C17.5883 54.2901 17.5896 54.2144 17.5909 54.1386L17.4766 53.9026C17.5134 54.0572 17.5502 54.2112 17.587 54.3651Z" fill="url(#paint1_radial)"/>
</g>
<defs>
<radialGradient id="paint0_radial" cx="0" cy="0" r="1" gradientUnits="userSpaceOnUse" gradientTransform="translate(47.6625 53.8025) scale(34.8793)">
<stop stop-color="#8BB9BB"/>
<stop offset="1" stop-color="#6CB98F"/>
</radialGradient>
<radialGradient id="paint1_radial" cx="0" cy="0" r="1" gradientUnits="userSpaceOnUse" gradientTransform="translate(25.5925 64.2681) rotate(43.3218) scale(47.2954 26.8377)">
<stop stop-color="#8DEFBB"/>
<stop offset="1" stop-color="#BEFBFF"/>
</radialGradient>
</defs>
</svg>
