<svg width="124" height="124" xmlns="http://www.w3.org/2000/svg"><path d="M72.458 61.429c-7.431.427-12.088-1.299-19.52-.871a31.245 31.245 0 0 0-5.47.796C48.565 47.65 58.292 35.662 71.519 34.9c8.117-.467 16.23 4.53 16.67 12.642.433 7.973-5.664 13.307-15.73 13.886M52.503 89.46c-7.776.438-15.547-4.24-15.969-11.831-.415-7.462 5.427-12.454 15.07-12.996 7.118-.4 11.58 1.216 18.698.815a30.589 30.589 0 0 0 5.24-.745C74.493 77.528 65.175 88.748 52.503 89.46M62 .181C27.758.18 0 27.857 0 62s27.758 61.82 62 61.82c34.242 0 62-27.678 62-61.82C124 27.858 96.242.18 62 .18" fill="#4360DF" fill-rule="evenodd"/></svg>