<svg xmlns="http://www.w3.org/2000/svg" x="0px" y="0px" viewBox="0 0 200 200">
<path fill="#FF0066" d="M200,100c0,55.2-44.8,100-100,100S0,155.2,0,100S44.8,0,100,0S200,44.8,200,100z"/>
<path fill="#FFFFFF" d="M145.2,123c6,6,6,15.8,0,21.8c-6,6-15.8,6-21.8,0c-6-6-18.5-40.3-18.5-40.3S139.2,117,145.2,123z M55.6,123
  c-6,6-6,15.8,0,21.8c6,6,15.8,6,21.8,0c6-6,18.5-40.3,18.5-40.3S61.6,117,55.6,123z M145.2,77c6-6,6-15.8,0-21.8
  c-6-6-15.8-6-21.8,0c-6,6-18.5,40.3-18.5,40.3S139.2,83,145.2,77z M95.9,95.5c0,0-12.5-34.3-18.5-40.3c-6-6-15.8-6-21.8,0
  c-6,6-6,15.8,0,21.8C61.6,83,95.9,95.5,95.9,95.5z M167.8,84.6c-8.5,0-58.6,15.4-58.6,15.4s50.1,15.4,58.6,15.4
  c8.5,0,15.4-6.9,15.4-15.4C183.2,91.5,176.3,84.6,167.8,84.6z M32.2,84.6c-8.5,0-15.4,6.9-15.4,15.4c0,8.5,6.9,15.4,15.4,15.4
  S90.7,100,90.7,100S40.7,84.6,32.2,84.6z M84.6,167.8c0,8.5,6.9,15.4,15.4,15.4s15.4-6.9,15.4-15.4c0-8.5-15.4-58.6-15.4-58.6
  S84.6,159.3,84.6,167.8z M115.4,32.2c0-8.5-6.9-15.4-15.4-15.4c-8.5,0-15.4,6.9-15.4,15.4S100,90.7,100,90.7S115.4,40.7,115.4,32.2
  z"/>
</svg>
