<svg xmlns="http://www.w3.org/2000/svg" x="0px" y="0px" viewBox="0 0 360 360">
<path style="fill:#FFFFFF;" d="M360,180c0,99.4-80.6,180-180,180S0,279.4,0,180S80.6,0,180,0S360,80.6,360,180z"/>
<path style="fill:#EE2233;" d="M180,210.7l85.7,127.7C240.2,352.1,211,360,180,360c-31,0-60.2-7.9-85.7-21.7L180,210.7z M180,0
	C80.6,0,0,80.6,0,180c0,57.8,27.2,109.2,69.6,142.2l95.6-142.4H70v-29.5h95.3v-30.4H70V90.2H290v29.5h-95.2v30.4H290v29.5h-95.2
	l95.6,142.4C332.8,289.2,360,237.8,360,180C360,80.6,279.4,0,180,0z"/>
</svg>
