<svg xmlns="http://www.w3.org/2000/svg" x="0px" y="0px" viewBox="0 0 360 360">
<path fill="#FFFFFF" d="M360,180c0,99.4-80.6,180-180,180S0,279.4,0,180S80.6,0,180,0S360,80.6,360,180z"/>
<path fill="#B32235" d="M28.5,83c-0.1,0-0.2-0.1-0.1-0.2c6.3-9.8,13.6-19,21.6-27.4c0,0,0.1,0,0.1,0h259.7c0,0,0.1,0,0.1,0
	c8.1,8.4,15.3,17.6,21.6,27.4c0.1,0.1,0,0.2-0.1,0.2H28.5z M84.5,27.7h190.9c0.1,0,0.2-0.2,0.1-0.2C247.8,10.1,215.1,0,180,0
	s-67.8,10.1-95.5,27.4C84.4,27.5,84.4,27.7,84.5,27.7z M5,138.4h350c0.1,0,0.1-0.1,0.1-0.1c-2.2-9.5-5.2-18.6-8.9-27.4
	c0,0-0.1-0.1-0.1-0.1H13.9c0,0-0.1,0-0.1,0.1c-3.7,8.8-6.7,18-8.9,27.4C4.8,138.4,4.9,138.4,5,138.4z M28.5,277
	c-0.1,0-0.2,0.1-0.1,0.2c6.3,9.8,13.6,19,21.6,27.4c0,0,0.1,0,0.1,0h259.7c0,0,0.1,0,0.1,0c8.1-8.4,15.3-17.6,21.6-27.4
	c0.1-0.1,0-0.2-0.1-0.2H28.5z M359.5,166.2H0.5C0.2,170.7,0,175.3,0,180c0,1.5,0,3,0.1,4.5c0,0.6,0,1.2,0.1,1.8
	c0,0.9,0.1,1.8,0.1,2.7c0.1,1.6,0.2,3.1,0.3,4.6c0,0.1,0,0.1,0,0.2c119.7,0,239.3,0,359,0c0.3-4.6,0.5-9.2,0.5-13.8
	C360,175.3,359.8,170.7,359.5,166.2z M355,221.6H5c-0.1,0-0.1,0.1-0.1,0.1c2.2,9.5,5.2,18.6,8.9,27.4c0,0,0.1,0.1,0.1,0.1h332.2
	c0,0,0.1,0,0.1-0.1c3.7-8.8,6.7-18,8.9-27.4C355.2,221.6,355.1,221.6,355,221.6z M275.5,332.3H84.5c-0.1,0-0.2,0.2-0.1,0.2
	c27.7,17.4,60.4,27.4,95.5,27.4s67.8-10.1,95.5-27.4C275.6,332.5,275.6,332.3,275.5,332.3z"/>
<path fill="#3C3B6E" d="M180.4,193.8H0.5c-0.1-2.2-0.2-4.5-0.4-6.7c0-2.4-0.1-4.7-0.1-7.1C0,80.6,80.6,0,180,0c0.1,0,0.2,0,0.4,0
	V193.8z"/>
<path fill="#FFFFFF" d="M80.2,168.7l-6.5,4.7l2.5,7.5l-6.4-4.6l-6.5,4.6l2.5-7.5l-6.4-4.7h7.9l2.5-7.5l2.5,7.5H80.2z M92.3,103.9
	l-2.5,7.5h-7.9l6.4,4.7l-2.5,7.5l6.4-4.6l6.4,4.6l-2.5-7.5l6.4-4.7h-7.9L92.3,103.9z M85.2,47.5l6.4-4.7l6.4,4.7l-2.5-7.6l6.4-4.6
	h-7.9l-2.5-7.6l-2.5,7.6h-7.9l6.4,4.6L85.2,47.5z M72.4,92.7l-2.5-7.5l-2.5,7.5h-7.9l6.4,4.6l-2.5,7.6l6.4-4.7l6.4,4.7l-2.5-7.6
	l6.4-4.6H72.4z M62.8,66.7l6.4-4.6l6.4,4.6l-2.5-7.6l6.4-4.6h-7.9l-2.5-7.5l-2.5,7.5h-7.9l6.4,4.6L62.8,66.7z M47.5,103.9l-2.5,7.5
	h-7.9l6.4,4.7l-2.5,7.5l6.4-4.6l6.4,4.6l-2.5-7.5l6.4-4.7H50L47.5,103.9z M70.3,122.9l-2.5,7.6h-7.9l6.4,4.6l-2.5,7.6l6.4-4.7
	l6.4,4.7l-2.5-7.6l6.4-4.6h-7.9L70.3,122.9z M5.1,149.6l-1.6-5c-0.4,2.1-0.8,4.1-1.1,6.2c0,0.2-0.1,0.4-0.1,0.6
	c-0.2,0.9-0.3,1.9-0.4,2.8c0,0.3-0.1,0.6-0.1,0.9c-0.1,1-0.3,1.9-0.4,2.9l1.3-1l6.4,4.7l-2.5-7.6l6.4-4.6H5.1z M94.7,73.7l-2.5-7.6
	l-2.5,7.6h-7.9l6.4,4.6L85.7,86l6.4-4.7l6.5,4.7l-2.5-7.6l6.4-4.6H94.7z M40.9,86l6.5-4.7l6.4,4.7l-2.5-7.6l6.4-4.6h-7.9l-2.5-7.6
	L45,73.7h-8l6.4,4.6L40.9,86z M115.1,122.9l-2.5,7.6h-7.9l6.4,4.6l-2.5,7.6l6.4-4.7l6.4,4.7l-2.5-7.6l6.4-4.6h-7.9L115.1,122.9z
	 M117,168.7l-2.5-7.5l-2.5,7.5h-7.9l6.4,4.7l-2.5,7.5l6.4-4.6l6.4,4.6l-2.5-7.5l6.5-4.7H117z M117.2,92.7l-2.5-7.5l-2.5,7.5h-7.9
	l6.4,4.6l-2.5,7.6l6.4-4.7l6.4,4.7l-2.5-7.6l6.4-4.6H117.2z M94.7,149.6l-2.5-7.6l-2.5,7.6h-7.9l6.4,4.6l-2.5,7.6l6.4-4.7l6.5,4.7
	l-2.5-7.6l6.4-4.6H94.7z M107.6,66.7l6.4-4.6l6.4,4.6l-2.5-7.6l6.4-4.6h-7.9l-2.5-7.5l-2.5,7.5h-7.9l6.4,4.6L107.6,66.7z
	 M161.9,92.7l-2.5-7.5l-2.5,7.5h-7.9l6.4,4.6l-2.5,7.6l6.4-4.7l6.4,4.7l-2.5-7.6l6.4-4.6H161.9z M161.8,168.7l-2.5-7.5l-2.5,7.5
	h-7.9l6.4,4.7l-2.5,7.5l6.4-4.6l6.4,4.6l-2.5-7.5l6.4-4.7H161.8z M152.4,28.3l6.4-4.7l6.4,4.7l-2.5-7.6l6.4-4.6h-7.9l-2.5-7.6
	l-2.5,7.6h-7.9l6.4,4.6L152.4,28.3z M130,47.5l6.4-4.7l6.4,4.7l-2.5-7.6l6.4-4.6h-7.9l-2.5-7.6l-2.5,7.6H126l6.4,4.6L130,47.5z
	 M152.4,66.7l6.4-4.6l6.4,4.6l-2.5-7.6l6.4-4.6h-7.9l-2.5-7.5l-2.5,7.5h-7.9l6.4,4.6L152.4,66.7z M139.4,73.7l-2.5-7.6l-2.5,7.6
	h-7.9l6.4,4.6l-2.5,7.6l6.4-4.7l6.4,4.7l-2.5-7.6l6.5-4.6H139.4z M107.6,28.3l6.4-4.7l6.4,4.7l-2.5-7.6l6.4-4.6h-7.9l-1.3-4
	c-0.9,0.3-1.8,0.7-2.6,1l-1,3h-6c-0.4,0.2-0.8,0.4-1.2,0.5l5.7,4.1L107.6,28.3z M162.4,130.5l-2.5-7.6l-2.5,7.6h-7.9l6.4,4.6
	l-2.5,7.6l6.4-4.7l6.4,4.7l-2.5-7.6l6.4-4.6H162.4z M25.5,122.9l-2.5,7.6h-7.9l6.4,4.6l-2.5,7.6l6.4-4.7l6.4,4.7l-2.5-7.6l6.4-4.6
	H28L25.5,122.9z M25.1,100.3l6.4,4.7l-2.5-7.6l6.4-4.6h-7.9l-1.8-5.6c-1,1.7-2,3.3-2.9,5l-0.2,0.5h-0.1c-0.7,1.3-1.5,2.7-2.2,4.1
	c0,0,0,0,0,0l0.8,0.6l-2.5,7.6L25.1,100.3z M27.5,168.7l-2.5-7.5l-2.5,7.5h-8l6.5,4.7l-2.5,7.5l6.5-4.6l6.4,4.6l-2.5-7.5l6.4-4.7
	H27.5z M9.1,123.4C9.1,123.5,9.1,123.5,9.1,123.4c0,0.1,0,0.1,0,0.1l0.1,0.1L9.1,123.4z M137.1,103.9l-2.5,7.5h-7.9l6.4,4.7
	l-2.5,7.5l6.4-4.6l6.4,4.6l-2.5-7.5l6.4-4.7h-7.9L137.1,103.9z M49.9,149.6l-2.5-7.6l-2.5,7.6h-8l6.4,4.6l-2.5,7.6l6.5-4.7l6.4,4.7
	l-2.5-7.6l6.4-4.6H49.9z M139.4,149.6l-2.5-7.6l-2.5,7.6h-7.9l6.4,4.6l-2.5,7.6l6.4-4.7l6.4,4.7l-2.5-7.6l6.5-4.6H139.4z"/>
<path fill="#888888" fill-opacity="0.25" d="M180,0c99.4,0,180,80.6,180,180s-80.6,180-180,180S0,279.4,0,180S80.6,0,180,0z"/>
<polygon fill="#FFFFFF" points="241.2,304.7 180,207.2 118.4,304.7 52.5,304.6 140.8,166.2 64,166.2 64,55.2 296,55.2 296,166.2 
	219.2,166.2 307.9,304.6 "/>
<polygon fill="#EE2233" points="77.6,291.2 110.6,291.2 180,180.9 249.4,291.2 282.4,291.2 193.7,152.2 282,152.2 282,124.8 
	193.7,124.8 193.7,96.6 282,96.6 282,69.2 78,69.2 78,96.6 166.3,96.6 166.3,124.8 78,124.8 78,152.2 166.3,152.2 "/>
</svg>
