<?xml version="1.0" encoding="UTF-8"?>
<svg enable-background="new 0 0 161.8 162.1" version="1.1" viewBox="0 0 161.8 162.1" xml:space="preserve" xmlns="http://www.w3.org/2000/svg">
<style type="text/css">.st0{fill:#D1DADF;}.st1{fill:#B1CDEA;stroke:#41423F;stroke-width:4;stroke-linecap:round;stroke-linejoin:round;stroke-miterlimit:10;}.st2{fill:none;stroke:#3F403F;stroke-width:4;stroke-linecap:round;stroke-miterlimit:10;}.st3{fill:#FFFFFF;stroke:#40413F;stroke-width:4;stroke-miterlimit:10;}.st4{fill:#7064AC;}.st5{fill:#40413F;}.st6{fill:#FFFFFF;}</style>
<path class="st0" d="m160.8 10.7c2.6-8.1 0.4-13-9.7-9.6l-39.5 15.9c10.5-14.3-8.6-13.8-21.9-9.5-25.6 8.1-53.2 21-67.9 35.4-13.7 12.8-22.1 31.1-21.8 51.5 0.6 37.7 31.8 68.1 69.5 67.7 16.3-0.1 31.3-6 43.1-15.6 19.7-14.5 32.1-37 40.3-59.1 6-16 5.3-34.6-8.5-24.2l16.4-52.5z"/>
<path class="st1" d="m142.7 26.7c2-6.3 0.3-10.1-7.5-7.5l-40 16.1c8.6-9.3 2.9-14.4-7.4-11.2-19.8 6.3-41.2 16.2-52.5 27.4-10.6 9.9-17.1 24.1-16.9 39.8 0.5 29.1 24.6 52.6 53.8 52.4 12.6-0.1 24.2-4.6 33.3-12.1 15.2-11.2 24-29 31.2-45.7 3.8-8.9 1-16.9-9.6-8.9l-3.8 2.4c0.7-2 19.4-52.7 19.4-52.7z"/>
<path class="st2" d="m58 106.4c3 7 19 9.4 24.7 0"/>
<path class="st3" d="m38.7 102.9h12.5c6.7-2.5 11.5-9 11.5-16.7 0-9.8-8-17.8-17.8-17.8s-17.8 8-17.8 17.8c0.1 7.7 4.9 14.2 11.6 16.7z"/>
<path class="st3" d="m91.9 102.9h12.5c6.7-2.5 11.5-9 11.5-16.7 0-9.8-8-17.8-17.8-17.8s-17.8 8-17.8 17.8c0 7.7 4.8 14.2 11.6 16.7z"/>
<circle class="st4" cx="98.1" cy="86.2" r="12.9"/>
<circle class="st5" cx="98.1" cy="86.2" r="10.8"/>
<circle class="st6" cx="98.1" cy="80.8" r="5.4"/>
<circle class="st4" cx="45" cy="86.2" r="12.9"/>
<circle class="st5" cx="45" cy="86.2" r="10.8"/>
<circle class="st6" cx="45" cy="80.8" r="5.4"/>
</svg>
