<?xml version="1.0" encoding="utf-8"?>
<!-- Generator: Adobe Illustrator 21.0.2, SVG Export Plug-In . SVG Version: 6.00 Build 0)  -->
<svg version="1.1" id="Layer_1" xmlns="http://www.w3.org/2000/svg" xmlns:xlink="http://www.w3.org/1999/xlink" x="0px" y="0px"
	 viewBox="0 0 233.3 233.3" style="enable-background:new 0 0 233.3 233.3;" xml:space="preserve">
<style type="text/css">
	.st0{fill:#383838;}
	.st1{fill:#898989;}
	.st2{fill:#4EBD94;}
	.st3{fill:#368866;}
	.st4{fill:#222323;}
	.st5{opacity:0.94;fill:#FFFFFF;}
</style>
<circle class="st0" cx="116.6" cy="116.6" r="116.6"/>
<path class="st1" d="M5.9,117.8C5.9,53.4,52.2,1.2,116.6,1.2c96.7,0-33.1,52.2-33.1,116.6s97.5,115.4,33.1,115.4
	C44.3,216.4,5.9,182.3,5.9,117.8z"/>
<path class="st2" d="M115.5,153.5c-30.9,0-53.4-12.3-77.2-37.2c24-23.5,46.5-41.1,77.2-41.1c28.7,0,54.3,12,77.9,36
	C169.1,135.2,147.9,153.5,115.5,153.5z"/>
<path class="st3" d="M197.8,108.1l-56.1-37.3l-46.6-6l-17.6,92C77.5,156.8,168.4,176.1,197.8,108.1z"/>
<path class="st2" d="M146.9,113.1c0,19.4-9.1,36.7-23.2,47.9c-10.4,8.3-23,3.3-36.2-2.3c-32.9-13.8-48.8-25.5-54-39.5
	c-1.9-5.1,23.9-50.4,57.6-50.4c16.5,0,26.2-10.3,37.1,0.4C139.8,80.4,146.9,95.9,146.9,113.1z"/>
<path class="st4" d="M116.6,0C52.3,0,0,52.3,0,116.6s52.3,116.6,116.6,116.6s116.6-52.3,116.6-116.6S180.9,0,116.6,0z M221,125.5
	c-28-37.1-51.3-50.8-86.6-61.7c19.3-3,42.3-3.7,71.1-2.5c10,16.1,15.9,35,15.9,55.3C221.4,119.6,221.2,122.6,221,125.5z
	 M115.5,153.5c-30.9,0-53.4-12.3-77.2-37.2c24-23.5,46.5-41.1,77.2-41.1c28.7,0,54.3,12,77.9,36
	C169.1,135.2,147.9,153.5,115.5,153.5z M116.6,11.9c32.1,0,60.8,14.5,80,37.3c-86.1-2.4-120.9,14-166.2,58.2
	c-4.7-5.6-9.5-11.9-14.6-19C28.2,44.3,68.7,11.9,116.6,11.9z M12.7,104.2c27.6,36.4,50.5,50,85.1,60.8c-19.6,3.2-42.9,4-72.4,2.8
	c-8.5-15.1-13.4-32.6-13.4-51.2C11.9,112.4,12.2,108.3,12.7,104.2z M116.6,221.4c-34,0-64.1-16.3-83.3-41.5
	c5.4,0.1,10.6,0.2,15.6,0.2c76,0,109.1-17.5,152.4-60.2c5.4,6.3,11,13.6,16.8,21.9C206.9,187.5,165.7,221.4,116.6,221.4z
	 M138.7,113.5c0,12.2-9.9,22.1-22.1,22.1s-22.1-9.9-22.1-22.1c0-2.5,0.5-4.9,1.3-7.1c2.2,2.2,5.3,3.6,8.7,3.6
	c6.9,0,12.5-5.6,12.5-12.5c0-2.2-0.6-4.2-1.6-5.9c0.4,0,0.8-0.1,1.2-0.1C128.8,91.4,138.7,101.3,138.7,113.5z"/>
<circle class="st5" cx="104.7" cy="97.5" r="7"/>
</svg>
