<svg width="370" height="370" viewBox="0 0 370 370" fill="none" xmlns="http://www.w3.org/2000/svg">
<g clip-path="url(#clip0)">
<circle cx="185" cy="185" r="177.5" stroke="#6200EA" stroke-width="15"/>
<path d="M269.631 213.695C270.468 215.186 279.899 232.731 270.919 266.087C269.868 265.861 268.84 265.539 267.847 265.126H267.788C264.676 264.047 261.838 262.292 259.475 259.985C259.475 259.985 260.37 280.712 247.201 298.065C247.128 298.208 247.036 298.341 246.927 298.459L246.868 298.4C243.523 294.95 240.992 290.787 239.465 286.218C239.465 286.218 232.321 302.55 212.4 318.255C210.727 319.604 209.003 320.893 207.159 322.182C197.062 329.252 191.428 333.976 188.304 337.083C188.132 337.3 187.944 337.504 187.742 337.694C187.57 337.895 187.384 338.084 187.187 338.26C184.729 340.949 184.507 342.134 184.507 342.469C184.507 342.134 184.285 340.979 181.827 338.26C181.629 338.084 181.444 337.895 181.272 337.694C181.07 337.504 180.882 337.3 180.709 337.083C177.585 333.991 171.952 329.267 161.854 322.182C160.011 320.893 158.286 319.604 156.613 318.255C153.013 315.438 149.589 312.4 146.36 309.158C133.413 296.284 129.667 286.569 129.534 286.278C128.007 290.846 125.476 295.01 122.131 298.459L122.072 298.519C121.963 298.399 121.869 298.266 121.791 298.124C108.614 280.742 109.48 259.985 109.48 259.985C107.124 262.29 104.294 264.045 101.189 265.126H101.137C100.144 265.539 99.1156 265.861 98.0649 266.087C89.0853 232.731 98.5164 215.156 99.3529 213.695C99.3823 213.665 99.4006 213.626 99.4048 213.584C99.374 213.545 99.3393 213.51 99.3011 213.479C96.8286 211.684 59.0523 182.709 83.7923 107.549C83.7923 107.549 90.973 109.329 95.1186 115.588C95.1186 115.588 94.7188 93.2736 123.545 63.7995C128.638 67.9221 132.017 73.8102 133.021 80.3098C133.021 80.3098 141.756 67.0181 159.115 55.8424C177.837 43.8323 184.492 35.7262 184.492 27.5306C184.492 27.5306 226.251 52.527 235.963 80.3098C237.444 69.6779 245.439 63.7995 245.439 63.7995C274.265 93.2736 273.866 115.588 273.866 115.588C278.011 109.329 285.192 107.549 285.192 107.549C309.932 182.709 272.156 211.684 269.683 213.479C269.645 213.51 269.61 213.545 269.579 213.584C269.583 213.626 269.602 213.665 269.631 213.695ZM184.499 153.615C110.117 110.037 93.49 192.931 155.148 196.008C155.148 196.008 147.612 200.724 139.135 201.626C142.018 203.067 145.301 203.482 148.448 202.803C123.952 228.88 133.494 282.873 184.492 282.873C235.49 282.873 245.024 228.857 220.521 202.803C223.668 203.482 226.951 203.067 229.834 201.626C221.358 200.724 213.822 196.008 213.822 196.008C275.494 192.931 258.868 110.037 184.492 153.615H184.499ZM215.687 171.168C215.687 176.153 213.082 180.183 209.869 180.183C206.656 180.183 204.05 176.153 204.05 171.168C204.05 166.184 206.656 162.153 209.869 162.153C213.082 162.153 215.68 166.191 215.68 171.168H215.687ZM159.13 162.153C162.343 162.153 164.949 166.191 164.949 171.168C164.949 176.145 162.343 180.183 159.13 180.183C155.917 180.183 153.312 176.153 153.312 171.168C153.312 166.184 155.91 162.153 159.123 162.153H159.13ZM194.353 206.58C188.771 204.807 187.69 214.031 187.69 214.031C198.705 215.282 199.261 208.137 194.345 206.58H194.353ZM181.272 214.031C181.272 214.031 180.228 204.837 174.646 206.58C169.724 208.137 170.279 215.282 181.287 214.001L181.272 214.031ZM184.492 248.303C201.859 248.37 214.636 239.675 213.866 238.297C213.215 236.725 200.408 241.083 184.492 240.964C168.569 241.083 155.762 236.725 155.111 238.297C154.333 239.616 167.11 248.318 184.485 248.243L184.492 248.303Z" fill="#6200EA"/>
</g>
<defs>
<clipPath id="clip0">
<rect width="370" height="370" fill="white"/>
</clipPath>
</defs>
</svg>
