<svg width="120" height="120" viewBox="0 0 120 120" fill="none" xmlns="http://www.w3.org/2000/svg">
<path d="M6.66123 48.0739C14.0747 18.3418 44.1919 0.247233 73.9309 7.66161C103.658 15.0742 121.754 45.1896 114.337 74.92C106.927 104.656 76.8103 122.752 47.0799 115.339C17.3426 107.927 -0.752276 77.8077 6.66123 48.0739Z" fill="url(#paint0_linear)"/>
<path d="M113.354 73.3052C106.007 102.769 76.1612 120.701 46.6901 113.353C17.231 106.008 -0.702628 76.1634 6.64753 46.7009C13.9908 17.2332 43.8366 -0.700012 73.2992 6.64585C102.769 13.9917 120.7 43.8392 113.354 73.3052Z" fill="white"/>
<path d="M56.7857 74.6925L60.3581 61.2409L68.8159 58.1509L70.9197 50.2454L70.8478 50.0493L62.5223 53.0908L68.5209 30.5039H51.5088L43.664 59.9804L37.1142 62.3731L34.95 70.5231L41.4948 68.1324L36.8714 85.5042H82.1474L85.0499 74.6925H56.7857" fill="white"/>
<path d="M77.8991 41.2104C75.2316 34.4317 68.5422 33.8198 60.7528 35.3323L57.9788 25.6626L52.0938 27.3504L54.7956 36.7692C53.2488 37.2092 51.6744 37.6973 50.1103 38.1785L47.3947 28.6979L41.5131 30.3823L44.2803 40.052C43.0153 40.4439 41.771 40.8288 40.5506 41.1795L40.5403 41.1451L32.421 43.4723L34.2256 49.7629C34.2256 49.7629 38.55 48.4292 38.4985 48.5323C40.8841 47.8482 42.0563 49.0101 42.6235 50.141L45.786 61.1548C45.9475 61.1101 46.1641 61.0551 46.4185 61.0173L45.7963 61.196L50.2203 76.6304C50.3303 77.4107 50.2341 78.7342 48.5703 79.2154C48.6631 79.2601 44.2872 80.4392 44.2872 80.4392L45.1363 87.8057L52.795 85.6057C54.2216 85.2035 55.631 84.8254 57.0094 84.437L59.8178 94.2167L65.696 92.5323L62.9219 82.8557C64.4986 82.4373 66.0708 82.0019 67.6381 81.5495L70.395 91.1848L76.2835 89.497L73.4853 79.7345C83.2169 76.3279 89.4285 71.8489 87.6238 62.3064C86.1731 54.627 81.6975 52.2963 75.6922 52.5576C78.6072 49.842 79.8619 46.1707 77.8991 41.2138V41.2104ZM75.6647 64.4823C77.7616 71.7938 65.0085 74.5507 61.021 75.6988L57.305 62.7395C61.2925 61.5948 73.475 56.8613 75.6613 64.4857L75.6647 64.4823ZM67.6828 46.9854C69.5872 53.637 58.9275 55.8542 55.6035 56.8064L52.2347 45.0535C55.5553 44.1013 65.6925 40.052 67.6828 46.9888V46.9854Z" fill="white"/>
<path opacity="0.5" d="M115 59.9997C115 90.3755 90.376 115 60.0003 115C29.6243 115 5 90.3755 5 59.9997C5 29.6242 29.6243 5 60.0003 5C90.3757 5 115 29.6242 115 59.9997Z" fill="white" stroke="black" stroke-width="0.5"/>
<path fill-rule="evenodd" clip-rule="evenodd" d="M94.5974 102.758C107.044 92.6741 115 77.2661 115 60C115 39.9248 104.244 22.3616 88.181 12.7586C72.3494 16.057 57.7178 23.616 51.7878 37.2614H107.359L101.187 51.5497H48.2543C48.0049 53.6664 47.8802 56.2502 47.8802 59.3008C47.8802 62.3514 48.1296 65.0597 48.6284 67.4255H93.8921L87.7198 81.8071H54.3331C61.0473 92.8758 76.9815 100.508 94.5974 102.758ZM73.4366 113.347C67.7546 111.984 62.509 110.031 57.6998 107.489C46.6644 101.636 38.9023 93.0758 34.4133 81.8071H14.4L20.4788 67.4255H30.8595C30.4855 64.4371 30.2984 61.6043 30.2984 58.9272C30.2984 56.1879 30.3919 53.7287 30.579 51.5497H14.4L20.4788 37.2614H33.4781C37.593 25.1834 45.2305 15.8758 56.3905 9.33871C59.0636 7.75929 61.8469 6.38021 64.7406 5.20147C63.1782 5.06807 61.597 5 60 5C29.6245 5 5 29.6246 5 60C5 90.3754 29.6245 115 60 115C64.6351 115 69.1363 114.427 73.4366 113.347Z" fill="url(#paint1_linear)"/>
<defs>
<linearGradient id="paint0_linear" x1="339.068" y1="156.473" x2="-15.9791" y2="0.682844" gradientUnits="userSpaceOnUse">
<stop stop-color="#1A1A1A"/>
<stop offset="1" stop-color="#1A1A1A" stop-opacity="0"/>
</linearGradient>
<linearGradient id="paint1_linear" x1="32.1648" y1="63.2141" x2="90.4604" y2="10.5629" gradientUnits="userSpaceOnUse">
<stop stop-color="#15BCFF"/>
<stop offset="0.485357" stop-color="#3073EC"/>
<stop offset="1" stop-color="#B030EC"/>
</linearGradient>
</defs>
</svg>
