<svg xmlns="http://www.w3.org/2000/svg" xmlns:xlink="http://www.w3.org/1999/xlink" width="256" height="256" viewBox="0 0 256 256"><defs><filter id="a" x="-18" y="-17" width="292" height="292" filterUnits="userSpaceOnUse"><feOffset dy="1" input="SourceAlpha"/><feGaussianBlur stdDeviation="6" result="b"/><feFlood flood-opacity="0.161"/><feComposite operator="in" in2="b"/><feComposite in="SourceGraphic"/></filter><linearGradient id="c" x1="0.907" y1="0.227" x2="0.163" y2="0.853" gradientUnits="objectBoundingBox"><stop offset="0" stop-color="#b6509e"/><stop offset="1" stop-color="#2ebac6"/></linearGradient><filter id="d" x="35" y="26" width="186.926" height="215.014" filterUnits="userSpaceOnUse"><feOffset input="SourceAlpha"/><feGaussianBlur stdDeviation="6" result="e"/><feFlood flood-opacity="0.2"/><feComposite operator="in" in2="e"/><feComposite in="SourceGraphic"/></filter><linearGradient id="f" x1="0.699" y1="0.251" x2="0.059" y2="1" xlink:href="#c"/><filter id="g" x="76" y="67" width="105.037" height="113.047" filterUnits="userSpaceOnUse"><feOffset input="SourceAlpha"/><feGaussianBlur stdDeviation="3" result="h"/><feFlood flood-opacity="0.161"/><feComposite operator="in" in2="h"/><feComposite in="SourceGraphic"/></filter><clipPath id="j"><rect width="256" height="256"/></clipPath></defs><g id="i" clip-path="url(#j)"><g transform="matrix(1, 0, 0, 1, 0, 0)" filter="url(#a)"><circle cx="128" cy="128" r="128" fill="#fff"/></g><circle cx="128" cy="128" r="128" fill="url(#c)"/><g transform="matrix(1, 0, 0, 1, 0, 0)" filter="url(#d)"><path d="M187.356,21.287,117.139.221a5.243,5.243,0,0,0-3.015,0L43.905,21.287a5.244,5.244,0,0,0-3.737,5.023v77.24c0,10.046,4.067,20.331,12.088,30.567,6.126,7.818,14.6,15.668,25.19,23.333a225.982,225.982,0,0,0,36.042,21.105,5.242,5.242,0,0,0,4.286,0,226.01,226.01,0,0,0,36.041-21.105c10.589-7.665,19.064-15.515,25.19-23.333,8.021-10.236,12.088-20.52,12.088-30.567V26.31A5.244,5.244,0,0,0,187.356,21.287Z" transform="translate(12.83 44)" fill="#fff"/></g><g transform="matrix(1, 0, 0, 1, 0, 0)" filter="url(#g)"><path d="M88.828,86.576,55.566,6.19C53.686,2.036,50.908,0,47.23,0H44.288c-3.678,0-6.456,2.036-8.336,6.19L21.487,41.211H10.536A5.989,5.989,0,0,0,4.57,47.156v.081a5.989,5.989,0,0,0,5.966,5.945H16.42L2.609,86.576a7.044,7.044,0,0,0-.409,2.28,6.286,6.286,0,0,0,1.634,4.479,5.736,5.736,0,0,0,4.413,1.71,5.975,5.975,0,0,0,3.432-1.14,7.253,7.253,0,0,0,2.37-3.013l15.2-37.709H39.793a5.989,5.989,0,0,0,5.966-5.945v-.163a5.989,5.989,0,0,0-5.966-5.945H34.154l11.6-28.913L77.386,90.892a7.253,7.253,0,0,0,2.37,3.013,5.975,5.975,0,0,0,3.432,1.14,5.736,5.736,0,0,0,4.413-1.71,6.286,6.286,0,0,0,1.634-4.479A5.385,5.385,0,0,0,88.828,86.576Z" transform="translate(82.8 76)" fill="url(#f)"/></g></g></svg>