<?xml version="1.0" encoding="UTF-8"?>
<svg width="200px" height="200px" viewBox="0 0 200 200" version="1.1" xmlns="http://www.w3.org/2000/svg" xmlns:xlink="http://www.w3.org/1999/xlink">
    <title>8973BC5C-6A61-454B-83A3-CEE150EAE418@1x</title>
    <defs>
        <filter id="filter-1">
            <feColorMatrix in="SourceGraphic" type="matrix" values="0 0 0 0 1.000000 0 0 0 0 1.000000 0 0 0 0 1.000000 0 0 0 1.000000 0"></feColorMatrix>
        </filter>
    </defs>
    <g id="Logo" stroke="none" stroke-width="1" fill="none" fill-rule="evenodd">
        <g id="stormx-mark-circular">
            <circle id="Oval" fill="#FD2E53" cx="100" cy="100" r="100"></circle>
            <g id="mark" transform="translate(38.000000, 45.000000)" filter="url(#filter-1)">
                <g>
                    <path d="M32.7793696,0 L68.5817256,41.7909465 C75.1034543,49.4026749 75.1034543,60.5973251 68.5817256,68.2090535 L32.7793696,110 L0,110 L39.5765361,63.8067901 C43.9243553,58.7323045 43.9243553,51.2699588 39.5765361,46.1932099 L0,0 L32.7793696,0 Z M95.2377268,85.8113169 L124.951456,110 L83.9971347,110 L65.5587393,87.5925926 L83.2482171,83.1541152 C87.4435212,82.1016461 91.8914995,83.086214 95.2377268,85.8113169 Z M124.951456,1.77635684e-15 L95.2377268,24.1886831 C91.8892232,26.9115226 87.4412448,27.8983539 83.2482171,26.8458848 L65.5587393,22.4074074 L83.9971347,1.77635684e-15 L124.951456,1.77635684e-15 Z" id="Combined-Shape" fill="#000000" fill-rule="nonzero"></path>
                </g>
            </g>
        </g>
    </g>
</svg>