<?xml version="1.0" encoding="utf-8"?>
<!-- Generator: Adobe Illustrator 24.3.0, SVG Export Plug-In . SVG Version: 6.00 Build 0)  -->
<svg version="1.1" xmlns="http://www.w3.org/2000/svg" xmlns:xlink="http://www.w3.org/1999/xlink" x="0px" y="0px"
	 viewBox="0 0 900 900" style="enable-background:new 0 0 900 900;" xml:space="preserve">
<style type="text/css">
	.st0{fill:url(#SVGID_1_);}
	.st1{fill-rule:evenodd;clip-rule:evenodd;fill:#FFFFFF;}
	.st2{fill:#00847B;}
</style>
<g id="Layer_2">
</g>
<g id="Layer_1">
	<g>
		<circle class="st2" cx="450" cy="450" r="435.3"/>
		<g>
			<path class="st1" d="M556.7,615c0,56.3-45.7,101.8-102.1,101.8c-56.3,0-102.1-45.5-102.1-101.8c0-16.1,3.7-31.3,10.4-44.8l-43-35
				l-1-0.6c-14.1,23.5-22.1,51.1-22.1,80.4c0,86.8,70.6,157.3,157.8,157.3S612.5,701.9,612.5,615c0-86.8-70.6-157.3-157.8-157.3
				H70.9l101.6,80.2v-24.7h282.1C510.9,513.3,556.7,558.8,556.7,615z"/>
			<path class="st1" d="M343.3,285c0-56.3,45.7-101.8,102.1-101.8S547.4,228.7,547.4,285c0,16.1-3.7,31.3-10.4,44.8l43,35l1,0.6
				c14.1-23.5,22.1-51.1,22.1-80.4c0-86.8-70.6-157.3-157.8-157.3S287.5,198.1,287.5,285c0,86.8,70.6,157.3,157.8,157.3h383.7
				l-101.6-80.2v24.7H445.4C389.1,386.7,343.3,341.2,343.3,285z"/>
		</g>
	</g>
</g>
</svg>
