<svg width="40" height="40" viewBox="0 0 40 40" fill="none" xmlns="http://www.w3.org/2000/svg">
<circle cx="20" cy="20" r="20" fill="#F7600A"/>
<path fill-rule="evenodd" clip-rule="evenodd" d="M23.5065 7.29411V6.48687C23.5065 6.21011 23.2758 5.98742 22.9993 6.00055C17.572 6.25833 13.2227 10.6316 13.004 16.0682C13.0156 16.4089 13.2914 16.4981 13.4536 16.4981H14.2736C14.533 16.4981 14.7457 16.2944 14.7592 16.0354C14.9921 11.5628 18.5809 7.97831 23.0557 7.75153C23.397 7.70769 23.5065 7.52119 23.5065 7.29411ZM16.1258 16.4981H16.9105C17.1652 16.4981 17.3729 16.2996 17.3914 16.0456C17.6132 13.0069 20.05 10.5831 23.0946 10.3811C23.2307 10.3721 23.5065 10.2702 23.5065 9.91743V9.11851C23.5065 8.83621 23.2671 8.61448 22.9853 8.63288C19.0467 8.88988 15.8972 12.039 15.6401 15.9771C15.6217 16.2587 15.8434 16.4981 16.1258 16.4981ZM26.5545 23.5018C26.7167 23.5018 26.9925 23.5911 27.0041 23.9318C26.7854 29.3684 22.4361 33.7416 17.0088 33.9994C16.7323 34.0126 16.5016 33.7899 16.5016 33.5131V32.7059C16.5016 32.4788 16.6111 32.2923 16.9524 32.2485C21.4272 32.0217 25.016 28.4372 25.2489 23.9646C25.2624 23.7056 25.4751 23.5018 25.7345 23.5018H26.5545ZM23.8823 23.5018C24.1647 23.5018 24.3864 23.7412 24.368 24.0229C24.111 27.961 20.9614 31.1101 17.0228 31.3671C16.741 31.3855 16.5016 31.1638 16.5016 30.8815V30.0825C16.5016 29.7298 16.7774 29.6279 16.9135 29.6188C19.9581 29.4169 22.3949 26.9931 22.6167 23.9544C22.6352 23.7003 22.8429 23.5018 23.0976 23.5018H23.8823ZM21.246 23.5018C21.5318 23.5018 21.7593 23.7472 21.7308 24.0314C21.4827 26.5107 19.511 28.4822 17.0313 28.7303C16.747 28.7587 16.5016 28.5313 16.5016 28.2456V27.4429C16.5016 27.1145 16.7868 26.9964 16.9258 26.9796C18.5186 26.7875 19.7823 25.5266 19.9788 23.9354C20.0092 23.6891 20.2142 23.5018 20.4624 23.5018H21.246ZM7.2943 16.496C7.52141 16.496 7.70793 16.6055 7.75178 16.9467C7.97864 21.4209 11.5636 25.0092 16.0368 25.242C16.2959 25.2555 16.4997 25.4682 16.4997 25.7276V26.5475C16.4997 26.7097 16.4104 26.9854 16.0697 26.997C10.6323 26.7783 6.25842 22.4296 6.00055 17.0032C5.98741 16.7267 6.21014 16.496 6.48699 16.496H7.2943ZM9.91805 16.496C10.2709 16.496 10.3728 16.7718 10.3818 16.9079C10.5838 19.952 13.0079 22.3885 16.047 22.6102C16.3011 22.6287 16.4997 22.8364 16.4997 23.0911V23.8757C16.4997 24.158 16.2603 24.3797 15.9785 24.3613C12.0399 24.1043 8.89029 20.9552 8.63326 17.0171C8.61486 16.7354 8.83662 16.496 9.11896 16.496H9.91805ZM23.9303 12.9806C29.3677 13.1994 33.7416 17.5481 33.9994 22.9745C34.0126 23.251 33.7898 23.4817 33.5131 23.4817H32.7057C32.4786 23.4817 32.2921 23.3722 32.2482 23.031C32.0214 18.5568 28.4364 14.9685 23.9632 14.7357C23.7041 14.7222 23.5003 14.5095 23.5003 14.2501V13.4302C23.5003 13.268 23.5895 12.9923 23.9303 12.9806ZM24.0215 15.6164C27.9601 15.8734 31.1097 19.0225 31.3667 22.9606C31.3851 23.2423 31.1634 23.4817 30.881 23.4817H30.0819C29.7291 23.4817 29.6272 23.2059 29.6182 23.0698C29.4162 20.0257 26.9921 17.5892 23.953 17.3675C23.6989 17.349 23.5003 17.1413 23.5003 16.8866V16.102C23.5003 15.8197 23.7397 15.598 24.0215 15.6164ZM24.03 18.2532C26.5097 18.5013 28.4814 20.4727 28.7295 22.952C28.758 23.2363 28.5305 23.4817 28.2447 23.4817H27.442C27.1135 23.4817 26.9954 23.1965 26.9786 23.0575C26.7864 21.4649 25.5254 20.2014 23.9339 20.005C23.6876 19.9746 23.5003 19.7696 23.5003 19.5214V18.7379C23.5003 18.4522 23.7457 18.2248 24.03 18.2532ZM12.558 16.496C12.8865 16.496 13.0046 16.7811 13.0214 16.9202C13.2136 18.5128 14.4746 19.7762 16.0661 19.9727C16.3124 20.0031 16.4997 20.2081 16.4997 20.4563V21.2398C16.4997 21.5255 16.2543 21.7529 15.97 21.7245C13.4903 21.4763 11.5186 19.5049 11.2704 17.0256C11.242 16.7413 11.4695 16.496 11.7553 16.496H12.558ZM23.5065 11.7544V12.557C23.5065 12.8854 23.2214 13.0036 23.0823 13.0204C21.4895 13.2125 20.2258 14.4733 20.0293 16.0646C19.9989 16.3109 19.7939 16.4981 19.5457 16.4981H18.7621C18.4763 16.4981 18.2488 16.2528 18.2773 15.9685C18.5255 13.4893 20.4972 11.5178 22.9768 11.2697C23.2611 11.2413 23.5065 11.4687 23.5065 11.7544Z" fill="white"/>
</svg>
