<svg height="1000" viewBox="0 0 999.99996 1000" width="1000" xmlns="http://www.w3.org/2000/svg"><path d="m-.00000034902-.00003472041h999.999975v999.999975h-999.999975z" fill="#eee" stroke-width="1.58564262703"/><g transform="matrix(2.89297072768 0 0 2.89297072768 -59.22114686849 4056.14533054262)"><g fill-opacity=".2"><path d="m30.648439-1222.1084q.341797 2.4658 1.342774 3.6865 1.831055 2.2217 6.274414 2.2217 2.661133 0 4.321289-.5859 3.149414-1.1231 3.149414-4.1748 0-1.7823-1.5625-2.7588-1.5625-.9522-4.907227-1.6846l-3.808593-.8545q-5.615235-1.2695-7.763672-2.7588-3.637695-2.4902-3.637695-7.7881 0-4.8339 3.515625-8.0322 3.515625-3.1982 10.327148-3.1982 5.688477 0 9.692383 3.0273 4.02832 3.0029 4.223633 8.7402h-7.226563q-.195312-3.247-2.832031-4.6142-1.757813-.9033-4.370117-.9033-2.905274 0-4.638672 1.1718-1.733399 1.1719-1.733399 3.2715 0 1.9287 1.708985 2.8809 1.098633.6348 4.6875 1.4892l6.201172 1.4893q4.077148.9766 6.152343 2.6123 3.222657 2.5391 3.222657 7.3486 0 4.9317-3.78418 8.2032-3.759766 3.247-10.644531 3.247-7.03125 0-11.059571-3.1982-4.02832-3.2227-4.02832-8.8379z"/><path d="m55.554104-1246.9863h7.641601v22.1191q0 3.7109.878907 5.4199 1.367187 3.0274 5.957031 3.0274 4.56543 0 5.932617-3.0274.878906-1.709.878906-5.4199v-22.1191h7.641602v22.1191q0 5.7373-1.782227 8.9356-3.320312 5.8593-12.670898 5.8593-9.350586 0-12.695313-5.8593-1.782226-3.1983-1.782226-8.9356z"/><path d="m104.99844-1222.1084q.34179 2.4658 1.34277 3.6865 1.83105 2.2217 6.27441 2.2217 2.66114 0 4.32129-.5859 3.14942-1.1231 3.14942-4.1748 0-1.7823-1.5625-2.7588-1.5625-.9522-4.90723-1.6846l-3.80859-.8545q-5.61524-1.2695-7.76368-2.7588-3.637691-2.4902-3.637691-7.7881 0-4.8339 3.515621-8.0322 3.51563-3.1982 10.32715-3.1982 5.68848 0 9.69239 3.0273 4.02832 3.0029 4.22363 8.7402h-7.22656q-.19532-3.247-2.83204-4.6142-1.75781-.9033-4.37011-.9033-2.90528 0-4.63867 1.1718-1.7334 1.1719-1.7334 3.2715 0 1.9287 1.70898 2.8809 1.09863.6348 4.6875 1.4892l6.20117 1.4893q4.07715.9766 6.15235 2.6123 3.22265 2.5391 3.22265 7.3486 0 4.9317-3.78418 8.2032-3.75976 3.247-10.64453 3.247-7.03125 0-11.05957-3.1982-4.028318-3.2227-4.028318-8.8379z"/><path d="m145.74882-1216.3711q1.29394 0 2.49023-.3174.65918-.1709 1.68457-.6103l-3.63769-3.4668 3.88183-4.0528 3.6377 3.4668q.85449-1.7578 1.19629-3.0761.53711-1.9776.53711-4.6143 0-6.0547-2.49024-9.3506-2.46582-3.3203-7.22656-3.3203-4.46777 0-7.12891 3.1738-2.66113 3.1739-2.66113 9.4971 0 7.3975 3.80859 10.5957 2.46582 2.0752 5.90821 2.0752zm17.30957-13.208q0 4.8096-1.17188 8.0566-.95215 3.1006-2.80761 5.1514l4.15039 3.8818-3.93067 4.1016-4.3457-4.1016q-1.97754 1.1963-3.41797 1.6846-2.41699.8057-5.78613.8057-7.03125 0-11.6211-4.1992-5.5664-5.0538-5.5664-14.8438 0-9.8633 5.71289-14.917 4.66308-4.126 11.59668-4.126 6.98242 0 11.71875 4.3702 5.46875 5.0537 5.46875 14.1357z"/><path d="m165.80411-1246.9863h7.6416v22.1191q0 3.7109.87891 5.4199 1.36718 3.0274 5.95703 3.0274 4.56543 0 5.93261-3.0274.87891-1.709.87891-5.4199v-22.1191h7.6416v22.1191q0 5.7373-1.78222 8.9356-3.32032 5.8593-12.6709 5.8593-9.35059 0-12.69532-5.8593-1.78222-3.1983-1.78222-8.9356z"/><path d="m208.74297-1224.5986h9.13086l-4.49219-14.1602zm.46386-22.3877h8.4961l12.74414 35.9863h-8.1543l-2.31934-7.3975h-13.25683l-2.49024 7.3975h-7.86132z"/><path d="m239.52364-1240.7363v9.6679h8.5205q2.53907 0 3.8086-.5859 2.24609-1.0254 2.24609-4.0527 0-3.2715-2.17285-4.3946-1.2207-.6347-3.66211-.6347zm10.30273-6.25q3.78418.073 5.81055.9277 2.05078.8545 3.46679 2.5147 1.17188 1.3671 1.85547 3.0273.6836 1.6602.6836 3.7842 0 2.5635-1.29395 5.0537-1.29394 2.4658-4.27246 3.4912 2.49023 1.001 3.51563 2.8564 1.0498 1.8311 1.0498 5.6153v2.417q0 2.4658.19531 3.3447.29297 1.3916 1.36719 2.0508v.9033h-8.27637q-.34179-1.1963-.48828-1.9287-.29297-1.5137-.31738-3.1006l-.0488-3.3447q-.0488-3.4424-1.26953-4.5899-1.19629-1.1474-4.5166-1.1474h-7.76367v14.1113h-7.34867v-35.9863z"/><path d="m291.71542-1240.6143h-19.04297v7.6416h17.48047v6.25h-17.48047v9.253h19.92188v6.4697h-27.27051v-35.9863h26.3916z"/><path d="m300.89844-1222.1084q.34179 2.4658 1.34277 3.6865 1.83106 2.2217 6.27441 2.2217 2.66114 0 4.32129-.5859 3.14942-1.1231 3.14942-4.1748 0-1.7823-1.5625-2.7588-1.5625-.9522-4.90723-1.6846l-3.80859-.8545q-5.61524-1.2695-7.76367-2.7588-3.6377-2.4902-3.6377-7.7881 0-4.8339 3.51563-8.0322 3.51562-3.1982 10.32714-3.1982 5.68848 0 9.69239 3.0273 4.02832 3.0029 4.22363 8.7402h-7.22656q-.19532-3.247-2.83203-4.6142-1.75782-.9033-4.37012-.9033-2.90527 0-4.63867 1.1718-1.7334 1.1719-1.7334 3.2715 0 1.9287 1.70898 2.8809 1.09864.6348 4.6875 1.4892l6.20117 1.4893q4.07715.9766 6.15235 2.6123 3.22265 2.5391 3.22265 7.3486 0 4.9317-3.78418 8.2032-3.75976 3.247-10.64453 3.247-7.03125 0-11.05957-3.1982-4.02832-3.2227-4.02832-8.8379z"/><path d="m326.95157-1242.6406v-4.3457h15.99121v4.3457h-5.39551v13.7695h-5.27344v-13.7695zm25.12207-4.3457 3.2959 10.4248 3.24707-10.4248h7.51953v18.1152h-4.80957v-13.1348l-3.93067 13.1348h-4.10156l-3.93066-13.1348v13.1348h-4.80957v-18.1152z"/></g><g fill="#ffd700"><path d="m27.648439-1224.1084q.341797 2.4658 1.342774 3.6865 1.831055 2.2217 6.274414 2.2217 2.661133 0 4.321289-.5859 3.149414-1.1231 3.149414-4.1748 0-1.7823-1.5625-2.7588-1.5625-.9522-4.907227-1.6846l-3.808593-.8545q-5.615235-1.2695-7.763672-2.7588-3.637695-2.4902-3.637695-7.7881 0-4.8339 3.515625-8.0322 3.515625-3.1982 10.327148-3.1982 5.688477 0 9.692383 3.0273 4.02832 3.0029 4.223633 8.7402h-7.226563q-.195312-3.247-2.832031-4.6142-1.757813-.9033-4.370117-.9033-2.905274 0-4.638672 1.1718-1.733399 1.1719-1.733399 3.2715 0 1.9287 1.708985 2.8809 1.098633.6348 4.6875 1.4892l6.201172 1.4893q4.077148.9766 6.152343 2.6123 3.222657 2.5391 3.222657 7.3486 0 4.9317-3.78418 8.2032-3.759766 3.247-10.644531 3.247-7.03125 0-11.059571-3.1982-4.02832-3.2227-4.02832-8.8379z"/><path d="m52.554104-1248.9863h7.641601v22.1191q0 3.7109.878907 5.4199 1.367187 3.0274 5.957031 3.0274 4.56543 0 5.932617-3.0274.878906-1.709.878906-5.4199v-22.1191h7.641602v22.1191q0 5.7373-1.782227 8.9356-3.320312 5.8593-12.670898 5.8593-9.350586 0-12.695313-5.8593-1.782226-3.1983-1.782226-8.9356z"/><path d="m101.99844-1224.1084q.34179 2.4658 1.34277 3.6865 1.83105 2.2217 6.27441 2.2217 2.66114 0 4.32129-.5859 3.14942-1.1231 3.14942-4.1748 0-1.7823-1.5625-2.7588-1.5625-.9522-4.90723-1.6846l-3.80859-.8545q-5.61524-1.2695-7.763676-2.7588-3.637695-2.4902-3.637695-7.7881 0-4.8339 3.515625-8.0322 3.515626-3.1982 10.327146-3.1982 5.68848 0 9.69239 3.0273 4.02832 3.0029 4.22363 8.7402h-7.22656q-.19532-3.247-2.83204-4.6142-1.75781-.9033-4.37011-.9033-2.90528 0-4.63867 1.1718-1.7334 1.1719-1.7334 3.2715 0 1.9287 1.70898 2.8809 1.09863.6348 4.6875 1.4892l6.20117 1.4893q4.07715.9766 6.15235 2.6123 3.22265 2.5391 3.22265 7.3486 0 4.9317-3.78418 8.2032-3.75976 3.247-10.64453 3.247-7.03125 0-11.059568-3.1982-4.02832-3.2227-4.02832-8.8379z"/><path d="m142.74882-1218.3711q1.29394 0 2.49023-.3174.65918-.1709 1.68457-.6103l-3.63769-3.4668 3.88183-4.0528 3.6377 3.4668q.85449-1.7578 1.19629-3.0761.53711-1.9776.53711-4.6143 0-6.0547-2.49024-9.3506-2.46582-3.3203-7.22656-3.3203-4.46777 0-7.12891 3.1738-2.66113 3.1739-2.66113 9.4971 0 7.3975 3.80859 10.5957 2.46582 2.0752 5.90821 2.0752zm17.30957-13.208q0 4.8096-1.17188 8.0566-.95215 3.1006-2.80761 5.1514l4.15039 3.8818-3.93067 4.1016-4.3457-4.1016q-1.97754 1.1963-3.41797 1.6846-2.41699.8057-5.78613.8057-7.03125 0-11.6211-4.1992-5.5664-5.0538-5.5664-14.8438 0-9.8633 5.71289-14.917 4.66308-4.126 11.59668-4.126 6.98242 0 11.71875 4.3702 5.46875 5.0537 5.46875 14.1357z"/><path d="m162.80411-1248.9863h7.6416v22.1191q0 3.7109.87891 5.4199 1.36718 3.0274 5.95703 3.0274 4.56543 0 5.93261-3.0274.87891-1.709.87891-5.4199v-22.1191h7.6416v22.1191q0 5.7373-1.78222 8.9356-3.32032 5.8593-12.6709 5.8593-9.35059 0-12.69532-5.8593-1.78222-3.1983-1.78222-8.9356z"/><path d="m205.74297-1226.5986h9.13086l-4.49219-14.1602zm.46386-22.3877h8.4961l12.74414 35.9863h-8.1543l-2.31934-7.3975h-13.25683l-2.49024 7.3975h-7.86132z"/><path d="m236.52364-1242.7363v9.6679h8.5205q2.53907 0 3.8086-.5859 2.24609-1.0254 2.24609-4.0527 0-3.2715-2.17285-4.3946-1.2207-.6347-3.66211-.6347zm10.30273-6.25q3.78418.073 5.81055.9277 2.05078.8545 3.46679 2.5147 1.17188 1.3671 1.85547 3.0273.6836 1.6602.6836 3.7842 0 2.5635-1.29395 5.0537-1.29394 2.4658-4.27246 3.4912 2.49023 1.001 3.51563 2.8564 1.0498 1.8311 1.0498 5.6153v2.417q0 2.4658.19531 3.3447.29297 1.3916 1.36719 2.0508v.9033h-8.27637q-.34179-1.1963-.48828-1.9287-.29297-1.5137-.31738-3.1006l-.0488-3.3447q-.0488-3.4424-1.26953-4.5899-1.19629-1.1474-4.5166-1.1474h-7.76367v14.1113h-7.34867v-35.9863z"/><path d="m288.71542-1242.6143h-19.04297v7.6416h17.48047v6.25h-17.48047v9.253h19.92188v6.4697h-27.27051v-35.9863h26.3916z"/><path d="m297.89844-1224.1084q.34179 2.4658 1.34277 3.6865 1.83106 2.2217 6.27441 2.2217 2.66114 0 4.32129-.5859 3.14942-1.1231 3.14942-4.1748 0-1.7823-1.5625-2.7588-1.5625-.9522-4.90723-1.6846l-3.80859-.8545q-5.61524-1.2695-7.76367-2.7588-3.6377-2.4902-3.6377-7.7881 0-4.8339 3.51563-8.0322 3.51562-3.1982 10.32714-3.1982 5.68848 0 9.69239 3.0273 4.02832 3.0029 4.22363 8.7402h-7.22656q-.19532-3.247-2.83203-4.6142-1.75782-.9033-4.37012-.9033-2.90527 0-4.63867 1.1718-1.7334 1.1719-1.7334 3.2715 0 1.9287 1.70898 2.8809 1.09864.6348 4.6875 1.4892l6.20117 1.4893q4.07715.9766 6.15235 2.6123 3.22265 2.5391 3.22265 7.3486 0 4.9317-3.78418 8.2032-3.75976 3.247-10.64453 3.247-7.03125 0-11.05957-3.1982-4.02832-3.2227-4.02832-8.8379z"/><path d="m323.95157-1244.6406v-4.3457h15.99121v4.3457h-5.39551v13.7695h-5.27344v-13.7695zm25.12207-4.3457 3.2959 10.4248 3.24707-10.4248h7.51953v18.1152h-4.80957v-13.1348l-3.93067 13.1348h-4.10156l-3.93066-13.1348v13.1348h-4.80957v-18.1152z"/></g></g></svg>