<svg xmlns="http://www.w3.org/2000/svg" viewBox="0 0 272.59 203.8"><defs><style>.cls-1{fill:#f7941d;}</style></defs><title>SwarmBirdOnly-Orange</title><g id="Layer_2" data-name="Layer 2"><g id="Layer_4" data-name="Layer 4"><path class="cls-1" d="M270,13.24c-38.14.2-123.91-1.19-126.48-.2l-40.9,38.34L52.41,1.58S52-.06,48.07,0a5,5,0,0,0-3,1L1.43,44.86a5.38,5.38,0,0,0-1.38,4c.46,3,3.56,4,3.56,4l39.33.2s-.92,54.89.2,57.11S140,201.57,140,201.57a7.94,7.94,0,0,0,3.75,2.17c4,.59,4.94-3.56,4.94-3.56l.4-77.86S234.61,52.17,270,22.93c1-.86,2.24.19,2.57-4.74C272.75,15.22,272,13.23,270,13.24ZM42.66,42.75l-23.84.13L42.93,18.78Zm11.65-23.9L94.11,58.5,54.39,96Zm55.22,137.07,29.25-24.5-.2,54.15Zm-8.58-7.67L56.52,108.1,147.9,23.36,253.35,23Z"/></g></g></svg>