<svg width="200" height="200" viewBox="0 0 200 200" fill="none" xmlns="http://www.w3.org/2000/svg">
<rect width="200" height="200" rx="100" fill="#3CE35F"/>
<path fill-rule="evenodd" clip-rule="evenodd" d="M114.787 59.3574C116.878 66.0544 123.145 70.9356 130.522 70.9356C139.601 70.9356 147 63.5413 147 54.4678C147 45.3943 139.601 38 130.522 38C122.804 38 116.3 43.3435 114.524 50.5196H81.149C66.2037 50.5196 54.0293 62.6862 54.0293 77.6222C54.0293 92.558 66.2037 104.725 81.149 104.725H84.1614C86.0346 111.761 92.4702 116.968 100.089 116.968C107.708 116.968 114.143 111.761 116.016 104.725H119.588C129.669 104.725 137.864 112.915 137.864 122.99C137.864 133.065 129.669 141.255 119.588 141.255H86.0868C83.8782 134.758 77.7113 130.065 70.4781 130.065C61.3989 130.065 54 137.459 54 146.533C54 155.606 61.3989 163 70.4781 163C78.3348 163 84.9334 157.463 86.5679 150.092H119.588C134.533 150.092 146.707 137.926 146.707 122.99C146.707 108.054 134.533 95.887 119.588 95.887H115.908C113.905 89.0482 107.567 84.0323 100.089 84.0323C92.6111 84.0323 86.2731 89.0482 84.2699 95.887H81.149C71.0675 95.887 62.8727 87.6973 62.8727 77.6222C62.8727 67.5471 71.0675 59.3574 81.149 59.3574H114.787ZM130.522 46.8671C126.307 46.8671 122.887 50.2844 122.887 54.4971C122.887 58.7097 126.307 62.127 130.522 62.127C134.737 62.127 138.157 58.7097 138.157 54.4971C138.157 50.2844 134.737 46.8671 130.522 46.8671ZM92.4541 100.529C92.4541 96.3167 95.8735 92.8994 100.089 92.8994C104.304 92.8994 107.724 96.3167 107.724 100.529C107.724 104.742 104.304 108.159 100.089 108.159C95.8735 108.159 92.4541 104.742 92.4541 100.529ZM62.8433 146.562C62.8433 142.349 66.2627 138.932 70.4781 138.932C74.6934 138.932 78.1129 142.349 78.1129 146.562C78.1129 150.774 74.6934 154.191 70.4781 154.191C66.2627 154.191 62.8433 150.774 62.8433 146.562Z" fill="white"/>
</svg>