<?xml version="1.0" encoding="utf-8"?>
<!-- Generator: Adobe Illustrator 25.1.0, SVG Export Plug-In . SVG Version: 6.00 Build 0)  -->
<svg version="1.1" id="Ebene_1" xmlns="http://www.w3.org/2000/svg" xmlns:xlink="http://www.w3.org/1999/xlink" x="0px" y="0px"
	 viewBox="0 0 128 128" style="enable-background:new 0 0 128 128;" xml:space="preserve">
<circle style="fill:#FFFFFF;" cx="64" cy="64" r="64"/>
<g>
	<polygon style="fill:#2A5BDB;" points="59.8,39.4 44.6,32 29.9,40.1 29.9,65.6 43.6,60.7 43.5,48.1 	"/>
	<polygon style="fill:#2A5BDB;" points="94.9,21.8 86.4,24.8 89.5,34.4 64.1,21.3 48.8,29.7 83.9,46.7 74.1,50.3 77.2,59.2 
		104.3,49.5 	"/>
</g>
<g>
	<polygon style="fill:#2A5BDB;" points="79.4,98.6 44.4,81.7 54.2,78 51.1,69.1 24,78.8 33.4,106.5 41.9,103.6 38.8,93.9 64.1,107 	
		"/>
	<polygon style="fill:#2A5BDB;" points="84.7,67.6 84.8,80.3 68.4,88.9 83.6,96.3 98.4,88.2 98.4,62.8 	"/>
</g>
</svg>
