<?xml version="1.0" encoding="UTF-8"?>
<svg width="22" height="22" viewBox="0 0 300 300" fill="none">
    <path d="M150 300C232.843 300 300 232.843 300 150C300 67.1573 232.843 0 150 0C67.1573 0 0 67.1573 0 150C0 232.843 67.1573 300 150 300Z" fill="#6E97FF"/>
    <path d="M179 185.428C179 180.548 179.96 176.768 181.88 174.088C183.8 171.408 186.52 170.068 190.04 170.068C192.64 170.068 194.74 170.788 196.34 172.228C197.94 173.668 198.98 175.708 199.46 178.348C199.86 175.228 200.86 172.828 202.46 171.148C204.06 169.428 206.3 168.568 209.18 168.568C212.86 168.568 215.76 169.968 217.88 172.768C219.96 175.568 221 179.528 221 184.648V201.388H179V185.428ZM196.28 192.388V185.188C196.28 183.268 195.82 181.768 194.9 180.688C193.98 179.608 192.74 179.068 191.18 179.068C189.62 179.068 188.38 179.608 187.46 180.688C186.54 181.768 186.08 183.268 186.08 185.188V192.388H196.28ZM213.86 192.388V184.588C213.86 182.428 213.4 180.768 212.48 179.608C211.56 178.408 210.28 177.808 208.64 177.808C206.92 177.808 205.6 178.408 204.68 179.608C203.72 180.808 203.24 182.468 203.24 184.588V192.388H213.86Z" fill="#1E1A31"/>
    <path d="M179 167.809V134.569H186.74V146.689H221V155.689H186.74V167.809H179Z" fill="#1E1A31"/>
    <path d="M200 134.221C195.72 134.221 191.98 133.401 188.78 131.761C185.54 130.081 183.04 127.701 181.28 124.621C179.52 121.501 178.64 117.841 178.64 113.641C178.64 110.361 179.28 107.421 180.56 104.821C181.84 102.221 183.64 100.121 185.96 98.5205C188.28 96.9205 190.96 95.9605 194 95.6405V104.641C191.6 105.161 189.72 106.261 188.36 107.941C186.96 109.581 186.26 111.641 186.26 114.121C186.26 117.481 187.52 120.141 190.04 122.101C192.56 124.061 195.88 125.041 200 125.041C204.08 125.041 207.4 124.061 209.96 122.101C212.48 120.141 213.74 117.481 213.74 114.121C213.74 111.641 213.06 109.581 211.7 107.941C210.3 106.261 208.4 105.161 206 104.641V95.6405C209.04 95.9605 211.72 96.9205 214.04 98.5205C216.36 100.121 218.16 102.221 219.44 104.821C220.72 107.421 221.36 110.361 221.36 113.641C221.36 117.841 220.48 121.501 218.72 124.621C216.96 127.701 214.48 130.081 211.28 131.761C208.04 133.401 204.28 134.221 200 134.221Z" fill="#1E1A31"/>
    <path opacity="0.5" fill-rule="evenodd" clip-rule="evenodd" d="M81.4239 208.528L68.9404 199.622L147.457 90.5283L159.94 99.4343L81.4239 208.528Z" fill="#1E1A31"/>
    <path fill-rule="evenodd" clip-rule="evenodd" d="M121.868 142.349H126.059C145.357 142.349 161 157.941 161 177.175C161 196.408 145.357 212 126.059 212H74.6759C70.4366 212 67 208.575 67 204.349C67 200.124 70.4366 196.699 74.6759 196.699H126.059C136.878 196.699 145.648 187.958 145.648 177.175C145.648 166.392 136.878 157.651 126.059 157.651H106.135H106.132H101.941C82.6434 157.651 67 142.059 67 122.825C67 103.592 82.6434 88 101.941 88H153.324C157.563 88 161 91.4253 161 95.6505C161 99.8758 157.563 103.301 153.324 103.301H101.941C91.1219 103.301 82.3517 112.042 82.3517 122.825C82.3517 133.608 91.1219 142.349 101.941 142.349H121.865C121.866 142.349 121.867 142.349 121.868 142.349Z" fill="#1E1A31"/>
</svg>