<?xml version="1.0" encoding="UTF-8"?>
<svg width="300px" height="300px" viewBox="0 0 300 300" version="1.1" xmlns="http://www.w3.org/2000/svg" xmlns:xlink="http://www.w3.org/1999/xlink">
    <!-- Generator: Sketch 52.4 (67378) - http://www.bohemiancoding.com/sketch -->
    <title>SNX master</title>
    <desc>Created with Sketch.</desc>
    <g id="Page-1" stroke="none" stroke-width="1" fill="none" fill-rule="evenodd">
        <g id="SNX-master">
            <circle id="Oval-Copy" fill="#1E1A31" cx="150" cy="150" r="150"></circle>
            <g id="Group-4" transform="translate(104.482759, 90.000000)" fill="#FFFFFF">
                <path d="M52.9554667,52.8567073 C57.0255476,52.8567073 60.3249999,56.1554538 60.3249999,60.2246642 C60.3249999,64.2938745 57.0255476,67.592621 52.9554667,67.592621 L33.826346,67.592621 C15.2992777,67.592621 0.280121405,52.5766775 0.280121405,34.0535721 C0.280121405,15.5304668 15.2992777,0.514523149 33.826346,0.514523149 L83.1593411,0.514523149 C87.2294221,0.514523149 90.5288744,3.81326981 90.5288744,7.88248007 C90.5288744,11.9516903 87.2294221,15.250437 83.1593411,15.250437 L33.826346,15.250437 C23.4394394,15.250437 15.0191879,23.6688873 15.0191879,34.0535721 C15.0191879,44.4382568 23.4394394,52.8567073 33.826346,52.8567073 L52.9554667,52.8567073 Z" id="Rectangle-2"></path>
                <path d="M52.9554685,105.198891 C57.0255494,105.198891 60.3250017,108.497638 60.3250017,112.566848 C60.3250017,116.636058 57.0255494,119.934805 52.9554685,119.934805 L33.8263478,119.934805 C15.2992796,119.934805 0.280123222,104.918861 0.280123222,86.3957561 C0.280123222,67.8726508 15.2992796,52.8567073 33.8263478,52.8567073 L83.159343,52.8567073 C87.2294239,52.8567073 90.5288762,56.1554538 90.5288762,60.2246642 C90.5288762,64.2938745 87.2294239,67.592621 83.159343,67.592621 L33.8263478,67.592621 C23.4394412,67.592621 15.0191898,76.0110715 15.0191898,86.3957561 C15.0191898,96.7804406 23.4394412,105.198891 33.8263478,105.198891 L52.9554685,105.198891 Z" id="Rectangle-2-Copy" transform="translate(45.404500, 86.395756) rotate(-180.000000) translate(-45.404500, -86.395756) "></path>
                <polygon id="Path-3" fill-opacity="0.5" points="13.4728916 116.962604 1.4921301 108.379486 76.8464713 3.24097718 88.8272326 11.824095"></polygon>
            </g>
        </g>
    </g>
</svg>