<?xml version="1.0" encoding="UTF-8"?>
<svg width="300px" height="300px" viewBox="0 0 300 300" version="1.1" xmlns="http://www.w3.org/2000/svg" xmlns:xlink="http://www.w3.org/1999/xlink">
    <!-- Generator: Sketch 52.4 (67378) - http://www.bohemiancoding.com/sketch -->
    <title>sUSD master</title>
    <desc>Created with Sketch.</desc>
    <defs>
        <path d="M11.84695,18.019973 L11.84695,41.482713 C11.84695,44.757496 12.4826336,47.223178 13.75402,48.879833 C15.0254064,50.5364879 17.028773,51.364803 19.76418,51.364803 C22.499587,51.364803 24.5125852,50.5364879 25.803235,48.879833 C27.0938848,47.223178 27.7392,44.757496 27.7392,41.482713 L27.7392,18.019973 L36.4077,18.019973 L36.4077,41.020393 C36.4077,46.7994219 34.9918592,51.2106811 32.160135,54.254303 C29.3284108,57.2979249 25.1964672,58.819713 19.76418,58.819713 C14.3318928,58.819713 10.2095807,57.2979249 7.39712,54.254303 C4.58465927,51.2106811 3.17845,46.7994219 3.17845,41.020393 L3.17845,18.019973 L11.84695,18.019973 Z M49.93056,45.296853 C50.0846674,47.3002497 50.9033509,48.9087219 52.386635,50.122318 C53.8699191,51.335914 55.844391,51.942703 58.31011,51.942703 C60.3520335,51.942703 62.0182952,51.5092823 63.308945,50.642428 C64.5995948,49.7755736 65.24491,48.5716273 65.24491,47.030553 C65.24491,45.9518009 64.8885419,45.0945912 64.175795,44.458898 C63.4630481,43.8232048 62.4613648,43.3223631 61.170715,42.956358 C59.8800652,42.5903528 57.8863302,42.137669 55.18945,41.598293 C52.5310967,41.0974438 50.2965724,40.4521286 48.48581,39.662328 C46.6750476,38.8725274 45.2014173,37.6974758 44.064875,36.137138 C42.9283327,34.5768002 42.36007,32.5060125 42.36007,29.924713 C42.36007,27.5745746 43.0053852,25.4748922 44.296035,23.625603 C45.5866848,21.7763137 47.3781569,20.3219466 49.670505,19.262458 C51.9628531,18.2029693 54.5537456,17.673233 57.44326,17.673233 C60.4098282,17.673233 63.0777732,18.2222325 65.447175,19.320248 C67.8165768,20.4182635 69.6851015,21.93042 71.052805,23.856763 C72.4205085,25.7831059 73.1236131,27.9598408 73.16214,30.387033 L64.66701,30.387033 C64.4743757,28.6533243 63.7423764,27.2567466 62.47099,26.197258 C61.1996036,25.1377693 59.5237104,24.608033 57.44326,24.608033 C55.516917,24.608033 53.9758658,25.0125589 52.82006,25.821623 C51.6642542,26.630687 51.08636,27.7864755 51.08636,29.289023 C51.08636,30.367775 51.4330965,31.2057217 52.12658,31.802888 C52.8200635,32.4000543 53.8024836,32.8816328 55.07387,33.247638 C56.3452564,33.6136431 58.3100967,34.0470638 60.96845,34.547913 C63.6653302,35.0487621 65.9383808,35.6748142 67.78767,36.426088 C69.6369592,37.1773617 71.1298527,38.313887 72.266395,39.835698 C73.4029373,41.3575089 73.9712,43.3897703 73.9712,45.932543 C73.9712,48.398262 73.2969901,50.6038916 71.94855,52.549498 C70.6001099,54.4951044 68.7219537,56.0265241 66.314025,57.143803 C63.9060963,58.2610819 61.199625,58.819713 58.19453,58.819713 C54.9582738,58.819713 52.0784343,58.2321872 49.554925,57.057118 C47.0314157,55.8820488 45.0569438,54.2543134 43.63145,52.173863 C42.2059562,50.0934126 41.4739569,47.7625725 41.43543,45.181273 L49.93056,45.296853 Z M79.1723,18.019973 L93.21527,18.019973 C97.2605902,18.019973 100.833903,18.8771827 103.935315,20.591628 C107.036727,22.3060732 109.425357,24.6947027 111.101275,27.757588 C112.777193,30.8204733 113.61514,34.3167333 113.61514,38.246473 C113.61514,42.1762126 112.777193,45.6724727 111.101275,48.735358 C109.425357,51.7982433 107.036727,54.1868727 103.935315,55.901318 C100.833903,57.6157632 97.2605902,58.472973 93.21527,58.472973 L79.1723,58.472973 L79.1723,18.019973 Z M93.21527,51.249223 C96.8753216,51.249223 99.7166349,50.0645398 101.739295,47.695138 C103.761955,45.3257361 104.77327,42.1762126 104.77327,38.246473 C104.77327,34.3167333 103.761955,31.1672098 101.739295,28.797808 C99.7166349,26.4284061 96.8753216,25.243723 93.21527,25.243723 L87.8408,25.243723 L87.8408,51.249223 L93.21527,51.249223 Z" id="path-1"></path>
    </defs>
    <g id="Page-1" stroke="none" stroke-width="1" fill="none" fill-rule="evenodd">
        <g id="sUSD-master">
            <circle id="Oval-Copy" fill="#1E1A31" cx="150.389813" cy="150.27121" r="149.57633"></circle>
            <g id="Group-19" transform="translate(70.945946, 73.972973)">
                <g id="Group-Copy" transform="translate(0.000000, 10.148649)" fill="#FFFFFF">
                    <g id="Group-6" transform="translate(0.000000, 0.588569)">
                        <g id="Group-5" transform="translate(0.718512, 0.454804)">
                            <g id="Group-4" transform="translate(0.063063, 0.389683)">
                                <path d="M54.7891427,55.2176465 C58.8418196,55.2176465 62.1271631,58.50299 62.1271631,62.5556669 C62.1271631,66.6083439 58.8418196,69.8936874 54.7891427,69.8936874 L35.7418199,69.8936874 C17.2939751,69.8936874 2.33904201,54.9387545 2.33904201,36.4909095 C2.33904201,18.0430646 17.2939751,3.0881316 35.7418199,3.0881316 L84.8638627,3.0881316 C88.9165396,3.0881316 92.2018831,6.37347527 92.2018831,10.4261521 C92.2018831,14.4788289 88.9165396,17.7641726 84.8638627,17.7641726 L35.7418199,17.7641726 C25.3993287,17.7641726 17.015083,26.1484183 17.015083,36.4909095 C17.015083,46.8334007 25.3993287,55.2176465 35.7418199,55.2176465 L54.7891427,55.2176465 Z" id="Rectangle-2"></path>
                                <path d="M54.7891445,107.347161 C58.8418214,107.347161 62.1271649,110.632505 62.1271649,114.685181 C62.1271649,118.737858 58.8418214,122.023202 54.7891445,122.023202 L35.7418217,122.023202 C17.2939769,122.023202 2.33904382,107.068269 2.33904382,88.6204242 C2.33904382,70.1725794 17.2939769,55.2176465 35.7418217,55.2176465 L84.8638645,55.2176465 C88.9165414,55.2176465 92.2018849,58.50299 92.2018849,62.5556669 C92.2018849,66.6083439 88.9165414,69.8936874 84.8638645,69.8936874 L35.7418217,69.8936874 C25.3993305,69.8936874 17.0150848,78.2779332 17.0150848,88.6204242 C17.0150848,98.9629152 25.3993305,107.347161 35.7418217,107.347161 L54.7891445,107.347161 Z" id="Rectangle-2-Copy" transform="translate(47.270464, 88.620424) rotate(-180.000000) translate(-47.270464, -88.620424) "></path>
                                <polygon id="Path-3" fill-opacity="0.5" points="15.4753987 119.063077 3.54586805 110.514833 78.5779872 5.8035079 90.5075177 14.351752"></polygon>
                            </g>
                        </g>
                    </g>
                </g>
                <g id="USD" transform="translate(122.526424, 66.124064) rotate(-90.000000) translate(-122.526424, -66.124064) translate(56.526424, 30.624064)">
                    <g>
                        <use fill="#000000" xlink:href="#path-1"></use>
                        <use fill="#FFFFFF" xlink:href="#path-1"></use>
                    </g>
                </g>
            </g>
        </g>
    </g>
</svg>