<svg xmlns="http://www.w3.org/2000/svg" width="800" height="800" viewBox="0 0 800 800">
  <g id="组_6885" data-name="组 6885" transform="translate(9148 -584)">
    <circle id="椭圆_290" data-name="椭圆 290" cx="400" cy="400" r="400" transform="translate(-9148 584)" fill="#f8cf03"/>
    <g id="组_6884" data-name="组 6884" transform="translate(-8981.532 816.4)">
      <path id="路径_24228" data-name="路径 24228" d="M963.6,340q-13.987-13.987-36.88-14H743.6q-22.881,0-36.88,14t-14,36.88v305.2q0,22.881,14,36.88t36.88,14q22.881,0,36.88-14t14-36.88V453.2q0-25.427,25.44-25.44H926.741q22.881,0,36.88-14t14-36.88Q977.546,353.961,963.6,340Zm-335.709,0q-13.987-13.987-36.88-14H560.5q-22.881,0-36.88,14t-14,36.88q0,22.881,14,36.88t36.88,14h30.508q22.881,0,36.88-14t14-36.88Q641.849,353.961,627.887,340Z" transform="translate(-509.62 -326)" fill="#fff"/>
    </g>
  </g>
</svg>
