<svg xmlns="http://www.w3.org/2000/svg" xmlns:xlink="http://www.w3.org/1999/xlink" width="44.337" height="48.001" viewBox="0 0 44.337 48.001">
  <defs>
    <linearGradient id="linear-gradient" x1="0.193" y1="0.895" x2="0.8" y2="0.102" gradientUnits="objectBoundingBox">
      <stop offset="0" stop-color="#b400ff"/>
      <stop offset="1" stop-color="#ff3a52"/>
    </linearGradient>
  </defs>
  <g id="torum-logo" transform="translate(-1131.525 -512.494)">
    <g id="Group_4509" data-name="Group 4509" transform="translate(1131.525 512.494)">
      <g id="flatTorumLogo189-01" transform="translate(0 0)">
        <path id="Path_29607" data-name="Path 29607" d="M1180.093,534.351V548.09a10.25,10.25,0,0,1-5.128,8.886l-11.282,6.87a11.091,11.091,0,0,1-.995.508l-.053.023a10.257,10.257,0,0,1-8.208-.023l-.053-.026c-.32-.142-.635-.3-.945-.48l-.275-.159-11.008-6.719a10.253,10.253,0,0,1-5.126-8.886V534.351c0-3.666,1.336-6.438,4.51-8.272l11.9-6.863a10.265,10.265,0,0,1,9.259-.508,10.452,10.452,0,0,1,.995.508l11.9,6.87c3.173,1.83,4.513,4.6,4.513,8.264Z" transform="translate(-1136.384 -517.222)" fill="#fff"/>
        <path id="Path_29608" data-name="Path 29608" d="M1176.014,529.655v13.738a10.25,10.25,0,0,1-5.129,8.886l-11.034,6.4-.467.254a.972.972,0,0,1-1.442-.853V548.3h0a10.266,10.266,0,0,0-8.269-.048v9.79a.972.972,0,0,1-1.432.858l-.383-.205-11.021-6.423a10.252,10.252,0,0,1-5.126-8.885V529.655a10.252,10.252,0,0,1,5.126-8.886l11.9-6.863a10.265,10.265,0,0,1,9.259-.508,10.452,10.452,0,0,1,.995.508l11.9,6.87A10.249,10.249,0,0,1,1176.014,529.655Z" transform="translate(-1131.69 -512.527)" fill="url(#linear-gradient)"/>
        <path id="Path_29609" data-name="Path 29609" d="M1226.714,633.112a4.116,4.116,0,0,1-6.257,3.388l-3.305-2.053a.326.326,0,0,0-.509.277v22.265a10.272,10.272,0,0,1-8.219-.023l-.053-.026V634.724a.326.326,0,0,0-.509-.277l-3.305,2.053a4.116,4.116,0,1,1-4.246-7.037l10.068-6.262a4.124,4.124,0,0,1,4.284,0l10.068,6.262A4.108,4.108,0,0,1,1226.714,633.112Z" transform="translate(-1190.399 -609.842)" fill="#fff"/>
        <path id="Path_29610" data-name="Path 29610" d="M1220.212,543.887a1.01,1.01,0,0,1-1.01-1.01V529.6a8.229,8.229,0,0,0-4.1-7.076l-12.006-6.946a8.282,8.282,0,0,0-8.29.088L1184.33,521.7a1.01,1.01,0,0,1-1.007-1.751l10.465-6.021a10.305,10.305,0,0,1,10.312-.1l12.013,6.951a10.256,10.256,0,0,1,5.107,8.821v13.277A1.01,1.01,0,0,1,1220.212,543.887Z" transform="translate(-1176.884 -512.494)" fill="#ff7db7"/>
        <path id="Line_1" data-name="Line 1" d="M1366.829,532a1.006,1.006,0,0,1-.5-.136l-11.939-6.91a1.01,1.01,0,1,1,.989-1.761l.023.013,11.939,6.91a1.01,1.01,0,0,1-.507,1.884Z" transform="translate(-1328.107 -521.836)" fill="#ffd6e6"/>
        <path id="Path_29611" data-name="Path 29611" d="M1148.557,705.848a1,1,0,0,1-.507-.138l-11.464-6.679a10.23,10.23,0,0,1-5.06-8.948v-10.49a1.01,1.01,0,0,1,2.02,0v10.5a8.211,8.211,0,0,0,4.058,7.19l11.463,6.678a1.01,1.01,0,0,1-.509,1.883Z" transform="translate(-1131.525 -659.339)" fill="#811585"/>
        <path id="Line_2" data-name="Line 2" d="M1209.565,863.009a1.007,1.007,0,0,1-.506-.136l-8.011-4.649a1.009,1.009,0,1,1,1.014-1.745l8.011,4.646a1.01,1.01,0,0,1-.508,1.884Z" transform="translate(-1192.548 -816.5)" fill="#5b115c"/>
        <path id="Path_29612" data-name="Path 29612" d="M1307.54,621.471a1.01,1.01,0,0,1-.912-1.443,5.439,5.439,0,0,0,.5-1.785,4.3,4.3,0,0,0-1.668-3.509l-10.608-6.567a4.23,4.23,0,0,0-1.92-.481,4.114,4.114,0,0,0-2.289.693,1.01,1.01,0,0,1-1.119-1.682,6.132,6.132,0,0,1,3.422-1.031,6.3,6.3,0,0,1,2.921.755l10.782,6.689a6.388,6.388,0,0,1,2.494,5.236,7.5,7.5,0,0,1-.687,2.548A1.01,1.01,0,0,1,1307.54,621.471Z" transform="translate(-1270.824 -594.87)" fill="#ff7db7"/>
        <path id="Path_29613" data-name="Path 29613" d="M1354.056,624.414a1,1,0,0,1-.533-.154l-3.439-2.13a1.01,1.01,0,1,1,1.07-1.713h0l3.439,2.13a1.01,1.01,0,0,1-.536,1.867Z" transform="translate(-1324.339 -607.776)" fill="#ffd6e6"/>
      </g>
    </g>
  </g>
</svg>
