<svg id="svg" version="1.1" xmlns="http://www.w3.org/2000/svg" xmlns:xlink="http://www.w3.org/1999/xlink" width="400" height="400" viewBox="0, 0, 400,400"><g id="svgg"><path id="path0" d="M216.200 2.800 C 216.336 3.020,216.717 3.200,217.047 3.200 C 217.377 3.200,217.536 3.020,217.400 2.800 C 217.264 2.580,216.883 2.400,216.553 2.400 C 216.223 2.400,216.064 2.580,216.200 2.800 M181.600 25.238 C 179.290 25.418,175.960 25.837,174.200 26.169 C 172.440 26.502,170.010 26.886,168.800 27.024 C 166.523 27.283,159.448 28.791,155.600 29.838 C 143.937 33.010,141.979 33.596,140.417 34.377 C 139.638 34.767,138.460 35.215,137.800 35.371 C 137.140 35.527,135.880 35.986,135.000 36.390 C 130.406 38.499,128.910 39.146,128.000 39.418 C 121.201 41.450,97.496 55.798,89.368 62.800 C 88.219 63.790,86.318 65.410,85.143 66.400 C 82.271 68.820,76.870 73.976,73.639 77.380 C 72.187 78.909,70.539 80.619,69.976 81.180 C 59.675 91.441,44.887 114.634,38.446 130.631 C 37.922 131.934,37.168 133.720,36.773 134.600 C 35.387 137.679,32.152 147.307,31.365 150.692 C 31.047 152.063,30.597 153.682,30.365 154.291 C 29.644 156.187,27.684 165.956,26.330 174.400 C 25.092 182.123,24.928 212.518,26.092 218.400 C 26.463 220.270,26.967 223.420,27.213 225.400 C 27.458 227.380,27.925 229.990,28.249 231.200 C 28.573 232.410,29.177 234.930,29.590 236.800 C 30.874 242.604,33.739 252.569,34.535 254.000 C 34.841 254.550,35.220 255.540,35.377 256.200 C 35.664 257.407,37.368 261.586,38.820 264.644 C 39.249 265.548,39.600 266.441,39.600 266.629 C 39.600 268.877,52.065 290.736,58.138 299.138 C 68.674 313.712,84.545 329.287,98.176 338.429 C 99.348 339.215,101.228 340.520,102.355 341.329 C 106.664 344.425,120.508 351.873,127.000 354.587 C 128.980 355.415,131.320 356.422,132.200 356.825 C 134.326 357.797,138.787 359.453,142.000 360.461 C 148.958 362.645,151.172 363.312,153.200 363.835 C 154.410 364.147,156.750 364.761,158.400 365.199 C 160.050 365.638,162.660 366.184,164.200 366.414 C 165.740 366.644,167.990 367.085,169.200 367.396 C 178.960 369.901,221.476 369.949,225.504 367.459 C 225.719 367.327,227.583 366.936,229.647 366.591 C 231.711 366.245,234.660 365.616,236.200 365.191 C 237.740 364.767,239.990 364.160,241.200 363.844 C 242.410 363.527,244.840 362.820,246.600 362.272 C 248.360 361.725,250.970 360.915,252.400 360.472 C 255.542 359.499,259.909 357.770,267.000 354.692 C 300.975 339.943,329.876 313.679,347.732 281.326 C 352.754 272.226,353.257 271.162,358.231 259.100 C 360.985 252.422,365.651 236.709,366.414 231.544 C 366.653 229.925,367.095 227.790,367.396 226.800 C 370.300 217.230,370.430 177.330,367.586 168.200 C 367.380 167.540,366.851 165.020,366.410 162.600 C 365.632 158.338,364.269 152.902,363.047 149.200 C 362.721 148.210,361.820 145.420,361.045 143.000 C 359.530 138.265,357.899 133.728,357.020 131.800 C 356.719 131.140,355.638 128.636,354.617 126.235 C 352.918 122.242,350.156 116.735,346.475 110.000 C 344.641 106.644,339.583 98.929,337.035 95.600 C 335.940 94.170,334.151 91.830,333.058 90.400 C 325.398 80.372,315.455 70.369,303.800 60.963 C 298.189 56.434,287.782 49.744,280.200 45.790 C 277.780 44.529,275.260 43.182,274.600 42.798 C 273.940 42.414,271.870 41.437,270.000 40.627 C 268.130 39.817,266.150 38.918,265.600 38.629 C 265.050 38.340,263.880 37.873,263.000 37.591 C 262.120 37.309,261.035 36.841,260.588 36.551 C 259.172 35.631,248.882 32.253,242.000 30.450 C 234.224 28.412,232.376 28.005,227.200 27.195 C 224.450 26.765,221.300 26.235,220.200 26.019 C 214.438 24.883,191.984 24.430,181.600 25.238 M219.600 45.352 C 248.109 49.741,270.208 59.286,293.251 77.164 C 299.245 81.815,312.611 94.902,316.777 100.200 C 317.469 101.080,318.981 102.985,320.135 104.432 C 323.115 108.168,330.077 118.765,332.597 123.400 C 334.846 127.535,339.200 136.258,339.200 136.627 C 339.200 136.803,339.549 137.679,339.975 138.574 C 341.769 142.339,344.780 150.866,346.180 156.147 C 353.572 184.036,353.571 211.245,346.177 239.053 C 344.849 244.045,341.138 254.885,340.458 255.756 C 340.268 256.000,339.780 257.100,339.373 258.200 C 337.692 262.744,331.355 274.514,327.227 280.758 C 326.442 281.945,325.465 283.472,325.056 284.151 C 319.392 293.555,303.015 311.030,292.406 318.990 C 288.193 322.151,284.417 324.800,284.124 324.800 C 283.974 324.800,283.480 325.129,283.026 325.531 C 280.260 327.978,264.239 336.828,258.000 339.356 C 246.063 344.192,239.482 346.173,227.400 348.566 C 199.658 354.061,168.987 351.376,143.000 341.177 C 141.240 340.486,139.099 339.661,138.241 339.342 C 133.933 337.742,121.971 331.338,115.986 327.427 C 103.858 319.501,89.262 306.881,80.794 297.000 C 75.074 290.326,60.800 269.213,60.800 267.427 C 60.800 267.328,59.915 265.385,58.833 263.108 C 54.558 254.111,49.622 240.022,48.215 232.800 C 48.065 232.030,47.607 229.960,47.197 228.200 C 46.788 226.440,46.162 222.660,45.808 219.800 C 45.453 216.940,44.970 213.430,44.733 212.000 C 43.216 202.814,44.556 178.320,47.210 166.758 C 47.645 164.865,48.000 163.056,48.000 162.737 C 48.000 161.918,50.421 153.449,52.213 148.000 C 55.231 138.826,59.477 129.299,63.759 122.093 C 65.102 119.835,67.100 116.466,68.200 114.608 C 76.603 100.414,93.153 83.208,110.200 70.942 C 119.751 64.070,134.841 56.466,147.200 52.296 C 159.976 47.985,166.217 46.607,183.000 44.391 C 188.976 43.602,212.195 44.211,219.600 45.352 M178.797 110.700 C 178.795 111.305,179.066 112.970,179.400 114.400 C 180.620 119.629,181.040 122.681,180.685 123.746 C 180.310 124.870,180.635 124.746,172.200 126.991 C 160.588 130.083,149.866 133.849,141.400 137.811 C 139.860 138.532,137.371 139.674,135.869 140.350 C 133.088 141.600,124.216 146.379,122.400 147.604 C 121.850 147.975,119.185 149.701,116.477 151.439 C 98.163 163.198,83.555 179.612,79.479 193.010 C 79.146 194.104,78.600 195.639,78.265 196.420 C 77.280 198.717,76.697 206.884,77.181 211.599 C 79.068 229.993,101.411 247.610,130.000 253.246 C 136.118 254.452,138.487 254.882,140.800 255.209 C 147.812 256.198,155.214 256.600,166.400 256.600 L 178.600 256.600 180.000 257.579 C 180.770 258.118,181.760 258.873,182.200 259.259 C 183.545 260.436,193.565 268.397,199.758 273.208 C 201.321 274.423,204.908 277.263,207.730 279.519 C 214.026 284.553,214.522 284.882,215.344 284.566 C 216.275 284.209,216.209 280.547,215.200 276.600 C 213.629 270.456,213.816 270.184,220.864 268.419 C 227.691 266.710,234.593 264.563,240.200 262.406 C 241.300 261.983,243.640 261.101,245.400 260.446 C 250.822 258.429,251.684 258.042,262.400 252.807 C 271.551 248.337,286.484 238.974,289.200 236.004 C 289.310 235.883,290.840 234.593,292.600 233.136 C 314.954 214.633,324.074 190.025,314.959 172.800 C 309.967 163.366,301.717 156.058,289.000 149.806 C 282.939 146.825,280.813 145.967,275.000 144.150 C 271.908 143.184,270.690 142.859,263.800 141.171 C 255.313 139.091,241.913 137.926,227.600 138.023 C 221.990 138.062,217.192 138.072,216.938 138.046 C 216.535 138.006,203.089 127.555,195.600 121.462 C 194.170 120.298,192.280 118.818,191.400 118.173 C 190.520 117.528,188.219 115.696,186.286 114.101 C 181.059 109.789,178.803 108.764,178.797 110.700 M249.125 158.822 C 277.916 160.892,286.466 172.442,269.997 187.017 C 269.013 187.888,268.011 188.783,267.769 189.007 C 267.527 189.230,266.265 190.116,264.965 190.975 C 263.664 191.834,262.091 192.882,261.469 193.303 C 258.767 195.134,243.804 202.399,240.600 203.436 C 239.720 203.721,237.300 204.598,235.223 205.385 C 226.906 208.538,220.781 210.416,208.419 213.604 C 202.031 215.252,202.429 215.600,200.225 206.450 C 199.676 204.167,198.937 201.859,198.584 201.320 L 197.943 200.341 196.741 201.271 C 195.543 202.198,189.713 211.260,186.365 217.400 C 185.885 218.280,185.361 219.090,185.200 219.200 C 185.039 219.310,184.517 220.120,184.040 221.000 C 183.563 221.880,182.684 223.363,182.086 224.295 C 181.489 225.228,180.209 227.298,179.243 228.895 C 174.573 236.615,175.833 236.178,158.200 236.184 C 142.282 236.188,136.972 235.593,128.800 232.885 C 107.545 225.842,115.629 208.955,147.000 194.865 C 150.080 193.482,153.140 192.100,153.800 191.793 C 156.039 190.754,162.178 188.495,168.200 186.496 C 178.066 183.219,180.520 182.467,182.200 182.201 C 183.080 182.063,184.520 181.701,185.400 181.397 C 192.106 179.085,193.698 179.670,194.596 184.775 C 196.661 196.521,198.090 196.776,203.699 186.400 C 205.120 183.771,211.811 172.724,214.273 168.943 C 215.440 167.151,216.860 164.787,217.429 163.690 C 219.522 159.656,220.421 159.148,226.068 158.814 C 233.765 158.357,242.704 158.361,249.125 158.822 " stroke="none" fill="#f3f7fa" fill-rule="evenodd"></path><path id="path1" d="M181.800 1.605 C 177.325 1.927,175.631 2.193,174.200 2.799 C 173.760 2.985,171.180 3.241,168.467 3.367 C 163.598 3.594,162.455 3.826,162.458 4.590 C 162.459 4.804,162.241 5.053,161.974 5.142 C 161.696 5.235,161.608 5.111,161.768 4.852 C 161.952 4.555,161.640 4.400,160.857 4.400 C 160.202 4.400,159.603 4.591,159.525 4.824 C 159.448 5.057,157.948 5.345,156.192 5.463 C 153.864 5.620,152.682 5.902,151.827 6.505 C 151.008 7.082,149.705 7.415,147.503 7.609 C 145.326 7.800,144.018 8.131,143.276 8.677 C 142.684 9.113,141.227 9.584,140.038 9.723 C 138.763 9.873,137.532 10.291,137.038 10.742 C 136.534 11.202,135.293 11.615,133.921 11.780 C 132.667 11.930,131.227 12.377,130.721 12.774 C 130.214 13.171,129.170 13.627,128.400 13.787 C 126.779 14.125,125.090 15.098,125.361 15.538 C 125.464 15.704,124.885 15.882,124.074 15.932 C 121.935 16.066,121.272 16.344,120.994 17.220 C 120.808 17.806,120.379 18.002,119.273 18.006 C 117.610 18.013,117.056 18.290,116.683 19.300 C 116.533 19.708,116.013 20.000,115.439 20.000 C 113.988 20.000,112.400 20.699,112.400 21.337 C 112.400 21.689,111.782 21.978,110.723 22.120 C 109.728 22.253,108.792 22.669,108.423 23.141 C 108.080 23.579,107.046 24.136,106.124 24.378 C 105.051 24.660,104.358 25.102,104.197 25.609 C 104.021 26.164,103.590 26.400,102.754 26.400 C 102.021 26.400,101.223 26.761,100.681 27.338 C 100.196 27.854,99.305 28.397,98.700 28.545 C 97.961 28.727,97.600 29.075,97.600 29.608 C 97.600 30.043,97.465 30.412,97.300 30.428 C 95.335 30.608,94.512 30.918,93.713 31.780 C 93.193 32.341,92.434 32.800,92.027 32.800 C 91.619 32.800,91.185 33.062,91.062 33.382 C 90.939 33.702,90.155 34.317,89.319 34.749 C 88.484 35.180,87.577 35.903,87.304 36.356 C 87.020 36.825,86.559 37.082,86.228 36.955 C 85.910 36.833,85.323 37.121,84.925 37.595 C 84.526 38.069,83.629 38.699,82.932 38.995 C 82.235 39.290,81.464 39.908,81.218 40.366 C 80.973 40.825,80.413 41.200,79.974 41.200 C 79.535 41.200,78.303 42.100,77.238 43.200 C 76.172 44.300,75.112 45.200,74.884 45.200 C 74.655 45.200,73.958 45.740,73.335 46.400 C 72.712 47.060,71.973 47.600,71.693 47.600 C 71.412 47.600,70.978 48.050,70.727 48.600 C 70.477 49.150,69.936 49.600,69.526 49.600 C 69.110 49.600,68.621 50.018,68.421 50.545 C 68.223 51.065,67.650 51.598,67.148 51.729 C 66.646 51.861,66.354 52.087,66.498 52.232 C 66.864 52.597,65.792 53.600,65.036 53.600 C 64.695 53.600,64.306 54.034,64.173 54.565 C 64.029 55.140,63.540 55.629,62.965 55.773 C 62.375 55.921,62.000 56.306,62.000 56.764 C 62.000 57.220,61.626 57.607,61.044 57.753 C 60.465 57.899,59.989 58.388,59.837 58.997 C 59.675 59.641,59.304 60.000,58.800 60.000 C 58.297 60.000,57.925 60.358,57.764 61.000 C 57.608 61.621,57.230 62.000,56.764 62.000 C 56.318 62.000,55.923 62.369,55.786 62.915 C 55.659 63.418,55.161 64.003,54.678 64.215 C 54.195 64.427,53.742 65.005,53.672 65.500 C 53.589 66.084,53.269 66.400,52.760 66.400 C 52.328 66.400,51.864 66.715,51.729 67.100 C 51.594 67.485,51.155 68.160,50.754 68.600 C 50.352 69.040,49.467 70.003,48.787 70.739 C 48.107 71.476,47.379 72.528,47.170 73.078 C 46.961 73.628,46.433 74.171,45.995 74.285 C 45.558 74.400,45.200 74.738,45.200 75.037 C 45.200 75.337,44.750 75.876,44.200 76.237 C 43.647 76.599,43.200 77.276,43.200 77.751 C 43.200 78.254,42.831 78.774,42.310 79.005 C 41.809 79.228,41.256 79.983,41.042 80.735 C 40.834 81.470,40.245 82.345,39.732 82.681 C 39.207 83.025,38.800 83.690,38.800 84.203 C 38.800 84.704,38.522 85.221,38.182 85.352 C 37.842 85.482,37.300 86.221,36.977 86.994 C 36.654 87.767,36.032 88.623,35.595 88.896 C 35.158 89.169,34.800 89.805,34.800 90.309 C 34.800 90.813,34.523 91.331,34.185 91.461 C 33.431 91.750,32.400 93.667,32.400 94.780 C 32.400 95.331,32.140 95.600,31.608 95.600 C 31.089 95.600,30.726 95.957,30.555 96.636 C 30.412 97.206,29.869 98.132,29.348 98.694 C 28.822 99.261,28.400 100.213,28.400 100.831 C 28.400 101.574,28.147 102.026,27.643 102.186 C 26.880 102.429,26.416 103.497,26.405 105.036 C 26.402 105.529,26.002 106.053,25.428 106.315 C 24.683 106.654,24.391 107.184,24.182 108.579 C 24.006 109.751,23.708 110.400,23.345 110.400 C 22.702 110.400,22.000 111.980,22.000 113.426 C 22.000 114.015,21.768 114.400,21.414 114.400 C 20.637 114.400,20.000 115.654,20.000 117.186 C 20.000 118.001,19.760 118.514,19.300 118.683 C 18.283 119.059,18.013 119.611,18.006 121.336 C 18.002 122.397,17.746 123.077,17.180 123.536 C 16.729 123.901,16.178 125.010,15.956 126.000 C 15.733 126.990,15.203 128.171,14.777 128.624 C 14.269 129.165,13.914 130.304,13.743 131.942 C 13.549 133.797,13.275 134.582,12.675 135.002 C 12.073 135.424,11.821 136.154,11.680 137.884 C 11.545 139.541,11.222 140.522,10.546 141.331 C 9.730 142.306,9.600 142.888,9.600 145.561 C 9.600 148.322,9.494 148.760,8.633 149.569 C 7.817 150.335,7.621 151.008,7.385 153.846 C 7.179 156.318,6.888 157.488,6.293 158.246 C 5.586 159.143,5.455 160.037,5.282 165.122 C 5.102 170.450,5.010 171.026,4.242 171.647 C 2.646 172.940,2.774 222.374,4.378 223.978 C 4.951 224.551,5.120 225.652,5.295 229.981 C 5.474 234.402,5.640 235.458,6.295 236.343 C 6.848 237.091,7.167 238.406,7.375 240.795 C 7.693 244.440,8.089 245.600,9.014 245.600 C 9.477 245.600,9.600 246.232,9.600 248.603 C 9.600 251.307,9.699 251.692,10.600 252.475 C 11.446 253.210,11.600 253.692,11.600 255.602 C 11.600 257.494,11.762 258.013,12.600 258.800 C 13.372 259.525,13.600 260.140,13.600 261.496 C 13.600 263.585,14.164 264.800,15.134 264.800 C 15.693 264.800,15.810 265.071,15.696 266.100 C 15.447 268.364,16.119 270.584,17.096 270.725 C 17.835 270.832,17.977 271.150,18.080 272.925 C 18.184 274.729,18.318 275.017,19.100 275.128 C 19.891 275.240,20.000 275.489,20.000 277.182 C 20.000 278.795,20.162 279.214,21.000 279.763 C 21.731 280.242,22.000 280.772,22.000 281.734 C 22.000 282.721,22.289 283.263,23.159 283.906 C 23.796 284.377,24.308 284.996,24.296 285.281 C 24.232 286.806,24.488 287.449,25.300 287.805 C 25.995 288.110,26.228 288.587,26.323 289.898 C 26.426 291.316,26.607 291.637,27.423 291.841 C 28.101 292.012,28.400 292.365,28.400 292.997 C 28.400 293.527,28.818 294.182,29.400 294.563 C 30.148 295.053,30.400 295.568,30.400 296.602 C 30.400 297.715,30.581 298.030,31.328 298.218 C 32.026 298.393,32.350 298.868,32.628 300.125 C 32.877 301.248,33.291 301.928,33.882 302.187 C 34.392 302.411,34.814 303.001,34.882 303.587 C 34.964 304.287,35.278 304.639,35.900 304.728 C 36.559 304.821,36.800 305.123,36.800 305.854 C 36.800 307.171,37.483 308.400,38.214 308.400 C 38.590 308.400,38.800 308.804,38.800 309.528 C 38.800 310.216,39.268 311.180,40.000 312.000 C 40.660 312.739,41.200 313.586,41.200 313.882 C 41.200 314.178,41.650 314.591,42.200 314.800 C 42.909 315.069,43.200 315.480,43.200 316.208 C 43.200 316.774,43.636 317.672,44.169 318.205 C 44.702 318.738,45.251 319.531,45.389 319.967 C 45.528 320.403,45.974 320.865,46.381 320.994 C 46.788 321.123,47.232 321.672,47.368 322.214 C 47.514 322.795,47.905 323.200,48.320 323.200 C 48.736 323.200,49.210 323.692,49.478 324.400 C 49.775 325.187,50.208 325.600,50.737 325.600 C 51.270 325.600,51.588 325.906,51.672 326.500 C 51.754 327.078,52.122 327.446,52.700 327.528 C 53.351 327.620,53.600 327.924,53.600 328.628 C 53.600 329.398,53.808 329.600,54.600 329.600 C 55.388 329.600,55.600 329.803,55.600 330.557 C 55.600 331.231,55.881 331.584,56.552 331.752 C 57.076 331.884,57.603 332.367,57.723 332.825 C 57.842 333.284,58.299 333.753,58.736 333.867 C 59.174 333.982,59.641 334.509,59.774 335.038 C 59.948 335.731,60.293 336.000,61.008 336.000 C 61.799 336.000,62.000 336.202,62.000 337.000 C 62.000 337.800,62.200 338.000,63.000 338.000 C 63.737 338.000,64.000 338.213,64.000 338.810 C 64.000 339.306,64.388 339.767,65.000 340.000 C 65.550 340.209,66.000 340.670,66.000 341.025 C 66.000 341.379,66.540 341.873,67.200 342.122 C 67.890 342.383,68.400 342.867,68.400 343.261 C 68.400 343.638,68.805 344.073,69.300 344.229 C 69.795 344.384,70.596 344.936,71.081 345.456 C 71.565 345.975,72.330 346.400,72.781 346.400 C 73.231 346.400,73.600 346.566,73.600 346.770 C 73.600 347.472,79.252 352.800,79.997 352.800 C 80.468 352.800,80.792 353.133,80.872 353.700 C 80.961 354.322,81.313 354.636,82.013 354.718 C 82.582 354.784,83.196 355.211,83.413 355.690 C 83.626 356.160,84.347 356.737,85.016 356.972 C 85.685 357.207,86.630 357.805,87.116 358.300 C 87.602 358.795,88.264 359.200,88.586 359.200 C 88.908 359.200,89.357 359.545,89.583 359.967 C 89.809 360.390,90.510 360.848,91.142 360.987 C 91.773 361.126,92.674 361.681,93.142 362.220 C 93.611 362.759,94.348 363.200,94.779 363.200 C 95.211 363.200,96.014 363.650,96.564 364.200 C 97.114 364.750,97.970 365.200,98.467 365.200 C 98.967 365.200,99.751 365.678,100.223 366.270 C 100.942 367.172,101.463 367.368,103.538 367.518 C 105.814 367.683,106.000 367.768,106.000 368.648 C 106.000 369.524,106.160 369.600,108.000 369.600 C 109.867 369.600,110.000 369.667,110.000 370.600 C 110.000 371.452,110.184 371.600,111.242 371.600 C 112.081 371.600,112.733 371.915,113.247 372.569 C 113.667 373.102,114.591 373.666,115.301 373.822 C 116.011 373.978,117.151 374.532,117.834 375.053 C 118.517 375.574,119.554 376.000,120.138 376.000 C 120.722 376.000,121.200 376.175,121.200 376.390 C 121.200 377.054,123.483 378.000,125.085 378.000 C 126.283 378.000,126.695 378.193,127.005 378.900 C 127.338 379.658,127.760 379.819,129.686 379.920 C 131.556 380.017,132.113 380.218,132.744 381.020 C 133.378 381.826,133.869 382.000,135.511 382.000 C 137.143 382.000,137.543 382.140,137.708 382.769 C 137.926 383.603,140.131 384.394,142.251 384.398 C 143.080 384.399,143.692 384.686,144.065 385.247 C 144.525 385.940,145.153 386.132,147.514 386.301 C 149.101 386.415,150.400 386.659,150.400 386.843 C 150.400 387.651,152.891 388.400,155.580 388.400 C 157.790 388.400,158.400 388.527,158.400 388.986 C 158.400 389.996,159.829 390.400,163.410 390.400 C 166.486 390.400,166.951 390.497,167.579 391.273 C 168.375 392.257,171.410 392.743,176.974 392.779 C 179.699 392.797,180.284 392.927,181.106 393.700 L 182.064 394.600 204.399 394.600 C 226.417 394.600,226.749 394.588,227.866 393.765 C 228.834 393.052,229.806 392.891,234.523 392.667 C 240.113 392.401,241.600 392.047,241.600 390.986 C 241.600 390.511,242.345 390.400,245.530 390.400 C 249.205 390.400,249.522 390.335,250.400 389.400 C 251.226 388.521,251.673 388.400,254.096 388.400 C 257.019 388.400,258.400 387.946,258.400 386.986 C 258.400 386.536,258.962 386.400,260.826 386.400 C 263.443 386.400,264.800 385.917,264.800 384.986 C 264.800 384.572,265.255 384.400,266.350 384.400 C 269.038 384.400,270.439 383.951,270.899 382.943 C 271.273 382.122,271.608 382.000,273.483 382.000 C 275.268 382.000,275.797 381.828,276.565 381.000 C 277.219 380.294,277.911 380.000,278.917 380.000 C 280.264 380.000,281.600 379.189,281.600 378.371 C 281.600 378.167,282.215 378.000,282.967 378.000 C 284.824 378.000,285.600 377.649,285.600 376.809 C 285.600 376.262,286.061 376.042,287.653 375.831 C 288.911 375.664,289.956 375.265,290.353 374.800 C 290.709 374.382,291.630 373.886,292.400 373.697 C 293.399 373.451,293.837 373.102,293.928 372.476 C 294.027 371.798,294.326 371.600,295.254 371.600 C 296.750 371.600,298.000 370.956,298.000 370.186 C 298.000 369.806,298.408 369.600,299.158 369.600 C 299.871 369.600,300.678 369.219,301.258 368.607 C 301.776 368.061,302.617 367.611,303.126 367.607 C 304.293 367.598,305.645 366.892,306.323 365.937 C 306.610 365.531,307.164 365.200,307.553 365.200 C 307.942 365.200,308.674 364.760,309.180 364.222 C 309.685 363.684,310.571 363.189,311.149 363.122 C 311.780 363.049,312.358 362.640,312.595 362.100 C 312.868 361.478,313.332 361.200,314.098 361.200 C 314.785 361.200,315.686 360.743,316.463 360.000 C 317.154 359.340,317.966 358.800,318.269 358.800 C 318.572 358.800,318.991 358.350,319.200 357.800 C 319.457 357.123,319.885 356.800,320.524 356.800 C 321.068 356.800,321.920 356.292,322.537 355.600 C 323.125 354.940,323.863 354.400,324.176 354.400 C 324.490 354.400,324.855 354.058,324.987 353.640 C 325.120 353.222,325.660 352.771,326.188 352.639 C 326.715 352.506,327.258 352.048,327.394 351.620 C 327.530 351.191,328.002 350.726,328.443 350.586 C 328.885 350.446,329.411 349.897,329.613 349.366 C 329.825 348.808,330.304 348.400,330.747 348.400 C 331.225 348.400,331.605 348.034,331.757 347.428 C 331.910 346.821,332.340 346.407,332.901 346.328 C 333.478 346.246,333.846 345.878,333.928 345.300 C 334.020 344.649,334.324 344.400,335.028 344.400 C 335.798 344.400,336.000 344.192,336.000 343.400 C 336.000 342.612,336.203 342.400,336.957 342.400 C 337.631 342.400,337.984 342.119,338.152 341.448 C 338.284 340.924,338.767 340.397,339.225 340.277 C 339.684 340.158,340.153 339.701,340.267 339.264 C 340.382 338.826,340.909 338.359,341.438 338.226 C 342.131 338.052,342.400 337.707,342.400 336.992 C 342.400 336.201,342.602 336.000,343.400 336.000 C 344.200 336.000,344.400 335.800,344.400 335.000 C 344.400 334.200,344.600 334.000,345.400 334.000 C 346.200 334.000,346.400 333.800,346.400 333.000 C 346.400 332.271,346.614 332.000,347.190 332.000 C 347.655 332.000,348.224 331.528,348.574 330.851 C 348.901 330.219,349.535 329.606,349.984 329.488 C 350.466 329.362,350.800 328.944,350.800 328.465 C 350.800 327.930,351.105 327.612,351.700 327.528 C 352.270 327.447,352.646 327.079,352.725 326.525 C 352.802 325.979,353.179 325.602,353.725 325.525 C 354.286 325.445,354.647 325.069,354.731 324.478 C 354.806 323.945,355.269 323.402,355.831 323.188 C 356.389 322.976,356.800 322.496,356.800 322.057 C 356.800 321.631,357.152 321.201,357.595 321.085 C 358.033 320.971,358.563 320.425,358.773 319.871 C 358.983 319.317,359.409 318.715,359.719 318.532 C 360.467 318.092,361.200 316.653,361.200 315.626 C 361.200 315.082,361.459 314.800,361.957 314.800 C 362.744 314.800,363.200 314.065,363.200 312.796 C 363.200 312.390,363.650 311.704,364.200 311.271 C 364.750 310.839,365.200 310.248,365.200 309.957 C 365.200 309.667,365.661 309.062,366.225 308.613 C 366.925 308.055,367.321 307.264,367.475 306.119 C 367.651 304.802,367.882 304.417,368.550 304.321 C 369.259 304.220,369.420 303.886,369.522 302.300 C 369.632 300.585,369.739 300.400,370.622 300.400 C 371.437 300.400,371.600 300.205,371.600 299.227 C 371.600 298.463,371.844 297.975,372.300 297.828 C 373.063 297.581,374.000 295.868,374.000 294.720 C 374.000 294.278,374.295 294.000,374.765 294.000 C 375.347 294.000,375.595 293.613,375.803 292.384 C 375.983 291.315,376.401 290.556,377.038 290.138 C 377.600 289.770,378.000 289.119,378.000 288.572 C 378.000 288.057,378.450 287.186,379.000 286.636 C 379.550 286.086,380.000 285.186,380.000 284.636 C 380.000 284.086,380.450 283.186,381.000 282.636 C 381.735 281.901,382.000 281.210,382.000 280.027 C 382.000 278.756,382.208 278.282,382.992 277.769 C 383.737 277.280,384.047 276.635,384.242 275.171 C 384.422 273.809,384.713 273.155,385.207 272.998 C 385.963 272.758,386.386 271.664,386.395 269.921 C 386.398 269.327,386.850 268.356,387.400 267.762 C 388.187 266.913,388.400 266.261,388.400 264.699 C 388.400 263.167,388.627 262.445,389.400 261.527 C 390.176 260.605,390.400 259.889,390.400 258.333 C 390.400 256.795,390.591 256.174,391.220 255.664 C 392.093 254.957,392.775 252.683,392.790 250.426 C 392.796 249.567,393.133 248.697,393.687 248.108 C 394.451 247.294,394.595 246.615,394.733 243.182 C 394.849 240.287,395.033 239.200,395.407 239.200 C 396.306 239.200,396.800 236.810,396.800 232.466 C 396.800 228.646,396.884 228.162,397.700 227.294 L 398.600 226.336 398.600 200.000 L 398.600 173.665 397.700 172.707 C 396.884 171.838,396.800 171.354,396.800 167.524 C 396.800 162.582,396.567 161.130,395.610 160.102 C 395.090 159.544,394.861 158.447,394.725 155.862 C 394.572 152.937,394.412 152.283,393.731 151.807 C 393.090 151.358,392.868 150.621,392.670 148.279 C 392.369 144.710,392.174 144.139,391.172 143.877 C 390.509 143.703,390.400 143.307,390.400 141.068 C 390.400 138.871,390.243 138.275,389.400 137.273 C 388.850 136.619,388.400 135.638,388.400 135.092 C 388.400 133.113,387.898 131.622,387.152 131.385 C 386.566 131.199,386.400 130.758,386.400 129.389 C 386.400 128.080,386.170 127.418,385.500 126.795 C 384.917 126.254,384.459 125.157,384.200 123.680 C 383.891 121.916,383.596 121.311,382.900 121.005 C 382.201 120.698,382.000 120.281,382.000 119.134 C 382.000 117.744,381.200 116.400,380.371 116.400 C 380.167 116.400,380.000 115.962,380.000 115.426 C 380.000 113.942,379.292 112.400,378.610 112.400 C 378.197 112.400,378.000 112.007,378.000 111.182 C 378.000 110.416,377.629 109.592,377.000 108.964 C 376.450 108.414,376.000 107.652,376.000 107.271 C 376.000 106.588,375.127 105.106,374.116 104.071 C 373.832 103.781,373.600 103.221,373.600 102.827 C 373.600 102.434,373.150 101.774,372.600 101.361 C 372.050 100.948,371.600 100.281,371.600 99.879 C 371.600 98.799,370.856 97.600,370.186 97.600 C 369.837 97.600,369.600 97.219,369.600 96.658 C 369.600 96.141,369.166 95.249,368.636 94.676 C 368.105 94.104,367.554 93.103,367.411 92.451 C 367.268 91.800,366.887 91.166,366.565 91.042 C 366.243 90.918,365.630 90.003,365.204 89.008 C 364.765 87.986,364.162 87.200,363.814 87.200 C 363.434 87.200,363.200 86.837,363.200 86.246 C 363.200 85.679,362.808 85.035,362.235 84.660 C 361.704 84.312,361.152 83.494,361.009 82.843 C 360.866 82.192,360.311 81.371,359.775 81.020 C 359.239 80.669,358.800 80.086,358.800 79.725 C 358.800 79.363,357.900 78.227,356.800 77.200 C 355.700 76.173,354.800 75.143,354.800 74.913 C 354.800 74.682,354.459 74.404,354.042 74.295 C 353.625 74.186,352.971 73.439,352.590 72.635 C 352.208 71.830,351.559 70.992,351.148 70.772 C 350.737 70.552,350.400 70.112,350.400 69.795 C 350.400 69.478,349.969 68.936,349.442 68.591 C 348.915 68.245,348.392 67.611,348.279 67.181 C 348.159 66.720,347.732 66.400,347.237 66.400 C 346.664 66.400,346.400 66.145,346.400 65.591 C 346.400 65.125,345.992 64.597,345.434 64.343 C 344.903 64.101,344.376 63.551,344.264 63.122 C 344.151 62.692,343.708 62.249,343.278 62.136 C 342.849 62.024,342.299 61.497,342.057 60.966 C 341.815 60.435,341.339 60.000,340.999 60.000 C 340.659 60.000,340.209 59.550,340.000 59.000 C 339.791 58.450,339.341 58.000,339.000 58.000 C 338.659 58.000,338.215 57.565,338.013 57.034 C 337.811 56.503,337.292 55.956,336.859 55.819 C 336.426 55.681,335.781 55.126,335.427 54.584 C 335.072 54.043,334.516 53.600,334.191 53.600 C 333.866 53.600,333.600 53.335,333.600 53.010 C 333.600 52.686,333.082 52.153,332.448 51.825 C 331.815 51.498,331.202 50.981,331.085 50.678 C 330.969 50.374,330.205 49.809,329.388 49.421 C 328.572 49.034,327.814 48.375,327.705 47.958 C 327.596 47.541,327.262 47.200,326.963 47.200 C 326.663 47.200,326.124 46.750,325.763 46.200 C 325.377 45.610,324.728 45.200,324.182 45.200 C 323.526 45.200,323.218 44.937,323.128 44.300 C 323.047 43.728,322.679 43.354,322.119 43.275 C 321.634 43.206,321.133 42.818,321.004 42.412 C 320.875 42.007,320.102 41.403,319.285 41.071 C 318.468 40.738,317.487 40.092,317.104 39.633 C 316.721 39.175,316.054 38.800,315.622 38.800 C 315.190 38.800,314.386 38.350,313.836 37.800 C 313.286 37.250,312.407 36.800,311.882 36.800 C 311.253 36.800,310.773 36.460,310.473 35.800 C 310.221 35.248,309.679 34.800,309.264 34.800 C 308.849 34.800,307.831 34.260,307.000 33.600 C 306.169 32.940,305.288 32.400,305.041 32.400 C 304.794 32.400,304.369 32.042,304.096 31.605 C 303.805 31.139,302.968 30.708,302.078 30.566 C 301.050 30.402,300.434 30.044,300.178 29.461 C 299.924 28.882,299.372 28.559,298.492 28.474 C 297.639 28.392,296.963 28.010,296.546 27.374 C 296.186 26.824,295.520 26.400,295.016 26.400 C 294.525 26.400,293.793 26.034,293.388 25.587 C 292.984 25.140,291.876 24.579,290.926 24.340 C 289.977 24.101,289.200 23.751,289.200 23.563 C 289.200 23.080,287.002 22.000,286.020 22.000 C 285.569 22.000,285.200 21.825,285.200 21.610 C 285.200 21.017,282.985 20.000,281.692 20.000 C 280.966 20.000,280.225 19.632,279.675 19.000 C 279.150 18.396,278.379 18.000,277.728 18.000 C 277.136 18.000,276.237 17.610,275.729 17.134 C 275.140 16.580,273.994 16.157,272.560 15.962 C 271.216 15.780,269.968 15.338,269.456 14.863 C 268.981 14.422,267.710 13.943,266.600 13.786 C 265.472 13.628,264.209 13.147,263.703 12.685 C 263.096 12.131,262.067 11.805,260.522 11.677 C 258.862 11.539,258.057 11.265,257.578 10.674 C 257.081 10.060,256.307 9.815,254.427 9.679 C 252.489 9.539,251.725 9.288,250.986 8.550 C 250.231 7.795,249.612 7.600,247.965 7.600 C 246.570 7.600,245.458 7.330,244.556 6.773 C 243.602 6.183,242.033 5.830,239.108 5.545 C 236.615 5.303,234.357 4.840,233.363 4.368 C 232.140 3.786,230.446 3.525,226.663 3.333 C 223.878 3.192,221.600 2.924,221.600 2.738 C 221.600 2.552,220.599 2.400,219.376 2.400 C 217.996 2.400,217.247 2.552,217.400 2.800 C 217.536 3.020,217.377 3.200,217.047 3.200 C 216.302 3.200,215.755 2.410,216.476 2.375 C 216.764 2.361,216.550 2.157,216.000 1.923 C 214.766 1.397,188.127 1.149,181.800 1.605 M212.820 25.212 C 215.779 25.439,219.100 25.802,220.200 26.019 C 221.300 26.235,224.450 26.765,227.200 27.195 C 232.376 28.005,234.224 28.412,242.000 30.450 C 248.882 32.253,259.172 35.631,260.588 36.551 C 261.035 36.841,262.120 37.309,263.000 37.591 C 263.880 37.873,265.050 38.340,265.600 38.629 C 266.150 38.918,268.130 39.817,270.000 40.627 C 271.870 41.437,273.940 42.414,274.600 42.798 C 275.260 43.182,277.780 44.529,280.200 45.790 C 287.782 49.744,298.189 56.434,303.800 60.963 C 313.672 68.930,321.169 76.181,328.856 85.200 C 330.075 86.630,331.966 88.970,333.058 90.400 C 334.151 91.830,335.940 94.170,337.035 95.600 C 339.583 98.929,344.641 106.644,346.475 110.000 C 350.156 116.735,352.918 122.242,354.617 126.235 C 355.638 128.636,356.719 131.140,357.020 131.800 C 357.899 133.728,359.530 138.265,361.045 143.000 C 361.820 145.420,362.721 148.210,363.047 149.200 C 364.269 152.902,365.632 158.338,366.410 162.600 C 366.851 165.020,367.380 167.540,367.586 168.200 C 370.430 177.330,370.300 217.230,367.396 226.800 C 367.095 227.790,366.653 229.925,366.414 231.544 C 365.651 236.709,360.985 252.422,358.231 259.100 C 353.257 271.162,352.754 272.226,347.732 281.326 C 341.127 293.294,334.283 302.814,325.060 312.865 C 307.939 331.524,289.090 345.102,267.000 354.692 C 259.909 357.770,255.542 359.499,252.400 360.472 C 250.970 360.915,248.360 361.725,246.600 362.272 C 244.840 362.820,242.410 363.527,241.200 363.844 C 239.990 364.160,237.740 364.767,236.200 365.191 C 234.660 365.616,231.711 366.245,229.647 366.591 C 227.583 366.936,225.719 367.327,225.504 367.459 C 221.476 369.949,178.960 369.901,169.200 367.396 C 167.990 367.085,165.740 366.644,164.200 366.414 C 162.660 366.184,160.050 365.638,158.400 365.199 C 156.750 364.761,154.410 364.147,153.200 363.835 C 151.172 363.312,148.958 362.645,142.000 360.461 C 138.787 359.453,134.326 357.797,132.200 356.825 C 131.320 356.422,128.980 355.415,127.000 354.587 C 120.508 351.873,106.664 344.425,102.355 341.329 C 101.228 340.520,99.348 339.215,98.176 338.429 C 76.043 323.586,56.776 301.056,43.235 274.185 C 41.236 270.217,39.600 266.817,39.600 266.629 C 39.600 266.441,39.249 265.548,38.820 264.644 C 37.368 261.586,35.664 257.407,35.377 256.200 C 35.220 255.540,34.841 254.550,34.535 254.000 C 33.739 252.569,30.874 242.604,29.590 236.800 C 29.177 234.930,28.573 232.410,28.249 231.200 C 27.925 229.990,27.458 227.380,27.213 225.400 C 26.967 223.420,26.463 220.270,26.092 218.400 C 24.928 212.518,25.092 182.123,26.330 174.400 C 27.684 165.956,29.644 156.187,30.365 154.291 C 30.597 153.682,31.047 152.063,31.365 150.692 C 32.152 147.307,35.387 137.679,36.773 134.600 C 37.168 133.720,37.922 131.934,38.446 130.631 C 44.887 114.634,59.675 91.441,69.976 81.180 C 70.539 80.619,72.187 78.909,73.639 77.380 C 76.870 73.976,82.271 68.820,85.143 66.400 C 86.318 65.410,88.219 63.790,89.368 62.800 C 97.496 55.798,121.201 41.450,128.000 39.418 C 128.910 39.146,130.406 38.499,135.000 36.390 C 135.880 35.986,137.140 35.527,137.800 35.371 C 138.460 35.215,139.638 34.767,140.417 34.377 C 141.979 33.596,143.937 33.010,155.600 29.838 C 159.448 28.791,166.523 27.283,168.800 27.024 C 170.010 26.886,172.440 26.502,174.200 26.169 C 181.028 24.881,201.784 24.367,212.820 25.212 M183.000 44.391 C 166.217 46.607,159.976 47.985,147.200 52.296 C 135.597 56.211,127.196 60.284,114.528 68.139 C 111.296 70.143,110.652 70.585,106.600 73.579 C 92.243 84.185,75.826 101.726,68.200 114.608 C 67.100 116.466,65.102 119.835,63.759 122.093 C 59.477 129.299,55.231 138.826,52.213 148.000 C 50.421 153.449,48.000 161.918,48.000 162.737 C 48.000 163.056,47.645 164.865,47.210 166.758 C 44.556 178.320,43.216 202.814,44.733 212.000 C 44.970 213.430,45.453 216.940,45.808 219.800 C 46.162 222.660,46.788 226.440,47.197 228.200 C 47.607 229.960,48.065 232.030,48.215 232.800 C 49.622 240.022,54.558 254.111,58.833 263.108 C 59.915 265.385,60.800 267.328,60.800 267.427 C 60.800 267.954,69.726 282.338,72.303 285.965 C 83.501 301.719,98.650 316.097,115.986 327.427 C 121.971 331.338,133.933 337.742,138.241 339.342 C 139.099 339.661,141.240 340.486,143.000 341.177 C 168.987 351.376,199.658 354.061,227.400 348.566 C 239.482 346.173,246.063 344.192,258.000 339.356 C 264.239 336.828,280.260 327.978,283.026 325.531 C 283.480 325.129,283.974 324.800,284.124 324.800 C 284.417 324.800,288.193 322.151,292.406 318.990 C 303.015 311.030,319.392 293.555,325.056 284.151 C 325.465 283.472,326.442 281.945,327.227 280.758 C 331.355 274.514,337.692 262.744,339.373 258.200 C 339.780 257.100,340.268 256.000,340.458 255.756 C 341.138 254.885,344.849 244.045,346.177 239.053 C 353.571 211.245,353.572 184.036,346.180 156.147 C 344.780 150.866,341.769 142.339,339.975 138.574 C 339.549 137.679,339.200 136.803,339.200 136.627 C 339.200 136.258,334.846 127.535,332.597 123.400 C 330.077 118.765,323.115 108.168,320.135 104.432 C 318.981 102.985,317.469 101.080,316.777 100.200 C 312.611 94.902,299.245 81.815,293.251 77.164 C 270.208 59.286,248.109 49.741,219.600 45.352 C 212.195 44.211,188.976 43.602,183.000 44.391 M181.202 110.401 C 182.065 110.842,184.353 112.507,186.286 114.101 C 188.219 115.696,190.520 117.528,191.400 118.173 C 192.280 118.818,194.170 120.298,195.600 121.462 C 203.089 127.555,216.535 138.006,216.938 138.046 C 217.192 138.072,221.990 138.062,227.600 138.023 C 241.913 137.926,255.313 139.091,263.800 141.171 C 270.690 142.859,271.908 143.184,275.000 144.150 C 296.844 150.977,311.900 163.035,317.267 178.000 C 318.772 182.194,318.655 193.026,317.045 198.600 C 313.702 210.179,304.317 223.438,292.600 233.136 C 290.840 234.593,289.310 235.883,289.200 236.004 C 286.484 238.974,271.551 248.337,262.400 252.807 C 251.684 258.042,250.822 258.429,245.400 260.446 C 243.640 261.101,241.300 261.983,240.200 262.406 C 234.593 264.563,227.691 266.710,220.864 268.419 C 213.816 270.184,213.629 270.456,215.200 276.600 C 216.209 280.547,216.275 284.209,215.344 284.566 C 214.522 284.882,214.026 284.553,207.730 279.519 C 204.908 277.263,201.321 274.423,199.758 273.208 C 193.565 268.397,183.545 260.436,182.200 259.259 C 181.760 258.873,180.770 258.118,180.000 257.579 L 178.600 256.600 166.400 256.600 C 155.214 256.600,147.812 256.198,140.800 255.209 C 138.487 254.882,136.118 254.452,130.000 253.246 C 101.411 247.610,79.068 229.993,77.181 211.599 C 76.697 206.884,77.280 198.717,78.265 196.420 C 78.600 195.639,79.146 194.104,79.479 193.010 C 83.555 179.612,98.163 163.198,116.477 151.439 C 119.185 149.701,121.850 147.975,122.400 147.604 C 124.216 146.379,133.088 141.600,135.869 140.350 C 137.371 139.674,139.860 138.532,141.400 137.811 C 149.866 133.849,160.588 130.083,172.200 126.991 C 180.635 124.746,180.310 124.870,180.685 123.746 C 181.040 122.681,180.620 119.629,179.400 114.400 C 178.271 109.564,178.513 109.029,181.202 110.401 M226.068 158.814 C 220.421 159.148,219.522 159.656,217.429 163.690 C 216.860 164.787,215.440 167.151,214.273 168.943 C 211.811 172.724,205.120 183.771,203.699 186.400 C 198.090 196.776,196.661 196.521,194.596 184.775 C 193.698 179.670,192.106 179.085,185.400 181.397 C 184.520 181.701,183.080 182.063,182.200 182.201 C 178.890 182.724,158.507 189.608,153.800 191.793 C 153.140 192.100,150.080 193.482,147.000 194.865 C 115.629 208.955,107.545 225.842,128.800 232.885 C 136.972 235.593,142.282 236.188,158.200 236.184 C 175.833 236.178,174.573 236.615,179.243 228.895 C 180.209 227.298,181.489 225.228,182.086 224.295 C 182.684 223.363,183.563 221.880,184.040 221.000 C 184.517 220.120,185.039 219.310,185.200 219.200 C 185.361 219.090,185.885 218.280,186.365 217.400 C 189.713 211.260,195.543 202.198,196.741 201.271 L 197.943 200.341 198.584 201.320 C 198.937 201.859,199.676 204.167,200.225 206.450 C 202.429 215.600,202.031 215.252,208.419 213.604 C 220.781 210.416,226.906 208.538,235.223 205.385 C 237.300 204.598,239.720 203.721,240.600 203.436 C 243.804 202.399,258.767 195.134,261.469 193.303 C 262.091 192.882,263.664 191.834,264.965 190.975 C 266.265 190.116,267.527 189.230,267.769 189.007 C 268.011 188.783,269.013 187.888,269.997 187.017 C 290.898 168.520,271.577 156.116,226.068 158.814 " stroke="none" fill="#4da3f0" fill-rule="evenodd"></path></g></svg>