<svg width="600" height="600" viewBox="0 0 600 600" fill="none" xmlns="http://www.w3.org/2000/svg">
<circle cx="300" cy="300" r="300" fill="#ECFAF6"/>
<path fill-rule="evenodd" clip-rule="evenodd" d="M300 598.125C464.65 598.125 598.125 464.65 598.125 300C598.125 135.35 464.65 1.875 300 1.875C135.35 1.875 1.875 135.35 1.875 300C1.875 464.65 135.35 598.125 300 598.125ZM300 600C465.685 600 600 465.685 600 300C600 134.315 465.685 0 300 0C134.315 0 0 134.315 0 300C0 465.685 134.315 600 300 600Z" fill="#00D9A1"/>
<circle cx="300" cy="300" r="281.25" fill="#00D9A1"/>
<path fill-rule="evenodd" clip-rule="evenodd" d="M300 575.625C452.223 575.625 575.625 452.223 575.625 300C575.625 147.777 452.223 24.375 300 24.375C147.777 24.375 24.375 147.777 24.375 300C24.375 452.223 147.777 575.625 300 575.625ZM300 581.25C455.33 581.25 581.25 455.33 581.25 300C581.25 144.67 455.33 18.75 300 18.75C144.67 18.75 18.75 144.67 18.75 300C18.75 455.33 144.67 581.25 300 581.25Z" fill="white"/>
<path fill-rule="evenodd" clip-rule="evenodd" d="M141.633 140.039C164.388 140.039 182.835 158.486 182.835 181.241V322.249C182.835 387.104 235.41 439.68 300.265 439.68C365.12 439.68 417.695 387.104 417.695 322.249V181.241C417.695 158.486 436.142 140.039 458.897 140.039V140.039V322.249C458.897 409.859 387.875 480.881 300.265 480.881C212.655 480.881 141.633 409.859 141.633 322.249V140.039V140.039Z" fill="white"/>
<path fill-rule="evenodd" clip-rule="evenodd" d="M212.468 206.911C231.226 206.911 246.433 222.118 246.433 240.877V246.487C261.287 234.951 279.946 228.082 300.209 228.082C348.668 228.082 387.952 267.366 387.953 315.825H387.954C387.954 364.285 348.67 403.569 300.21 403.569C251.751 403.569 212.467 364.285 212.466 315.826H212.465C212.465 314.898 212.479 313.974 212.508 313.053H212.468L212.468 206.911ZM246.43 315.825H246.432C246.432 345.526 270.509 369.604 300.21 369.604C329.911 369.604 353.988 345.527 353.989 315.826H353.988C353.988 286.125 329.91 262.048 300.209 262.048C270.508 262.048 246.431 286.124 246.43 315.825Z" fill="white"/>
<path d="M389.626 195.325C389.626 206.491 380.575 215.543 369.409 215.543C358.243 215.543 349.191 206.491 349.191 195.325C349.191 184.159 358.243 175.107 369.409 175.107C380.575 175.107 389.626 184.159 389.626 195.325Z" fill="white"/>
</svg>
