<svg width="424" height="424" viewBox="0 0 424 424" fill="none" xmlns="http://www.w3.org/2000/svg">
<circle cx="215" cy="211.51" r="202" fill="url(#paint0_linear)"/>
<path d="M297 111.584L274.062 88.5098H200.016V237.488H162.993V110.819H133V244.549L155.938 267.51H207.071L229.349 245.209H274.062L297 222.249V175.09L288.863 167.14L297 158.996V111.584ZM230.009 118.532H267.015V151.926H230.009V118.532ZM267.146 215.187H230.009V181.793H267.146V215.187Z" fill="white"/>
<path d="M104.086 331.308C102.029 329.19 101 325.893 101 321.418V301.51H105.638V321.882C105.638 324.903 106.273 327.104 107.541 328.483C108.81 329.863 110.811 330.552 113.543 330.552C116.269 330.552 118.27 329.863 119.544 328.483C120.819 327.104 121.453 324.903 121.448 321.882V301.51H126V321.418C126 325.905 124.997 329.207 122.991 331.325C120.985 333.442 117.841 334.504 113.56 334.51C109.245 334.498 106.087 333.431 104.086 331.308Z" fill="white"/>
<path d="M153.57 301.51H158V334.51H153.242L136.421 308.714V334.51H132V301.51H136.767L153.579 327.306L153.57 301.51Z" fill="white"/>
<path d="M165 334.51V301.51H170V334.51H165Z" fill="white"/>
<path d="M197.346 320.141C198.49 321.62 199.073 323.458 198.993 325.327C199.059 327.132 198.54 328.909 197.516 330.394C196.309 331.895 194.656 332.969 192.797 333.46C190.035 334.229 187.174 334.579 184.309 334.498C181.531 334.488 178.756 334.306 176 333.953V302.446C179.073 301.82 182.201 301.506 185.336 301.51C189.755 301.51 192.989 302.222 195.037 303.647C197.086 305.072 198.107 307.263 198.101 310.221C198.147 311.873 197.665 313.496 196.726 314.853C195.704 316.203 194.23 317.137 192.576 317.485C194.432 317.77 196.124 318.712 197.346 320.141V320.141ZM180.507 305.521V315.841H186.338C188.943 315.841 190.828 315.398 191.982 314.53C192.569 314.039 193.03 313.414 193.325 312.707C193.621 312 193.742 311.232 193.679 310.468C193.735 309.377 193.463 308.294 192.899 307.36C192.272 306.514 191.372 305.912 190.352 305.657C188.856 305.237 187.305 305.047 185.752 305.095C183.995 305.08 182.239 305.223 180.507 305.521ZM190.887 330.326C192.042 330.042 193.066 329.373 193.79 328.427C194.402 327.451 194.698 326.309 194.639 325.157C194.706 324.34 194.572 323.52 194.25 322.767C193.927 322.014 193.425 321.353 192.788 320.84C191.555 319.92 189.605 319.46 186.94 319.46H180.481V330.675C182.097 330.878 183.725 330.975 185.353 330.965C187.219 331.025 189.084 330.81 190.887 330.326V330.326Z" fill="white"/>
<path d="M223.828 334.51L214.241 321.47C213.948 321.47 213.5 321.47 212.897 321.47C211.69 321.47 210.276 321.418 208.655 321.315V334.484H204V302.457C207.016 301.839 210.085 301.522 213.164 301.51C217.629 301.51 220.948 302.316 223.121 303.928C225.293 305.541 226.379 308.037 226.379 311.417C226.472 313.589 225.791 315.724 224.457 317.442C222.973 319.136 220.98 320.308 218.776 320.781L229 334.51H223.828ZM208.655 317.657C210.233 317.786 211.664 317.855 212.966 317.855C216.095 317.855 218.397 317.338 219.862 316.314C221.328 315.29 222.034 313.663 222.034 311.46C222.097 310.186 221.798 308.922 221.172 307.81C220.526 306.832 219.561 306.108 218.44 305.762C216.893 305.277 215.275 305.056 213.655 305.108C212.792 305.101 211.929 305.138 211.069 305.219C210.319 305.288 209.509 305.4 208.655 305.547V317.657Z" fill="white"/>
<path d="M233 334.51V301.51H238V334.51H233Z" fill="white"/>
<path d="M268 318.533V333.854C265.487 334.277 262.943 334.496 260.394 334.51C254.578 334.51 250.223 333.179 247.327 330.518C244.431 327.856 242.989 323.725 243 318.125C243 312.496 244.442 308.319 247.327 305.595C250.211 302.872 254.368 301.51 259.796 301.51C262.286 301.512 264.765 301.818 267.178 302.421V306.37C264.887 305.761 262.524 305.452 260.151 305.451C257.834 305.376 255.53 305.807 253.402 306.71C251.592 307.561 250.134 308.997 249.274 310.779C248.244 313.106 247.762 315.631 247.863 318.167C247.771 320.615 248.235 323.052 249.222 325.3C250.058 327.074 251.496 328.507 253.289 329.352C255.423 330.279 257.742 330.718 260.073 330.637C261.258 330.638 262.443 330.579 263.621 330.458V318.542L268 318.533Z" fill="white"/>
<path d="M274 334.51V301.51H278.786V315.491H295.222V301.51H300V334.51H295.222V319.719H278.786V334.51H274Z" fill="white"/>
<path d="M313.659 334.51V305.547H303V301.51H329V305.547H318.315V334.51H313.659Z" fill="white"/>
<defs>
<linearGradient id="paint0_linear" x1="12.9999" y1="413.511" x2="417" y2="9.5108" gradientUnits="userSpaceOnUse">
<stop stop-color="#E71D73"/>
<stop offset="0.3" stop-color="#2D2E83"/>
<stop offset="0.64" stop-color="#00A19A"/>
<stop offset="0.9" stop-color="#95C11F"/>
<stop offset="1" stop-color="#FCEA10"/>
</linearGradient>
</defs>
</svg>
