<svg width="109" height="109" viewBox="0 0 109 109" fill="none" xmlns="http://www.w3.org/2000/svg">
<circle cx="54.2426" cy="54.2426" r="54.2426" fill="url(#paint0_linear)"/>
<path d="M66.7616 81.9201C65.6124 80.6396 64.0609 80 62.1058 80C60.9567 80 59.9379 80.2338 59.0508 80.7002C58.1794 81.1584 57.4841 81.7548 56.9629 82.4911V80.149H56.9345H51.0078H51.0054V89.11C51.0054 90.0633 50.7532 90.812 50.25 91.3584C49.7456 91.9047 49.0602 92.1773 48.194 92.1773C47.3475 92.1773 46.6671 91.9047 46.1528 91.3584C45.6385 90.812 45.3814 90.0633 45.3814 89.11V80.149H39.4854V89.855C39.4854 92.0574 40.055 93.7994 41.1931 95.0799C42.3325 96.3592 43.8901 97 45.8649 97C47.0141 97 48.0328 96.7662 48.92 96.2998C49.8058 95.8346 50.5022 95.2241 51.0054 94.4693V96.851H51.0078H56.9345H56.9629V87.3612C57.0415 86.6555 57.2841 86.0826 57.6912 85.6416C58.1945 85.0965 58.8896 84.8227 59.7767 84.8227C60.6232 84.8227 61.2987 85.0965 61.8032 85.6416C62.3064 86.188 62.5587 86.9367 62.5587 87.89V96.851H68.4854V87.116C68.4854 84.9329 67.9108 83.2006 66.7616 81.9201Z" fill="white"/>
<path fill-rule="evenodd" clip-rule="evenodd" d="M91.9062 78.373C96.3754 71.4115 98.9674 63.1298 98.9674 54.2428C98.9674 29.5411 78.9427 9.51639 54.241 9.51639C29.5393 9.51639 9.51465 29.5411 9.51465 54.2428C9.51465 63.2076 12.1522 71.5564 16.6936 78.5555C26.0244 73.9147 39.5001 71 54.4854 71C69.2732 71 82.591 73.8384 91.9062 78.373Z" fill="white"/>
<path d="M76.987 37.6815H72.3691C69.8268 30.7515 62.9909 26 53.9758 26H39.1496V37.6815H34V41.8726H39.1496V46.2675H34V50.4586H39.1496V62H53.9758C62.8871 62 69.6712 57.2866 72.2784 50.4586H76.987V46.2675H73.3161C73.4069 45.5287 73.4588 44.7643 73.4588 44V43.898C73.4588 43.2101 73.4198 42.535 73.355 41.8726H77V37.6815H76.987ZM43.3005 29.7325H53.9758C60.5912 29.7325 65.5074 32.9299 67.7774 37.6687H43.3005V29.7325ZM53.9758 58.2292H43.3005V50.4458H67.7514C65.4684 55.1083 60.5653 58.2292 53.9758 58.2292ZM69.1653 44.0891C69.1653 44.828 69.1134 45.5541 69.0096 46.2548H43.3005V41.8599H69.0226C69.1134 42.5478 69.1653 43.2611 69.1653 43.9872V44.0891Z" fill="#2C2C2C"/>
<defs>
<linearGradient id="paint0_linear" x1="26.2464" y1="-5.59633e-07" x2="108.634" y2="19.0844" gradientUnits="userSpaceOnUse">
<stop stop-color="#2E73FF"/>
<stop offset="0.894147" stop-color="#184CE8"/>
</linearGradient>
</defs>
</svg>
