<svg xmlns="http://www.w3.org/2000/svg" width="256" height="256.002" viewBox="0 0 256 256.002"><defs><style>.cls-2,.cls-3{fill:#ff007a}.cls-3{fill-rule:evenodd}</style></defs><g id="Group_33854" transform="translate(0 .002)"><circle id="Ellipse_1587" cx="128" cy="128" r="128" fill="#fff"/><path id="Subtraction_259" d="M1535 18716a128.768 128.768 0 01-25.8-2.6 127.9 127.9 0 01-64.714-34.889 128.2 128.2 0 01-27.431-40.686 127.329 127.329 0 01-7.458-24.027 129.254 129.254 0 010-51.594 127.328 127.328 0 0119.259-45.77 128.353 128.353 0 0156.316-46.375 127.1 127.1 0 0124.027-7.459 129.2 129.2 0 0151.594 0 127.324 127.324 0 0145.768 19.26 128.364 128.364 0 0146.373 56.318 127.346 127.346 0 017.458 24.025 129.254 129.254 0 010 51.594 127.294 127.294 0 01-19.259 45.77 128.4 128.4 0 01-56.314 46.375 127.357 127.357 0 01-24.026 7.457A128.755 128.755 0 011535 18716zm0-253a125.941 125.941 0 00-25.193 2.539 124.3 124.3 0 00-44.7 18.809 125.357 125.357 0 00-45.29 55 124.377 124.377 0 00-7.284 23.463 126.218 126.218 0 000 50.385 124.312 124.312 0 0018.809 44.7 125.343 125.343 0 0055 45.287 124.363 124.363 0 0023.464 7.283 126.243 126.243 0 0050.384 0 124.336 124.336 0 0044.7-18.807 125.375 125.375 0 0045.289-55 124.368 124.368 0 007.284-23.463 126.224 126.224 0 000-50.385 124.338 124.338 0 00-18.809-44.7 125.374 125.374 0 00-55-45.289 124.515 124.515 0 00-23.464-7.283A125.925 125.925 0 001535 18463z" class="cls-2" transform="translate(-1407 -18460)"/><g id="Group_33853" transform="translate(56.436 49.154)"><path id="Path_10841" d="M96.369 60.255c-2.016-.313-2.1-.349-1.152-.5a31.3 31.3 0 019.068.8c6.9 1.641 13.188 5.846 19.9 13.314l1.782 1.984 2.549-.41a53.781 53.781 0 0130.8 3.867 39.86 39.86 0 016.972 4.067 10.821 10.821 0 01.643 2.708c.679 4.5.339 7.947-1.036 10.523-.749 1.4-.791 1.846-.288 3.045a2.945 2.945 0 002.632 1.665c2.271 0 4.715-3.674 5.848-8.781l.449-2.029.892 1.009c4.888 5.538 8.727 13.09 9.387 18.466l.172 1.4-.821-1.274a15.737 15.737 0 00-4.654-4.89c-3.28-2.17-6.747-2.909-15.931-3.393-8.294-.437-12.988-1.145-17.643-2.663-7.919-2.582-11.911-6.021-21.319-18.363a89.9 89.9 0 00-9.33-10.958c-5.841-5.542-11.577-8.448-18.92-9.587z" class="cls-2" transform="translate(-53.643 -50.746)"/><path id="Path_10842" d="M170.426 72.6a22.318 22.318 0 011.708-8.309 8.971 8.971 0 01.825-1.593 5.433 5.433 0 01-.383 1.436 18.864 18.864 0 00-.346 8.5c.636 4.336 1 4.962 5.582 9.646 2.149 2.2 4.65 4.968 5.557 6.157l1.648 2.163-1.648-1.546a70.186 70.186 0 00-7.675-6.1c-.686-.353-.788-.347-1.212.074-.39.388-.472.972-.527 3.731-.084 4.3-.67 7.06-2.085 9.819-.764 1.493-.886 1.174-.193-.511.517-1.258.57-1.811.566-5.973-.009-8.364-1-10.374-6.824-13.819-1.476-.873-3.906-2.131-5.4-2.8a20.417 20.417 0 01-2.64-1.289 56.254 56.254 0 018.129 2.373c3.4 1.308 3.961 1.477 4.374 1.319.275-.098.409-.904.544-3.278z" class="cls-2" transform="translate(-55.912 -50.858)"/><path id="Path_10843" d="M100.266 86.968c-4.092-5.634-6.624-14.268-6.076-20.729l.169-2 .931.17a23.376 23.376 0 016.178 2.3c3.876 2.354 5.553 5.453 7.26 13.41.5 2.331 1.157 4.968 1.458 5.861A39.608 39.608 0 00114 92.957c1.076 1.57.361 2.314-2.015 2.1-3.629-.328-8.547-3.722-11.719-8.089z" class="cls-2" transform="translate(-53.624 -50.912)"/><path id="Path_10844" d="M164.8 130.247c-19.123-7.7-25.858-14.383-25.858-25.66a18.248 18.248 0 01.126-3.017 14.5 14.5 0 011.644 1.217c3.877 3.11 8.22 4.438 20.242 6.193 7.074 1.031 11.054 1.865 14.727 3.083 11.672 3.871 18.893 11.727 20.615 22.426a37 37 0 01-.6 12.012c-.641 2.427-2.6 6.8-3.113 6.969-.144.047-.285-.5-.322-1.254a15.5 15.5 0 00-5.636-10.859c-3.886-3.33-9.094-5.983-21.825-11.11z" class="cls-2" transform="translate(-55.245 -52.263)"/><path id="Path_10845" d="M150.306 134.436a34.074 34.074 0 00-.923-4.046l-.489-1.454.907 1.018a16.3 16.3 0 013.085 5.608c.641 1.831.713 2.376.708 5.351 0 2.921-.085 3.534-.678 5.182a16.373 16.373 0 01-4.036 6.42c-3.493 3.556-7.984 5.524-14.465 6.34-1.127.142-4.41.381-7.3.531-7.275.379-12.063 1.16-16.365 2.671a3.455 3.455 0 01-1.227.293c-.174-.172 2.755-1.919 5.175-3.084 3.411-1.643 6.807-2.541 14.416-3.807 3.759-.626 7.64-1.386 8.626-1.689 9.312-2.854 14.098-10.219 12.566-19.334z" class="cls-2" transform="translate(-54.181 -53.252)"/><path id="Path_10846" d="M160.839 150.172c-2.541-5.462-3.124-10.735-1.732-15.653.148-.525.388-.956.532-.956a5.157 5.157 0 011.333.721c1.17.787 3.519 2.116 9.775 5.527 7.806 4.256 12.257 7.552 15.284 11.317a24.612 24.612 0 015.08 11.633 39.625 39.625 0 01-.48 11.449 28.425 28.425 0 01-13.931 18.482 18.233 18.233 0 01-2.034 1.009 7.519 7.519 0 01.825-2.1 18.882 18.882 0 00.838-14.95c-1.083-3.243-3.292-7.2-7.753-13.891-5.189-7.776-6.461-9.845-7.737-12.588z" class="cls-2" transform="translate(-55.948 -53.419)"/><path id="Path_10847" d="M86.327 180.926c7.1-5.992 15.927-10.248 23.97-11.555a37.408 37.408 0 0112.451.482c5.145 1.317 9.747 4.266 12.141 7.78 2.339 3.434 3.343 6.427 4.387 13.085.413 2.626.861 5.264 1 5.861.785 3.451 2.311 6.21 4.2 7.595 3.005 2.2 8.181 2.336 13.272.351a6.589 6.589 0 011.666-.518c.185.183-2.379 1.9-4.187 2.8a14.235 14.235 0 01-6.941 1.686c-4.663 0-8.534-2.372-11.764-7.209a57.455 57.455 0 01-3.175-6.335c-3.41-7.779-5.095-10.148-9.054-12.742a11.676 11.676 0 00-11.234-1.022 7.278 7.278 0 00-2.471 11.323 9.749 9.749 0 005.488 2.869 5.859 5.859 0 006.631-5.87c0-2.338-.9-3.672-3.161-4.694-3.089-1.394-6.41.236-6.395 3.138a2.6 2.6 0 001.787 2.576c.8.361.814.389.165.254-2.835-.588-3.5-4.006-1.219-6.275 2.736-2.724 8.4-1.522 10.339 2.2a9.6 9.6 0 01.2 6.55c-1.593 4.2-6.238 6.414-10.95 5.211-3.208-.819-4.515-1.706-8.382-5.69-6.721-6.923-9.33-8.265-19.019-9.777l-1.857-.29z" class="cls-2" transform="translate(-53.266 -54.705)"/><path id="Path_10848" d="M50.52 42.742c22.445 27.242 33.526 36.65 35.244 39.024 1.418 1.961.885 3.723-1.545 5.1a14.735 14.735 0 01-5.519 1.553 7.074 7.074 0 01-4.636-1.983c-.912-.865-4.594-6.363-13.094-19.552-6.5-10.092-11.946-18.463-12.095-18.6-.343-.324-.337-.313 11.432 20.745 7.39 13.223 9.885 17.9 9.885 18.523 0 1.271-.347 1.94-1.916 3.69-2.615 2.918-3.784 6.2-4.628 12.98-.946 7.6-3.606 12.976-10.978 22.17-4.315 5.382-5.022 6.369-6.11 8.538a15.752 15.752 0 00-1.9 7.712 24 24 0 001.267 9.49 33.98 33.98 0 004.6 9.1c2.246 3.479 3.54 6.064 3.54 7.076 0 .8.154.806 3.635.019 8.33-1.88 15.095-5.189 18.9-9.244 2.354-2.51 2.907-3.895 2.925-7.335.012-2.249-.067-2.72-.675-4.014-.99-2.106-2.792-3.857-6.763-6.572-5.2-3.557-7.426-6.421-8.04-10.359-.5-3.232.081-5.512 2.959-11.546 2.98-6.245 3.718-8.907 4.218-15.2.323-4.066.769-5.671 1.938-6.958 1.219-1.343 2.316-1.8 5.332-2.209 4.917-.672 8.048-1.944 10.622-4.316a9.222 9.222 0 003.311-7.024l.109-2.262-1.248-1.455C86.761 74.561 47.494 38.6 47.216 38.6c-.059 0 1.428 1.865 3.304 4.142zm6.08 104.022a4 4 0 00-1.23-5.27c-1.615-1.074-4.123-.569-4.123.831 0 .427.236.737.768 1.011.9.461.961.979.256 2.039s-.656 2.016.162 2.657c1.317 1.032 3.185.468 4.167-1.268z" class="cls-3" transform="translate(-44.616 -38.602)"/><path id="Path_10849" d="M104.827 110.031a8.668 8.668 0 00-5.247 5.72c-.424 1.565-.183 4.31.452 5.157 1.026 1.37 2.016 1.73 4.7 1.712 5.257-.037 9.827-2.291 10.358-5.11.436-2.31-1.572-5.512-4.336-6.917a10.284 10.284 0 00-5.927-.562zm6.145 4.8c.811-1.152.456-2.4-.922-3.238-2.626-1.6-6.6-.277-6.6 2.2 0 1.235 2.07 2.582 3.968 2.582a5.126 5.126 0 003.554-1.539z" class="cls-3" transform="translate(-53.814 -52.561)"/></g></g></svg>