<svg width="109" height="109" viewBox="0 0 109 109" fill="none" xmlns="http://www.w3.org/2000/svg">
<circle cx="54.2426" cy="54.2426" r="54.2426" fill="url(#paint0_linear)"/>
<path d="M66.7616 81.9201C65.6124 80.6396 64.0609 80 62.1058 80C60.9567 80 59.9379 80.2338 59.0508 80.7002C58.1794 81.1584 57.4841 81.7548 56.9629 82.4911V80.149H56.9345H51.0078H51.0054V89.11C51.0054 90.0633 50.7532 90.812 50.25 91.3584C49.7456 91.9047 49.0602 92.1773 48.194 92.1773C47.3475 92.1773 46.6671 91.9047 46.1528 91.3584C45.6385 90.812 45.3814 90.0633 45.3814 89.11V80.149H39.4854V89.855C39.4854 92.0574 40.055 93.7994 41.1931 95.0799C42.3325 96.3592 43.8901 97 45.8649 97C47.0141 97 48.0328 96.7662 48.92 96.2998C49.8058 95.8346 50.5022 95.2241 51.0054 94.4693V96.851H51.0078H56.9345H56.9629V87.3612C57.0415 86.6555 57.2841 86.0826 57.6912 85.6416C58.1945 85.0965 58.8896 84.8227 59.7767 84.8227C60.6232 84.8227 61.2987 85.0965 61.8032 85.6416C62.3064 86.188 62.5587 86.9367 62.5587 87.89V96.851H68.4854V87.116C68.4854 84.9329 67.9108 83.2006 66.7616 81.9201Z" fill="white"/>
<path fill-rule="evenodd" clip-rule="evenodd" d="M91.9062 78.373C96.3754 71.4115 98.9674 63.1298 98.9674 54.2428C98.9674 29.5411 78.9427 9.51639 54.241 9.51639C29.5393 9.51639 9.51465 29.5411 9.51465 54.2428C9.51465 63.2076 12.1522 71.5564 16.6936 78.5555C26.0244 73.9147 39.5001 71 54.4854 71C69.2732 71 82.591 73.8384 91.9062 78.373Z" fill="white"/>
<path d="M55 22L50.9788 24.3211L40.0212 30.6789L36 33V55L40.0212 57.3211L51.0794 63.6789L55.1005 66L59.1217 63.6789L69.9788 57.3211L74 55V33L69.9788 30.6789L59.0212 24.3211L55 22ZM44.0423 50.3578V37.6422L55 31.2844L65.9577 37.6422V50.3578L55 56.7156L44.0423 50.3578Z" fill="#2C2C2C"/>
<defs>
<linearGradient id="paint0_linear" x1="26.2464" y1="-5.59633e-07" x2="108.634" y2="19.0844" gradientUnits="userSpaceOnUse">
<stop stop-color="#2E73FF"/>
<stop offset="0.894147" stop-color="#184CE8"/>
</linearGradient>
</defs>
</svg>
