<svg width="109" height="109" viewBox="0 0 109 109" fill="none" xmlns="http://www.w3.org/2000/svg">
<circle cx="54.2426" cy="54.2426" r="54.2426" fill="url(#paint0_linear)"/>
<path d="M66.7616 81.9201C65.6124 80.6396 64.0609 80 62.1058 80C60.9567 80 59.9379 80.2338 59.0508 80.7002C58.1794 81.1584 57.4841 81.7548 56.9629 82.4911V80.149H56.9345H51.0078H51.0054V89.11C51.0054 90.0633 50.7532 90.812 50.25 91.3584C49.7456 91.9047 49.0602 92.1773 48.194 92.1773C47.3475 92.1773 46.6671 91.9047 46.1528 91.3584C45.6385 90.812 45.3814 90.0633 45.3814 89.11V80.149H39.4854V89.855C39.4854 92.0574 40.055 93.7994 41.1931 95.0799C42.3325 96.3592 43.8901 97 45.8649 97C47.0141 97 48.0328 96.7662 48.92 96.2998C49.8058 95.8346 50.5022 95.2241 51.0054 94.4693V96.851H51.0078H56.9345H56.9629V87.3612C57.0415 86.6555 57.2841 86.0826 57.6912 85.6416C58.1945 85.0965 58.8896 84.8227 59.7767 84.8227C60.6232 84.8227 61.2987 85.0965 61.8032 85.6416C62.3064 86.188 62.5587 86.9367 62.5587 87.89V96.851H68.4854V87.116C68.4854 84.9329 67.9108 83.2006 66.7616 81.9201Z" fill="white"/>
<path fill-rule="evenodd" clip-rule="evenodd" d="M91.9062 78.373C96.3754 71.4115 98.9674 63.1298 98.9674 54.2428C98.9674 29.5411 78.9427 9.51639 54.241 9.51639C29.5393 9.51639 9.51465 29.5411 9.51465 54.2428C9.51465 63.2076 12.1522 71.5564 16.6936 78.5555C26.0244 73.9147 39.5001 71 54.4854 71C69.2732 71 82.591 73.8384 91.9062 78.373Z" fill="white"/>
<path fill-rule="evenodd" clip-rule="evenodd" d="M57.8659 46.3519C57.6499 46.3685 56.5344 46.437 54.0459 46.437C52.0666 46.437 50.6613 46.3759 50.1683 46.3519C42.5194 46.0058 36.8101 44.6364 36.8101 42.9967C36.8101 41.3571 42.5194 39.9895 50.1683 39.6378V44.988C50.6685 45.025 52.1008 45.112 54.0801 45.112C56.4552 45.112 57.6445 45.0102 57.8587 44.9898V39.6415C65.4914 39.9913 71.1881 41.3608 71.1881 42.9967C71.1881 44.6327 65.4932 46.0021 57.8587 46.35L57.8659 46.3519ZM57.8659 39.0882V34.3007H68.5179V27H39.5163V34.3007H50.1665V39.0864C41.51 39.4953 35 41.259 35 43.3724C35 45.4858 41.51 47.2476 50.1665 47.6584V63H57.8641V47.6529C66.5008 47.2439 73 45.4821 73 43.3705C73 41.259 66.5062 39.4972 57.8641 39.0864L57.8659 39.0882Z" fill="#2C2C2C"/>
<defs>
<linearGradient id="paint0_linear" x1="26.2464" y1="-5.59633e-07" x2="108.634" y2="19.0844" gradientUnits="userSpaceOnUse">
<stop stop-color="#2E73FF"/>
<stop offset="0.894147" stop-color="#184CE8"/>
</linearGradient>
</defs>
</svg>
