<svg width="109" height="109" viewBox="0 0 109 109" fill="none" xmlns="http://www.w3.org/2000/svg">
<circle cx="54.2426" cy="54.2426" r="54.2426" fill="url(#paint0_linear)"/>
<path d="M66.7616 81.9201C65.6124 80.6396 64.0609 80 62.1058 80C60.9567 80 59.9379 80.2338 59.0508 80.7002C58.1794 81.1584 57.4841 81.7548 56.9629 82.4911V80.149H56.9345H51.0078H51.0054V89.11C51.0054 90.0633 50.7532 90.812 50.25 91.3584C49.7456 91.9047 49.0602 92.1773 48.194 92.1773C47.3475 92.1773 46.6671 91.9047 46.1528 91.3584C45.6385 90.812 45.3814 90.0633 45.3814 89.11V80.149H39.4854V89.855C39.4854 92.0574 40.055 93.7994 41.1931 95.0799C42.3325 96.3592 43.8901 97 45.8649 97C47.0141 97 48.0328 96.7662 48.92 96.2998C49.8058 95.8346 50.5022 95.2241 51.0054 94.4693V96.851H51.0078H56.9345H56.9629V87.3612C57.0415 86.6555 57.2841 86.0826 57.6912 85.6416C58.1945 85.0965 58.8896 84.8227 59.7767 84.8227C60.6232 84.8227 61.2987 85.0965 61.8032 85.6416C62.3064 86.188 62.5587 86.9367 62.5587 87.89V96.851H68.4854V87.116C68.4854 84.9329 67.9108 83.2006 66.7616 81.9201Z" fill="white"/>
<path fill-rule="evenodd" clip-rule="evenodd" d="M91.9062 78.373C96.3754 71.4115 98.9674 63.1298 98.9674 54.2428C98.9674 29.5411 78.9427 9.51639 54.241 9.51639C29.5393 9.51639 9.51465 29.5411 9.51465 54.2428C9.51465 63.2076 12.1522 71.5564 16.6936 78.5555C26.0244 73.9147 39.5001 71 54.4854 71C69.2732 71 82.591 73.8384 91.9062 78.373Z" fill="white"/>
<path d="M61.7769 47.1466C61.7769 42.9496 59.3797 41.5346 54.7427 40.8571C51.3157 40.3295 50.6573 39.4721 50.6573 37.7693C50.6573 36.0665 51.8166 35.0052 54.0337 35.0052C56.0539 35.0052 57.2188 35.7547 57.6971 37.4875C57.7479 37.6772 57.8547 37.8443 58.0017 37.9642C58.1487 38.084 58.328 38.1503 58.5131 38.153H60.2856C60.4015 38.1556 60.5163 38.1309 60.6221 38.0808C60.7279 38.0307 60.8221 37.9563 60.8979 37.8629C60.9736 37.7696 61.0291 37.6596 61.0605 37.5409C61.0918 37.4221 61.0982 37.2974 61.0791 37.1757C60.5164 34.4357 58.7832 32.7868 56.0652 32.2712V29.3812C56.0652 29.1427 55.9762 28.914 55.818 28.7453C55.6597 28.5766 55.445 28.4819 55.2211 28.4819H53.5329C53.309 28.4819 53.0943 28.5766 52.936 28.7453C52.7777 28.914 52.6888 29.1427 52.6888 29.3812V32.1692C49.3124 32.6729 47.1796 35.0472 47.1796 38.093C47.1796 42.0322 49.4306 43.5612 54.135 44.2387C57.337 44.7963 58.2486 45.5338 58.2486 47.4704C58.2486 49.407 56.701 50.7081 54.5177 50.7081C51.5746 50.7081 50.5786 49.3351 50.2465 47.5544C50.2079 47.35 50.1048 47.166 49.9543 47.0328C49.8037 46.8997 49.6149 46.8256 49.4193 46.8229H47.4948C47.38 46.8221 47.2664 46.848 47.1619 46.899C47.0575 46.9499 46.9648 47.0245 46.8903 47.1176C46.8157 47.2107 46.7613 47.32 46.7306 47.438C46.6999 47.5558 46.6937 47.6795 46.7126 47.8001C47.2022 50.7981 49.0085 52.9925 52.6888 53.5201V56.3621C52.6888 56.6006 52.7777 56.8294 52.936 56.998C53.0943 57.1667 53.309 57.2615 53.5329 57.2615H55.2211C55.445 57.2615 55.6597 57.1667 55.818 56.998C55.9762 56.8294 56.0652 56.6006 56.0652 56.3621V53.5201C59.5541 52.9325 61.7769 50.3664 61.7769 47.1466Z" fill="#2C2C2C"/>
<path d="M48.6579 59.1374C45.1482 57.9196 42.1174 55.7059 39.9759 52.7964C37.8344 49.8869 36.6859 46.4222 36.6859 42.8716C36.6859 39.3211 37.8344 35.8563 39.9759 32.9468C42.1174 30.0373 45.1482 27.8237 48.6579 26.6058C48.8829 26.5119 49.0756 26.3599 49.2142 26.167C49.3527 25.9741 49.4315 25.7482 49.4414 25.5149V23.8986C49.456 23.7555 49.4308 23.6113 49.3681 23.4804C49.3055 23.3495 49.2077 23.2366 49.0846 23.1529C48.9615 23.0693 48.8174 23.0179 48.6668 23.0039C48.5163 22.9899 48.3644 23.0139 48.2266 23.0732C43.8068 24.4119 39.9496 27.0515 37.2124 30.6105C34.4752 34.1695 33 38.4634 33 42.8716C33 47.2798 34.4752 51.5738 37.2124 55.1328C39.9496 58.6918 43.8068 61.3314 48.2266 62.67C48.3644 62.7294 48.5163 62.7533 48.6668 62.7393C48.8174 62.7253 48.9615 62.6739 49.0846 62.5903C49.2077 62.5067 49.3055 62.3937 49.3681 62.2629C49.4308 62.132 49.456 61.9877 49.4414 61.8446V60.2284C49.4315 59.9951 49.3527 59.7691 49.2142 59.5762C49.0756 59.3834 48.8829 59.2313 48.6579 59.1374Z" fill="#2C2C2C"/>
<path d="M60.2528 23.0732C60.115 23.0138 59.9632 22.9899 59.8126 23.0039C59.662 23.0179 59.5179 23.0693 59.3948 23.1529C59.2717 23.2366 59.174 23.3495 59.1113 23.4804C59.0487 23.6112 59.0234 23.7555 59.038 23.8986V25.5148C59.048 25.7481 59.1267 25.9741 59.2652 26.167C59.4038 26.3599 59.5965 26.5119 59.8215 26.6057C63.3312 27.8236 66.3621 30.0372 68.5036 32.9468C70.6451 35.8563 71.7936 39.3211 71.7936 42.8716C71.7936 46.4222 70.6451 49.8869 68.5036 52.7964C66.3621 55.7059 63.3312 57.9196 59.8215 59.1374C59.5892 59.2213 59.3895 59.3708 59.2493 59.5659C59.1093 59.761 59.0354 59.9922 59.038 60.2284V61.8445C59.0234 61.9877 59.0487 62.1319 59.1113 62.2628C59.174 62.3937 59.2717 62.5067 59.3948 62.5903C59.5179 62.6739 59.662 62.7253 59.8126 62.7393C59.9632 62.7533 60.115 62.7294 60.2528 62.67C64.6726 61.3313 68.5299 58.6918 71.2671 55.1327C74.0042 51.5737 75.4794 47.2798 75.4794 42.8716C75.4794 38.4634 74.0042 34.1695 71.2671 30.6105C68.5299 27.0515 64.6726 24.4118 60.2528 23.0732Z" fill="#2C2C2C"/>
<defs>
<linearGradient id="paint0_linear" x1="26.2464" y1="-5.59633e-07" x2="108.634" y2="19.0844" gradientUnits="userSpaceOnUse">
<stop stop-color="#2E73FF"/>
<stop offset="0.894147" stop-color="#184CE8"/>
</linearGradient>
</defs>
</svg>
