<svg width="109" height="109" viewBox="0 0 109 109" fill="none" xmlns="http://www.w3.org/2000/svg">
<circle cx="54.2426" cy="54.2426" r="54.2426" fill="url(#paint0_linear)"/>
<path d="M66.7616 81.9201C65.6124 80.6396 64.0609 80 62.1058 80C60.9567 80 59.9379 80.2338 59.0508 80.7002C58.1794 81.1584 57.4841 81.7548 56.9629 82.4911V80.149H56.9345H51.0078H51.0054V89.11C51.0054 90.0633 50.7532 90.812 50.25 91.3584C49.7456 91.9047 49.0602 92.1773 48.194 92.1773C47.3475 92.1773 46.6671 91.9047 46.1528 91.3584C45.6385 90.812 45.3814 90.0633 45.3814 89.11V80.149H39.4854V89.855C39.4854 92.0574 40.055 93.7994 41.1931 95.0799C42.3325 96.3592 43.8901 97 45.8649 97C47.0141 97 48.0328 96.7662 48.92 96.2998C49.8058 95.8346 50.5022 95.2241 51.0054 94.4693V96.851H51.0078H56.9345H56.9629V87.3612C57.0415 86.6555 57.2841 86.0826 57.6912 85.6416C58.1945 85.0965 58.8896 84.8227 59.7767 84.8227C60.6232 84.8227 61.2987 85.0965 61.8032 85.6416C62.3064 86.188 62.5587 86.9367 62.5587 87.89V96.851H68.4854V87.116C68.4854 84.9329 67.9108 83.2006 66.7616 81.9201Z" fill="white"/>
<path fill-rule="evenodd" clip-rule="evenodd" d="M91.9062 78.373C96.3754 71.4115 98.9674 63.1298 98.9674 54.2428C98.9674 29.5411 78.9427 9.51639 54.241 9.51639C29.5393 9.51639 9.51465 29.5411 9.51465 54.2428C9.51465 63.2076 12.1522 71.5564 16.6936 78.5555C26.0244 73.9147 39.5001 71 54.4854 71C69.2732 71 82.591 73.8384 91.9062 78.373Z" fill="white"/>
<path d="M67.9701 29.1234L66.7764 30.3171C69.6247 33.4318 71.2042 37.4997 71.2042 41.7204C71.2042 45.9411 69.6247 50.009 66.7764 53.1237L67.9701 54.3174C71.1376 50.8816 72.8962 46.3796 72.8962 41.7065C72.8962 37.0334 71.1376 32.5314 67.9701 29.0956V29.1234Z" fill="#2C2C2C"/>
<path d="M42.8672 29.2269C45.982 26.3786 50.0499 24.7991 54.2706 24.7991C58.4912 24.7991 62.5591 26.3786 65.6739 29.2269L66.8675 28.0332C63.4317 24.8657 58.9297 23.1071 54.2566 23.1071C49.5835 23.1071 45.0815 24.8657 41.6457 28.0332L42.8672 29.2269Z" fill="#2C2C2C"/>
<path d="M41.7522 53.1357C38.9074 50.0216 37.3299 45.9562 37.3299 41.7383C37.3299 37.5204 38.9074 33.455 41.7522 30.341L40.5586 29.1473C37.391 32.5831 35.6324 37.0851 35.6324 41.7582C35.6324 46.4313 37.391 50.9333 40.5586 54.3691L41.7522 53.1357Z" fill="#2C2C2C"/>
<path d="M65.6615 54.2378C62.5468 57.086 58.4789 58.6655 54.2582 58.6655C50.0375 58.6655 45.9696 57.086 42.8549 54.2378L41.6612 55.4315C45.097 58.599 49.599 60.3576 54.2721 60.3576C58.9452 60.3576 63.4472 58.599 66.883 55.4315L65.6615 54.2378Z" fill="#2C2C2C"/>
<path d="M61.7935 37.7535C61.5547 35.2628 59.4062 34.4273 56.6886 34.1726V30.7429H54.5878V34.1089C54.0348 34.1089 53.4698 34.1089 52.9088 34.1089V30.7429H50.8238V34.1965H46.5625V36.4445C46.5625 36.4445 48.1143 36.4167 48.0904 36.4445C48.3702 36.4137 48.651 36.4928 48.8737 36.665C49.0963 36.8372 49.2435 37.0891 49.284 37.3676V46.8213C49.2781 46.9195 49.2524 47.0156 49.2087 47.1037C49.165 47.1919 49.104 47.2704 49.0294 47.3346C48.9562 47.4 48.8705 47.4499 48.7775 47.4814C48.6845 47.5128 48.5862 47.5251 48.4883 47.5176C48.5161 47.5415 46.9604 47.5176 46.9604 47.5176L46.5625 50.0282H50.7841V53.5375H52.8849V50.0799H54.5639V53.5216H56.6687V50.0521C60.2179 49.8372 62.6927 48.9619 63.003 45.6396C63.2537 42.9658 61.9964 41.7722 59.9871 41.2907C61.2086 40.6899 61.9646 39.5759 61.7935 37.7535ZM58.8491 45.2258C58.8491 47.8359 54.3769 47.5375 52.9525 47.5375V42.9061C54.3769 42.9101 58.8491 42.5003 58.8491 45.2258ZM57.8743 38.7005C57.8743 41.0878 54.1422 40.7973 52.9565 40.7973V36.5878C54.1422 36.5878 57.8743 36.2137 57.8743 38.7005Z" fill="#2C2C2C"/>
<path d="M54.2597 63.4726C49.961 63.4718 45.759 62.1965 42.1851 59.8077C38.6112 57.419 35.8258 54.0242 34.1811 50.0526C32.5365 46.081 32.1064 41.7108 32.9452 37.4948C33.784 33.2787 35.8541 29.406 38.8938 26.3664C41.9334 23.3268 45.8061 21.2567 50.0221 20.4178C54.2382 19.579 58.6083 20.0091 62.5799 21.6538C66.5516 23.2985 69.9464 26.0839 72.3351 29.6578C74.7238 33.2317 75.9992 37.4336 76 41.7323C76.0005 44.5874 75.4385 47.4147 74.3462 50.0526C73.2538 52.6905 71.6524 55.0873 69.6336 57.1062C67.6147 59.1251 65.2178 60.7264 62.5799 61.8188C59.9421 62.9112 57.1148 63.4731 54.2597 63.4726ZM54.2597 21.695C50.2992 21.6981 46.4287 22.8753 43.1371 25.0777C39.8455 27.2801 37.2808 30.4089 35.767 34.0686C34.2533 37.7283 33.8584 41.7547 34.6324 45.6387C35.4064 49.5228 37.3145 53.0902 40.1155 55.8901C42.9165 58.69 46.4847 60.5967 50.369 61.3691C54.2534 62.1415 58.2796 61.7451 61.9387 60.2299C65.5978 58.7147 68.7256 56.1487 70.9267 52.8562C73.1278 49.5638 74.3034 45.6927 74.305 41.7323C74.306 39.1 73.7882 36.4933 72.7811 34.0613C71.774 31.6292 70.2974 29.4196 68.4357 27.5586C66.574 25.6977 64.3638 24.2219 61.9313 23.2158C59.4989 22.2097 56.892 21.6929 54.2597 21.695Z" fill="#2C2C2C"/>
<defs>
<linearGradient id="paint0_linear" x1="26.2464" y1="-5.59633e-07" x2="108.634" y2="19.0844" gradientUnits="userSpaceOnUse">
<stop stop-color="#2E73FF"/>
<stop offset="0.894147" stop-color="#184CE8"/>
</linearGradient>
</defs>
</svg>
