<svg width="109" height="109" viewBox="0 0 109 109" fill="none" xmlns="http://www.w3.org/2000/svg">
<circle cx="54.2426" cy="54.2426" r="54.2426" fill="url(#paint0_linear)"/>
<path d="M66.7616 81.9201C65.6124 80.6396 64.0609 80 62.1058 80C60.9567 80 59.9379 80.2338 59.0508 80.7002C58.1794 81.1584 57.4841 81.7548 56.9629 82.4911V80.149H56.9345H51.0078H51.0054V89.11C51.0054 90.0633 50.7532 90.812 50.25 91.3584C49.7456 91.9047 49.0602 92.1773 48.194 92.1773C47.3475 92.1773 46.6671 91.9047 46.1528 91.3584C45.6385 90.812 45.3814 90.0633 45.3814 89.11V80.149H39.4854V89.855C39.4854 92.0574 40.055 93.7994 41.1931 95.0799C42.3325 96.3592 43.8901 97 45.8649 97C47.0141 97 48.0328 96.7662 48.92 96.2998C49.8058 95.8346 50.5022 95.2241 51.0054 94.4693V96.851H51.0078H56.9345H56.9629V87.3612C57.0415 86.6555 57.2841 86.0826 57.6912 85.6416C58.1945 85.0965 58.8896 84.8227 59.7767 84.8227C60.6232 84.8227 61.2987 85.0965 61.8032 85.6416C62.3064 86.188 62.5587 86.9367 62.5587 87.89V96.851H68.4854V87.116C68.4854 84.9329 67.9108 83.2006 66.7616 81.9201Z" fill="white"/>
<path fill-rule="evenodd" clip-rule="evenodd" d="M91.9062 78.373C96.3754 71.4115 98.9674 63.1298 98.9674 54.2428C98.9674 29.5411 78.9427 9.51639 54.241 9.51639C29.5393 9.51639 9.51465 29.5411 9.51465 54.2428C9.51465 63.2076 12.1522 71.5564 16.6936 78.5555C26.0244 73.9147 39.5001 71 54.4854 71C69.2732 71 82.591 73.8384 91.9062 78.373Z" fill="white"/>
<path fill-rule="evenodd" clip-rule="evenodd" d="M52.5238 29.0475H55.4844V55.8142H52.5238V29.0475Z" fill="#2C2C2C"/>
<path d="M67.0985 34.3632L63.2632 35.6012C64.0033 33.7307 64.0841 31.6717 64.0841 31.416V31.3756C64.0841 25.6562 59.4278 21 53.7085 21C47.9891 21 43.3328 25.6562 43.3328 31.3756C43.3328 34.8207 45.0285 38.0236 47.8814 39.9614L51.1785 42.3837V38.7099L49.604 37.5526L49.5636 37.5256C47.5181 36.1395 46.2934 33.8383 46.2934 31.3756C46.2934 27.2846 49.6174 23.9606 53.7085 23.9606C57.786 23.9606 61.11 27.2711 61.1235 31.3622C61.0965 31.9274 60.9485 33.4346 60.4775 34.5919L59.2663 30.2587L56.4134 31.0526L58.9568 40.1095L68.0002 37.1892L67.0985 34.3632Z" fill="#2C2C2C"/>
<path d="M58.727 44.2543L56.8295 42.8548V46.5286L56.991 46.6497L57.0045 46.6632C59.7498 48.628 61.1359 50.9292 61.1359 53.4995C61.1359 57.5906 57.8119 60.9145 53.7209 60.9145C49.6299 60.9145 46.3059 57.5906 46.3059 53.4995C46.3059 52.1403 46.8576 50.6466 47.6113 49.4354L48.2841 54.4685L51.2178 54.0782L49.9797 44.7926L40.4385 46.5824L40.9902 49.4892L44.4488 48.8433C43.7221 50.2832 43.3453 51.8577 43.3453 53.4995C43.3453 59.2189 48.0015 63.8752 53.7209 63.8752C59.4403 63.8752 64.0965 59.2189 64.0965 53.4995C64.0831 49.9737 62.226 46.7708 58.727 44.2543Z" fill="#2C2C2C"/>
<defs>
<linearGradient id="paint0_linear" x1="26.2464" y1="-5.59633e-07" x2="108.634" y2="19.0844" gradientUnits="userSpaceOnUse">
<stop stop-color="#2E73FF"/>
<stop offset="0.894147" stop-color="#184CE8"/>
</linearGradient>
</defs>
</svg>
