<svg id="Layer_1" data-name="Layer 1" xmlns="http://www.w3.org/2000/svg" xmlns:xlink="http://www.w3.org/1999/xlink" viewBox="0 0 200 200"><defs><style>.cls-1{fill:url(#linear-gradient);}</style><linearGradient id="linear-gradient" x1="38.94" y1="146.08" x2="195.76" y2="-25.6" gradientUnits="userSpaceOnUse"><stop offset="0" stop-color="#ad7c00"/><stop offset="0.09" stop-color="#b08108"/><stop offset="0.24" stop-color="#ba8f1c"/><stop offset="0.41" stop-color="#c8a63e"/><stop offset="0.51" stop-color="#d3b656"/><stop offset="0.7" stop-color="#d4b859"/><stop offset="0.83" stop-color="#d9bf62"/><stop offset="0.95" stop-color="#e0cb72"/><stop offset="1" stop-color="#e5d37c"/></linearGradient></defs><title>logo2</title><path class="cls-1" d="M142.23,11.57A57.35,57.35,0,0,0,84.87,68.91c0,.42-.13,66.49-.13,66.49Q82.61,163,57.17,165.12,31,163.68,28.88,135.4V71.74c-.47-8.95-5-13.68-13.42-14.13C7,58.06,2.48,62.79,2,71.74v65.08q4.22,48.09,55.17,51.61,50.21-3.52,54.47-51.61V68.44a30.6,30.6,0,1,1,30.59,31.08h-2.79a13.35,13.35,0,0,0,0,26.6h0s2.47.13,2.79.13a57.35,57.35,0,1,0,0-114.69Z"/></svg>