<svg id="Layer_1" data-name="Layer 1" xmlns="http://www.w3.org/2000/svg" xmlns:xlink="http://www.w3.org/1999/xlink" viewBox="0 0 512 512"><defs><style>.cls-1{fill:#fff;}.cls-2{fill:url(#linear-gradient);}</style><linearGradient id="linear-gradient" x1="137.46" y1="50.68" x2="374.54" y2="461.32" gradientUnits="userSpaceOnUse"><stop offset="0" stop-color="#0095d7"/><stop offset="1" stop-color="#0072aa"/></linearGradient></defs><circle class="cls-1" cx="256" cy="256" r="255"/><circle id="Ellipse_256" data-name="Ellipse 256" class="cls-2" cx="256" cy="256" r="237.05"/><path class="cls-1" d="M352.91,285.26h0a58.87,58.87,0,0,0-16.15-20.4,95,95,0,0,0-26.48-14.68c-10.84-4.07-23.08-8-36.39-11.55-10.37-2.59-19.72-5.11-27.79-7.49a106.23,106.23,0,0,1-21-8.34,41.51,41.51,0,0,1-14-11.76c-3.5-4.83-5.28-10.84-5.28-17.88,0-11.91,4.52-21.33,13.42-28,8.47-6.35,20.56-9.44,36.95-9.44a105.36,105.36,0,0,1,26.2,3.32A160,160,0,0,1,305.87,167a128.66,128.66,0,0,1,18.52,9.68c1.22.79,2.35,1.55,3.4,2.27a1.5,1.5,0,0,0,1.2.22,1.45,1.45,0,0,0,1-.74l16.2-29.75a1.49,1.49,0,0,0-.53-2,204.18,204.18,0,0,0-35.92-17.27,140.81,140.81,0,0,0-35.64-8l-1.05-.1V73.91a1.5,1.5,0,0,0-1.5-1.5H237.07a1.5,1.5,0,0,0-1.5,1.5v48.47A119.38,119.38,0,0,0,220.08,126a92.8,92.8,0,0,0-30.31,15.6,70.33,70.33,0,0,0-20,25.23c-4.8,10.07-7.23,21.83-7.23,35,0,9.84,1.48,18.32,4.41,25.21a51.29,51.29,0,0,0,13.14,18.2,85.2,85.2,0,0,0,22.84,14.22A246.53,246.53,0,0,0,236.72,271c10.44,3,20.5,5.9,29.87,8.65a145.58,145.58,0,0,1,23.73,9c7,3.51,12.56,7.74,16.5,12.58a29.55,29.55,0,0,1,6.46,19.14c0,22.71-17.55,34.71-50.76,34.71A132.07,132.07,0,0,1,229.67,351a175.48,175.48,0,0,1-28.81-9.95,200.24,200.24,0,0,1-22.42-11.72c-2.26-1.4-4.31-2.72-6.08-3.94a1.51,1.51,0,0,0-1.22-.21,1.47,1.47,0,0,0-1,.77l-16.59,32.36a1.49,1.49,0,0,0,.52,1.94,188.18,188.18,0,0,0,47.57,22,207.6,207.6,0,0,0,33.9,7.38v44.12a1.5,1.5,0,0,0,1.5,1.5h34.45a1.5,1.5,0,0,0,1.5-1.5V391l1.19-.09a154.68,154.68,0,0,0,25-3.86,93,93,0,0,0,30.87-13.39,65,65,0,0,0,20.76-23.46c5.11-9.63,7.7-21.51,7.7-35.3C358.58,303.13,356.68,293.15,352.91,285.26Z"/></svg>