<svg width="30" height="30" viewBox="0 0 30 30" fill="none" xmlns="http://www.w3.org/2000/svg">
<mask id="mask0" mask-type="alpha" maskUnits="userSpaceOnUse" x="0" y="0" width="30" height="30">
<rect width="30" height="30" fill="#2E3035"/>
</mask>
<g mask="url(#mask0)">
<path fill-rule="evenodd" clip-rule="evenodd" d="M30 15L15 0L0 15L15 30L30 15ZM15.5371 24.6162H14.248V22.7471C11.6914 22.5215 9.5752 21.0068 9.5 18.5039H11.3691C11.5613 19.8384 12.3795 20.8547 14.214 21.0674C14.8088 21.1742 15.335 21.1488 15.7697 21.0602C17.5954 20.8535 18.3086 19.905 18.3086 18.7188C18.3086 17.5371 17.7285 16.7852 15.6016 16.2695L15.5371 16.2588V16.2593C15.1521 16.1301 14.6662 16.0189 14.0693 15.9006L14.001 15.8828C11.3262 15.2383 9.88672 14.0459 9.88672 11.9297C9.88672 9.62012 11.7021 8.09473 14.248 7.86914V6H15.5371V7.8584C18.0186 8.08398 19.9521 9.65234 20.0273 12.0264H18.1582C18.0186 10.5762 16.9873 9.72754 15.5371 9.54492V9.55541C15.1189 9.48482 14.6785 9.50006 14.248 9.57972V9.55566C12.6152 9.77051 11.7559 10.7588 11.7559 11.8008C11.7559 12.8243 12.3651 13.6245 14.0971 14.0827C14.479 14.2133 14.9571 14.3314 15.5371 14.4083V14.4326L15.8701 14.5078C18.6309 15.1738 20.1777 16.3125 20.1777 18.5684C20.1777 21.1572 18.0723 22.5645 15.5371 22.7578V24.6162Z" fill="#05B595"/>
<mask id="mask1" mask-type="alpha" maskUnits="userSpaceOnUse" x="-1" y="0" width="32" height="17">
<path fill-rule="evenodd" clip-rule="evenodd" d="M7.57023 12.6624C5.49973 12.6326 3.03448 13.2189 -0.134324 15.113C-0.4022 14.7788 0.686451 13.8427 0.500213 13.5002C0.501271 13.0018 2.49966 11.7706 2.50023 11.5002C7.50022 8.00022 13.0002 0.5 15.0002 -1.82203e-06C17.9904 2.57878 23.2714 8.15761 29.0002 12.0005C29.0084 12.1942 28.997 12.2079 29.0002 12.501C28.9992 13.0011 29.5016 13.3546 29.5002 14.0005C28.7521 13.1784 30.6771 14.6632 30.6725 14.7459C27.3072 16.4892 24.4756 17.0419 21.9224 16.884C19.0758 16.7078 16.6969 15.6457 14.5447 14.6848C14.4626 14.6482 14.3809 14.6117 14.2995 14.5754C12.0295 13.5635 9.98554 12.6971 7.57023 12.6624Z" fill="#2E3035"/>
</mask>
<g mask="url(#mask1)">
<path fill-rule="evenodd" clip-rule="evenodd" d="M30 15L15 0L0 15L15 30L30 15ZM15.5374 24.6162H14.2483V22.7471C11.6917 22.5215 9.57544 21.0068 9.50024 18.5039H11.3694C11.5627 19.8467 12.3899 20.8672 14.2483 21.0713V21.0553C14.9003 21.1827 15.4552 21.1489 15.898 21.0442C17.6291 20.8083 18.3088 19.8768 18.3088 18.7188C18.3088 17.5371 17.7288 16.7852 15.6018 16.2695L15.5374 16.2588V16.2593C15.1524 16.1301 14.6665 16.0189 14.0695 15.9006L14.0012 15.8828C11.3264 15.2383 9.88696 14.0459 9.88696 11.9297C9.88696 9.62012 11.7024 8.09473 14.2483 7.86914V6H15.5374V7.8584C18.0188 8.08398 19.9524 9.65234 20.0276 12.0264H18.1584C18.0188 10.5762 16.9875 9.72754 15.5374 9.54492C15.1227 9.48813 14.679 9.50341 14.2483 9.57396V9.55566C12.6155 9.77051 11.7561 10.7588 11.7561 11.8008C11.7561 12.7885 12.3234 13.5681 13.9194 14.0333C14.3225 14.1899 14.8557 14.3342 15.5374 14.4196V14.4326L15.8704 14.5078C18.6311 15.1738 20.178 16.3125 20.178 18.5684C20.178 21.1572 18.0725 22.5645 15.5374 22.7578V24.6162Z" fill="#00FEB5"/>
</g>
</g>
</svg>
