<svg xmlns="http://www.w3.org/2000/svg" xmlns:xlink="http://www.w3.org/1999/xlink" viewBox="0 0 400 400"><defs><style>.usdp__cls-1{fill:#00a64f;}.usdp__cls-2{fill:url(#radial-gradient);}.usdp__cls-3{fill:url(#radial-gradient-2);}.usdp__cls-4{fill:#fff;}</style><radialGradient id="radial-gradient" cx="13.2" cy="263.88" r="319.97" gradientUnits="userSpaceOnUse"><stop offset="0.09" stop-color="#00522c"/><stop offset="1" stop-color="#00522c" stop-opacity="0"/></radialGradient><radialGradient id="radial-gradient-2" cx="381.02" cy="128.54" r="319.97" gradientUnits="userSpaceOnUse"><stop offset="0" stop-color="#8ad137"/><stop offset="1" stop-color="#8ad137" stop-opacity="0"/></radialGradient></defs><title>Artboard 28 copy</title><g id="Layer_2" data-name="Layer 2"><circle class="usdp__cls-1" cx="200" cy="200" r="200"/><circle class="usdp__cls-2" cx="200" cy="200" r="200"/><circle class="usdp__cls-3" cx="200" cy="200" r="200"/><path class="usdp__cls-4" d="M236.1,184.79h-17V134.92H293.2v-30.6H219.14V56.39H180.91v47.93h0v.19H164.79c-34.85,0-63.91,17.61-63.91,56,0,33.58,25.48,54.71,63,54.71h17v49.86H106.8v30.6h74.06v47.94h38.23V295.49h16.12c34.85,0,63.91-17.61,63.91-56C299.12,205.92,273.64,184.79,236.1,184.79ZM180.86,215.2V184.8H168.8c-16.19,0-29.37-6.82-29.37-25,0-18,12.5-24.84,30.17-24.84h11.31v49.87h38.18V215.2Zm49.54,49.88H219.09V215.21H231.2c16.19,0,29.37,6.82,29.37,25C260.57,258.28,248.07,265.08,230.4,265.08Z"/></g></svg>