<?xml version="1.0" encoding="utf-8"?>
<svg version="1.1" id="Layer_2" xmlns="http://www.w3.org/2000/svg" xmlns:xlink="http://www.w3.org/1999/xlink" x="0px" y="0px"
	 viewBox="0 0 2000 2000" style="enable-background:new 0 0 2000 2000;" xml:space="preserve">
<style type="text/css">
	.st0{fill:url(#XMLID_6_);}
	.st1{fill:url(#XMLID_7_);}
	.st2{fill:url(#XMLID_8_);}
	.st3{fill:url(#XMLID_9_);}
	.st4{fill:url(#XMLID_10_);}
</style>
<g id="XMLID_39_">
	<linearGradient id="XMLID_6_" gradientUnits="userSpaceOnUse" x1="-2394.8591" y1="4700.8813" x2="1513.3253" y2="792.697">
		<stop  offset="0.84" style="stop-color:#8568C5"/>
		<stop  offset="1" style="stop-color:#783989"/>
	</linearGradient>
	<path id="XMLID_17_" class="st0" d="M1517.3,1517.3c-138.2,138.2-321.9,214.2-517.3,214.2c-195.4,0-379.1-76.1-517.3-214.2
		c-88.3-88.3-152.7-197.6-186.4-316.3H78.4c93.4,430.5,479.9,742.1,921.6,742.1c441.7,0,828.2-311.7,921.6-742.1h-217.9
		C1670,1319.7,1605.6,1429,1517.3,1517.3z"/>
	<linearGradient id="XMLID_7_" gradientUnits="userSpaceOnUse" x1="4261.9307" y1="-1893.9343" x2="883.5338" y2="2132.2825">
		<stop  offset="0.8849" style="stop-color:#793E90"/>
		<stop  offset="1" style="stop-color:#783989"/>
	</linearGradient>
	<path id="XMLID_5_" class="st1" d="M1727.4,921.9c2.8,26,4.1,52.3,4.1,78.1c0,25.9-1.4,52.1-4.1,78.1h212.5
		c2.2-26.4,3.3-52.7,3.3-78.1c0-25.4-1.1-51.7-3.3-78.1H1727.4z"/>
	<linearGradient id="XMLID_8_" gradientUnits="userSpaceOnUse" x1="3283.5347" y1="-2714.9062" x2="-94.8625" y2="1311.3107">
		<stop  offset="0.373" style="stop-color:#8568C5"/>
		<stop  offset="0.6215" style="stop-color:#8568C5"/>
	</linearGradient>
	<path id="XMLID_4_" class="st2" d="M268.5,1000c0-25.8,1.4-52.1,4.1-78.1H60.1c-2.2,26.3-3.3,52.6-3.3,78.1s1.1,51.8,3.3,78.1
		h212.5C269.9,1052.1,268.5,1025.8,268.5,1000z"/>
	<linearGradient id="XMLID_9_" gradientUnits="userSpaceOnUse" x1="-750.1949" y1="3786.0818" x2="1589.1597" y2="-265.799">
		<stop  offset="0.557" style="stop-color:#8568C5"/>
		<stop  offset="1" style="stop-color:#783989"/>
	</linearGradient>
	<path id="XMLID_3_" class="st3" d="M482.7,482.7C620.9,344.6,804.6,268.5,1000,268.5c195.4,0,379.1,76.1,517.3,214.3
		C1605.6,571,1670,680.3,1703.7,799h217.9C1828.2,368.5,1441.7,56.9,1000,56.9C558.3,56.9,171.8,368.5,78.4,799h217.9
		C330,680.3,394.4,571.1,482.7,482.7z"/>
	<g id="XMLID_40_">
		<linearGradient id="XMLID_10_" gradientUnits="userSpaceOnUse" x1="776.6981" y1="1228.9886" x2="1228.2001" y2="777.4866">
			<stop  offset="6.660587e-02" style="stop-color:#8568C5"/>
			<stop  offset="0.278" style="stop-color:#8055AD"/>
			<stop  offset="0.5176" style="stop-color:#7B4599"/>
			<stop  offset="0.7583" style="stop-color:#793C8D"/>
			<stop  offset="1" style="stop-color:#783989"/>
		</linearGradient>
		<path id="XMLID_41_" class="st4" d="M1031.8,1415.1h-58.8c-13.7,0-20.6-6.9-20.6-20.6v-75.4h-6.9c-49.6,0-88.3-14.2-116.1-42.6
			c-27.8-28.4-41.6-67.7-41.6-118v-18.6c0-13.7,6.8-20.6,20.6-20.6h83.2c13.7,0,20.6,6.9,20.6,20.6v6.8c0,24.8,4.9,41.8,14.7,50.9
			c9.8,9.1,27.7,13.7,53.9,13.7h39.2c25.5,0,43.2-4.9,53.4-14.7c10.1-9.8,15.2-28.1,15.2-54.8v-14.7c0-16.3-4.9-29-14.7-38.2
			c-9.8-9.1-21.2-15.3-34.3-18.6c-11.7-2.6-34.8-5.5-69-8.8c-34.3-3.3-59.9-7.3-76.9-12.2c-17-4.9-34.3-13.2-51.9-25
			c-36.6-23.5-54.8-69.5-54.8-138.1V850c0-51.6,13.9-91.2,41.6-119c27.7-27.8,66.8-41.6,117-41.6h6.9V612c0-13.7,6.9-20.6,20.6-20.6
			h58.8c13.7,0,20.6,6.9,20.6,20.6v77.4h2c46.4,0,82.9,14.4,109.7,43.1c26.8,28.7,40.2,67.9,40.2,117.5v18.6
			c0,13.7-6.9,20.6-20.6,20.6h-83.2c-13.7,0-20.6-6.9-20.6-20.6v-6.9c0-24.8-4.7-41.8-14.2-50.9c-9.5-9.1-27.6-13.7-54.4-13.7h-31.3
			c-26.8,0-44.9,5.1-54.4,15.2c-9.5,10.1-14.2,29.9-14.2,59.3v19.6c0,14.4,4.9,25.6,14.7,33.8c9.8,8.2,20.9,13.6,33.3,16.2
			c14.4,2.6,38.7,5.4,73,8.3c34.3,2.9,60.1,7.2,77.4,12.7c17.3,5.5,34.4,14.2,51.4,26c34.6,24.8,51.9,69.2,51.9,133.2v37.2
			c0,50.9-14.2,90.5-42.6,118.5c-28.4,28.1-67.1,42.1-116.1,42.1h-2v75.4C1052.4,1408.2,1045.5,1415.1,1031.8,1415.1z"/>
	</g>
</g>
</svg>

