<svg id="图层_1" data-name="图层 1" xmlns="http://www.w3.org/2000/svg" viewBox="0 0 208.86 210.6"><defs><style>.cls-1{fill:#0e0d28;fill-rule:evenodd;}</style></defs><title>USDx</title><path class="cls-1" d="M152.71,58.43h-7.25v48.22c13.81.32,27.6-.62,36.55.41l-.58,28.59s-28.3,1.54-40,1.68c-9,.11-5.5,5.08-1.74,5.8s25.33,5.81,32.49,9.28,11.63,6.23,13.92,23.21S182.26,217.33,147.2,218l-1.74,0v51h7.25a105.3,105.3,0,1,0,0-210.6Z" transform="translate(-49.16 -58.43)"/><path class="cls-1" d="M98.47,216.17l1.16-29s33.33,1.29,44.09-.52c7.53-1,3.48-4.64,3.48-4.64s-26-4.7-34.81-9.28S93.54,159,99,129c2.84-15.42,18.7-21.43,36.55-22.3V58.43H69.16a20,20,0,0,0-20,20V249a20,20,0,0,0,20,20H135.6V217.91C109.71,217.13,98.47,216.17,98.47,216.17Z" transform="translate(-49.16 -58.43)"/></svg>