<svg width="400" height="400" viewBox="0 0 400 400" fill="none" xmlns="http://www.w3.org/2000/svg">
<circle cx="200" cy="200" r="200" fill="#0C0E11"/>
<path d="M215.084 317.823C210.288 326.136 198.29 326.14 193.489 317.829L87.6908 134.705C82.8887 126.393 88.8871 116 98.4867 116L288.026 116C307.328 116 319.312 136.988 309.5 153.611L286.487 192.602C277.517 207.799 261.184 217.124 243.538 217.124H171.507C167.289 217.124 164.702 221.745 166.906 225.341C167.887 226.942 169.63 227.917 171.507 227.917H223.778C242.971 227.917 254.968 248.691 245.377 265.315L215.084 317.823Z" fill="url(#paint0_linear)" fill-opacity="0.15"/>
<path fill-rule="evenodd" clip-rule="evenodd" d="M91.1543 132.704L196.952 315.828C200.213 321.473 208.362 321.47 211.619 315.824L241.913 263.316C249.965 249.358 239.892 231.917 223.778 231.917H171.507C168.238 231.917 165.204 230.219 163.496 227.432C159.658 221.171 164.163 213.124 171.507 213.124H243.538C259.769 213.124 274.792 204.547 283.042 190.569L306.056 151.578C314.293 137.621 304.232 120 288.026 120L98.4867 120C91.9669 120 87.8928 127.059 91.1543 132.704ZM193.489 317.829C198.29 326.14 210.288 326.136 215.084 317.823L245.377 265.315C254.968 248.691 242.971 227.917 223.778 227.917H171.507C169.63 227.917 167.887 226.942 166.906 225.341C164.702 221.745 167.289 217.124 171.507 217.124H243.538C261.184 217.124 277.517 207.799 286.487 192.602L309.5 153.611C319.312 136.988 307.328 116 288.026 116L98.4867 116C88.8871 116 82.8887 126.393 87.6908 134.705L193.489 317.829Z" fill="url(#paint1_linear)"/>
<defs>
<linearGradient id="paint0_linear" x1="86" y1="99.8543" x2="224.28" y2="334.267" gradientUnits="userSpaceOnUse">
<stop stop-color="#03001E"/>
<stop offset="0.28941" stop-color="#7303C0"/>
<stop offset="0.680035" stop-color="#EC38BC"/>
<stop offset="1" stop-color="#FDEFF9"/>
</linearGradient>
<linearGradient id="paint1_linear" x1="86" y1="99.8543" x2="224.28" y2="334.267" gradientUnits="userSpaceOnUse">
<stop stop-color="#03001E"/>
<stop offset="0.28941" stop-color="#7303C0"/>
<stop offset="0.680035" stop-color="#EC38BC"/>
<stop offset="1" stop-color="#FDEFF9"/>
</linearGradient>
</defs>
</svg>
