<?xml version="1.0" standalone="no"?><!-- Generator: Gravit.io --><svg xmlns="http://www.w3.org/2000/svg" xmlns:xlink="http://www.w3.org/1999/xlink" style="isolation:isolate" viewBox="0 0 3000 3000" width="3000" height="3000"><defs><clipPath id="_clipPath_XABVKKThCtC5ivwz23s2hXr1Z10lYJo8"><rect width="3000" height="3000"/></clipPath></defs><g clip-path="url(#_clipPath_XABVKKThCtC5ivwz23s2hXr1Z10lYJo8)"><circle vector-effect="non-scaling-stroke" cx="1500.0074822380218" cy="1476.1080273930531" r="1315.3619302949069" fill="rgb(255,255,255)"/><path d=" M 1442 2.1 C 1118.1 15 813.7 128.8 561.2 331.4 C 517.9 366.1 485.2 395.7 440.4 440.4 C 384.5 496.4 345.4 541.3 300.7 600.8 C 54.3 928.8 -45.9 1340.9 21.6 1748 C 65.7 2014.1 182.5 2265.2 358 2471 C 407.2 2528.7 471.3 2592.8 529 2642 C 865 2928.4 1309.5 3051.1 1748 2978.4 C 2014.1 2934.3 2265.2 2817.5 2471 2642 C 2528.7 2592.8 2592.8 2528.7 2642 2471 C 2927.7 2135.9 3050.6 1692.2 2979 1255 C 2935.1 987.7 2818.1 735.6 2642 529 C 2592.8 471.3 2528.7 407.2 2471 358 C 2199.2 126.3 1853 -0.3 1495.5 1.2 C 1476.8 1.2 1452.7 1.7 1442 2.1 Z  M 951.4 413.5 C 1001.1 420 1044.3 451.6 1066.5 497.5 C 1072.2 509.4 1074.8 516.6 1078.2 530.5 L 1080.5 539.5 L 1081 1323 L 1081.5 2106.5 L 1083.7 2110 C 1087.2 2115.6 1093.6 2118.5 1099.9 2117.4 C 1103.5 2116.7 1390 1953.3 1393.8 1949.7 C 1395.1 1948.5 1396.7 1946.6 1397.3 1945.5 C 1398.2 1944 1398.6 1813.9 1399 1419.5 L 1399.5 895.5 L 1401.7 886.5 C 1408.8 856.7 1421.9 833.1 1443 812 C 1464.2 790.7 1488.3 777.5 1518.1 770.8 C 1532 767.7 1563.6 767.5 1577 770.3 C 1596.3 774.5 1613.4 781.3 1629.5 791.2 C 1639.1 797.1 1642.8 799.2 1758.5 866 C 1799.8 889.8 1849.5 918.5 1869 929.8 C 1888.5 941.1 1921.8 960.3 1943 972.5 C 1964.2 984.7 1997.5 1003.9 2017 1015.2 C 2036.5 1026.5 2086.3 1055.2 2127.5 1079 C 2168.8 1102.8 2224.1 1134.8 2250.5 1150 C 2308.4 1183.5 2430.1 1253.7 2525.3 1308.6 C 2563.7 1330.8 2598.8 1351.5 2603.2 1354.7 C 2635.7 1377.9 2657.9 1415.4 2663.5 1456 C 2671 1510.7 2647 1566.4 2602.2 1598 C 2594.4 1603.5 2535 1638 2350.5 1744.4 C 2334 1753.9 2281.1 1784.4 2233 1812.2 C 2184.9 1840 2094.4 1892.2 2032 1928.2 C 1969.6 1964.2 1878.9 2016.6 1830.5 2044.5 C 1782.1 2072.4 1731 2101.9 1717 2110 C 1703 2118.1 1634.4 2157.7 1564.5 2198 C 1494.7 2238.3 1363.3 2314.1 1272.5 2366.5 C 1181.8 2418.9 1084.3 2475.1 1056 2491.4 C 998.6 2524.6 991.1 2528.4 974.5 2533.5 C 937.2 2544.8 897.2 2541 862 2522.9 C 821.9 2502.2 793.9 2465.1 783.8 2419 L 781.5 2408.5 L 781.5 1476 L 781.5 543.5 L 783.8 533 C 793.8 487.4 821.7 450.1 861 429.6 C 889.9 414.6 919.4 409.3 951.4 413.5 Z " fill="rgb(0,195,209)"/><path d=" M 1707 1191.2 C 1703.7 1192.9 1701.9 1194.7 1700.3 1198 L 1698 1202.4 L 1698 1476.5 C 1698 1741.5 1698.1 1750.6 1699.9 1754.6 C 1704 1763.5 1714.7 1765.7 1724.2 1759.6 C 1727.1 1757.8 1734 1753.8 1739.5 1750.8 C 1750.3 1744.9 1750 1745.1 1845.5 1689.3 C 2072.1 1556.9 2181.6 1493.1 2189.3 1489.2 C 2199.6 1483.8 2202 1480.8 2202 1473.4 C 2202 1468.1 2199.7 1463.3 2195.8 1460.5 C 2194.5 1459.6 2185.4 1454.5 2175.5 1449.1 C 2159.7 1440.5 2071.4 1390.3 1840 1258.5 C 1729.2 1195.4 1722.6 1191.7 1719 1190.4 C 1714 1188.6 1712 1188.7 1707 1191.2 Z " fill="rgb(0,195,209)"/></g></svg>