<svg id="svg" version="1.1" xmlns="http://www.w3.org/2000/svg" xmlns:xlink="http://www.w3.org/1999/xlink" width="400" height="400" viewBox="0, 0, 400,400"><g id="svgg"><path id="path0" d="M227.400 81.412 C 226.520 81.729,225.405 81.991,224.921 81.994 C 224.438 81.997,223.196 82.450,222.162 83.000 C 221.127 83.550,220.053 84.000,219.774 84.000 C 219.495 84.000,219.207 84.143,219.133 84.318 C 219.060 84.493,218.179 85.258,217.175 86.018 C 212.729 89.384,212.657 89.504,198.101 118.022 C 194.053 125.952,193.387 126.959,192.949 125.797 C 192.784 125.359,192.098 124.096,191.424 122.990 C 190.751 121.885,189.987 120.625,189.726 120.190 C 188.700 118.481,182.177 107.380,181.800 106.703 C 178.925 101.535,175.655 96.727,172.796 93.462 C 171.594 92.090,165.549 88.000,164.722 88.000 C 164.398 88.000,164.007 87.874,163.853 87.720 C 162.374 86.241,149.349 85.278,145.828 86.387 C 145.153 86.600,143.520 87.071,142.200 87.433 C 140.880 87.796,139.233 88.342,138.540 88.646 C 137.846 88.951,137.177 89.200,137.051 89.200 C 136.502 89.200,132.015 91.428,130.092 92.655 C 128.933 93.395,127.823 94.000,127.626 94.000 C 127.428 94.000,127.207 94.141,127.133 94.313 C 127.060 94.486,125.920 95.455,124.600 96.468 C 121.868 98.563,116.000 104.658,116.000 105.400 C 116.000 105.528,115.667 105.991,115.259 106.429 C 111.718 110.229,108.594 121.005,109.563 126.076 C 110.844 132.786,112.900 137.015,121.195 150.000 C 121.405 150.330,121.869 151.177,122.226 151.882 C 122.582 152.586,123.127 153.374,123.437 153.631 C 123.747 153.888,124.000 154.273,124.000 154.487 C 124.000 154.701,124.405 155.442,124.900 156.133 C 125.395 156.823,126.011 157.789,126.268 158.279 C 127.238 160.122,128.207 161.807,128.409 162.000 C 129.123 162.682,129.992 164.489,129.776 164.839 C 129.601 165.121,122.975 165.225,109.259 165.160 C 94.512 165.091,88.694 165.192,87.874 165.532 C 87.255 165.790,86.377 166.000,85.923 166.000 C 82.975 166.000,76.162 170.938,73.038 175.338 C 66.001 185.252,63.624 199.210,66.659 212.800 C 67.188 215.172,67.525 216.308,68.379 218.600 C 71.509 227.006,76.646 232.519,84.200 235.578 C 87.294 236.831,97.360 237.416,123.200 237.844 C 138.566 238.098,137.182 237.755,135.526 240.900 C 134.439 242.964,128.400 254.803,124.253 263.000 C 121.804 267.840,119.710 271.890,119.600 272.000 C 119.490 272.110,119.064 272.920,118.654 273.800 C 118.243 274.680,117.626 275.940,117.283 276.600 C 116.148 278.783,116.210 278.643,114.417 283.000 C 110.011 293.701,114.549 305.324,127.234 315.823 C 128.725 317.057,135.124 320.921,137.400 321.963 C 141.373 323.780,141.833 323.965,144.000 324.613 C 145.210 324.975,146.560 325.425,147.000 325.613 C 149.203 326.553,163.467 326.937,166.600 326.140 C 171.668 324.852,176.975 320.896,180.122 316.062 C 181.912 313.312,192.000 293.263,192.000 292.455 C 192.000 292.205,192.180 292.000,192.400 292.000 C 192.620 292.000,192.800 291.662,192.800 291.249 C 192.800 290.836,193.070 290.274,193.400 290.000 C 193.730 289.726,194.000 289.327,194.000 289.113 C 194.000 288.460,198.375 279.719,198.935 279.254 C 199.389 278.877,202.000 281.740,202.000 282.616 C 202.000 282.722,202.900 284.245,204.000 286.000 C 205.100 287.755,206.000 289.373,206.000 289.596 C 206.000 289.818,206.177 290.000,206.392 290.000 C 206.608 290.000,206.898 290.450,207.036 291.000 C 207.174 291.550,207.447 292.000,207.643 292.000 C 207.840 292.000,208.000 292.197,208.000 292.438 C 208.000 292.679,208.405 293.444,208.900 294.137 C 209.395 294.830,210.137 296.027,210.548 296.798 C 210.960 297.569,212.355 299.787,213.648 301.726 C 214.942 303.666,216.000 305.322,216.000 305.407 C 216.000 306.962,224.515 313.346,228.214 314.564 C 229.306 314.924,230.563 315.402,231.008 315.627 C 233.059 316.666,249.371 315.563,250.634 314.300 C 250.798 314.135,251.266 314.000,251.672 314.000 C 252.078 314.000,252.723 313.828,253.105 313.618 C 253.487 313.407,254.970 312.714,256.400 312.077 C 266.764 307.458,276.569 296.837,279.324 287.244 C 279.951 285.062,280.136 275.315,279.579 273.837 C 278.130 269.994,276.938 267.238,276.189 266.000 C 275.723 265.230,275.218 264.330,275.068 264.000 C 274.918 263.670,274.342 262.680,273.788 261.800 C 273.235 260.920,272.565 259.750,272.299 259.200 C 272.034 258.650,271.705 258.110,271.568 258.000 C 271.431 257.890,270.727 256.720,270.003 255.400 C 269.279 254.080,268.381 252.550,268.008 252.000 C 267.635 251.450,267.204 250.730,267.049 250.400 C 266.741 249.742,266.655 249.596,263.900 245.084 C 262.855 243.372,262.000 241.723,262.000 241.419 C 262.000 241.115,261.775 240.760,261.500 240.630 C 261.225 240.500,263.610 240.482,266.800 240.591 C 286.512 241.263,305.413 241.293,307.200 240.654 C 308.190 240.301,309.290 240.009,309.644 240.006 C 310.421 239.999,314.084 238.170,316.008 236.829 C 320.046 234.014,324.807 226.855,326.540 220.990 C 326.929 219.676,327.416 218.287,327.623 217.905 C 327.831 217.523,328.000 216.767,328.000 216.225 C 328.000 215.683,328.270 214.202,328.600 212.935 C 329.315 210.192,329.426 197.524,328.757 195.000 C 328.524 194.120,328.185 192.590,328.004 191.600 C 327.613 189.460,326.704 186.571,326.293 186.160 C 326.132 185.999,325.999 185.582,325.998 185.233 C 325.987 181.739,318.477 172.428,313.809 170.121 C 308.003 167.252,307.227 167.179,279.700 166.928 C 266.225 166.805,255.200 166.574,255.200 166.413 C 255.200 166.252,256.525 163.439,258.146 160.160 C 259.766 156.882,261.391 153.570,261.757 152.800 C 262.123 152.030,262.593 151.130,262.801 150.800 C 263.010 150.470,265.268 145.970,267.820 140.800 C 270.371 135.630,272.610 131.130,272.795 130.800 C 275.519 125.950,277.200 120.172,277.200 115.663 C 277.200 110.740,276.455 108.161,273.429 102.612 C 271.782 99.590,267.688 94.969,264.200 92.192 C 263.100 91.316,262.140 90.465,262.067 90.300 C 261.993 90.135,261.786 90.000,261.607 90.000 C 261.427 90.000,260.317 89.347,259.140 88.550 C 257.032 87.122,250.809 84.000,250.070 84.000 C 249.862 84.000,249.176 83.731,248.546 83.402 C 247.916 83.074,247.031 82.804,246.580 82.802 C 246.129 82.801,245.589 82.638,245.380 82.441 C 245.171 82.244,244.280 81.992,243.400 81.882 C 242.520 81.772,241.080 81.488,240.200 81.250 C 237.819 80.609,229.332 80.715,227.400 81.412 " stroke="none" fill="#0d0c1a" fill-rule="evenodd"></path><path id="path1" d="M0.000 200.000 L 0.000 400.000 200.000 400.000 L 400.000 400.000 400.000 200.000 L 400.000 0.000 200.000 0.000 L 0.000 0.000 0.000 200.000 M240.200 81.250 C 241.080 81.488,242.520 81.772,243.400 81.882 C 244.280 81.992,245.171 82.244,245.380 82.441 C 245.589 82.638,246.129 82.801,246.580 82.802 C 247.031 82.804,247.916 83.074,248.546 83.402 C 249.176 83.731,249.862 84.000,250.070 84.000 C 250.809 84.000,257.032 87.122,259.140 88.550 C 260.317 89.347,261.427 90.000,261.607 90.000 C 261.786 90.000,261.993 90.135,262.067 90.300 C 262.140 90.465,263.100 91.316,264.200 92.192 C 267.688 94.969,271.782 99.590,273.429 102.612 C 276.455 108.161,277.200 110.740,277.200 115.663 C 277.200 120.172,275.519 125.950,272.795 130.800 C 272.610 131.130,270.371 135.630,267.820 140.800 C 265.268 145.970,263.010 150.470,262.801 150.800 C 262.593 151.130,262.123 152.030,261.757 152.800 C 261.391 153.570,259.766 156.882,258.146 160.160 C 256.525 163.439,255.200 166.252,255.200 166.413 C 255.200 166.574,266.225 166.805,279.700 166.928 C 307.227 167.179,308.003 167.252,313.809 170.121 C 318.477 172.428,325.987 181.739,325.998 185.233 C 325.999 185.582,326.132 185.999,326.293 186.160 C 326.704 186.571,327.613 189.460,328.004 191.600 C 328.185 192.590,328.524 194.120,328.757 195.000 C 329.426 197.524,329.315 210.192,328.600 212.935 C 328.270 214.202,328.000 215.683,328.000 216.225 C 328.000 216.767,327.831 217.523,327.623 217.905 C 327.416 218.287,326.929 219.676,326.540 220.990 C 324.807 226.855,320.046 234.014,316.008 236.829 C 314.084 238.170,310.421 239.999,309.644 240.006 C 309.290 240.009,308.190 240.301,307.200 240.654 C 305.413 241.293,286.512 241.263,266.800 240.591 C 263.610 240.482,261.225 240.500,261.500 240.630 C 261.775 240.760,262.000 241.115,262.000 241.419 C 262.000 241.723,262.855 243.372,263.900 245.084 C 266.655 249.596,266.741 249.742,267.049 250.400 C 267.204 250.730,267.635 251.450,268.008 252.000 C 268.381 252.550,269.279 254.080,270.003 255.400 C 270.727 256.720,271.431 257.890,271.568 258.000 C 271.705 258.110,272.034 258.650,272.299 259.200 C 272.565 259.750,273.235 260.920,273.788 261.800 C 274.342 262.680,274.918 263.670,275.068 264.000 C 275.218 264.330,275.723 265.230,276.189 266.000 C 276.938 267.238,278.130 269.994,279.579 273.837 C 280.136 275.315,279.951 285.062,279.324 287.244 C 276.569 296.837,266.764 307.458,256.400 312.077 C 254.970 312.714,253.487 313.407,253.105 313.618 C 252.723 313.828,252.078 314.000,251.672 314.000 C 251.266 314.000,250.798 314.135,250.634 314.300 C 249.371 315.563,233.059 316.666,231.008 315.627 C 230.563 315.402,229.306 314.924,228.214 314.564 C 224.515 313.346,216.000 306.962,216.000 305.407 C 216.000 305.322,214.942 303.666,213.648 301.726 C 212.355 299.787,210.960 297.569,210.548 296.798 C 210.137 296.027,209.395 294.830,208.900 294.137 C 208.405 293.444,208.000 292.679,208.000 292.438 C 208.000 292.197,207.840 292.000,207.643 292.000 C 207.447 292.000,207.174 291.550,207.036 291.000 C 206.898 290.450,206.608 290.000,206.392 290.000 C 206.177 290.000,206.000 289.818,206.000 289.596 C 206.000 289.373,205.100 287.755,204.000 286.000 C 202.900 284.245,202.000 282.722,202.000 282.616 C 202.000 281.740,199.389 278.877,198.935 279.254 C 198.375 279.719,194.000 288.460,194.000 289.113 C 194.000 289.327,193.730 289.726,193.400 290.000 C 193.070 290.274,192.800 290.836,192.800 291.249 C 192.800 291.662,192.620 292.000,192.400 292.000 C 192.180 292.000,192.000 292.205,192.000 292.455 C 192.000 293.263,181.912 313.312,180.122 316.062 C 176.975 320.896,171.668 324.852,166.600 326.140 C 163.467 326.937,149.203 326.553,147.000 325.613 C 146.560 325.425,145.210 324.975,144.000 324.613 C 141.833 323.965,141.373 323.780,137.400 321.963 C 135.124 320.921,128.725 317.057,127.234 315.823 C 114.549 305.324,110.011 293.701,114.417 283.000 C 116.210 278.643,116.148 278.783,117.283 276.600 C 117.626 275.940,118.243 274.680,118.654 273.800 C 119.064 272.920,119.490 272.110,119.600 272.000 C 119.710 271.890,121.804 267.840,124.253 263.000 C 128.400 254.803,134.439 242.964,135.526 240.900 C 137.182 237.755,138.566 238.098,123.200 237.844 C 97.360 237.416,87.294 236.831,84.200 235.578 C 76.646 232.519,71.509 227.006,68.379 218.600 C 64.967 209.439,64.428 200.647,66.637 190.200 C 67.735 185.009,70.145 179.414,73.038 175.338 C 76.162 170.938,82.975 166.000,85.923 166.000 C 86.377 166.000,87.255 165.790,87.874 165.532 C 88.694 165.192,94.512 165.091,109.259 165.160 C 122.975 165.225,129.601 165.121,129.776 164.839 C 129.992 164.489,129.123 162.682,128.409 162.000 C 128.207 161.807,127.238 160.122,126.268 158.279 C 126.011 157.789,125.395 156.823,124.900 156.133 C 124.405 155.442,124.000 154.701,124.000 154.487 C 124.000 154.273,123.747 153.888,123.437 153.631 C 123.127 153.374,122.582 152.586,122.226 151.882 C 121.869 151.177,121.405 150.330,121.195 150.000 C 109.269 131.330,107.674 126.103,110.696 115.600 C 111.411 113.114,114.139 107.631,115.259 106.429 C 115.667 105.991,116.000 105.528,116.000 105.400 C 116.000 104.658,121.868 98.563,124.600 96.468 C 125.920 95.455,127.060 94.486,127.133 94.313 C 127.207 94.141,127.428 94.000,127.626 94.000 C 127.823 94.000,128.933 93.395,130.092 92.655 C 132.015 91.428,136.502 89.200,137.051 89.200 C 137.177 89.200,137.846 88.951,138.540 88.646 C 139.233 88.342,140.880 87.796,142.200 87.433 C 143.520 87.071,145.153 86.600,145.828 86.387 C 149.349 85.278,162.374 86.241,163.853 87.720 C 164.007 87.874,164.398 88.000,164.722 88.000 C 165.549 88.000,171.594 92.090,172.796 93.462 C 175.655 96.727,178.925 101.535,181.800 106.703 C 182.177 107.380,188.700 118.481,189.726 120.190 C 189.987 120.625,190.751 121.885,191.424 122.990 C 192.098 124.096,192.784 125.359,192.949 125.797 C 193.387 126.959,194.053 125.952,198.101 118.022 C 212.657 89.504,212.729 89.384,217.175 86.018 C 218.179 85.258,219.060 84.493,219.133 84.318 C 219.207 84.143,219.495 84.000,219.774 84.000 C 220.053 84.000,221.127 83.550,222.162 83.000 C 223.196 82.450,224.438 81.997,224.921 81.994 C 225.405 81.991,226.520 81.729,227.400 81.412 C 229.332 80.715,237.819 80.609,240.200 81.250 " stroke="none" fill="#ddfb71" fill-rule="evenodd"></path></g></svg>