<?xml version="1.0" encoding="utf-8"?>
<!-- Generator: Adobe Illustrator 19.1.1, SVG Export Plug-In . SVG Version: 6.00 Build 0)  -->
<svg version="1.1" id="Слой_1" xmlns="http://www.w3.org/2000/svg" xmlns:xlink="http://www.w3.org/1999/xlink" x="0px" y="0px"
	 viewBox="0 0 563.2 248.2" style="enable-background:new 0 0 563.2 248.2;" xml:space="preserve">
<style type="text/css">
	.st0{fill:#393C4C;}
	.st1{fill:#A9D6E6;}
	.st2{fill:#5AB9E1;}
</style>
<g>
	<g>
		<path class="st0" d="M285.7,159.1l1.3,9.2l2-8.3l13.8-48.8h7.8l13.5,48.8l1.9,8.5l1.5-9.4l10.9-47.8h9.3l-17,69.9h-8.4l-14.4-51
			l-1.1-5.3l-1.1,5.3l-14.9,51h-8.4l-16.9-69.9h9.2L285.7,159.1z"/>
		<path class="st0" d="M366.8,181.1h-9.2v-69.9h9.2V181.1z"/>
		<path class="st0" d="M435.8,181.1h-9.3l-35.2-53.9v53.9H382v-69.9h9.3l35.3,54.1v-54.1h9.2V181.1z"/>
		<path class="st0" d="M502.2,172c-2.4,3.4-5.7,5.9-9.9,7.6s-9.2,2.5-14.8,2.5c-5.7,0-10.8-1.3-15.2-4c-4.4-2.7-7.8-6.5-10.3-11.4
			c-2.4-4.9-3.7-10.6-3.7-17.1v-6.1c0-10.5,2.5-18.7,7.4-24.5c4.9-5.8,11.8-8.7,20.7-8.7c7.3,0,13.2,1.9,17.6,5.6
			c4.4,3.7,7.2,9,8.2,15.9H493c-1.7-9.3-7.2-13.9-16.5-13.9c-6.2,0-10.9,2.2-14,6.5c-3.2,4.3-4.8,10.6-4.8,18.9v5.7
			c0,7.9,1.8,14.1,5.4,18.7s8.4,6.9,14.6,6.9c3.5,0,6.5-0.4,9.1-1.1c2.6-0.8,4.7-2.1,6.4-3.9v-15.7h-16.2v-7.5h25.4L502.2,172
			L502.2,172z"/>
		<path class="st0" d="M536.6,150c-7.9-2.3-13.7-5.1-17.3-8.4c-3.6-3.3-5.4-7.4-5.4-12.3c0-5.5,2.2-10.1,6.6-13.7s10.1-5.4,17.2-5.4
			c4.8,0,9.1,0.9,12.8,2.8c3.8,1.9,6.7,4.4,8.7,7.7c2.1,3.3,3.1,6.8,3.1,10.7h-9.3c0-4.2-1.3-7.6-4-10s-6.5-3.6-11.4-3.6
			c-4.5,0-8.1,1-10.6,3c-2.5,2-3.8,4.8-3.8,8.3c0,2.9,1.2,5.3,3.6,7.2c2.4,2,6.5,3.8,12.3,5.4c5.8,1.6,10.4,3.4,13.6,5.4
			c3.3,2,5.7,4.3,7.3,6.9c1.6,2.6,2.4,5.7,2.4,9.3c0,5.7-2.2,10.2-6.6,13.6c-4.4,3.4-10.3,5.1-17.7,5.1c-4.8,0-9.3-0.9-13.4-2.8
			c-4.2-1.8-7.4-4.4-9.6-7.6c-2.3-3.2-3.4-6.8-3.4-10.9h9.3c0,4.2,1.6,7.6,4.7,10c3.1,2.4,7.3,3.7,12.5,3.7c4.9,0,8.6-1,11.2-3
			c2.6-2,3.9-4.7,3.9-8.1s-1.2-6.1-3.6-7.9S542.9,151.8,536.6,150z"/>
	</g>
	<g>
		<polygon class="st0" points="17.6,47.9 152.3,54.5 183.7,118.7 136.5,162.4 116.7,80.5 		"/>
		<polygon class="st1" points="31.1,248.7 253.9,39.1 273.6,92.1 248.4,83.3 248.4,136.8 		"/>
		<polygon class="st2" points="-0.7,0.6 164.6,10.7 228.6,147 161.8,181.4 125.5,41.9 		"/>
	</g>
</g>
</svg>