<svg width="64" height="64" viewBox="0 0 64 64" fill="none" xmlns="http://www.w3.org/2000/svg">
<path d="M11.3879 46.6151V55.4001L22.8037 48.9366C25.4848 47.4182 28.5236 46.6151 31.5928 46.6151V41.1237C27.6104 41.1237 23.6657 42.1657 20.1865 44.1364L16.7759 46.0673V41.1237H11.3879V23.2764H11.3933C18.1587 23.2764 21.1558 26.0999 27.7218 32.2856L27.7235 32.2872L27.788 32.3479C28.4251 32.948 29.0901 33.5743 29.7885 34.2257C30.5037 34.8929 31.169 35.5327 31.8189 36.1456L31.8193 36.146C38.7493 42.6744 42.9324 46.6151 51.8069 46.6151H57.2002V17.785H51.8123V9L40.3966 15.4634C37.7154 16.9825 34.6766 17.785 31.6075 17.785V23.2764C35.5898 23.2764 39.5345 22.2344 43.0138 20.2637L46.4243 18.3327V23.2764H51.8123V41.1237H51.8069C45.0416 41.1237 42.0444 38.3002 35.4784 32.1144L35.4767 32.1129C34.82 31.4944 34.148 30.8478 33.426 30.1744C32.7108 29.5072 32.0312 28.8674 31.3813 28.2551C24.451 21.7258 20.268 17.785 11.3933 17.785H6V46.6151H11.3879Z" fill="#3F73B2"/>
</svg>
