<?xml version="1.0" encoding="UTF-8" standalone="no"?>
<svg
   xmlns:dc="http://purl.org/dc/elements/1.1/"
   xmlns:cc="http://creativecommons.org/ns#"
   xmlns:rdf="http://www.w3.org/1999/02/22-rdf-syntax-ns#"
   xmlns:svg="http://www.w3.org/2000/svg"
   xmlns="http://www.w3.org/2000/svg"
   version="1.1"
   id="svg815"
   xml:space="preserve"
   width="128"
   height="128"
   viewBox="0 0 128.00001 128"><metadata
     id="metadata821"><rdf:RDF><cc:Work
         rdf:about=""><dc:format>image/svg+xml</dc:format><dc:type
           rdf:resource="http://purl.org/dc/dcmitype/StillImage" /><dc:title></dc:title></cc:Work></rdf:RDF></metadata><defs
     id="defs819"><clipPath
       clipPathUnits="userSpaceOnUse"
       id="clipPath831"><path
         d="M 0,1000 H 1000 V 0 H 0 Z"
         id="path829" /></clipPath></defs><g
     id="g823"
     transform="matrix(1.3333333,0,0,-1.3333333,-498.10758,790.44402)"><g
       id="g4635"
       style="fill:#29abb5;fill-opacity:1"
       transform="matrix(0.32629309,0,0,0.32629309,258.43409,357.54323)"><path
         d="m 418.3691,611.8931 c 1.529,0 2.92,-0.031 4.256,-0.097 0.655,-0.03 1.31,-0.061 1.929,-0.101 1.747,-0.112 3.504,-0.269 5.261,-0.483 -0.04,-0.05 -0.076,-0.107 -0.116,-0.157 3.986,-0.462 7.927,-1.173 11.796,-2.138 0.041,0.046 0.076,0.091 0.117,0.137 15.331,-3.804 29.535,-11.325 41.306,-21.902 6.597,-5.926 12.351,-12.767 17.084,-20.268 4.738,7.501 10.491,14.342 17.083,20.262 11.786,10.604 25.975,18.13 41.26,21.913 h 0.005 c 0.036,-0.045 0.077,-0.096 0.117,-0.142 1.331,0.335 2.671,0.63 4.017,0.904 2.554,0.523 5.16,0.934 7.775,1.234 -0.041,0.05 -0.076,0.107 -0.117,0.157 1.742,0.208 3.489,0.366 5.231,0.473 0.64,0.045 1.315,0.081 2.061,0.111 1.265,0.066 2.677,0.097 4.205,0.097 13.513,0 24.508,10.999 24.508,24.512 v 9.649 9.649 h -9.649 v -19.298 c 0,-8.196 -6.668,-14.864 -14.859,-14.864 -1.671,0 -3.229,-0.035 -4.641,-0.106 -0.813,-0.031 -1.554,-0.071 -2.265,-0.122 -3.961,-0.249 -7.937,-0.726 -11.843,-1.427 -0.599,-0.112 -1.198,-0.223 -1.792,-0.34 -0.224,-0.036 -0.452,-0.082 -0.686,-0.132 -3.291,-0.666 -6.541,-1.493 -9.74,-2.468 h -0.005 c -14.773,-4.5 -28.458,-12.214 -40.037,-22.624 -3.798,-3.418 -7.353,-7.109 -10.628,-11.05 -3.276,3.941 -6.831,7.638 -10.634,11.055 -11.563,10.395 -25.264,18.104 -40.078,22.613 h -0.005 c -3.316,1.011 -6.688,1.859 -10.1,2.545 -0.706,0.142 -1.412,0.274 -2.118,0.396 -3.956,0.711 -7.952,1.193 -11.908,1.442 -0.666,0.046 -1.377,0.081 -2.103,0.112 -1.483,0.071 -3.016,0.106 -4.687,0.106 -8.196,0 -14.869,6.668 -14.869,14.864 v 19.298 h -9.649 v -9.649 -9.649 c 0,-13.513 11,-24.512 24.518,-24.512"
         style="fill:#29abb5;fill-opacity:1;fill-rule:nonzero;stroke:none"
         id="path851" /><path
         d="m 581.6372,582.1362 c -0.941,0 -1.875,-0.023 -2.838,-0.068 -1.905,-0.077 -3.779,-0.236 -5.631,-0.471 2.041,-6.868 3.134,-14.138 3.134,-21.659 0,-42.088 -34.233,-76.328 -76.321,-76.328 -42.08,0 -76.321,34.24 -76.321,76.328 0,7.521 1.092,14.791 3.134,21.659 -1.829,0.227 -3.666,0.387 -5.51,0.463 l -0.083,0.008 c -0.949,0.045 -1.844,0.068 -2.831,0.068 -0.819,0 -1.631,0.015 -2.443,0.053 -1.89,-7.103 -2.892,-14.563 -2.892,-22.251 0,-47.946 39.007,-86.953 86.946,-86.953 47.946,0 86.945,39.007 86.945,86.953 0,7.688 -1.001,15.148 -2.891,22.251 -0.797,-0.038 -1.594,-0.053 -2.398,-0.053"
         style="fill:#29abb5;fill-opacity:1;fill-rule:nonzero;stroke:none"
         id="path855" /><path
         d="m 482.5835,634.2524 c 5.591,1.315 11.416,2.006 17.398,2.006 5.987,0 11.817,-0.696 17.413,-2.006 2.961,1.604 5.987,3.092 9.075,4.474 l 1.889,0.843 h 0.03 c 1.077,0.462 2.164,0.914 3.256,1.346 -9.817,3.854 -20.496,5.966 -31.663,5.966 -11.167,0 -21.847,-2.117 -31.663,-5.966 1.742,-0.691 3.469,-1.417 5.175,-2.179 3.087,-1.381 6.124,-2.874 9.09,-4.484"
         style="fill:#29abb5;fill-opacity:1;fill-rule:nonzero;stroke:none"
         id="path859" /><path
         d="m 615.7947,636.4038 c 0,-18.835 -15.322,-34.157 -34.157,-34.157 -1.397,0 -2.649,-0.031 -3.765,-0.092 -0.622,-0.022 -1.236,-0.053 -1.859,-0.098 -3.832,-0.235 -7.68,-0.736 -11.451,-1.495 -0.069,-0.008 -0.137,-0.023 -0.205,-0.038 -15.148,-3.051 -29.263,-10.154 -40.821,-20.551 -10.67,-9.585 -18.691,-21.59 -23.54,-34.81 -4.835,13.22 -12.856,25.225 -23.526,34.81 -11.634,10.458 -25.893,17.554 -41.071,20.589 -3.764,0.751 -7.596,1.26 -11.451,1.503 -0.585,0.037 -1.177,0.068 -1.761,0.09 -1.176,0.061 -2.421,0.092 -3.817,0.092 -18.844,0 -34.165,15.322 -34.165,34.157 h -10.625 c 0,-24.694 20.088,-44.782 44.79,-44.782 0.22,0 0.432,0 0.637,-0.008 0.956,-0.007 1.829,-0.03 2.679,-0.075 2.838,-0.121 5.661,-0.403 8.454,-0.843 14.518,-2.253 28.208,-8.719 39.227,-18.623 15.997,-14.38 25.225,-34.946 25.316,-56.438 v -0.091 l 0.008,-0.243 h 10.624 c 0,0.114 0,0.22 -0.007,0.334 h 0.015 c 0.083,21.492 9.312,42.058 25.316,56.438 10.147,9.122 22.524,15.36 35.82,18.032 1.108,0.227 2.231,0.424 3.354,0.599 2.823,0.448 5.684,0.721 8.553,0.843 0.797,0.037 1.647,0.06 2.588,0.067 0.22,0.008 0.447,0.008 0.683,0.008 24.694,0 44.782,20.088 44.782,44.782 z"
         style="fill:#29abb5;fill-opacity:1;fill-rule:nonzero;stroke:none"
         id="path863" /><path
         d="m 418.3691,631.1899 c 1.818,0 3.494,-0.035 5.124,-0.117 0.787,-0.035 1.559,-0.076 2.275,-0.121 5.088,-0.321 10.238,-0.996 15.311,-2.007 1.584,-0.314 3.164,-0.665 4.733,-1.056 4.321,-1.051 8.572,-2.351 12.731,-3.889 13.686,-5.059 26.356,-12.681 37.269,-22.492 1.427,-1.28 2.824,-2.605 4.19,-3.961 1.366,1.356 2.757,2.671 4.179,3.946 10.923,9.831 23.573,17.453 37.229,22.511 h 0.004 c 4.16,1.539 8.41,2.844 12.732,3.891 1.427,0.355 2.864,0.675 4.306,0.969 0.29,0.061 0.574,0.112 0.858,0.168 4.855,0.954 9.827,1.595 14.778,1.909 0.787,0.051 1.6,0.097 2.473,0.132 1.564,0.082 3.27,0.117 5.078,0.117 2.869,0 5.21,2.341 5.21,5.215 v 28.947 9.648 h -9.648 v -34.243 c -0.366,-0.009 -0.726,-0.03 -1.077,-0.045 -0.944,-0.036 -1.818,-0.086 -2.676,-0.147 -5.337,-0.335 -10.7,-1.026 -15.941,-2.057 -0.33,-0.061 -0.665,-0.127 -1.01,-0.198 -4.301,-0.873 -8.542,-1.975 -12.706,-3.301 -4.555,-1.432 -9.019,-3.133 -13.376,-5.089 h -0.005 c -10.959,-4.9 -21.212,-11.375 -30.408,-19.251 -9.192,7.871 -19.455,14.346 -30.445,19.257 -4.356,1.945 -8.825,3.646 -13.386,5.083 -4.326,1.366 -8.729,2.504 -13.203,3.397 -5.49,1.097 -11.076,1.828 -16.596,2.179 -0.761,0.045 -1.589,0.091 -2.447,0.127 -0.371,0.02 -0.747,0.036 -1.128,0.051 v 34.237 h -9.648 v -9.648 -28.947 c 0,-2.874 2.346,-5.215 5.22,-5.215"
         style="fill:#29abb5;fill-opacity:1;fill-rule:nonzero;stroke:none"
         id="path867" /><path
         d="m 460.3064,567.0493 c -3.066,2.497 -6.337,4.713 -9.774,6.618 -4.182,-3.453 -6.853,-8.682 -6.853,-14.511 0,-10.381 8.446,-18.82 18.828,-18.82 5.752,0 10.905,2.588 14.35,6.671 -1.859,3.46 -4.029,6.761 -6.488,9.857 -0.994,-3.407 -4.144,-5.903 -7.862,-5.903 -4.523,0 -8.204,3.672 -8.204,8.195 0,3.757 2.543,6.929 6.003,7.893"
         style="fill:#29abb5;fill-opacity:1;fill-rule:nonzero;stroke:none"
         id="path871" /><path
         d="m 537.4775,550.9609 c -3.719,0 -6.868,2.489 -7.854,5.896 -2.467,-3.088 -4.637,-6.389 -6.497,-9.85 3.446,-4.083 8.599,-6.671 14.351,-6.671 10.374,0 18.813,8.439 18.813,18.821 0,5.828 -2.664,11.057 -6.845,14.51 -3.43,-1.905 -6.701,-4.113 -9.767,-6.618 3.453,-0.963 5.987,-4.143 5.987,-7.892 0,-4.523 -3.673,-8.196 -8.188,-8.196"
         style="fill:#29abb5;fill-opacity:1;fill-rule:nonzero;stroke:none"
         id="path875" /></g></g></svg>
