<svg version="1.1" id="Layer_1" xmlns="http://www.w3.org/2000/svg" x="0" y="0" viewBox="0 0 1000 1000" xml:space="preserve"><style>.st1{fill:#fff}</style><circle cx="500" cy="500" r="500" fill="#212630"/><path class="st1" d="M842.86 256.38H728.28l-52.85 181.51H788.5zM637.15 569.3l-56.5-140.37c-12.87-35.48-45.24-58.92-81.36-58.92-35.76 0-67.88 22.98-81.01 57.96L359.51 569.3l-89.55-312.92H157.14l133.98 458.29c5.09 17.22 20.24 28.96 37.39 28.96h64.75c16.02 0 30.42-10.26 36.36-25.9l69.37-180.05 70.61 180.27c6 15.53 20.34 25.68 36.28 25.68h63.73c17.09 0 32.2-11.65 37.34-28.78l63.62-217.14H658.01l-20.86 71.59z"/></svg>