<svg xmlns="http://www.w3.org/2000/svg" viewBox="0 0 254.34 254.34"><defs><style>.cls-1{fill:#0175a9;}</style></defs><g id="Layer_2" data-name="Layer 2"><g id="Layer_1-2" data-name="Layer 1"><circle class="cls-1" cx="127.17" cy="127.03" r="119.64"/><path d="M127.17,254.34A127.17,127.17,0,1,1,254.34,127.17,127.32,127.32,0,0,1,127.17,254.34Zm0-246.81A119.65,119.65,0,1,0,246.82,127.17,119.78,119.78,0,0,0,127.17,7.53Z"/><polygon points="59.31 130.63 57.95 137.37 56.62 130.36 51.4 105.21 41.71 105.21 36.75 130.51 35.48 137.37 34.22 130.36 28.42 105.21 18.67 105.21 31.13 149.14 39.65 149.14 44.96 123.45 46.51 114.95 48.06 123.45 53.36 149.14 62.15 149.14 74.51 105.21 65.17 105.21 59.31 130.63"/><path d="M228.91,127.17a101.43,101.43,0,0,0-24.08-65.7l12.85-12.86L205.47,36.4,192.61,49.27a101.66,101.66,0,0,0-131.71.47L48,36.78,35.74,49l13,13A102,102,0,0,0,33,87.92H50.58a86,86,0,1,1-.14,78.23H32.93a102,102,0,0,0,16.2,26.6L36.22,205.66l12.21,12.21L61.33,205a101.65,101.65,0,0,0,130.85.47l12.91,12.91,12.21-12.21L204.47,193.3A101.43,101.43,0,0,0,228.91,127.17Z"/><g id="_8vLjDG.tif" data-name="8vLjDG.tif"><path d="M92.27,86.16l4.94,4.9q8.7,8.63,17.41,17.24a17.31,17.31,0,0,0,9.25,4.94,17.12,17.12,0,0,0,14.67-3.89c1.39-1.17,2.63-2.51,3.92-3.78l19.48-19.26.13-.15h14.27l-14.07,13.93-15.54,15.38A27.78,27.78,0,0,1,111,118.35a34.89,34.89,0,0,1-4.29-3.76L78.17,86.34,78,86.16Z"/><path d="M176.51,167.9h-14a.55.55,0,0,1-.43-.18L139.6,145.47a17.59,17.59,0,0,0-24.76-.06c-7.55,7.4-15,14.86-22.56,22.29a.59.59,0,0,1-.47.2h-14l.2-.22,29.63-29.32a27.75,27.75,0,0,1,39.08.08l29.54,29.23Z"/></g></g></g></svg>