<?xml version="1.0" encoding="UTF-8" standalone="no"?>
<svg
   xmlns:dc="http://purl.org/dc/elements/1.1/"
   xmlns:cc="http://creativecommons.org/ns#"
   xmlns:rdf="http://www.w3.org/1999/02/22-rdf-syntax-ns#"
   xmlns:svg="http://www.w3.org/2000/svg"
   xmlns="http://www.w3.org/2000/svg"
   xmlns:sodipodi="http://sodipodi.sourceforge.net/DTD/sodipodi-0.dtd"
   xmlns:inkscape="http://www.inkscape.org/namespaces/inkscape"
   viewBox="0 0 152.94533 165.63489"
   height="165.63489"
   width="152.94533"
   xml:space="preserve"
   id="svg2"
   version="1.1"
   sodipodi:docname="logo.svg"
   inkscape:version="0.92.2 5c3e80d, 2017-08-06"><sodipodi:namedview
     pagecolor="#ffffff"
     bordercolor="#666666"
     borderopacity="1"
     objecttolerance="10"
     gridtolerance="10"
     guidetolerance="10"
     inkscape:pageopacity="0"
     inkscape:pageshadow="2"
     inkscape:window-width="1366"
     inkscape:window-height="705"
     id="namedview10"
     showgrid="false"
     inkscape:zoom="0.184375"
     inkscape:cx="-823.70285"
     inkscape:cy="45.598642"
     inkscape:window-x="1194"
     inkscape:window-y="735"
     inkscape:window-maximized="0"
     inkscape:current-layer="svg2" /><metadata
     id="metadata8"><rdf:RDF><cc:Work
         rdf:about=""><dc:format>image/svg+xml</dc:format><dc:type
           rdf:resource="http://purl.org/dc/dcmitype/StillImage" /><dc:title /></cc:Work></rdf:RDF></metadata><defs
     id="defs6"><clipPath
       id="clipPath20"
       clipPathUnits="userSpaceOnUse"><path
         id="path18"
         d="M 0,960 H 960 V 0 H 0 Z"
         inkscape:connector-curvature="0" /></clipPath></defs><g
     style="display:inline"
     transform="matrix(1.3333333,0,0,-1.3333333,-411.49946,760.03625)"
     id="g10"><g
       style="display:inline"
       transform="translate(372.4766,529.0912)"
       id="g26"><path
         id="path28"
         style="fill:#e22f32;fill-opacity:1;fill-rule:nonzero;stroke:none"
         d="m 0,0 c -2.862,0.375 -4.227,1.784 -4.227,1.784 1.25,2.959 -3.875,10 -3.875,10 C -8.102,11.784 1.25,5.25 0,0 m 39.523,-47.091 c 0,0 11.334,6 11.334,19.125 -1.834,-6.333 -7,-8.541 -7,-8.541 0,0 7.541,11.791 2.083,28.833 C 39.215,13.774 17.971,25.708 -3.601,25.825 12.398,24.034 20.586,7.034 20.586,7.034 c 0,0 -0.438,5.438 -2.375,10.188 17.437,-7 24.045,-26.383 22.312,-41.479 -2.049,-17.856 -14.913,-34.88 -29.187,-40.257 0,0 1.085,2.639 0.96,6.139 -16.977,-12.862 -36.318,0.492 -36.86,0.833 -11.579,7.285 -15.005,21.154 -15.005,21.154 5.666,-12.334 19.547,-12.487 19.547,-12.487 0,0 -0.678,11.328 26.958,2.31 0,0 5.573,1.037 8.833,3.273 0.63,0.432 0.012,2.452 0.582,2.934 0.621,0.526 1.19,1.078 1.668,1.65 0.465,0.555 -0.628,2.368 -0.295,2.893 0.716,1.131 1.065,2.158 0.795,2.94 -1.583,4.583 -1.666,7.25 -4.916,7.25 3.083,-1.417 0.083,-6.333 0.083,-6.333 0,0 -0.667,-2.584 -5.215,-3.483 -0.365,-0.072 -4.136,0.621 -5.285,2.399 -0.829,1.285 0.875,3.334 1.583,3.834 C 3.269,-29.292 0.353,-32 0.353,-32 c 0,0 -0.625,-3.417 0.308,-5.333 -31.892,0 -41.725,35.856 -23.058,45.19 -5.167,-6.834 -2.75,-13.834 -2.75,-13.834 0,0 12.25,9 24.583,-8.833 0.603,-0.871 2.917,-3.833 0.667,-5.833 1.583,-0.167 8.441,6.986 8,14 -0.805,12.787 -6.2,19.566 -13.053,24.585 -10.066,7.372 -24.466,9.756 -30.887,22.994 0.625,-9.875 8.86,-18.527 8.86,-18.527 0,0 -12.541,-3.125 -21.375,-10.875 6.042,3.625 14.25,0.625 14.25,0.625 0,0 -15.25,-2.416 -21.291,-9.708 3.875,2.062 11.916,1.458 11.916,1.458 0,0 -12.625,-3.625 -18.125,-15 6.167,5.084 13.75,5.5 13.75,5.5 0,0 -12.125,-5.5 -16,-19.875 3.066,5.1 10.625,8.209 10.625,8.209 0,0 -8,-7.834 -7.337,-21.785 0.866,1.524 3.205,1.69 3.205,1.69 0,0 2.628,-32.856 37.403,-43.663 13.392,-4.161 26.536,-2.081 36.699,1.957 -5.553,0.717 -8.47,2.801 -8.47,2.801 4.256,0.25 17.188,0.916 25.063,6.166 -3.875,-0.437 -8.625,0.688 -11.063,1.75 9.75,1.875 19.041,7.041 22.75,10.75 -4.375,-1.5 -11.5,-1.625 -11.5,-1.625 0,0 11.25,4.417 16.25,15.25 -4.5,-3.166 -10.25,-3.125 -10.25,-3.125"
         inkscape:connector-curvature="0" /></g></g></svg>