<?xml version="1.0" encoding="utf-8"?>
<!-- Generator: Adobe Illustrator 19.2.1, SVG Export Plug-In . SVG Version: 6.00 Build 0)  -->
<svg version="1.1" id="Ebene_1" xmlns="http://www.w3.org/2000/svg" xmlns:xlink="http://www.w3.org/1999/xlink" x="0px" y="0px"
	 viewBox="0 0 100 100" style="enable-background:new 0 0 100 100;" xml:space="preserve">
<style type="text/css">
	.st0{fill:#876C3C;}
</style>
<g>
	<polygon class="st0" points="23.6,77.8 22.6,77.8 18.8,82.7 15,77.8 14,77.8 18.3,83.3 13.8,89 14.8,89 18.8,83.9 22.8,89 23.8,89 
		19.3,83.3 	"/>
	<path class="st0" d="M30.5,77.7L25.3,89h0.9l1.4-3.1h6.6l1.4,3.1h0.9l-5.2-11.3H30.5z M27.9,85.1l3-6.5l3,6.5H27.9z"/>
	<path class="st0" d="M47.1,84.4c0,0.7-0.1,1.3-0.3,1.8c-0.2,0.5-0.4,0.9-0.8,1.3c-0.3,0.3-0.7,0.6-1.2,0.8c-0.5,0.2-1,0.3-1.5,0.3
		c-1.2,0-2.1-0.4-2.8-1.1c-0.7-0.7-1-1.8-1-3.1v-6.5h-0.8v6.6c0,0.8,0.1,1.5,0.3,2.1c0.2,0.6,0.5,1.1,1,1.5c0.4,0.4,0.9,0.7,1.5,0.9
		c0.6,0.2,1.2,0.3,1.9,0.3c0.7,0,1.3-0.1,1.9-0.3c0.6-0.2,1-0.5,1.5-0.9c0.4-0.4,0.7-0.9,0.9-1.5c0.2-0.6,0.3-1.3,0.3-2.1v-6.5h-0.8
		V84.4z"/>
	<path class="st0" d="M57.9,83.9c0.4-0.2,0.7-0.4,1-0.6c0.3-0.3,0.5-0.6,0.7-1c0.2-0.4,0.2-0.8,0.2-1.3v0c0-0.4-0.1-0.8-0.2-1.1
		c-0.1-0.4-0.4-0.7-0.6-0.9c-0.3-0.3-0.8-0.6-1.3-0.8c-0.5-0.2-1.2-0.3-1.8-0.3h-4.7V89H52v-4.7h3.6h0l3.6,4.7h1.1l-3.7-4.8
		C57,84.2,57.5,84.1,57.9,83.9z M52,83.6v-5.1h3.8c1,0,1.8,0.2,2.4,0.7c0.6,0.4,0.8,1,0.8,1.8v0c0,0.4-0.1,0.8-0.2,1.1
		c-0.2,0.3-0.4,0.6-0.7,0.8c-0.3,0.2-0.6,0.4-1,0.5c-0.4,0.1-0.8,0.2-1.3,0.2H52z"/>
	<path class="st0" d="M70.9,84.4c0,0.7-0.1,1.3-0.3,1.8c-0.2,0.5-0.4,0.9-0.8,1.3c-0.3,0.3-0.7,0.6-1.2,0.8c-0.5,0.2-1,0.3-1.5,0.3
		c-1.2,0-2.1-0.4-2.8-1.1c-0.7-0.7-1-1.8-1-3.1v-6.5h-0.8v6.6c0,0.8,0.1,1.5,0.3,2.1c0.2,0.6,0.5,1.1,1,1.5c0.4,0.4,0.9,0.7,1.5,0.9
		c0.6,0.2,1.2,0.3,1.9,0.3c0.7,0,1.3-0.1,1.9-0.3c0.6-0.2,1-0.5,1.5-0.9c0.4-0.4,0.7-0.9,0.9-1.5s0.3-1.3,0.3-2.1v-6.5h-0.8V84.4z"
		/>
	<polygon class="st0" points="80.2,84.4 75.7,77.8 74.9,77.8 74.9,89 75.7,89 75.7,79.3 80.2,85.7 80.2,85.7 84.7,79.3 84.7,89 
		85.5,89 85.5,77.8 84.7,77.8 	"/>
	<path class="st0" d="M68.4,37.3v-3.9h7.2v-4.3h5.1V12.9h5.4v-2.1H64.3v2.1h9.3v13.1h-5.1v3.9h-7.2v2h-7.4c0.1-0.1,0.1-0.2,0.2-0.4
		c0.6-1.2,1.5-1.7,2.1-1.8c-0.3,0.2-0.4,0.5-0.4,0.8c0,0.6,0.5,1.1,1.2,1.1c0.4,0,0.8-0.2,1-0.5c0,0,0,0,0,0
		c0.3-0.4,0.4-0.8,0.2-1.2c-0.3-0.6-1.1-1-1.9-1c-0.8,0-2.1,0.6-3,2.3c-0.1,0.3-0.3,0.5-0.4,0.8l-2.8-7.2l-2.8,7.1
		c-0.1-0.2-0.2-0.4-0.3-0.6c-0.9-1.7-2.2-2.3-3-2.3c-0.8,0-1.6,0.4-1.9,1c-0.2,0.4-0.1,0.8,0.2,1.2c0,0,0,0,0,0
		c0.2,0.3,0.6,0.5,1,0.5c0.7,0,1.2-0.5,1.2-1.1c0-0.3-0.2-0.6-0.4-0.8c0.6,0.1,1.5,0.6,2.1,1.8c0.1,0.1,0.1,0.2,0.2,0.4h-7.5v-2
		h-7.2v-3.9h-5.1V12.9h9.3v-2.1H14v2.1h5.4v16.3h5.1v4.3h7.2v3.9h6.9v1.8l-5.2,2l5.2,2v1.5h-6.9v3.9h-7.2v4.3h-5.1v16.3H14v2.1h21.9
		v-2.1h-9.3V55.9h5.1v-3.9h7.2v-1.9h7.5c-0.1,0.1-0.1,0.3-0.2,0.4c-0.6,1.2-1.5,1.7-2.1,1.8c0.3-0.2,0.4-0.5,0.4-0.8
		c0-0.6-0.5-1.1-1.2-1.1c-0.4,0-0.8,0.2-1,0.5c0,0,0,0,0,0c-0.3,0.4-0.4,0.8-0.2,1.2c0.3,0.6,1.1,1,1.9,1c0.8,0,2.1-0.6,3-2.3
		c0.1-0.1,0.1-0.3,0.2-0.4l2.9,7.4l2.9-7.5c0.1,0.2,0.2,0.4,0.3,0.5c0.9,1.7,2.2,2.3,3,2.3c0.8,0,1.6-0.4,1.9-1
		c0.2-0.4,0.1-0.8-0.2-1.2c0,0,0,0,0,0c-0.2-0.3-0.6-0.5-1-0.5c-0.7,0-1.2,0.5-1.2,1.1c0,0.3,0.2,0.6,0.4,0.8
		c-0.6-0.1-1.5-0.6-2.1-1.8c-0.1-0.1-0.1-0.3-0.2-0.4h7.4v1.9h7.2v3.9h5.1v13.1h-9.3v2.1h21.9v-2.1h-5.4V52.8h-5.1v-4.3h-7.2v-3.9
		h-7v-1.5l5.3-2.1l-5.3-2.1v-1.7H68.4z M60.2,41.2c-0.2,0-0.3,0.1-0.5,0.2c0,0-0.1,0-0.1,0.1c0,0-0.1,0.1-0.2,0.1
		c-0.1,0-0.1,0.1-0.1,0.1c0,0-0.1,0-0.1,0c0,0-0.1,0-0.1,0.1c-0.1,0-0.1,0.1-0.1,0.1c0,0,0,0,0,0c0,0,0,0,0,0h0c0,0,0,0-0.1,0
		c0,0-0.1-0.1-0.1-0.1c0,0-0.1-0.1-0.1-0.1c0,0-0.1,0-0.1-0.1c-0.1-0.1-0.3-0.2-0.4-0.3c-0.2-0.1-0.3-0.1-0.5-0.1h-1.9
		c0.1,0,0.2,0.1,0.3,0.1c0.1,0,0.2,0,0.3,0.1c0.4,0.2,0.8,0.4,1.2,0.6c0.4,0.2,0.7,0.5,1,0.9l-0.1,0.1l-1.1,0.9l-0.1,0
		c-0.1-0.3-0.2-0.6-0.4-0.9c-0.2-0.3-0.4-0.5-0.7-0.7c-0.3-0.2-0.5-0.4-0.8-0.6c-0.1-0.1-0.3-0.2-0.4-0.2L53.1,43l1,2.2l-2.2-1
		L50,46.1l-1.9-1.9l-2.2,1l1-2.2l-1.4-1.4c-0.2,0.1-0.5,0.2-0.7,0.4c-0.3,0.2-0.5,0.4-0.7,0.6c-0.2,0.2-0.4,0.4-0.6,0.7
		c-0.2,0.3-0.3,0.5-0.4,0.8l-1.2-1L41.8,43c0.3-0.4,0.6-0.7,1-0.9c0.4-0.2,0.8-0.4,1.2-0.6c0.1,0,0.2,0,0.3-0.1
		c0.1,0,0.2-0.1,0.3-0.1h-1.8c-0.1,0-0.2,0-0.4,0.1c-0.1,0-0.3,0.1-0.4,0.2c-0.1,0.1-0.2,0.1-0.4,0.2c-0.1,0.1-0.2,0.2-0.3,0.2h0
		c0,0-0.1,0-0.2-0.1c-0.1-0.1-0.1-0.1-0.2-0.1c-0.2-0.1-0.4-0.2-0.5-0.3c-0.2-0.1-0.4-0.1-0.6-0.2c-0.1,0-0.1,0-0.2,0
		c-0.1,0-0.1,0-0.2,0c0.2-0.1,0.3-0.1,0.5-0.1c0.2,0,0.3-0.1,0.5-0.2c0,0,0.1,0,0.1-0.1c0,0,0.1-0.1,0.2-0.1c0.1,0,0.1-0.1,0.1-0.1
		c0,0,0.1,0,0.1,0c0,0,0.1,0,0.1-0.1c0.1,0,0.1-0.1,0.1-0.1c0,0,0,0,0,0c0,0,0,0,0,0h0c0,0,0,0,0.1,0c0,0,0.1,0.1,0.1,0.1
		c0,0,0.1,0.1,0.1,0.1c0,0,0.1,0,0.1,0.1c0.1,0.1,0.3,0.2,0.4,0.3c0.2,0.1,0.3,0.1,0.5,0.1h1.9c-0.1,0-0.2-0.1-0.3-0.1
		c-0.1,0-0.2,0-0.3-0.1c-0.4-0.2-0.8-0.4-1.2-0.6c-0.4-0.2-0.7-0.5-1-0.9l0.1-0.1l1.1-0.9l0.1,0c0.1,0.3,0.2,0.6,0.4,0.9
		c0.2,0.3,0.4,0.5,0.7,0.7c0.3,0.2,0.5,0.4,0.8,0.6c0.1,0.1,0.2,0.1,0.4,0.2l1.6-1.6l-1-2.2l2.2,1l1.8-1.8l1.9,1.9l2.2-0.9l-0.9,2.2
		l1.5,1.5c0,0,0,0,0,0c0.3-0.1,0.6-0.3,0.8-0.4c0.3-0.2,0.5-0.4,0.7-0.6c0.2-0.2,0.4-0.4,0.6-0.7c0.2-0.3,0.3-0.5,0.4-0.8l1.2,1
		l0.1,0.1c-0.3,0.4-0.6,0.7-1,0.9c-0.4,0.2-0.8,0.4-1.2,0.6c-0.1,0-0.2,0-0.3,0.1c-0.1,0-0.2,0.1-0.3,0.1h1.8c0.1,0,0.2,0,0.4-0.1
		c0.1,0,0.3-0.1,0.4-0.2c0.1-0.1,0.2-0.1,0.4-0.2c0.1-0.1,0.2-0.2,0.3-0.2h0c0,0,0.1,0,0.2,0.1c0.1,0.1,0.1,0.1,0.2,0.1
		c0.2,0.1,0.4,0.2,0.5,0.3c0.2,0.1,0.4,0.1,0.6,0.2c0.1,0,0.1,0,0.2,0c0.1,0,0.1,0,0.2,0C60.5,41.1,60.3,41.1,60.2,41.2z"/>
</g>
</svg>
