<svg width="500" height="500" viewBox="0 0 500 500" fill="none" xmlns="http://www.w3.org/2000/svg">
<path d="M250 500C388.071 500 500 388.071 500 250C500 111.929 388.071 0 250 0C111.929 0 0 111.929 0 250C0 388.071 111.929 500 250 500Z" fill="#000000"/>
<path d="M248.547 126.323H248.547C243.768 126.323 239.895 130.196 239.895 134.975V365.638C239.895 370.416 243.768 374.29 248.547 374.29C253.325 374.29 257.199 370.416 257.199 365.638V134.975C257.199 130.196 253.325 126.323 248.547 126.323Z" fill="white"/>
<path d="M248.547 126.323H248.547C253.325 126.323 257.199 130.196 257.199 134.975V365.638C257.199 370.416 253.325 374.29 248.547 374.29H248.547C243.768 374.29 239.895 370.416 239.895 365.638V134.975C239.895 130.196 243.768 126.323 248.547 126.323Z" stroke="white"/>
<path d="M374.506 249.91V249.91C374.506 245.131 370.632 241.258 365.854 241.258L135.191 241.258C130.413 241.258 126.539 245.131 126.539 249.91C126.539 254.688 130.413 258.562 135.191 258.562H365.854C370.632 258.562 374.506 254.688 374.506 249.91Z" fill="white"/>
<path d="M374.506 249.91V249.91C374.506 254.688 370.632 258.562 365.854 258.562H135.191C130.413 258.562 126.539 254.688 126.539 249.91V249.91C126.539 245.131 130.413 241.258 135.191 241.258L365.854 241.258C370.632 241.258 374.506 245.131 374.506 249.91Z" stroke="white"/>
<path d="M338.304 338.419L338.304 338.419C341.683 335.04 341.683 329.562 338.304 326.183L175.201 163.08C171.822 159.701 166.344 159.701 162.965 163.08C159.586 166.458 159.586 171.937 162.965 175.315L326.068 338.419C329.447 341.797 334.925 341.798 338.304 338.419Z" fill="white"/>
<path d="M338.304 338.419L338.304 338.419C334.925 341.798 329.447 341.797 326.068 338.419L162.965 175.315C159.586 171.937 159.586 166.458 162.965 163.08L162.965 163.08C166.344 159.701 171.822 159.701 175.201 163.08L338.304 326.183C341.683 329.562 341.683 335.04 338.304 338.419Z" stroke="white"/>
<path d="M126.737 371.115L126.737 371.115C130.115 374.493 135.594 374.493 138.972 371.115L370.307 139.78C373.686 136.401 373.686 130.923 370.307 127.544C366.928 124.165 361.45 124.165 358.071 127.544L126.737 358.879C123.358 362.258 123.358 367.736 126.737 371.115Z" fill="white"/>
<path d="M126.737 371.115L126.737 371.115C123.358 367.736 123.358 362.258 126.737 358.879L358.071 127.544C361.45 124.165 366.928 124.165 370.307 127.544L370.307 127.544C373.686 130.923 373.686 136.401 370.307 139.78L138.972 371.115C135.594 374.493 130.115 374.493 126.737 371.115Z" stroke="white"/>
</svg>
