<?xml version="1.0" encoding="utf-8"?>
<!-- Generator: Adobe Illustrator 16.0.2, SVG Export Plug-In . SVG Version: 6.00 Build 0)  -->
<!DOCTYPE svg PUBLIC "-//W3C//DTD SVG 1.1//EN" "http://www.w3.org/Graphics/SVG/1.1/DTD/svg11.dtd">
<svg version="1.1" id="Layer_1" xmlns="http://www.w3.org/2000/svg" xmlns:xlink="http://www.w3.org/1999/xlink" x="0px" y="0px"
	 width="629.29px" height="629.29px" viewBox="0 0 629.29 629.29" enable-background="new 0 0 629.29 629.29" xml:space="preserve">
<polyline fill="#E51838" points="117.117,451.076 510.104,451.076 510.104,353.625 "/>
<polyline fill-rule="evenodd" clip-rule="evenodd" points="372.695,204.205 450.591,204.205 479.287,258.876 508.561,204.205 
	584.184,204.205 532.58,308.354 589.764,413.828 510.116,413.828 467.555,336.264 461.373,336.277 475.813,361.93 448.127,413.828 
	369.217,413.828 424.077,309.016 "/>
<polyline points="149.49,204.205 149.49,413.482 83.471,413.482 83.471,288.268 110.333,288.193 110.342,282.664 46.371,282.569 
	83.49,204.205 "/>
<g>
	<path d="M315.147,218.415l-35.395,66.089c0.476,0.413,0.922,0.824,1.334,1.227c6.248,6.111,9.688,14.52,9.688,23.677
		c0,9.156-3.441,17.564-9.689,23.677c-3.59,3.514-9.626,7.699-17.988,7.699c-4.681,0-8.632-1.313-11.834-3.084l-34.027,63.535
		c14.152,8.033,30.362,12.594,47.588,12.594c55.257,0,100.05-46.926,100.05-104.812
		C364.875,270.352,344.887,236.582,315.147,218.415z"/>
	<path d="M245.11,333.084c-6.248-6.113-9.688-14.521-9.688-23.677c0-9.157,3.44-17.565,9.688-23.677
		c3.591-3.514,9.626-7.7,17.988-7.7c4.693,0,8.653,1.319,11.86,3.097l34.995-65.675c-13.56-7.191-28.891-11.248-45.127-11.248
		c-55.256,0-100.051,46.926-100.051,104.812c0,37.789,19.091,70.9,47.717,89.343l34.072-63.945
		C246.041,333.969,245.556,333.52,245.11,333.084z"/>
</g>
</svg>
