<svg width="22" height="22" viewBox="0 0 22 22" fill="none" xmlns="http://www.w3.org/2000/svg">
<path fill-rule="evenodd" clip-rule="evenodd" d="M22 11.0001C22 17.0752 17.0752 22 10.9999 22C4.92481 22 0 17.0752 0 11.0001C0 4.92501 4.92481 0 10.9999 0C17.0752 0 22 4.92501 22 11.0001" fill="white"/>
<path d="M17.513 19.8656C20.2342 17.8631 22 14.6378 22 11.0001C22 4.92501 17.0752 0 10.9999 0C4.92481 0 0 4.92501 0 11.0001C0 14.6379 1.76585 17.8632 4.48715 19.8657L10.1081 10.9775H4.35665V9.08278H10.1081V7.13281H4.35665V5.2381H17.6434V7.13281H11.8931V9.08278H17.6434V10.9775H11.8931L17.513 19.8656Z" fill="#E3232C"/>
<path d="M15.9665 20.8177L10.9999 12.9606L6.03346 20.8177C7.52537 21.5739 9.21288 22 10.9999 22C12.787 22 14.4745 21.5739 15.9665 20.8177Z" fill="#E3232C"/>
</svg>
