<svg xmlns="http://www.w3.org/2000/svg" id="Group_29978" width="256" height="256" data-name="Group 29978" viewBox="0 0 256 256"><defs><linearGradient id="linear-gradient" x1="1" x2="0" y1=".527" y2=".53" gradientUnits="objectBoundingBox"><stop offset="0" stop-color="#075eb6"/><stop offset="1" stop-color="#0377fc"/></linearGradient><style>.cls-2{fill:#fff}</style></defs><circle id="Ellipse_991" cx="128" cy="128" r="128" fill="url(#linear-gradient)" data-name="Ellipse 991"/><g id="Group_29977" data-name="Group 29977" transform="translate(1680.221 18360.523)"><path id="Path_9212" d="M-319.405 3483.155c3.505 2.359 6.5 4.015 9.061 6.187a141.822 141.822 0 0110.31 9.837c5 5.188 7.149 11.683 8.19 18.673 1.75 11.754-1.505 21.866-8.644 31.349-10.056 13.358-32.271 18.531-45.527 12.45-7.333-3.365-13.96-7.555-18.238-13.93-6.531-9.729-10.661-20.542-5.831-32.617 1.248-3.121 2.42-6.275 3.738-9.7-4.99 1-9.923 1.979-14.885 2.97-.853-3.422-1.7-6.379-2.248-9.4a2.571 2.571 0 011.448-2.055c10.962-2.32 21.965-4.448 32.925-6.771 1.95-.416 2.5.16 2.712 1.9.768 6.242 1.55 12.485 2.415 18.713.645 4.646 1.336 9.292 2.189 13.9.358 1.936-.075 2.826-2.089 3-2.941.252-5.871.638-8.91.982l-2.763-18.35c-4.1 7.373-6.849 13.914-4.044 21.6 2.239 6.134 5.356 11.763 10.769 15.427 8.72 5.908 18.185 7.544 28.26 3.285a27.909 27.909 0 0013.485-11.3 28.258 28.258 0 003.446-22.761c-1.964-7.261-5.832-13.033-12.5-16.9-2.064-1.2-3.687-3.013-3.349-6.027.355-3.157.08-6.389.08-10.462z" class="cls-2" data-name="Path 9212" transform="translate(-1221.731 -21713.785)"/><path id="Path_9213" d="M-287.513 3407.323c4.909-1.666 9.412-3.19 14.388-4.879 1.031 2.958 2.164 5.705 2.86 8.559a3.209 3.209 0 01-1.619 2.634q-14.473 5.563-29.065 10.8c-4.117 1.49-4.1 1.146-5.2-3.065-2.144-8.25-4.666-16.4-7.02-24.6-.644-2.24-1.244-4.5-1.951-7.065a79.593 79.593 0 019.621-2.767c.656-.117 2.089 2.007 2.519 3.313.931 2.826 1.384 5.8 2.155 8.686.379 1.426 1.029 2.77 1.753 4.67 3.175-5.816 3.416-11.532 2.455-17.336a27.71 27.71 0 00-15.114-20.725 30.781 30.781 0 00-14.2-3.217c-10.507.184-18.789 5.262-24.371 14.255a27.8 27.8 0 002.65 32.58 68.159 68.159 0 0010.307 8.885c1.84 1.377 2.75 2.733 2.67 5-.119 3.414-.031 6.83-.031 11.029-3.037-2.107-5.634-3.691-7.979-5.583-4.362-3.524-8.734-7.061-12.818-10.894-5.762-5.409-8.4-12.558-9.568-20.118-2.1-13.6 2.058-25.495 11.84-34.956 10.483-10.142 23.248-13.3 37.566-10.2 10.624 2.3 18.758 8.4 24.495 17.228 5.973 9.2 7.591 19.583 5.309 30.433-.477 2.294-1.023 4.558-1.652 7.333z" class="cls-2" data-name="Path 9213" transform="translate(-1228.105 -21666.727)"/><path id="Path_9214" d="M-298.613 3398.434v104.738c-3.343 0-6.52.052-9.694-.021-2.3-.047-1.6-1.907-1.6-3.13q-.054-24.905-.015-49.815c0-16.067.068-32.137-.056-48.2-.022-2.789.666-3.907 3.576-3.62 2.435.24 4.913.048 7.789.048z" class="cls-2" data-name="Path 9214" transform="translate(-1247.924 -21683.535)"/></g></svg>