<?xml version="1.0" encoding="utf-8"?>
<!-- Generator: Adobe Illustrator 25.1.0, SVG Export Plug-In . SVG Version: 6.00 Build 0)  -->
<svg version="1.1" id="Ebene_1" xmlns="http://www.w3.org/2000/svg" xmlns:xlink="http://www.w3.org/1999/xlink" x="0px" y="0px"
	 viewBox="0 0 128 128" style="enable-background:new 0 0 128 128;" xml:space="preserve">
<circle style="fill:#2A5BDB;" cx="63.7" cy="63.8" r="64"/>
<polygon style="fill:#FFFFFF;" points="78.6,43.8 74.6,45.2 76,49.8 64,43.5 47.8,52.5 47.8,64.5 54.3,62.2 54.3,56.2 64,51 
	73.4,55.5 68.7,57.3 70.2,61.4 83.1,56.9 "/>
<polygon style="fill:#FFFFFF;" points="49.5,83.9 53.5,82.5 52.1,77.9 64,84.1 80.3,75.2 80.3,63.2 73.8,65.4 73.8,71.4 64,76.7 
	54.7,72.1 59.4,70.4 57.9,66.2 45,70.8 "/>
<g style="enable-background:new    ;">
	<path style="fill:#FFFFFF;" d="M33.2,46h7.5v22.5c0,4.4-1.3,7.8-3.9,10.2c-2.6,2.4-6.3,3.6-11.1,3.6c-4.8,0-8.4-1.2-11-3.6
		c-2.6-2.4-3.9-5.8-3.9-10.2V46h7.5v22.4c0,2.2,0.7,4,2,5.3c1.3,1.3,3.2,2,5.5,2c2.4,0,4.2-0.7,5.5-2c1.3-1.3,2-3.1,2-5.3V46z"/>
</g>
<g style="enable-background:new    ;">
	<path style="fill:#FFFFFF;" d="M87.2,44.9h14.9c5.4,0,9.5,1.6,12.3,4.8c2.8,3.2,4.2,7.6,4.2,13.1s-1.4,9.8-4.2,13
		c-2.8,3.2-6.9,4.8-12.3,4.8H87.2V44.9z M94.7,73.9h6.5c3.4,0,5.9-1,7.5-3.1c1.6-2.1,2.4-4.8,2.4-8.1s-0.8-6.1-2.4-8.1
		c-1.6-2.1-4.1-3.1-7.5-3.1h-6.5V73.9z"/>
</g>
</svg>
