<!DOCTYPE svg PUBLIC "-//W3C//DTD SVG 20010904//EN" "http://www.w3.org/TR/2001/REC-SVG-20010904/DTD/svg10.dtd">
<svg version="1.0" xmlns="http://www.w3.org/2000/svg" width="350px" height="350px" viewBox="0 0 3500 3500" preserveAspectRatio="xMidYMid meet">
<g id="layer101" fill="#34673a" stroke="none">
 <path d="M1480 3484 c-374 -57 -713 -235 -991 -521 -235 -242 -385 -528 -461 -874 -19 -91 -22 -133 -22 -339 0 -207 3 -248 22 -340 80 -367 248 -671 514 -925 333 -319 747 -485 1208 -485 347 0 666 93 950 278 121 78 211 154 328 277 221 231 371 520 444 856 19 91 22 133 23 334 0 269 -11 346 -80 552 -212 637 -754 1095 -1405 1188 -132 18 -403 18 -530 -1z"/>
 </g>
<g id="layer102" fill="#5ab669" stroke="none">
 <path d="M1480 3484 c-379 -59 -713 -235 -991 -521 -235 -242 -385 -528 -461 -874 -19 -91 -22 -133 -22 -339 0 -207 3 -248 22 -340 80 -367 248 -671 514 -925 333 -319 747 -485 1208 -485 347 0 666 93 950 278 121 78 211 154 328 277 221 231 371 520 444 856 19 91 22 133 23 334 0 255 -11 338 -66 512 -40 125 -89 245 -99 241 -5 -2 -146 -181 -315 -398 -319 -410 -335 -429 -316 -393 14 27 14 116 1 163 -12 45 -62 104 -113 137 -30 19 -59 27 -107 31 -59 4 -72 1 -128 -27 -48 -24 -70 -43 -93 -79 -16 -26 -32 -58 -35 -72 -12 -55 -16 -60 -39 -60 -19 0 -25 8 -35 51 -53 218 -286 355 -500 292 -59 -17 -85 -30 -147 -75 -59 -43 -124 -143 -144 -221 -10 -43 -14 -48 -37 -45 -21 2 -28 12 -42 56 -48 145 -186 221 -322 175 l-57 -20 19 26 c10 14 266 343 569 731 510 654 548 706 528 714 -41 16 -433 17 -537 0z"/>
 </g>
<g id="layer103" fill="#ffffff" stroke="none">
 <path d="M1670 2147 c-72 -17 -132 -49 -187 -100 -60 -55 -93 -108 -113 -182 -16 -58 -18 -60 -52 -63 -35 -3 -35 -3 -42 46 -20 151 -205 242 -346 172 -54 -27 -89 -65 -117 -126 -93 -205 133 -418 335 -315 46 23 109 91 118 126 5 21 12 25 44 25 37 0 38 -1 44 -45 11 -69 69 -176 126 -229 128 -120 305 -144 462 -65 108 54 196 173 216 290 7 39 10 44 35 44 22 0 33 -10 59 -55 45 -74 108 -113 193 -118 78 -5 126 10 177 56 81 73 108 179 69 275 -70 173 -287 209 -414 68 -33 -37 -57 -92 -57 -133 0 -13 -8 -18 -29 -18 -26 0 -30 5 -40 46 -44 174 -187 294 -366 309 -33 2 -85 -1 -115 -8z"/>
 </g>

</svg>