<?xml version="1.0" encoding="UTF-8" standalone="no"?>
<!DOCTYPE svg PUBLIC "-//W3C//DTD SVG 1.0//EN"
 "http://www.w3.org/TR/2001/REC-SVG-20010904/DTD/svg10.dtd" [
 <!ATTLIST svg xmlns:xlink CDATA #FIXED "http://www.w3.org/1999/xlink">
]>
<!-- Generated by Graphviz version -->
<!-- Title: filesdecoder Pages: 1 -->
<svg width="558pt" height="746pt"
 viewBox="0.00 0.00 558.00 746.00" xmlns="http://www.w3.org/2000/svg" xmlns:xlink="http://www.w3.org/1999/xlink">
<g id="graph0" class="graph" transform="scale(1 1) rotate(0) translate(4 742)">
<title>filesdecoder</title>
<!-- def_files -->
<g id="node1" class="node"><title>def_files</title>
<polygon style="fill:lightgray;stroke:black;" points="252,-738 12,-738 12,-742 1.02537e-13,-742 0,-608 252,-608 252,-738"/>
<polyline style="fill:none;stroke:black;" points="9.9476e-14,-738 12,-738 "/>
<text text-anchor="start" x="12" y="-719.733" style="font-family:Times New Roman;font-size:14.00;">general_purpose_instructions.def</text>
<text text-anchor="start" x="12" y="-699.733" style="font-family:Times New Roman;font-size:14.00;">mmx_instructions.def</text>
<text text-anchor="start" x="12" y="-679.733" style="font-family:Times New Roman;font-size:14.00;">nops.def</text>
<text text-anchor="start" x="12" y="-659.733" style="font-family:Times New Roman;font-size:14.00;">system_instructions.def</text>
<text text-anchor="start" x="12" y="-639.733" style="font-family:Times New Roman;font-size:14.00;">x87_instructions.def</text>
<text text-anchor="start" x="12" y="-619.733" style="font-family:Times New Roman;font-size:14.00;">xmm_instructions.def</text>
</g>
<!-- gen_dfa -->
<g id="node7" class="node"><title>gen_dfa</title>
<polygon style="fill:gray;stroke:black;" points="89.0701,-500 162.93,-500 189.234,-536 62.7657,-536 89.0701,-500"/>
<text text-anchor="middle" x="126" y="-513.9" style="font-family:Times New Roman;font-size:14.00;">gen_dfa.py</text>
</g>
<!-- def_files&#45;&gt;gen_dfa -->
<g id="edge2" class="edge"><title>def_files&#45;&gt;gen_dfa</title>
<path style="fill:none;stroke:black;" d="M125,-608C125,-586 125,-564 125,-546"/>
<path style="fill:none;stroke:black;" d="M127,-608C127,-586 127,-564 127,-546"/>
<polygon style="fill:black;stroke:black;" points="129.5,-546 126,-536 122.5,-546 129.5,-546"/>
</g>
<!-- byte_machines_py -->
<g id="node2" class="node"><title>byte_machines_py</title>
<polygon style="fill:lightgray;stroke:black;" points="410,-691 282,-691 282,-695 270,-695 270,-655 410,-655 410,-691"/>
<polyline style="fill:none;stroke:black;" points="270,-691 282,-691 "/>
<text text-anchor="middle" x="340" y="-668.9" style="font-family:Times New Roman;font-size:14.00;">byte_machines.py</text>
</g>
<!-- byte_machines_rl -->
<g id="node12" class="node"><title>byte_machines_rl</title>
<polygon style="fill:none;stroke:black;" points="464,-392 332,-392 332,-356 464,-356 464,-392"/>
<text text-anchor="middle" x="398" y="-369.9" style="font-family:Times New Roman;font-size:14.00;">byte_machines.rl</text>
</g>
<!-- byte_machines_py&#45;&gt;byte_machines_rl -->
<g id="edge6" class="edge"><title>byte_machines_py&#45;&gt;byte_machines_rl</title>
<path style="fill:none;stroke:black;" d="M344,-655C353,-604 381,-462 392,-402"/>
<polygon style="fill:black;stroke:black;" points="395.471,-402.492 394,-392 388.607,-401.119 395.471,-402.492"/>
<text text-anchor="middle" x="395" y="-513.9" style="font-family:Times New Roman;font-size:14.00;">python</text>
</g>
<!-- parse_instruction_rl -->
<g id="node3" class="node"><title>parse_instruction_rl</title>
<polygon style="fill:lightgray;stroke:black;" points="291,-590 153,-590 153,-594 141,-594 141,-554 291,-554 291,-590"/>
<polyline style="fill:none;stroke:black;" points="141,-590 153,-590 "/>
<text text-anchor="middle" x="216" y="-567.9" style="font-family:Times New Roman;font-size:14.00;">parse_instruction.rl</text>
</g>
<!-- ragel -->
<g id="node8" class="node"><title>ragel</title>
<polygon style="fill:gray;stroke:black;" points="149.938,-270 270.062,-270 312.843,-306 107.157,-306 149.938,-270"/>
<text text-anchor="middle" x="210" y="-283.9" style="font-family:Times New Roman;font-size:14.00;">ragel &amp; codegen.py</text>
</g>
<!-- parse_instruction_rl&#45;&gt;ragel -->
<g id="edge10" class="edge"><title>parse_instruction_rl&#45;&gt;ragel</title>
<path style="fill:none;stroke:black;" d="M212.006,-554.11C210.009,-536.137 206.009,-507.137 205.002,-482.058 203.354,-455.763 190.354,-444.763 205.158,-421.46 216.6,-404.2 236.6,-419.2 246.158,-403.46 260.136,-381.504 253.136,-369.504 246.038,-344.275 243.122,-334.479 237.122,-323.479 231.168,-314.555"/>
<path style="fill:none;stroke:black;" d="M213.994,-553.89C211.991,-535.863 207.991,-506.863 206.998,-481.942 204.646,-454.237 191.646,-443.237 206.842,-422.54 215.4,-405.8 235.4,-420.8 247.842,-404.54 261.864,-380.496 254.864,-368.496 247.962,-343.725 244.878,-333.521 238.878,-322.521 232.832,-313.445"/>
<polygon style="fill:black;stroke:black;" points="234.8,-311.9 226,-306 229.2,-316.1 234.8,-311.9"/>
</g>
<!-- decoder_x86_3264_rl -->
<g id="node4" class="node"><title>decoder_x86_3264_rl</title>
<polygon style="fill:lightgray;stroke:black;" points="359,-481.5 227,-481.5 227,-485.5 215,-485.5 215,-422.5 359,-422.5 359,-481.5"/>
<polyline style="fill:none;stroke:black;" points="215,-481.5 227,-481.5 "/>
<text text-anchor="middle" x="287" y="-464.9" style="font-family:Times New Roman;font-size:14.00;">decoder_x86_32.rl</text>
<text text-anchor="middle" x="287" y="-447.9" style="font-family:Times New Roman;font-size:14.00;">or</text>
<text text-anchor="middle" x="287" y="-430.9" style="font-family:Times New Roman;font-size:14.00;">decoder_x86_64.rl</text>
</g>
<!-- decoder_x86_3264_rl&#45;&gt;ragel -->
<g id="edge12" class="edge"><title>decoder_x86_3264_rl&#45;&gt;ragel</title>
<path style="fill:none;stroke:black;" d="M290.004,-421.913C292.001,-399.032 291.001,-368.032 279.101,-344.437 273.293,-331.707 262.293,-320.707 250.445,-312.832"/>
<path style="fill:none;stroke:black;" d="M291.996,-422.087C293.999,-398.968 292.999,-367.968 280.899,-343.563 274.707,-330.293 263.707,-319.293 251.555,-311.168"/>
<polygon style="fill:black;stroke:black;" points="253.1,-309.2 243,-306 248.9,-314.8 253.1,-309.2"/>
</g>
<!-- decoding_h -->
<g id="node5" class="node"><title>decoding_h</title>
<polygon style="fill:lightgray;stroke:black;" points="388,-220 310,-220 310,-224 298,-224 298,-184 388,-184 388,-220"/>
<polyline style="fill:none;stroke:black;" points="298,-220 310,-220 "/>
<text text-anchor="middle" x="343" y="-197.9" style="font-family:Times New Roman;font-size:14.00;">decoding.h</text>
</g>
<!-- gcc -->
<g id="node9" class="node"><title>gcc</title>
<polygon style="fill:gray;stroke:black;" points="327.232,-98 358.768,-98 370,-134 316,-134 327.232,-98"/>
<text text-anchor="middle" x="343" y="-111.9" style="font-family:Times New Roman;font-size:14.00;">gcc</text>
</g>
<!-- decoding_h&#45;&gt;gcc -->
<g id="edge20" class="edge"><title>decoding_h&#45;&gt;gcc</title>
<path style="fill:none;stroke:black;" d="M342,-184C342,-172 342,-157 342,-144"/>
<path style="fill:none;stroke:black;" d="M344,-184C344,-172 344,-157 344,-144"/>
<polygon style="fill:black;stroke:black;" points="346.5,-144 343,-134 339.5,-144 346.5,-144"/>
</g>
<!-- decoder_internal_h -->
<g id="node6" class="node"><title>decoder_internal_h</title>
<polygon style="fill:lightgray;stroke:black;" points="550,-220 418,-220 418,-224 406,-224 406,-184 550,-184 550,-220"/>
<polyline style="fill:none;stroke:black;" points="406,-220 418,-220 "/>
<text text-anchor="middle" x="478" y="-197.9" style="font-family:Times New Roman;font-size:14.00;">decoder_internal.h</text>
</g>
<!-- decoder_internal_h&#45;&gt;gcc -->
<g id="edge22" class="edge"><title>decoder_internal_h&#45;&gt;gcc</title>
<path style="fill:none;stroke:black;" d="M449.474,-184.85C428.459,-171.841 400.459,-153.841 377.48,-139.854"/>
<path style="fill:none;stroke:black;" d="M450.526,-183.15C429.541,-170.159 401.541,-152.159 378.52,-138.146"/>
<polygon style="fill:black;stroke:black;" points="380.1,-136.2 370,-133 375.9,-141.8 380.1,-136.2"/>
</g>
<!-- decoder_x86_3264_instruction_rl -->
<g id="node11" class="node"><title>decoder_x86_3264_instruction_rl</title>
<polygon style="fill:none;stroke:black;" points="238,-403.5 14,-403.5 14,-344.5 238,-344.5 238,-403.5"/>
<text text-anchor="middle" x="126" y="-386.9" style="font-family:Times New Roman;font-size:14.00;">decoder_x86_32_instruction.rl</text>
<text text-anchor="middle" x="126" y="-369.9" style="font-family:Times New Roman;font-size:14.00;">or</text>
<text text-anchor="middle" x="126" y="-352.9" style="font-family:Times New Roman;font-size:14.00;">decoder_x86_64_instruction.rl</text>
</g>
<!-- gen_dfa&#45;&gt;decoder_x86_3264_instruction_rl -->
<g id="edge4" class="edge"><title>gen_dfa&#45;&gt;decoder_x86_3264_instruction_rl</title>
<path style="fill:none;stroke:black;" d="M125,-500C125,-479 125,-442 125,-414"/>
<path style="fill:none;stroke:black;" d="M127,-500C127,-479 127,-442 127,-414"/>
<polygon style="fill:black;stroke:black;" points="129.5,-414 126,-404 122.5,-414 129.5,-414"/>
</g>
<!-- decoder_x86_3264_c -->
<g id="node10" class="node"><title>decoder_x86_3264_c</title>
<polygon style="fill:none;stroke:black;" points="280,-231.5 140,-231.5 140,-172.5 280,-172.5 280,-231.5"/>
<text text-anchor="middle" x="210" y="-214.9" style="font-family:Times New Roman;font-size:14.00;">decoder_x86_32.c</text>
<text text-anchor="middle" x="210" y="-197.9" style="font-family:Times New Roman;font-size:14.00;">or</text>
<text text-anchor="middle" x="210" y="-180.9" style="font-family:Times New Roman;font-size:14.00;">decoder_x86_64.c</text>
</g>
<!-- ragel&#45;&gt;decoder_x86_3264_c -->
<g id="edge16" class="edge"><title>ragel&#45;&gt;decoder_x86_3264_c</title>
<path style="fill:none;stroke:black;" d="M209,-270C209,-262 209,-252 209,-242"/>
<path style="fill:none;stroke:black;" d="M211,-270C211,-262 211,-252 211,-242"/>
<polygon style="fill:black;stroke:black;" points="213.5,-242 210,-232 206.5,-242 213.5,-242"/>
</g>
<!-- decoder_x86_3264_o -->
<g id="node13" class="node"><title>decoder_x86_3264_o</title>
<polygon style="fill:none;stroke:black;" points="414,-59.5 272,-59.5 272,-0.5 414,-0.5 414,-59.5"/>
<text text-anchor="middle" x="343" y="-42.9" style="font-family:Times New Roman;font-size:14.00;">decoder_x86_32.o</text>
<text text-anchor="middle" x="343" y="-25.9" style="font-family:Times New Roman;font-size:14.00;">or</text>
<text text-anchor="middle" x="343" y="-8.9" style="font-family:Times New Roman;font-size:14.00;">decoder_x86_64.o</text>
</g>
<!-- gcc&#45;&gt;decoder_x86_3264_o -->
<g id="edge24" class="edge"><title>gcc&#45;&gt;decoder_x86_3264_o</title>
<path style="fill:none;stroke:black;" d="M342,-98C342,-90 342,-80 342,-70"/>
<path style="fill:none;stroke:black;" d="M344,-98C344,-90 344,-80 344,-70"/>
<polygon style="fill:black;stroke:black;" points="346.5,-70 343,-60 339.5,-70 346.5,-70"/>
</g>
<!-- decoder_x86_3264_c&#45;&gt;gcc -->
<g id="edge18" class="edge"><title>decoder_x86_3264_c&#45;&gt;gcc</title>
<path style="fill:none;stroke:black;" d="M255.457,-171.16C272.466,-160.155 291.466,-148.155 307.47,-138.152"/>
<path style="fill:none;stroke:black;" d="M256.543,-172.84C273.534,-161.845 292.534,-149.845 308.53,-139.848"/>
<polygon style="fill:black;stroke:black;" points="310.1,-141.8 316,-133 305.9,-136.2 310.1,-141.8"/>
</g>
<!-- decoder_x86_3264_instruction_rl&#45;&gt;ragel -->
<g id="edge14" class="edge"><title>decoder_x86_3264_instruction_rl&#45;&gt;ragel</title>
<path style="fill:none;stroke:black;" d="M154.293,-343.293C164.26,-333.327 174.26,-322.327 184.293,-312.293"/>
<path style="fill:none;stroke:black;" d="M155.707,-344.707C165.74,-334.673 175.74,-323.673 185.707,-313.707"/>
<polygon style="fill:black;stroke:black;" points="187.404,-315.546 192,-306 182.454,-310.596 187.404,-315.546"/>
</g>
<!-- byte_machines_rl&#45;&gt;ragel -->
<g id="edge8" class="edge"><title>byte_machines_rl&#45;&gt;ragel</title>
<path style="fill:none;stroke:black;" d="M362.534,-356.885C343.567,-346.902 318.567,-334.902 296.576,-324.905 286.658,-319.94 275.658,-315.94 264.586,-310.91"/>
<path style="fill:none;stroke:black;" d="M363.466,-355.115C344.433,-345.098 319.433,-333.098 297.424,-323.095 287.342,-318.06 276.342,-314.06 265.414,-309.09"/>
<polygon style="fill:black;stroke:black;" points="266.56,-306.863 256,-306 263.717,-313.26 266.56,-306.863"/>
</g>
</g>
</svg>
