<?xml version="1.0" encoding="UTF-8" standalone="no"?>
<!DOCTYPE svg PUBLIC "-//W3C//DTD SVG 1.0//EN"
 "http://www.w3.org/TR/2001/REC-SVG-20010904/DTD/svg10.dtd" [
 <!ATTLIST svg xmlns:xlink CDATA #FIXED "http://www.w3.org/1999/xlink">
]>
<!-- Generated by Graphviz version -->
<!-- Title: files64 Pages: 1 -->
<svg width="571pt" height="650pt"
 viewBox="0.00 0.00 571.00 650.00" xmlns="http://www.w3.org/2000/svg" xmlns:xlink="http://www.w3.org/1999/xlink">
<g id="graph0" class="graph" transform="scale(1 1) rotate(0) translate(4 646)">
<title>files64</title>
<!-- def_files -->
<g id="node1" class="node"><title>def_files</title>
<polygon style="fill:lightgray;stroke:black;" points="252,-642 12,-642 12,-646 1.02537e-13,-646 0,-512 252,-512 252,-642"/>
<polyline style="fill:none;stroke:black;" points="9.9476e-14,-642 12,-642 "/>
<text text-anchor="start" x="12" y="-623.733" style="font-family:Times New Roman;font-size:14.00;">general_purpose_instructions.def</text>
<text text-anchor="start" x="12" y="-603.733" style="font-family:Times New Roman;font-size:14.00;">mmx_instructions.def</text>
<text text-anchor="start" x="12" y="-583.733" style="font-family:Times New Roman;font-size:14.00;">nops.def</text>
<text text-anchor="start" x="12" y="-563.733" style="font-family:Times New Roman;font-size:14.00;">system_instructions.def</text>
<text text-anchor="start" x="12" y="-543.733" style="font-family:Times New Roman;font-size:14.00;">x87_instructions.def</text>
<text text-anchor="start" x="12" y="-523.733" style="font-family:Times New Roman;font-size:14.00;">xmm_instructions.def</text>
</g>
<!-- gen_dfa -->
<g id="node7" class="node"><title>gen_dfa</title>
<polygon style="fill:gray;stroke:black;" points="89.0701,-404 162.93,-404 189.234,-440 62.7657,-440 89.0701,-404"/>
<text text-anchor="middle" x="126" y="-417.9" style="font-family:Times New Roman;font-size:14.00;">gen_dfa.py</text>
</g>
<!-- def_files&#45;&gt;gen_dfa -->
<g id="edge2" class="edge"><title>def_files&#45;&gt;gen_dfa</title>
<path style="fill:none;stroke:black;" d="M125,-512C125,-490 125,-468 125,-450"/>
<path style="fill:none;stroke:black;" d="M127,-512C127,-490 127,-468 127,-450"/>
<polygon style="fill:black;stroke:black;" points="129.5,-450 126,-440 122.5,-450 129.5,-450"/>
</g>
<!-- byte_machines_py -->
<g id="node2" class="node"><title>byte_machines_py</title>
<polygon style="fill:lightgray;stroke:black;" points="410,-595 282,-595 282,-599 270,-599 270,-559 410,-559 410,-595"/>
<polyline style="fill:none;stroke:black;" points="270,-595 282,-595 "/>
<text text-anchor="middle" x="340" y="-572.9" style="font-family:Times New Roman;font-size:14.00;">byte_machines.py</text>
</g>
<!-- byte_machines_rl -->
<g id="node12" class="node"><title>byte_machines_rl</title>
<polygon style="fill:none;stroke:black;" points="468,-332 336,-332 336,-296 468,-296 468,-332"/>
<text text-anchor="middle" x="402" y="-309.9" style="font-family:Times New Roman;font-size:14.00;">byte_machines.rl</text>
</g>
<!-- byte_machines_py&#45;&gt;byte_machines_rl -->
<g id="edge6" class="edge"><title>byte_machines_py&#45;&gt;byte_machines_rl</title>
<path style="fill:none;stroke:black;" d="M344,-559C354,-514 382,-396 396,-342"/>
<polygon style="fill:black;stroke:black;" points="399.471,-342.492 398,-332 392.607,-341.119 399.471,-342.492"/>
<text text-anchor="middle" x="404" y="-417.9" style="font-family:Times New Roman;font-size:14.00;">python</text>
</g>
<!-- parse_instruction_rl -->
<g id="node3" class="node"><title>parse_instruction_rl</title>
<polygon style="fill:lightgray;stroke:black;" points="291,-494 153,-494 153,-498 141,-498 141,-458 291,-458 291,-494"/>
<polyline style="fill:none;stroke:black;" points="141,-494 153,-494 "/>
<text text-anchor="middle" x="216" y="-471.9" style="font-family:Times New Roman;font-size:14.00;">parse_instruction.rl</text>
</g>
<!-- ragel -->
<g id="node8" class="node"><title>ragel</title>
<polygon style="fill:gray;stroke:black;" points="151.938,-222 272.062,-222 314.843,-258 109.157,-258 151.938,-222"/>
<text text-anchor="middle" x="212" y="-235.9" style="font-family:Times New Roman;font-size:14.00;">ragel &amp; codegen.py</text>
</g>
<!-- parse_instruction_rl&#45;&gt;ragel -->
<g id="edge10" class="edge"><title>parse_instruction_rl&#45;&gt;ragel</title>
<path style="fill:none;stroke:black;" d="M211.018,-458.19C205.016,-427.18 194.016,-367.18 206.164,-349.451 218.629,-331.223 239.629,-348.223 250.16,-331.458 258.132,-318.496 254.132,-311.496 250.048,-296.305 246.122,-286.479 240.122,-275.479 234.168,-266.555"/>
<path style="fill:none;stroke:black;" d="M212.982,-457.81C206.984,-426.82 195.984,-366.82 207.836,-350.549 217.371,-332.777 238.371,-349.777 251.84,-332.542 259.868,-317.504 255.868,-310.504 251.952,-295.695 247.878,-285.521 241.878,-274.521 235.832,-265.445"/>
<polygon style="fill:black;stroke:black;" points="237.8,-263.9 229,-258 232.2,-268.1 237.8,-263.9"/>
</g>
<!-- validator_x86_64_rl -->
<g id="node4" class="node"><title>validator_x86_64_rl</title>
<polygon style="fill:lightgray;stroke:black;" points="366,-386 228,-386 228,-390 216,-390 216,-350 366,-350 366,-386"/>
<polyline style="fill:none;stroke:black;" points="216,-386 228,-386 "/>
<text text-anchor="middle" x="291" y="-363.9" style="font-family:Times New Roman;font-size:14.00;">validator_x86_64.rl</text>
</g>
<!-- validator_x86_64_rl&#45;&gt;ragel -->
<g id="edge12" class="edge"><title>validator_x86_64_rl&#45;&gt;ragel</title>
<path style="fill:none;stroke:black;" d="M292.002,-349.933C293.001,-335.045 292.001,-313.045 283.118,-296.471 276.293,-283.707 265.293,-272.707 253.445,-264.832"/>
<path style="fill:none;stroke:black;" d="M293.998,-350.067C294.999,-334.955 293.999,-312.955 284.882,-295.529 277.707,-282.293 266.707,-271.293 254.555,-263.168"/>
<polygon style="fill:black;stroke:black;" points="256.1,-261.2 246,-258 251.9,-266.8 256.1,-261.2"/>
</g>
<!-- decoding_h -->
<g id="node5" class="node"><title>decoding_h</title>
<polygon style="fill:lightgray;stroke:black;" points="393,-184 315,-184 315,-188 303,-188 303,-148 393,-148 393,-184"/>
<polyline style="fill:none;stroke:black;" points="303,-184 315,-184 "/>
<text text-anchor="middle" x="348" y="-161.9" style="font-family:Times New Roman;font-size:14.00;">decoding.h</text>
</g>
<!-- gcc -->
<g id="node9" class="node"><title>gcc</title>
<polygon style="fill:gray;stroke:black;" points="332.232,-74 363.768,-74 375,-110 321,-110 332.232,-74"/>
<text text-anchor="middle" x="348" y="-87.9" style="font-family:Times New Roman;font-size:14.00;">gcc</text>
</g>
<!-- decoding_h&#45;&gt;gcc -->
<g id="edge20" class="edge"><title>decoding_h&#45;&gt;gcc</title>
<path style="fill:none;stroke:black;" d="M347,-148C347,-139 347,-130 347,-120"/>
<path style="fill:none;stroke:black;" d="M349,-148C349,-139 349,-130 349,-120"/>
<polygon style="fill:black;stroke:black;" points="351.5,-120 348,-110 344.5,-120 351.5,-120"/>
</g>
<!-- validator_internal_h -->
<g id="node6" class="node"><title>validator_internal_h</title>
<polygon style="fill:lightgray;stroke:black;" points="563,-184 423,-184 423,-188 411,-188 411,-148 563,-148 563,-184"/>
<polyline style="fill:none;stroke:black;" points="411,-184 423,-184 "/>
<text text-anchor="middle" x="487" y="-161.9" style="font-family:Times New Roman;font-size:14.00;">validator_internal.h</text>
</g>
<!-- validator_internal_h&#45;&gt;gcc -->
<g id="edge22" class="edge"><title>validator_internal_h&#45;&gt;gcc</title>
<path style="fill:none;stroke:black;" d="M452.536,-148.886C431.528,-137.881 403.528,-122.881 382.536,-111.886"/>
<path style="fill:none;stroke:black;" d="M453.464,-147.114C432.472,-136.119 404.472,-121.119 383.464,-110.114"/>
<polygon style="fill:black;stroke:black;" points="384.441,-107.797 374,-106 381.042,-113.916 384.441,-107.797"/>
</g>
<!-- validator_x86_64_instruction_rl -->
<g id="node11" class="node"><title>validator_x86_64_instruction_rl</title>
<polygon style="fill:none;stroke:black;" points="242,-332 10,-332 10,-296 242,-296 242,-332"/>
<text text-anchor="middle" x="126" y="-309.9" style="font-family:Times New Roman;font-size:14.00;">validator_x86_64_instruction.rl</text>
</g>
<!-- gen_dfa&#45;&gt;validator_x86_64_instruction_rl -->
<g id="edge4" class="edge"><title>gen_dfa&#45;&gt;validator_x86_64_instruction_rl</title>
<path style="fill:none;stroke:black;" d="M125,-404C125,-387 125,-362 125,-342"/>
<path style="fill:none;stroke:black;" d="M127,-404C127,-387 127,-362 127,-342"/>
<polygon style="fill:black;stroke:black;" points="129.5,-342 126,-332 122.5,-342 129.5,-342"/>
</g>
<!-- validator_x86_64_c -->
<g id="node10" class="node"><title>validator_x86_64_c</title>
<polygon style="fill:none;stroke:black;" points="285,-184 139,-184 139,-148 285,-148 285,-184"/>
<text text-anchor="middle" x="212" y="-161.9" style="font-family:Times New Roman;font-size:14.00;">validator_x86_64.c</text>
</g>
<!-- ragel&#45;&gt;validator_x86_64_c -->
<g id="edge16" class="edge"><title>ragel&#45;&gt;validator_x86_64_c</title>
<path style="fill:none;stroke:black;" d="M211,-222C211,-213 211,-204 211,-194"/>
<path style="fill:none;stroke:black;" d="M213,-222C213,-213 213,-204 213,-194"/>
<polygon style="fill:black;stroke:black;" points="215.5,-194 212,-184 208.5,-194 215.5,-194"/>
</g>
<!-- validator_x86_64_o -->
<g id="node13" class="node"><title>validator_x86_64_o</title>
<polygon style="fill:none;stroke:black;" points="422,-36 274,-36 274,-1.77636e-14 422,-3.55271e-15 422,-36"/>
<text text-anchor="middle" x="348" y="-13.9" style="font-family:Times New Roman;font-size:14.00;">validator_x86_64.o</text>
</g>
<!-- gcc&#45;&gt;validator_x86_64_o -->
<g id="edge24" class="edge"><title>gcc&#45;&gt;validator_x86_64_o</title>
<path style="fill:none;stroke:black;" d="M347,-74C347,-65 347,-56 347,-46"/>
<path style="fill:none;stroke:black;" d="M349,-74C349,-65 349,-56 349,-46"/>
<polygon style="fill:black;stroke:black;" points="351.5,-46 348,-36 344.5,-46 351.5,-46"/>
</g>
<!-- validator_x86_64_c&#45;&gt;gcc -->
<g id="edge18" class="edge"><title>validator_x86_64_c&#45;&gt;gcc</title>
<path style="fill:none;stroke:black;" d="M244.536,-147.114C265.5,-136.134 291.5,-121.134 312.536,-110.114"/>
<path style="fill:none;stroke:black;" d="M245.464,-148.886C266.5,-137.866 292.5,-122.866 313.464,-111.886"/>
<polygon style="fill:black;stroke:black;" points="314.958,-113.916 322,-106 311.559,-107.797 314.958,-113.916"/>
</g>
<!-- validator_x86_64_instruction_rl&#45;&gt;ragel -->
<g id="edge14" class="edge"><title>validator_x86_64_instruction_rl&#45;&gt;ragel</title>
<path style="fill:none;stroke:black;" d="M146.327,-295.26C157.382,-285.214 171.382,-274.214 182.327,-264.26"/>
<path style="fill:none;stroke:black;" d="M147.673,-296.74C158.618,-286.786 172.618,-275.786 183.673,-265.74"/>
<polygon style="fill:black;stroke:black;" points="185.779,-267.219 191,-258 181.169,-261.951 185.779,-267.219"/>
</g>
<!-- byte_machines_rl&#45;&gt;ragel -->
<g id="edge8" class="edge"><title>byte_machines_rl&#45;&gt;ragel</title>
<path style="fill:none;stroke:black;" d="M355.623,-296.926C328.658,-285.94 295.658,-273.94 266.645,-262.935"/>
<path style="fill:none;stroke:black;" d="M356.377,-295.074C329.342,-284.06 296.342,-272.06 267.355,-261.065"/>
<polygon style="fill:black;stroke:black;" points="268.56,-258.863 258,-258 265.717,-265.26 268.56,-258.863"/>
</g>
</g>
</svg>
