<?xml version="1.0" encoding="UTF-8" standalone="no"?>
<!DOCTYPE svg PUBLIC "-//W3C//DTD SVG 1.0//EN"
 "http://www.w3.org/TR/2001/REC-SVG-20010904/DTD/svg10.dtd" [
 <!ATTLIST svg xmlns:xlink CDATA #FIXED "http://www.w3.org/1999/xlink">
]>
<!-- Generated by Graphviz version 2.20.2 and then edited by hand -->
<!-- Title: one_instruction_x86_32 Pages: 1 -->
<svg width="1376pt" height="226pt"
 viewBox="0.00 0.00 1376.00 226.00" xmlns="http://www.w3.org/2000/svg" xmlns:xlink="http://www.w3.org/1999/xlink">
<g id="graph0" class="graph" transform="scale(1 1) rotate(0) translate(4 222)">
<title>one_instruction_x86_32</title>
<!-- ENTRY -->
<g id="node1" class="node"><title>ENTRY</title>
<ellipse style="fill:black;stroke:black;" cx="2" cy="-111" rx="1.8" ry="1.8"/>
</g>
<!-- 4 -->
<g id="node3" class="node"><title>4</title>
<ellipse style="fill:none;stroke:black;" cx="101" cy="-91" rx="23.0727" ry="23.0727"/>
<ellipse style="fill:none;stroke:black;" cx="101" cy="-91" rx="27" ry="27"/>
<text text-anchor="middle" x="101" y="-86.9" style="font-family:Times New Roman;font-size:14.00;">4</text>
</g>
<!-- ENTRY&#45;&gt;4 -->
<g id="edge26" class="edge"><title>ENTRY&#45;&gt;4</title>
<path style="fill:none;stroke:black;" d="M4,-111C12,-109 40,-104 64,-98"/>
<polygon style="fill:black;stroke:black;" points="64.8806,-101.393 74,-96 63.5078,-94.5292 64.8806,-101.393"/>
<text text-anchor="middle" x="39" y="-109.9" style="font-family:Times New Roman;font-size:14.00;">IN</text>
</g>
<!-- en_4 -->
<g id="node2" class="node"><title>en_4</title>
<ellipse style="fill:black;stroke:black;" cx="2" cy="-71" rx="1.8" ry="1.8"/>
</g>
<!-- en_4&#45;&gt;4 -->
<g id="edge28" class="edge"><title>en_4&#45;&gt;4</title>
<path style="fill:none;stroke:black;" d="M4,-71C11,-72 37,-74 56,-78 59,-78 62,-79 65,-80"/>
<polygon style="fill:black;stroke:black;" points="64.416,-83.4788 75,-83 66.4275,-76.7741 64.416,-83.4788"/>
<text text-anchor="middle" x="39" y="-81.9" style="font-family:Times New Roman;font-size:14.00;">main</text>
</g>
<!-- 1 -->
<g id="node8" class="node"><title>1</title>
<ellipse style="fill:none;stroke:black;" cx="201" cy="-91" rx="23" ry="23"/>
<text text-anchor="middle" x="201" y="-86.9" style="font-family:Times New Roman;font-size:14.00;">1</text>
</g>
<!-- 4&#45;&gt;1 -->
<g id="edge8" class="edge"><title>4&#45;&gt;1</title>
<path style="fill:none;stroke:black;" d="M128,-91C140,-91 155,-91 168,-91"/>
<polygon style="fill:black;stroke:black;" points="168,-94.5001 178,-91 168,-87.5001 168,-94.5001"/>
<text text-anchor="middle" x="153" y="-94.9" style="font-family:Times New Roman;font-size:14.00;">&#39;b&#39;</text>
</g>
<!-- 5 -->
<g id="node4" class="node"><title>5</title>
<ellipse style="fill:none;stroke:black;" cx="561" cy="-100" rx="23.0727" ry="23.0727"/>
<ellipse style="fill:none;stroke:black;" cx="561" cy="-100" rx="27" ry="27"/>
<text text-anchor="middle" x="561" y="-95.9" style="font-family:Times New Roman;font-size:14.00;">5</text>
</g>
<!-- 6 -->
<g id="node5" class="node"><title>6</title>
<ellipse style="fill:none;stroke:black;" cx="769" cy="-67" rx="23.0727" ry="23.0727"/>
<ellipse style="fill:none;stroke:black;" cx="769" cy="-67" rx="27" ry="27"/>
<text text-anchor="middle" x="769" y="-62.9" style="font-family:Times New Roman;font-size:14.00;">6</text>
</g>
<!-- 5&#45;&gt;6 -->
<g id="edge10" class="edge"><title>5&#45;&gt;6</title>
<path style="fill:none;stroke:black;" d="M588,-96C625,-90 691,-80 732,-73"/>
<polygon style="fill:black;stroke:black;" points="732.881,-76.3933 742,-71 731.508,-69.5292 732.881,-76.3933"/>
<text text-anchor="middle" x="665" y="-95.9" style="font-family:Times New Roman;font-size:14.00;">&#39;a&#39; / begin2, end3</text>
</g>
<!-- 5&#45;&gt;1 -->
<g id="edge12" class="edge"><title>5&#45;&gt;1</title>
<path style="fill:none;stroke:black;" d="M534,-99C469,-98 305,-94 234,-92"/>
<polygon style="fill:black;stroke:black;" points="234,-88.5001 224,-92 234,-95.5001 234,-88.5001"/>
<text text-anchor="middle" x="413" y="-99.9" style="font-family:Times New Roman;font-size:14.00;">&#39;b&#39;</text>
</g>
<!-- 7 -->
<g id="node6" class="node"><title>7</title>
<ellipse style="fill:none;stroke:black;" cx="989" cy="-67" rx="23.0727" ry="23.0727"/>
<ellipse style="fill:none;stroke:black;" cx="989" cy="-67" rx="27" ry="27"/>
<text text-anchor="middle" x="989" y="-62.9" style="font-family:Times New Roman;font-size:14.00;">7</text>
</g>
<!-- 6&#45;&gt;7 -->
<g id="edge14" class="edge"><title>6&#45;&gt;7</title>
<path style="fill:none;stroke:black;" d="M796,-67C835,-67 908,-67 952,-67"/>
<polygon style="fill:black;stroke:black;" points="952,-70.5001 962,-67 952,-63.5001 952,-70.5001"/>
<text text-anchor="middle" x="879" y="-70.9" style="font-family:Times New Roman;font-size:14.00;">&#39;a&#39; / end2, begin3</text>
</g>
<!-- 6&#45;&gt;1 -->
<g id="edge16" class="edge"><title>6&#45;&gt;1</title>
<path style="fill:none;stroke:black;" d="M742,-66C707,-66 643,-65 588,-64 565,-64 558,-64 534,-64 404,-70 372,-75 242,-87 239,-87 237,-87 234,-87"/>
<polygon style="fill:black;stroke:black;" points="233.602,-83.5222 224,-88 234.299,-90.4875 233.602,-83.5222"/>
<text text-anchor="middle" x="485" y="-72.9" style="font-family:Times New Roman;font-size:14.00;">&#39;b&#39;</text>
</g>
<!-- 7&#45;&gt;1 -->
<g id="edge20" class="edge"><title>7&#45;&gt;1</title>
<path style="fill:none;stroke:black;" d="M965,-54C925,-35 843,-0 769,-0 413,-0 413,-0 413,-0 342,-0 267,-44 229,-71"/>
<polygon style="fill:black;stroke:black;" points="226.379,-68.5408 220,-77 230.262,-74.3651 226.379,-68.5408"/>
<text text-anchor="middle" x="561" y="-4.9" style="font-family:Times New Roman;font-size:14.00;">&#39;b&#39;</text>
</g>
<!-- 3 -->
<g id="node12" class="node"><title>3</title>
<ellipse style="fill:none;stroke:black;" cx="1149" cy="-96" rx="23" ry="23"/>
<text text-anchor="middle" x="1149" y="-91.9" style="font-family:Times New Roman;font-size:14.00;">3</text>
</g>
<!-- 7&#45;&gt;3 -->
<g id="edge18" class="edge"><title>7&#45;&gt;3</title>
<path style="fill:none;stroke:black;" d="M1016,-72C1044,-76 1086,-85 1116,-90"/>
<polygon style="fill:black;stroke:black;" points="1115.51,-93.4708 1126,-92 1116.88,-86.6067 1115.51,-93.4708"/>
<text text-anchor="middle" x="1071" y="-90.9" style="font-family:Times New Roman;font-size:14.00;">&#39;a&#39; / begin2</text>
</g>
<!-- 8 -->
<g id="node7" class="node"><title>8</title>
<ellipse style="fill:none;stroke:black;" cx="1341" cy="-156" rx="23.0727" ry="23.0727"/>
<ellipse style="fill:none;stroke:black;" cx="1341" cy="-156" rx="27" ry="27"/>
<text text-anchor="middle" x="1341" y="-151.9" style="font-family:Times New Roman;font-size:14.00;">8</text>
</g>
<!-- 8&#45;&gt;1 -->
<g id="edge24" class="edge"><title>8&#45;&gt;1</title>
<path style="fill:none;stroke:black;" d="M1316,-166C1279,-180 1210,-202 1149,-202 413,-202 413,-202 413,-202 335,-202 306,-204 242,-158 230,-149 220,-135 214,-122"/>
<polygon style="fill:black;stroke:black;" points="216.916,-120.042 209,-113 210.797,-123.441 216.916,-120.042"/>
<text text-anchor="middle" x="769" y="-205.9" style="font-family:Times New Roman;font-size:14.00;">&#39;b&#39;</text>
</g>
<!-- 2 -->
<g id="node10" class="node"><title>2</title>
<ellipse style="fill:none;stroke:black;" cx="413" cy="-149" rx="23" ry="23"/>
<text text-anchor="middle" x="413" y="-144.9" style="font-family:Times New Roman;font-size:14.00;">2</text>
</g>
<!-- 8&#45;&gt;2 -->
<g id="edge22" class="edge"><title>8&#45;&gt;2</title>
<path style="fill:none;stroke:black;" d="M1314,-156C1277,-156 1208,-156 1149,-156 561,-156 561,-156 561,-156 522,-156 476,-154 446,-152"/>
<polygon style="fill:black;stroke:black;" points="446.299,-148.512 436,-151 445.602,-155.478 446.299,-148.512"/>
<text text-anchor="middle" x="879" y="-159.9" style="font-family:Times New Roman;font-size:14.00;">&#39;a&#39; / begin2, begin3</text>
</g>
<!-- 1&#45;&gt;2 -->
<g id="edge2" class="edge"><title>1&#45;&gt;2</title>
<path style="fill:none;stroke:black;" d="M223,-99C229,-101 236,-103 242,-105 290,-119 346,-133 381,-142"/>
<polygon style="fill:black;stroke:black;" points="380.508,-145.471 391,-144 381.881,-138.607 380.508,-145.471"/>
<text text-anchor="middle" x="307" y="-140.9" style="font-family:Times New Roman;font-size:14.00;">&#39;a&#39; / begin2, begin3</text>
</g>
<!-- 2&#45;&gt;5 -->
<g id="edge4" class="edge"><title>2&#45;&gt;5</title>
<path style="fill:none;stroke:black;" d="M432,-136C439,-132 447,-128 454,-125 477,-116 503,-109 524,-106"/>
<polygon style="fill:black;stroke:black;" points="524.881,-109.393 534,-104 523.508,-102.529 524.881,-109.393"/>
<text text-anchor="middle" x="485" y="-128.9" style="font-family:Times New Roman;font-size:14.00;">&#39;a&#39; / end2</text>
</g>
<!-- 3&#45;&gt;8 -->
<g id="edge6" class="edge"><title>3&#45;&gt;8</title>
<path style="fill:none;stroke:black;" d="M1172,-98C1202,-100 1255,-107 1296,-125 1301,-127 1306,-130 1311,-132"/>
<polygon style="fill:black;stroke:black;" points="1309.74,-135.365 1320,-138 1313.62,-129.541 1309.74,-135.365"/>
<text text-anchor="middle" x="1243" y="-128.9" style="font-family:Times New Roman;font-size:14.00;">&#39;a&#39; / end2, end3</text>
</g>
</g>
</svg>
