<?xml version="1.0" encoding="UTF-8" standalone="no"?>
<!DOCTYPE svg PUBLIC "-//W3C//DTD SVG 1.0//EN"
 "http://www.w3.org/TR/2001/REC-SVG-20010904/DTD/svg10.dtd" [
 <!ATTLIST svg xmlns:xlink CDATA #FIXED "http://www.w3.org/1999/xlink">
]>
<!-- Generated by Graphviz version 2.20.2 and then edited by hand -->
<!-- Title: one_instruction_x86_32 Pages: 1 -->
<svg width="1196pt" height="226pt"
 viewBox="0.00 0.00 1196.00 226.00" xmlns="http://www.w3.org/2000/svg" xmlns:xlink="http://www.w3.org/1999/xlink">
<g id="graph0" class="graph" transform="scale(1 1) rotate(0) translate(4 222)">
<title>one_instruction_x86_32</title>
<!-- ENTRY -->
<g id="node1" class="node"><title>ENTRY</title>
<ellipse style="fill:black;stroke:black;" cx="2" cy="-111" rx="1.8" ry="1.8"/>
</g>
<!-- 4 -->
<g id="node3" class="node"><title>4</title>
<ellipse style="fill:none;stroke:black;" cx="101" cy="-91" rx="23.0727" ry="23.0727"/>
<ellipse style="fill:none;stroke:black;" cx="101" cy="-91" rx="27" ry="27"/>
<text text-anchor="middle" x="101" y="-86.9" style="font-family:Times New Roman;font-size:14.00;">4</text>
</g>
<!-- ENTRY&#45;&gt;4 -->
<g id="edge26" class="edge"><title>ENTRY&#45;&gt;4</title>
<path style="fill:none;stroke:black;" d="M4,-111C12,-109 40,-104 64,-98"/>
<polygon style="fill:black;stroke:black;" points="64.8806,-101.393 74,-96 63.5078,-94.5292 64.8806,-101.393"/>
<text text-anchor="middle" x="39" y="-109.9" style="font-family:Times New Roman;font-size:14.00;">IN</text>
</g>
<!-- en_4 -->
<g id="node2" class="node"><title>en_4</title>
<ellipse style="fill:black;stroke:black;" cx="2" cy="-71" rx="1.8" ry="1.8"/>
</g>
<!-- en_4&#45;&gt;4 -->
<g id="edge28" class="edge"><title>en_4&#45;&gt;4</title>
<path style="fill:none;stroke:black;" d="M4,-71C11,-72 37,-74 56,-78 59,-78 62,-79 65,-80"/>
<polygon style="fill:black;stroke:black;" points="64.416,-83.4788 75,-83 66.4275,-76.7741 64.416,-83.4788"/>
<text text-anchor="middle" x="39" y="-81.9" style="font-family:Times New Roman;font-size:14.00;">main</text>
</g>
<!-- 1 -->
<g id="node8" class="node"><title>1</title>
<ellipse style="fill:none;stroke:black;" cx="201" cy="-91" rx="23" ry="23"/>
<text text-anchor="middle" x="201" y="-86.9" style="font-family:Times New Roman;font-size:14.00;">1</text>
</g>
<!-- 4&#45;&gt;1 -->
<g id="edge8" class="edge"><title>4&#45;&gt;1</title>
<path style="fill:none;stroke:black;" d="M128,-91C140,-91 155,-91 168,-91"/>
<polygon style="fill:black;stroke:black;" points="168,-94.5001 178,-91 168,-87.5001 168,-94.5001"/>
<text text-anchor="middle" x="153" y="-94.9" style="font-family:Times New Roman;font-size:14.00;">&#39;b&#39;</text>
</g>
<!-- 5 -->
<g id="node4" class="node"><title>5</title>
<ellipse style="fill:none;stroke:black;" cx="489" cy="-100" rx="23.0727" ry="23.0727"/>
<ellipse style="fill:none;stroke:black;" cx="489" cy="-100" rx="27" ry="27"/>
<text text-anchor="middle" x="489" y="-95.9" style="font-family:Times New Roman;font-size:14.00;">5</text>
</g>
<!-- 6 -->
<g id="node5" class="node"><title>6</title>
<ellipse style="fill:none;stroke:black;" cx="679" cy="-67" rx="23.0727" ry="23.0727"/>
<ellipse style="fill:none;stroke:black;" cx="679" cy="-67" rx="27" ry="27"/>
<text text-anchor="middle" x="679" y="-62.9" style="font-family:Times New Roman;font-size:14.00;">6</text>
</g>
<!-- 5&#45;&gt;6 -->
<g id="edge10" class="edge"><title>5&#45;&gt;6</title>
<path style="fill:none;stroke:black;" d="M516,-95C549,-90 605,-80 642,-74"/>
<polygon style="fill:black;stroke:black;" points="642.881,-77.3933 652,-72 641.508,-70.5292 642.881,-77.3933"/>
<text text-anchor="middle" x="584" y="-94.9" style="font-family:Times New Roman;font-size:14.00;">&#39;a&#39; / begin, end</text>
</g>
<!-- 5&#45;&gt;1 -->
<g id="edge12" class="edge"><title>5&#45;&gt;1</title>
<path style="fill:none;stroke:black;" d="M462,-99C408,-97 291,-94 234,-92"/>
<polygon style="fill:black;stroke:black;" points="234,-88.5001 224,-92 234,-95.5001 234,-88.5001"/>
<text text-anchor="middle" x="349" y="-98.9" style="font-family:Times New Roman;font-size:14.00;">&#39;b&#39;</text>
</g>
<!-- 7 -->
<g id="node6" class="node"><title>7</title>
<ellipse style="fill:none;stroke:black;" cx="869" cy="-67" rx="23.0727" ry="23.0727"/>
<ellipse style="fill:none;stroke:black;" cx="869" cy="-67" rx="27" ry="27"/>
<text text-anchor="middle" x="869" y="-62.9" style="font-family:Times New Roman;font-size:14.00;">7</text>
</g>
<!-- 6&#45;&gt;7 -->
<g id="edge14" class="edge"><title>6&#45;&gt;7</title>
<path style="fill:none;stroke:black;" d="M706,-67C739,-67 795,-67 832,-67"/>
<polygon style="fill:black;stroke:black;" points="832,-70.5001 842,-67 832,-63.5001 832,-70.5001"/>
<text text-anchor="middle" x="774" y="-70.9" style="font-family:Times New Roman;font-size:14.00;">&#39;a&#39; / end, begin</text>
</g>
<!-- 6&#45;&gt;1 -->
<g id="edge16" class="edge"><title>6&#45;&gt;1</title>
<path style="fill:none;stroke:black;" d="M652,-66C619,-66 564,-65 516,-64 493,-64 486,-63 462,-64 380,-69 284,-80 234,-87"/>
<polygon style="fill:black;stroke:black;" points="233.602,-83.5222 224,-88 234.299,-90.4875 233.602,-83.5222"/>
<text text-anchor="middle" x="417" y="-73.9" style="font-family:Times New Roman;font-size:14.00;">&#39;b&#39;</text>
</g>
<!-- 7&#45;&gt;1 -->
<g id="edge20" class="edge"><title>7&#45;&gt;1</title>
<path style="fill:none;stroke:black;" d="M846,-53C811,-33 742,-0 679,-0 349,-0 349,-0 349,-0 299,-0 250,-39 223,-66"/>
<polygon style="fill:black;stroke:black;" points="220.596,-63.454 216,-73 225.546,-68.4038 220.596,-63.454"/>
<text text-anchor="middle" x="489" y="-4.9" style="font-family:Times New Roman;font-size:14.00;">&#39;b&#39;</text>
</g>
<!-- 3 -->
<g id="node12" class="node"><title>3</title>
<ellipse style="fill:none;stroke:black;" cx="1021" cy="-96" rx="23" ry="23"/>
<text text-anchor="middle" x="1021" y="-91.9" style="font-family:Times New Roman;font-size:14.00;">3</text>
</g>
<!-- 7&#45;&gt;3 -->
<g id="edge18" class="edge"><title>7&#45;&gt;3</title>
<path style="fill:none;stroke:black;" d="M896,-72C922,-76 961,-84 988,-90"/>
<polygon style="fill:black;stroke:black;" points="987.508,-93.4708 998,-92 988.881,-86.6067 987.508,-93.4708"/>
<text text-anchor="middle" x="947" y="-89.9" style="font-family:Times New Roman;font-size:14.00;">&#39;a&#39; / begin</text>
</g>
<!-- 8 -->
<g id="node7" class="node"><title>8</title>
<ellipse style="fill:none;stroke:black;" cx="1161" cy="-156" rx="23.0727" ry="23.0727"/>
<ellipse style="fill:none;stroke:black;" cx="1161" cy="-156" rx="27" ry="27"/>
<text text-anchor="middle" x="1161" y="-151.9" style="font-family:Times New Roman;font-size:14.00;">8</text>
</g>
<!-- 8&#45;&gt;1 -->
<g id="edge24" class="edge"><title>8&#45;&gt;1</title>
<path style="fill:none;stroke:black;" d="M1137,-169C1110,-183 1064,-202 1021,-202 349,-202 349,-202 349,-202 297,-202 282,-186 242,-152 232,-143 224,-131 217,-121"/>
<polygon style="fill:black;stroke:black;" points="219.916,-119.042 212,-112 213.797,-122.441 219.916,-119.042"/>
<text text-anchor="middle" x="679" y="-205.9" style="font-family:Times New Roman;font-size:14.00;">&#39;b&#39;</text>
</g>
<!-- 2 -->
<g id="node10" class="node"><title>2</title>
<ellipse style="fill:none;stroke:black;" cx="349" cy="-149" rx="23" ry="23"/>
<text text-anchor="middle" x="349" y="-144.9" style="font-family:Times New Roman;font-size:14.00;">2</text>
</g>
<!-- 8&#45;&gt;2 -->
<g id="edge22" class="edge"><title>8&#45;&gt;2</title>
<path style="fill:none;stroke:black;" d="M1134,-156C1106,-156 1061,-156 1021,-156 489,-156 489,-156 489,-156 453,-156 411,-154 382,-152"/>
<polygon style="fill:black;stroke:black;" points="382.299,-148.512 372,-151 381.602,-155.478 382.299,-148.512"/>
<text text-anchor="middle" x="774" y="-159.9" style="font-family:Times New Roman;font-size:14.00;">&#39;a&#39; / begin</text>
</g>
<!-- 1&#45;&gt;2 -->
<g id="edge2" class="edge"><title>1&#45;&gt;2</title>
<path style="fill:none;stroke:black;" d="M223,-99C248,-110 290,-126 318,-137"/>
<polygon style="fill:black;stroke:black;" points="317.415,-140.536 328,-141 320.015,-134.036 317.415,-140.536"/>
<text text-anchor="middle" x="275" y="-134.9" style="font-family:Times New Roman;font-size:14.00;">&#39;a&#39; / begin</text>
</g>
<!-- 2&#45;&gt;5 -->
<g id="edge4" class="edge"><title>2&#45;&gt;5</title>
<path style="fill:none;stroke:black;" d="M368,-136C375,-132 383,-128 390,-125 410,-117 433,-110 452,-106"/>
<polygon style="fill:black;stroke:black;" points="452.881,-109.393 462,-104 451.508,-102.529 452.881,-109.393"/>
<text text-anchor="middle" x="417" y="-128.9" style="font-family:Times New Roman;font-size:14.00;">&#39;a&#39; / end</text>
</g>
<!-- 3&#45;&gt;8 -->
<g id="edge6" class="edge"><title>3&#45;&gt;8</title>
<path style="fill:none;stroke:black;" d="M1044,-101C1064,-105 1093,-113 1116,-125 1121,-127 1126,-130 1130,-133"/>
<polygon style="fill:black;stroke:black;" points="1128.74,-136.365 1139,-139 1132.62,-130.541 1128.74,-136.365"/>
<text text-anchor="middle" x="1089" y="-128.9" style="font-family:Times New Roman;font-size:14.00;">&#39;a&#39; / end</text>
</g>
</g>
</svg>
