<?xml version="1.0" encoding="UTF-8" standalone="no"?>
<!DOCTYPE svg PUBLIC "-//W3C//DTD SVG 1.0//EN"
 "http://www.w3.org/TR/2001/REC-SVG-20010904/DTD/svg10.dtd" [
 <!ATTLIST svg xmlns:xlink CDATA #FIXED "http://www.w3.org/1999/xlink">
]>
<!-- Generated by Graphviz version 2.20.2 and then edited by hand -->
<!-- Title: one_instruction_x86_32 Pages: 1 -->
<svg width="840pt" height="226pt"
 viewBox="0.00 0.00 840.00 226.00" xmlns="http://www.w3.org/2000/svg" xmlns:xlink="http://www.w3.org/1999/xlink">
<g id="graph0" class="graph" transform="scale(1 1) rotate(0) translate(4 222)">
<title>one_instruction_x86_32</title>
<!-- ENTRY -->
<g id="node1" class="node"><title>ENTRY</title>
<ellipse style="fill:black;stroke:black;" cx="2" cy="-111" rx="1.8" ry="1.8"/>
</g>
<!-- 4 -->
<g id="node3" class="node"><title>4</title>
<ellipse style="fill:none;stroke:black;" cx="101" cy="-91" rx="23.0727" ry="23.0727"/>
<ellipse style="fill:none;stroke:black;" cx="101" cy="-91" rx="27" ry="27"/>
<text text-anchor="middle" x="101" y="-86.9" style="font-family:Times New Roman;font-size:14.00;">4</text>
</g>
<!-- ENTRY&#45;&gt;4 -->
<g id="edge26" class="edge"><title>ENTRY&#45;&gt;4</title>
<path style="fill:none;stroke:black;" d="M4,-111C12,-109 40,-104 64,-98"/>
<polygon style="fill:black;stroke:black;" points="64.8806,-101.393 74,-96 63.5078,-94.5292 64.8806,-101.393"/>
<text text-anchor="middle" x="39" y="-109.9" style="font-family:Times New Roman;font-size:14.00;">IN</text>
</g>
<!-- en_4 -->
<g id="node2" class="node"><title>en_4</title>
<ellipse style="fill:black;stroke:black;" cx="2" cy="-71" rx="1.8" ry="1.8"/>
</g>
<!-- en_4&#45;&gt;4 -->
<g id="edge28" class="edge"><title>en_4&#45;&gt;4</title>
<path style="fill:none;stroke:black;" d="M4,-71C11,-72 37,-74 56,-78 59,-78 62,-79 65,-80"/>
<polygon style="fill:black;stroke:black;" points="64.416,-83.4788 75,-83 66.4275,-76.7741 64.416,-83.4788"/>
<text text-anchor="middle" x="39" y="-81.9" style="font-family:Times New Roman;font-size:14.00;">main</text>
</g>
<!-- 1 -->
<g id="node8" class="node"><title>1</title>
<ellipse style="fill:none;stroke:black;" cx="201" cy="-91" rx="23" ry="23"/>
<text text-anchor="middle" x="201" y="-86.9" style="font-family:Times New Roman;font-size:14.00;">1</text>
</g>
<!-- 4&#45;&gt;1 -->
<g id="edge8" class="edge"><title>4&#45;&gt;1</title>
<path style="fill:none;stroke:black;" d="M128,-91C140,-91 155,-91 168,-91"/>
<polygon style="fill:black;stroke:black;" points="168,-94.5001 178,-91 168,-87.5001 168,-94.5001"/>
<text text-anchor="middle" x="153" y="-94.9" style="font-family:Times New Roman;font-size:14.00;">&#39;b&#39;</text>
</g>
<!-- 5 -->
<g id="node4" class="node"><title>5</title>
<ellipse style="fill:none;stroke:black;" cx="397" cy="-100" rx="23.0727" ry="23.0727"/>
<ellipse style="fill:none;stroke:black;" cx="397" cy="-100" rx="27" ry="27"/>
<text text-anchor="middle" x="397" y="-95.9" style="font-family:Times New Roman;font-size:14.00;">5</text>
</g>
<!-- 6 -->
<g id="node5" class="node"><title>6</title>
<ellipse style="fill:none;stroke:black;" cx="501" cy="-67" rx="23.0727" ry="23.0727"/>
<ellipse style="fill:none;stroke:black;" cx="501" cy="-67" rx="27" ry="27"/>
<text text-anchor="middle" x="501" y="-62.9" style="font-family:Times New Roman;font-size:14.00;">6</text>
</g>
<!-- 5&#45;&gt;6 -->
<g id="edge10" class="edge"><title>5&#45;&gt;6</title>
<path style="fill:none;stroke:black;" d="M423,-92C436,-88 451,-83 465,-78"/>
<polygon style="fill:black;stroke:black;" points="466.427,-81.2259 475,-75 464.416,-74.5212 466.427,-81.2259"/>
<text text-anchor="middle" x="449" y="-87.9" style="font-family:Times New Roman;font-size:14.00;">&#39;a&#39;</text>
</g>
<!-- 5&#45;&gt;1 -->
<g id="edge12" class="edge"><title>5&#45;&gt;1</title>
<path style="fill:none;stroke:black;" d="M370,-99C334,-97 273,-94 234,-92"/>
<polygon style="fill:black;stroke:black;" points="234,-88.5001 224,-92 234,-95.5001 234,-88.5001"/>
<text text-anchor="middle" x="297" y="-98.9" style="font-family:Times New Roman;font-size:14.00;">&#39;b&#39;</text>
</g>
<!-- 7 -->
<g id="node6" class="node"><title>7</title>
<ellipse style="fill:none;stroke:black;" cx="605" cy="-67" rx="23.0727" ry="23.0727"/>
<ellipse style="fill:none;stroke:black;" cx="605" cy="-67" rx="27" ry="27"/>
<text text-anchor="middle" x="605" y="-62.9" style="font-family:Times New Roman;font-size:14.00;">7</text>
</g>
<!-- 6&#45;&gt;7 -->
<g id="edge14" class="edge"><title>6&#45;&gt;7</title>
<path style="fill:none;stroke:black;" d="M528,-67C540,-67 554,-67 568,-67"/>
<polygon style="fill:black;stroke:black;" points="568,-70.5001 578,-67 568,-63.5001 568,-70.5001"/>
<text text-anchor="middle" x="553" y="-70.9" style="font-family:Times New Roman;font-size:14.00;">&#39;a&#39;</text>
</g>
<!-- 6&#45;&gt;1 -->
<g id="edge16" class="edge"><title>6&#45;&gt;1</title>
<path style="fill:none;stroke:black;" d="M474,-66C459,-65 441,-64 424,-64 401,-64 394,-63 370,-64 323,-69 268,-78 234,-84"/>
<polygon style="fill:black;stroke:black;" points="233.119,-80.6067 224,-86 234.492,-87.4708 233.119,-80.6067"/>
<text text-anchor="middle" x="345" y="-73.9" style="font-family:Times New Roman;font-size:14.00;">&#39;b&#39;</text>
</g>
<!-- 7&#45;&gt;1 -->
<g id="edge20" class="edge"><title>7&#45;&gt;1</title>
<path style="fill:none;stroke:black;" d="M587,-47C568,-27 536,-0 501,-0 297,-0 297,-0 297,-0 261,-0 233,-35 216,-61"/>
<polygon style="fill:black;stroke:black;" points="212.797,-59.5586 211,-70 218.916,-62.9582 212.797,-59.5586"/>
<text text-anchor="middle" x="397" y="-4.9" style="font-family:Times New Roman;font-size:14.00;">&#39;b&#39;</text>
</g>
<!-- 3 -->
<g id="node12" class="node"><title>3</title>
<ellipse style="fill:none;stroke:black;" cx="705" cy="-96" rx="23" ry="23"/>
<text text-anchor="middle" x="705" y="-91.9" style="font-family:Times New Roman;font-size:14.00;">3</text>
</g>
<!-- 7&#45;&gt;3 -->
<g id="edge18" class="edge"><title>7&#45;&gt;3</title>
<path style="fill:none;stroke:black;" d="M631,-75C644,-78 659,-83 673,-86"/>
<polygon style="fill:black;stroke:black;" points="672.416,-89.4788 683,-89 674.427,-82.7741 672.416,-89.4788"/>
<text text-anchor="middle" x="657" y="-85.9" style="font-family:Times New Roman;font-size:14.00;">&#39;a&#39;</text>
</g>
<!-- 8 -->
<g id="node7" class="node"><title>8</title>
<ellipse style="fill:none;stroke:black;" cx="805" cy="-156" rx="23.0727" ry="23.0727"/>
<ellipse style="fill:none;stroke:black;" cx="805" cy="-156" rx="27" ry="27"/>
<text text-anchor="middle" x="805" y="-151.9" style="font-family:Times New Roman;font-size:14.00;">8</text>
</g>
<!-- 8&#45;&gt;1 -->
<g id="edge24" class="edge"><title>8&#45;&gt;1</title>
<path style="fill:none;stroke:black;" d="M783,-173C764,-186 734,-202 705,-202 297,-202 297,-202 297,-202 255,-202 227,-155 213,-123"/>
<polygon style="fill:black;stroke:black;" points="215.964,-120.985 209,-113 209.464,-123.585 215.964,-120.985"/>
<text text-anchor="middle" x="501" y="-205.9" style="font-family:Times New Roman;font-size:14.00;">&#39;b&#39;</text>
</g>
<!-- 2 -->
<g id="node10" class="node"><title>2</title>
<ellipse style="fill:none;stroke:black;" cx="297" cy="-149" rx="23" ry="23"/>
<text text-anchor="middle" x="297" y="-144.9" style="font-family:Times New Roman;font-size:14.00;">2</text>
</g>
<!-- 8&#45;&gt;2 -->
<g id="edge22" class="edge"><title>8&#45;&gt;2</title>
<path style="fill:none;stroke:black;" d="M778,-156C758,-156 730,-156 705,-156 397,-156 397,-156 397,-156 375,-156 350,-155 330,-153"/>
<polygon style="fill:black;stroke:black;" points="330.299,-149.512 320,-152 329.602,-156.478 330.299,-149.512"/>
<text text-anchor="middle" x="553" y="-159.9" style="font-family:Times New Roman;font-size:14.00;">&#39;a&#39;</text>
</g>
<!-- 1&#45;&gt;2 -->
<g id="edge2" class="edge"><title>1&#45;&gt;2</title>
<path style="fill:none;stroke:black;" d="M221,-103C234,-111 253,-122 268,-132"/>
<polygon style="fill:black;stroke:black;" points="266.559,-135.203 277,-137 269.958,-129.084 266.559,-135.203"/>
<text text-anchor="middle" x="249" y="-125.9" style="font-family:Times New Roman;font-size:14.00;">&#39;a&#39;</text>
</g>
<!-- 2&#45;&gt;5 -->
<g id="edge4" class="edge"><title>2&#45;&gt;5</title>
<path style="fill:none;stroke:black;" d="M317,-137C323,-133 331,-128 338,-125 346,-121 354,-117 363,-114"/>
<polygon style="fill:black;stroke:black;" points="364.283,-117.26 372,-110 361.44,-110.863 364.283,-117.26"/>
<text text-anchor="middle" x="345" y="-128.9" style="font-family:Times New Roman;font-size:14.00;">&#39;a&#39;</text>
</g>
<!-- 3&#45;&gt;8 -->
<g id="edge6" class="edge"><title>3&#45;&gt;8</title>
<path style="fill:none;stroke:black;" d="M726,-106C736,-111 749,-118 760,-125 765,-128 770,-131 775,-134"/>
<polygon style="fill:black;stroke:black;" points="772.9,-136.8 783,-140 777.1,-131.2 772.9,-136.8"/>
<text text-anchor="middle" x="753" y="-128.9" style="font-family:Times New Roman;font-size:14.00;">&#39;a&#39;</text>
</g>
</g>
</svg>
